<svg width="164" height="66" viewBox="0 0 164 66" fill="none" xmlns="http://www.w3.org/2000/svg">
<path d="M131.397 62.7239C131.76 63.1525 132.205 63.4985 132.703 63.7399C133.202 63.9814 133.743 64.1131 134.293 64.1266C135.001 64.2865 135.638 64.6871 136.102 65.2647C134.577 66.4499 132.851 65.8863 131.419 65.7206C127.051 65.2151 122.737 64.2502 118.342 63.8402C115.736 63.5971 113.168 62.8872 110.562 62.6869C108.087 62.4968 105.634 62.1865 103.172 61.895C98.9333 61.3929 94.6817 61.0029 90.4347 60.5718C90.1164 60.5395 89.7938 60.5488 89.4731 60.5476C84.2249 60.5281 79.0184 59.7825 73.7832 59.5747C70.6696 59.4512 67.5478 59.5498 64.4297 59.5494C59.7443 59.549 55.0528 59.3924 50.3753 59.5916C45.2534 59.8097 40.1239 59.6604 35.0157 59.9454C30.4255 60.2014 25.8405 60.0467 21.2594 60.2403C18.0346 60.4447 14.7981 60.3194 11.597 59.8664C11.2082 59.8679 10.8239 59.7796 10.4721 59.608C10.1203 59.4364 9.80972 59.1859 9.56295 58.8745C10.8665 57.0876 12.9629 58.3004 14.4214 57.3399C12.6499 56.8534 11.365 55.3264 9.57948 54.4994C11.1381 53.3562 12.9956 53.4339 14.8631 52.232C13.6291 52.232 12.8149 52.1797 12.0102 52.2475C11.2786 52.3091 11.0471 51.7852 10.9818 51.2837C10.9135 50.759 11.3767 50.5744 11.8555 50.5755C12.7189 50.5774 13.5823 50.576 14.6097 50.576C13.2494 49.5369 10.5959 50.3645 11.2464 47.2937C11.4543 47.1606 11.9982 47.2001 12.3683 46.548C11.4154 46.7837 10.6051 47.0499 9.77515 47.1705C8.97314 47.2872 8.07906 47.3583 8.11133 45.9675C7.78288 45.7043 7.12932 46.2093 6.69481 45.492C7.42087 45.111 8.21601 44.8922 9.0288 44.8497C8.55024 43.8218 7.71965 43.9556 6.79066 43.8653C7.6216 42.556 6.49862 41.3399 6.65488 40.0735C5.04463 39.2326 4.73429 37.6973 4.99354 35.8906C2.75487 34.6835 5.77329 32.7393 4.47452 31.4107C3.65317 31.114 3.10513 32.3842 2.19725 31.6856L3.89245 30.1211C3.13732 29.8835 2.41376 29.9812 1.94671 29.2944C1.87478 28.9643 2.374 28.8129 2.45526 28.4332C2.00642 28.1387 1.67287 28.6104 1.28849 28.6866C0.787495 28.786 0.306643 28.8375 0.0844203 28.4047C-0.185993 27.8781 0.243152 27.6027 0.666667 27.2661C3.0835 25.3452 5.98549 24.5088 8.72823 23.3385C13.0702 21.4858 17.4503 19.7262 21.8402 17.998C25.3546 16.6145 28.9048 15.3284 32.4441 14.0133C37.1997 12.2464 41.9326 10.408 46.7244 8.75319C54.5437 6.05291 62.3457 3.28045 70.3414 1.17322C72.2629 0.66685 74.2414 0.385139 76.2018 0.0501104C76.7018 -0.0352871 77.2912 -0.0957197 77.6032 0.611248C77.5819 1.36351 76.6318 1.53258 76.5042 2.31647C80.1666 1.5694 83.569 -0.882159 87.5676 0.753793C85.8839 1.2701 83.735 0.537236 82.5556 2.61685C83.2009 2.68147 83.762 2.73763 84.5102 2.81263C83.747 3.83786 82.5805 3.88652 81.6951 4.7857C82.691 4.71479 83.5692 4.48321 84.2543 5.18043C83.8062 6.5611 82.6224 7.25786 81.4002 8.29257C83.4055 8.4167 84.9787 6.63657 86.7972 7.6402C86.7737 8.39593 85.974 8.54055 85.8493 9.26593C87.5034 9.5635 89.0808 8.99963 90.676 8.88716C93.7094 8.60087 96.7676 8.87566 99.7082 9.69868C101.219 10.0836 102.63 10.809 103.839 11.8232C104.816 12.6927 106.453 11.8546 107.681 11.5764C110.218 11.0844 112.79 10.8138 115.37 10.7676C119.084 10.5824 122.812 10.3372 126.533 10.3778C129.511 10.4105 132.509 10.1589 135.473 10.6802C136.078 10.7867 136.671 10.9654 137.308 11.1199C136.901 12.8302 135.218 11.8025 134.327 12.608C136.101 13.4705 137.694 14.5274 139.566 13.652C141.422 12.7843 143.337 13.6743 145.189 13.321C147.202 12.901 149.256 12.7401 151.307 12.8419C154.334 13.0616 157.409 12.3419 160.403 13.3033C160.873 13.4247 161.289 13.7051 161.588 14.1001C161.259 15.0765 160.464 14.9713 159.686 15.0158C159.172 15.0452 158.496 14.653 158.347 15.8002C158.21 16.8606 158.782 17.1202 159.396 17.2803C159.641 17.3217 159.875 17.416 160.083 17.5571C160.29 17.6981 160.467 17.8828 160.602 18.0992C159.66 19.2064 158.135 18.1472 157.186 19.1473C158.038 19.7303 157.241 19.9098 156.83 20.1814C158.038 20.791 159.545 20.3488 160.665 21.3694C159.754 22.1147 158.736 21.9227 157.757 22.0411C158.399 23.1013 159.817 22.2101 160.422 23.3335C160.441 24.4101 159.218 25.0427 159.338 26.2007C160.264 26.6671 160.42 25.2458 161.214 25.3625C160.826 26.8477 160.66 26.9728 155.869 29.4057C156.971 30.1583 156.971 30.1583 161.739 29.5022C161.247 30.4024 160.515 31.1364 159.63 31.6162C160.045 33.8185 160.023 33.7683 162.126 32.776C162.628 32.5395 163.44 31.7494 164 33.0606C161.301 35.8579 157.746 36.7383 153.931 37.759C155.788 38.3353 157.659 37.5942 159.009 39.0536C158.707 39.4776 158.18 39.5321 157.737 39.7464C158.539 40.5823 159.765 39.2803 160.484 40.4731C159.875 41.1705 158.708 40.9291 157.936 41.7448C159.098 42.2779 160.455 41.3866 161.495 42.5789C160.305 43.4046 158.913 43.8629 157.481 43.9004C152.437 44.2437 147.455 45.0235 142.465 45.826C140.157 46.1971 137.87 46.6514 135.446 46.953C136.108 47.7184 136.654 48.35 137.196 48.9768C136.227 50.1462 135.066 49.7976 133.939 49.487C131.84 48.7932 129.664 48.3833 127.464 48.2673C126.499 48.306 125.543 48.4829 124.624 48.793C128.39 50.3904 132.647 50.2029 136.432 52.1088C135.722 53.3136 134.744 52.9176 133.871 52.7652C130.885 52.2442 127.963 51.3033 124.883 51.3405C128.576 52.324 132.434 52.5998 136.03 54.0846C134.554 56.399 134.168 56.6272 132.053 55.8219C131.057 55.5771 130.024 55.5403 129.015 55.7136C130.788 56.1353 132.564 56.5395 134.329 56.9935C134.667 57.1354 134.984 57.3255 135.27 57.5581C134.625 58.494 133.914 58.4538 132.892 58.273C128.074 57.4208 123.287 56.3463 118.329 56.5009C115.934 56.5756 113.521 56.0565 111.099 56.2327C110.92 56.2693 110.745 56.323 110.577 56.3929C118.816 57.7901 127.101 58.1907 135.205 60.8926C133.801 61.4509 133.405 63.7379 131.38 62.7415C128.182 61.8293 124.908 61.2306 121.602 60.9532C123.075 61.6448 124.659 62.0457 126.274 62.1355C127.984 62.3089 129.617 63.2872 131.397 62.7239ZM132.638 14.2845C122.072 14.9569 111.73 17.3207 100.882 18.9612C102.505 19.8115 128.574 15.9468 132.638 14.2845ZM84.6187 12.7726C86.6476 12.2956 88.3829 13.0011 90.1096 12.9544C91.9196 12.9055 93.7237 12.1489 95.5743 12.4919C97.4714 12.8254 99.4167 12.7109 101.265 12.157C98.9122 10.3567 86.8459 10.6835 84.6187 12.7726ZM126.821 12.2797C124.168 11.7057 108.519 12.8559 106.304 13.8082C109.967 13.9019 113.277 12.928 116.644 13.0152C120.058 13.1036 123.42 12.4712 126.821 12.2797ZM141.788 42.2848C145.284 41.7389 148.781 41.193 152.277 40.6472L152.205 40.2091C148.618 39.9518 145.028 40.6672 141.788 42.2848ZM7.78606 34.3746C10.7046 32.7517 14.0733 32.3113 16.9427 30.634C16.6008 29.716 16.0414 29.5628 15.4663 30.0958C14.2204 31.2504 12.635 31.6324 11.1619 32.2661C9.88544 32.6682 8.72541 33.3927 7.78606 34.3746ZM74.8758 7.49646C77.1017 7.84643 80.2561 6.47542 81.3205 4.66056C79.1532 5.67157 76.7344 5.81157 74.8758 7.49646ZM71.5285 10.881L71.3781 10.4158C69.5725 11.066 67.7669 11.7161 65.9614 12.3662C65.9992 12.4832 66.0369 12.6003 66.0746 12.7174C67.8926 12.1053 69.7106 11.4932 71.5285 10.881ZM29.7853 24.5534C31.337 24.3245 32.8062 23.687 34.0524 22.7018C32.5042 22.9439 31.0381 23.5801 29.7853 24.5534Z" fill="#FAE465"/>
</svg>
