<svg width="366" height="114" viewBox="0 0 366 114" fill="none" xmlns="http://www.w3.org/2000/svg">
<path d="M293.24 108.341C294.05 109.082 295.042 109.679 296.154 110.096C297.267 110.513 298.475 110.741 299.702 110.764C301.284 111.04 302.704 111.732 303.739 112.73C300.337 114.777 296.485 113.804 293.288 113.517C283.54 112.644 273.914 110.978 264.105 110.269C258.29 109.85 252.559 108.623 246.742 108.277C241.218 107.949 235.744 107.413 230.251 106.91C220.79 106.042 211.302 105.369 201.824 104.624C201.113 104.568 200.393 104.584 199.678 104.582C187.965 104.549 176.346 103.261 164.662 102.902C157.714 102.688 150.747 102.859 143.788 102.858C133.332 102.857 122.862 102.587 112.423 102.931C100.992 103.308 89.5447 103.05 78.1449 103.542C67.9008 103.984 57.6685 103.717 47.4448 104.051C40.2479 104.404 33.0251 104.188 25.8811 103.406C25.0133 103.408 24.1558 103.256 23.3706 102.959C22.5855 102.663 21.8924 102.23 21.3417 101.692C24.2508 98.6058 28.9293 100.701 32.1844 99.0416C28.2308 98.2012 25.3633 95.5638 21.3786 94.1353C24.857 92.1608 29.0023 92.2949 33.1702 90.219C30.4161 90.219 28.5992 90.1286 26.8033 90.2457C25.1706 90.3521 24.6539 89.4471 24.5083 88.581C24.3558 87.6747 25.3895 87.3558 26.4581 87.3577C28.3849 87.361 30.3117 87.3586 32.6045 87.3586C29.5689 85.5637 23.6469 86.9932 25.0986 81.6891C25.5627 81.4592 26.7766 81.5275 27.6024 80.4012C25.4758 80.8083 23.6675 81.2679 21.8153 81.4764C20.0254 81.6779 18.0301 81.8007 18.1021 79.3984C17.3691 78.9437 15.9106 79.816 14.9409 78.5771C16.5612 77.919 18.3357 77.5411 20.1496 77.4677C19.0816 75.6922 17.228 75.9233 15.1548 75.7674C17.0092 73.5059 14.503 71.4052 14.8518 69.2179C11.2581 67.7653 10.5656 65.1135 11.1441 61.9928C6.14806 59.9079 12.8843 56.5497 9.98582 54.2548C8.1528 53.7424 6.92974 55.9363 4.90361 54.7296L8.68681 52.0273C7.00157 51.6169 5.3868 51.7857 4.34449 50.5994C4.18395 50.0292 5.29808 49.7677 5.47942 49.1118C4.47774 48.6032 3.73335 49.4179 2.87552 49.5496C1.75746 49.7212 0.684337 49.8102 0.188401 49.0627C-0.415081 48.1532 0.542644 47.6774 1.48781 47.0961C6.88147 43.7781 13.3579 42.3334 19.4788 40.3119C29.1689 37.1118 38.944 34.0725 48.741 31.0875C56.584 28.6978 64.5071 26.4764 72.4058 24.2048C83.0188 21.1529 93.5812 17.9775 104.275 15.1191C121.725 10.455 139.137 5.66624 156.981 2.02647C161.27 1.15183 165.685 0.66524 170.06 0.0865544C171.176 -0.0609505 172.491 -0.165334 173.188 1.05579C173.14 2.35516 171.02 2.64718 170.735 4.00117C178.908 2.71078 186.501 -1.52373 195.425 1.30201C191.668 2.1938 186.872 0.927953 184.24 4.52002C185.68 4.63163 186.932 4.72863 188.602 4.85818C186.899 6.62903 184.296 6.71307 182.319 8.2662C184.542 8.14373 186.502 7.74373 188.031 8.94801C187.031 11.3328 184.389 12.5363 181.661 14.3235C186.137 14.5379 189.648 11.4632 193.706 13.1967C193.654 14.5021 191.869 14.7519 191.591 16.0048C195.282 16.5188 198.802 15.5448 202.362 15.3506C209.132 14.8561 215.957 15.3307 222.519 16.7523C225.892 17.4171 229.04 18.6701 231.739 20.4219C233.919 21.9237 237.572 20.476 240.312 19.9956C245.974 19.1458 251.714 18.6784 257.473 18.5985C265.761 18.2786 274.08 17.8551 282.384 17.9253C289.032 17.9817 295.72 17.5472 302.336 18.4477C303.686 18.6316 305.011 18.9403 306.431 19.2071C305.524 22.1613 301.767 20.3862 299.778 21.7775C303.738 23.2672 307.292 25.0928 311.47 23.5807C315.612 22.0819 319.886 23.6192 324.02 23.009C328.511 22.2836 333.096 22.0057 337.672 22.1814C344.427 22.561 351.292 21.3178 357.973 22.9784C359.02 23.1881 359.951 23.6725 360.616 24.3548C359.884 26.0413 358.109 25.8594 356.371 25.9364C355.226 25.9871 353.717 25.3098 353.385 27.2912C353.078 29.1228 354.354 29.5713 355.725 29.8478C356.272 29.9193 356.794 30.0822 357.257 30.3258C357.721 30.5695 358.116 30.8885 358.416 31.2622C356.315 33.1747 352.91 31.3452 350.792 33.0726C352.694 34.0796 350.915 34.3897 349.998 34.8588C352.694 35.9117 356.058 35.1479 358.558 36.9108C356.525 38.1981 354.252 37.8665 352.067 38.071C353.499 39.9023 356.664 38.3629 358.015 40.3033C358.058 42.1629 355.328 43.2556 355.597 45.2558C357.662 46.0613 358.011 43.6063 359.782 43.808C358.917 46.3733 358.547 46.5893 347.855 50.7917C350.314 52.0915 350.314 52.0915 360.954 50.9584C359.856 52.5133 358.222 53.7811 356.248 54.6099C357.173 58.4138 357.124 58.3271 361.819 56.613C362.937 56.2045 364.749 54.8398 366 57.1047C359.976 61.9364 352.042 63.4571 343.529 65.2201C347.672 66.2155 351.849 64.9355 354.862 67.4562C354.187 68.1887 353.011 68.2828 352.022 68.6529C353.812 70.0968 356.55 67.8478 358.152 69.9082C356.793 71.1126 354.191 70.6957 352.466 72.1047C355.06 73.0254 358.088 71.486 360.409 73.5454C357.753 74.9716 354.646 75.7632 351.451 75.8279C340.194 76.4209 329.077 77.7678 317.94 79.154C312.789 79.7951 307.685 80.5797 302.275 81.1006C303.752 82.4226 304.972 83.5136 306.182 84.5963C304.018 86.6162 301.428 86.0141 298.912 85.4776C294.229 84.2792 289.372 83.5711 284.463 83.3708C282.308 83.4376 280.175 83.7432 278.125 84.2788C286.528 87.0379 296.03 86.7141 304.476 90.0061C302.891 92.0871 300.71 91.4031 298.761 91.1399C292.096 90.2401 285.575 88.6148 278.702 88.6791C286.944 90.3778 295.554 90.8542 303.58 93.4189C300.285 97.4165 299.424 97.8107 294.703 96.4197C292.481 95.9968 290.176 95.9332 287.923 96.2327C291.88 96.9609 295.845 97.6591 299.784 98.4434C300.537 98.6885 301.244 99.0167 301.884 99.4186C300.444 101.035 298.857 100.966 296.577 100.653C285.824 99.1814 275.14 97.3255 264.077 97.5925C258.731 97.7214 253.346 96.8249 247.94 97.1292C247.542 97.1925 247.152 97.2852 246.775 97.4059C265.162 99.8192 283.652 100.511 301.738 105.178C298.604 106.142 297.721 110.093 293.202 108.372C286.065 106.796 278.758 105.762 271.38 105.283C274.667 106.477 278.203 107.17 281.806 107.325C285.623 107.624 289.268 109.314 293.24 108.341ZM296.009 24.6733C272.43 25.8346 249.349 29.9175 225.139 32.7511C228.762 34.2199 286.939 27.5445 296.009 24.6733ZM188.844 22.0618C193.372 21.2378 197.245 22.4565 201.098 22.3759C205.138 22.2913 209.164 20.9845 213.294 21.5769C217.528 22.153 221.869 21.9552 225.994 20.9984C220.743 17.8888 193.815 18.4533 188.844 22.0618ZM283.026 21.2105C277.106 20.219 242.182 22.2057 237.239 23.8506C245.415 24.0124 252.801 22.3302 260.315 22.4808C267.935 22.6335 275.437 21.5412 283.026 21.2105ZM316.43 73.0374C324.232 72.0944 332.035 71.1516 339.837 70.2089L339.678 69.4521C331.672 69.0077 323.66 70.2433 316.43 73.0374ZM17.3762 59.3742C23.8895 56.5712 31.4074 55.8105 37.8112 52.9133C37.0482 51.3277 35.7998 51.063 34.5163 51.9836C31.7358 53.978 28.1977 54.6378 24.91 55.7324C22.0614 56.4269 19.4726 57.6784 17.3762 59.3742ZM167.101 12.9484C172.068 13.5529 179.108 11.1848 181.483 8.05007C176.647 9.79635 171.249 10.0382 167.101 12.9484ZM159.631 18.7945L159.295 17.991C155.265 19.114 151.236 20.2369 147.206 21.3598C147.291 21.562 147.375 21.7642 147.459 21.9664C151.516 20.9092 155.574 19.8519 159.631 18.7945ZM66.472 42.4104C69.9351 42.0151 73.2139 40.9139 75.995 39.2122C72.5399 39.6304 69.2679 40.7292 66.472 42.4104Z" fill="#FAE465"/>
</svg>
