<svg width="199" height="66" viewBox="0 0 199 66" fill="none" xmlns="http://www.w3.org/2000/svg">
<path d="M159.439 62.7239C159.879 63.1525 160.419 63.4985 161.024 63.7399C161.629 63.9814 162.286 64.1131 162.953 64.1266C163.813 64.2865 164.585 64.6871 165.148 65.2647C163.298 66.4499 161.204 65.8863 159.465 65.7206C154.165 65.2151 148.931 64.2502 143.598 63.8402C140.436 63.5971 137.32 62.8872 134.158 62.6869C131.154 62.4968 128.178 62.1865 125.191 61.895C120.047 61.3929 114.888 61.0029 109.735 60.5718C109.349 60.5395 108.957 60.5488 108.568 60.5476C102.2 60.5281 95.8821 59.7825 89.5296 59.5747C85.7516 59.4512 81.9635 59.5498 78.18 59.5494C72.4946 59.549 66.8018 59.3924 61.1261 59.5916C54.9112 59.8097 48.6869 59.6604 42.4886 59.9454C36.9187 60.2014 31.3553 60.0467 25.7965 60.2403C21.8834 60.4447 17.9563 60.3194 14.0719 59.8664C13.6001 59.8679 13.1339 59.7796 12.707 59.608C12.2801 59.4364 11.9033 59.1859 11.6038 58.8745C13.1855 57.0876 15.7293 58.3004 17.4991 57.3399C15.3495 56.8534 13.7905 55.3264 11.6239 54.4994C13.5152 53.3562 15.769 53.4339 18.0351 52.232C16.5377 52.232 15.5498 52.1797 14.5734 52.2475C13.6857 52.3091 13.4047 51.7852 13.3255 51.2837C13.2426 50.759 13.8046 50.5744 14.3857 50.5755C15.4333 50.5774 16.481 50.576 17.7276 50.576C16.0771 49.5369 12.8572 50.3645 13.6465 47.2937C13.8989 47.1606 14.5588 47.2001 15.0079 46.548C13.8516 46.7837 12.8684 47.0499 11.8613 47.1705C10.8881 47.2872 9.80325 47.3583 9.84241 45.9675C9.44386 45.7043 8.65082 46.2093 8.12358 45.492C9.00459 45.111 9.96943 44.8922 10.9557 44.8497C10.375 43.8218 9.36714 43.9556 8.23989 43.8653C9.24816 42.556 7.88552 41.3399 8.07513 40.0735C6.12123 39.2326 5.74466 37.6973 6.05923 35.8906C3.3428 34.6835 7.0054 32.7393 5.42945 31.4107C4.43281 31.114 3.76781 32.3842 2.66617 31.6856L4.72316 30.1211C3.80687 29.8835 2.92889 29.9812 2.36217 29.2944C2.27488 28.9643 2.88065 28.8129 2.97925 28.4332C2.43462 28.1387 2.02988 28.6104 1.56347 28.6866C0.955559 28.786 0.372085 28.8375 0.102437 28.4047C-0.225686 27.8781 0.295044 27.6027 0.808944 27.2661C3.74156 25.3452 7.26288 24.5088 10.591 23.3385C15.8596 21.4858 21.1745 19.7262 26.5012 17.998C30.7656 16.6145 35.0736 15.3284 39.3682 14.0133C45.1386 12.2464 50.8816 10.408 56.696 8.75319C66.1841 6.05291 75.6512 3.28045 85.3533 1.17322C87.6848 0.66685 90.0856 0.385139 92.4643 0.0501104C93.0711 -0.0352871 93.7863 -0.0957197 94.1648 0.611248C94.139 1.36351 92.9861 1.53258 92.8313 2.31647C97.2753 1.5694 101.404 -0.882159 106.256 0.753793C104.213 1.2701 101.605 0.537236 100.174 2.61685C100.957 2.68147 101.638 2.73763 102.546 2.81263C101.62 3.83786 100.204 3.88652 99.13 4.7857C100.338 4.71479 101.404 4.48321 102.235 5.18043C101.692 6.5611 100.255 7.25786 98.7722 8.29257C101.205 8.4167 103.114 6.63657 105.321 7.6402C105.293 8.39593 104.322 8.54055 104.171 9.26593C106.178 9.5635 108.092 8.99963 110.028 8.88716C113.708 8.60087 117.419 8.87566 120.987 9.69868C122.821 10.0836 124.532 10.809 126 11.8232C127.185 12.6927 129.172 11.8546 130.662 11.5764C133.74 11.0844 136.861 10.8138 139.992 10.7676C144.498 10.5824 149.022 10.3372 153.537 10.3778C157.151 10.4105 160.788 10.1589 164.385 10.6802C165.119 10.7867 165.839 10.9654 166.611 11.1199C166.118 12.8302 164.075 11.8025 162.994 12.608C165.147 13.4705 167.08 14.5274 169.351 13.652C171.603 12.7843 173.927 13.6743 176.175 13.321C178.617 12.901 181.11 12.7401 183.598 12.8419C187.271 13.0616 191.003 12.3419 194.635 13.3033C195.205 13.4247 195.711 13.7051 196.073 14.1001C195.674 15.0765 194.71 14.9713 193.765 15.0158C193.142 15.0452 192.321 14.653 192.141 15.8002C191.974 16.8606 192.668 17.1202 193.413 17.2803C193.711 17.3217 193.994 17.416 194.247 17.5571C194.499 17.6981 194.713 17.8828 194.876 18.0992C193.734 19.2064 191.883 18.1472 190.731 19.1473C191.765 19.7303 190.798 19.9098 190.299 20.1814C191.765 20.791 193.595 20.3488 194.954 21.3694C193.848 22.1147 192.613 21.9227 191.424 22.0411C192.203 23.1013 193.924 22.2101 194.658 23.3335C194.682 24.4101 193.198 25.0427 193.344 26.2007C194.466 26.6671 194.656 25.2458 195.619 25.3625C195.149 26.8477 194.947 26.9728 189.134 29.4057C190.471 30.1583 190.471 30.1583 196.257 29.5022C195.659 30.4024 194.771 31.1364 193.698 31.6162C194.201 33.8185 194.174 33.7683 196.727 32.776C197.335 32.5395 198.32 31.7494 199 33.0606C195.725 35.8579 191.411 36.7383 186.782 37.759C189.035 38.3353 191.306 37.5942 192.944 39.0536C192.577 39.4776 191.938 39.5321 191.4 39.7464C192.373 40.5823 193.862 39.2803 194.733 40.4731C193.994 41.1705 192.579 40.9291 191.642 41.7448C193.052 42.2779 194.698 41.3866 195.96 42.5789C194.516 43.4046 192.827 43.8629 191.09 43.9004C184.969 44.2437 178.925 45.0235 172.869 45.826C170.069 46.1971 167.293 46.6514 164.352 46.953C165.155 47.7184 165.818 48.35 166.476 48.9768C165.3 50.1462 163.891 49.7976 162.523 49.487C159.977 48.7932 157.336 48.3833 154.667 48.2673C153.495 48.306 152.336 48.4829 151.221 48.793C155.79 50.3904 160.956 50.2029 165.548 52.1088C164.687 53.3136 163.501 52.9176 162.441 52.7652C158.817 52.2442 155.272 51.3033 151.535 51.3405C156.016 52.324 160.697 52.5998 165.061 54.0846C163.269 56.399 162.801 56.6272 160.235 55.8219C159.027 55.5771 157.773 55.5403 156.549 55.7136C158.7 56.1353 160.856 56.5395 162.997 56.9935C163.407 57.1354 163.791 57.3255 164.139 57.5581C163.356 58.494 162.493 58.4538 161.253 58.273C155.407 57.4208 149.598 56.3463 143.583 56.5009C140.676 56.5756 137.748 56.0565 134.809 56.2327C134.592 56.2693 134.38 56.323 134.175 56.3929C144.173 57.7901 154.226 58.1907 164.06 60.8926C162.356 61.4509 161.876 63.7379 159.419 62.7415C155.538 61.8293 151.565 61.2306 147.553 60.9532C149.341 61.6448 151.263 62.0457 153.223 62.1355C155.298 62.3089 157.279 63.2872 159.439 62.7239ZM160.945 14.2845C148.124 14.9569 135.575 17.3207 122.411 18.9612C124.381 19.8115 156.013 15.9468 160.945 14.2845ZM102.678 12.7726C105.139 12.2956 107.245 13.0011 109.34 12.9544C111.537 12.9055 113.726 12.1489 115.971 12.4919C118.273 12.8254 120.634 12.7109 122.877 12.157C120.021 10.3567 105.38 10.6835 102.678 12.7726ZM153.886 12.2797C150.667 11.7057 131.678 12.8559 128.991 13.8082C133.436 13.9019 137.452 12.928 141.537 13.0152C145.68 13.1036 149.759 12.4712 153.886 12.2797ZM172.048 42.2848C176.29 41.7389 180.532 41.193 184.775 40.6472L184.688 40.2091C180.335 39.9518 175.979 40.6672 172.048 42.2848ZM9.44772 34.3746C12.9891 32.7517 17.0767 32.3113 20.5586 30.634C20.1437 29.716 19.4649 29.5628 18.7671 30.0958C17.2552 31.2504 15.3315 31.6324 13.544 32.2661C11.9951 32.6682 10.5875 33.3927 9.44772 34.3746ZM90.8553 7.49646C93.5563 7.84643 97.384 6.47542 98.6754 4.66056C96.0457 5.67157 93.1106 5.81157 90.8553 7.49646ZM86.7938 10.881L86.6112 10.4158C84.4203 11.066 82.2294 11.7161 80.0385 12.3662C80.0844 12.4832 80.1302 12.6003 80.1759 12.7174C82.3819 12.1053 84.5878 11.4932 86.7938 10.881ZM36.1419 24.5534C38.0248 24.3245 39.8075 23.687 41.3197 22.7018C39.4411 22.9439 37.6621 23.5801 36.1419 24.5534Z" fill="#FAE465"/>
</svg>
