<svg width="15" height="17" viewBox="0 0 15 17" fill="none" xmlns="http://www.w3.org/2000/svg">
<path fill-rule="evenodd" clip-rule="evenodd" d="M5.83818 0.0411478C5.55698 0.108568 5.32379 0.24057 5.10436 0.456555C4.73822 0.817023 4.61087 1.20992 4.61087 1.97922V2.47531L2.50821 2.48623C0.46106 2.49689 0.402221 2.49926 0.279238 2.5771C0.0921099 2.69549 -0.0160374 2.91941 0.00193905 3.1513C0.0181106 3.36048 0.0999792 3.50333 0.278841 3.63443C0.390237 3.71608 0.436369 3.72192 0.971511 3.72192C1.39811 3.72192 1.54874 3.73436 1.55997 3.77052C1.56823 3.79727 1.72168 6.25989 1.90094 9.24305C2.10496 12.6384 2.24827 14.7833 2.28412 14.978C2.45702 15.9173 3.10619 16.6561 3.99783 16.9284C4.2172 16.9954 4.4375 16.9999 7.5167 16.9999C11.2083 16.9999 10.9864 17.0161 11.5441 16.7042C12.1985 16.3381 12.6579 15.6434 12.7688 14.8518C12.7891 14.7074 12.9446 12.1659 13.1144 9.20417C13.2843 6.24239 13.4298 3.79727 13.4378 3.77052C13.4487 3.73432 13.5989 3.72192 14.0258 3.72192C14.5609 3.72192 14.6071 3.71608 14.7185 3.63443C14.8912 3.5078 14.9762 3.36573 14.9968 3.16941C15.0203 2.94414 14.9132 2.71244 14.7282 2.58857L14.5918 2.49716L12.4929 2.48623L10.3941 2.47535L10.3785 1.88357C10.3653 1.38613 10.3497 1.25564 10.2805 1.06462C10.1256 0.636808 9.76805 0.263782 9.3504 0.0941429C9.14822 0.0120257 9.08812 0.00887642 7.58889 0.00137235C6.47316 -0.00422655 5.98091 0.0069712 5.83818 0.0411478ZM9.12602 1.41883C9.22995 1.54414 9.23132 1.55192 9.23132 2.01176V2.47772H7.49865H5.76598V2.01414C5.76598 1.5747 5.77075 1.54445 5.85745 1.43345C5.90777 1.36902 5.98491 1.30848 6.02892 1.29884C6.07292 1.28924 6.76407 1.28371 7.56482 1.28659L9.02073 1.29184L9.12602 1.41883ZM12.2639 3.84828C12.2641 3.89642 12.1253 6.34154 11.9554 9.28193C11.7459 12.9091 11.6298 14.6923 11.5943 14.8276C11.49 15.2254 11.1637 15.5899 10.8074 15.7065C10.6911 15.7445 9.93518 15.7557 7.46255 15.7557H4.26795L4.06775 15.6545C3.95766 15.5989 3.80998 15.4989 3.73956 15.4323C3.58531 15.2864 3.39443 14.9143 3.36577 14.7035C3.344 14.5434 2.76991 4.1304 2.76991 3.89544V3.7608H7.5167H12.2635L12.2639 3.84828ZM4.89929 5.90899C4.83366 5.95712 4.74598 6.04585 4.70444 6.10623C4.6291 6.21572 4.62892 6.22517 4.62892 9.74851C4.62892 13.2718 4.6291 13.2813 4.70444 13.3908C4.96704 13.7725 5.40981 13.7725 5.67242 13.3908C5.74775 13.2813 5.74793 13.2718 5.74793 9.74851C5.74793 6.22517 5.74775 6.21572 5.67242 6.10623C5.54438 5.92014 5.37675 5.8215 5.18843 5.8215C5.07176 5.8215 4.98127 5.84888 4.89929 5.90899ZM7.20951 5.90899C7.14389 5.95712 7.05621 6.04585 7.01466 6.10623C6.93932 6.21572 6.93914 6.22517 6.93914 9.74851C6.93914 13.2718 6.93932 13.2813 7.01466 13.3908C7.27727 13.7725 7.72004 13.7725 7.98264 13.3908C8.05798 13.2813 8.05816 13.2718 8.05816 9.74851C8.05816 6.22517 8.05798 6.21572 7.98264 6.10623C7.85461 5.92014 7.68697 5.8215 7.49865 5.8215C7.38198 5.8215 7.29149 5.84888 7.20951 5.90899ZM9.51974 5.90899C9.45411 5.95712 9.36643 6.04585 9.32488 6.10623C9.24955 6.21572 9.24937 6.22517 9.24937 9.74851C9.24937 13.2718 9.24955 13.2813 9.32488 13.3908C9.58749 13.7725 10.0303 13.7725 10.2929 13.3908C10.3682 13.2813 10.3684 13.2718 10.3684 9.74851C10.3684 6.22517 10.3682 6.21572 10.2929 6.10623C10.1648 5.92014 9.99719 5.8215 9.80888 5.8215C9.69221 5.8215 9.60171 5.84888 9.51974 5.90899Z" fill="#888888"/>
</svg>
