<svg width="42" height="46" viewBox="0 0 42 46" fill="none" xmlns="http://www.w3.org/2000/svg">
<path fill-rule="evenodd" clip-rule="evenodd" d="M33.4276 0.109847C32.8602 0.263042 32.2116 0.599117 31.7856 0.96074C31.5806 1.13481 30.7359 2.2893 29.8251 3.64053L28.2249 6.01456L15.5639 6.01672L2.90281 6.01879L2.3735 6.23468C1.29901 6.67277 0.593624 7.37928 0.200747 8.41099L0 8.93813V21.1721C0 32.4689 0.0118833 33.4442 0.155391 33.9033C0.471343 34.9141 1.3508 35.837 2.40389 36.2629L2.90281 36.4647L10.3943 36.4906L17.8857 36.5165L17.4042 38.5146C17.1394 39.6136 16.9019 40.5985 16.8762 40.7034C16.8317 40.8857 16.7655 40.8958 15.3544 40.9352C13.6865 40.9818 13.3399 41.0787 12.659 41.6888C12.117 42.1744 11.8329 42.7793 11.7721 43.5782L11.722 44.2348L10.0938 44.2628L8.46558 44.2908L8.24679 44.5433C7.95007 44.8856 7.95016 45.4054 8.24697 45.7476L8.46595 46H21H33.534L33.753 45.7476C34.0498 45.4054 34.0499 44.8856 33.7532 44.5433L33.5344 44.2908L31.9062 44.2628L30.278 44.2348L30.2279 43.5782C30.1671 42.7793 29.883 42.1744 29.341 41.6888C28.6601 41.0787 28.3135 40.9818 26.6456 40.9352C25.2345 40.8958 25.1682 40.8857 25.1238 40.7034C25.0981 40.5985 24.8606 39.6136 24.5958 38.5146L24.1143 36.5165L31.6057 36.4906L39.0972 36.4647L39.619 36.2557C40.6852 35.8288 41.6108 34.8177 41.8776 33.7884C41.9774 33.4035 42 31.0643 42 21.1272V8.93813L41.7993 8.41099C41.2523 6.97457 39.9047 6.01456 38.4354 6.01456C37.7804 6.01456 37.8093 6.09318 38.1375 5.20495C38.5179 4.17514 38.323 2.65227 37.6949 1.74705C37.3564 1.25921 36.7098 0.67504 36.2515 0.443223C35.4071 0.0160224 34.2716 -0.118012 33.4276 0.109847ZM35.3958 2.04255C35.8096 2.25188 36.2074 2.67935 36.3896 3.1106C36.571 3.54005 36.5455 4.4271 36.3402 4.82624C36.172 5.15305 30.265 12.3697 30.038 12.5257C29.9588 12.5801 29.5133 12.3013 28.6136 11.6341C27.8936 11.1001 27.3116 10.6386 27.3203 10.6083C27.329 10.5781 28.5816 8.71243 30.1038 6.46236C32.8953 2.33626 33.0961 2.08429 33.7586 1.87361C34.152 1.74857 34.9844 1.83448 35.3958 2.04255ZM24.9094 10.904L22.8307 13.9944L22.1383 14.0565C19.1083 14.3288 17.1311 16.2793 16.7321 19.3899C16.5725 20.6335 16.8031 22.9015 17.2351 24.3381C17.4789 25.1492 18.1113 25.4073 18.7414 24.9529C20.0765 23.9902 20.144 23.9731 22.6782 23.9581C24.5582 23.9469 24.8229 23.9264 25.3542 23.7504C27.3513 23.0887 28.5528 21.0484 28.2367 18.8558C28.185 18.497 28.1377 18.0978 28.1318 17.9686C28.1233 17.7848 29.0096 16.6542 32.203 12.7753L36.2851 7.81701L37.6529 7.83779C38.9315 7.85731 39.0413 7.87278 39.3392 8.07545C39.7526 8.35665 40.0171 8.74895 40.1333 9.25297C40.1937 9.51484 40.2275 12.6836 40.2289 18.2261L40.2311 26.7944H25.9409C10.4201 26.7944 11.2213 26.7684 10.881 27.2834C10.6873 27.5766 10.7552 28.0995 11.0212 28.3632C11.2079 28.5484 11.2186 28.5485 25.6969 28.5935L40.1857 28.6385V30.9773V33.3162L39.9338 33.7411C39.7706 34.0166 39.5313 34.2538 39.2535 34.4157L38.8251 34.6655H21H3.17495L2.74651 34.4157C2.46866 34.2538 2.22945 34.0166 2.06616 33.7411L1.81425 33.3162V30.9773V28.6385L3.33152 28.5935C4.70854 28.5527 4.86592 28.5314 5.03528 28.3632C5.30098 28.0993 5.36874 27.5764 5.17516 27.2834C4.90965 26.8816 4.53709 26.7944 3.0846 26.7944H1.76382L1.78904 17.9562C1.81679 8.2192 1.7747 8.91492 2.37277 8.31662C2.89637 7.79281 2.17883 7.82105 15.0816 7.81719L26.9883 7.81368L24.9094 10.904ZM27.585 13.124L28.8123 14.0264L28.648 14.2413C28.0135 15.072 26.926 16.3505 26.851 16.354C26.8011 16.3563 26.2585 15.9897 25.6452 15.5392L24.5302 14.7201L24.6859 14.4828C25.5753 13.1269 26.2129 12.2215 26.2782 12.2215C26.3219 12.2215 26.91 12.6276 27.585 13.124ZM24.6163 17.0117C26.1556 18.1386 26.2508 18.2256 26.362 18.6084C26.6646 19.6501 26.3989 20.78 25.6891 21.4691C25.0239 22.115 24.8561 22.1519 22.5421 22.1622C20.4431 22.1715 19.7807 22.2598 19.0679 22.6253C18.9239 22.6992 18.7892 22.743 18.7687 22.7227C18.6535 22.6084 18.5227 21.4795 18.5162 20.5425C18.5048 18.8976 18.8247 17.8968 19.633 17.0492C20.3214 16.3275 21.4742 15.8463 22.5611 15.8272C22.9709 15.82 23.0541 15.868 24.6163 17.0117ZM7.69471 26.9264C6.7952 27.3121 7.04593 28.5935 8.02091 28.5935C8.88994 28.5935 9.26984 27.4815 8.55385 27.0334C8.21631 26.8222 8.0005 26.7953 7.69471 26.9264ZM22.27 36.549C22.27 36.5707 22.4945 37.5245 22.7689 38.6686C23.0433 39.8126 23.2678 40.7867 23.2678 40.8331C23.2678 40.8834 22.3516 40.9175 21 40.9175C19.6484 40.9175 18.7322 40.8834 18.7322 40.8331C18.7322 40.7867 18.9567 39.8126 19.2311 38.6686C19.5055 37.5245 19.73 36.5707 19.73 36.549C19.73 36.5274 20.3015 36.5096 21 36.5096C21.6985 36.5096 22.27 36.5274 22.27 36.549ZM27.7401 42.8126C28.1722 42.9315 28.4376 43.3313 28.4381 43.8635L28.4384 44.2459H20.9888H13.5391L13.5803 43.7524C13.627 43.1952 13.8072 42.9364 14.2346 42.8133C14.6452 42.6951 27.3109 42.6944 27.7401 42.8126Z" fill="#888888"/>
</svg>
