<svg width="354" height="265" viewBox="0 0 354 265" fill="none" xmlns="http://www.w3.org/2000/svg">
<path fill-rule="evenodd" clip-rule="evenodd" d="M78.4076 0.55295C75.9171 1.63157 76.0181 0.260331 75.883 34.9196L75.7575 67.1294L73.609 68.2894C69.1939 70.6735 65.5959 73.2211 62.9681 75.8238C59.8095 78.9525 56.0952 84.8811 53.9008 90.2957C53.0717 92.3422 52.2813 94.0169 52.1453 94.0169C52.0088 94.0169 46.066 90.0128 38.9389 85.1189C31.5257 80.0282 24.9816 75.8241 23.6454 75.2944C21.4164 74.41 21.0748 74.3788 16.1412 74.6065C9.79813 74.8987 7.45001 75.3184 7.64648 76.1247C7.72471 76.4453 8.47558 76.8922 9.31468 77.1177C11.6501 77.745 10.2975 78.2747 5.58397 78.5797C2.50635 78.7786 1.35253 79.0055 0.678521 79.5436C0.193251 79.9309 -0.0982743 80.3833 0.0304336 80.5492C0.458399 81.1025 9.89 81.2336 12.5642 80.7238C16.3204 80.0075 16.8712 80.082 18.2114 81.4844C19.3712 82.6981 19.3903 82.7918 18.7003 83.857C18.0277 84.8953 18.0404 85.0307 18.8964 85.9906C19.6804 86.8696 19.7355 87.1745 19.2834 88.1315C18.7931 89.1684 18.8968 89.4095 20.7533 91.5413C31.1896 103.526 39.0112 111.279 43.7097 114.295C48.7884 117.557 50.3616 118.136 54.1782 118.149C58.2928 118.163 60.4176 117.21 66.0371 112.833L70.1648 109.619L70.6742 111.381C71.1427 113 71.0267 113.617 69.248 118.965C67.361 124.639 67.2523 124.841 64.9679 126.887C62.7298 128.891 58.8131 134.515 58.2405 136.545C57.9763 137.483 58.0336 137.511 60.776 137.765C63.3679 138.005 63.5598 138.084 63.2951 138.802C63.1373 139.23 62.3973 141.867 61.6506 144.662C59.9892 150.88 59.7072 155.845 60.9302 157.335C61.8998 158.516 64.0032 159.592 66.4578 160.163C67.4583 160.396 68.3434 160.623 68.4239 160.668C68.5735 160.752 67.391 166.615 57.3441 215.616C54.2556 230.679 51.8074 243.105 51.9033 243.229C51.9993 243.354 53.2159 243.355 54.6062 243.233C57.5237 242.976 57.6024 243.094 56.3981 245.916L55.6613 247.641L52.1912 247.364C47.0975 246.957 43.2967 247.098 41.7127 247.752C39.1499 248.809 39.4164 251.607 42.1525 252.368C43.5114 252.747 43.521 252.766 42.6059 253.278C40.9241 254.218 41.6094 256.663 43.5546 256.663C44.9467 256.663 44.9549 257.365 43.5801 258.757C41.5007 260.862 40.3105 262.577 40.3087 263.471C40.3051 265.222 44.8772 264.194 54.9009 260.19L61.455 257.573L69.1497 257.391C74.7337 257.258 76.8959 257.083 77.0327 256.754C77.1774 256.407 75.8385 256.3 71.3196 256.3H65.4177L66.939 253.85C67.7762 252.502 69.5754 248.785 70.9375 245.59C72.3001 242.395 74.6801 237.004 76.2268 233.61C79.4454 226.547 86.6162 210.052 89.959 202.024C91.2061 199.029 94.049 191.53 96.2771 185.359C98.5051 179.188 100.45 174.042 100.599 173.923C100.881 173.698 100.525 201.28 99.89 228.89C99.5348 244.333 99.482 245.009 98.3041 249.221C97.5996 251.74 97.178 254.152 97.3054 254.939L97.525 256.3H92.0729C87.9129 256.3 86.6654 256.408 86.81 256.754C86.9601 257.114 97.576 257.208 137.861 257.208C178.146 257.208 188.762 257.114 188.912 256.754C189.062 256.394 183.435 256.3 161.776 256.3C135.518 256.3 134.45 256.274 134.45 255.63C134.45 254.48 132.959 253.794 126.211 251.841L119.669 249.947L121.943 249.752C125.774 249.423 127.395 248.186 126.244 246.469C125.787 245.787 125.429 245.709 123.464 245.859C121.876 245.981 121.35 245.919 121.689 245.648C122.595 244.924 122.246 243.622 121.083 243.39C119.627 243.098 117.357 244.067 115.171 245.912L113.402 247.406L113.693 246.18C113.853 245.506 113.984 244.218 113.984 243.317V241.678L116.486 241.913C117.861 242.042 118.987 242.089 118.987 242.018C118.987 241.946 120.609 235.777 122.591 228.309C127.689 209.102 132.097 191.059 135.598 175.068L135.856 173.888H242.236C320.819 173.888 348.914 173.78 349.754 173.474C352.477 172.484 352.298 178.561 352.298 86.9552C352.298 -5.10083 352.513 1.74666 349.585 0.537702C348.401 0.0490367 333.128 -0.0112287 213.949 0.0014781C96.3135 0.0141848 79.4932 0.0828003 78.4076 0.55295ZM348.816 1.47909C350.505 2.09337 350.934 3.30342 350.934 7.44654V11.2415H214.267H77.6003V6.91141C77.6003 2.66554 77.6235 2.56643 78.7987 1.82871L79.9971 1.07611H213.852C310.984 1.07611 348.011 1.18684 348.816 1.47909ZM330.578 4.03823C329.855 4.61475 329.841 8.05466 330.559 8.62755C331.334 9.24655 335.685 9.18773 336.349 8.54913C336.664 8.24598 336.827 7.16627 336.745 5.91702L336.608 3.79898L333.875 3.69333C332.142 3.62617 330.936 3.75215 330.578 4.03823ZM340.928 4.09886C340.928 4.36353 341.442 4.96546 342.07 5.43634L343.212 6.29241L342.07 7.24396C339.981 8.98515 341.026 9.8198 343.207 8.15159L344.399 7.24033L345.472 8.15159C346.635 9.14017 347.75 9.35074 347.75 8.5818C347.75 8.31714 347.236 7.7152 346.608 7.24433L345.467 6.38826L346.608 5.4367C347.236 4.91355 347.75 4.29019 347.75 4.0513C347.75 3.3252 346.606 3.56481 345.472 4.52908L344.399 5.44033L343.207 4.52908C341.902 3.53069 340.928 3.34699 340.928 4.09886ZM335.471 6.34033V7.97406H333.424H331.378V6.34033V4.70661H333.424H335.471V6.34033ZM319.098 8.51863C319.098 8.95429 319.78 9.06321 322.509 9.06321C325.238 9.06321 325.92 8.95429 325.92 8.51863C325.92 8.08297 325.238 7.97406 322.509 7.97406C319.78 7.97406 319.098 8.08297 319.098 8.51863ZM350.934 23.0421V33.3901L231.663 33.2463C166.064 33.1672 111.881 33.055 111.255 32.9973C110.63 32.9392 109.591 33.014 108.947 33.1632C107.83 33.4217 107.749 33.3429 107.232 31.4986C106.933 30.4338 106.296 29.0462 105.815 28.4149L104.941 27.2673L107.873 25.2128C109.485 24.0826 110.684 23.0018 110.536 22.8112C110.388 22.6202 108.714 21.4058 106.815 20.1123C104.335 18.423 103.225 17.8723 102.874 18.1569C102.526 18.4401 102.715 18.7788 103.538 19.3448C104.171 19.7801 105.643 20.7897 106.808 21.5884L108.926 23.0406L106.419 24.7651C103.955 26.4602 103.871 26.486 101.524 26.2656C99.8027 26.1041 98.7553 26.1988 97.7711 26.6051C96.0665 27.309 93.5501 29.5095 91.9356 31.7085L90.7031 33.3876H84.1517H77.6003V23.0406V12.6937H214.267H350.934V23.0421ZM128.083 17.4134C128.083 17.995 127.78 18.1395 126.558 18.1395C123.33 18.1395 120.072 21.0573 120.536 23.5329C120.974 25.871 123.72 27.9375 126.392 27.9404C129.596 27.944 132.625 25.7849 132.629 23.4944C132.631 22.3842 131.835 22.1421 131.437 23.1314C130.605 25.1993 130.096 25.8525 128.951 26.3251C126.929 27.1598 125.097 26.9837 123.429 25.7933C122.153 24.8838 121.943 24.4943 121.943 23.0406C121.943 21.587 122.153 21.1974 123.429 20.288C124.503 19.5212 125.38 19.2286 126.599 19.2286C128.281 19.2286 128.283 19.2301 127.236 19.8153C125.528 20.7701 126.751 21.2218 128.93 20.4401L130.789 19.7732L129.913 18.2302C128.988 16.6001 128.083 16.1964 128.083 17.4134ZM144.001 17.7764C143.19 18.4237 143.091 18.9865 143.091 22.9713C143.091 26.2576 143.262 27.6263 143.737 28.1448C144.372 28.8382 145.8 28.8494 232.686 28.8494C319.573 28.8494 321.001 28.8382 321.636 28.1448C322.111 27.6263 322.282 26.2576 322.282 22.9713C322.282 18.9865 322.183 18.4237 321.372 17.7764C320.469 17.0554 319.856 17.0503 232.686 17.0503C145.517 17.0503 144.904 17.0554 144.001 17.7764ZM333.842 17.385C330.972 18.3631 329.69 21.331 331.158 23.5972C332.361 25.4538 335.975 26.3506 338.282 25.3649C339.091 25.02 339.506 25.1953 341.393 26.6788C342.718 27.7204 343.783 28.286 344.113 28.123C344.479 27.9425 343.886 27.2324 342.293 25.945C340.993 24.8944 340.131 23.9356 340.378 23.8143C340.624 23.6927 340.958 23.0283 341.12 22.3378C341.489 20.7694 340.505 18.7737 338.968 17.9696C337.571 17.2387 335.099 16.957 333.842 17.385ZM88.1407 20.3279C86.0955 21.7413 84.4223 22.9582 84.4223 23.0326C84.4223 23.3772 91.4735 27.9418 92.0061 27.9418C93.1754 27.9418 92.5778 27.276 89.6793 25.35C87.0615 23.611 86.0591 22.5226 87.0374 22.4819C87.2248 22.4743 88.6065 21.5852 90.1073 20.5065C92.0584 19.1044 92.6969 18.4335 92.3476 18.1522C91.9979 17.8704 90.8027 18.4887 88.1407 20.3279ZM320.372 18.5751C321.122 19.1742 321.122 26.9071 320.372 27.5062C319.577 28.14 145.796 28.14 145.001 27.5062C144.222 26.8842 144.243 18.6314 145.024 18.3798C145.337 18.2792 184.795 18.1837 232.709 18.1681C299.9 18.146 319.95 18.2389 320.372 18.5751ZM337.236 18.5417C338.068 18.7733 338.978 19.4014 339.379 20.0204C341.454 23.2236 336.227 26.2678 333.031 23.7174C331.045 22.1316 331.711 19.3234 334.269 18.4996C335.57 18.0799 335.577 18.0803 337.236 18.5417ZM104.276 28.4305C105.266 29.2858 105.878 30.3125 106.249 31.7382C106.733 33.6003 106.706 33.8534 105.974 34.2799C105.274 34.6887 105.045 34.635 104.313 33.8929C103.847 33.4191 103.601 32.8561 103.767 32.6415C104.177 32.1118 103.59 29.7571 103.049 29.7571C102.81 29.7571 102.614 30.4813 102.614 31.3665C102.614 32.6426 102.431 33.022 101.728 33.2002C101.24 33.3237 100.725 33.7183 100.582 34.077C100.439 34.4357 99.5439 35.229 98.592 35.8396L96.8615 36.9502L95.6172 35.7053C94.9332 35.0209 94.1755 34.5584 93.934 34.6775C93.6911 34.7973 94.0085 35.3814 94.6434 35.9841C95.2752 36.5835 95.7923 37.2083 95.7923 37.3724C95.7923 37.5369 95.091 38.5029 94.2341 39.5195C92.3021 41.8114 91.312 44.9714 92.0424 46.5158C92.4854 47.4525 92.4522 47.5763 91.7837 47.4779C89.4997 47.1417 88.5582 41.3994 90.0955 37.1778C91.7223 32.7108 95.2965 28.4214 98.2937 27.3391C100.381 26.5855 102.612 26.9924 104.276 28.4305ZM103.979 34.9777C103.979 35.6523 102.312 36.773 101.733 36.4876C101.09 36.1703 101.116 34.7287 101.774 34.2033C102.407 33.6983 103.979 34.2509 103.979 34.9777ZM112.971 34.4872C113.076 34.9309 112.724 35.0137 111.224 34.8997C109.862 34.7958 109.014 34.9527 108.138 35.4693C106.791 36.2644 104.683 36.0919 105.899 35.2867C108.073 33.8461 112.696 33.3237 112.971 34.4872ZM89.8749 34.9305C89.8722 35.1803 89.5483 36.2012 89.1549 37.1996C87.7433 40.7843 88.3531 45.822 90.4425 47.8315C90.7408 48.1187 90.9291 48.8735 90.8609 49.5084C90.7081 50.9236 91.8892 51.8911 93.9089 52.0044C94.6935 52.0487 95.3361 52.2542 95.3366 52.4615C95.337 52.6688 94.6571 54.4659 93.8257 56.455L92.3144 60.0717L88.9366 61.9454C86.1637 63.4841 83.4932 64.5601 77.9705 66.3645C77.7668 66.4313 77.6003 59.2836 77.6003 50.481V34.4767H83.7401C88.3513 34.4767 89.8785 34.5896 89.8749 34.9305ZM350.934 102.681V170.885L349.991 171.842L349.049 172.799H242.497H135.945L136.541 170.066C137.612 165.15 138.961 155.698 139.681 148.07C140.617 138.153 140.063 128.49 137.676 113.077C136.718 106.887 135.986 101.772 136.051 101.711C136.116 101.65 138.084 102.829 140.426 104.329C150.671 110.896 158.38 112.889 164.351 110.514C167.537 109.247 171.599 105.674 174.963 101.181C178.08 97.0193 190.39 77.3685 190.39 76.556C190.39 76.2685 189.874 75.4262 189.242 74.6845C188.425 73.7242 188.178 73.0726 188.383 72.4194C188.563 71.8476 188.4 71.1716 187.95 70.6242C187.282 69.8102 187.299 69.6109 188.188 67.9038L189.147 66.0621L193.066 66.0664C196.294 66.07 197.729 65.8667 201.209 64.913C204.362 64.0493 205.399 63.6104 205.294 63.1842C205.135 62.5434 203.405 62.4962 197.781 62.9798C194.204 63.2869 193.651 62.9939 195.888 61.9774C197.521 61.2357 197.433 60.4838 195.694 60.3197C193.417 60.1044 183.59 61.3188 181.853 62.03C179.95 62.8088 178.474 63.9611 177.548 65.3904C176.79 66.5594 157.074 87.0867 156.691 87.1055C156.541 87.1128 155.645 85.9347 154.699 84.4869C150.444 77.9766 143.172 71.3851 136.776 68.2404C134.949 67.3418 132.771 66.0817 131.937 65.4402C130.376 64.2392 128.566 63.6583 127.45 63.9999C127.101 64.107 125.616 63.8997 124.152 63.5392C122.687 63.1787 119.646 62.6803 117.395 62.4312C114.74 62.1375 112.65 61.6761 111.445 61.117C109.752 60.3317 109.547 60.0717 109.109 58.1668C108.562 55.7867 108.65 55.534 110.032 55.5322C111.865 55.5296 113.836 54.2343 114.675 52.4796C116.147 49.4039 115.112 45.0709 112.106 41.7185C111.702 41.2687 111.895 40.9198 113.061 39.9885C114.433 38.8939 114.504 38.7124 114.213 37.0293C114.044 36.0433 114.037 35.0652 114.199 34.8565C114.402 34.5936 150.918 34.4767 232.713 34.4767H350.934V102.681ZM98.2268 39.9885C96.6059 41.5914 94.8422 43.6208 94.3083 44.4987C93.0721 46.5296 92.4036 46.5528 92.792 44.5514C93.2608 42.1345 95.1378 39.4447 97.6801 37.5463C99.8154 35.9522 100.061 35.8588 100.593 36.4397C101.099 36.9923 100.793 37.4512 98.2268 39.9885ZM108.564 39.7765C109.094 40.2866 109.021 40.3414 107.958 40.2303C107.293 40.161 106.733 40.2674 106.713 40.467C106.693 40.6667 107.41 40.9118 108.306 41.0116C109.911 41.1906 109.921 41.2015 109.003 41.8249C107.933 42.5513 107.77 43.8463 108.713 44.1353C109.066 44.2431 109.981 44.0729 110.747 43.7563L112.141 43.1812L113.131 44.7285C114.596 47.0194 114.816 50.615 113.608 52.5061C113.02 53.4258 112.141 54.1515 111.263 54.4419C109.434 55.0468 105.6 54.7298 102.806 53.743C101.622 53.3252 100.538 53.0765 100.396 53.1901C99.7426 53.7115 101.758 55.4425 104.412 56.6398C107.451 58.0111 108.801 59.1594 108.386 60.0216C108.253 60.2994 106.355 61.2858 104.169 62.2141L100.195 63.9019L97.8716 62.7779C96.5941 62.16 95.0414 61.3489 94.422 60.9757L93.295 60.2972L95.2092 55.681C97.0707 51.1919 97.269 49.9862 96.0087 50.8212C95.1319 51.4021 92.5618 51.1088 91.9747 50.3602C90.8845 48.9704 93.9572 47.5708 95.6445 48.6883C96.238 49.0819 96.4886 49.0212 97.209 48.3115C98.2937 47.2416 98.2868 46.5931 97.1712 44.8469C96.1802 43.2948 96.2989 42.8269 97.6833 42.8269C98.1936 42.8269 99.1846 42.3367 99.8854 41.7377C101.117 40.6849 102.614 40.2797 102.614 40.9989C102.614 41.1917 102.005 41.9033 101.26 42.5804C99.8427 43.8692 99.8645 44.5078 101.305 43.8924C102.416 43.4179 103.551 41.6299 103.409 40.5774C103.31 39.839 103.468 39.754 104.765 39.8538C105.573 39.9159 106.596 39.7987 107.039 39.5928C107.482 39.387 107.87 39.2134 107.903 39.2073C107.934 39.2014 108.232 39.4574 108.564 39.7765ZM111.255 42.3037C111.255 42.6148 111.051 42.7688 110.801 42.6453C110.55 42.5219 110.346 42.2674 110.346 42.0793C110.346 41.8913 110.55 41.7377 110.801 41.7377C111.051 41.7377 111.255 41.9926 111.255 42.3037ZM102.119 44.6182C100.536 45.8819 100.569 46.5888 102.219 46.7471C103.744 46.893 105.889 45.5174 105.709 44.5096C105.488 43.2705 103.742 43.3235 102.119 44.6182ZM107.162 44.5858C107.162 45.3145 108.503 46.4574 109.358 46.4574C110.047 46.4574 110.044 47.2789 109.353 47.8308C108.594 48.4367 109.267 48.8368 110.107 48.2799C110.489 48.0272 110.801 47.3505 110.801 46.7761C110.801 45.9694 110.591 45.7313 109.881 45.7313C109.342 45.7313 108.748 45.3562 108.444 44.8236C107.835 43.7574 107.162 43.6325 107.162 44.5858ZM104.888 44.5815C104.888 45.0542 104.347 45.3686 103.908 45.1518C103.437 44.9199 103.843 44.2791 104.46 44.2791C104.696 44.2791 104.888 44.4152 104.888 44.5815ZM109.575 50.6016C108.874 51.0837 108.452 51.6 108.638 51.7488C108.824 51.898 109.379 51.7281 109.872 51.372C110.438 50.9635 111.198 50.79 111.933 50.9022C113.388 51.124 113.855 50.6154 112.663 50.106C111.382 49.5593 111.004 49.6199 109.575 50.6016ZM96.1334 62.8919C97.697 63.6728 98.9759 64.4229 98.9759 64.5583C98.9759 64.9504 89.934 72.035 89.6861 71.8371C89.2423 71.4828 86.1983 64.8952 86.332 64.5779C86.5735 64.0043 92.3644 61.0578 92.8361 61.2687C93.0862 61.3805 94.5702 62.111 96.1334 62.8919ZM110.819 61.7127C112.257 62.2987 112.62 62.6472 112.62 63.4445C112.62 64.5823 110.917 69.7318 110.401 70.1511C110.214 70.3032 108.061 69.1055 105.617 67.4896C103.172 65.8733 101.296 64.4523 101.447 64.3314C101.68 64.1455 108.496 61.1028 108.886 61.0106C108.958 60.9935 109.828 61.3094 110.819 61.7127ZM194.738 61.5356C193.763 62.1237 192.719 62.2079 191.451 61.8013C190.791 61.5897 190.95 61.4862 192.209 61.3043C193.085 61.1783 194.211 61.0585 194.711 61.0385C195.608 61.003 195.609 61.0099 194.738 61.5356ZM192.692 63.1671L195.851 64.2744L199.559 63.7128C201.599 63.4038 203.35 63.2161 203.449 63.2956C203.549 63.3751 202.34 63.8101 200.762 64.2621C198.819 64.819 196.355 65.1537 193.121 65.3008L188.347 65.5175L187.007 68.1496C186.27 69.5975 185.392 70.7817 185.056 70.7817C183.752 70.7817 178.72 67.7492 178.309 66.7159C177.957 65.8283 179.939 63.7237 181.883 62.9206C185.496 61.4295 187.888 61.484 192.692 63.1671ZM118.885 69.1051L119.011 74.8711L117.066 74.6242C115.996 74.4885 114.663 74.2862 114.102 74.1748C112.465 73.8491 112.341 74.9532 113.751 77.3075C114.444 78.4653 114.868 79.5977 114.692 79.8246C113.765 81.0223 105.101 83.6468 102.816 83.4224L101.642 83.3069L103.688 81.2085C104.813 80.0547 106.64 77.8492 107.747 76.3073C110.501 72.4721 111.959 69.4671 113.514 64.4174L113.965 62.9547L116.362 63.1468L118.76 63.3392L118.885 69.1051ZM124.217 64.4135L126.036 64.8313L125.977 69.531C125.855 79.1043 121.858 93.1315 115.946 104.727C114.826 106.923 112.034 111.661 109.74 115.255L105.57 121.79L105.296 117.797C105.145 115.6 104.789 113.237 104.504 112.545C104.123 111.62 104.117 110.687 104.481 109.021C104.926 106.98 104.869 106.508 103.909 104.288C102.966 102.104 102.858 101.264 102.96 96.9319C103.055 92.931 102.918 91.6426 102.204 89.8524C101.724 88.6485 101.218 86.9106 101.081 85.9902L100.83 84.317L103.757 84.0988C106.823 83.87 112.63 82.1612 114.651 80.8919C116.084 79.9923 116.085 79.4495 114.662 77.0084C114.039 75.9403 113.529 75.0287 113.529 74.9826C113.529 74.9365 114.633 75.0588 115.982 75.2538C120.007 75.8361 119.897 76.0024 119.897 69.3339V63.5069L121.147 63.7513C121.835 63.8856 123.217 64.1833 124.217 64.4135ZM86.2647 67.242C88.9721 73.127 92.7974 78.4976 96.5818 81.7273L98.7189 83.5509L96.9142 83.2852C94.5693 82.9399 91.7532 82.1481 90.4557 81.4696C89.6188 81.0317 89.4251 80.599 89.4251 79.1671V77.4037L86.6354 77.2429C84.7084 77.1315 83.6705 76.8908 83.2799 76.4645C82.9692 76.1251 82.0464 74.0136 81.2296 71.7718C80.4124 69.5299 79.6487 67.4903 79.5319 67.2391C79.3363 66.8183 83.4213 65.0463 84.7079 64.994C84.9904 64.9824 85.6907 65.9942 86.2647 67.242ZM103.502 67.1073C104.516 67.7455 104.565 67.9024 104.043 68.8176C103.557 69.6693 103.627 70.4553 104.499 73.8956L105.53 77.9657L103.074 80.5456C101.722 81.9644 100.472 83.1254 100.295 83.1254C100.118 83.1254 99.0213 82.4309 97.8575 81.5825L95.7413 80.0395L96.6891 75.4273C97.5987 71.0003 97.6324 69.9402 96.9088 68.4869C96.6682 68.0037 97.0434 67.4471 98.305 66.416L100.03 65.0056L101.208 65.7052C101.857 66.09 102.889 66.721 103.502 67.1073ZM82.7719 77.244C83.1584 77.5522 84.5879 77.8728 85.9927 77.9657L88.5187 78.1327L88.4427 79.7291C88.3863 80.9224 88.5869 81.4586 89.2373 81.8544C90.6767 82.7297 94.9563 83.9034 97.4791 84.1147L99.8481 84.313L100.091 85.8069C100.411 87.7863 104.44 121.995 104.436 122.709C104.435 123.015 103.71 124.189 102.825 125.317L101.218 127.37L98.6789 126.672C94.6666 125.57 87.3012 124.561 81.2988 124.29L75.7793 124.041L75.2963 122.553C75.0307 121.734 74.6492 120.565 74.4486 119.955C74.1648 119.091 74.284 118.648 74.9871 117.958C75.7548 117.203 75.8516 116.717 75.632 114.711C75.4901 113.413 75.2509 111.861 75.1003 111.262C74.8734 110.358 75.2559 109.649 77.3507 107.095C79.9139 103.968 80.5315 102.183 79.1912 101.772C77.5239 101.261 76.1532 102.117 71.9768 106.275C65.1771 113.045 60.3971 116.39 56.3003 117.247C53.8535 117.759 51.3817 117.429 52.1476 116.692C52.8884 115.98 52.2626 114.783 50.8428 114.197C50.1692 113.919 48.4587 113.423 47.0415 113.094C44.1931 112.433 42.1261 111.329 42.1261 110.467C42.1261 110.003 42.5372 109.949 44.5351 110.148C47.6023 110.454 48.4933 110.18 48.4933 108.932C48.4933 107.386 46.9801 106.447 40.5848 104.021C34.7138 101.795 29.6919 99.0129 26.3801 96.1513C24.8492 94.8283 20.7506 90.3741 20.7506 90.0332C20.7506 89.9188 21.4805 89.5118 22.3724 89.1281C24.3744 88.2677 29.1953 84.2055 30.1895 82.5409C30.5938 81.8642 31.0786 81.3102 31.2664 81.3102C31.6721 81.3102 50.3466 94.0115 53.9508 96.7387C57.159 99.1664 58.4242 99.8257 59.8737 99.8257C62.7416 99.8257 62.8249 98.118 60.0933 95.3101C58.2746 93.4408 58.0795 93.0606 58.3201 91.8593C58.5138 90.8925 58.3019 89.9736 57.5729 88.6213L56.5555 86.7331L57.7802 84.4324C61.4327 77.5718 68.0364 71.6628 75.9003 68.2179L78.2825 67.1741L80.1799 71.9319C81.2237 74.5487 82.3898 76.939 82.7719 77.244ZM139.36 70.7062C143.147 72.9811 146.645 75.9722 149.929 79.7432L152.2 82.3518L151.022 83.7368C150.032 84.9011 149.891 85.3716 150.138 86.6848C150.391 88.0324 150.239 88.4866 149.035 89.9842C147.455 91.9497 147.198 93.8071 148.435 94.3244C150.429 95.1584 151.435 94.2994 164.662 80.4653L174.635 70.0349L176.259 71.2726C178.731 73.1561 183.31 75.7141 186.084 76.7619C187.452 77.2781 188.571 77.8572 188.571 78.0482C188.571 78.2388 187.728 79.752 186.698 81.41L184.825 84.4248L175.896 89.1303C169.077 92.7241 166.865 94.0757 166.531 94.853C166.057 95.9553 166.458 96.7696 167.805 97.4416C168.59 97.8329 169.122 97.6605 173.419 95.6245C175.525 94.6269 175.802 95.2702 173.942 96.8371C172.185 98.318 170.834 99.817 170.834 100.287C170.834 100.452 171.337 100.959 171.952 101.413L173.07 102.24L171.556 104.028C169.368 106.612 165.477 109.399 163.007 110.152C159.623 111.183 155.931 110.834 151.249 109.038C146.995 107.407 140.158 103.433 134.833 99.4964C132.917 98.0802 131.252 96.9213 131.132 96.9213C130.184 96.9213 130.799 106.492 131.942 109.524C132.722 111.591 134.071 112.622 135.595 112.317C136.538 112.128 136.601 112.314 137.35 117.419C137.777 120.333 138.015 122.862 137.877 123.04C137.479 123.555 130.93 125.44 126.719 126.251C121.706 127.217 117.502 127.712 111.749 128.013L107.097 128.256L110.078 124.894C116.188 118.003 121.662 109.572 124.837 102.162C128.424 93.79 131.302 82.4175 132.257 72.8391L132.821 67.1853L134.431 67.9492C135.317 68.3693 137.535 69.6098 139.36 70.7062ZM184.125 71.3346C185.695 71.917 187.045 72.4234 187.125 72.4601C187.205 72.4968 186.841 73.1978 186.317 74.0183C185.379 75.485 185.342 75.5014 184.106 74.9909C182.402 74.2873 177.678 71.4258 176.353 70.2945L175.278 69.3764L176.255 68.2814L177.232 67.1868L179.251 68.7316C180.362 69.5811 182.555 70.7527 184.125 71.3346ZM173.199 73.0326C172.32 73.7344 172.543 75.0614 173.585 75.3253C175.502 75.8114 176.719 73.7257 174.957 72.9727C173.861 72.5044 173.861 72.5044 173.199 73.0326ZM22.2296 75.6564C24.373 76.267 27.1178 77.9157 27.1178 78.5924C27.1178 78.8745 25.8611 80.1778 24.3248 81.4884L21.5324 83.8718L20.0143 82.0726C17.7034 79.3334 17.1759 79.133 13.799 79.7113C10.6477 80.2512 1.45759 80.3993 1.84098 79.9037C1.97606 79.7295 3.81344 79.5142 5.92462 79.4259C9.62258 79.2709 9.85498 79.2081 12.2963 77.7047C16.2754 75.2541 18.9105 74.7106 22.2296 75.6564ZM13.2196 76.0343C12.254 76.6174 10.8301 76.7332 9.53162 76.3349C8.79939 76.1102 8.83578 76.0488 9.83542 75.8267C10.4608 75.6876 11.6769 75.5576 12.5374 75.5377C14.0082 75.5035 14.0491 75.5333 13.2196 76.0343ZM169.909 76.6137C169.536 77.1699 169.546 77.4974 169.948 77.8844C170.766 78.6704 172.54 78.5365 172.887 77.6622C173.51 76.0964 170.877 75.1695 169.909 76.6137ZM29.61 79.85C30.3982 80.5449 30.3746 80.6342 28.8846 82.6026C28.0378 83.7215 26.2395 85.4733 24.8888 86.4953L22.432 88.3533L21.1367 87.1146C20.424 86.4332 19.841 85.7822 19.841 85.6679C19.841 85.5539 20.44 85.1777 21.1726 84.8325C21.9049 84.4872 23.7977 83.0699 25.3795 81.683C26.9608 80.2962 28.3766 79.1547 28.5254 79.1468C28.6741 79.1384 29.1625 79.455 29.61 79.85ZM31.1727 83.4402C30.3304 83.9848 30.2609 84.2015 30.7116 84.8742C31.6885 86.3315 34.3572 85.4733 33.7328 83.9024C33.3271 82.8825 32.3175 82.7003 31.1727 83.4402ZM34.677 85.8559C34.2717 86.1798 33.9397 86.5849 33.9397 86.7559C33.9397 87.3172 35.3996 88.2466 36.1064 88.1355C37.2338 87.958 37.8837 86.8608 37.2998 86.1206C36.6167 85.2547 35.5634 85.1483 34.677 85.8559ZM22.115 97.5719C22.115 98.1339 26.6429 104.151 29.3726 107.217C32.5103 110.742 39.1394 116.475 39.6324 116.091C39.8112 115.951 38.3922 114.481 36.4793 112.823C32.3666 109.26 27.9641 104.437 25.0293 100.28C23.166 97.6405 22.115 96.6639 22.115 97.5719ZM106.253 99.8257C105.12 100.73 105.091 101.71 106.175 102.492C107.266 103.281 108.657 103.255 109.593 102.429C110.641 101.505 110.532 100.334 109.335 99.6649C107.999 98.9177 107.347 98.9519 106.253 99.8257ZM180.176 101.923C176.52 108.552 171.417 113.572 167.478 114.413C165.395 114.857 164.641 115.444 166.172 115.429C168.995 115.401 173.43 112.611 176.486 108.941C178.616 106.384 182.204 100.733 182.204 99.9357C182.204 98.8756 181.448 99.6166 180.176 101.923ZM276.846 101.657C274.507 103.023 274.224 103.093 271.028 103.093C267.337 103.093 261.891 103.88 258.536 104.898L256.379 105.552L255.87 103.596C255.521 102.255 255.142 101.641 254.663 101.641C254.165 101.641 254.037 101.877 254.218 102.458C254.359 102.907 254.595 103.928 254.745 104.727C255.013 106.163 254.991 106.191 252.675 107.268C247.568 109.645 241.847 115.72 239.946 120.784L239.37 122.32L237.572 121.022C236.33 120.127 235.627 119.842 235.302 120.102C234.976 120.362 235.275 120.778 236.27 121.446C238.562 122.985 238.711 123.438 238.162 127.163C237.69 130.362 238.029 134.885 238.871 136.638C239.127 137.171 239.019 137.263 238.326 137.1C235.699 136.48 234.051 136.422 234.051 136.951C234.051 137.315 234.892 137.621 236.666 137.901L239.281 138.313L241.251 141.392C243.988 145.668 248.241 149.211 254.919 152.773C257.825 154.324 261.225 155.828 262.476 156.117C264.514 156.589 260.381 156.662 222.567 156.825C194.9 156.944 180.385 157.131 180.385 157.369C180.385 157.609 202.974 157.763 247.013 157.824C306.051 157.906 313.641 157.854 313.641 157.37C313.641 156.896 311.679 156.82 298.746 156.792L283.851 156.759L286.353 156.11C287.728 155.754 290.248 154.932 291.952 154.283C295.077 153.095 296.263 153.014 299.489 153.775C301.464 154.24 300.304 153.058 298.167 152.427C296.275 151.869 296.23 151.822 297.186 151.414C298.755 150.743 302.904 146.516 304.58 143.881C305.552 142.352 306.883 140.964 308.278 140.025C309.476 139.218 310.457 138.42 310.457 138.252C310.457 137.737 309.525 137.909 308.18 138.674L306.9 139.401L307.615 137.494C308.142 136.092 308.357 133.711 308.427 128.507C308.48 124.613 308.677 120.896 308.865 120.247C309.234 118.974 308.556 118.6 307.809 119.665C307.478 120.138 307.229 119.874 306.613 118.394C306.13 117.232 305.573 116.526 305.142 116.526C304.664 116.526 304.545 116.724 304.762 117.161C307.051 121.778 307.932 130.593 306.622 135.755C303.379 148.53 292.428 155.815 275.665 156.348C272.663 156.443 269.389 156.361 268.388 156.165C266.87 155.867 267.481 155.802 272.078 155.772C275.108 155.752 278.689 155.569 280.035 155.365C285.6 154.522 291.379 151.461 294.924 147.475C296.088 146.167 298.166 144.088 299.542 142.854C300.918 141.622 302.599 139.796 303.279 138.798C308.023 131.833 306.185 122.677 298.596 115.462L295.927 112.924L296.435 110.904C296.714 109.794 296.825 108.791 296.681 108.675C296.108 108.218 295.486 109 295.196 110.544C295.028 111.438 294.817 112.169 294.728 112.169C294.639 112.169 293.619 111.639 292.462 110.99C290.409 109.838 290.364 109.772 290.62 108.267C290.824 107.071 290.736 106.724 290.23 106.724C289.85 106.724 289.458 107.231 289.292 107.94L289.006 109.156L286.271 108.275C282.919 107.193 280.241 106.791 280.498 107.406C280.597 107.643 282.313 108.289 284.311 108.842C293.008 111.25 299.682 116.529 303.097 123.699C304.638 126.934 304.816 133.089 303.451 135.949C302.612 137.708 299.955 141.301 299.665 141.07C299.586 141.007 299.83 139.911 300.207 138.634C300.584 137.357 300.896 135.188 300.899 133.813C300.903 132.439 301.144 130.681 301.434 129.908C301.995 128.414 301.578 127.562 300.773 128.558C300.38 129.044 300.104 128.71 299.272 126.742C298.389 124.656 298.319 124.1 298.747 122.609C299.02 121.661 299.119 120.787 298.967 120.666C298.503 120.296 297.723 120.887 297.723 121.609C297.723 122.778 296.961 122.74 295.805 121.514C295.095 120.762 294.421 119.233 293.934 117.269C293.206 114.339 292.605 113.229 292.004 113.708C291.853 113.829 292.056 115.192 292.457 116.736C292.857 118.281 293.12 119.595 293.042 119.657C292.965 119.719 292.162 119.589 291.259 119.368C289.58 118.956 287.918 119.172 288.36 119.743C288.496 119.918 289.415 120.165 290.404 120.29C293.219 120.65 293.499 121.087 293.859 125.684C294.243 130.601 293.95 131.641 291.026 135.694C286.436 142.06 280.631 146.753 274.134 149.351C270.02 150.996 268.277 151.325 271.344 149.877C272.72 149.227 275.196 147.625 276.846 146.316C279.651 144.091 281.11 142.174 283.496 137.583C283.938 136.733 283.989 136.784 284.302 138.4C284.632 140.1 285.236 140.615 285.719 139.609C285.855 139.326 285.663 138.142 285.292 136.978C284.641 134.938 284.656 134.788 285.712 132.785C286.314 131.642 286.807 130.486 286.807 130.217C286.807 129.947 287.524 129.059 288.399 128.242C289.275 127.426 289.991 126.579 289.991 126.361C289.991 125.708 289.053 125.913 288.202 126.752C287.428 127.514 287.397 127.415 287.129 123.393C286.977 121.114 286.641 118.688 286.383 118.001C286.027 117.058 286.077 116.312 286.587 114.941C286.958 113.943 287.262 112.816 287.262 112.436C287.262 111.28 286.223 111.943 285.699 113.434L285.206 114.837L284.606 113.785C284.194 113.063 284.16 112.693 284.497 112.603C284.767 112.531 284.988 112.223 284.988 111.919C284.988 111.573 284.729 111.445 284.297 111.577C283.85 111.714 282.804 111.125 281.339 109.912C279.667 108.527 278.938 108.141 278.563 108.44C278.188 108.739 278.547 109.22 279.93 110.27C280.961 111.053 281.805 111.878 281.805 112.102C281.805 112.327 280.219 113.358 278.28 114.395C273.898 116.738 267.141 122.096 264.542 125.287C262.889 127.316 262.287 127.764 260.709 128.132C259.68 128.373 258.359 128.813 257.775 129.112C257.19 129.41 256.602 129.566 256.467 129.458C256.139 129.196 259.866 123.222 260.705 122.666C261.209 122.332 261.638 122.327 262.511 122.645C263.14 122.874 263.953 123.061 264.316 123.061C265.478 123.061 265.024 122.286 263.613 121.861C262.862 121.634 262.248 121.286 262.248 121.085C262.248 120.363 267.609 116.668 270.347 115.503C271.886 114.848 274.5 114.087 276.156 113.81C277.812 113.533 279.273 113.222 279.403 113.118C279.534 113.014 278.961 112.244 278.13 111.407C275.19 108.443 268.931 107.148 263.205 108.319C254.535 110.092 247.77 115.839 243.87 124.743C243.27 126.114 242.356 128.135 241.84 129.233C241.161 130.68 240.895 132.129 240.874 134.497C240.841 138.236 240.353 138.05 239.505 133.976C238.475 129.028 239.85 122.834 243.214 117.272C245.764 113.055 250.917 108.87 255.881 106.985C261.095 105.004 263.98 104.501 271.344 104.288C277.273 104.117 280.75 104.319 285.784 105.126C286.925 105.308 287.262 105.238 287.262 104.819C287.262 104.265 284.825 103.762 279.574 103.233L277.116 102.985L278.555 102.041C279.872 101.176 280.472 100.166 279.644 100.205C279.457 100.214 278.197 100.867 276.846 101.657ZM106.551 109.203C106.137 109.568 105.798 110.14 105.798 110.474C105.798 111.228 107.383 112.532 108.299 112.532C109.265 112.532 110.801 111.211 110.801 110.38C110.801 108.72 107.982 107.94 106.551 109.203ZM273.302 109.757C274.221 110.063 275.522 110.751 276.191 111.286L277.408 112.257L274.086 113.098C272.259 113.56 269.755 114.439 268.522 115.051C266.74 115.935 266.326 116.033 266.504 115.528C267.268 113.362 267.307 112.532 266.643 112.532C266.044 112.532 265.024 115.019 264.96 116.635C264.95 116.875 263.942 117.927 262.719 118.973C260.521 120.853 260.47 120.873 258.399 120.647C257.187 120.514 256.366 120.247 256.451 120.015C256.532 119.793 257.79 119.148 259.247 118.581C261.148 117.841 261.755 117.439 261.402 117.157C261.048 116.875 260.577 116.884 259.73 117.192C258.334 117.7 258.451 117.474 260.76 115.197C261.756 114.214 262.115 113.599 261.787 113.437C261.04 113.068 259.722 114.174 256.965 117.482C255.103 119.715 254.198 120.484 253.258 120.628C252.575 120.733 251.937 120.757 251.841 120.681C251.746 120.606 252.495 119.49 253.508 118.201C255.204 116.041 255.412 115.437 254.459 115.437C254.26 115.437 253.046 116.812 251.759 118.492C249.323 121.674 245.435 124.786 246.102 123.02C247.449 119.455 252.625 113.964 256.64 111.842C258.502 110.857 259.156 110.717 261.91 110.717C264.184 110.717 265.002 110.595 264.868 110.274C264.766 110.029 264.186 109.726 263.579 109.6C262.507 109.378 262.515 109.366 263.84 109.168C266.122 108.829 271.529 109.165 273.302 109.757ZM283.813 115.104C284.503 116.479 284.501 116.725 283.795 118.514L283.033 120.443L281.623 119.756C278.559 118.265 274.983 119.486 274.983 122.023C274.983 123.434 276.517 124.876 278.018 124.876C279.449 124.876 279.353 124.295 277.825 123.713C275.393 122.787 276.278 120.157 279.023 120.157C280.169 120.157 282.271 121.289 282.251 121.895C282.225 122.678 278.776 128.851 278.394 128.8C278.144 128.767 277.175 128.501 276.241 128.208C274.824 127.763 274.586 127.541 274.8 126.86C275.171 125.679 274.159 125.375 273.621 126.505C273.211 127.365 273.013 127.429 271.461 127.205C270.522 127.069 269.691 126.917 269.615 126.866C269.539 126.816 270.645 125.767 272.072 124.537C273.823 123.027 274.517 122.181 274.205 121.932C273.895 121.684 272.727 122.443 270.612 124.267C268.364 126.206 267.05 127.042 265.96 127.229C264.48 127.483 264.456 127.468 265.003 126.637C266.036 125.064 269.956 121.342 272.764 119.266C275.88 116.964 281.649 113.622 282.509 113.622C282.818 113.622 283.405 114.289 283.813 115.104ZM73.1497 119.521C73.7973 121.768 74.2962 123.627 74.258 123.653C74.2203 123.679 72.9446 123.769 71.4228 123.853L68.6567 124.006L70.0016 119.722C70.7411 117.365 71.4869 115.437 71.6593 115.437C71.8317 115.437 72.5021 117.275 73.1497 119.521ZM285.799 125.058C285.803 127.254 285.643 129.46 285.443 129.959C285.191 130.588 285.065 129.983 285.034 127.984C285.009 126.398 284.761 124.193 284.483 123.083C284.091 121.52 284.108 120.818 284.556 119.975L285.133 118.886L285.462 119.975C285.642 120.574 285.794 122.861 285.799 125.058ZM253.607 121.699C253.607 121.749 252.896 123.377 252.028 125.316C249.73 130.45 249.227 134.233 250.166 139.344C250.578 141.587 251.308 144.429 251.788 145.66C252.268 146.892 252.589 147.956 252.501 148.026C252.203 148.264 249.499 144.196 248.535 142.062C247.042 138.753 246.837 132.101 248.109 128.185C249.361 124.328 250.374 122.648 251.788 122.078C252.854 121.648 253.607 121.491 253.607 121.699ZM259.178 121.82C259.323 121.936 258.642 123.215 257.664 124.663C256.685 126.111 255.479 128.238 254.982 129.39C254.485 130.542 253.663 132.022 253.154 132.68C252.645 133.337 251.922 134.505 251.547 135.275C250.87 136.663 250.866 136.649 251.101 133.756C251.364 130.522 252.556 126.7 254.259 123.625C255.339 121.677 255.436 121.609 257.145 121.609C258.117 121.609 259.032 121.704 259.178 121.82ZM296.149 123.577C296.767 124.33 296.788 124.675 296.299 125.981C295.839 127.206 295.661 127.372 295.392 126.826C295.019 126.069 294.871 122.698 295.211 122.698C295.33 122.698 295.752 123.094 296.149 123.577ZM247.342 126.238C246.33 128.681 246.172 129.709 246.14 134.042C246.119 136.787 246.06 139.034 246.007 139.034C245.954 139.035 245.704 138.423 245.452 137.674C244.558 135.018 244.07 131.052 244.363 128.815C244.622 126.835 244.889 126.348 246.463 124.985C247.454 124.126 248.32 123.424 248.387 123.424C248.453 123.424 247.983 124.69 247.342 126.238ZM283.678 128.506C283.671 130.751 283.582 132.655 283.481 132.735C283.38 132.816 282.551 132.155 281.64 131.266L279.981 129.651L281.424 126.708C282.287 124.948 283.034 123.897 283.28 124.093C283.507 124.274 283.686 126.26 283.678 128.506ZM84.1876 125.255C88.5364 125.584 96.9997 126.808 97.4582 127.174C97.6246 127.307 89.1768 138.673 88.6128 139.075C88.4341 139.202 85.0135 139.019 81.0113 138.668C62.6752 137.062 59.624 136.776 59.4516 136.643C59.3502 136.566 59.8346 135.437 60.5277 134.135C61.9989 131.372 65.5282 127.228 67.5893 125.843C68.9605 124.922 69.2702 124.876 74.1107 124.877C76.9054 124.877 81.4402 125.047 84.1876 125.255ZM132.679 129.687C133.048 131.952 133.275 136.889 133.26 142.303C133.238 150.656 133.166 151.408 132.078 154.65C130.733 158.658 129.109 161.652 125.959 165.928C123.524 169.236 122.171 171.682 122.171 172.78C122.171 173.793 123.407 174.614 124.932 174.614C126.633 174.614 126.682 175.44 125.166 178.528C123.427 182.07 123.326 182.798 124.45 183.695C125.066 184.187 125.704 184.383 126.185 184.228C126.603 184.094 127.225 183.893 127.567 183.782C128.402 183.511 128.176 184.714 124.948 197.715C122 209.588 122.029 209.528 116.323 216.002C114.299 218.298 112.307 220.969 111.898 221.938C111.219 223.541 111.216 223.75 111.869 224.271C112.675 224.915 113.639 224.657 115.939 223.184C117.029 222.486 117.276 222.446 117.66 222.907C118.635 224.075 116.943 228.15 113.921 231.912L112.952 233.118L113.961 234.207C114.957 235.283 114.961 235.331 114.238 237.923L113.507 240.549L107.082 239.632L100.657 238.715L100.952 231.443C101.115 227.443 101.248 221.903 101.248 219.132L101.25 214.093L105.058 210.963C107.152 209.242 109.104 207.465 109.396 207.014C109.687 206.564 110.052 205.114 110.207 203.791C110.44 201.794 110.744 201.134 112.001 199.891C114.516 197.403 115.695 195.862 116.284 194.293C116.766 193.008 116.738 192.67 116.086 191.875C115.669 191.367 115.077 190.952 114.77 190.953C113.323 190.956 110.932 192.749 106.513 197.141L101.705 201.922L101.711 193.078C101.721 181.26 102.002 180.341 107.991 172.566C111.972 167.4 112.216 166.262 110.688 160.009C109.117 153.584 109.409 152.548 113.984 148.293C116.814 145.661 117.474 144.708 118.115 142.321L118.607 140.488L120.389 140.716C121.802 140.896 122.171 140.829 122.171 140.394C122.171 139.935 120.888 139.8 114.402 139.578C110.094 139.431 106.482 139.453 106.295 139.628C106.037 139.869 86.9069 188.973 67.7631 238.534L66.7025 241.281L60.0297 241.898C56.3599 242.237 53.2582 242.436 53.1377 242.339C53.0167 242.243 56.6764 223.856 61.2699 201.48L69.6223 160.797L70.7688 160.99C74.319 161.588 80.9426 161.872 83.0224 161.516C90.6153 160.217 95.211 153.559 99.6685 137.401C100.402 134.741 100.703 134.283 103.247 131.956C104.775 130.558 106.229 129.294 106.48 129.147C106.73 129.001 108.203 128.878 109.754 128.875C113.783 128.867 122.132 127.927 127.173 126.913C129.55 126.435 131.624 126.026 131.784 126.005C131.943 125.983 132.346 127.64 132.679 129.687ZM298.604 128.388C300.606 134.732 298.891 142.202 294.884 144.6C293.469 145.447 289.851 147.022 289.321 147.022C289.183 147.022 289.541 146.41 290.117 145.661C290.694 144.912 291.539 143.618 291.996 142.784C292.553 141.768 293.558 140.871 295.047 140.061C296.267 139.397 297.266 138.65 297.267 138.4C297.268 137.737 296.437 137.844 295.11 138.677C294.469 139.079 293.877 139.354 293.794 139.287C293.711 139.221 293.943 138.034 294.31 136.65C294.678 135.266 294.978 133.726 294.978 133.226C294.978 132.041 297.345 126.323 297.752 126.524C297.925 126.609 298.308 127.448 298.604 128.388ZM100.568 128.144C100.865 128.527 99.0791 136.129 97.5501 140.993C96.5522 144.167 94.5798 147.564 93.1258 148.612C92.1903 149.287 92.1702 149.281 91.3707 148.102C90.2146 146.396 89.1154 145.57 88.0007 145.57C86.4935 145.57 84.2968 147.734 82.8824 150.612C81.4507 153.525 79.9817 155.122 77.9692 155.953C76.8663 156.408 75.5856 156.461 70.7825 156.253L64.9379 155.999L63.7968 156.982L62.6552 157.965L61.8821 157.024C61.2376 156.238 61.1476 155.465 61.3408 152.369C61.5491 149.037 63.0122 142.288 63.9569 140.304L64.3189 139.545L73.1201 140.191C77.9605 140.547 83.6605 140.992 85.7867 141.18C87.9129 141.368 89.8249 141.388 90.035 141.225C90.2455 141.062 92.1316 138.097 94.2259 134.636C97.6187 129.03 98.5515 127.921 99.9723 127.806C100.145 127.792 100.413 127.944 100.568 128.144ZM266.342 128.36C266.342 128.479 265.958 129.01 265.49 129.54C265.021 130.07 264.015 131.492 263.255 132.7C262.393 134.069 261.429 135.058 260.696 135.324C260.049 135.56 259.52 135.689 259.52 135.61C259.52 135.265 262.798 129.398 263.215 128.997C263.615 128.612 264.123 128.465 266 128.193C266.188 128.166 266.342 128.241 266.342 128.36ZM272.177 128.461C273.366 129.063 267.895 138.293 261.226 146.937C259.479 149.201 257.986 151.002 257.909 150.94C257.68 150.758 259.027 144.858 259.839 142.484C261.047 138.953 263.867 133.725 266.124 130.835C268.122 128.277 268.308 128.144 269.898 128.149C270.819 128.152 271.844 128.292 272.177 128.461ZM260.721 130.594C258.028 134.86 256.395 139.704 255.916 144.844L255.628 147.93L255.073 145.54C254.767 144.226 254.517 141.401 254.517 139.262V135.373L256.563 133.627C259.442 131.17 259.386 129.953 256.497 132.188C255.204 133.189 255.055 133.231 255.284 132.534C255.581 131.626 257.694 130.239 259.994 129.442C260.859 129.143 261.621 128.892 261.688 128.884C261.754 128.876 261.319 129.646 260.721 130.594ZM276.37 129.424C277.108 129.728 277.711 130.217 277.711 130.51C277.711 131.358 273.405 137.736 270.266 141.538C267.308 145.119 262.434 149.627 260.737 150.352L259.781 150.761L260.649 149.708C264.606 144.909 270.888 135.479 273.139 130.957C273.711 129.809 274.37 128.87 274.603 128.87C274.837 128.87 275.632 129.119 276.37 129.424ZM243.308 134.24C243.801 138.211 246.197 143.015 250.001 147.658C251.607 149.617 250.616 148.989 247.955 146.36C243.582 142.039 241.461 137.132 242.102 132.814C242.436 130.564 242.923 131.14 243.308 134.24ZM282.714 134.685C282.714 136.413 274.137 143.668 268.144 147.01L265.236 148.631L267.494 146.457C268.737 145.262 270.633 143.202 271.708 141.879C273.482 139.697 273.916 139.398 276.37 138.665C277.858 138.221 279.076 137.724 279.076 137.56C279.076 136.936 278.203 136.882 276.623 137.409C275.721 137.71 274.983 137.882 274.983 137.791C274.983 137.701 275.946 136.123 277.123 134.284L279.263 130.942L280.989 132.494C281.938 133.347 282.714 134.334 282.714 134.685ZM63.2819 132.727C62.1704 133.615 62.5611 135.194 63.9309 135.348C65.0452 135.474 66.2304 134.639 66.2304 133.727C66.2304 133.215 64.997 132.137 64.4112 132.137C64.197 132.137 63.6885 132.403 63.2819 132.727ZM64.866 133.749C64.866 134.037 64.6754 134.367 64.4426 134.481C63.9018 134.748 63.3579 134.069 63.729 133.589C64.1474 133.049 64.866 133.15 64.866 133.749ZM83.3112 134.759C82.4294 135.764 82.4176 136.282 83.2635 136.842C84.2245 137.479 85.7385 136.956 86.08 135.869C86.2952 135.185 86.1473 134.795 85.5393 134.44C84.4087 133.78 84.1358 133.82 83.3112 134.759ZM85.0708 135.889C84.7402 136.576 84.1608 136.674 83.7278 136.115C83.3322 135.604 84.4551 134.559 84.9635 134.965C85.1827 135.14 85.2309 135.556 85.0708 135.889ZM291.835 139.824C290.387 143.432 287.607 147.32 285.813 148.243C284.685 148.824 277.751 150.464 274.755 150.857L272.936 151.097L275.21 150.117C281.347 147.474 287.376 142.756 291.057 137.718C293.42 134.483 293.687 135.208 291.835 139.824ZM253.277 141.395C253.448 145.834 253.423 146.006 252.86 144.299C252.202 142.308 252.061 138.731 252.564 136.811C252.981 135.219 253.061 135.732 253.277 141.395ZM260.2 138.179C259.795 138.949 258.974 141.05 258.376 142.847C257.51 145.449 257.284 145.834 257.267 144.738C257.228 142.223 258.581 137.815 259.607 137.12C260.909 136.238 261.07 136.526 260.2 138.179ZM279.929 141.304C277.294 145.475 271.533 149.153 264.69 151.032C261.201 151.99 261.176 151.948 264.309 150.404C269.202 147.992 273.784 145.093 277.484 142.068C279.485 140.433 281.177 139.081 281.243 139.065C281.309 139.049 280.718 140.056 279.929 141.304ZM292.864 147.993C289.439 151.343 284.015 153.865 279.076 154.406L277.029 154.631L279.985 153.401C281.611 152.724 283.844 151.543 284.948 150.776C286.686 149.569 293.159 146.476 294.228 146.343C294.433 146.317 293.819 147.06 292.864 147.993ZM282.763 150.787C281.865 151.651 276.635 153.514 273.456 154.103C270.873 154.581 269.794 154.602 266.53 154.238C264.404 154 262.827 153.696 263.025 153.561C263.223 153.426 265.492 153.116 268.066 152.872C270.64 152.627 274.938 151.97 277.616 151.411C283.617 150.158 283.389 150.185 282.763 150.787ZM155.232 157.057C154.417 157.707 155.991 157.914 161.765 157.914C167.097 157.914 168.105 157.827 168.105 157.369C168.105 156.911 167.103 156.825 161.814 156.825C158.353 156.825 155.392 156.929 155.232 157.057ZM321.217 183.963C321.102 184.113 320.862 185.174 320.683 186.322C320.504 187.471 320.261 188.41 320.142 188.41C320.023 188.41 319.548 188.042 319.086 187.593C317.414 185.968 315.513 188.221 317.013 190.048C317.673 190.852 317.658 191.012 316.808 192.163C314.894 194.752 314.483 197.936 314.957 206.502C315.292 212.545 315.019 229.493 314.56 231.25C314.534 231.35 313.85 229.879 313.04 227.982C312.23 226.085 310.92 223.581 310.128 222.418C308.962 220.707 308.769 220.129 309.117 219.399C309.354 218.902 309.547 217.462 309.547 216.199C309.547 213.639 308.811 212.959 307.322 214.147C306.505 214.8 306.441 214.749 304.971 212.324C302.57 208.363 301.379 209.079 301.346 214.504C301.333 216.742 301.283 216.859 300.633 216.183C300.249 215.784 299.755 215.212 299.535 214.913C299.226 214.491 298.95 214.458 298.315 214.768C296.656 215.577 297.219 219.055 299.189 220.156C299.873 220.539 299.973 220.805 299.625 221.324C298.478 223.033 298.184 226.205 298.841 229.745C299.506 233.321 300.176 240.678 300.703 250.199L300.998 255.534L298.564 255.645C297.226 255.706 296.131 255.919 296.131 256.119C296.131 256.661 312.482 256.905 333.652 256.679C345.464 256.553 352.071 256.352 352.071 256.119C352.071 255.919 350.894 255.707 349.456 255.647C348.017 255.587 346.841 255.389 346.841 255.207C346.841 253.279 350.737 226.695 351.681 222.174C352.483 218.342 352.309 215.594 351.152 213.809C350.51 212.817 350.487 212.578 351.014 212.343C351.851 211.969 354.37 207.733 353.954 207.4C353.775 207.257 352.971 207.338 352.167 207.581C350.803 207.993 350.646 207.956 349.797 207.026C347.719 204.752 346.921 204.189 346.379 204.614C346.091 204.841 345.739 206.039 345.599 207.276L345.343 209.526L344.254 208.589C343.655 208.073 343.01 207.652 342.82 207.652C342.148 207.652 341.383 208.533 341.383 209.307C341.383 209.738 340.657 210.706 339.771 211.456C337.981 212.971 336.012 215.899 334.805 218.839C334.37 219.9 333.973 220.717 333.924 220.654C333.875 220.591 334.079 216.374 334.379 211.282C335.141 198.337 334.43 195.06 330.026 191.213C327.955 189.404 327.864 189.242 328.45 188.398C329.681 186.623 328.996 186.209 326.324 187.112C325.782 187.295 325.207 186.882 324.116 185.525C322.757 183.834 321.737 183.284 321.217 183.963ZM323.947 186.777C325.211 188.375 326.041 188.772 326.602 188.047C326.757 187.847 327.059 187.684 327.274 187.684C327.488 187.684 327.205 188.378 326.644 189.227C325.696 190.662 325.479 190.777 323.54 190.879C321.105 191.007 318.47 190.235 317.769 189.189C317.096 188.185 317.879 187.898 318.88 188.782C319.328 189.176 319.974 189.499 320.317 189.499C321.139 189.499 321.827 187.99 321.827 186.187C321.827 184.475 322.209 184.582 323.947 186.777ZM331.289 194.16C333.674 197.764 333.83 199.23 333.208 212.19C332.632 224.179 332.515 224.894 329.659 233.921C329.479 234.492 329.275 227.63 329.206 218.673C329.092 203.755 328.611 193.741 327.893 191.346L327.611 190.407L328.77 191.255C329.407 191.722 330.541 193.029 331.289 194.16ZM321.371 191.919C321.497 192.019 321.594 198.745 321.586 206.865C321.576 217.966 321.372 223.43 320.764 228.89C319.941 236.294 318.164 248.194 317.156 253.056L316.597 255.756L315.057 255.873L313.516 255.991L313.812 253.514C315.539 239.031 316.468 221.935 316.294 207.833L316.142 195.489L317.39 193.362C318.562 191.365 318.715 191.25 319.891 191.486C320.579 191.624 321.246 191.818 321.371 191.919ZM327.022 193.039C328.254 199.75 328.617 237.263 327.523 244.864C327.15 247.46 326.72 251.014 326.569 252.761L326.293 255.937H321.983C318.088 255.937 317.696 255.876 317.917 255.302C318.73 253.194 321.343 234.918 322.343 224.352C322.958 217.857 323.12 198.18 322.591 194.331L322.232 191.721L324.19 191.581C325.267 191.504 326.273 191.413 326.427 191.378C326.58 191.343 326.848 192.091 327.022 193.039ZM348.66 207.289C350.214 209.222 350.465 209.33 351.935 208.702C352.835 208.317 352.829 208.366 351.785 209.882C350.779 211.341 350.536 211.473 348.654 211.582C345.873 211.744 343.247 211.073 342.777 210.082C342.171 208.804 342.749 208.606 344.092 209.633C345.214 210.491 345.395 210.527 345.939 210.003C346.271 209.684 346.635 208.534 346.748 207.448C346.861 206.362 347.009 205.473 347.077 205.473C347.145 205.473 347.857 206.29 348.66 207.289ZM306.163 215.516C306.542 215.632 307.254 215.436 307.745 215.082C308.62 214.45 308.638 214.47 308.638 216.103C308.638 217.918 307.984 219.64 307.131 220.073C306.834 220.224 305.43 220.35 304.011 220.353C301.909 220.357 301.178 220.188 300.065 219.441C298.571 218.438 297.779 216.537 298.586 215.893C298.93 215.619 299.087 215.614 299.087 215.88C299.087 216.093 299.517 216.704 300.043 217.237C301.527 218.743 302.152 217.95 302.542 214.072L302.877 210.738L304.175 213.021C304.889 214.277 305.783 215.399 306.163 215.516ZM344.098 212.473C344.106 212.628 343.507 213.712 342.767 214.882C339.066 220.735 334.623 233.928 332.013 246.82C331.098 251.335 330.281 255.234 330.196 255.483C330.111 255.733 329.493 255.937 328.821 255.937H327.601L327.898 251.773C328.512 243.208 330.496 234.035 333.687 225.023C336.245 217.798 337.913 214.548 340.068 212.594C341.888 210.944 341.918 210.933 342.995 211.558C343.594 211.905 344.09 212.317 344.098 212.473ZM347.205 215.092C347.393 218.57 345.859 226.617 343.641 233.791C341.295 241.38 340.066 247.076 339.707 252.034L339.425 255.937H335.396H331.367L331.635 254.394C334.5 237.897 339.116 223.14 343.96 214.992C345.113 213.053 345.751 212.36 346.306 212.444C346.916 212.537 347.095 213.066 347.205 215.092ZM350.141 214.096C351.215 216.275 351.431 217.905 350.927 220.017C350.27 222.771 348.007 237.555 346.845 246.679C345.551 256.838 345.903 255.937 343.221 255.937C341.989 255.937 340.873 255.797 340.74 255.625C339.965 254.623 342.314 241.418 344.333 235.425C346.24 229.764 347.704 223.262 348.277 217.908C348.581 215.063 348.974 212.734 349.15 212.734C349.327 212.734 349.772 213.347 350.141 214.096ZM302.216 227.71C302.518 231.354 303.371 239.035 304.11 244.78C304.849 250.524 305.454 255.394 305.454 255.602C305.454 255.818 304.72 255.933 303.749 255.868L302.043 255.756L301.942 253.214C301.63 245.38 300.792 234.849 300.165 230.887C299.771 228.391 299.556 225.606 299.69 224.698C299.94 222.992 300.821 221.084 301.359 221.084C301.528 221.084 301.913 224.066 302.216 227.71ZM309.718 223.717C310.581 225.164 311.951 228.064 312.762 230.161C314.288 234.107 314.512 236.519 313.803 241.384L313.517 243.35L312.237 238.365C310.627 232.094 309.351 228.139 307.893 224.896C306.121 220.956 306.145 221.084 307.203 221.084C307.93 221.084 308.513 221.695 309.718 223.717ZM304.087 224.08C304.382 225.527 305.924 232.43 307.514 239.418C309.104 246.407 310.546 252.983 310.717 254.031L311.029 255.937H308.944C306.413 255.937 306.804 257.264 304.982 242.504C303.612 231.406 302.814 221.447 303.296 221.447C303.437 221.447 303.793 222.632 304.087 224.08ZM307.458 226.641C308.724 229.739 310.377 235.442 312.07 242.556C313.039 246.627 313.175 247.974 312.919 250.945C312.751 252.892 312.435 254.485 312.217 254.485C312 254.485 311.821 254.162 311.821 253.767C311.821 253.371 310.402 246.796 308.667 239.154C306.932 231.512 305.391 224.524 305.242 223.626C304.977 222.028 304.986 222.013 305.656 222.95C306.032 223.477 306.843 225.138 307.458 226.641ZM107.566 240.505C110.664 240.994 113.244 241.439 113.3 241.495C113.355 241.551 113.305 242.21 113.188 242.958L112.975 244.32H106.885H100.795V241.96C100.795 240.309 100.966 239.603 101.364 239.608C101.676 239.613 104.467 240.017 107.566 240.505ZM70.6888 244.047C70.1721 245.296 69.6227 246.426 69.4681 246.561C69.1575 246.831 56.6796 248.261 56.6796 248.027C56.6796 247.947 57.1058 246.761 57.627 245.392C58.5725 242.906 58.5761 242.903 60.4695 242.684C64.5267 242.215 68.3502 241.868 69.9525 241.824L71.6284 241.778L70.6888 244.047ZM121.261 244.477C121.261 245.097 119.412 246.198 117.054 246.983C114.958 247.68 114.89 247.349 116.827 245.891C119.26 244.059 121.261 243.421 121.261 244.477ZM125.582 247.395C125.582 247.793 125.078 248.314 124.445 248.569C123.161 249.088 116.713 249.212 116.713 248.718C116.713 248.542 117.788 248.064 119.101 247.658C122.69 246.545 122.75 246.533 124.217 246.609C125.242 246.662 125.582 246.858 125.582 247.395ZM53.2686 248.277L54.633 248.518L52.5864 249.478C49.6139 250.871 44.9149 252.044 43.3231 251.79C40.5539 251.348 39.9449 249.968 41.9601 248.703C42.997 248.051 43.7465 247.956 47.5314 247.993C49.9363 248.017 52.5182 248.144 53.2686 248.277ZM49.6039 252.956C46.8742 254.986 44.3496 256.139 43.3227 255.824C42.2139 255.484 42.4281 254.219 43.7074 253.549C44.6375 253.063 50.8941 251.256 51.6768 251.248C51.8019 251.246 50.8691 252.015 49.6039 252.956ZM203.805 256.666C203.649 256.867 203.79 257.114 204.119 257.213C204.448 257.314 222.3 257.353 243.791 257.302C274.563 257.228 282.906 257.111 283.055 256.754C283.301 256.167 204.259 256.08 203.805 256.666Z" fill="black"/>
<path fill-rule="evenodd" clip-rule="evenodd" d="M279.485 100.208C279.322 100.28 278.35 100.807 277.325 101.378C274.577 102.908 274.652 102.889 270.849 103.012C266.044 103.168 262.199 103.743 258.141 104.913L256.342 105.432L256.099 104.425C255.689 102.727 255.313 101.856 254.893 101.638C254.55 101.459 254.498 101.459 254.282 101.63C254.067 101.801 254.074 101.926 254.365 103.088C254.54 103.787 254.723 104.677 254.773 105.065C254.89 105.976 254.679 106.196 252.863 107.051C247.403 109.62 241.959 115.305 239.799 120.693L239.187 122.22L238.385 121.625C236.789 120.443 235.871 119.92 235.456 119.959C234.676 120.03 234.891 120.399 236.441 121.643C238.394 123.211 238.482 123.49 238.025 126.695C237.596 129.708 237.792 133.756 238.47 135.864C238.657 136.447 238.767 136.96 238.715 137.005C238.662 137.051 238.119 136.981 237.508 136.851C236.898 136.72 235.897 136.584 235.284 136.548C234.341 136.492 234.138 136.513 233.956 136.686C233.477 137.145 234.773 137.571 238.103 138.049L239.067 138.188L240.438 140.281C243.069 144.3 245.331 146.612 249.28 149.316C252.864 151.772 259.427 155.137 262.05 155.866C262.478 155.984 262.828 156.116 262.828 156.158C262.828 156.2 262.644 156.266 262.421 156.305C261.84 156.406 245.615 156.607 231.253 156.69L219 156.76V157.197V157.633L242.789 157.711C284.711 157.849 311.45 157.756 313.38 157.465C314.153 157.348 314.21 157.132 313.513 156.962C312.967 156.829 300.991 156.66 289.036 156.617L284.371 156.6L286.444 156.04C288.622 155.451 289.293 155.237 292.276 154.179C295.355 153.086 296.442 152.98 299.079 153.512C300.189 153.737 300.653 153.786 300.771 153.692C301.113 153.42 299.933 152.736 298.29 152.255C297.801 152.112 297.28 151.929 297.131 151.848C296.877 151.71 296.885 151.688 297.265 151.483C299.32 150.375 302.822 146.896 304.881 143.918C306.105 142.147 306.862 141.378 309.011 139.721C310.835 138.316 311.002 138.153 310.794 137.985C310.477 137.731 309.837 137.914 308.511 138.639C307.944 138.95 307.456 139.185 307.427 139.162C307.398 139.139 307.547 138.686 307.758 138.155C307.969 137.624 308.24 136.733 308.359 136.175C308.632 134.901 308.873 131.264 308.877 128.341C308.881 125.661 309.125 121.079 309.313 120.153C309.387 119.786 309.412 119.376 309.367 119.241C309.25 118.887 308.791 118.938 308.409 119.348C308.228 119.542 307.998 119.701 307.897 119.701C307.796 119.701 307.506 119.264 307.252 118.731C306.493 117.137 306.469 117.096 306.098 116.746C305.742 116.41 305.273 116.305 305.103 116.524C305.054 116.587 305.277 117.292 305.598 118.09C306.932 121.403 307.593 125.278 307.596 129.811C307.599 132.779 307.44 134.167 306.862 136.243C305.761 140.196 304.016 143.398 301.269 146.504C300.099 147.827 296.586 150.594 294.81 151.591C292.026 153.154 287.618 154.69 283.927 155.382C280.447 156.035 278.496 156.188 273.563 156.195C269.994 156.2 268.824 156.165 268.306 156.035L267.64 155.869L268.232 155.778C268.558 155.728 269.99 155.684 271.416 155.68C274.669 155.671 278.343 155.491 280.078 155.256C281.744 155.031 284.05 154.424 285.616 153.798C289.639 152.192 292.612 150.17 295.606 147.001C296.479 146.078 297.872 144.68 298.703 143.894C302.233 140.556 302.998 139.726 303.987 138.157C306.724 133.819 307.024 128.891 304.873 123.639C303.667 120.696 301.483 117.749 298.214 114.653C297.229 113.72 296.39 112.915 296.351 112.864C296.312 112.814 296.453 112.064 296.664 111.197C297.113 109.359 297.114 108.474 296.669 108.474C296.213 108.474 295.855 109.113 295.486 110.589C295.298 111.338 295.11 111.978 295.068 112.011C294.987 112.075 292.399 110.719 291.627 110.208C291.382 110.046 291.116 109.828 291.034 109.723C290.953 109.618 290.886 108.897 290.886 108.121C290.886 106.752 290.877 106.709 290.557 106.673C290.1 106.622 289.692 107.191 289.465 108.199C289.366 108.641 289.248 109.003 289.204 109.003C289.159 109.003 288.119 108.688 286.893 108.303C284.451 107.536 282.164 107.005 281.299 107.005C280.855 107.004 280.744 107.048 280.744 107.224C280.744 107.495 282.193 108.075 284.446 108.706C286.514 109.285 289.539 110.46 291.183 111.322C296.032 113.864 299.467 116.975 302.124 121.229C304.202 124.557 304.64 126.15 304.647 130.399C304.652 134.018 304.451 134.898 303.128 137.043C302.142 138.644 300.769 140.458 300.282 140.805L299.956 141.038L300.06 140.509C300.117 140.218 300.286 139.556 300.437 139.039C300.891 137.473 301.158 135.748 301.319 133.337C301.403 132.077 301.578 130.675 301.708 130.222C301.839 129.77 301.981 129.122 302.024 128.784C302.089 128.267 302.059 128.156 301.838 128.088C301.651 128.031 301.476 128.106 301.238 128.343C300.787 128.792 300.58 128.643 300.013 127.465C298.836 125.017 298.681 124.186 299.093 122.522C299.453 121.07 299.472 120.717 299.197 120.536C298.736 120.232 298.068 120.86 298.068 121.596C298.068 121.804 297.96 122.069 297.828 122.185C297.612 122.374 297.546 122.379 297.177 122.227C296.221 121.835 295.128 120.151 294.545 118.172C294.383 117.623 294.069 116.558 293.848 115.806C293.427 114.38 292.955 113.529 292.584 113.529C292.187 113.529 292.259 114.614 292.805 116.856C293.342 119.059 293.42 119.583 293.209 119.583C293.143 119.583 292.593 119.483 291.988 119.36C290.279 119.015 289.827 118.975 289.177 119.114C288.682 119.22 288.581 119.289 288.619 119.495C288.669 119.766 289.587 120.042 291.284 120.294C292.81 120.521 293.47 121.085 293.77 122.414C294.03 123.57 294.233 126.05 294.233 128.093C294.234 130.943 293.874 131.942 291.768 134.929C287.714 140.682 282.547 145.232 276.82 148.094C274.649 149.179 269.935 150.912 269.935 150.626C269.935 150.566 270.451 150.266 271.082 149.958C274.01 148.53 277.921 145.722 279.598 143.844C280.635 142.682 281.675 141.137 282.974 138.825C283.513 137.867 284.014 137.083 284.089 137.084C284.163 137.086 284.369 137.65 284.547 138.339C284.969 139.968 285.436 140.436 285.852 139.646C286.095 139.184 286.012 138.576 285.421 136.487C284.955 134.838 284.988 134.565 285.854 132.867C286.201 132.188 286.631 131.263 286.811 130.81C287.297 129.586 287.296 129.589 288.314 128.534C289.803 126.992 290.22 126.483 290.22 126.21C290.22 125.647 289.305 125.857 288.506 126.603C288.255 126.837 287.98 126.994 287.894 126.952C287.698 126.855 287.598 126.172 287.401 123.58C287.207 121.022 286.866 118.557 286.584 117.685C286.284 116.754 286.306 116.533 286.879 114.726C287.555 112.597 287.626 112.175 287.361 111.89C287.154 111.669 287.138 111.671 286.766 111.99C286.366 112.332 286.099 112.829 285.693 113.985C285.417 114.77 285.391 114.758 284.791 113.552L284.392 112.752L284.789 112.459C285.047 112.27 285.186 112.046 285.186 111.819C285.186 111.494 285.149 111.472 284.616 111.472C283.887 111.472 283.226 111.099 281.175 109.532C279.557 108.297 279.112 108.082 278.755 108.365C278.401 108.646 278.662 108.98 280.32 110.366C281.205 111.106 281.928 111.81 281.928 111.931C281.928 112.181 281.233 112.705 279.887 113.47C275.388 116.027 273.775 117.101 270.453 119.751C267.737 121.917 266.071 123.465 264.562 125.226C263.357 126.632 262.515 127.4 261.9 127.652C261.666 127.748 260.963 127.962 260.337 128.128C259.712 128.294 258.685 128.635 258.056 128.885C256.833 129.372 256.461 129.439 256.461 129.175C256.461 128.668 259.386 123.992 260.311 123.021C261.064 122.229 261.393 122.17 262.698 122.587C263.713 122.911 264.757 123.028 264.99 122.843C265.267 122.623 264.714 122.175 263.648 121.756C263.028 121.513 262.458 121.221 262.381 121.108C262.183 120.814 262.96 120.049 264.722 118.803C269.163 115.662 271.77 114.571 277.354 113.514C279.11 113.182 279.559 113.057 279.559 112.9C279.559 112.57 278.535 111.459 277.426 110.587C275.782 109.295 273.089 108.309 270.195 107.941C268.41 107.714 265.027 107.85 263.238 108.22C255.926 109.733 249.838 114.069 245.869 120.592C244.89 122.202 244.494 122.988 242.801 126.695C240.998 130.644 240.933 130.875 240.76 133.982C240.614 136.594 240.557 136.982 240.317 136.982C240.055 136.982 239.411 134.533 239.127 132.456C238.534 128.111 240.129 121.901 243.021 117.291C245.876 112.741 250.898 108.752 256.313 106.733C261.761 104.702 265.451 104.186 274.546 104.184C279.002 104.183 280.391 104.269 284.332 104.789C286.588 105.087 287.147 105.128 287.33 105.008C287.454 104.926 287.555 104.788 287.555 104.7C287.555 104.249 284.906 103.676 280.818 103.242C279.515 103.104 278.206 102.955 277.909 102.911L277.368 102.831L278.472 102.088C279.646 101.298 280.182 100.739 280.117 100.371C280.068 100.089 279.867 100.037 279.485 100.208ZM268.454 109.009C272.767 109.252 274.326 109.707 276.505 111.356L277.555 112.151L275.337 112.708C272.579 113.401 270.302 114.162 268.385 115.033C267.024 115.651 266.529 115.812 266.529 115.635C266.529 115.597 266.666 115.142 266.833 114.623C267.004 114.091 267.117 113.417 267.092 113.075C267.054 112.561 267.004 112.471 266.752 112.471C266.185 112.471 265.049 114.963 265.049 116.206C265.049 116.724 264.217 117.633 262.255 119.257C261.257 120.082 260.712 120.442 260.314 120.537C259.311 120.775 256.461 120.329 256.461 119.934C256.461 119.758 257.513 119.193 258.865 118.642C260.707 117.892 261.495 117.469 261.495 117.232C261.495 116.817 260.669 116.766 259.636 117.117C259.251 117.248 258.907 117.332 258.871 117.304C258.75 117.208 259.161 116.707 260.251 115.626C261.922 113.967 262.235 113.468 261.705 113.306C261.297 113.182 261.199 113.222 260.363 113.849C259.511 114.489 258.456 115.585 256.623 117.731C255.394 119.171 254.385 120.106 253.8 120.346C253.579 120.436 253.054 120.547 252.634 120.591C251.943 120.664 251.871 120.65 251.871 120.444C251.871 120.319 252.41 119.505 253.069 118.636C255.117 115.934 255.356 115.41 254.536 115.41C254.218 115.41 253.859 115.775 251.996 117.996C250.803 119.419 249.269 121.083 248.588 121.695C247.348 122.809 246.193 123.578 245.995 123.421C245.807 123.272 246.237 122.257 247.049 120.935C249.514 116.922 254.711 112.3 258.175 111.041C258.966 110.753 259.259 110.72 261.71 110.638C263.18 110.589 264.499 110.513 264.642 110.469C265.263 110.276 264.75 109.813 263.556 109.49C262.837 109.296 262.791 109.264 263.109 109.183C263.439 109.1 265.082 108.937 265.937 108.902C266.141 108.894 267.273 108.942 268.454 109.009ZM284.09 115.096C284.662 116.201 284.633 116.842 283.931 118.643C283.616 119.451 283.308 120.158 283.247 120.215C283.186 120.271 282.935 120.204 282.69 120.065C281.82 119.574 280.306 119.091 279.437 119.028C277.214 118.868 275.408 119.939 275.167 121.56C274.935 123.122 276.54 124.756 278.306 124.756C279.108 124.756 279.423 124.503 279.041 124.168C278.896 124.041 278.418 123.776 277.979 123.579C276.912 123.101 276.564 122.65 276.639 121.841C276.674 121.47 276.815 121.091 276.989 120.901C277.372 120.484 278.449 120.053 279.109 120.053C279.862 120.054 281.32 120.642 281.956 121.203C282.475 121.66 282.494 121.706 282.347 122.132C281.8 123.716 278.938 128.548 278.51 128.611C278.144 128.664 275.726 127.93 275.291 127.633C274.933 127.388 274.904 127.303 274.944 126.601C274.97 126.148 274.923 125.805 274.829 125.759C274.477 125.586 274.055 125.853 273.714 126.466C273.458 126.926 273.26 127.118 272.991 127.172C272.542 127.261 269.902 126.862 269.834 126.694C269.807 126.629 270.622 125.835 271.645 124.931C274.175 122.693 274.873 121.814 274.118 121.818C273.711 121.82 272.742 122.492 270.172 124.556C267.61 126.614 266.811 127.064 265.498 127.187C264.879 127.245 264.753 127.226 264.753 127.071C264.753 126.785 266.658 124.606 268.113 123.227C269.836 121.596 272.503 119.419 274.155 118.295C276.762 116.522 280.287 114.478 281.907 113.8L282.743 113.45L283.213 113.881C283.472 114.118 283.866 114.665 284.09 115.096ZM285.942 122.637C286.169 126.054 285.828 130.902 285.43 129.928C285.39 129.831 285.316 128.879 285.265 127.812C285.16 125.599 284.977 124.077 284.644 122.64C284.349 121.368 284.447 120.434 284.97 119.524L285.375 118.819L285.575 119.466C285.685 119.821 285.85 121.248 285.942 122.637ZM253.5 121.625C253.5 121.713 252.994 122.916 252.377 124.299C250.219 129.13 249.544 131.968 249.697 135.571C249.827 138.635 250.707 142.793 251.931 146.133C252.224 146.931 252.463 147.665 252.463 147.764C252.463 148.632 249.262 143.861 248.338 141.617C247.019 138.411 246.807 132.522 247.872 128.635C248.31 127.035 249.177 124.891 249.795 123.874C250.483 122.744 251.228 122.138 252.402 121.755C253.427 121.421 253.5 121.412 253.5 121.625ZM259.04 121.703C259.265 121.879 258.878 122.677 257.651 124.565C256.409 126.476 255.686 127.76 254.601 129.987C254.223 130.763 253.492 132.006 252.977 132.75C252.462 133.493 251.826 134.512 251.565 135.013C251.303 135.514 251.03 135.924 250.957 135.924C250.884 135.924 250.858 135.673 250.899 135.365C250.94 135.058 251.013 134.278 251.062 133.631C251.262 130.969 252.275 127.45 253.633 124.697C254.683 122.57 255.247 121.796 255.882 121.61C256.438 121.448 258.802 121.517 259.04 121.703ZM296.151 123.119C296.906 123.875 297.052 124.342 296.815 125.238C296.594 126.074 296.169 126.989 296.002 126.989C295.943 126.989 295.808 126.844 295.702 126.666C295.455 126.251 295.29 122.64 295.519 122.64C295.604 122.64 295.889 122.855 296.151 123.119ZM247.502 125.47C247.055 126.597 246.582 127.915 246.453 128.4C246.203 129.333 245.973 133.215 245.952 136.864C245.943 138.245 245.892 138.858 245.796 138.727C245.549 138.391 244.785 135.688 244.522 134.219C244.203 132.438 244.159 128.68 244.444 127.563C244.552 127.136 244.829 126.527 245.058 126.212C245.452 125.668 248.145 123.286 248.261 123.378C248.291 123.402 247.949 124.343 247.502 125.47ZM283.638 124.256C283.789 124.534 283.915 131.165 283.784 131.997L283.68 132.66L283.082 132.205C282.753 131.955 281.964 131.254 281.328 130.647L280.172 129.543L280.473 128.942C280.638 128.612 281.067 127.74 281.426 127.005C282.215 125.39 283.081 124.05 283.338 124.05C283.441 124.05 283.576 124.143 283.638 124.256ZM298.613 127.402C299.113 128.58 299.52 130.389 299.705 132.264C300.179 137.047 298.438 142.233 295.722 144.134C294.703 144.847 290.323 146.857 289.788 146.857C289.501 146.857 289.615 146.627 290.523 145.378C291.016 144.7 291.725 143.64 292.099 143.022C292.907 141.686 293.864 140.812 295.633 139.799C297.434 138.766 297.966 138.194 297.362 137.937C297.039 137.8 296.333 138.019 295.573 138.493C295.276 138.679 294.807 138.922 294.532 139.034L294.032 139.237L294.136 138.668C294.193 138.355 294.435 137.317 294.674 136.362C294.913 135.407 295.173 134.136 295.251 133.538C295.418 132.263 295.889 130.766 296.734 128.824C297.444 127.193 297.869 126.486 298.102 126.548C298.193 126.572 298.423 126.957 298.613 127.402ZM266.323 128.214C266.367 128.306 265.995 128.891 265.495 129.514C264.995 130.138 264.212 131.213 263.755 131.904C262.756 133.413 261.994 134.327 261.325 134.819C260.74 135.249 259.57 135.652 259.571 135.423C259.572 135.27 260.917 132.768 262.168 130.591C263.181 128.829 263.509 128.551 264.901 128.281C266.284 128.012 266.227 128.014 266.323 128.214ZM271.712 128.204C272.276 128.32 272.385 128.391 272.425 128.663C272.629 130.072 268.607 136.91 263.469 143.886C262.078 145.775 258.718 150.028 258.243 150.501L257.948 150.795L257.945 150.369C257.939 149.664 258.784 145.983 259.577 143.259C261.026 138.277 266.531 129.16 268.638 128.253C269.196 128.013 270.673 127.989 271.712 128.204ZM276.08 129.157C276.961 129.471 277.718 129.955 277.822 130.272C278.048 130.957 273.731 137.398 270.33 141.449C267.211 145.164 262.358 149.554 260.458 150.378L259.793 150.667L260.082 150.319C264.166 145.418 270.071 136.79 272.745 131.818C274.239 129.04 274.5 128.698 275.031 128.821C275.201 128.861 275.673 129.012 276.08 129.157ZM261.643 128.919C261.643 128.945 261.238 129.646 260.742 130.476C257.707 135.556 256.35 139.674 255.838 145.358C255.741 146.441 255.617 147.327 255.564 147.327C255.417 147.327 254.846 144.508 254.683 142.977C254.603 142.234 254.538 140.187 254.537 138.43L254.536 135.234L256.029 133.962C256.85 133.263 257.783 132.381 258.102 132.002C258.648 131.353 258.841 130.869 258.555 130.869C258.318 130.869 257.281 131.483 256.344 132.177C255.347 132.917 255.045 133.03 255.211 132.603C255.497 131.868 256.452 131.027 257.844 130.285C259.024 129.655 261.643 128.714 261.643 128.919ZM281.654 132.844C281.967 133.145 282.402 133.661 282.62 133.991L283.015 134.592L282.566 135.346C281.375 137.346 275.847 142.053 270.97 145.22C269.682 146.056 266.482 147.923 265.643 148.327C265.521 148.386 265.973 147.907 266.646 147.263C268.343 145.641 270.095 143.791 271.705 141.919C273.727 139.569 274.155 139.273 276.562 138.553C277.986 138.128 279.263 137.585 279.263 137.406C279.263 136.878 278.076 136.87 276.49 137.387C275.123 137.832 275.065 137.81 275.51 137.011C275.716 136.639 276.686 135.103 277.664 133.596L279.443 130.857L280.264 131.577C280.716 131.973 281.342 132.544 281.654 132.844ZM243.137 133.887C243.887 138.437 245.68 142.155 249.44 146.955C250.628 148.471 250.838 148.847 250.303 148.494C249.781 148.15 247.108 145.525 246.261 144.525C243.027 140.706 241.468 136.547 241.948 133.013C242.041 132.328 242.191 131.657 242.281 131.523C242.439 131.291 242.454 131.297 242.638 131.653C242.744 131.858 242.968 132.864 243.137 133.887ZM293.33 136.021C293.33 136.447 292.474 138.913 291.773 140.509C290.384 143.669 287.602 147.365 286.035 148.132C284.883 148.696 278.118 150.282 274.913 150.739C274.089 150.856 273.395 150.936 273.37 150.917C273.346 150.897 273.979 150.605 274.777 150.268C281.251 147.531 287.298 142.944 291.188 137.817C292.738 135.774 293.33 135.278 293.33 136.021ZM253.188 140.509C253.385 144.975 253.386 145.093 253.219 145.093C253.068 145.093 252.679 143.865 252.474 142.742C252.086 140.611 252.161 137.676 252.636 136.345L252.808 135.865L252.916 136.335C252.976 136.594 253.098 138.472 253.188 140.509ZM260.7 136.876C260.65 137.076 260.367 137.75 260.073 138.374C259.778 138.999 259.176 140.514 258.735 141.743C258.294 142.971 257.829 144.266 257.702 144.619C257.509 145.154 257.446 145.226 257.322 145.05C257.132 144.781 257.389 142.6 257.798 141.012C258.403 138.664 259.174 137.206 260.048 136.762C260.702 136.43 260.808 136.448 260.7 136.876ZM280.515 140.526C279.352 142.376 278.319 143.572 276.739 144.898C274.345 146.906 271.845 148.338 268.38 149.687C266.451 150.438 262.505 151.611 262.189 151.527C262.113 151.507 262.608 151.206 263.29 150.858C270.355 147.256 272.927 145.65 278.003 141.668C279.793 140.263 281.28 139.132 281.306 139.152C281.333 139.173 280.977 139.791 280.515 140.526ZM294.514 146.369C294.514 146.539 293.055 148.01 292.034 148.869C289.351 151.127 285.291 153.082 281.574 153.906C280.508 154.142 277.619 154.525 277.517 154.444C277.486 154.42 278.274 154.071 279.267 153.669C281.271 152.857 283.718 151.621 285.186 150.676C286.868 149.594 291.758 147.188 293.692 146.49C294.368 146.247 294.514 146.225 294.514 146.369ZM283.261 150.362C283.261 150.7 281.397 151.634 279.115 152.438C275.244 153.803 271.828 154.465 269.285 154.342C266.393 154.202 262.785 153.659 263.282 153.438C263.597 153.298 265.632 153.017 268.38 152.734C271.521 152.41 275.178 151.824 279.337 150.979C282.861 150.263 283.261 150.2 283.261 150.362Z" fill="#FAE465"/>
</svg>
