<svg width="86" height="78" viewBox="0 0 86 78" fill="none" xmlns="http://www.w3.org/2000/svg">
<path d="M74.264 63.0284C74.3964 62.8903 74.4961 62.734 74.5583 62.5672C75.1635 62.6637 75.446 62.9471 75.8276 63.8383C75.6014 64.6336 75.8962 66.4594 75.2579 66.1582L75.2256 65.9561C74.9931 65.9716 74.65 66.2447 74.3856 66.5867C74.1212 66.7169 73.9352 66.8376 74.0169 66.9999C74.2661 67.0551 74.5239 67.0816 74.7825 67.0785C74.9631 67.0801 75.1411 67.1132 75.3041 67.1754C75.4671 67.2376 75.6114 67.3275 75.7267 67.4387C75.9255 68.0823 75.6885 68.8094 75.1399 68.885C75.5045 69.2351 75.869 69.6227 76.2336 70.0479C76.2247 70.1089 76.1984 70.1675 76.1567 70.2191C76.1149 70.2707 76.0589 70.314 75.9929 70.3454C75.4036 70.1581 74.9096 69.8952 74.4065 69.7108C74.3984 69.5878 74.3773 69.4656 74.3434 69.3455C73.7938 69.026 73.1719 68.3154 72.7305 68.3253C72.725 68.7425 72.6558 68.7687 72.2174 69.0404C72.039 68.8908 71.8172 68.7789 71.5717 68.7146C71.5225 68.7035 71.4724 68.6951 71.4217 68.6895L71.3463 68.6834L71.2218 68.6807C70.8709 68.6792 70.5117 68.6862 70.1494 68.6973C68.7678 68.7875 67.38 68.8014 65.9959 68.7388C63.6285 70.1192 58.7589 68.0709 56.9491 69.7709C53.0371 69.42 52.6193 70.5042 50.5457 71.2875C47.5198 70.3721 54.4931 70.1215 52.8855 69.2484C48.469 68.9513 43.6494 69.4495 39.1345 69.3512C37.9985 69.9408 39.9599 70.5893 37.6019 70.7396C38.3811 70.3751 37.5143 69.7082 36.6763 69.7006C37.5914 69.7951 36.6549 69.9882 36.5513 70.1868L37.215 70.3075C37.6897 71.7708 34.0427 70.1633 32.4779 70.8923C31.7618 70.3994 33.3157 70.8999 33.4366 70.4156C33.4035 69.7568 32.7098 68.9794 30.5517 68.7293C26.2966 69.5498 23.3103 68.0622 18.5944 68.3629C18.805 68.9089 17.4828 68.6683 16.7232 68.7472C17.6808 68.2694 15.7995 67.7092 14.8844 67.614C13.7686 67.9173 13.6041 68.9756 11.8523 68.8743L13.0311 69.8859C13.6917 70.0068 16.0732 69.5703 17.2615 69.3531C18.0098 70.5042 23.1692 68.8345 22.6273 70.4024L21.8865 70.1969C19.1707 69.6276 17.7875 71.189 15.2308 71.7386C13.1689 71.2901 12.4775 70.5108 11.1019 69.8965C9.44949 69.5965 8.99821 70.0218 8.13804 70.3002C6.695 70.5448 5.97892 70.0509 5.16328 69.7568C4.6587 69.8105 5.39432 70.0174 4.88763 70.0695C4.27276 69.9044 3.63111 69.812 2.98294 69.7951C2.73711 70.766 5.50446 70.762 7.15579 71.0638C6.72704 71.2027 6.6267 71.4011 6.04205 71.3678C5.53747 71.4211 5.63802 71.2218 5.55899 71.1338L4.54344 71.2404C4.51984 71.5255 4.73046 72.0715 3.38701 72.1163L2.59174 71.5368C-0.0706792 71.3415 -1.35356 72.7018 2.07534 72.8201L2.37374 72.2214L5.65728 73.1091C6.19262 73.7153 4.11041 73.5532 4.06893 74.1256C3.59424 74.8365 6.41505 75.2055 7.65802 75.3599C8.94605 74.9431 6.86382 74.781 5.95323 74.6858L7.79172 73.6449C8.29717 73.5909 9.03794 73.7986 9.01345 74.0843C9.57987 74.4055 8.92473 75.2289 9.93884 75.1241C12.858 75.2935 10.1046 74.0657 12.5428 74.0026C11.8705 72.9368 7.78314 72.7007 6.48331 72.1737L5.39428 72.1912C4.93138 71.6725 7.16434 72.0088 5.513 71.7062C8.24711 71.0448 12.1675 72.3382 14.2059 73.0718C14.239 73.7311 16.4525 74.353 14.7093 75.1952C15.6242 75.2906 16.085 75.8088 17.3547 75.6785C20.792 74.5632 22.2788 75.9224 25.3208 75.6074C24.9126 75.4596 25.5228 75.2084 25.6169 75.0088C29.8623 75.4201 24.3031 77.8856 30.135 77.2816C31.1472 77.1763 31.6783 76.8381 31.3685 76.4917C30.6309 76.2844 29.9147 75.7928 28.7241 76.0103C28.7445 75.7238 26.8204 75.7355 27.9545 75.1438C30.6213 75.3413 31.8793 74.2642 34.0384 74.5125L34.744 74.061C35.5796 74.0702 37.6308 73.5737 38.7756 73.927C42.1008 74.2434 38.5319 74.8975 38.4112 75.3825L41.1571 75.6653C44.3412 74.5778 46.3975 77.2015 49.0985 75.88L48.8227 76.1927C47.2793 76.6371 49.3177 77.3709 50.41 77.3516L51.2684 77.0742C52.6245 75.7982 56.6681 76.6085 59.3788 76.2322C59.9602 76.2669 60.1934 76.5252 59.6865 76.5779L62.6623 77.1202C63.5132 75.8979 64.8427 77.0834 66.6158 76.899C67.8323 76.3953 68.2042 75.883 69.8268 75.5267C70.3112 75.6325 70.8036 75.7132 71.3009 75.7684C71.8958 75.8207 72.474 75.8476 73.0313 75.8581C74.148 75.8788 75.1738 75.8334 76.1612 75.7925C78.4304 75.6412 80.7152 75.7663 82.9375 76.1637C82.9011 76.0764 82.895 75.9829 82.9198 75.893C82.4823 75.1431 82.1737 74.3279 81.829 73.8015C81.4843 73.2659 81.1031 73.0461 80.52 73.277C80.8597 71.9578 81.3441 70.6199 81.7888 69.0396C82.011 68.258 82.2234 67.4004 82.4031 66.5292C82.5826 65.8035 82.7292 65.0716 82.82 64.3246C82.6414 64.1172 82.481 63.894 82.2965 63.692C79.9983 62.9582 75.3085 59.832 74.264 63.0284Z" fill="#EAC31F"/>
<path d="M80.6553 54.9586C82.9303 51.9313 84.5172 48.605 85.3424 45.134C84.8794 44.3923 84.4858 43.624 84.1649 42.8356L85.1743 40.4935C85.1697 38.1599 84.8225 35.4035 83.3517 33.9313C83.5756 33.5049 83.8019 33.5033 84.0258 33.0769C83.572 32.2327 84.0186 30.5303 83.2269 29.6896C83.675 28.6256 84.3535 28.6187 85.0302 27.9758C84.3447 25.6492 86.1459 22.6633 85.0102 20.3409C86.9283 19.2606 83.8727 16.9553 85.676 15.6652C86.3481 13.1135 85.5498 10.3614 84.3065 9.73727C84.6455 9.73469 85.5498 10.5752 86 9.50873C85.8852 9.29981 85.772 8.87525 85.6596 8.87525C85.6572 8.66475 86.2187 6.7507 85.6522 6.11878C85.4422 5.85946 85.2771 5.78084 85.0994 5.84056C83.6138 8.34457 79.5967 2.82563 77.5076 0.887653C77.36 0.59498 77.2411 0.293687 77.1007 -3.11544e-07C76.7384 1.19451 76.5735 2.42195 76.6103 3.65085C77.1745 3.22299 77.0664 5.34669 77.6271 4.28004C77.6271 4.06697 77.5144 3.85719 77.5123 3.64498L78.1871 2.1519C78.6433 3.42317 77.972 6.39786 79.104 7.23855C78.7687 8.72461 77.8669 9.15862 77.1909 10.0129C77.0843 12.3465 76.1875 15.1132 77.0957 17.0136C77.3271 19.3462 76.3114 19.7792 75.524 20.423C75.9765 21.4811 75.4187 23.3943 76.2084 23.8103C75.5367 25.7262 74.1823 26.3759 73.1687 27.2329C72.6073 28.7232 73.2855 28.7181 73.8528 29.7725C73.6341 32.7455 71.5919 29.1571 71.601 32.5522C71.3768 33.8259 72.2847 35.5149 72.9627 35.5089C72.2889 36.9992 73.0854 38.9014 72.2974 39.9705C74.4485 42.286 71.406 45.2813 73.3332 48.0223C73.1616 51.0681 74.2703 53.4368 74.9652 56.3079C76.9439 56.9814 78.96 56.5707 80.6553 54.9586Z" fill="#EAC31F"/>
</svg>
