<svg width="70" height="50" viewBox="0 0 70 50" fill="none" xmlns="http://www.w3.org/2000/svg">
<path d="M12.9731 43.0694C13.098 43.1461 13.2393 43.204 13.3902 43.2401C13.3029 43.5911 13.0467 43.7549 12.2409 43.9762C11.5218 43.845 9.87089 44.016 10.1433 43.6458L10.326 43.627C10.312 43.4922 10.0651 43.2933 9.75579 43.1399C9.6381 42.9865 9.52895 42.8787 9.38226 42.9261C9.33228 43.0706 9.30833 43.2201 9.31118 43.3701C9.30971 43.4748 9.27978 43.578 9.22353 43.6726C9.16728 43.7671 9.08606 43.8508 8.98543 43.9177C8.40359 44.033 7.74614 43.8955 7.67777 43.5774C7.36122 43.7888 7.01074 44.0002 6.62634 44.2117C6.57112 44.2065 6.51815 44.1912 6.47149 44.167C6.42483 44.1428 6.38574 44.1103 6.3573 44.0721C6.52665 43.7303 6.76437 43.4438 6.93111 43.152C7.0423 43.1473 7.15279 43.1351 7.26139 43.1154C7.55025 42.7967 8.19281 42.436 8.18388 42.18C7.80659 42.1768 7.78291 42.1367 7.5373 41.8824C7.67252 41.779 7.7737 41.6503 7.83184 41.508C7.84187 41.4794 7.84944 41.4504 7.8545 41.421L7.86007 41.3772L7.86253 41.3051C7.86382 41.1015 7.85748 40.8932 7.84751 40.6831C7.76594 39.8818 7.75339 39.0769 7.80996 38.2743C6.56186 36.9013 8.41381 34.0771 6.87674 33.0275C7.19407 30.7588 6.21371 30.5164 5.50551 29.3138C6.33322 27.5589 6.55977 31.6031 7.34918 30.6708C7.61783 28.1094 7.1674 25.3143 7.25622 22.6959C6.72319 22.037 6.13681 23.1745 6.00086 21.807C6.3305 22.2589 6.93344 21.7562 6.94031 21.2702C6.85486 21.8009 6.68033 21.2578 6.50075 21.1977L6.39161 21.5827C5.06854 21.858 6.52199 19.7428 5.86285 18.8353C6.30849 18.42 5.85598 19.3212 6.29386 19.3913C6.88955 19.3721 7.59245 18.9698 7.81851 17.7183C7.07664 15.2505 8.42172 13.5185 8.14983 10.7836C7.65615 10.9057 7.87367 10.1389 7.80233 9.69831C8.23437 10.2537 8.74086 9.16264 8.82696 8.63194C8.55274 7.9848 7.59582 7.88941 7.68749 6.87344L6.77277 7.55707C6.6635 7.94022 7.05813 9.32137 7.25454 10.0105C6.21371 10.4445 7.72348 13.4367 6.30577 13.1224L6.49156 12.6928C7.00634 11.1178 5.59458 10.3156 5.09767 8.83279C5.50318 7.63702 6.20776 7.23605 6.76319 6.43824C7.03444 5.47992 6.6499 5.2182 6.39821 4.71934C6.17707 3.88244 6.62359 3.46715 6.88956 2.99411C6.841 2.70148 6.65392 3.12811 6.60679 2.83425C6.75608 2.47765 6.83964 2.10553 6.85486 1.72962C5.97704 1.58704 5.98067 3.19198 5.70774 4.14968C5.58215 3.90102 5.40281 3.84283 5.43288 3.50376C5.38471 3.21112 5.56492 3.26944 5.64443 3.22361L5.54811 2.63464C5.29033 2.62094 4.79665 2.74309 4.75613 1.96395L5.2801 1.50273C5.45669 -0.0413445 4.22673 -0.785359 4.11978 1.20325L4.6611 1.37631L3.85851 3.28061C3.31033 3.59108 3.45689 2.38349 2.93939 2.35944C2.29656 2.08414 1.96292 3.72008 1.82335 4.44095C2.20024 5.18795 2.3468 3.98035 2.4329 3.45225L3.37402 4.51849C3.42281 4.81163 3.23508 5.24124 2.97668 5.22704C2.68627 5.55553 1.94181 5.17558 2.03659 5.76372C1.88342 7.4567 2.99351 5.85985 3.05061 7.27389C4.01426 6.88399 4.22776 4.51351 4.70421 3.75967L4.68842 3.12808C5.15736 2.85962 4.85334 4.15463 5.12694 3.19693C5.72496 4.78259 4.55545 7.05624 3.89217 8.23844C3.29609 8.25762 2.73379 9.54135 1.97224 8.53035C1.88601 9.06094 1.41746 9.32824 1.53527 10.0646C2.54372 12.058 1.31478 12.9204 1.59962 14.6846C1.73323 14.4478 1.96032 14.8017 2.14081 14.8563C1.76896 17.3184 -0.460269 14.0944 0.0858429 17.4766C0.181002 18.0636 0.486812 18.3716 0.800006 18.1919C0.987477 17.7642 1.43196 17.3488 1.23529 16.6583C1.49436 16.6701 1.48374 15.5542 2.01872 16.212C1.84018 17.7586 2.81406 18.4882 2.58956 19.7404L2.99778 20.1496C2.9895 20.6342 3.43837 21.8238 3.11896 22.4877C2.83283 24.4162 2.24141 22.3464 1.80289 22.2764L1.54718 23.8689C2.53052 25.7155 0.158235 26.9081 1.35311 28.4746L1.07034 28.3146C0.668591 27.4195 0.00505141 28.6017 0.0225303 29.2351L0.273317 29.733C1.42704 30.5195 0.694384 32.8646 1.03461 34.4366C1.00328 34.7738 0.769712 34.9091 0.722063 34.6151L0.231755 36.3409C1.33693 36.8344 0.265032 37.6055 0.431789 38.6338C0.887137 39.3393 1.35039 39.555 1.67251 40.496C1.57692 40.7769 1.50393 41.0625 1.45396 41.3509C1.40671 41.6959 1.38237 42.0312 1.37291 42.3545C1.35414 43.0021 1.39519 43.597 1.43221 44.1697C1.56901 45.4857 1.45586 46.8107 1.09662 48.0996C1.17552 48.0785 1.2601 48.0749 1.34132 48.0893C2.01936 47.8356 2.75644 47.6566 3.23238 47.4567C3.71673 47.2568 3.91547 47.0357 3.70663 46.6976C4.89945 46.8946 6.1091 47.1755 7.53794 47.4334C8.24473 47.5623 9.02013 47.6855 9.80783 47.7897C10.464 47.8938 11.1257 47.9788 11.8012 48.0315C11.9886 47.9279 12.1905 47.8349 12.3732 47.7279C13.0366 46.395 15.8632 43.6752 12.9731 43.0694Z" fill="#EAC31F"/>
<path d="M20.2687 46.7763C23.0059 48.0957 26.0135 49.016 29.1518 49.4946C29.8225 49.2261 30.5171 48.9978 31.23 48.8117L33.3476 49.3971C35.4576 49.3944 37.95 49.1931 39.2811 48.3401C39.6666 48.4699 39.668 48.6012 40.0536 48.731C40.8168 48.4678 42.3561 48.7269 43.1163 48.2677C44.0784 48.5276 44.0846 48.9211 44.6659 49.3136C46.7696 48.916 49.4693 49.9606 51.5692 49.3019C52.5459 50.4143 54.6303 48.6423 55.7969 49.6881C58.104 50.0779 60.5924 49.6149 61.1567 48.8938C61.1591 49.0904 60.3991 49.6149 61.3634 49.876C61.5523 49.8094 61.9361 49.7438 61.9361 49.6785C62.1265 49.6772 63.8571 50.0028 64.4285 49.6743C64.663 49.5525 64.734 49.4567 64.68 49.3537C62.416 48.4921 67.4061 46.1624 69.1583 44.9508C69.423 44.8652 69.6954 44.7962 69.9609 44.7148C68.8809 44.5047 67.7711 44.4091 66.6599 44.4304C67.0468 44.7576 65.1266 44.6949 66.091 45.0201C66.2837 45.0201 66.4734 44.9548 66.6652 44.9535L68.0152 45.3449C66.8658 45.6095 64.1761 45.2201 63.416 45.8766C62.0724 45.6822 61.6799 45.1592 60.9075 44.7671C58.7975 44.7053 56.296 44.1852 54.5776 44.7119C52.4686 44.8461 52.077 44.2571 51.4949 43.8004C50.5382 44.0628 48.8084 43.7393 48.4322 44.1973C46.6999 43.8077 46.1125 43.0223 45.3376 42.4345C43.9901 42.1089 43.9947 42.5022 43.0413 42.8312C40.3532 42.7044 43.5978 41.52 40.528 41.5253C39.3763 41.3953 37.8492 41.9218 37.8547 42.315C36.5071 41.9242 34.7872 42.3861 33.8206 41.9292C31.7269 43.1767 29.0186 41.4122 26.5403 42.5299C23.7864 42.4303 21.6447 43.0733 19.0486 43.4764C18.4397 44.6239 18.8111 45.7931 20.2687 46.7763Z" fill="#EAC31F"/>
</svg>
