<svg width="65" height="50" viewBox="0 0 65 50" fill="none" xmlns="http://www.w3.org/2000/svg">
<path d="M53.0938 43.0694C52.9796 43.1461 52.8503 43.204 52.7124 43.2401C52.7922 43.5911 53.0266 43.7549 53.7637 43.9762C54.4216 43.845 55.9318 44.016 55.6826 43.6458L55.5155 43.627C55.5283 43.4922 55.7541 43.2933 56.0371 43.1399C56.1447 42.9865 56.2446 42.8787 56.3788 42.9261C56.4245 43.0706 56.4464 43.2201 56.4438 43.3701C56.4452 43.4748 56.4725 43.578 56.524 43.6726C56.5755 43.7671 56.6498 43.8508 56.7418 43.9177C57.2741 44.033 57.8755 43.8955 57.9381 43.5774C58.2276 43.7888 58.5483 44.0002 58.8999 44.2117C58.9504 44.2065 58.9989 44.1912 59.0416 44.167C59.0842 44.1428 59.12 44.1103 59.146 44.0721C58.9911 43.7303 58.7736 43.4438 58.6211 43.152C58.5194 43.1473 58.4183 43.1351 58.319 43.1154C58.0547 42.7967 57.4669 42.436 57.4751 42.18C57.8202 42.1768 57.8419 42.1367 58.0666 41.8824C57.9429 41.779 57.8503 41.6503 57.7971 41.508C57.7879 41.4794 57.781 41.4504 57.7764 41.421L57.7713 41.3772L57.769 41.3051C57.7679 41.1015 57.7737 40.8932 57.7828 40.6831C57.8574 39.8818 57.8689 39.0769 57.8171 38.2743C58.9589 36.9013 57.2647 34.0771 58.6708 33.0275C58.3806 30.7588 59.2774 30.5164 59.9252 29.3138C59.1681 27.5589 58.9608 31.6031 58.2387 30.6708C57.9929 28.1094 58.4049 25.3143 58.3237 22.6959C58.8113 22.037 59.3477 23.1745 59.4721 21.807C59.1705 22.2589 58.619 21.7562 58.6127 21.2702C58.6909 21.8009 58.8505 21.2578 59.0148 21.1977L59.1146 21.5827C60.325 21.858 58.9954 19.7428 59.5984 18.8353C59.1907 18.42 59.6046 19.3212 59.2041 19.3913C58.6591 19.3721 58.0161 18.9698 57.8093 17.7183C58.488 15.2505 57.2575 13.5185 57.5062 10.7836C57.9578 10.9057 57.7589 10.1389 57.8241 9.69831C57.4289 10.2537 56.9655 9.16264 56.8868 8.63194C57.1376 7.9848 58.013 7.88941 57.9292 6.87344L58.766 7.55708C58.8659 7.94022 58.5049 9.32137 58.3252 10.0105C59.2774 10.4445 57.8962 13.4367 59.1932 13.1224L59.0232 12.6928C58.5523 11.1178 59.8438 10.3156 60.2983 8.8328C59.9274 7.63702 59.2828 7.23605 58.7747 6.43824C58.5266 5.47992 58.8784 5.2182 59.1086 4.71934C59.3109 3.88244 58.9024 3.46715 58.6591 2.99411C58.7035 2.70148 58.8747 3.12811 58.9178 2.83425C58.7812 2.47765 58.7048 2.10553 58.6909 1.72962C59.4939 1.58704 59.4906 3.19198 59.7402 4.14968C59.8551 3.90103 60.0192 3.84283 59.9917 3.50376C60.0358 3.21113 59.8709 3.26944 59.7982 3.22361L59.8863 2.63464C60.1221 2.62095 60.5737 2.7431 60.6108 1.96396L60.1315 1.50274C59.9699 -0.0413422 61.0951 -0.785356 61.1929 1.20325L60.6977 1.37631L61.4319 3.28061C61.9334 3.59108 61.7993 2.3835 62.2727 2.35944C62.8608 2.08414 63.166 3.72008 63.2937 4.44095C62.9489 5.18795 62.8148 3.98035 62.7361 3.45225L61.8751 4.51849C61.8305 4.81163 62.0022 5.24124 62.2386 5.22704C62.5043 5.55554 63.1853 5.17558 63.0986 5.76372C63.2387 7.4567 62.2232 5.85985 62.171 7.27389C61.2894 6.884 61.0941 4.51351 60.6583 3.75967L60.6727 3.12808C60.2437 2.85962 60.5219 4.15464 60.2716 3.19693C59.7245 4.78259 60.7944 7.05624 61.4011 8.23844C61.9464 8.25762 62.4608 9.54135 63.1575 8.53036C63.2364 9.06094 63.665 9.32824 63.5572 10.0646C62.6347 12.058 63.7589 12.9204 63.4984 14.6846C63.3761 14.4478 63.1684 14.8017 63.0033 14.8563C63.3434 17.3184 65.3827 14.0944 64.8832 17.4766C64.7961 18.0636 64.5164 18.3716 64.2298 18.1919C64.0583 17.7642 63.6517 17.3488 63.8316 16.6583C63.5946 16.6701 63.6044 15.5542 63.115 16.212C63.2783 17.7586 62.3874 18.4882 62.5928 19.7404L62.2193 20.1496C62.2269 20.6342 61.8163 21.8238 62.1085 22.4877C62.3702 24.4162 62.9112 22.3464 63.3124 22.2764L63.5463 23.8689C62.6468 25.7155 64.8169 26.9081 63.7239 28.4746L63.9825 28.3146C64.3501 27.4195 64.9571 28.6017 64.9411 29.2351L64.7117 29.733C63.6562 30.5195 64.3265 32.8646 64.0152 34.4366C64.0439 34.7738 64.2576 34.9091 64.3011 34.6151L64.7497 36.3409C63.7387 36.8344 64.7192 37.6055 64.5667 38.6338C64.1501 39.3393 63.7263 39.555 63.4317 40.496C63.5191 40.7769 63.5859 41.0625 63.6316 41.3509C63.6748 41.6959 63.6971 42.0312 63.7057 42.3545C63.7229 43.0021 63.6854 43.597 63.6515 44.1697C63.5264 45.4857 63.6299 46.8108 63.9585 48.0996C63.8863 48.0785 63.8089 48.0749 63.7346 48.0893C63.1144 47.8356 62.4401 47.6566 62.0047 47.4567C61.5616 47.2568 61.3798 47.0357 61.5709 46.6976C60.4797 46.8946 59.3731 47.1755 58.066 47.4334C57.4194 47.5623 56.7101 47.6855 55.9895 47.7897C55.3892 47.8938 54.7839 47.9788 54.166 48.0315C53.9945 47.9279 53.8098 47.8349 53.6427 47.7279C53.0358 46.395 50.45 43.6752 53.0938 43.0694Z" fill="#EAC31F"/>
<path d="M46.4194 46.7763C43.9154 48.0957 41.1641 49.016 38.2931 49.4946C37.6796 49.2261 37.0441 48.9978 36.392 48.8117L34.4548 49.3971C32.5246 49.3944 30.2446 49.1931 29.0269 48.3401C28.6742 48.4699 28.6729 48.6012 28.3202 48.731C27.622 48.4678 26.2138 48.7269 25.5184 48.2677C24.6383 48.5276 24.6326 48.9211 24.1008 49.3136C22.1764 48.916 19.7067 49.9606 17.7857 49.3019C16.8922 50.4143 14.9854 48.6423 13.9182 49.6881C11.8076 50.0779 9.53131 49.6149 9.01503 48.8938C9.01289 49.0904 9.70814 49.6149 8.826 49.876C8.65319 49.8094 8.30201 49.7438 8.30201 49.6785C8.1279 49.6772 6.54471 50.0028 6.02203 49.6743C5.80753 49.5525 5.74251 49.4567 5.7919 49.3537C7.86307 48.4921 3.29813 46.1624 1.69515 44.9508C1.45307 44.8652 1.20386 44.7962 0.960938 44.7148C1.94897 44.5047 2.96423 44.4091 3.9807 44.4304C3.6268 44.7576 5.3834 44.6949 4.50113 45.0201C4.32489 45.0201 4.15138 44.9548 3.97585 44.9535L2.74087 45.3449C3.79238 45.6095 6.25287 45.2201 6.94824 45.8766C8.17741 45.6822 8.5364 45.1592 9.24303 44.7671C11.1733 44.7053 13.4617 44.1852 15.0336 44.7119C16.963 44.8461 17.3212 44.2571 17.8537 43.8004C18.7288 44.0628 20.3113 43.7393 20.6554 44.1973C22.2401 43.8078 22.7775 43.0223 23.4864 42.4345C24.7191 42.1089 24.7148 42.5022 25.587 42.8312C28.0461 42.7044 25.078 41.52 27.8862 41.5253C28.9397 41.3953 30.3367 41.9218 30.3318 42.315C31.5645 41.9242 33.1379 42.3861 34.0221 41.9292C35.9374 43.1767 38.415 41.4122 40.6822 42.5299C43.2014 42.4303 45.1607 43.0733 47.5355 43.4764C48.0926 44.6239 47.7528 45.7931 46.4194 46.7763Z" fill="#EAC31F"/>
</svg>
