<svg width="64" height="50" viewBox="0 0 64 50" fill="none" xmlns="http://www.w3.org/2000/svg">
<path d="M11.8671 6.80659C11.9813 6.72983 12.1106 6.67199 12.2486 6.63592C12.1688 6.28492 11.9344 6.12109 11.1972 5.89981C10.5394 6.03098 9.02914 5.85999 9.27834 6.23017L9.44546 6.24894C9.43267 6.38374 9.2068 6.58271 8.92385 6.73608C8.81619 6.88944 8.71634 6.99729 8.58215 6.94989C8.53643 6.80536 8.51452 6.65584 8.51712 6.50589C8.51578 6.40115 8.4884 6.29795 8.43694 6.20339C8.38548 6.10883 8.31118 6.02519 8.21913 5.95829C7.68686 5.84298 7.08542 5.98048 7.02288 6.29861C6.7333 6.08717 6.41268 5.87575 6.06103 5.66432C6.01051 5.66947 5.96206 5.68473 5.91937 5.70894C5.87669 5.73314 5.84093 5.76564 5.81491 5.80389C5.96983 6.14566 6.1873 6.43216 6.33984 6.72395C6.44155 6.72864 6.54263 6.74089 6.64198 6.76055C6.90622 7.0793 7.49404 7.43994 7.48587 7.69596C7.14073 7.69917 7.11906 7.73928 6.89437 7.99355C7.01807 8.09701 7.11064 8.22564 7.16383 8.36799C7.173 8.39654 7.17992 8.4256 7.18455 8.45498L7.18965 8.49874L7.1919 8.57091C7.19308 8.77446 7.18728 8.98277 7.17816 9.19285C7.10353 9.99417 7.09206 10.799 7.14381 11.6017C6.00205 12.9747 7.69621 15.7989 6.29009 16.8484C6.58039 19.1172 5.68356 19.3595 5.03569 20.5622C5.79288 22.317 6.00013 18.2728 6.72228 19.2051C6.96804 21.7665 6.55599 24.5617 6.63724 27.1801C6.14963 27.8389 5.61321 26.7014 5.48884 28.0689C5.7904 27.617 6.34197 28.1197 6.34825 28.6057C6.27008 28.0751 6.11042 28.6182 5.94614 28.6782L5.8463 28.2933C4.63596 28.018 5.96557 30.1331 5.36259 31.0406C5.77026 31.4559 5.35631 30.5548 5.75687 30.4846C6.30182 30.5038 6.94483 30.9062 7.15163 32.1577C6.47296 34.6255 7.70344 36.3574 7.45472 39.0924C7.0031 38.9703 7.20208 39.7371 7.13682 40.1777C7.53205 39.6223 7.99539 40.7133 8.07416 41.244C7.8233 41.8912 6.94791 41.9866 7.03177 43.0025L6.19498 42.3189C6.09502 41.9358 6.45603 40.5546 6.6357 39.8654C5.68356 39.4315 7.06469 36.4393 5.76777 36.7535L5.93773 37.1831C6.40865 38.7582 5.11718 39.5604 4.66261 41.0432C5.03356 42.239 5.67811 42.6399 6.18622 43.4377C6.43436 44.3961 6.08259 44.6578 5.85234 45.1566C5.65004 45.9935 6.05852 46.4088 6.30182 46.8819C6.2574 47.1745 6.08626 46.7479 6.04314 47.0417C6.17971 47.3983 6.25616 47.7705 6.27008 48.1464C5.46705 48.2889 5.47037 46.684 5.2207 45.7263C5.10581 45.975 4.94174 46.0331 4.96925 46.3722C4.92519 46.6649 5.09004 46.6065 5.16278 46.6524L5.07466 47.2413C4.83884 47.255 4.38723 47.1329 4.35016 47.912L4.82949 48.3732C4.99104 49.9173 3.86587 50.6613 3.76803 48.6727L4.26322 48.4997L3.52901 46.5954C3.02754 46.2849 3.16161 47.4925 2.68821 47.5165C2.10015 47.7918 1.79493 46.1559 1.66725 45.435C2.01203 44.688 2.1461 45.8956 2.22487 46.4237L3.08581 45.3575C3.13044 45.0644 2.95871 44.6347 2.72232 44.6489C2.45665 44.3204 1.77562 44.7004 1.86232 44.1123C1.72221 42.4193 2.73772 44.0161 2.78995 42.6021C3.6715 42.992 3.8668 45.3625 4.30266 46.1163L4.28822 46.7479C4.71721 47.0164 4.43909 45.7213 4.68937 46.679C5.23645 45.0934 4.16658 42.8197 3.55981 41.6375C3.01452 41.6184 2.50012 40.3346 1.80346 41.3456C1.72457 40.815 1.29595 40.5477 1.40372 39.8114C2.32625 37.8179 1.20202 36.9556 1.46259 35.1914C1.58482 35.4281 1.79256 35.0743 1.95767 35.0197C1.6175 32.5576 -0.421802 35.7816 0.0777817 32.3994C0.164834 31.8124 0.44459 31.5044 0.731098 31.684C0.902597 32.1118 1.30921 32.5272 1.12929 33.2177C1.36629 33.2058 1.35658 34.3218 1.84598 33.664C1.68265 32.1174 2.57356 31.3878 2.36818 30.1356L2.74162 29.7264C2.73404 29.2418 3.14467 28.0522 2.85248 27.3883C2.59073 25.4598 2.04969 27.5296 1.64854 27.5996L1.41462 26.0071C2.31417 24.1604 0.144008 22.9679 1.23708 21.4014L0.978402 21.5614C0.610881 22.4565 0.00387478 21.2743 0.019865 20.6408L0.249284 20.143C1.30471 19.3565 0.634477 17.0114 0.945712 15.4393C0.917051 15.1021 0.703386 14.9669 0.659798 15.2609L0.211265 13.535C1.22228 13.0416 0.241706 12.2705 0.394256 11.2422C0.810808 10.5367 1.23459 10.321 1.52927 9.37999C1.44182 9.09905 1.37505 8.81348 1.32934 8.52505C1.28611 8.18007 1.26385 7.84473 1.2552 7.52152C1.23802 6.87386 1.27558 6.27898 1.30944 5.70629C1.43459 4.39026 1.33108 3.06523 1.00245 1.77637C1.07462 1.79749 1.152 1.80104 1.2263 1.78663C1.84657 2.04037 2.52085 2.21934 2.95624 2.41926C3.39932 2.61917 3.58113 2.84025 3.39008 3.17839C4.48127 2.98137 5.58786 2.70047 6.89497 2.44259C7.54154 2.3137 8.25087 2.19051 8.97146 2.0863C9.57171 1.98219 10.1771 1.89717 10.795 1.84449C10.9665 1.94808 11.1511 2.04109 11.3182 2.1481C11.9252 3.48098 14.5109 6.20082 11.8671 6.80659Z" fill="#EAC31F"/>
<path d="M18.5415 3.09966C21.0455 1.78029 23.7969 0.859956 26.6678 0.381378C27.2814 0.649868 27.9168 0.878132 28.5689 1.06429L30.5061 0.478849C32.4364 0.481546 34.7164 0.682914 35.934 1.53588C36.2867 1.40606 36.2881 1.27478 36.6408 1.14496C37.339 1.40813 38.7471 1.14911 39.4425 1.60826C40.3226 1.34841 40.3283 0.954896 40.8601 0.562424C42.7845 0.959963 45.2543 -0.084612 47.1753 0.574038C48.0688 -0.538367 49.9755 1.23372 51.0427 0.187889C53.1533 -0.201886 55.4296 0.261093 55.9459 0.982168C55.948 0.785569 55.2528 0.261093 56.1349 0C56.3077 0.0665708 56.6589 0.132209 56.6589 0.197429C56.833 0.19878 58.4162 -0.126812 58.9389 0.20168C59.1534 0.32352 59.2184 0.419228 59.169 0.522295C57.0979 1.38387 61.6628 3.71362 63.2658 4.92515C63.5079 5.0108 63.7571 5.07975 64 5.16115C63.012 5.37127 61.9967 5.46689 60.9802 5.44558C61.3341 5.11833 59.5775 5.18106 60.4598 4.85589C60.636 4.85589 60.8096 4.92121 60.9851 4.92246L62.2201 4.53112C61.1686 4.2665 58.7081 4.65586 58.0127 3.99937C56.7835 4.19379 56.4245 4.71681 55.7179 5.10887C53.7877 5.17066 51.4993 5.69078 49.9273 5.16403C47.998 5.02985 47.6398 5.61891 47.1073 6.07559C46.2321 5.81314 44.6496 6.13666 44.3056 5.67865C42.7208 6.06822 42.1835 6.85369 41.4746 7.44152C40.2419 7.76711 40.2461 7.37381 39.3739 7.04479C36.9149 7.17161 39.883 8.35597 37.0747 8.35069C36.0212 8.48071 34.6242 7.95417 34.6292 7.56097C33.3965 7.95179 31.8231 7.48984 30.9388 7.94681C29.0235 6.69929 26.546 8.46382 24.2788 7.34612C21.7595 7.44567 19.8003 6.80267 17.4254 6.39962C16.8684 5.25208 17.2081 4.08287 18.5415 3.09966Z" fill="#EAC31F"/>
</svg>
