<svg width="70" height="50" viewBox="0 0 70 50" fill="none" xmlns="http://www.w3.org/2000/svg">
<path d="M56.9878 6.80659C56.8629 6.72983 56.7216 6.67199 56.5708 6.63592C56.658 6.28492 56.9143 6.12109 57.7201 5.89981C58.4392 6.03098 60.0901 5.85999 59.8176 6.23017L59.635 6.24894C59.6489 6.38374 59.8958 6.58271 60.2052 6.73608C60.3228 6.88944 60.432 6.99729 60.5787 6.94989C60.6287 6.80536 60.6526 6.65584 60.6498 6.50589C60.6512 6.40115 60.6812 6.29795 60.7374 6.20339C60.7937 6.10883 60.8749 6.02519 60.9755 5.95829C61.5573 5.84298 62.2148 5.98048 62.2832 6.29861C62.5997 6.08717 62.9502 5.87575 63.3346 5.66432C63.3898 5.66947 63.4428 5.68473 63.4894 5.70894C63.5361 5.73314 63.5752 5.76564 63.6036 5.80389C63.4343 6.14566 63.1966 6.43216 63.0298 6.72395C62.9186 6.72864 62.8081 6.74089 62.6995 6.76055C62.4107 7.0793 61.7681 7.43994 61.7771 7.69596C62.1543 7.69917 62.178 7.73928 62.4236 7.99355C62.2884 8.09701 62.1872 8.22564 62.1291 8.36799C62.1191 8.39654 62.1115 8.4256 62.1064 8.45498L62.1009 8.49874L62.0984 8.57091C62.0971 8.77446 62.1035 8.98277 62.1134 9.19285C62.195 9.99417 62.2075 10.799 62.151 11.6017C63.3991 12.9747 61.5471 15.7989 63.0842 16.8484C62.7669 19.1172 63.7472 19.3595 64.4554 20.5622C63.6277 22.317 63.4012 18.2728 62.6118 19.2051C62.3431 21.7665 62.7935 24.5617 62.7047 27.1801C63.2378 27.8389 63.8241 26.7014 63.9601 28.0689C63.6304 27.617 63.0275 28.1197 63.0206 28.6057C63.1061 28.0751 63.2806 28.6182 63.4602 28.6782L63.5693 28.2933C64.8924 28.018 63.439 30.1331 64.0981 31.0406C63.6525 31.4559 64.105 30.5548 63.6671 30.4846C63.0714 30.5038 62.3685 30.9062 62.1424 32.1577C62.8843 34.6255 61.5392 36.3574 61.8111 39.0924C62.3048 38.9703 62.0873 39.7371 62.1586 40.1777C61.7266 39.6223 61.2201 40.7133 61.134 41.244C61.4082 41.8912 62.3651 41.9866 62.2735 43.0025L63.1882 42.3189C63.2974 41.9358 62.9028 40.5546 62.7064 39.8654C63.7472 39.4315 62.2375 36.4393 63.6552 36.7535L63.4694 37.1831C62.9546 38.7582 64.3664 39.5604 64.8633 41.0432C64.4578 42.239 63.7532 42.6399 63.1977 43.4377C62.9265 44.3961 63.311 44.6578 63.5627 45.1566C63.7839 45.9935 63.3373 46.4088 63.0714 46.8819C63.1199 47.1745 63.307 46.7479 63.3542 47.0417C63.2049 47.3983 63.1213 47.7705 63.1061 48.1464C63.9839 48.2889 63.9803 46.684 64.2532 45.7263C64.3788 45.975 64.5581 46.0331 64.5281 46.3722C64.5762 46.6649 64.396 46.6065 64.3165 46.6524L64.4128 47.2413C64.6706 47.255 65.1643 47.1329 65.2048 47.912L64.6808 48.3732C64.5042 49.9173 65.7342 50.6613 65.8412 48.6727L65.2998 48.4997L66.1024 46.5954C66.6506 46.2849 66.5041 47.4925 67.0216 47.5165C67.6644 47.7918 67.998 46.1559 68.1376 45.435C67.7607 44.688 67.6141 45.8956 67.528 46.4237L66.5869 45.3575C66.5381 45.0644 66.7259 44.6347 66.9843 44.6489C67.2747 44.3204 68.0191 44.7004 67.9244 44.1123C68.0775 42.4193 66.9674 44.0161 66.9103 42.6021C65.9467 42.992 65.7332 45.3625 65.2567 46.1163L65.2725 46.7479C64.8036 47.0164 65.1076 45.7213 64.834 46.679C64.236 45.0934 65.4055 42.8197 66.0688 41.6375C66.6648 41.6184 67.2272 40.3346 67.9887 41.3456C68.0749 40.815 68.5435 40.5477 68.4257 39.8114C67.4172 37.8179 68.6462 36.9556 68.3613 35.1914C68.2277 35.4281 68.0006 35.0743 67.8201 35.0197C68.192 32.5576 70.4212 35.7816 69.8751 32.3994C69.7799 31.8124 69.4741 31.5044 69.1609 31.684C68.9735 32.1118 68.529 32.5272 68.7257 33.2177C68.4666 33.2058 68.4772 34.3218 67.9422 33.664C68.1208 32.1174 67.1469 31.3878 67.3714 30.1356L66.9632 29.7264C66.9714 29.2418 66.5226 28.0522 66.842 27.3883C67.1281 25.4598 67.7195 27.5296 68.1581 27.5996L68.4138 26.0071C67.4304 24.1604 69.8027 22.9679 68.6078 21.4014L68.8906 21.5614C69.2923 22.4565 69.9559 21.2743 69.9384 20.6408L69.6876 20.143C68.5339 19.3565 69.2666 17.0114 68.9263 15.4393C68.9577 15.1021 69.1912 14.9669 69.2389 15.2609L69.7292 13.535C68.624 13.0416 69.6959 12.2705 69.5291 11.2422C69.0738 10.5367 68.6106 10.321 68.2884 9.37999C68.384 9.09905 68.457 8.81348 68.507 8.52505C68.5542 8.18007 68.5786 7.84473 68.588 7.52152C68.6068 6.87386 68.5657 6.27898 68.5287 5.70629C68.3919 4.39026 68.5051 3.06523 68.8643 1.77637C68.7854 1.79749 68.7008 1.80104 68.6196 1.78663C67.9416 2.04037 67.2045 2.21934 66.7286 2.41926C66.2442 2.61917 66.0455 2.84025 66.2543 3.17839C65.0615 2.98137 63.8518 2.70047 62.423 2.44259C61.7162 2.3137 60.9408 2.19051 60.1531 2.0863C59.4969 1.98219 58.8352 1.89717 58.1598 1.84449C57.9723 1.94808 57.7704 2.04109 57.5878 2.1481C56.9243 3.48098 54.0977 6.20082 56.9878 6.80659Z" fill="#EAC31F"/>
<path d="M49.6923 3.09966C46.955 1.78029 43.9475 0.859956 40.8091 0.381378C40.1384 0.649868 39.4438 0.878132 38.731 1.06429L36.6133 0.478849C34.5033 0.481546 32.011 0.682914 30.6799 1.53588C30.2943 1.40606 30.2929 1.27478 29.9073 1.14496C29.1441 1.40813 27.6048 1.14911 26.8447 1.60826C25.8826 1.34841 25.8764 0.954896 25.295 0.562424C23.1914 0.959963 20.4916 -0.084612 18.3917 0.574038C17.415 -0.538367 15.3306 1.23372 14.1641 0.187889C11.8569 -0.201886 9.36858 0.261093 8.80421 0.982168C8.80187 0.785569 9.56188 0.261093 8.59757 0C8.40867 0.0665708 8.02479 0.132209 8.02479 0.197429C7.83446 0.19878 6.10382 -0.126812 5.53246 0.20168C5.29798 0.32352 5.2269 0.419228 5.28089 0.522295C7.54497 1.38387 2.55487 3.71362 0.802595 4.92515C0.537968 5.0108 0.265545 5.07975 0 5.16115C1.08005 5.37127 2.18987 5.46689 3.30101 5.44558C2.91415 5.11833 4.83435 5.18106 3.86991 4.85589C3.67726 4.85589 3.48758 4.92121 3.2957 4.92246L1.9457 4.53112C3.09515 4.2665 5.7848 4.65586 6.54493 3.99937C7.88858 4.19379 8.28101 4.71681 9.05344 5.10887C11.1634 5.17066 13.665 5.69078 15.3833 5.16403C17.4924 5.02985 17.8839 5.61891 18.466 6.07559C19.4227 5.81314 21.1526 6.13666 21.5287 5.67865C23.261 6.06822 23.8484 6.85369 24.6233 7.44152C25.9709 7.76711 25.9662 7.37381 26.9196 7.04479C29.6077 7.17161 26.3632 8.35597 29.4329 8.35069C30.5846 8.48071 32.1117 7.95417 32.1063 7.56097C33.4538 7.95179 35.1737 7.48984 36.1404 7.94681C38.234 6.69929 40.9423 8.46382 43.4207 7.34612C46.1745 7.44567 48.3163 6.80267 50.9123 6.39962C51.5212 5.25208 51.1499 4.08287 49.6923 3.09966Z" fill="#EAC31F"/>
</svg>
