<svg width="97" height="69" viewBox="0 0 97 69" fill="none" xmlns="http://www.w3.org/2000/svg">
<path d="M78.6969 9.39959C78.5244 9.29359 78.3293 9.21371 78.121 9.1639C78.2415 8.67918 78.5953 8.45294 79.7081 8.14737C80.7012 8.32851 82.9809 8.09238 82.6047 8.60358L82.3525 8.6295C82.3718 8.81565 82.7127 9.09042 83.1399 9.30222C83.3024 9.514 83.4531 9.66293 83.6557 9.59748C83.7247 9.39789 83.7578 9.19142 83.7538 8.98433C83.7559 8.8397 83.7972 8.69718 83.8749 8.5666C83.9526 8.43602 84.0647 8.32051 84.2037 8.22813C85.0072 8.0689 85.9151 8.25877 86.0095 8.69809C86.4466 8.40611 86.9306 8.11414 87.4615 7.82218C87.5377 7.82928 87.6109 7.85036 87.6753 7.88379C87.7397 7.91721 87.7937 7.96209 87.833 8.01491C87.5991 8.48688 87.2708 8.88252 87.0406 9.28547C86.887 9.29195 86.7344 9.30886 86.5845 9.33601C86.1856 9.77619 85.2982 10.2742 85.3106 10.6278C85.8316 10.6322 85.8643 10.6876 86.2035 11.0387C86.0167 11.1816 85.877 11.3592 85.7967 11.5558C85.7829 11.5952 85.7724 11.6354 85.7654 11.6759L85.7577 11.7364L85.7543 11.836C85.7526 12.1171 85.7613 12.4048 85.7751 12.6949C85.8877 13.8015 85.9051 14.9129 85.8269 16.0214C87.5505 17.9174 84.993 21.8174 87.1157 23.2668C86.6775 26.3999 88.0313 26.7345 89.0093 28.3953C87.8662 30.8187 87.5534 25.2339 86.4633 26.5213C86.0923 30.0585 86.7143 33.9184 86.5916 37.5343C87.3277 38.4441 88.1375 36.8733 88.3252 38.7617C87.87 38.1377 87.0374 38.8319 87.0279 39.503C87.1459 38.7702 87.3869 39.5202 87.6349 39.6031L87.7856 39.0716C89.6127 38.6914 87.6056 41.6123 88.5158 42.8655C87.9004 43.439 88.5253 42.1945 87.9206 42.0977C87.098 42.1242 86.1273 42.6798 85.8151 44.4081C86.8396 47.8159 84.9821 50.2077 85.3576 53.9846C86.0393 53.8159 85.739 54.8748 85.8375 55.4832C85.2409 54.7163 84.5414 56.2229 84.4225 56.9558C84.8012 57.8495 86.1227 57.9812 85.9961 59.3842L87.2592 58.4401C87.4101 57.911 86.8652 56.0037 86.594 55.0521C88.0313 54.4528 85.9464 50.3207 87.9041 50.7547L87.6476 51.3479C86.9367 53.523 88.8863 54.6308 89.5725 56.6784C89.0125 58.3297 88.0395 58.8835 87.2725 59.9852C86.8979 61.3086 87.4289 61.67 87.7765 62.3589C88.0819 63.5146 87.4652 64.0881 87.098 64.7413C87.165 65.1455 87.4234 64.5563 87.4885 64.9621C87.2823 65.4545 87.1669 65.9684 87.1459 66.4875C88.3581 66.6844 88.3531 64.4681 88.73 63.1456C88.9034 63.4889 89.1511 63.5693 89.1096 64.0375C89.1761 64.4417 88.9272 64.3611 88.8174 64.4244L88.9504 65.2378C89.3064 65.2567 89.9882 65.088 90.0441 66.1639L89.3205 66.8008C89.0767 68.9331 90.7752 69.9606 90.9229 67.2144L90.1753 66.9754L91.2837 64.3457C92.0407 63.917 91.8383 65.5846 92.5529 65.6178C93.4406 65.998 93.9014 63.7388 94.0941 62.7433C93.5737 61.7118 93.3713 63.3794 93.2524 64.1087L91.9527 62.6363C91.8854 62.2315 92.1446 61.6382 92.5014 61.6578C92.9025 61.2042 93.9305 61.7289 93.7997 60.9167C94.0112 58.5788 92.4782 60.7839 92.3993 58.8312C91.0686 59.3696 90.7738 62.6431 90.1158 63.6841L90.1376 64.5563C89.49 64.9271 89.9099 63.1387 89.5321 64.4613C88.7062 62.2716 90.3212 59.1318 91.2372 57.4992C92.0603 57.4727 92.8369 55.7 93.8885 57.0961C94.0076 56.3634 94.6546 55.9943 94.4919 54.9775C93.0993 52.2246 94.7964 51.0337 94.4031 48.5975C94.2186 48.9244 93.905 48.4357 93.6557 48.3604C94.1692 44.9603 97.2477 49.4125 96.4935 44.7418C96.3621 43.9312 95.9398 43.5058 95.5073 43.754C95.2484 44.3447 94.6346 44.9183 94.9062 45.8718C94.5484 45.8555 94.5631 47.3965 93.8243 46.4882C94.0709 44.3524 92.726 43.3449 93.036 41.6157L92.4723 41.0506C92.4837 40.3813 91.8639 38.7386 92.3049 37.8218C92.7001 35.1587 93.5168 38.0169 94.1224 38.1136L94.4755 35.9144C93.1176 33.3643 96.3936 31.7175 94.7435 29.5542L95.134 29.7752C95.6888 31.0112 96.6051 29.3787 96.581 28.5039L96.2346 27.8164C94.6414 26.7303 95.6532 23.4919 95.1833 21.3209C95.2266 20.8553 95.5491 20.6685 95.6149 21.0745L96.292 18.6912C94.7658 18.0097 96.2461 16.945 96.0158 15.5249C95.387 14.5506 94.7473 14.2528 94.3024 12.9533C94.4344 12.5653 94.5352 12.171 94.6042 11.7727C94.6695 11.2963 94.7031 10.8332 94.7161 10.3869C94.7421 9.49249 94.6854 8.67099 94.6343 7.88013C94.4453 6.06277 94.6016 4.23297 95.0977 2.45312C94.9887 2.4823 94.8719 2.4872 94.7598 2.4673C93.8234 2.81769 92.8056 3.06484 92.1483 3.34092C91.4795 3.61699 91.205 3.92229 91.4934 4.38924C89.8462 4.11717 88.1757 3.72926 86.2026 3.37314C85.2265 3.19515 84.1558 3.02504 83.068 2.88113C82.1619 2.73736 81.2481 2.61994 80.3153 2.5472C80.0564 2.69025 79.7777 2.8187 79.5254 2.96647C78.6092 4.8071 74.7059 8.56306 78.6969 9.39959Z" fill="#EAC31F"/>
<path d="M68.6223 4.28046C64.8423 2.45848 60.689 1.18755 56.3551 0.526663C55.429 0.897431 54.4697 1.21265 53.4853 1.46973L50.561 0.661264C47.6472 0.664988 44.2054 0.943067 42.3672 2.12097C41.8348 1.94169 41.8328 1.76041 41.3004 1.58113C40.2464 1.94456 38.1207 1.58686 37.071 2.22092C35.7424 1.86207 35.7338 1.31866 34.931 0.776677C32.026 1.32566 28.2978 -0.116844 25.398 0.792714C24.0491 -0.743456 21.1707 1.7037 19.5598 0.259465C16.3737 -0.278793 12.9375 0.360555 12.1581 1.35632C12.1549 1.08483 13.2044 0.360555 11.8728 0C11.6119 0.0919307 11.0818 0.182573 11.0818 0.272639C10.819 0.274504 8.42904 -0.17512 7.64002 0.27851C7.31622 0.446764 7.21806 0.578931 7.29262 0.721261C10.4192 1.91105 3.52813 5.1283 1.10834 6.80136C0.742904 6.91964 0.366703 7.01486 0 7.12727C1.49149 7.41742 3.02409 7.54948 4.55852 7.52005C4.02428 7.06813 6.67597 7.15477 5.34413 6.70571C5.07809 6.70571 4.81616 6.79592 4.55119 6.79764L2.68691 6.25723C4.27423 5.8918 7.98849 6.42948 9.03818 5.5229C10.8937 5.79139 11.4356 6.51365 12.5023 7.05507C15.4161 7.1404 18.8706 7.85866 21.2435 7.13124C24.156 6.94595 24.6967 7.7594 25.5006 8.39005C26.8217 8.02763 29.2105 8.47439 29.7299 7.84191C32.1222 8.37989 32.9334 9.46457 34.0035 10.2763C35.8643 10.726 35.8579 10.1828 37.1745 9.72847C40.8866 9.9036 36.4061 11.5391 40.6453 11.5318C42.2356 11.7114 44.3445 10.9843 44.337 10.4413C46.1979 10.981 48.573 10.3431 49.9078 10.9741C52.7991 9.25136 56.5391 11.6881 59.9616 10.1446C63.7645 10.2821 66.7221 9.39411 70.3071 8.83753C71.148 7.25284 70.6352 5.63822 68.6223 4.28046Z" fill="#EAC31F"/>
</svg>
