<svg width="350" height="136" viewBox="0 0 350 136" fill="none" xmlns="http://www.w3.org/2000/svg">
<path d="M280.421 129.249C281.195 130.133 282.144 130.845 283.208 131.343C284.272 131.84 285.427 132.112 286.601 132.14C288.113 132.469 289.471 133.295 290.461 134.485C287.208 136.927 283.524 135.766 280.467 135.424C271.144 134.383 261.939 132.394 252.56 131.549C246.998 131.049 241.518 129.586 235.955 129.173C230.673 128.781 225.438 128.142 220.185 127.541C211.138 126.507 202.065 125.703 193.001 124.815C192.322 124.748 191.633 124.767 190.949 124.765C179.748 124.725 168.637 123.188 157.464 122.76C150.819 122.505 144.157 122.709 137.502 122.708C127.503 122.707 117.491 122.384 107.508 122.795C96.5775 123.244 85.6302 122.937 74.7287 123.524C64.9325 124.051 55.1474 123.733 45.3707 124.131C38.4884 124.553 31.5814 124.295 24.7496 123.361C23.9199 123.364 23.0998 123.182 22.349 122.829C21.5982 122.475 20.9354 121.959 20.4087 121.317C23.1906 117.635 27.6646 120.134 30.7774 118.155C26.9967 117.152 24.2546 114.006 20.444 112.302C23.7704 109.946 27.7344 110.106 31.7201 107.63C29.0864 107.63 27.349 107.522 25.6315 107.662C24.0703 107.789 23.5761 106.709 23.4369 105.676C23.291 104.594 24.2795 104.214 25.3014 104.216C27.144 104.22 28.9866 104.217 31.1792 104.217C28.2763 102.076 22.6132 103.781 24.0014 97.4536C24.4452 97.1794 25.606 97.2609 26.3958 95.9172C24.3621 96.4028 22.6329 96.9512 20.8616 97.1999C19.15 97.4403 17.2419 97.5867 17.3108 94.7209C16.6098 94.1785 15.215 95.2191 14.2877 93.7411C15.8372 92.956 17.5342 92.5051 19.2688 92.4177C18.2475 90.2994 16.4749 90.5751 14.4923 90.3892C16.2656 87.6912 13.869 85.1852 14.2025 82.5757C10.766 80.8428 10.1037 77.6793 10.6569 73.9563C5.8793 71.4691 12.3211 67.4628 9.54928 64.7251C7.79639 64.1138 6.6268 66.731 4.68925 65.2915L8.30706 62.0677C6.69549 61.5781 5.15131 61.7794 4.15457 60.3641C4.00105 59.6839 5.06647 59.372 5.23988 58.5896C4.28199 57.9828 3.57014 58.9547 2.74982 59.1119C1.68063 59.3166 0.65442 59.4227 0.180165 58.531C-0.396936 57.4459 0.518922 56.8783 1.42277 56.1848C6.58064 52.2265 12.7739 50.503 18.6273 48.0914C27.8938 44.2738 37.2415 40.6479 46.6102 37.0868C54.1104 34.236 61.6872 31.5859 69.2405 28.8759C79.3896 25.235 89.4902 21.4468 99.7167 18.0369C116.404 12.4727 133.055 6.75972 150.119 2.41755C154.22 1.37412 158.442 0.793619 162.626 0.103258C163.693 -0.0727129 164.951 -0.19724 165.617 1.25954C165.571 2.80966 163.543 3.15804 163.271 4.77333C171.087 3.23391 178.348 -1.81778 186.882 1.55327C183.289 2.61717 178.703 1.10703 176.186 5.3923C177.563 5.52546 178.76 5.64117 180.357 5.79573C178.728 7.90832 176.239 8.00858 174.349 9.86144C176.475 9.71533 178.349 9.23813 179.811 10.6748C178.855 13.5198 176.328 14.9556 173.72 17.0877C178 17.3435 181.357 13.6754 185.238 15.7434C185.188 17.3007 183.481 17.5987 183.215 19.0934C186.745 19.7066 190.111 18.5447 193.516 18.3129C199.989 17.723 206.516 18.2892 212.792 19.9852C216.017 20.7783 219.027 22.2731 221.609 24.363C223.693 26.1546 227.186 24.4276 229.807 23.8544C235.221 22.8405 240.71 22.283 246.217 22.1877C254.143 21.8061 262.099 21.3009 270.04 21.3846C276.396 21.4518 282.793 20.9335 289.119 22.0078C290.411 22.2271 291.677 22.5954 293.035 22.9137C292.167 26.438 288.575 24.3204 286.673 25.9802C290.46 27.7574 293.858 29.9353 297.854 28.1314C301.814 26.3433 305.902 28.1773 309.855 27.4493C314.15 26.584 318.535 26.2524 322.91 26.4621C329.37 26.9149 335.934 25.4318 342.324 27.4129C343.326 27.663 344.215 28.2409 344.852 29.0548C344.151 31.0668 342.454 30.8498 340.792 30.9417C339.697 31.0022 338.254 30.1941 337.936 32.558C337.643 34.743 338.863 35.2781 340.174 35.6079C340.697 35.6932 341.196 35.8875 341.64 36.1782C342.083 36.4688 342.46 36.8494 342.747 37.2953C340.739 39.5769 337.482 37.3942 335.457 39.455C337.276 40.6563 335.575 41.0263 334.697 41.586C337.275 42.842 340.493 41.9308 342.884 44.034C340.939 45.5696 338.766 45.1741 336.676 45.4181C338.046 47.6028 341.072 45.7663 342.364 48.0811C342.406 50.2996 339.795 51.6031 340.052 53.9894C342.026 54.9503 342.36 52.0216 344.054 52.2621C343.226 55.3226 342.872 55.5802 332.648 60.5936C335 62.1443 335 62.1443 345.175 60.7925C344.125 62.6474 342.562 64.1599 340.674 65.1486C341.559 69.6867 341.512 69.5832 346.001 67.5384C347.071 67.051 348.804 65.4229 350 68.1249C344.24 73.8891 336.653 75.7033 328.512 77.8065C332.473 78.9939 336.468 77.4669 339.349 80.474C338.704 81.3479 337.579 81.4602 336.633 81.9017C338.345 83.6242 340.963 80.9413 342.495 83.3992C341.196 84.8361 338.707 84.3388 337.058 86.0196C339.538 87.1181 342.434 85.2815 344.654 87.7384C342.114 89.4398 339.143 90.3841 336.087 90.4613C325.322 91.1688 314.692 92.7756 304.041 94.4294C299.115 95.1941 294.234 96.1301 289.061 96.7516C290.474 98.3288 291.64 99.6302 292.797 100.922C290.728 103.332 288.251 102.613 285.845 101.973C281.366 100.544 276.722 99.6989 272.027 99.4599C269.966 99.5396 267.927 99.9041 265.966 100.543C274.002 103.835 283.089 103.448 291.165 107.376C289.65 109.858 287.564 109.042 285.701 108.728C279.327 107.655 273.091 105.716 266.519 105.793C274.4 107.819 282.633 108.387 290.309 111.447C287.157 116.216 286.334 116.686 281.82 115.027C279.695 114.523 277.491 114.447 275.337 114.804C279.12 115.673 282.912 116.506 286.678 117.441C287.399 117.734 288.075 118.125 288.687 118.605C287.31 120.533 285.792 120.45 283.611 120.078C273.329 118.322 263.112 116.108 252.532 116.426C247.42 116.58 242.27 115.51 237.101 115.873C236.72 115.949 236.347 116.059 235.987 116.204C253.57 119.083 271.251 119.908 288.547 125.476C285.55 126.626 284.706 131.339 280.385 129.285C273.559 127.406 266.572 126.172 259.516 125.6C262.659 127.026 266.041 127.852 269.487 128.037C273.136 128.394 276.622 130.41 280.421 129.249ZM283.069 29.4348C260.52 30.8202 238.449 35.6911 215.296 39.0715C218.761 40.8237 274.395 32.8601 283.069 29.4348ZM180.589 26.3193C184.919 25.3363 188.622 26.7902 192.307 26.694C196.17 26.5932 200.02 25.0342 203.969 25.7409C208.018 26.4281 212.17 26.1922 216.115 25.0507C211.093 21.3411 185.342 22.0145 180.589 26.3193ZM270.654 25.3037C264.992 24.1209 231.595 26.491 226.868 28.4533C234.687 28.6464 241.75 26.6395 248.935 26.8192C256.222 27.0014 263.396 25.6983 270.654 25.3037ZM302.597 87.1323C310.058 86.0074 317.519 84.8826 324.98 83.7579L324.829 82.8551C317.173 82.3249 309.511 83.799 302.597 87.1323ZM16.6166 70.8324C22.8452 67.4884 30.0344 66.5809 36.1583 63.1246C35.4286 61.2331 34.2348 60.9172 33.0074 62.0155C30.3484 64.3948 26.965 65.182 23.8211 66.4878C21.097 67.3163 18.6213 68.8093 16.6166 70.8324ZM159.796 15.4472C164.546 16.1684 171.278 13.3433 173.55 9.60359C168.925 11.6869 163.762 11.9753 159.796 15.4472ZM152.652 22.4215L152.331 21.463C148.478 22.8026 144.625 24.1422 140.771 25.4819C140.852 25.723 140.932 25.9643 141.013 26.2055C144.893 24.9443 148.773 23.6829 152.652 22.4215ZM63.5661 50.5948C66.8778 50.1233 70.0133 48.8096 72.6728 46.7794C69.3687 47.2783 66.2398 48.5893 63.5661 50.5948Z" fill="#FAE465"/>
</svg>
