<svg width="187" height="55" viewBox="0 0 187 55" fill="none" xmlns="http://www.w3.org/2000/svg">
<path d="M185.388 46.0206C178.879 45.8822 172.372 45.9269 165.865 45.9918C166.022 45.78 166.171 45.5648 166.299 45.3462C168.045 42.3776 168.129 38.8417 168.102 35.5672C168.07 31.5949 167.73 27.6266 167.448 23.6547C167.308 21.6833 167.188 19.7108 167.153 17.7395C167.146 17.3611 167.162 16.9833 167.162 16.605C167.377 15.5366 167.59 14.4681 167.803 13.3995C169.998 13.324 172.19 13.2105 174.375 13.025C176.033 12.8843 177.114 9.60271 175.021 9.57327C172.731 9.54113 170.444 9.55298 168.158 9.57512C168.277 9.3539 168.549 8.98987 168.167 9.51491C168.322 9.30116 168.462 9.05976 168.6 8.8364L168.608 8.8303C168.719 8.73158 168.823 8.62819 168.921 8.52057C168.933 8.51439 168.938 8.51287 168.952 8.50525C169.057 8.44952 169.158 8.37615 169.256 8.31177L169.271 8.301C169.283 8.2971 169.286 8.29669 169.301 8.29148C169.448 8.23964 169.595 8.18426 169.742 8.13107C170.273 8.09286 170.805 8.05517 171.335 8.00858C173.2 7.84415 174.446 4.27873 172.063 4.11803C171.32 4.06688 170.578 4.13868 169.882 4.32901C165.444 4.80181 160.97 5.0843 156.478 5.17529C151.24 5.23237 145.998 5.08461 140.755 4.87833C130.277 4.46605 119.807 3.74992 109.326 3.48092C87.5664 2.92237 65.8268 3.3601 44.0727 3.04564C38.3505 2.96291 32.6661 2.91485 26.9542 3.04324C22.7627 3.21485 18.5491 3.13317 14.3487 2.79892C14.383 2.6381 14.4108 2.4767 14.4463 2.31603C14.5887 1.67103 14.354 0.625026 13.3142 0.627309C12.2816 0.629545 11.7033 1.75878 11.5334 2.43226C11.0532 2.35669 10.5726 2.28406 10.0946 2.19198C8.41123 1.86771 7.22977 4.95227 8.83411 5.26951C9.50811 5.40281 10.1845 5.51806 10.8621 5.62298C10.7955 5.96913 10.7451 6.3177 10.6834 6.66462C10.5204 6.58935 10.3365 6.55147 10.1522 6.55519C9.96797 6.5589 9.79067 6.6041 9.64001 6.68569C9.26217 6.9025 8.95997 7.19348 8.76021 7.53283C8.56045 7.87219 8.46926 8.2494 8.49482 8.63103C8.50243 8.69608 8.50478 8.76061 8.51207 8.82563C7.7225 8.7565 6.93389 8.67853 6.14716 8.58289C6.11405 8.38662 5.99971 8.20277 5.82283 8.06164C5.64595 7.9205 5.41706 7.83047 5.17407 7.80643C4.03515 7.6871 2.8869 7.72718 1.77986 7.92486C1.38768 8.02069 1.03984 8.20308 0.774558 8.45206C0.509281 8.70105 0.33673 9.00698 0.275932 9.33631C0.149935 9.7831 0.0691613 10.8244 0.872727 10.9786C3.47599 11.4663 6.10984 11.8151 8.75679 12.0228C8.77425 12.345 8.79432 12.6661 8.81117 12.9893C8.81848 13.126 8.84921 13.2619 8.90245 13.3932C8.86935 24.0151 2.75965 33.9161 1.48543 44.4366C1.42625 44.9248 1.43562 45.9258 2.24948 46.1026C4.84848 46.5884 7.51167 46.7323 10.135 46.5285C12.9119 46.3962 15.6553 46.2602 18.4461 46.2747C24.3483 46.3052 30.2549 46.49 36.1589 46.7461C48.1312 47.2655 60.0961 48.035 72.0703 48.49C96.0351 49.4006 120.005 50.0406 143.96 50.1838C148.694 50.2121 153.445 50.2575 158.196 50.2713C158.007 51.123 157.782 51.969 157.494 52.8054C157.297 53.3775 157.132 54.3359 157.917 54.7186C158.658 55.0795 159.461 54.4578 159.756 53.9571C160.433 52.78 160.957 51.5454 161.32 50.2725C169.141 50.2667 176.958 50.1432 184.707 49.6582C186.478 49.5474 187.581 46.0673 185.388 46.0206ZM162.472 43.8916C162.836 40.4033 163.312 36.9489 163.917 33.489C164.073 32.5949 164.243 31.7028 164.406 30.8096C164.421 31.0194 164.438 31.2293 164.452 31.4391C164.58 33.3588 164.71 35.2843 164.698 37.2031C164.693 38.0256 164.663 38.8468 164.608 39.6667C164.599 39.7612 164.588 39.8983 164.581 39.968C164.561 40.1581 164.539 40.348 164.514 40.5377C164.468 40.8986 164.412 41.2585 164.343 41.6164C164.279 41.945 164.187 42.2681 164.116 42.595C164.11 42.6104 164.107 42.6156 164.1 42.6344C164.046 42.7769 163.999 42.9213 163.942 43.0632C163.89 43.1911 163.831 43.3163 163.776 43.443C163.702 43.545 163.635 43.65 163.575 43.7578C163.571 43.7658 163.571 43.7672 163.567 43.7744C163.515 43.8221 163.467 43.8739 163.42 43.9262C163.418 43.9332 163.415 43.9401 163.412 43.9468C163.394 43.9738 163.369 43.9971 163.338 44.015C163.25 44.1183 163.258 44.097 163.298 44.0398C163.226 44.0828 163.142 44.1237 163.102 44.1481C163.546 43.8751 162.973 44.1694 162.929 44.1809C162.765 44.2215 162.598 44.2535 162.429 44.277C162.443 44.1485 162.459 44.0198 162.472 43.8916ZM13.7428 5.98863C21.9072 6.8272 30.272 6.05566 38.4189 6.25272C49.4784 6.52016 60.5336 6.58657 71.5871 6.64085C82.5662 6.69484 93.5458 6.72721 104.53 6.92344C115.075 7.11182 125.618 7.76741 136.162 8.17796C142.001 8.40534 147.843 8.54658 153.677 8.52274C157.533 8.50698 161.442 8.50783 165.319 8.36672C165.228 8.54975 165.142 8.73316 165.065 8.91664C164.968 9.14483 164.893 9.37923 164.81 9.61112C162.536 9.64135 160.263 9.67355 157.988 9.68354C152.414 9.70821 146.836 9.66035 141.258 9.58082C129.946 9.41951 118.63 9.12131 107.319 8.99798C84.2676 8.74657 61.2489 9.13778 38.2071 9.08902C32.1581 9.0762 26.1211 9.1568 20.0755 9.19555C17.8141 9.21004 15.5451 9.19923 13.2785 9.11973C13.417 8.07466 13.5664 7.03046 13.7428 5.98863ZM32.7518 12.4365C44.2244 12.5862 55.692 12.6033 67.1583 12.5926C78.7086 12.5818 90.257 12.5258 101.812 12.6121C113.217 12.6972 124.623 12.9925 136.031 13.2423C142.36 13.3808 148.689 13.4924 155.014 13.5178C157.985 13.5297 160.956 13.539 163.921 13.4958C163.789 14.5869 163.736 15.6889 163.716 16.7855C162.621 22.2291 161.526 27.673 160.56 33.1367C159.955 36.5584 159.417 39.9705 159.118 43.4284C159.091 43.7356 159.064 44.0427 159.036 44.3498C156.059 44.2658 153.1 44.0288 150.12 43.9725C145.222 43.8802 140.323 43.68 135.426 43.4294C125.561 42.9245 115.704 42.2247 105.837 41.7597C96.1416 41.3026 86.4426 40.9445 76.7462 40.7478C57.4389 40.3558 37.9581 40.3632 18.8143 41.9167C16.4102 42.1118 14.0169 42.3529 11.626 42.6154C11.5393 42.6272 11.4549 42.6467 11.3741 42.6735C12.2276 32.5701 11.8904 22.3725 12.9075 12.2942C19.5173 12.5857 26.1671 12.3505 32.7518 12.4365ZM4.67521 42.7623C5.49005 37.9645 7.20269 33.2468 8.75595 28.514C8.64729 33.3248 8.66065 38.1375 8.64785 42.9201C7.32574 42.9784 5.99437 42.9255 4.67521 42.7623Z" fill="#FAE465"/>
</svg>
