<svg width="249" height="77" viewBox="0 0 249 77" fill="none" xmlns="http://www.w3.org/2000/svg">
<path d="M199.499 73.1779C200.05 73.678 200.725 74.0816 201.482 74.3633C202.239 74.6449 203.061 74.7986 203.896 74.8144C204.972 75.0009 205.938 75.4682 206.642 76.1422C204.328 77.5249 201.707 76.8673 199.532 76.674C192.9 76.0843 186.351 74.9586 179.678 74.4802C175.722 74.1966 171.823 73.3683 167.865 73.1347C164.107 72.9129 160.383 72.551 156.646 72.2108C150.21 71.6251 143.755 71.1701 137.306 70.6671C136.823 70.6294 136.333 70.6402 135.846 70.6389C127.878 70.6161 119.973 69.7462 112.024 69.5038C107.297 69.3597 102.557 69.4748 97.8232 69.4744C90.7094 69.4738 83.5862 69.2912 76.4844 69.5235C68.708 69.7779 60.9198 69.6038 53.1641 69.9363C46.1948 70.235 39.2335 70.0545 32.278 70.2803C27.3818 70.5188 22.4679 70.3727 17.6076 69.8441C17.0173 69.8458 16.4339 69.7429 15.8997 69.5427C15.3655 69.3425 14.894 69.0502 14.5194 68.6869C16.4985 66.6022 19.6814 68.0171 21.8959 66.8965C19.2062 66.3289 17.2554 64.5475 14.5445 63.5826C16.9109 62.2489 19.7311 62.3395 22.5666 60.9374C20.6929 60.9374 19.4568 60.8763 18.235 60.9555C17.1243 61.0273 16.7727 60.416 16.6737 59.831C16.5699 59.2189 17.2732 59.0035 18.0002 59.0047C19.311 59.007 20.6219 59.0054 22.1818 59.0054C20.1165 57.793 16.0877 58.7586 17.0753 55.1759C17.391 55.0207 18.2169 55.0668 18.7787 54.306C17.3319 54.581 16.1017 54.8915 14.8415 55.0323C13.6239 55.1684 12.2664 55.2513 12.3154 53.6287C11.8167 53.3217 10.8244 53.9108 10.1647 53.074C11.2671 52.6295 12.4743 52.3742 13.7084 52.3247C12.9818 51.1254 11.7207 51.2815 10.3102 51.1762C11.5718 49.6487 9.8668 48.2299 10.1041 46.7524C7.65922 45.7713 7.18804 43.9802 7.58165 41.8723C4.1827 40.4641 8.76555 38.1959 6.79363 36.6458C5.54658 36.2997 4.7145 37.7815 3.33606 36.9665L5.90988 35.1413C4.76336 34.8641 3.66479 34.9781 2.95568 34.1768C2.84646 33.7916 3.60443 33.615 3.7278 33.172C3.04633 32.8285 2.5399 33.3787 1.9563 33.4677C1.19565 33.5836 0.465573 33.6437 0.128175 33.1389C-0.282391 32.5245 0.369176 32.2032 1.0122 31.8105C4.68166 29.5694 9.08773 28.5936 13.252 27.2282C19.8444 25.0668 26.4947 23.0139 33.1598 20.9977C38.4957 19.3836 43.886 17.8832 49.2597 16.3489C56.48 14.2875 63.6659 12.1427 70.9413 10.212C82.8133 7.06173 94.6591 3.8272 106.799 1.36876C109.716 0.777992 112.72 0.449329 115.697 0.0584622C116.456 -0.0411683 117.351 -0.111673 117.824 0.713123C117.792 1.59076 116.349 1.78801 116.156 2.70255C121.716 1.83096 126.882 -1.02919 132.953 0.879425C130.397 1.48178 127.134 0.626775 125.344 3.053C126.323 3.12838 127.175 3.1939 128.311 3.28141C127.152 4.4775 125.381 4.53427 124.037 5.58331C125.549 5.50059 126.883 5.23041 127.923 6.04383C127.242 7.65461 125.445 8.4675 123.589 9.67466C126.634 9.81948 129.023 7.74267 131.784 8.91357C131.748 9.79525 130.534 9.96397 130.344 10.8102C132.856 11.1574 135.251 10.4996 137.673 10.3684C142.278 10.0344 146.922 10.3549 151.386 11.3151C153.68 11.7642 155.822 12.6105 157.659 13.7937C159.141 14.8081 161.627 13.8303 163.491 13.5058C167.343 12.9318 171.248 12.6161 175.166 12.5621C180.805 12.3461 186.465 12.06 192.114 12.1075C196.636 12.1455 201.187 11.8521 205.688 12.4603C206.606 12.5845 207.507 12.793 208.473 12.9732C207.856 14.9686 205.3 13.7696 203.947 14.7094C206.641 15.7156 209.059 16.9486 211.902 15.9273C214.719 14.915 217.627 15.9533 220.44 15.5412C223.495 15.0512 226.615 14.8635 229.728 14.9822C234.324 15.2386 238.993 14.3989 243.539 15.5205C244.252 15.6621 244.885 15.9893 245.337 16.4502C244.839 17.5893 243.632 17.4665 242.449 17.5185C241.67 17.5527 240.643 17.0952 240.417 18.4336C240.209 19.6707 241.077 19.9736 242.009 20.1603C242.382 20.2087 242.737 20.3187 243.052 20.4832C243.368 20.6478 243.636 20.8633 243.84 21.1157C242.411 22.4075 240.095 21.1717 238.654 22.3385C239.948 23.0187 238.738 23.2281 238.113 23.545C239.947 24.2561 242.236 23.7402 243.937 24.931C242.554 25.8005 241.008 25.5765 239.521 25.7146C240.495 26.9516 242.648 25.9118 243.567 27.2224C243.597 28.4785 241.74 29.2165 241.922 30.5675C243.327 31.1116 243.565 29.4534 244.77 29.5896C244.181 31.3223 243.929 31.4682 236.655 34.3067C238.328 35.1846 238.328 35.1846 245.567 34.4193C244.82 35.4695 243.708 36.3258 242.366 36.8856C242.995 39.4549 242.961 39.3964 246.155 38.2386C246.916 37.9627 248.149 37.0409 249 38.5707C244.902 41.8343 239.504 42.8614 233.713 44.0522C236.531 44.7245 239.373 43.86 241.422 45.5625C240.964 46.0572 240.163 46.1208 239.491 46.3708C240.708 47.3461 242.571 45.827 243.661 47.2187C242.736 48.0322 240.966 47.7506 239.793 48.7023C241.557 49.3242 243.617 48.2844 245.197 49.6754C243.389 50.6387 241.276 51.1734 239.102 51.2171C231.444 51.6176 223.881 52.5274 216.303 53.4637C212.799 53.8967 209.326 54.4266 205.646 54.7785C206.651 55.6714 207.481 56.4083 208.304 57.1396C206.832 58.5039 205.07 58.0972 203.358 57.7348C200.172 56.9254 196.868 56.4472 193.528 56.3119C192.062 56.357 190.611 56.5634 189.216 56.9251C194.933 58.7888 201.397 58.5701 207.143 60.7936C206.065 62.1992 204.582 61.7372 203.256 61.5594C198.721 60.9516 194.285 59.8539 189.609 59.8973C195.216 61.0447 201.074 61.3664 206.534 63.0987C204.292 65.7989 203.706 66.0651 200.495 65.1256C198.983 64.8399 197.415 64.797 195.882 64.9993C198.574 65.4911 201.272 65.9627 203.951 66.4924C204.464 66.658 204.945 66.8797 205.38 67.1512C204.4 68.243 203.32 68.196 201.769 67.9852C194.454 66.9909 187.185 65.7374 179.659 65.9177C176.022 66.0048 172.358 65.3993 168.68 65.6048C168.409 65.6476 168.144 65.7102 167.888 65.7917C180.397 67.4218 192.976 67.8892 205.281 71.0413C203.149 71.6927 202.548 74.3609 199.474 73.1984C194.618 72.1342 189.647 71.4357 184.627 71.112C186.863 71.9189 189.269 72.3867 191.721 72.4914C194.317 72.6937 196.797 73.8351 199.499 73.1779ZM201.383 16.6653C185.342 17.4497 169.639 20.2074 153.168 22.1214C155.633 23.1134 195.212 18.6046 201.383 16.6653V16.6653ZM128.476 14.9014C131.556 14.3448 134.191 15.168 136.813 15.1135C139.561 15.0564 142.3 14.1738 145.11 14.5739C147.99 14.963 150.944 14.8294 153.75 14.1831C150.178 12.0828 131.857 12.4641 128.476 14.9014V14.9014ZM192.551 14.3264C188.523 13.6567 164.763 14.9986 161.401 16.1096C166.963 16.2189 171.988 15.0827 177.099 15.1844C182.283 15.2876 187.387 14.5498 192.551 14.3264V14.3264ZM215.276 49.3323C220.584 48.6954 225.892 48.0585 231.2 47.4218L231.092 46.9106C225.646 46.6104 220.195 47.445 215.276 49.3323V49.3323ZM11.8215 40.1037C16.2527 38.2104 21.3674 37.6966 25.724 35.7397C25.2049 34.6687 24.3556 34.4899 23.4824 35.1117C21.5907 36.4588 19.1837 36.9045 16.947 37.6438C15.009 38.1129 13.2477 38.9582 11.8215 40.1037V40.1037ZM113.683 8.74587C117.063 9.15417 121.852 7.55466 123.468 5.43732C120.178 6.61683 116.505 6.78016 113.683 8.74587ZM108.601 12.6945L108.373 12.1518C105.631 12.9103 102.89 13.6688 100.149 14.4273C100.206 14.5638 100.263 14.7004 100.321 14.837C103.081 14.1228 105.841 13.4087 108.601 12.6945V12.6945ZM45.2228 28.6456C47.5788 28.3786 49.8094 27.6348 51.7015 26.4854C49.3509 26.7679 47.1249 27.5101 45.2228 28.6456V28.6456Z" fill="#FAE465"/>
</svg>
