<svg width="61" height="66" viewBox="0 0 61 66" fill="none" xmlns="http://www.w3.org/2000/svg">
<path fill-rule="evenodd" clip-rule="evenodd" d="M48.5497 0.157606C47.7256 0.377407 46.7834 0.859603 46.1647 1.37845C45.867 1.6282 44.6403 3.28465 43.3174 5.22337L40.9933 8.62958L22.6047 8.63268L4.21598 8.63565L3.44722 8.94541C1.88665 9.57397 0.862168 10.5877 0.291561 12.0679L0 12.8243V30.3774C0 46.5858 0.0172591 47.9852 0.225687 48.6438C0.68457 50.0941 1.96188 51.4184 3.49136 52.0294L4.21598 52.3189L15.0965 52.356L25.9769 52.3932L25.2776 55.2601C24.893 56.8369 24.548 58.25 24.5107 58.4005C24.4461 58.6621 24.3499 58.6766 22.3004 58.7331C19.878 58.8 19.3747 58.939 18.3856 59.8143C17.5984 60.511 17.1859 61.379 17.0975 62.5252L17.0248 63.4673L14.66 63.5075L12.2953 63.5477L11.9775 63.9099C11.5465 64.4011 11.5467 65.1469 11.9777 65.6378L12.2958 66H30.5H48.7042L49.0223 65.6378C49.4533 65.1469 49.4535 64.4011 49.0225 63.9099L48.7047 63.5477L46.34 63.5075L43.9752 63.4673L43.9025 62.5252C43.8141 61.379 43.4016 60.511 42.6144 59.8143C41.6253 58.939 41.122 58.8 38.6996 58.7331C36.6501 58.6766 36.5539 58.6621 36.4893 58.4005C36.452 58.25 36.107 56.8369 35.7224 55.2601L35.0231 52.3932L45.9035 52.356L56.784 52.3189L57.5418 52.019C59.0904 51.4065 60.4347 49.9559 60.8223 48.479C60.9672 47.9267 61 44.5706 61 30.3129V12.8243L60.7084 12.0679C59.914 10.007 57.9569 8.62958 55.8229 8.62958C54.8715 8.62958 54.9136 8.74239 55.3901 7.46798C55.9427 5.99042 55.6595 3.80543 54.7473 2.50663C54.2557 1.8067 53.3166 0.968536 52.651 0.635929C51.4246 0.0229887 49.7755 -0.169322 48.5497 0.157606ZM51.4082 2.93062C52.0092 3.23096 52.5869 3.84428 52.8516 4.46303C53.1151 5.0792 53.078 6.35193 52.7798 6.9246C52.5355 7.39351 43.9564 17.7478 43.6266 17.9716C43.5116 18.0497 42.8646 17.6497 41.5579 16.6924C40.5122 15.9263 39.6669 15.264 39.6795 15.2207C39.6922 15.1773 41.5114 12.5004 43.7222 9.27208C47.7766 3.35202 48.0681 2.9905 49.0303 2.68823C49.6017 2.50882 50.8106 2.63208 51.4082 2.93062ZM36.178 15.6449L33.1588 20.0789L32.1532 20.1681C27.7525 20.5588 24.8809 23.3573 24.3013 27.8203C24.0696 29.6046 24.4045 32.8587 25.0319 34.9199C25.386 36.0836 26.3046 36.4539 27.2197 35.802C29.1587 34.4207 29.2568 34.3962 32.9374 34.3746C35.6679 34.3586 36.0523 34.3292 36.824 34.0766C39.7246 33.1272 41.4696 30.1998 41.0104 27.0539C40.9354 26.5392 40.8667 25.9664 40.8581 25.7811C40.8458 25.5173 42.133 23.8951 46.7711 18.3298L52.6998 11.2157L54.6863 11.2455C56.5433 11.2735 56.7029 11.2957 57.1355 11.5865C57.7359 11.99 58.1201 12.5528 58.2889 13.276C58.3766 13.6517 58.4256 18.1982 58.4277 26.1505L58.4309 38.4441H37.6761C15.1339 38.4441 16.2975 38.4068 15.8033 39.1457C15.5221 39.5664 15.6206 40.3166 16.007 40.6951C16.2782 40.9607 16.2937 40.9609 37.3217 41.0255L58.365 41.09V44.4458V47.8015L57.9991 48.4111C57.762 48.8064 57.4146 49.1468 57.011 49.3791L56.3888 49.7375H30.5H4.61123L3.98898 49.3791C3.58543 49.1468 3.23801 48.8064 3.00086 48.4111L2.63499 47.8015V44.4458V41.09L4.83863 41.0255C6.83859 40.9669 7.06717 40.9364 7.31315 40.6951C7.69904 40.3164 7.79746 39.5661 7.51631 39.1457C7.13068 38.5692 6.58958 38.4441 4.48001 38.4441H2.56174L2.59836 25.7633C2.63868 11.7928 2.57755 12.791 3.44617 11.9325C4.20663 11.181 3.16449 11.2215 21.9043 11.216L39.1973 11.2109L36.178 15.6449ZM40.064 18.83L41.8464 20.1248L41.6078 20.4332C40.6862 21.6251 39.1068 23.4594 38.9978 23.4644C38.9254 23.4678 38.1374 22.9417 37.2466 22.2954L35.6272 21.1202L35.8534 20.7797C37.1451 18.8343 38.0711 17.5352 38.166 17.5352C38.2295 17.5352 39.0836 18.1178 40.064 18.83ZM35.7522 24.4081C37.9879 26.0249 38.1262 26.1498 38.2877 26.699C38.7272 28.1936 38.3412 29.8148 37.3104 30.8035C36.3443 31.7302 36.1005 31.7832 32.7397 31.7979C29.6912 31.8112 28.7292 31.938 27.6939 32.4624C27.4847 32.5685 27.2891 32.6313 27.2594 32.6022C27.092 32.4381 26.9021 30.8184 26.8926 29.474C26.876 27.114 27.3407 25.678 28.5147 24.4619C29.5144 23.4264 31.1888 22.736 32.7673 22.7086C33.3625 22.6983 33.4833 22.7671 35.7522 24.4081ZM11.1756 38.6335C9.86922 39.1869 10.2334 41.0255 11.6494 41.0255C12.9116 41.0255 13.4633 39.4299 12.4234 38.7871C11.9332 38.484 11.6198 38.4454 11.1756 38.6335ZM32.3445 52.4399C32.3445 52.471 32.6706 53.8395 33.0691 55.481C33.4677 57.1225 33.7937 58.52 33.7937 58.5866C33.7937 58.6588 32.4631 58.7077 30.5 58.7077C28.5369 58.7077 27.2063 58.6588 27.2063 58.5866C27.2063 58.52 27.5323 57.1225 27.9309 55.481C28.3294 53.8395 28.6555 52.471 28.6555 52.4399C28.6555 52.4088 29.4855 52.3834 30.5 52.3834C31.5145 52.3834 32.3445 52.4088 32.3445 52.4399ZM40.2892 61.4268C40.9168 61.5974 41.3023 62.171 41.3029 62.9347L41.3035 63.4832H30.4837H19.6639L19.7238 62.7753C19.7915 61.9757 20.0533 61.6044 20.674 61.4278C21.2704 61.2582 39.6658 61.2572 40.2892 61.4268Z" fill="#888888"/>
</svg>
