<svg width="20" height="14" viewBox="0 0 20 14" fill="none" xmlns="http://www.w3.org/2000/svg">
<path fill-rule="evenodd" clip-rule="evenodd" d="M1.74041 0.0431228C1.63297 0.0636984 1.40347 0.15006 1.23039 0.235029C0.635675 0.527068 0.157773 1.15922 0.0435726 1.80503C-0.0145242 2.1334 -0.0145242 11.8692 0.0435726 12.1976C0.194851 13.0531 0.957649 13.8212 1.79902 13.9652C1.97842 13.9959 4.43259 14.0053 10.1599 13.9973L18.2669 13.9859L18.5256 13.8832C18.9012 13.7342 19.1218 13.5914 19.3649 13.3397C19.6109 13.0851 19.7417 12.8735 19.8852 12.4982L19.986 12.2348L19.9973 7.1605C20.0053 3.61413 19.9958 2.00835 19.9659 1.82755C19.8235 0.967633 19.0726 0.193878 18.2304 0.0393817C17.9314 -0.0155 2.02777 -0.0118783 1.74041 0.0431228ZM18.1061 1.31877C18.3207 1.38336 18.6444 1.71305 18.7078 1.93166C18.7372 2.03311 18.7553 2.3626 18.7553 2.79727V3.49907H10.0037H1.25204V2.79727C1.25204 2.3626 1.27013 2.03311 1.29955 1.93166C1.35835 1.72893 1.6854 1.38396 1.87716 1.32239C2.08395 1.25601 17.8858 1.25247 18.1061 1.31877ZM18.7553 8.33988C18.7553 11.0243 18.7435 11.9477 18.7078 12.071C18.6444 12.2896 18.3207 12.6193 18.1061 12.6838C17.8723 12.7542 2.13502 12.7542 1.90122 12.6838C1.68661 12.6193 1.36296 12.2896 1.29955 12.071C1.2638 11.9477 1.25204 11.0243 1.25204 8.33988V4.77261H10.0037H18.7553V8.33988ZM3.4966 8.96598C3.33719 9.03889 3.17521 9.24155 3.14489 9.40603C3.13133 9.47966 3.12625 9.73755 3.1336 9.97917C3.14802 10.4538 3.18146 10.5417 3.41592 10.72C3.51273 10.7936 3.57935 10.802 4.06506 10.802C4.65599 10.802 4.71624 10.7823 4.90264 10.528C4.97492 10.4294 4.9832 10.3615 4.9832 9.86678C4.9832 9.37201 4.97492 9.30415 4.90264 9.20553C4.72147 8.95834 4.64908 8.93239 4.1112 8.92153C3.7577 8.91441 3.58161 8.92714 3.4966 8.96598Z" fill="#3F3F3F"/>
</svg>
