<svg width="38" height="16" viewBox="0 0 38 16" fill="none" xmlns="http://www.w3.org/2000/svg">
<path d="M17.9696 7.82704V12.2502H16.5664V1.32691H20.288C20.7322 1.31763 21.1739 1.39641 21.5875 1.55872C22.0011 1.72103 22.3785 1.96364 22.6979 2.27255C23.0205 2.56272 23.2772 2.91857 23.4508 3.3162C23.6245 3.71382 23.711 4.14401 23.7045 4.57785C23.7138 5.014 23.6286 5.447 23.4548 5.84716C23.2811 6.24732 23.0229 6.60518 22.6979 6.89621C22.0471 7.51677 21.2438 7.82675 20.288 7.82617H17.9696V7.82704ZM17.9696 2.67173V6.48483H20.3229C20.5808 6.49248 20.8376 6.4462 21.0767 6.34895C21.3157 6.2517 21.5319 6.10562 21.7113 5.92006C21.8897 5.74656 22.0316 5.53904 22.1284 5.30978C22.2253 5.08051 22.2752 4.83414 22.2752 4.58525C22.2752 4.33636 22.2253 4.09 22.1284 3.86073C22.0316 3.63146 21.8897 3.42395 21.7113 3.25045C21.5341 3.06098 21.3187 2.91132 21.0794 2.8114C20.84 2.71148 20.5821 2.66357 20.3229 2.67086H17.9696V2.67173Z" fill="white"/>
<path d="M26.9402 4.53223C27.9773 4.53223 28.796 4.80938 29.3963 5.3637C29.9965 5.91802 30.2963 6.67802 30.2957 7.64372V12.2499H28.9535V11.2128H28.8925C28.3114 12.0669 27.5387 12.494 26.5741 12.494C25.7508 12.494 25.062 12.2499 24.5076 11.7619C24.2416 11.5379 24.0289 11.2573 23.8851 10.9407C23.7413 10.624 23.6699 10.2793 23.6762 9.93158C23.6762 9.15821 23.9684 8.54317 24.553 8.08647C25.1375 7.62977 25.9178 7.40084 26.894 7.39968C27.7272 7.39968 28.4134 7.5522 28.9526 7.85725V7.53651C28.9542 7.29946 28.903 7.06503 28.8028 6.85021C28.7025 6.6354 28.5557 6.44558 28.373 6.29453C28.002 5.95975 27.5184 5.77707 27.0186 5.78292C26.2348 5.78292 25.6145 6.11354 25.1578 6.77477L23.9219 5.99646C24.6018 5.0203 25.6078 4.53223 26.9402 4.53223ZM25.1247 9.96208C25.1238 10.1407 25.1655 10.3169 25.2465 10.4761C25.3274 10.6353 25.4452 10.7728 25.5901 10.8772C25.9005 11.1213 26.2857 11.2507 26.6805 11.2433C27.2726 11.2423 27.8402 11.0066 28.2589 10.5879C28.7237 10.1503 28.9561 9.63699 28.9561 9.04781C28.5186 8.69918 27.9085 8.52487 27.1258 8.52487C26.5558 8.52487 26.0805 8.66229 25.6999 8.93712C25.3156 9.21602 25.1247 9.55506 25.1247 9.96208Z" fill="white"/>
<path d="M37.9997 4.77637L33.3142 15.5446H31.8656L33.6044 11.7768L30.5234 4.77637H32.0487L34.2755 10.1452H34.306L36.4719 4.77637H37.9997Z" fill="white"/>
<path d="M12.2994 6.87363C12.3 6.446 12.2638 6.01911 12.1914 5.59766H6.27344V8.01451H9.66296C9.5936 8.40051 9.44679 8.76848 9.2314 9.09622C9.016 9.42396 8.73646 9.70469 8.40965 9.92149V11.4903H10.4325C11.617 10.3982 12.2994 8.78323 12.2994 6.87363Z" fill="white"/>
<path d="M6.27475 13.0059C7.9682 13.0059 9.39409 12.4498 10.4339 11.4911L8.41096 9.9223C7.84793 10.304 7.12279 10.5219 6.27475 10.5219C4.63795 10.5219 3.24868 9.41853 2.75188 7.93164H0.667969V9.5484C1.19027 10.5877 1.99116 11.4614 2.98123 12.072C3.97129 12.6825 5.11157 13.0058 6.27475 13.0059Z" fill="white"/>
<path d="M2.75212 7.93188C2.48948 7.15273 2.48948 6.30898 2.75212 5.52984V3.91309H0.668205C0.228828 4.7874 0 5.75235 0 6.73086C0 7.70937 0.228828 8.67432 0.668205 9.54863L2.75212 7.93188Z" fill="white"/>
<path d="M6.27475 2.93945C7.16966 2.92483 8.03439 3.26296 8.68202 3.88074L10.4731 2.08968C9.33736 1.02295 7.83278 0.437292 6.27475 0.45549C5.11157 0.455543 3.97129 0.778888 2.98123 1.38943C1.99116 1.99997 1.19027 2.87367 0.667969 3.91299L2.75188 5.52975C3.24868 4.04286 4.63795 2.93945 6.27475 2.93945Z" fill="white"/>
</svg>
