<svg width="9" height="11" viewBox="0 0 9 11" fill="none" xmlns="http://www.w3.org/2000/svg">
<path fill-rule="evenodd" clip-rule="evenodd" d="M4.1722 0.00726932C3.68576 0.0641271 3.21998 0.223888 2.81416 0.473095C2.58854 0.61166 2.17586 0.990533 2.02494 1.19767C1.80978 1.49299 1.66323 1.80322 1.568 2.16501C1.52457 2.32999 1.51888 2.43375 1.50942 3.23445L1.49895 4.12117H1.2483C1.0988 4.12117 0.942137 4.13446 0.860046 4.15408C0.456194 4.25067 0.145134 4.53717 0.0393713 4.90994C-0.0131238 5.09494 -0.0131238 10.0262 0.0393713 10.2112C0.145134 10.584 0.456194 10.8705 0.860046 10.9671C0.980653 10.9959 1.43065 11 4.5 11C7.56935 11 8.01935 10.9959 8.13995 10.9671C8.54381 10.8705 8.85487 10.584 8.96063 10.2112C9.01312 10.0262 9.01312 5.09494 8.96063 4.90994C8.85487 4.53717 8.54381 4.25067 8.13995 4.15408C8.05786 4.13446 7.9012 4.12117 7.7517 4.12117H7.50105L7.49058 3.23445C7.48112 2.43375 7.47543 2.32999 7.432 2.16501C7.2868 1.61345 7.03437 1.19679 6.61032 0.808696C6.17546 0.410734 5.72097 0.179326 5.13219 0.0560875C4.93673 0.01518 4.35687 -0.014313 4.1722 0.00726932ZM5.04195 0.743153C5.46652 0.845562 5.78964 1.0193 6.10389 1.31407C6.32649 1.52291 6.48311 1.74155 6.59219 1.99581C6.72713 2.31026 6.73127 2.34555 6.74158 3.26669L6.75113 4.12117H4.5H2.24887L2.25781 3.26669C2.26606 2.47632 2.27046 2.39988 2.31642 2.24785C2.43546 1.85423 2.62062 1.56216 2.92819 1.28288C3.28985 0.954462 3.63936 0.795239 4.21903 0.694872C4.35633 0.671076 4.86754 0.701085 5.04195 0.743153ZM8.07339 4.86413C8.10895 4.88851 8.15976 4.93515 8.18631 4.96781C8.23434 5.02686 8.23462 5.04006 8.24073 7.52998C8.24754 10.3004 8.25717 10.1242 8.09256 10.2394L8.0041 10.3014H4.5H0.995896L0.907436 10.2394C0.743934 10.1249 0.753698 10.2949 0.753698 7.56267C0.753698 5.86435 0.761518 5.07239 0.778681 5.03079C0.811882 4.95031 0.889969 4.87458 0.976134 4.83928C1.03394 4.81561 1.66204 4.81133 4.52756 4.81516C8.00307 4.8198 8.00883 4.81987 8.07339 4.86413ZM4.32943 5.96999C3.80977 6.05359 3.43254 6.53285 3.51526 7.00439C3.56452 7.28531 3.7868 7.57742 4.02689 7.67682L4.12537 7.7176V8.30634C4.12537 8.84955 4.12893 8.90148 4.17147 8.97803C4.3054 9.21905 4.6946 9.21905 4.82853 8.97803C4.87107 8.90148 4.87463 8.84955 4.87463 8.30634V7.7176L4.97311 7.67682C5.2132 7.57742 5.43548 7.28531 5.48474 7.00439C5.54213 6.6773 5.36617 6.30269 5.0708 6.12306C4.85213 5.99009 4.56849 5.93153 4.32943 5.96999ZM4.60588 6.67014C4.67739 6.70131 4.75756 6.80837 4.75756 6.8727C4.75756 6.88687 4.74093 6.93059 4.72063 6.96991C4.67549 7.05723 4.54966 7.11787 4.45378 7.09854C4.36736 7.08111 4.273 6.99448 4.25401 6.91514C4.2335 6.82935 4.2988 6.71241 4.39044 6.67092C4.48434 6.62842 4.50986 6.62831 4.60588 6.67014Z" fill="#3F3F3F"/>
</svg>
