<svg width="26" height="28" viewBox="0 0 26 28" fill="none" xmlns="http://www.w3.org/2000/svg">
<path fill-rule="evenodd" clip-rule="evenodd" d="M20.6933 0.0668631C20.3421 0.160112 19.9405 0.36468 19.6768 0.584798C19.5499 0.690751 19.027 1.39349 18.4631 2.21597L17.4726 3.66104L9.63477 3.66235L1.79698 3.66361L1.46931 3.79502C0.804147 4.06168 0.367482 4.49174 0.124272 5.11973L0 5.4406V12.8874C0 19.7637 0.00735633 20.3573 0.0961943 20.6368C0.291784 21.2521 0.836212 21.8138 1.48812 22.0731L1.79698 22.1959L6.43458 22.2117L11.0721 22.2274L10.7741 23.4437C10.6101 24.1126 10.4631 24.7121 10.4472 24.776C10.4197 24.887 10.3787 24.8931 9.50511 24.9171C8.47258 24.9454 8.25806 25.0044 7.8365 25.3758C7.50097 25.6713 7.32515 26.0396 7.28747 26.5259L7.25647 26.9255L6.24854 26.9426L5.2406 26.9596L5.10515 27.1133C4.92147 27.3217 4.92153 27.6381 5.10527 27.8464L5.24083 28H13H20.7592L20.8947 27.8464C21.0785 27.6381 21.0785 27.3217 20.8948 27.1133L20.7594 26.9596L19.7515 26.9426L18.7435 26.9255L18.7125 26.5259C18.6749 26.0396 18.499 25.6713 18.1635 25.3758C17.7419 25.0044 17.5274 24.9454 16.4949 24.9171C15.6213 24.8931 15.5803 24.887 15.5528 24.776C15.5369 24.7121 15.3899 24.1126 15.2259 23.4437L14.9279 22.2274L19.5654 22.2117L24.203 22.1959L24.526 22.0687C25.1861 21.8088 25.759 21.1934 25.9242 20.5668C25.986 20.3325 26 18.9087 26 12.86V5.4406L25.8757 5.11973C25.5371 4.24539 24.7029 3.66104 23.7934 3.66104C23.3879 3.66104 23.4058 3.70889 23.6089 3.16823C23.8444 2.54139 23.7237 1.61443 23.3349 1.06342C23.1254 0.766478 22.7251 0.410894 22.4414 0.269788C21.9187 0.00975277 21.2158 -0.0718334 20.6933 0.0668631ZM21.9117 1.24329C22.1678 1.37071 22.4141 1.63091 22.5269 1.89341C22.6392 2.15481 22.6234 2.69476 22.4963 2.93771C22.3922 3.13664 18.7355 7.52937 18.5949 7.62432C18.5459 7.65744 18.2701 7.48776 17.7132 7.08163C17.2675 6.7566 16.9072 6.47565 16.9126 6.45725C16.918 6.43885 17.6934 5.30322 18.6357 3.93361C20.3638 1.42207 20.4881 1.2687 20.8982 1.14046C21.1417 1.06435 21.657 1.11664 21.9117 1.24329ZM15.4201 6.63723L14.1333 8.51831L13.7046 8.55615C11.8289 8.7219 10.605 9.90917 10.3579 11.8026C10.2592 12.5595 10.4019 13.9401 10.6693 14.8145C10.8203 15.3082 11.2118 15.4653 11.6018 15.1887C12.4283 14.6027 12.4701 14.5923 14.0389 14.5832C15.2027 14.5764 15.3666 14.5639 15.6955 14.4567C16.9318 14.054 17.6756 12.812 17.4799 11.4774C17.4479 11.2591 17.4186 11.0161 17.4149 10.9374C17.4097 10.8255 17.9583 10.1373 19.9352 7.77626L22.4622 4.75818L23.3089 4.77083C24.1004 4.78271 24.1684 4.79213 24.3528 4.91549C24.6087 5.08666 24.7725 5.32545 24.8444 5.63225C24.8818 5.79164 24.9027 7.72047 24.9036 11.0941L24.905 16.3096H16.0587C6.45053 16.3096 6.94649 16.2938 6.73585 16.6073C6.61596 16.7857 6.65797 17.104 6.82267 17.2646C6.93824 17.3773 6.94487 17.3774 15.9076 17.4047L24.8769 17.4321V18.8558V20.2794L24.7209 20.538C24.6199 20.7058 24.4718 20.8501 24.2998 20.9487L24.0346 21.1008H13H1.96544L1.70022 20.9487C1.52822 20.8501 1.38013 20.7058 1.27905 20.538L1.12311 20.2794V18.8558V17.4321L2.06237 17.4047C2.91481 17.3799 3.01224 17.367 3.11708 17.2646C3.28156 17.1039 3.32351 16.7856 3.20367 16.6073C3.0393 16.3627 2.80867 16.3096 1.90951 16.3096H1.09189L1.1075 10.9299C1.12468 5.00299 1.09863 5.42647 1.46886 5.06229C1.79299 4.74345 1.3488 4.76064 9.33625 4.75829L16.7071 4.75615L15.4201 6.63723ZM17.0764 7.9885L17.8362 8.53781L17.7345 8.66862C17.3417 9.17429 16.6685 9.95248 16.622 9.95461C16.5911 9.95604 16.2553 9.73285 15.8756 9.45864L15.1853 8.96008L15.2818 8.81564C15.8323 7.9903 16.227 7.43919 16.2675 7.43919C16.2945 7.43919 16.6586 7.68635 17.0764 7.9885ZM15.2386 10.3549C16.1915 11.0409 16.2505 11.0939 16.3194 11.3268C16.5067 11.9609 16.3422 12.6487 15.9028 13.0681C15.491 13.4613 15.3871 13.4838 13.9546 13.49C12.6553 13.4957 12.2452 13.5494 11.8039 13.7719C11.7148 13.8169 11.6314 13.8436 11.6187 13.8312C11.5474 13.7616 11.4665 13.0745 11.4624 12.5041C11.4553 11.5029 11.6534 10.8937 12.1538 10.3778C12.5799 9.93846 13.2936 9.64557 13.9664 9.63396C14.2201 9.62958 14.2716 9.65877 15.2386 10.3549ZM4.76339 16.39C4.20655 16.6248 4.36177 17.4047 4.96533 17.4047C5.5033 17.4047 5.73847 16.7279 5.29524 16.4551C5.08629 16.3265 4.95269 16.3102 4.76339 16.39ZM13.7862 22.2472C13.7862 22.2604 13.9252 22.841 14.095 23.5374C14.2649 24.2338 14.4039 24.8267 14.4039 24.8549C14.4039 24.8855 13.8367 24.9063 13 24.9063C12.1633 24.9063 11.5961 24.8855 11.5961 24.8549C11.5961 24.8267 11.7351 24.2338 11.905 23.5374C12.0748 22.841 12.2138 22.2604 12.2138 22.2472C12.2138 22.234 12.5676 22.2233 13 22.2233C13.4324 22.2233 13.7862 22.234 13.7862 22.2472ZM17.1725 26.0598C17.4399 26.1322 17.6042 26.3756 17.6045 26.6995L17.6048 26.9323H12.993H8.38132L8.40687 26.6319C8.43574 26.2927 8.54732 26.1352 8.81187 26.0603C9.06608 25.9883 16.9067 25.9879 17.1725 26.0598Z" fill="#888888"/>
</svg>
