<svg width="449" height="8" viewBox="0 0 449 8" fill="none" xmlns="http://www.w3.org/2000/svg">
<path d="M448.987 3.75354C449.152 3.44851 447.724 3.63857 447.035 3.57193C446.673 3.36116 446.311 3.15045 445.949 2.93981C446.359 0.972727 446.359 0.972729 443.057 1.555C442.728 1.53144 442.399 1.50786 442.069 1.48427C441.817 1.43254 441.539 1.40025 441.253 1.38934C440.966 1.37844 440.677 1.38915 440.401 1.42083C440.126 1.45251 439.871 1.50451 439.652 1.57369C439.432 1.64287 439.252 1.72781 439.124 1.82339C436.642 1.84373 435.422 0.282968 432.322 1.07725C430.818 1.41372 429.754 1.09314 428.524 0.797319C426.527 0.317093 426.133 0.789894 426.208 1.43051C425.961 1.42546 425.713 1.43782 425.478 1.46695C423.457 0.717766 421.473 0.489863 419.58 1.52476C419.769 0.175475 417.94 0.230643 415.49 0.716891C415.22 0.718091 414.958 0.753514 414.749 0.817296C412.753 0.726596 410.865 -0.381505 408.742 0.729769C408.595 0.71733 408.443 0.716402 408.295 0.727032C408.147 0.737662 408.007 0.759617 407.884 0.7915C407.504 0.649342 407.042 0.540853 406.533 0.474135C406.025 0.407417 405.482 0.384194 404.945 0.406216C402.705 -0.263205 400.772 -0.0512291 399.021 0.688935C397.762 0.610781 396.2 0.680106 395.298 0.426746C392.649 -0.317488 392.34 0.505067 391.557 1.07529C389.813 -0.371913 388.121 0.634692 386.416 1.08998C385.65 0.290784 385.396 0.263854 383.735 0.807076C383.565 0.89025 383.451 0.987201 383.401 1.08998C382.286 1.37998 381.31 1.54684 381.384 0.778599C380.059 0.0167092 377.763 0.0122717 375.65 0.767458L375.576 0.732426C373.966 0.810622 372.046 0.412993 370.869 1.15431C367.509 1.35501 364.563 -0.00928992 361.043 0.796471C359.84 0.439271 358.641 0.0752182 357.004 0.480842C355.781 0.0771589 354.545 -0.24639 353.15 0.393323C352.8 0.410282 352.45 0.427254 352.1 0.444241C351.506 0.415805 350.912 0.387457 350.318 0.359195C347.47 -0.0893812 344.719 -0.274 342.407 0.753676C341.385 0.819451 340.477 -0.0619848 339.37 0.703293C336.383 -0.080343 334.237 0.973981 331.705 1.18579C330.689 1.06117 330.113 0.54946 328.756 0.725207C326.817 -0.10849 326.178 0.372482 325.808 1.12587C324.439 1.11775 324.509 0.290784 322.895 0.421967C321.139 -0.291115 320.392 0.384821 319.431 0.767298C319.01 0.599314 318.199 0.362007 317.966 0.545054C317.64 0.800187 317.966 1.16991 318.014 1.49065C316.769 1.33382 315.649 0.920919 314.174 1.23176C311.705 0.551902 311.06 1.34586 310.14 1.91765C309.183 1.8959 308.226 1.87422 307.269 1.85258C307.014 1.36509 308.395 0.685063 306.255 0.424649C304.377 0.196004 305.882 1.20635 304.42 1.18704C303.421 1.13171 302.547 0.55372 301.405 1.08664C299.198 0.617193 298.885 1.28784 298.301 1.79514C294.2 1.26519 290.093 0.765851 285.768 1.48623C284.176 1.43672 282.504 0.183624 281.006 1.53006C280.935 1.62147 280.883 1.71476 280.852 1.80911C279.232 1.71701 277.564 0.988498 276.017 1.85894C274.14 1.45884 272.775 2.09323 271.144 2.19049C270.947 1.73168 269.942 1.87912 269.195 1.83329C267.634 0.368224 265.181 1.85153 263.256 1.58646L261.383 1.54349C259.622 1.81757 258.056 0.831651 256.245 1.43406C256.116 1.41978 255.979 1.4196 255.85 1.43352C255.721 1.44744 255.605 1.47489 255.517 1.51255C253.562 1.57392 251.566 0.456238 249.646 1.54048C247.628 1.18297 246.87 1.84249 245.744 2.20479L245.743 2.21131C243.553 1.34105 240.614 1.15714 234.001 1.47632C230.666 0.477817 228.178 1.86604 225.211 1.90525C224.541 1.71033 223.725 1.59751 222.875 1.58246C222.024 1.56741 221.182 1.65088 220.466 1.82128C220.299 1.38789 220.429 0.888063 218.654 0.858354C217.142 0.832894 217.418 1.18438 217.563 1.51925C217.193 1.90683 216.328 1.85431 215.504 1.83718C214.026 1.22926 213.021 1.3336 212.465 2.1144C211.739 2.15562 211.482 1.67484 210.604 1.88488C209.913 1.68535 209.105 1.54861 208.246 1.48564C207.386 1.42267 206.499 1.43521 205.655 1.52226C203.547 1.33785 201.716 1.7286 199.786 1.91165C196.675 1.21268 187.191 1.39994 184.188 2.21943C183.895 1.49645 182.764 1.22647 181.287 1.7341C179.819 2.23875 178.079 2.13266 176.46 2.29602C174.896 1.80944 173.826 2.40496 172.547 2.54202L172.493 2.57099C170.36 1.99615 167.998 2.1182 165.629 2.25999C163.481 1.85243 163.103 3.43225 160.8 2.85092C159.509 1.88161 157.662 2.29341 155.866 2.57771C152.648 1.8549 149.264 2.25413 145.921 2.37668C145.956 2.32035 145.967 2.26242 145.955 2.20482C145.909 2.16237 145.829 2.12609 145.726 2.10067C145.108 2.29327 144.383 2.43341 143.603 2.51127C142.824 2.58913 142.007 2.60282 141.212 2.55139C138.517 1.9824 136.46 2.19157 135.094 3.24148L134.646 3.24823C134.33 1.4866 131.739 2.23224 129.487 2.6053C128.526 2.57721 127.565 2.54903 126.604 2.52079C124.844 1.81815 123.336 2.57897 121.707 2.63699C121.403 2.59802 121.086 2.57318 120.765 2.56304C118.022 1.75889 115.361 2.46986 112.67 2.62245C111.121 1.87117 109.587 2.20359 108.054 2.63075C104.775 2.22001 101.493 1.84678 98.1322 2.52875C97.5182 2.53849 96.9042 2.54828 96.2902 2.55812C95.9666 2.56943 95.6431 2.58068 95.3197 2.59187C94.803 2.54382 94.2611 2.54778 93.7499 2.60336C93.2388 2.65893 92.7768 2.7641 92.4119 2.908C91.4545 2.78635 90.7235 2.3719 89.4969 2.59823C88.7884 2.60565 88.0798 2.61303 87.3711 2.62034C86.1278 2.55047 84.8578 2.64404 83.7809 2.88484C83.7127 2.93628 83.5999 2.97777 83.4607 3.0027C83.3215 3.02764 83.1636 3.03458 83.0125 3.02242C83.5862 3.83841 83.2872 4.25104 82.169 4.28508C83.2866 4.25099 83.5847 3.83812 83.0084 3.02172C83.1599 3.03435 83.3206 3.02753 83.4607 3.0027C83.5999 2.97777 83.7127 2.93628 83.7809 2.88484C80.9186 1.81884 78.3132 2.52733 75.6802 3.04594C74.1347 1.86319 72.2484 3.62978 70.643 2.96602C69.0244 1.52389 66.3247 2.49532 64.0318 2.55899C63.7123 2.58391 63.3928 2.6089 63.0733 2.63396C60.5425 3.34618 58.6256 2.26655 56.3217 2.31623C54.7256 2.37297 53.1294 2.42983 51.5334 2.48682C49.5236 1.74085 48.4352 2.28029 47.4001 2.89405C47.1347 2.92717 46.8497 2.93219 46.5771 2.90853C47.0642 1.75624 45.0537 2.13975 43.5259 2.22657C42.2293 2.01439 41.728 2.61572 40.638 2.61448C39.2489 2.78144 39.7194 1.34657 37.6126 2.13195C34.7409 2.12968 31.8747 2.52185 28.9978 2.14895C28.7937 1.96945 28.7523 1.70743 27.9068 1.8526C26.6401 1.82838 25.3734 1.80421 24.1066 1.78009C21.8989 1.17558 19.4202 1.61268 17.0771 1.52867C16.9297 1.5063 16.7702 1.49703 16.6113 1.50161C16.4525 1.50619 16.2988 1.52449 16.1624 1.55504C14.5473 1.61673 13.015 0.681901 11.3368 1.49987L11.3161 1.50391C9.2871 1.47582 7.18888 1.31014 5.47235 1.90622C3.62276 1.96457 4.67421 2.6918 3.71309 2.95506C3.3342 3.26202 3.82268 3.75657 2.66575 3.87999C-2.5267 4.43362 1.25583 5.38487 2.45815 5.78641C4.81095 6.57199 6.9064 7.51178 11.2786 7.18435C13.5724 7.01265 16.4309 6.6629 19.0901 6.94914C22.3306 6.58192 25.8092 6.62686 28.9729 7.07681C34.3092 7.75173 40.1054 7.73546 45.4135 7.03065C46.1363 7.45464 47.417 7.23149 48.3761 7.38144C50.3561 8.08378 50.5915 7.28773 51.3153 6.91112L51.3025 6.87027C53.3 7.68981 55.4618 8.13437 58.1905 7.2851C61.4371 8.221 64.695 7.22761 67.9473 7.29425C73.3886 8.06713 79.0194 7.55616 84.5638 7.63167C85.8603 7.89105 87.1529 8.25405 88.4803 7.65094C88.8558 7.50721 89.3153 7.39728 89.8233 7.3296C90.3313 7.26192 90.8743 7.23828 91.4107 7.2605C91.6472 7.64013 92.5179 7.62137 93.2815 7.66984C94.9935 8.09898 96.5022 8.23726 97.2522 7.28881L100.175 7.22728C100.813 7.37083 101.452 7.5143 102.09 7.65766C104.005 8.48991 104.82 7.45362 106.171 7.32718L106.075 7.3049C107.054 7.37579 107.771 7.81199 108.959 7.58762C110.192 7.78828 109.808 6.33555 111.865 7.22904C113.612 7.98738 115.776 7.61465 117.786 7.29993C119.764 7.75626 121.427 7.53773 122.929 6.97105L125.609 7.18694C127.313 7.96192 129.25 8.07279 131.872 7.76476C133.235 7.52918 134.711 7.39635 136.214 7.37399C139.187 7.43271 142.116 7.88484 145.138 7.59324C147.448 7.70478 148.859 6.42007 151.167 6.91746C156.722 8.11432 162.115 7.72586 167.586 6.92221C167.638 7.13137 167.69 7.34048 167.742 7.54953C169.714 6.89587 172.739 7.86005 174.539 6.94147C175.702 6.83381 176.865 6.7262 178.028 6.61862C180.838 7.53596 183.659 7.75713 186.503 6.6379C187.373 6.48918 188.243 6.34054 189.114 6.19196C190.698 7.59092 192.439 7.1029 194.211 6.25031C194.379 6.2639 194.549 6.27352 194.72 6.2791C196.748 7.01855 199.278 6.9496 201.805 6.88437C203.424 6.75953 205.042 6.63476 206.66 6.51006C208.138 6.62816 209.633 6.78624 210.832 6.26091C214.626 5.84721 218.698 5.961 222.282 6.58095C224.924 7.36144 224.823 6.04555 226.217 5.87299C228.216 5.82541 229.795 6.78818 232.017 6.20488C235.61 6.31485 239.203 6.42482 242.796 6.5348C243.771 7.06789 244.75 6.97756 245.73 6.53724C247.866 6.02272 250.421 6.6803 252.57 6.20148C254.186 6.35601 255.78 6.98867 257.439 6.23312C258.091 6.19727 258.743 6.16138 259.395 6.12547C261.232 6.44939 263.252 7.26005 264.442 5.86464C264.982 5.96404 265.522 6.06342 266.062 6.16276C267.153 6.28598 268.245 6.4091 269.336 6.53212C271.052 6.67679 272.511 5.63409 274.85 6.57136C275.613 6.87692 280.911 7.27458 282.861 5.85564C283.496 5.86711 284.131 5.87854 284.766 5.88993C286.729 6.10458 288.691 6.31936 290.653 6.53426C294.196 6.27612 298.175 7.02122 301.34 5.89525C301.956 6.17267 302.97 6.05065 303.463 6.11717C305.817 6.43453 307.568 4.96856 308.497 5.56747C310.354 6.76483 312.083 5.99888 313.949 5.86605C316.298 6.30564 318.6 5.58105 320.942 5.82735C325.189 6.36345 329.299 4.80132 333.571 5.71437C335.547 5.87134 337.586 5.88449 339.575 5.75308C343.166 6.26887 346.455 4.58911 350.108 5.55419L350.203 5.37737C351.863 5.68603 353.711 5.82974 355.566 5.79448C357.421 5.75921 359.219 5.54617 360.786 5.17617C361.946 5.8028 363.146 6.31591 364.847 5.36801C365.197 5.36891 365.546 5.36974 365.896 5.37048C366.216 5.4039 366.536 5.43737 366.856 5.47088C368.366 6.06537 370.096 5.40159 371.677 5.5867C373.506 6.22253 373.955 5.44542 374.881 5.1569C375.007 5.1732 375.142 5.178 375.274 5.17089C375.406 5.16378 375.531 5.14497 375.64 5.11605L375.55 5.15615C376.861 5.92057 379.015 5.0386 380.48 5.5029C383.254 5.83816 386.074 6.32902 388.397 5.1735C392.809 5.90448 397.408 5.12629 401.877 5.40462C403.245 5.53914 404.613 5.6737 405.981 5.8083C407.779 5.62917 409.386 5.02482 411.49 5.71896C412.263 5.9736 413.481 5.58107 413.882 5.14202C415.114 5.02058 416.43 5.3924 417.627 5.05593C419.529 6.01482 421.963 5.82364 424.463 5.48965C426.228 5.95272 428.041 6.31113 430.231 5.85707C431.86 6.69959 433.58 6.22221 435.29 5.90551C435.546 5.86074 435.83 5.84283 436.112 5.85373C437.368 6.82231 439.567 5.82633 441.116 6.184C442.508 7.4019 444.705 6.24537 446.446 6.43263C446.246 6.23547 446.045 6.03836 445.845 5.84132C445.855 5.43821 446.31 5.272 447.472 5.16926C449.451 4.99418 448.725 4.23601 448.987 3.75354ZM262.153 2.98363L260.344 3.28866C260.947 3.18698 261.549 3.08564 262.153 2.98363ZM319.961 2.56831L314.181 2.22404C316.108 2.3388 318.034 2.45367 319.961 2.56831Z" fill="#FAE465"/>
</svg>
