<svg width="225" height="8" viewBox="0 0 225 8" fill="none" xmlns="http://www.w3.org/2000/svg">
<path d="M224.993 3.75354C225.076 3.44851 224.361 3.63857 224.015 3.57193C223.834 3.36116 223.652 3.15045 223.471 2.93981C223.676 0.972727 223.676 0.972729 222.022 1.555C221.857 1.53144 221.692 1.50786 221.527 1.48427C221.401 1.43254 221.261 1.40025 221.118 1.38934C220.974 1.37844 220.829 1.38915 220.691 1.42083C220.553 1.45251 220.425 1.50451 220.315 1.57369C220.205 1.64287 220.115 1.72781 220.051 1.82339C218.807 1.84373 218.196 0.282968 216.642 1.07725C215.889 1.41372 215.355 1.09314 214.739 0.797319C213.739 0.317093 213.541 0.789894 213.579 1.43051C213.455 1.42546 213.33 1.43782 213.213 1.46695C212.2 0.717766 211.206 0.489863 210.257 1.52476C210.352 0.175475 209.435 0.230643 208.208 0.716891C208.072 0.718091 207.941 0.753514 207.836 0.817296C206.836 0.726596 205.89 -0.381505 204.826 0.729769C204.753 0.71733 204.676 0.716402 204.602 0.727032C204.528 0.737662 204.458 0.759617 204.396 0.7915C204.206 0.649342 203.974 0.540853 203.719 0.474135C203.464 0.407417 203.192 0.384194 202.924 0.406216C201.801 -0.263205 200.832 -0.0512291 199.955 0.688935C199.324 0.610781 198.541 0.680106 198.089 0.426746C196.762 -0.317488 196.607 0.505067 196.214 1.07529C195.341 -0.371913 194.492 0.634692 193.639 1.08998C193.254 0.290784 193.127 0.263854 192.295 0.807076C192.21 0.89025 192.152 0.987201 192.127 1.08998C191.569 1.37998 191.08 1.54684 191.117 0.778599C190.453 0.0167092 189.302 0.0122717 188.243 0.767458L188.206 0.732426C187.4 0.810622 186.438 0.412993 185.848 1.15431C184.164 1.35501 182.688 -0.00928992 180.923 0.796471C180.321 0.439271 179.72 0.0752182 178.899 0.480842C178.287 0.0771589 177.667 -0.24639 176.968 0.393323C176.793 0.410282 176.618 0.427254 176.442 0.444241C176.145 0.415805 175.847 0.387457 175.549 0.359195C174.122 -0.0893812 172.743 -0.274 171.585 0.753676C171.073 0.819451 170.618 -0.0619848 170.063 0.703293C168.566 -0.080343 167.491 0.973981 166.222 1.18579C165.713 1.06117 165.424 0.54946 164.744 0.725207C163.772 -0.10849 163.452 0.372482 163.267 1.12587C162.581 1.11775 162.616 0.290784 161.807 0.421967C160.927 -0.291115 160.553 0.384821 160.071 0.767298C159.86 0.599314 159.454 0.362007 159.337 0.545054C159.173 0.800187 159.337 1.16991 159.361 1.49065C158.737 1.33382 158.176 0.920919 157.437 1.23176C156.2 0.551902 155.876 1.34586 155.415 1.91765C154.936 1.8959 154.456 1.87422 153.977 1.85258C153.849 1.36509 154.541 0.685063 153.469 0.424649C152.527 0.196004 153.282 1.20635 152.549 1.18704C152.048 1.13171 151.61 0.55372 151.038 1.08664C149.932 0.617193 149.776 1.28784 149.483 1.79514C147.428 1.26519 145.37 0.765851 143.202 1.48623C142.404 1.43672 141.566 0.183624 140.816 1.53006C140.78 1.62147 140.755 1.71476 140.738 1.80911C139.927 1.71701 139.091 0.988498 138.316 1.85894C137.375 1.45884 136.691 2.09323 135.874 2.19049C135.775 1.73168 135.272 1.87912 134.897 1.83329C134.115 0.368224 132.886 1.85153 131.921 1.58646L130.982 1.54349C130.1 1.81757 129.316 0.831651 128.408 1.43406C128.343 1.41978 128.275 1.4196 128.21 1.43352C128.145 1.44744 128.087 1.47489 128.043 1.51255C127.063 1.57392 126.063 0.456238 125.101 1.54048C124.09 1.18297 123.71 1.84249 123.145 2.20479L123.145 2.21131C122.048 1.34105 120.575 1.15714 117.261 1.47632C115.59 0.477817 114.343 1.86604 112.856 1.90525C112.521 1.71033 112.112 1.59751 111.685 1.58246C111.259 1.56741 110.838 1.65088 110.478 1.82128C110.395 1.38789 110.46 0.888063 109.57 0.858354C108.813 0.832894 108.951 1.18438 109.024 1.51925C108.838 1.90683 108.405 1.85431 107.992 1.83718C107.251 1.22926 106.748 1.3336 106.469 2.1144C106.105 2.15562 105.976 1.67484 105.537 1.88488C105.19 1.68535 104.785 1.54861 104.355 1.48564C103.924 1.42267 103.479 1.43521 103.056 1.52226C102 1.33785 101.083 1.7286 100.116 1.91165C98.5565 1.21268 93.8041 1.39994 92.2992 2.21943C92.1524 1.49645 91.5854 1.22647 90.8453 1.7341C90.1097 2.23875 89.238 2.13266 88.4266 2.29602C87.6426 1.80944 87.1067 2.40496 86.4655 2.54202L86.4384 2.57099C85.3697 1.99615 84.186 2.1182 82.999 2.25999C81.9226 1.85243 81.7329 3.43225 80.579 2.85092C79.9321 1.88161 79.0066 2.29341 78.1067 2.57771C76.4939 1.8549 74.7983 2.25413 73.1231 2.37668C73.1404 2.32035 73.1462 2.26242 73.1403 2.20482C73.1169 2.16237 73.0769 2.12609 73.0253 2.10067C72.7155 2.29327 72.3524 2.43341 71.9616 2.51127C71.5708 2.58913 71.1617 2.60282 70.763 2.55139C69.4125 1.9824 68.382 2.19157 67.6974 3.24148L67.4731 3.24823C67.3144 1.4866 66.0164 2.23224 64.8876 2.6053C64.4061 2.57721 63.9245 2.54903 63.4428 2.52079C62.5609 1.81815 61.8054 2.57897 60.9892 2.63699C60.8365 2.59802 60.6778 2.57318 60.5168 2.56304C59.1426 1.75889 57.8089 2.46986 56.4604 2.62245C55.6844 1.87117 54.9155 2.20359 54.1471 2.63075C52.504 2.22001 50.8595 1.84678 49.1754 2.52875C48.8677 2.53849 48.56 2.54828 48.2523 2.55812C48.0902 2.56943 47.928 2.58068 47.766 2.59187C47.5071 2.54382 47.2355 2.54778 46.9794 2.60336C46.7232 2.65893 46.4917 2.7641 46.3089 2.908C45.8291 2.78635 45.4628 2.3719 44.8481 2.59823C44.4931 2.60565 44.138 2.61303 43.7829 2.62034C43.1598 2.55047 42.5234 2.64404 41.9838 2.88484C41.9496 2.93628 41.8931 2.97777 41.8233 3.0027C41.7535 3.02764 41.6744 3.03458 41.5987 3.02242C41.8862 3.83841 41.7363 4.25104 41.176 4.28508C41.7361 4.25099 41.8854 3.83812 41.5966 3.02172C41.6726 3.03435 41.7531 3.02753 41.8233 3.0027C41.8931 2.97777 41.9496 2.93628 41.9838 2.88484C40.5494 1.81884 39.2438 2.52733 37.9243 3.04594C37.1499 1.86319 36.2047 3.62978 35.4001 2.96602C34.589 1.52389 33.2362 2.49532 32.0872 2.55899C31.9271 2.58391 31.767 2.6089 31.6069 2.63396C30.3387 3.34618 29.3781 2.26655 28.2236 2.31623C27.4238 2.37297 26.6239 2.42983 25.8241 2.48682C24.8169 1.74085 24.2715 2.28029 23.7528 2.89405C23.6198 2.92717 23.477 2.93219 23.3404 2.90853C23.5845 1.75624 22.577 2.13975 21.8114 2.22657C21.1617 2.01439 20.9105 2.61572 20.3642 2.61448C19.6681 2.78144 19.9039 1.34657 18.8482 2.13195C17.4091 2.12968 15.9729 2.52185 14.5312 2.14895C14.4289 1.96945 14.4082 1.70743 13.9845 1.8526C13.3497 1.82838 12.715 1.80421 12.0801 1.78009C10.9738 1.17558 9.73174 1.61268 8.55758 1.52867C8.4837 1.5063 8.40375 1.49703 8.32416 1.50161C8.24456 1.50619 8.16754 1.52449 8.09922 1.55504C7.28983 1.61673 6.52199 0.681901 5.68104 1.49987L5.67065 1.50391C4.65389 1.47582 3.60244 1.31014 2.74227 1.90622C1.81541 1.96457 2.34231 2.6918 1.86068 2.95506C1.67081 3.26202 1.9156 3.75657 1.33585 3.87999C-1.26616 4.43362 0.629312 5.38487 1.23181 5.78641C2.41083 6.57199 3.46089 7.51178 5.65187 7.18435C6.80132 7.01265 8.23374 6.6629 9.56631 6.94914C11.1902 6.58192 12.9334 6.62686 14.5187 7.07681C17.1928 7.75173 20.0974 7.73546 22.7573 7.03065C23.1195 7.45464 23.7613 7.23149 24.2419 7.38144C25.2341 8.08378 25.3521 7.28773 25.7148 6.91112L25.7084 6.87027C26.7094 7.68981 27.7927 8.13437 29.1601 7.2851C30.787 8.221 32.4196 7.22761 34.0493 7.29425C36.776 8.06713 39.5977 7.55616 42.3761 7.63167C43.0258 7.89105 43.6735 8.25405 44.3387 7.65094C44.5269 7.50721 44.7571 7.39728 45.0117 7.3296C45.2662 7.26192 45.5383 7.23828 45.8071 7.2605C45.9257 7.64013 46.3619 7.62137 46.7446 7.66984C47.6025 8.09898 48.3586 8.23726 48.7344 7.28881L50.1991 7.22728C50.519 7.37083 50.8388 7.5143 51.1586 7.65766C52.1185 8.48991 52.5268 7.45362 53.2037 7.32718L53.1558 7.3049C53.646 7.37579 54.0053 7.81199 54.6008 7.58762C55.2187 7.78828 55.0262 6.33555 56.0572 7.22904C56.9325 7.98738 58.0168 7.61465 59.0244 7.29993C60.0153 7.75626 60.8489 7.53773 61.6013 6.97105L62.9444 7.18694C63.7981 7.96192 64.7689 8.07279 66.0828 7.76476C66.7659 7.52918 67.5055 7.39635 68.2586 7.37399C69.7485 7.43271 71.2164 7.88484 72.7305 7.59324C73.888 7.70478 74.5952 6.42007 75.7516 6.91746C78.5353 8.11432 81.238 7.72586 83.9798 6.92221C84.0058 7.13137 84.0317 7.34048 84.0576 7.54953C85.0459 6.89587 86.562 7.86005 87.464 6.94147C88.0467 6.83381 88.6295 6.7262 89.2123 6.61862C90.6204 7.53596 92.0341 7.75713 93.459 6.6379C93.8951 6.48918 94.3313 6.34054 94.7674 6.19196C95.5613 7.59092 96.434 7.1029 97.3219 6.25031C97.406 6.2639 97.4912 6.27352 97.5769 6.2791C98.5929 7.01855 99.8607 6.9496 101.127 6.88437C101.938 6.75953 102.749 6.63476 103.56 6.51006C104.301 6.62816 105.05 6.78624 105.651 6.26091C107.552 5.84721 109.592 5.961 111.388 6.58095C112.712 7.36144 112.662 6.04555 113.361 5.87299C114.362 5.82541 115.153 6.78818 116.267 6.20488C118.067 6.31485 119.868 6.42482 121.669 6.5348C122.157 7.06789 122.647 6.97756 123.139 6.53724C124.209 6.02272 125.489 6.6803 126.566 6.20148C127.376 6.35601 128.175 6.98867 129.006 6.23312C129.333 6.19727 129.66 6.16138 129.986 6.12547C130.907 6.44939 131.919 7.26005 132.515 5.86464C132.786 5.96404 133.057 6.06342 133.327 6.16276C133.874 6.28598 134.421 6.4091 134.968 6.53212C135.828 6.67679 136.559 5.63409 137.731 6.57136C138.114 6.87692 140.768 7.27458 141.745 5.85564C142.064 5.86711 142.382 5.87854 142.7 5.88993C143.684 6.10458 144.667 6.31936 145.65 6.53426C147.426 6.27612 149.42 7.02122 151.006 5.89525C151.314 6.17267 151.822 6.05065 152.069 6.11717C153.249 6.43453 154.126 4.96856 154.592 5.56747C155.522 6.76483 156.389 5.99888 157.324 5.86605C158.501 6.30564 159.655 5.58105 160.828 5.82735C162.957 6.36345 165.016 4.80132 167.157 5.71437C168.147 5.87134 169.169 5.88449 170.166 5.75308C171.965 6.26887 173.613 4.58911 175.444 5.55419L175.491 5.37737C176.323 5.68603 177.249 5.82974 178.179 5.79448C179.109 5.75921 180.01 5.54617 180.795 5.17617C181.376 5.8028 181.977 6.31591 182.83 5.36801C183.005 5.36891 183.18 5.36974 183.355 5.37048C183.516 5.4039 183.676 5.43737 183.836 5.47088C184.593 6.06537 185.46 5.40159 186.252 5.5867C187.169 6.22253 187.394 5.44542 187.858 5.1569C187.921 5.1732 187.989 5.178 188.055 5.17089C188.121 5.16378 188.184 5.14497 188.238 5.11605L188.193 5.15615C188.85 5.92057 189.929 5.0386 190.663 5.5029C192.054 5.83816 193.467 6.32902 194.631 5.1735C196.842 5.90448 199.147 5.12629 201.386 5.40462C202.071 5.53914 202.757 5.6737 203.442 5.8083C204.343 5.62917 205.149 5.02482 206.203 5.71896C206.59 5.9736 207.201 5.58107 207.402 5.14202C208.019 5.02058 208.679 5.3924 209.278 5.05593C210.232 6.01482 211.451 5.82364 212.704 5.48965C213.589 5.95272 214.497 6.31113 215.595 5.85707C216.411 6.69959 217.273 6.22221 218.129 5.90551C218.258 5.86074 218.4 5.84283 218.542 5.85373C219.171 6.82231 220.273 5.82633 221.049 6.184C221.747 7.4019 222.848 6.24537 223.72 6.43263C223.62 6.23547 223.519 6.03836 223.419 5.84132C223.424 5.43821 223.652 5.272 224.234 5.16926C225.226 4.99418 224.862 4.23601 224.993 3.75354ZM131.368 2.98363L130.462 3.28866C130.764 3.18698 131.066 3.08564 131.368 2.98363ZM160.337 2.56831L157.44 2.22404C158.406 2.3388 159.371 2.45367 160.337 2.56831Z" fill="#FAE465"/>
</svg>
