<svg width="292" height="114" viewBox="0 0 292 114" fill="none" xmlns="http://www.w3.org/2000/svg">
<path d="M233.951 108.341C234.597 109.082 235.389 109.679 236.276 110.096C237.164 110.513 238.128 110.741 239.107 110.764C240.368 111.04 241.502 111.732 242.328 112.73C239.613 114.777 236.54 113.804 233.989 113.517C226.212 112.644 218.532 110.978 210.707 110.269C206.067 109.85 201.495 108.623 196.854 108.277C192.447 107.949 188.08 107.413 183.697 106.91C176.149 106.042 168.58 105.369 161.018 104.624C160.451 104.568 159.877 104.584 159.306 104.582C149.961 104.549 140.691 103.261 131.37 102.902C125.826 102.688 120.268 102.859 114.716 102.858C106.374 102.857 98.0208 102.587 89.6926 102.931C80.5732 103.308 71.44 103.05 62.3451 103.542C54.1722 103.984 46.0087 103.717 37.8521 104.051C32.1103 104.404 26.3479 104.188 20.6483 103.406C19.956 103.408 19.2718 103.256 18.6454 102.959C18.019 102.663 17.4661 102.23 17.0267 101.692C19.3476 98.6058 23.0802 100.701 25.6771 99.0416C22.5229 98.2012 20.2352 95.5638 17.0561 94.1353C19.8313 92.1608 23.1384 92.2949 26.4636 90.219C24.2664 90.219 22.8168 90.1286 21.384 90.2457C20.0815 90.3521 19.6692 89.4471 19.553 88.581C19.4314 87.6747 20.2561 87.3558 21.1086 87.3577C22.6459 87.361 24.1831 87.3586 26.0124 87.3586C23.5905 85.5637 18.8658 86.9932 20.024 81.6891C20.3943 81.4592 21.3627 81.5275 22.0216 80.4012C20.325 80.8083 18.8823 81.2679 17.4045 81.4764C15.9766 81.6779 14.3847 81.8007 14.4421 79.3984C13.8573 78.9437 12.6937 79.816 11.92 78.5771C13.2128 77.919 14.6285 77.5411 16.0757 77.4677C15.2236 75.6922 13.7447 75.9233 12.0907 75.7674C13.5702 73.5059 11.5707 71.4052 11.8489 69.2179C8.9819 67.7653 8.42935 65.1135 8.89093 61.9928C4.90501 59.9079 10.2793 56.5497 7.96683 54.2548C6.50442 53.7424 5.52865 55.9363 3.91217 54.7296L6.93046 52.0273C5.58595 51.6169 4.29766 51.7857 3.46609 50.5994C3.33802 50.0292 4.22689 49.7677 4.37156 49.1118C3.5724 48.6032 2.97852 49.4179 2.29413 49.5496C1.40213 49.7212 0.545973 49.8102 0.150309 49.0627C-0.331158 48.1532 0.432929 47.6774 1.18699 47.0961C5.49013 43.7781 10.6571 42.3334 15.5405 40.3119C23.2714 37.1118 31.07 34.0725 38.8862 31.0875C45.1435 28.6978 51.4647 26.4764 57.7663 24.2048C66.2336 21.1529 74.6604 17.9775 83.1922 15.1191C97.1143 10.455 111.006 5.66624 125.242 2.02647C128.663 1.15183 132.186 0.66524 135.676 0.0865544C136.567 -0.0609505 137.616 -0.165334 138.171 1.05579C138.134 2.35516 136.442 2.64718 136.215 4.00117C142.736 2.71078 148.794 -1.52373 155.913 1.30201C152.915 2.1938 149.089 0.927953 146.989 4.52002C148.138 4.63163 149.137 4.72863 150.469 4.85818C149.11 6.62903 147.034 6.71307 145.457 8.2662C147.23 8.14373 148.794 7.74373 150.014 8.94801C149.216 11.3328 147.108 12.5363 144.932 14.3235C148.502 14.5379 151.304 11.4632 154.541 13.1967C154.5 14.5021 153.076 14.7519 152.854 16.0048C155.799 16.5188 158.607 15.5448 161.448 15.3506C166.848 14.8561 172.294 15.3307 177.529 16.7523C180.22 17.4171 182.731 18.6701 184.885 20.4219C186.624 21.9237 189.538 20.476 191.725 19.9956C196.241 19.1458 200.821 18.6784 205.415 18.5985C212.028 18.2786 218.665 17.8551 225.29 17.9253C230.593 17.9817 235.93 17.5472 241.208 18.4477C242.285 18.6316 243.342 18.9403 244.475 19.2071C243.751 22.1613 240.754 20.3862 239.167 21.7775C242.326 23.2672 245.162 25.0928 248.495 23.5807C251.799 22.0819 255.209 23.6192 258.508 23.009C262.091 22.2836 265.749 22.0057 269.399 22.1814C274.789 22.561 280.265 21.3178 285.596 22.9784C286.432 23.1881 287.174 23.6725 287.705 24.3548C287.12 26.0413 285.705 25.8594 284.318 25.9364C283.405 25.9871 282.2 25.3098 281.935 27.2912C281.69 29.1228 282.709 29.5713 283.802 29.8478C284.239 29.9193 284.655 30.0822 285.025 30.3258C285.395 30.5695 285.71 30.8885 285.949 31.2622C284.273 33.1747 281.557 31.3452 279.867 33.0726C281.384 34.0796 279.965 34.3897 279.233 34.8588C281.384 35.9117 284.068 35.1479 286.063 36.9108C284.44 38.1981 282.627 37.8665 280.884 38.071C282.027 39.9023 284.552 38.3629 285.629 40.3033C285.664 42.1629 283.486 43.2556 283.7 45.2558C285.348 46.0613 285.626 43.6063 287.039 43.808C286.349 46.3733 286.054 46.5893 277.524 50.7917C279.486 52.0915 279.486 52.0915 287.975 50.9584C287.098 52.5133 285.795 53.7811 284.22 54.6099C284.958 58.4138 284.918 58.3271 288.664 56.613C289.556 56.2045 291.002 54.8398 292 57.1047C287.194 61.9364 280.864 63.4571 274.073 65.2201C277.378 66.2155 280.71 64.9355 283.114 67.4562C282.576 68.1887 281.637 68.2828 280.848 68.6529C282.277 70.0968 284.46 67.8478 285.739 69.9082C284.655 71.1126 282.578 70.6957 281.203 72.1047C283.272 73.0254 285.688 71.486 287.54 73.5454C285.421 74.9716 282.942 75.7632 280.393 75.8279C271.412 76.4209 262.543 77.7678 253.657 79.154C249.548 79.7951 245.475 80.5797 241.159 81.1006C242.338 82.4226 243.311 83.5136 244.276 84.5963C242.55 86.6162 240.484 86.0141 238.477 85.4776C234.74 84.2792 230.865 83.5711 226.948 83.3708C225.229 83.4376 223.528 83.7432 221.892 84.2788C228.596 87.0379 236.177 86.7141 242.915 90.0061C241.651 92.0871 239.911 91.4031 238.356 91.1399C233.039 90.2401 227.836 88.6148 222.353 88.6791C228.928 90.3778 235.797 90.8542 242.2 93.4189C239.571 97.4165 238.884 97.8107 235.118 96.4197C233.345 95.9968 231.507 95.9332 229.709 96.2327C232.866 96.9609 236.029 97.6591 239.172 98.4434C239.773 98.6885 240.337 99.0167 240.847 99.4186C239.698 101.035 238.432 100.966 236.613 100.653C228.035 99.1814 219.51 97.3255 210.684 97.5925C206.419 97.7214 202.123 96.8249 197.81 97.1292C197.492 97.1925 197.181 97.2852 196.88 97.4059C211.55 99.8192 226.301 100.511 240.731 105.178C238.23 106.142 237.526 110.093 233.921 108.372C228.226 106.796 222.397 105.762 216.51 105.283C219.133 106.477 221.954 107.17 224.829 107.325C227.874 107.624 230.782 109.314 233.951 108.341ZM236.16 24.6733C217.348 25.8346 198.935 29.9175 179.619 32.7511C182.509 34.2199 228.924 27.5445 236.16 24.6733ZM150.663 22.0618C154.275 21.2378 157.365 22.4565 160.439 22.3759C163.662 22.2913 166.874 20.9845 170.169 21.5769C173.547 22.153 177.01 21.9552 180.302 20.9984C176.112 17.8888 154.628 18.4533 150.663 22.0618ZM225.802 21.2105C221.079 20.219 193.216 22.2057 189.273 23.8506C195.796 24.0124 201.688 22.3302 207.683 22.4808C213.762 22.6335 219.747 21.5412 225.802 21.2105ZM252.453 73.0374C258.677 72.0944 264.902 71.1516 271.127 70.2089L271 69.4521C264.613 69.0077 258.22 70.2433 252.453 73.0374ZM13.863 59.3742C19.0594 56.5712 25.0573 55.8105 30.1663 52.9133C29.5576 51.3277 28.5616 51.063 27.5376 51.9836C25.3192 53.978 22.4965 54.6378 19.8736 55.7324C17.6009 56.4269 15.5355 57.6784 13.863 59.3742ZM133.315 12.9484C137.279 13.5529 142.895 11.1848 144.79 8.05007C140.931 9.79635 136.625 10.0382 133.315 12.9484ZM127.356 18.7945L127.088 17.991C123.873 19.114 120.658 20.2369 117.443 21.3598C117.511 21.562 117.578 21.7642 117.645 21.9664C120.882 20.9092 124.119 19.8519 127.356 18.7945ZM53.0323 42.4104C55.7952 42.0151 58.4111 40.9139 60.6299 39.2122C57.8734 39.6304 55.2629 40.7292 53.0323 42.4104Z" fill="#FAE465"/>
</svg>
