<svg width="164" height="51" viewBox="0 0 164 51" fill="none" xmlns="http://www.w3.org/2000/svg">
<path d="M131.397 48.4685C131.76 48.7997 132.205 49.067 132.703 49.2536C133.202 49.4402 133.743 49.5419 134.293 49.5524C135.001 49.6759 135.638 49.9855 136.102 50.4318C134.577 51.3476 132.851 50.9121 131.419 50.7841C127.051 50.3935 122.737 49.6479 118.342 49.3311C115.736 49.1432 113.168 48.5946 110.562 48.4399C108.087 48.293 105.634 48.0532 103.172 47.8279C98.9333 47.44 94.6817 47.1386 90.4347 46.8055C90.1164 46.7805 89.7938 46.7877 89.4731 46.7868C84.2249 46.7717 79.0184 46.1955 73.7832 46.035C70.6696 45.9395 67.5478 46.0158 64.4297 46.0155C59.7443 46.0151 55.0528 45.8941 50.3753 46.048C45.2534 46.2165 40.1239 46.1012 35.0157 46.3215C30.4255 46.5193 25.8405 46.3997 21.2594 46.5493C18.0346 46.7072 14.7981 46.6105 11.597 46.2604C11.2082 46.2615 10.8239 46.1933 10.4721 46.0607C10.1203 45.9282 9.80972 45.7345 9.56295 45.4939C10.8665 44.1131 12.9629 45.0503 14.4214 44.3081C12.6499 43.9321 11.365 42.7522 9.57948 42.1132C11.1381 41.2298 12.9956 41.2898 14.8631 40.3611C13.6291 40.3611 12.8149 40.3207 12.0102 40.3731C11.2786 40.4207 11.0471 40.0158 10.9818 39.6283C10.9135 39.2229 11.3767 39.0802 11.8555 39.0811C12.7189 39.0825 13.5823 39.0815 14.6097 39.0815C13.2494 38.2785 10.5959 38.918 11.2464 36.5451C11.4543 36.4423 11.9982 36.4728 12.3683 35.9689C11.4154 36.1511 10.6051 36.3567 9.77515 36.45C8.97314 36.5401 8.07906 36.595 8.11133 35.5203C7.78288 35.3169 7.12932 35.7072 6.69481 35.1529C7.42087 34.8585 8.21601 34.6894 9.0288 34.6566C8.55024 33.8623 7.71965 33.9657 6.79066 33.8959C7.6216 32.8842 6.49862 31.9444 6.65488 30.9659C5.04463 30.3161 4.73429 29.1297 4.99354 27.7336C2.75487 26.8009 5.77329 25.2986 4.47452 24.2719C3.65317 24.0427 3.10513 25.0241 2.19725 24.4843L3.89245 23.2754C3.13732 23.0918 2.41376 23.1673 1.94671 22.6366C1.87478 22.3815 2.374 22.2645 2.45526 21.9711C2.00642 21.7435 1.67287 22.108 1.28849 22.1669C0.787495 22.2437 0.306643 22.2835 0.0844203 21.9491C-0.185993 21.5422 0.243152 21.3294 0.666667 21.0693C3.0835 19.5849 5.98549 18.9386 8.72823 18.0343C13.0702 16.6027 17.4503 15.243 21.8402 13.9076C25.3546 12.8385 28.9048 11.8447 32.4441 10.8285C37.1997 9.46312 41.9326 8.04255 46.7244 6.76382C54.5437 4.67725 62.3457 2.5349 70.3414 0.906579C72.2629 0.515293 74.2414 0.297607 76.2018 0.0387217C76.7018 -0.0272673 77.2912 -0.0739652 77.6032 0.472328C77.5819 1.05362 76.6318 1.18426 76.5042 1.79C80.1666 1.21272 83.569 -0.681668 87.5676 0.582476C85.8839 0.981439 83.735 0.415137 82.5556 2.02211C83.2009 2.07205 83.762 2.11544 84.5102 2.1734C83.747 2.96562 82.5805 3.00322 81.6951 3.69804C82.691 3.64325 83.5692 3.4643 84.2543 4.00306C83.8062 5.06994 82.6224 5.60835 81.4002 6.40789C83.4055 6.50381 84.9787 5.12826 86.7972 5.90379C86.7737 6.48776 85.974 6.59951 85.8493 7.16003C87.5034 7.38998 89.0808 6.95426 90.676 6.86735C93.7094 6.64613 96.7676 6.85846 99.7082 7.49443C101.219 7.79187 102.63 8.35239 103.839 9.13612C104.816 9.80798 106.453 9.16034 107.681 8.9454C110.218 8.5652 112.79 8.35614 115.37 8.32038C119.084 8.17728 122.812 7.98782 126.533 8.01923C129.511 8.04444 132.509 7.85008 135.473 8.25292C136.078 8.33517 136.671 8.47327 137.308 8.59264C136.901 9.91426 135.218 9.12014 134.327 9.74257C136.101 10.409 137.694 11.2257 139.566 10.5493C141.422 9.87875 143.337 10.5665 145.189 10.2935C147.202 9.96899 149.256 9.84464 151.307 9.92327C154.334 10.0931 157.409 9.53691 160.403 10.2798C160.873 10.3736 161.289 10.5903 161.588 10.8956C161.259 11.65 160.464 11.5687 159.686 11.6031C159.172 11.6258 158.496 11.3228 158.347 12.2092C158.21 13.0286 158.782 13.2293 159.396 13.3529C159.641 13.385 159.875 13.4578 160.083 13.5668C160.29 13.6758 160.467 13.8185 160.602 13.9857C159.66 14.8413 158.135 14.0228 157.186 14.7956C158.038 15.2461 157.241 15.3849 156.83 15.5947C158.038 16.0657 159.545 15.724 160.665 16.5127C159.754 17.0886 158.736 16.9403 157.757 17.0318C158.399 17.851 159.817 17.1623 160.422 18.0304C160.441 18.8624 159.218 19.3512 159.338 20.246C160.264 20.6064 160.42 19.5081 161.214 19.5983C160.826 20.746 160.66 20.8426 155.869 22.7226C156.971 23.3041 156.971 23.3041 161.739 22.7972C161.247 23.4928 160.515 24.06 159.63 24.4307C160.045 26.1325 160.023 26.0937 162.126 25.3269C162.628 25.1441 163.44 24.5336 164 25.5468C161.301 27.7084 157.746 28.3887 153.931 29.1774C155.788 29.6227 157.659 29.0501 159.009 30.1778C158.707 30.5055 158.18 30.5476 157.737 30.7131C158.539 31.3591 159.765 30.353 160.484 31.2747C159.875 31.8135 158.708 31.627 157.936 32.2574C159.098 32.6693 160.455 31.9806 161.495 32.9019C160.305 33.5399 158.913 33.8941 157.481 33.923C152.437 34.1883 147.455 34.7909 142.465 35.411C140.157 35.6978 137.87 36.0488 135.446 36.2818C136.108 36.8733 136.654 37.3613 137.196 37.8457C136.227 38.7494 135.066 38.48 133.939 38.24C131.84 37.7039 129.664 37.3871 127.464 37.2975C126.499 37.3274 125.543 37.464 124.624 37.7037C128.39 38.938 132.647 38.7932 136.432 40.2659C135.722 41.1969 134.744 40.8909 133.871 40.7731C130.885 40.3706 127.963 39.6435 124.883 39.6722C128.576 40.4322 132.434 40.6453 136.03 41.7927C134.554 43.5811 134.168 43.7574 132.053 43.1351C131.057 42.9459 130.024 42.9175 129.015 43.0515C130.788 43.3772 132.564 43.6896 134.329 44.0404C134.667 44.1501 134.984 44.2969 135.27 44.4767C134.625 45.1999 133.914 45.1688 132.892 45.0292C128.074 44.3706 123.287 43.5404 118.329 43.6598C115.934 43.7175 113.521 43.3164 111.099 43.4525C110.92 43.4809 110.745 43.5223 110.577 43.5763C118.816 44.656 127.101 44.9656 135.205 47.0533C133.801 47.4848 133.405 49.252 131.38 48.4821C128.182 47.7772 124.908 47.3146 121.602 47.1002C123.075 47.6346 124.659 47.9444 126.274 48.0138C127.984 48.1478 129.617 48.9038 131.397 48.4685ZM132.638 11.038C122.072 11.5576 111.73 13.3841 100.882 14.6518C102.505 15.3089 128.574 12.3225 132.638 11.038ZM84.6187 9.86974C86.6476 9.50113 88.3829 10.0463 90.1096 10.0103C91.9196 9.97243 93.7237 9.38782 95.5743 9.65284C97.4714 9.91054 99.4167 9.82208 101.265 9.39403C98.9122 8.0029 86.8459 8.25543 84.6187 9.86974ZM126.821 9.48889C124.168 9.04535 108.519 9.93412 106.304 10.67C109.967 10.7424 113.277 9.98982 116.644 10.0572C120.058 10.1255 123.42 9.63686 126.821 9.48889ZM141.788 32.6746C145.284 32.2528 148.781 31.831 152.277 31.4092L152.205 31.0707C148.618 30.8719 145.028 31.4246 141.788 32.6746ZM7.78606 26.5622C10.7046 25.3082 14.0733 24.9678 16.9427 23.6717C16.6008 22.9624 16.0414 22.844 15.4663 23.2558C14.2204 24.148 12.635 24.4432 11.1619 24.9329C9.88544 25.2436 8.72541 25.8035 7.78606 26.5622ZM74.8758 5.79272C77.1017 6.06315 80.2561 5.00374 81.3205 3.60134C79.1532 4.38258 76.7344 4.49076 74.8758 5.79272ZM71.5285 8.40807L71.3781 8.04861C69.5725 8.55098 67.7669 9.05334 65.9614 9.55571C65.9992 9.64614 66.0369 9.7366 66.0746 9.82708C67.8926 9.35409 69.7106 8.8811 71.5285 8.40807ZM29.7853 18.9731C31.337 18.7962 32.8062 18.3036 34.0524 17.5423C32.5042 17.7294 31.0381 18.221 29.7853 18.9731Z" fill="#FAE465"/>
</svg>
