<svg width="43" height="33" viewBox="0 0 43 33" fill="none" xmlns="http://www.w3.org/2000/svg">
<path d="M27.3536 17.3536C27.5488 17.1583 27.5488 16.8417 27.3536 16.6464L24.1716 13.4645C23.9763 13.2692 23.6597 13.2692 23.4645 13.4645C23.2692 13.6597 23.2692 13.9763 23.4645 14.1716L26.2929 17L23.4645 19.8284C23.2692 20.0237 23.2692 20.3403 23.4645 20.5355C23.6597 20.7308 23.9763 20.7308 24.1716 20.5355L27.3536 17.3536ZM0 17.5H27V16.5H0V17.5Z" fill="black"/>
<path d="M14.6562 26.5C17.4995 29.8639 21.75 32 26.4994 32C35.0598 32 41.9994 25.0604 41.9994 16.5C41.9994 7.93959 35.0598 1 26.4994 1C21.75 1 17.4995 3.13611 14.6562 6.5" stroke="black"/>
</svg>
