<svg width="107" height="21" viewBox="0 0 107 21" fill="none" xmlns="http://www.w3.org/2000/svg">
<path fill-rule="evenodd" clip-rule="evenodd" d="M16.3131 4.94101C16.3131 7.67011 14.0994 9.88257 11.3684 9.88257C8.63737 9.88257 6.42358 7.67011 6.42358 4.94101C6.42358 2.21245 8.63737 0 11.3684 0C14.0994 0 16.3131 2.21245 16.3131 4.94101ZM4.94483 11.118C2.2139 11.118 0 13.3298 0 16.0589C0 18.7878 2.2139 21 4.94483 21C7.67588 21 9.88988 18.7878 9.88988 16.0589C9.88988 13.3298 7.67588 11.118 4.94483 11.118ZM17.7919 11.1175C15.061 11.1175 12.8471 13.3298 12.8471 16.0589C12.8471 18.7878 15.061 21 17.7919 21C20.5228 21 22.7367 18.7878 22.7367 16.0589C22.7367 13.3298 20.5228 11.1175 17.7919 11.1175Z" fill="#3F3F3F"/>
<path fill-rule="evenodd" clip-rule="evenodd" d="M40.1364 15.9993C40.2009 16.7323 40.7877 17.6653 41.8042 17.6653H42.399C42.6296 17.6653 42.8186 17.4765 42.8186 17.2459V4.17461H42.816C42.8039 3.9544 42.6219 3.77803 42.399 3.77803H40.556C40.3331 3.77803 40.1511 3.9544 40.1387 4.17461H40.1364V5.23673C39.0072 3.84585 37.2269 3.26855 35.4415 3.26855C31.3835 3.26855 28.0938 6.55832 28.0938 10.6167C28.0938 14.6753 31.3835 17.9652 35.4415 17.9652V17.9655C37.2269 17.9655 39.1725 17.2729 40.1362 15.9976L40.1364 15.9993ZM35.4488 15.3934C32.8679 15.3934 30.7755 13.255 30.7755 10.6167C30.7755 7.97887 32.8679 5.84035 35.4488 5.84035C38.0296 5.84035 40.1217 7.97887 40.1217 10.6167C40.1217 13.255 38.0296 15.3934 35.4488 15.3934Z" fill="#3F3F3F"/>
<path fill-rule="evenodd" clip-rule="evenodd" d="M70.1638 15.9993C70.2283 16.7323 70.815 17.6653 71.8316 17.6653H72.4264C72.6569 17.6653 72.8457 17.4765 72.8457 17.2459V4.17461H72.8433C72.8313 3.9544 72.649 3.77803 72.4264 3.77803H70.5833C70.3605 3.77803 70.1784 3.9544 70.1659 4.17461H70.1638V5.23673C69.0345 3.84585 67.2541 3.26855 65.4688 3.26855C61.4107 3.26855 58.1211 6.55832 58.1211 10.6167C58.1211 14.6753 61.4107 17.9652 65.4688 17.9652V17.9655C67.2541 17.9655 69.1999 17.2729 70.1636 15.9976L70.1638 15.9993ZM65.4759 15.3934C62.8952 15.3934 60.8028 13.255 60.8028 10.6167C60.8028 7.97887 62.8952 5.84035 65.4759 5.84035C68.057 5.84035 70.149 7.97887 70.149 10.6167C70.149 13.255 68.057 15.3934 65.4759 15.3934Z" fill="#3F3F3F"/>
<path fill-rule="evenodd" clip-rule="evenodd" d="M103.73 15.9993C103.795 16.7323 104.381 17.6653 105.398 17.6653H105.993C106.223 17.6653 106.412 17.4765 106.412 17.2459V4.17461H106.41C106.398 3.9544 106.216 3.77803 105.993 3.77803H104.15C103.927 3.77803 103.745 3.9544 103.733 4.17461H103.73V5.23673C102.601 3.84585 100.821 3.26855 99.0354 3.26855C94.9771 3.26855 91.6875 6.55832 91.6875 10.6167C91.6875 14.6753 94.9771 17.9652 99.0354 17.9652V17.9655C100.821 17.9655 102.766 17.2729 103.73 15.9976L103.73 15.9993ZM99.0425 15.3934C96.4616 15.3934 94.3692 13.255 94.3692 10.6167C94.3692 7.97887 96.4616 5.84035 99.0425 5.84035C101.623 5.84035 103.716 7.97887 103.716 10.6167C103.716 13.255 101.623 15.3934 99.0425 15.3934Z" fill="#3F3F3F"/>
<path fill-rule="evenodd" clip-rule="evenodd" d="M89.3588 16.4485L89.3579 9.68468H89.3581C89.3581 5.87194 86.9528 3.2998 83.1172 3.2998C81.2863 3.2998 79.7854 4.35858 79.2553 5.26809C79.1407 4.55692 78.7631 3.80939 77.5923 3.80939H76.9955C76.7647 3.80939 76.5762 3.99836 76.5762 4.22895V16.0317V16.0335V17.3014H76.5785C76.5906 17.5212 76.7728 17.6978 76.9957 17.6978H78.8387C78.867 17.6978 78.8946 17.6945 78.9214 17.6892C78.9336 17.6869 78.9449 17.6821 78.9568 17.6787C78.9705 17.6745 78.9848 17.6713 78.9978 17.6659C79.0142 17.6591 79.029 17.65 79.0443 17.6415C79.0518 17.6369 79.0596 17.6337 79.0669 17.6289C79.0853 17.6171 79.1021 17.6028 79.1184 17.5882C79.1211 17.5855 79.1243 17.5837 79.127 17.5812C79.1453 17.5635 79.162 17.544 79.1768 17.5237L79.177 17.5233C79.2231 17.46 79.2511 17.3837 79.2557 17.3014H79.2581V9.57982C79.2581 7.53211 80.9183 5.87194 82.9661 5.87194C85.0138 5.87194 86.674 7.53211 86.674 9.57982L86.6757 16.034L86.6761 16.0317C86.6761 16.0374 86.677 16.0433 86.677 16.0495V17.3014H86.6795C86.6916 17.5212 86.8737 17.6978 87.0966 17.6978H88.9397C88.968 17.6978 88.9956 17.6945 89.0222 17.6892C89.0332 17.6872 89.0432 17.6829 89.0539 17.6799C89.069 17.6755 89.0845 17.6717 89.099 17.6659C89.114 17.6597 89.1278 17.651 89.142 17.6429C89.1507 17.638 89.1599 17.6345 89.1683 17.6289C89.1852 17.6177 89.2008 17.6042 89.2161 17.5908C89.22 17.5873 89.2244 17.5846 89.228 17.5809C89.2456 17.5641 89.2611 17.5459 89.2753 17.5268C89.2763 17.5254 89.2775 17.5242 89.2786 17.5228C89.324 17.46 89.3518 17.3842 89.3566 17.3025C89.3566 17.3019 89.3568 17.3014 89.3568 17.3014H89.3592V16.4487L89.3588 16.4485Z" fill="#3F3F3F"/>
<path fill-rule="evenodd" clip-rule="evenodd" d="M47.2193 14.1274C48.4497 14.9798 49.7926 15.3937 51.0833 15.3937C52.3128 15.3937 53.5839 14.7563 53.5839 13.6469C53.5839 12.1657 50.8141 11.9352 49.0739 11.3437C47.3334 10.7523 45.8343 9.5296 45.8343 7.54961C45.8343 4.51987 48.5338 3.26855 51.0534 3.26855C52.6498 3.26855 54.2969 3.79498 55.3648 4.5491C55.7326 4.82777 55.5086 5.14771 55.5086 5.14771L54.4892 6.60362C54.3747 6.7676 54.1743 6.90928 53.8867 6.73179C53.5992 6.55442 52.5905 5.84047 51.0534 5.84047C49.5161 5.84047 48.5901 6.5504 48.5901 7.43035C48.5901 8.48556 49.7937 8.81743 51.2033 9.17709C53.6599 9.83928 56.3396 10.6352 56.3396 13.6469C56.3396 16.3163 53.8428 17.966 51.0833 17.966C48.9921 17.966 47.2116 17.3698 45.7184 16.274C45.4073 15.9627 45.6246 15.6736 45.6246 15.6736L46.6389 14.2251C46.8453 13.9542 47.1055 14.0487 47.2193 14.1274Z" fill="#3F3F3F"/>
</svg>
