<svg width="27" height="23" viewBox="0 0 27 23" fill="none" xmlns="http://www.w3.org/2000/svg">
<path d="M5.79015 19.861C5.83626 19.8964 5.88846 19.9231 5.94416 19.9397C5.91193 20.1016 5.81731 20.1771 5.51969 20.2792C5.25411 20.2187 4.64441 20.2975 4.74501 20.1268L4.81248 20.1182C4.80732 20.056 4.71613 19.9643 4.6019 19.8935C4.55843 19.8228 4.51812 19.7731 4.46395 19.7949C4.44549 19.8616 4.43664 19.9305 4.43769 19.9997C4.43715 20.048 4.4261 20.0956 4.40532 20.1392C4.38455 20.1828 4.35455 20.2213 4.31739 20.2522C4.1025 20.3054 3.85969 20.242 3.83444 20.0953C3.71753 20.1928 3.58809 20.2903 3.44612 20.3878C3.42572 20.3854 3.40616 20.3783 3.38893 20.3672C3.3717 20.356 3.35726 20.341 3.34675 20.3234C3.4093 20.1658 3.4971 20.0337 3.55868 19.8991C3.59974 19.897 3.64055 19.8913 3.68066 19.8822C3.78734 19.7353 4.02465 19.5689 4.02135 19.4509C3.88201 19.4494 3.87327 19.4309 3.78256 19.3137C3.8325 19.2659 3.86987 19.2066 3.89134 19.141C3.89504 19.1278 3.89784 19.1144 3.89971 19.1009L3.90176 19.0807L3.90267 19.0474C3.90315 18.9535 3.90081 18.8575 3.89712 18.7606C3.867 18.3911 3.86236 18.0199 3.88326 17.6498C3.4223 17.0166 4.10627 15.7143 3.53859 15.2303C3.65579 14.1841 3.29372 14.0723 3.03217 13.5177C3.33786 12.7085 3.42153 14.5734 3.71308 14.1435C3.8123 12.9623 3.64594 11.6734 3.67874 10.4659C3.48188 10.1621 3.26532 10.6866 3.21511 10.056C3.33686 10.2644 3.55954 10.0326 3.56207 9.80848C3.53051 10.0532 3.46605 9.80274 3.39973 9.77506L3.35942 9.95255C2.87078 10.0795 3.40758 9.10413 3.16414 8.68564C3.32872 8.49414 3.1616 8.90971 3.32332 8.94204C3.54333 8.93319 3.80292 8.74766 3.88641 8.17051C3.61242 7.03252 4.10919 6.23384 4.00878 4.97262C3.82645 5.02895 3.90678 4.67534 3.88044 4.47217C4.04 4.72827 4.22706 4.22515 4.25886 3.98042C4.15758 3.682 3.80417 3.638 3.83802 3.1695L3.5002 3.48475C3.45984 3.66143 3.60558 4.29835 3.67812 4.61615C3.29372 4.81626 3.85132 6.19611 3.32772 6.05118L3.39634 5.85307C3.58646 5.12673 3.06506 4.75682 2.88154 4.07304C3.0313 3.52162 3.29152 3.33671 3.49666 2.96881C3.59683 2.52689 3.45482 2.40619 3.36186 2.17615C3.28019 1.79022 3.4451 1.59871 3.54333 1.38057C3.52539 1.24563 3.4563 1.44236 3.43889 1.30685C3.49403 1.14241 3.52489 0.970806 3.53051 0.797459C3.20631 0.731713 3.20765 1.47182 3.10685 1.91345C3.06047 1.79879 2.99424 1.77195 3.00534 1.61559C2.98755 1.48065 3.05411 1.50754 3.08347 1.4864L3.0479 1.2148C2.95269 1.20849 2.77037 1.26482 2.7554 0.905524L2.94892 0.692835C3.01414 -0.0192067 2.55988 -0.362302 2.52038 0.554728L2.7203 0.634533L2.42389 1.51269C2.22143 1.65586 2.27556 1.09899 2.08444 1.0879C1.84702 0.960946 1.7238 1.71535 1.67225 2.04777C1.81145 2.39224 1.86558 1.83537 1.89738 1.59184L2.24496 2.08353C2.26298 2.21871 2.19364 2.41682 2.09821 2.41027C1.99095 2.56175 1.71601 2.38654 1.75101 2.65776C1.69444 3.43846 2.10442 2.70209 2.12551 3.35416C2.48141 3.17437 2.56026 2.08123 2.73623 1.7336L2.73039 1.44235C2.90359 1.31855 2.7913 1.91574 2.89235 1.4741C3.11321 2.20532 2.68128 3.2538 2.43632 3.79896C2.21618 3.8078 2.0085 4.39979 1.72724 3.93357C1.6954 4.17825 1.52235 4.30151 1.56586 4.64106C1.93831 5.56034 1.48443 5.95799 1.58963 6.77155C1.63897 6.66238 1.72284 6.82557 1.7895 6.85072C1.65217 7.98613 0.82886 6.49938 1.03055 8.05906C1.0657 8.32976 1.17864 8.47181 1.29431 8.38894C1.36355 8.1917 1.5277 8.00014 1.45507 7.68173C1.55075 7.68718 1.54683 7.17258 1.74441 7.47589C1.67847 8.18913 2.03815 8.52557 1.95523 9.103L2.106 9.29169C2.10294 9.51518 2.26872 10.0637 2.15076 10.3699C2.04508 11.2592 1.82665 10.3047 1.6647 10.2725L1.57026 11.0068C1.93343 11.8584 1.05729 12.4083 1.49858 13.1307L1.39415 13.0569C1.24578 12.6442 1.00072 13.1893 1.00717 13.4814L1.09979 13.711C1.52589 14.0737 1.2553 15.1551 1.38096 15.8801C1.36938 16.0356 1.28312 16.0979 1.26553 15.9624L1.08444 16.7582C1.49261 16.9858 1.09673 17.3414 1.15832 17.8156C1.32649 18.1409 1.49758 18.2404 1.61655 18.6743C1.58125 18.8039 1.55429 18.9355 1.53583 19.0686C1.51838 19.2276 1.50939 19.3823 1.5059 19.5313C1.49897 19.83 1.51413 20.1043 1.5278 20.3684C1.57832 20.9753 1.53653 21.5863 1.40386 22.1807C1.433 22.1709 1.46424 22.1693 1.49423 22.1759C1.74465 22.0589 2.01687 21.9764 2.19265 21.8842C2.37153 21.792 2.44493 21.6901 2.3678 21.5341C2.80834 21.625 3.25509 21.7545 3.7828 21.8734C4.04383 21.9329 4.3302 21.9897 4.62112 22.0377C4.86345 22.0857 5.10785 22.125 5.35731 22.1492C5.42655 22.1015 5.50109 22.0586 5.56856 22.0092C5.81359 21.3946 6.85751 20.1404 5.79015 19.861Z" fill="#FAE465"/>
<path d="M8.48541 21.5706C9.49633 22.179 10.6071 22.6034 11.7662 22.8241C12.0139 22.7003 12.2704 22.5951 12.5337 22.5092L13.3158 22.7792C14.095 22.7779 15.0155 22.6851 15.5071 22.2917C15.6495 22.3516 15.65 22.4121 15.7924 22.472C16.0743 22.3506 16.6428 22.4701 16.9235 22.2584C17.2789 22.3782 17.2812 22.5597 17.4959 22.7406C18.2728 22.5573 19.2699 23.039 20.0454 22.7353C20.4061 23.2483 21.1759 22.4311 21.6068 22.9134C22.4589 23.0931 23.3779 22.8796 23.5863 22.5471C23.5872 22.6377 23.3065 22.8796 23.6626 23C23.7324 22.9693 23.8742 22.939 23.8742 22.909C23.9444 22.9083 24.5836 23.0585 24.7946 22.907C24.8812 22.8508 24.9075 22.8067 24.8875 22.7591C24.0514 22.3618 25.8943 21.2875 26.5415 20.7288C26.6392 20.6893 26.7398 20.6575 26.8379 20.62C26.439 20.5231 26.0291 20.479 25.6188 20.4888C25.7616 20.6397 25.0525 20.6108 25.4086 20.7607C25.4798 20.7607 25.5498 20.7306 25.6207 20.73L26.1193 20.9105C25.6948 21.0325 24.7014 20.853 24.4207 21.1557C23.9245 21.0661 23.7795 20.8249 23.4943 20.6441C22.715 20.6156 21.7911 20.3757 21.1565 20.6186C20.3776 20.6805 20.233 20.4089 20.018 20.1983C19.6646 20.3193 19.0258 20.1701 18.8869 20.3813C18.2471 20.2017 18.0301 19.8395 17.7439 19.5684C17.2463 19.4182 17.248 19.5996 16.8959 19.7513C15.9031 19.6929 17.1014 19.1467 15.9676 19.1491C15.5423 19.0892 14.9783 19.332 14.9803 19.5133C14.4826 19.3331 13.8474 19.5461 13.4904 19.3354C12.7172 19.9107 11.717 19.097 10.8017 19.6124C9.78459 19.5665 8.9936 19.863 8.03483 20.0489C7.80994 20.578 7.94709 21.1172 8.48541 21.5706Z" fill="#FAE465"/>
</svg>
