<svg width="172" height="31" viewBox="0 0 172 31" fill="none" xmlns="http://www.w3.org/2000/svg">
<path d="M162.209 14.3023C165.057 14.1364 167.905 13.9769 170.752 13.8C171.41 13.7593 172.129 13.6292 171.98 12.9635C171.873 12.4858 171.257 12.3374 170.663 12.3884C166.494 12.7463 162.266 12.6507 158.146 13.3725L158.513 13.3744C158.391 13.3738 158.268 13.3731 158.146 13.3725L158.238 13.3987C158.181 13.3776 158.119 13.3684 158.056 13.3722C157.994 13.3759 157.934 13.3924 157.883 13.42C156.989 12.8517 155.664 13.7502 154.856 12.8892C154.945 12.7904 154.993 12.6733 154.995 12.553C155.413 12.497 155.831 12.441 156.248 12.385C157.062 12.5043 157.218 12.1889 157.051 11.6602C156.811 10.9855 156.137 11.4491 155.678 11.3482C154.941 10.938 154.085 11.194 153.293 11.093C153.204 10.2874 152.427 10.2062 151.617 10.0892C150.483 9.99394 149.396 9.68566 148.452 9.19124C149.527 9.13003 150.31 9.08536 151.093 9.04069C151.476 9.31436 151.755 9.05368 152.061 8.92971C154.774 8.79589 157.487 8.66208 160.2 8.52827C161.32 8.46254 162.44 8.3968 163.56 8.33104C164.107 8.60797 164.513 8.19373 164.996 8.15662C166.119 8.12478 167.241 8.09299 168.364 8.06123C168.902 8.11674 169.336 7.97307 169.39 7.54167C169.451 7.05869 168.932 6.94854 168.452 6.96182C167.754 6.98114 167.06 7.06867 166.364 7.12695C166.203 7.12829 166.042 7.12953 165.881 7.13068L162.507 7.31105C162.025 7.28759 161.544 7.26409 161.063 7.2406C161.175 6.86617 161.286 6.49183 161.398 6.11754C159.932 4.75956 157.93 5.00947 156 5.04424C156.021 4.90229 156.109 4.77123 156.246 4.67536C156.384 4.57949 156.561 4.52531 156.746 4.52291C156.931 4.5205 157.111 4.57001 157.252 4.66226C157.394 4.75451 157.487 4.88325 157.515 5.02456C157.542 5.16587 157.503 5.31019 157.404 5.43073C157.304 5.55126 157.151 5.63983 156.974 5.68002C156.796 5.7202 156.606 5.70926 156.438 5.64924C156.27 5.58921 156.136 5.48419 156.061 5.35362C156.049 5.24956 156.029 5.14619 156 5.04424C154.718 4.98642 153.436 4.92862 152.154 4.87084C150.879 4.66126 149.568 4.61659 148.274 4.73862C148.127 4.70577 147.978 4.67656 147.828 4.65101C148.371 3.91862 148.066 3.37102 147.028 3.36725C145.802 3.36268 144.469 3.16501 143.379 3.86098C138.559 3.75108 133.739 3.64117 128.919 3.53126C128.922 3.64496 128.941 3.75807 128.977 3.86844L129.994 3.89907C129.655 3.88898 129.316 3.87846 128.977 3.86844C128.168 3.94818 127.359 4.0281 126.551 4.10732C126.566 4.29167 126.581 4.47601 126.596 4.66035L126.551 4.10732C127.359 4.0281 128.168 3.94818 128.977 3.86844C128.941 3.75807 128.922 3.64496 128.919 3.53126C125.359 3.3826 121.8 3.23388 118.24 3.08509L115.33 2.82679C115.001 2.62003 114.673 2.41332 114.344 2.20668L114.276 2.13032L124.373 1.5783L124.852 1.57457C125.508 1.73788 126.172 2.04865 126.794 1.51699C127.888 1.74466 129.036 1.77575 130.148 1.60784C130.631 1.57428 131.114 1.54082 131.597 1.50711C131.881 1.52626 132.164 1.54552 132.448 1.56489C133.189 2.03132 133.822 1.656 134.472 1.41053C135.878 1.79394 137.401 1.83748 138.84 1.53536C140.433 2.03978 142.048 1.6347 143.654 1.6055C145.917 2.29705 148.136 1.50523 150.381 1.54767C148.354 1.04997 146.202 0.933462 144.105 1.20782C142.04 0.826206 139.907 0.709691 137.792 0.862936C136.663 0.812954 135.534 0.762938 134.406 0.712868C134.081 0.723471 133.756 0.733968 133.431 0.744792C133.155 0.723299 132.878 0.701888 132.601 0.68059C130.648 0.428976 128.654 0.432224 126.702 0.690189C126.086 0.285347 125.394 0.45343 124.713 0.532072C124.414 0.54284 124.115 0.553569 123.815 0.564249C123.162 0.59965 122.508 0.635006 121.855 0.67033C121.068 0.719218 120.281 0.768081 119.494 0.816892L118.986 0.802746L114.672 1.06179C113.717 1.11881 112.763 1.17586 111.808 1.23294C111.166 1.27776 110.523 1.32256 109.881 1.36733C109.088 1.47801 108.247 0.90125 107.484 1.46501C103.491 1.68614 99.4972 1.90728 95.5036 2.12846C93.6381 2.21129 91.7725 2.29413 89.907 2.37699C87.1292 2.10327 84.3234 2.0407 81.5298 2.19017C78.9925 1.61302 76.4502 2.19391 73.9106 2.17075C73.4124 2.07296 72.914 1.97522 72.4158 1.87755C69.6796 1.2179 66.9023 1.59719 64.1365 1.68169C63.1875 1.47076 62.1724 1.52546 61.2706 1.83612C58.6999 1.7882 56.1421 2.58613 53.5617 1.90632C53.3977 1.57184 53.1195 1.27793 52.7566 1.0558C52.3937 0.833662 51.9597 0.691607 51.5007 0.64473C50.705 0.641762 49.9094 0.638903 49.1137 0.636146C47.217 0.209419 45.2273 0.0868326 43.267 0.275924C41.5138 -0.0203649 39.7009 -0.0381144 37.9385 0.22376C37.6382 0.226356 37.338 0.228998 37.0376 0.231684C34.6291 -0.114632 32.1538 -0.0722997 29.7675 0.355999L23.5523 0.656895C21.6314 0.787987 19.7105 0.919104 17.7897 1.05028C16.8362 1.08053 15.8827 1.11062 14.9291 1.14146C14.4452 1.18184 13.9611 1.22212 13.4772 1.26232C12.3664 1.32713 11.2558 1.39181 10.145 1.45635C9.98655 1.47474 9.82797 1.49305 9.66948 1.51128C9.43099 1.50213 9.19271 1.48909 8.95406 1.48383C7.72981 1.45668 6.3542 1.52609 5.68024 2.29798C4.84275 3.25731 7.08832 3.28747 7.00902 4.15486C6.53298 4.16984 6.05624 4.16536 5.58081 4.14148C4.75309 4.06959 3.43438 3.65323 3.35671 4.47003C3.26277 5.45867 4.70597 5.14678 5.56819 5.16107C7.62456 5.19519 9.68213 5.1746 11.7389 5.19827C12.4296 5.20628 13.3098 5.12559 12.9183 6.05367C12.1484 6.11211 11.3784 6.17059 10.6085 6.22906C8.27775 5.99541 5.91088 5.55403 3.86118 6.93142C3.79848 7.30719 3.87846 7.61731 4.45429 7.69854C5.98045 8.44722 7.66025 8.22925 9.31651 8.16007C10.8806 8.40412 12.5885 8.35867 13.7242 9.46578L14.3076 9.32577C15.4125 9.15511 16.5579 9.23613 17.6043 9.55885C17.4728 9.71087 17.3412 9.86288 17.2098 10.0149C15.9506 10.0892 14.6915 10.1635 13.4323 10.2378L12.8989 10.1899C12.2715 10.2524 11.6444 10.3149 11.0169 10.3775C9.31317 10.3327 7.62426 10.3337 6.24889 11.3009C5.417 11.0078 4.65826 11.4231 3.85934 11.4484C3.07504 11.5696 2.25538 11.1399 1.48873 11.5387C0.893091 11.5268 -0.16004 10.7295 0.0205429 12.0493C0.845556 12.8128 2.09453 12.1846 3.02688 12.5959C5.88307 13.0547 8.81385 13.1697 11.7155 12.9368C12.3786 13.0299 13.021 13.3378 13.7205 13.0523C13.8612 13.0595 14.0013 13.0729 14.1401 13.0922C14.5608 13.7805 15.7539 13.0118 16.1585 13.7307C16.0374 13.8405 15.9164 13.9504 15.7952 14.0603C14.8258 13.7899 13.7701 13.7646 12.7808 13.9878L12.2731 13.8793C11.0898 13.9579 9.90435 14.0218 8.72418 14.1224C8.28009 14.1604 7.67825 14.1664 7.72181 14.6796C7.75147 14.8345 7.85663 14.9747 8.0156 15.0718C8.17458 15.1689 8.3755 15.2155 8.57742 15.2021C9.04922 15.2133 9.52315 15.1721 9.99615 15.1539C10.794 15.1101 11.5918 15.0663 12.3896 15.0225C12.4479 15.0579 12.5176 15.0804 12.5911 15.0877C12.6646 15.095 12.7394 15.0867 12.8073 15.0639C13.2757 15.2324 13.7916 15.3068 14.3071 15.2802C14.8226 15.2536 15.3209 15.1268 15.7561 14.9117L17.2448 15.1835C17.2379 15.2822 17.2294 15.381 17.2192 15.4796C16.9137 15.5121 16.6084 15.5446 16.3029 15.5771C15.4438 15.6591 14.5797 15.7078 13.7142 15.7229C12.7238 15.7064 12.6895 16.2584 12.4044 16.7554C11.9695 17.5137 12.5318 17.7383 13.2616 17.939C13.3975 17.9284 13.5336 17.9177 13.6695 17.907L13.2616 17.939L13.2016 18.641C12.6056 19.5223 11.1953 19.0279 10.4283 19.6204C8.73976 19.2633 7.20115 19.2866 6.17866 20.6196C6.6162 21.6548 7.74294 21.2554 8.6437 21.3259C9.06149 21.8921 9.78126 20.9561 10.2008 21.513L10.7134 21.4482C10.5428 21.4698 10.372 21.4914 10.2008 21.513C10.1534 22.1155 10.1303 22.6631 11.3044 22.4321C12.4692 22.203 13.5807 22.8352 14.7989 22.5777C14.9579 22.5513 15.1227 22.5528 15.2808 22.5822C15.4389 22.6115 15.5864 22.668 15.7124 22.7474C15.8384 22.8269 15.9396 22.9271 16.0086 23.0409C16.0775 23.1546 16.1125 23.2789 16.1109 23.4045C16.1824 24.1094 15.3195 23.802 14.8781 23.8648C14.0259 23.9862 13.148 23.9993 12.2808 24.0573C10.3125 24.1639 10.2475 24.2194 10.9525 25.1961C11.5415 25.6496 12.2328 25.503 12.9173 25.396C13.2979 25.6679 14.0035 25.2143 14.2634 25.7557C14.1551 25.8787 14.0467 26.0016 13.9383 26.1245C13.1983 26.2027 12.7165 26.4679 13.0141 27.0933C13.4013 27.9073 14.2889 27.5915 15.0388 27.5569C15.5115 27.5465 15.9841 27.5361 16.4567 27.5258C18.0711 27.9102 19.6905 27.6102 21.3082 27.5469L22.7672 27.6082C22.9256 27.7759 23.0839 27.9435 23.2424 28.1112C23.1133 28.1775 22.9795 28.2383 22.8416 28.2932L22.3392 28.2872C21.859 28.3075 21.3788 28.3279 20.8987 28.3483C20.9161 28.6256 20.9336 28.9026 20.951 29.1794L20.8987 28.3483C19.0843 28.4536 17.2698 28.5546 15.4559 28.6656C15.0217 28.6732 14.6039 28.7966 14.2739 29.0149C13.944 29.2331 13.7219 29.5328 13.6453 29.8631C13.5969 29.9995 13.5965 30.1435 13.644 30.2801C13.6915 30.4167 13.7853 30.5411 13.9157 30.6404C14.0461 30.7398 14.2084 30.8105 14.386 30.8452C14.5635 30.88 14.75 30.8776 14.926 30.8383C15.5415 30.8105 16.1571 30.7826 16.7726 30.7547C17.3202 30.8288 17.9366 31.1164 18.2516 30.4699C18.5254 30.4314 18.7994 30.393 19.0733 30.3546C19.5496 30.9316 20.2289 30.7287 20.8797 30.6348C21.878 31.1946 22.9725 30.6982 24.0115 30.805C25.2835 31.0317 26.6009 31.0611 27.8877 30.8914C31.09 30.9092 34.293 30.9079 37.4945 30.9587C38.2533 30.9707 38.8999 30.9551 39.2917 30.3753C40.4398 31.6257 41.9846 30.4683 43.2894 30.7683C46.6711 31.096 50.0306 30.6205 53.4028 30.6019C54.8389 30.4998 56.275 30.3976 57.7111 30.2955C57.8711 30.2802 58.0311 30.265 58.1911 30.2498C58.5834 30.34 58.999 30.3525 59.3992 30.2861C59.7994 30.2198 60.1715 30.0767 60.4813 29.87C61.2095 30.7508 62.1225 30.311 63.006 30.0804C64.9579 30.4112 66.9919 30.2985 68.8627 29.7559C68.9092 29.7676 68.9583 29.7712 69.0068 29.7665C69.0553 29.7619 69.1019 29.7491 69.1433 29.7291C72.8664 29.9444 76.6103 29.7176 80.2444 29.0564C81.043 29.0093 81.8415 28.9623 82.64 28.9153L86.9827 28.722C89.5498 28.9206 92.1371 28.9007 94.6985 28.6626C94.7592 28.6931 94.8299 28.7099 94.9023 28.7113C94.9747 28.7126 95.046 28.6984 95.1085 28.6702C100.089 28.8172 105.075 28.768 110.049 28.5227C112.779 28.645 115.518 28.5847 118.235 28.3424C118.297 28.3558 118.366 28.3892 118.421 28.3788C118.535 28.3511 118.647 28.3169 118.755 28.2764C123.571 28.5959 128.354 28.1253 133.147 27.9079C133.135 27.7831 133.122 27.6582 133.109 27.5333L133.147 27.9079C133.957 27.849 134.767 27.79 135.576 27.731C137.663 27.8749 139.765 27.7446 141.795 27.3457C141.943 27.3858 142.103 27.3906 142.255 27.3593C143.285 27.7525 144.219 27.3813 145.169 27.1395C145.293 27.1662 145.424 27.1612 145.543 27.1253C147.208 25.9295 149.348 26.3633 151.292 26.1249C152.094 26.0655 152.897 26.006 153.699 25.9466C153.854 25.9224 154.01 25.8984 154.166 25.8744C158.294 25.6221 162.423 25.3779 166.549 25.1084C167.136 25.0701 168.033 25.146 167.945 24.4278C167.866 23.7887 167.061 23.8563 166.417 23.8527C164.353 23.841 162.289 23.8196 160.224 23.8019C160.064 23.7948 159.903 23.7876 159.743 23.7806C157.188 23.4292 154.588 23.3067 151.996 23.4155C151.358 23.4664 150.719 23.5173 150.08 23.5682C150.425 23.7937 150.77 24.0191 151.114 24.2446C151.914 24.4612 153.131 23.664 153.534 24.8396C153.084 24.8999 152.635 24.9602 152.185 25.0205C151.702 25.0486 151.219 25.0767 150.737 25.105C150.237 25.1272 149.738 25.1494 149.239 25.1718C149.083 25.1484 148.929 25.1198 148.776 25.0862C148.321 25.1532 147.865 25.2201 147.409 25.2871C147.064 25.2784 146.719 25.2698 146.375 25.261C145.722 25.3272 145.069 25.3933 144.416 25.4594C144.126 25.5008 143.835 25.5423 143.545 25.5839C142.986 25.3981 142.271 25.6633 141.8 25.2237C139.945 25.8927 138.074 25.1893 136.212 25.2658C135.099 25.1303 133.987 24.9948 132.874 24.8593C132.752 24.8854 132.628 24.9052 132.503 24.9184C131.973 24.4706 131.024 24.8788 130.537 24.3436C131.451 24.2723 132.366 24.2009 133.28 24.1293C133.421 24.0086 133.562 23.8881 133.704 23.7678L133.18 23.4925C133.493 23.3272 133.806 23.1619 134.119 22.997C133.938 22.7612 133.756 22.5255 133.575 22.2897C132.177 22.3475 130.779 22.4052 129.382 22.4628C129.321 22.3731 129.246 22.2898 129.157 22.2155L124.903 22.343C124.745 22.4034 124.588 22.4638 124.431 22.5241C121.541 22.0857 118.656 22.521 115.769 22.5582C115.722 22.5296 115.666 22.5101 115.607 22.5014C115.548 22.4926 115.487 22.4948 115.429 22.5078C115.4 22.4009 115.337 22.3012 115.246 22.2178C116.284 21.0636 117.744 21.6583 119.063 21.669C119.539 21.6373 120.014 21.6055 120.49 21.5737C121.259 21.1763 122.066 21.4492 122.86 21.4914C122.893 21.5821 122.951 21.6661 123.031 21.7374C123.593 21.1869 124.203 21.2489 124.84 21.6532C126.123 21.6017 127.407 21.5503 128.69 21.4987C129.482 21.4479 130.273 21.3972 131.065 21.3464C131.546 21.2874 132.026 21.2284 132.507 21.1695C132.812 21.0551 133.15 21.0019 133.489 21.0146C133.828 21.0274 134.158 21.1058 134.447 21.2426C134.777 21.2915 135.107 21.3404 135.436 21.3892L135.34 21.4499L135.395 21.5358C136.378 21.3784 137.396 21.4177 138.353 21.6499C137.56 22.4133 136.46 22.0447 135.479 22.1145C135.414 22.1474 135.339 22.1686 135.262 22.1765C135.184 22.1843 135.106 22.1786 135.031 22.1598C134.546 22.2031 134.06 22.2464 133.575 22.2897C133.756 22.5255 133.938 22.7612 134.119 22.997C133.806 23.1619 133.493 23.3272 133.18 23.4925C133.354 23.5845 133.529 23.6761 133.704 23.7678C133.889 23.8237 134.074 23.8795 134.259 23.9355C134.675 23.8642 135.091 23.7931 135.507 23.7219C136.045 23.5263 136.583 23.3303 137.122 23.1342C136.584 23.3297 136.046 23.5257 135.507 23.7219C135.594 23.7944 135.662 23.8798 135.706 23.9726C136.014 23.959 136.321 23.9456 136.628 23.9324C139.511 24.336 142.455 24.4138 145.368 24.1634C145.496 24.1828 145.63 24.1725 145.751 24.1336C146.405 24.1216 147.06 24.1097 147.714 24.0978L148.148 23.726L148.586 23.5031C148.44 23.5774 148.294 23.6515 148.148 23.726C148.004 23.8498 147.859 23.9739 147.714 24.0978C148.067 24.309 148.419 24.5204 148.771 24.7318C149.486 24.4186 150.292 24.251 151.114 24.2446L150.08 23.5682C149.75 23.4611 149.419 23.354 149.089 23.2466C149.077 23.1299 149.066 23.013 149.055 22.8959C148.903 22.8901 148.75 22.8902 148.598 22.8963C148.587 22.8484 148.576 22.8006 148.565 22.7528L148.598 22.8963C148.75 22.8902 148.903 22.8901 149.055 22.8959C149.858 22.8574 150.661 22.819 151.464 22.7806C152.099 22.7315 152.733 22.6824 153.368 22.6335C156.587 22.3695 159.862 22.4825 163.015 21.7801C165.329 22.2239 167.595 21.5571 169.893 21.5895C170.034 21.6038 170.178 21.5949 170.314 21.5636C170.45 21.5323 170.576 21.4792 170.684 21.4078C170.792 21.3363 170.879 21.2482 170.94 21.149C171.001 21.0498 171.034 20.9419 171.037 20.8321C171.04 20.2541 170.422 20.1797 169.847 20.169C166.546 20.1069 163.244 20.0567 159.942 20.0025C158.834 19.5019 157.643 19.9304 156.5 19.8199C156.171 19.8355 155.843 19.8511 155.515 19.8666C155.345 19.6636 155.176 19.4605 155.006 19.2572C155.636 19.2281 156.266 19.1991 156.895 19.1703C157.244 19.0573 157.644 18.9891 157.703 18.6218C157.76 17.8222 157.512 17.2315 156.236 17.3493L155.716 17.3235C156.237 16.3223 157.951 17.3436 158.476 16.3516C158.762 15.9687 159.013 15.6045 158.265 15.3341C156.871 14.8303 158.699 14.8939 158.491 14.5942C159.743 14.6821 161.005 14.583 162.209 14.3023ZM154.177 6.15193L154.704 6.87497C154.528 6.63385 154.353 6.39279 154.177 6.15193ZM154.088 24.8155C154.767 23.9782 155.546 24.1018 156.371 24.6723C155.756 24.7365 155.14 24.8007 154.525 24.8648C154.379 24.8504 154.233 24.8339 154.088 24.8155ZM130.038 25.8394C130.205 25.6969 130.372 25.5546 130.538 25.4125L130.038 25.8394ZM144.602 12.0093C144.757 11.994 144.911 11.9785 145.067 11.963L144.602 12.0093ZM145.09 10.0097L145.426 10.0927C145.314 10.0649 145.202 10.0373 145.09 10.0097ZM147.786 14.7756L147.207 13.7429C147.4 14.0871 147.593 14.4314 147.786 14.7756ZM144.517 5.66414C145.309 5.65882 146.101 5.65351 146.893 5.64822C145.791 5.87174 144.715 6.59057 143.555 5.75671C143.876 5.72585 144.196 5.695 144.517 5.66414ZM134.564 7.74573C133.934 7.77539 133.304 7.80506 132.674 7.83472L131.821 9.00857C132.105 8.61744 132.389 8.22613 132.674 7.83472C133.304 7.80506 133.934 7.77539 134.564 7.74573C136.034 7.9025 137.505 8.05898 138.976 8.21551L139.491 8.53828C139.319 8.43048 139.148 8.32298 138.976 8.21551C137.505 8.05898 136.034 7.9025 134.564 7.74573ZM135.233 14.8024C135.568 14.8969 135.904 14.9906 136.24 15.0844L135.233 14.8024ZM140.756 11.8136L141.315 11.8689C141.129 11.8504 140.942 11.832 140.756 11.8136ZM140.547 9.64568C141.013 9.62147 141.479 9.59699 141.946 9.57247L140.547 9.64568ZM137.772 5.64245C138.25 5.62293 138.728 5.60339 139.205 5.58384C139.71 5.70815 140.215 5.83248 140.719 5.95681C141.24 6.45583 142.215 5.95497 142.715 6.49869C142.556 6.62606 142.398 6.75351 142.239 6.88104C141.311 7.29723 140.334 7.03624 139.373 7.00403C138.457 6.49964 137.441 6.89996 136.478 6.81076C135.218 6.30747 133.612 6.77152 132.463 5.95508C134.192 5.44234 136.026 5.98684 137.772 5.64245ZM119.128 11.986C119.264 11.9308 119.407 11.8853 119.554 11.8501C119.894 11.8743 120.233 11.8986 120.572 11.9222C120.905 12.1199 121.237 12.3175 121.57 12.515L120.572 11.9222C120.233 11.8986 119.894 11.8743 119.554 11.8501C119.407 11.8853 119.264 11.9308 119.128 11.986ZM122.617 7.03166C122.546 6.752 122.473 6.47193 122.4 6.19099C122.472 6.47118 122.545 6.75143 122.617 7.03166ZM117.558 10.4794L117.948 10.0847C117.818 10.2157 117.688 10.3472 117.558 10.4794ZM110.744 20.6741C111.011 20.646 111.278 20.6179 111.545 20.5899L110.744 20.6741ZM102.184 26.6915C101.848 26.4708 101.512 26.2502 101.175 26.0297L102.184 26.6915ZM103.872 19.1374C103.993 19.0456 104.115 18.9538 104.236 18.862L103.872 19.1374ZM107.477 6.27335C106.997 6.3057 106.517 6.33813 106.036 6.37067L107.477 6.27335ZM106.478 21.2514C106.752 21.5077 107.026 21.7634 107.3 22.0192L106.478 21.2514ZM112.563 4.13427C113.09 4.1261 113.638 4.04059 114.066 4.38602L114.117 5.17029C112.995 5.23514 111.872 5.29992 110.75 5.36467C110.543 5.12285 110.336 4.88094 110.129 4.63894C110.898 4.34801 111.939 4.84097 112.563 4.13427ZM88.5025 4.42305C89.5905 3.9862 90.8044 5.02783 91.8636 4.25305C91.6878 4.08743 91.5117 3.92164 91.3358 3.75566C92.3087 3.60634 93.3997 3.97258 94.2658 3.35587C94.8348 3.32428 95.4036 3.29267 95.9726 3.26101C95.9872 3.32067 96.0176 3.37741 96.0615 3.42782C96.1053 3.47822 96.1617 3.52125 96.2277 3.55429C96.2778 3.79369 96.328 4.03304 96.3779 4.27235C96.6046 4.12852 96.8315 3.98447 97.0586 3.84023C98.333 3.82757 99.6073 3.81493 100.882 3.80234L101.441 3.93907C101.877 3.70352 102.401 3.58428 102.933 3.59942C103.465 3.61455 103.977 3.76322 104.389 4.02293C104.773 3.90856 105.183 3.85658 105.594 3.87019C106.004 3.88381 106.407 3.96276 106.776 4.10209C107.107 4.22501 107.437 4.3479 107.767 4.47079C108.363 4.32009 108.937 4.25965 109.381 4.71297C108.934 5.31908 108.355 5.18446 107.746 4.8862C107.796 4.9669 107.827 5.05368 107.838 5.1426C107.2 5.02146 106.528 5.06958 105.929 5.27921C105.428 5.01891 104.926 4.75864 104.424 4.49843C103.898 4.85725 103.235 5.07484 102.534 5.11873C102.376 5.12137 102.218 5.12396 102.059 5.12645C101.783 5.11137 101.507 5.09636 101.231 5.08153C99.717 4.4225 97.6998 5.63087 96.3637 4.31336C95.8223 4.35509 95.2813 4.39692 94.7406 4.43885C94.5917 4.39337 94.4261 4.39293 94.2769 4.43763C94.2124 5.39269 94.2688 6.42799 92.4305 5.36642C92.3098 5.3162 92.1773 5.28491 92.0409 5.27439C91.9046 5.26386 91.767 5.27428 91.6359 5.30506C91.5047 5.33585 91.3828 5.3864 91.2771 5.45376C91.1714 5.52112 91.0839 5.60398 91.0199 5.69757C90.1761 4.95864 88.8231 6.11639 88.0222 5.2176C88.1862 5.12987 88.3171 5.01011 88.4015 4.87051C88.4859 4.73091 88.5207 4.57648 88.5025 4.42305ZM99.2185 15.5879C99.204 15.4022 99.1892 15.2165 99.1746 15.0307L99.2185 15.5879ZM101.306 12.2612C101.288 12.1268 101.27 11.9921 101.252 11.8571L101.306 12.2612ZM100.947 8.90434C101.759 8.8381 102.572 8.77174 103.384 8.70538L100.947 8.90434ZM93.9791 11.1239C93.7852 11.1297 93.5911 11.1358 93.3971 11.1418L93.9791 11.1239ZM91.3618 14.2682C91.5458 14.5053 91.7298 14.7424 91.9139 14.9795L91.3618 14.2682ZM95.7382 9.54367L96.159 9.53859C96.0188 9.54025 95.8785 9.54196 95.7382 9.54367ZM85.155 14.2346C84.961 14.1245 84.7663 14.0146 84.5719 13.9047L85.155 14.2346ZM82.2497 14.7751L82.7878 15.1531C82.6085 15.0271 82.4291 14.901 82.2497 14.7751ZM87.8005 12.2427C87.7746 11.9941 87.7486 11.7455 87.7226 11.4969L87.8005 12.2427ZM65.2582 23.5238C65.0911 23.5706 64.9242 23.6177 64.7572 23.665L65.2582 23.5238ZM55.886 25.9421C56.1079 25.9429 56.3301 25.9437 56.552 25.9444L55.886 25.9421ZM39.1518 12.8754C38.0418 12.8987 36.9318 12.922 35.822 12.9453C34.0444 12.8043 32.267 12.6634 30.4895 12.5224C30.6214 12.1904 30.9988 12.1213 31.3614 12.0361C31.3664 11.9377 31.3667 11.8392 31.3619 11.7407L32.3469 11.6671C32.5656 11.7203 32.7975 11.7323 33.0234 11.7021C33.2493 11.6719 33.4625 11.6003 33.6452 11.4933C33.8279 11.3864 33.9746 11.2471 34.0734 11.0873C34.1721 10.9275 34.2198 10.7518 34.2125 10.5748C34.3142 10.5397 34.4295 10.5358 34.5347 10.5639C35.3232 11.2767 36.0866 12.2451 37.0955 10.7137C37.3775 10.703 37.6596 10.6923 37.9416 10.6816C38.1615 11.4816 38.9611 11.2717 39.6358 11.2511C41.0497 11.2081 42.4631 11.15 43.8765 11.098C44.5045 11.191 45.1544 11.1307 45.736 10.9255C48.7851 10.885 51.8343 10.8445 54.8834 10.8041C55.1919 10.9401 55.5001 11.0761 55.8082 11.2121C56.016 12.4289 55.2434 12.7381 53.7821 12.7019C52.2937 12.5353 50.7764 12.6152 49.331 12.9363C45.9424 12.4674 42.5443 12.9482 39.1518 12.8754ZM41.2386 19.3947C41.0877 19.3787 40.9339 19.3961 40.7954 19.4451C39.5001 19.3601 38.2048 19.2752 36.9095 19.1901C36.2661 19.2615 35.6225 19.333 34.979 19.4047C34.3266 19.3065 33.6743 19.2085 33.0218 19.1102C34.2249 18.124 35.5461 18.4344 36.8814 18.9003C37.391 18.5653 38.0313 18.3718 38.6999 18.3507L39.6097 17.5755C39.3064 17.8339 39.003 18.0922 38.6999 18.3507C39.5111 18.3198 40.3223 18.289 41.1331 18.2578C41.7092 18.6069 41.6454 18.9912 41.2386 19.3947ZM33.7706 22.0644C33.7687 21.9374 33.7667 21.8105 33.7646 21.6837L33.7706 22.0644ZM26.9237 25.7011C26.902 25.8665 26.8807 26.0321 26.8598 26.1978L26.9237 25.7011ZM27.0394 6.70283L27.5326 6.67936C27.3683 6.68682 27.2039 6.6949 27.0394 6.70283ZM28.9968 7.36479C28.7479 7.39364 28.499 7.42257 28.2501 7.45157L28.9968 7.36479ZM32.5973 4.31163C32.7903 4.29304 32.9831 4.27438 33.176 4.25566L32.5973 4.31163ZM31.2733 14.7101L32.0526 14.6482C31.7924 14.6688 31.5329 14.6894 31.2733 14.7101ZM29.647 14.0651C29.8814 14.0541 30.1159 14.0432 30.3503 14.0324L29.647 14.0651ZM32.3972 7.96787L31.9279 8.02121C32.0839 8.00372 32.2407 7.98575 32.3972 7.96787ZM29.1765 4.26854L29.4839 4.36215C29.3814 4.33096 29.279 4.29972 29.1765 4.26854ZM28.0694 12.7497C28.0945 12.9711 28.1195 13.1921 28.1446 13.4127L28.0694 12.7497ZM27.8035 14.4737C27.7946 14.6399 27.7859 14.806 27.7772 14.9721L27.8035 14.4737ZM25.9429 15.3403C25.9295 15.2493 25.9077 15.159 25.8779 15.0703L25.8619 14.6432C25.8672 14.7857 25.8725 14.9281 25.8779 15.0703C25.9077 15.159 25.9295 15.2493 25.9429 15.3403ZM26.8624 20.1942C26.2248 20.2318 25.5869 20.2695 24.9492 20.3072L26.8624 20.1942ZM24.0223 20.3673L22.9357 20.2512C23.298 20.29 23.6602 20.3286 24.0223 20.3673ZM24.3968 24.3888C24.1611 24.4929 23.9263 24.5969 23.6922 24.7004L24.3968 24.3888ZM27.0868 27.6538L26.5807 27.5573C26.7494 27.5895 26.9181 27.6217 27.0868 27.6538ZM28.3237 16.3786L27.4652 16.4286C27.7511 16.412 28.0378 16.3953 28.3237 16.3786ZM40.5611 17.1572C40.2339 17.061 39.9066 16.9649 39.5795 16.8685C39.5783 17.0911 39.5772 17.3137 39.5761 17.5363L39.5795 16.8685C39.9066 16.9649 40.2339 17.061 40.5611 17.1572ZM37.747 7.9901C37.7737 8.1087 37.7901 8.22855 37.7962 8.34884C39.0966 8.46378 40.4135 8.38117 41.6729 8.10565C42.3706 8.1501 43.102 7.86788 43.8525 8.271C43.0911 9.31171 41.7176 8.76736 40.6884 9.02342C40.3394 9.19466 39.9405 9.29544 39.5279 9.31655C39.1154 9.33765 38.7024 9.2784 38.3272 9.14421C37.3746 9.16926 36.4221 9.1943 35.4695 9.21933C35.4732 8.6798 34.7683 8.58737 34.4471 8.25287C35.5471 8.16535 36.6471 8.07769 37.747 7.9901ZM42.6989 4.01719C44.2796 3.93131 45.8601 3.84541 47.4404 3.75952L42.6989 4.01719L43.1889 4.35755C43.3659 4.58568 43.5431 4.81374 43.7202 5.04178L43.1889 4.35755C43.0258 4.24405 42.8623 4.13063 42.6989 4.01719ZM52.1687 2.78618L52.2579 3.47061C52.2282 3.24244 52.1985 3.01425 52.1687 2.78618ZM52.2376 8.36449L51.785 8.7272C51.9359 8.60641 52.0868 8.4855 52.2376 8.36449ZM58.2232 20.3098C58.3867 20.5639 58.5499 20.8176 58.7132 21.071L58.2232 20.3098ZM57.0607 18.4713L56.6475 17.9024C56.7918 18.1013 56.9262 18.2863 57.0607 18.4713ZM55.971 7.84175C55.7723 8.05473 55.4723 8.19815 55.1369 8.24055C55.303 8.21987 55.4623 8.17324 55.6054 8.10496C55.7484 8.03669 55.8727 7.94718 55.971 7.84175ZM55.4875 7.013C55.6325 6.88865 55.7776 6.76432 55.9226 6.63997L55.4875 7.013ZM48.2153 16.7274L48.704 16.7107C48.541 16.7163 48.3782 16.7217 48.2153 16.7274ZM50.1458 18.6972C50.6873 18.5998 51.2287 18.5023 51.7703 18.4049L50.1458 18.6972ZM64.763 8.1684C64.7799 8.09628 64.7967 8.02417 64.8135 7.95205L64.763 8.1684ZM68.2591 14.4918C67.7928 14.4705 67.3267 14.4496 66.8606 14.4292C66.5115 14.357 66.1624 14.2854 65.8132 14.2144L66.8606 14.4292C67.3267 14.4496 67.7928 14.4705 68.2591 14.4918ZM69.4703 6.95517C69.2775 6.74162 69.0848 6.52813 68.8919 6.3147L69.4703 6.95517ZM63.303 8.49817L62.9321 9.19995C63.0557 8.96626 63.1793 8.73224 63.303 8.49817ZM59.7661 16.4491C59.9318 16.5583 60.0974 16.6673 60.2629 16.7763L59.7661 16.4491ZM69.6423 19.1672C69.7838 19.0654 69.9586 18.9954 70.1478 18.9647C70.337 18.9339 70.5333 18.9436 70.7159 18.9928C71.8573 18.6969 72.8093 18.0752 73.3767 17.255C73.9441 16.4348 74.0839 15.4781 73.768 14.5807C73.4521 13.6834 72.7043 12.9132 71.6773 12.4279C70.6503 11.9426 69.422 11.7788 68.2438 11.9702C67.0657 12.1615 66.0268 12.6935 65.3398 13.4572C64.6528 14.2208 64.3697 15.1585 64.5484 16.0782C64.727 16.9978 65.3539 17.8299 66.3009 18.4042C67.2478 18.9785 68.4433 19.2514 69.6423 19.1672ZM70.5405 23.2767C70.5151 23.0308 70.4895 22.7848 70.464 22.5388L70.5405 23.2767ZM72.9135 18.3474C72.9682 18.5328 73.023 18.7181 73.0779 18.9033L72.9135 18.3474ZM76.7899 24.1323L76.2683 24.06C76.4421 24.0842 76.616 24.1082 76.7899 24.1323ZM75.7867 7.70919L76.2878 7.70208C76.1207 7.70452 75.9537 7.70678 75.7867 7.70919ZM64.1977 2.71062C64.686 2.72801 65.1743 2.74535 65.6625 2.76291C67.2751 2.6591 68.8879 2.55511 70.5005 2.45094L65.6625 2.76291C65.1743 2.74535 64.686 2.72801 64.1977 2.71062ZM56.8952 6.52693C56.7167 6.31008 56.538 6.09335 56.3594 5.87661L56.8952 6.52693ZM11.6897 2.84139C11.5463 2.96444 11.4029 3.0875 11.2594 3.2106L11.6897 2.84139ZM16.8668 6.5711L16.3444 5.9371C16.5185 6.14888 16.6926 6.3597 16.8668 6.5711ZM16.0285 1.86266C16.6406 1.80853 17.2527 1.75436 17.8647 1.70015C18.5043 1.68289 19.144 1.66563 19.7837 1.64839C20.7457 1.57248 21.7075 1.49656 22.6696 1.42061C23.6477 1.56353 24.6919 1.0485 25.6294 1.59699C26.9382 0.995786 28.4822 1.39484 29.8408 1.00546C33.3698 1.59238 36.9293 0.583029 40.459 1.12642C43.2106 1.0101 45.9709 1.09306 48.7024 1.37488C49.4744 1.33034 50.2552 1.71513 51.0199 1.34656C51.5127 1.7129 52.3803 1.71652 52.6156 2.33189C51.0053 2.43989 49.3952 2.54795 47.785 2.65599C45.747 2.78106 43.7089 2.90602 41.671 3.03102C38.4684 3.17733 35.2658 3.32363 32.0631 3.4699C30.4743 3.14397 28.8075 3.11669 27.2022 3.39031C26.8064 2.99594 26.2471 3.11902 25.7285 3.11338C25.3255 2.71152 24.7696 2.81891 24.2377 2.84614C24.2776 3.19966 24.3173 3.55322 24.3571 3.90682C24.8296 3.8855 25.302 3.86406 25.7743 3.84251C26.0992 3.84516 26.4242 3.84776 26.749 3.85084C26.8665 3.73182 26.9838 3.61255 27.1012 3.49301L26.749 3.85084C26.4242 3.84776 26.0992 3.84516 25.7743 3.84251C25.302 3.86406 24.8296 3.8855 24.3571 3.90682C24.3173 3.55322 24.2776 3.19966 24.2377 2.84614C23.9258 2.85381 23.6138 2.8615 23.3019 2.86925C21.9946 2.70263 20.6875 2.53589 19.3805 2.36899C19.0543 2.39375 18.7283 2.41845 18.4023 2.4431C17.7652 1.87347 16.4418 2.97785 16.0285 1.86266ZM21.2077 7.0167L21.2393 6.40838C21.2287 6.61112 21.2181 6.81372 21.2077 7.0167ZM20.9428 8.60758C20.6235 8.62568 20.3042 8.64387 19.9849 8.66206L20.9428 8.60758ZM23.9423 4.71C23.794 4.9592 23.6457 5.20846 23.4976 5.4578L23.9423 4.71ZM15.6892 18.8824C15.8657 19.0785 16.0422 19.2747 16.2187 19.471L15.6892 18.8824ZM24.1551 6.90049C24.1564 7.04063 24.1576 7.18083 24.1591 7.32075L24.1551 6.90049ZM38.0203 25.8734L38.9125 25.4514C38.6147 25.592 38.3176 25.7327 38.0203 25.8734ZM45.5077 23.5888C45.4917 23.6989 45.468 23.8084 45.437 23.9166C44.3687 23.9842 43.3009 24.0518 42.2336 24.1194C42.2013 24.021 42.1682 23.9225 42.1339 23.8246C41.9931 23.8 41.8507 23.7817 41.7071 23.7698C41.0137 23.841 40.2941 24.0216 39.7447 23.4902C39.4154 23.5255 39.0864 23.5608 38.7573 23.5961C37.7415 23.6469 37.7938 23.0646 37.7239 22.5552C37.5436 22.458 37.3631 22.3608 37.1826 22.2636C36.9428 22.2613 36.703 22.259 36.4632 22.2568L37.1826 22.2636C37.8068 22.1885 38.4311 22.1134 39.0553 22.0391C39.0631 21.9326 39.0591 21.8259 39.0434 21.72L38.04 21.0559C38.3745 21.2773 38.7088 21.4986 39.0434 21.72C39.0591 21.8259 39.0631 21.9326 39.0553 22.0391C38.4311 22.1134 37.8068 22.1885 37.1826 22.2636C37.3631 22.3608 37.5436 22.458 37.7239 22.5552C38.1992 23.1225 39.1163 22.9469 39.7373 23.2689C40.5345 23.2138 41.3316 23.1587 42.1287 23.1036C42.9187 23.1644 43.7087 23.2252 44.4988 23.2861L44.468 23.3106C44.9552 23.0895 45.3672 23.0365 45.5077 23.5888ZM59.5323 29.1836C58.0571 29.0303 56.5365 29.6929 55.0896 29.0354C54.9511 29.0423 54.8155 29.0697 54.6903 29.1161L53.7534 29.3805C53.3778 29.4486 52.9853 29.496 52.8252 29.8296C52.2323 29.5938 51.5545 29.5169 50.8989 29.6113C50.8447 29.5091 50.7845 29.409 50.7182 29.3109C50.1844 29.4852 49.4449 29.1946 49.0777 29.7445C48.2407 29.6428 47.4037 29.541 46.5666 29.4393C46.5407 29.2186 46.5148 28.9978 46.489 28.7769C48.5392 28.5716 50.5879 28.2473 52.6464 28.7331C53.316 28.1406 54.2601 28.5335 55.0396 28.3356C55.0932 28.4246 55.1653 28.5061 55.2532 28.5769C55.3093 28.5496 55.3751 28.5367 55.4412 28.5401C55.5074 28.5436 55.5705 28.5631 55.6214 28.5959C57.375 28.257 59.212 28.2727 60.9555 28.6413C60.7437 29.2339 60.0624 29.09 59.5323 29.1836ZM59.335 26.9067C59.4998 26.919 59.6645 26.9313 59.8292 26.9437L59.335 26.9067ZM65.8503 24.6539L66.1644 23.9621C66.0589 24.1933 65.9547 24.4235 65.8503 24.6539ZM73.1904 25.7417L72.6636 25.413C72.8392 25.5227 73.0148 25.6322 73.1904 25.7417ZM79.4325 15.3469C79.4142 15.214 79.3959 15.0811 79.3775 14.9482L79.4325 15.3469ZM84.2108 25.1312L84.7544 25.8188C84.573 25.5897 84.392 25.3603 84.2108 25.1312ZM89.6585 26.6787L88.7776 26.7017C89.0712 26.694 89.3648 26.6864 89.6585 26.6787ZM89.4396 18.8918C89.137 18.8834 88.8343 18.8752 88.5317 18.8668L88.5304 18.8666C88.3016 18.4042 88.0735 17.9414 87.8457 17.4784C88.477 17.4403 89.1083 17.4021 89.7397 17.3638C90.2097 17.3532 90.6796 17.3425 91.1495 17.3319C91.3115 17.2769 91.4736 17.2219 91.6356 17.167L91.6209 16.8977L99.8064 16.7636C100.479 16.6113 101.354 17.0293 101.809 16.3502C101.844 16.2985 101.405 16.0574 101.186 15.9048C101.168 15.811 101.146 15.718 101.121 15.6257L102.083 15.5208L102.09 15.6566C102.592 15.8331 103.094 16.009 103.596 16.1845C103.784 16.4151 103.971 16.6457 104.158 16.8763C103.489 16.9461 102.82 17.0158 102.151 17.0856C101.987 17.2809 101.823 17.4762 101.66 17.6714C101.271 17.8773 100.883 18.0832 100.494 18.2892C100.322 18.2642 100.15 18.2392 99.9786 18.2142C99.2221 17.6658 98.3289 18.066 97.5026 18.0011C97.1847 18.142 96.8669 18.283 96.5491 18.424C96.071 18.3369 95.5928 18.2497 95.1146 18.1626C93.3833 19.1511 91.302 18.5142 89.4396 18.8918ZM102.259 27.4628L101.728 27.1107C101.905 27.2281 102.082 27.3455 102.259 27.4628ZM110.811 25.7959L110.845 26.5727C110.833 26.314 110.822 26.0549 110.811 25.7959ZM111.114 24.3112L111.397 24.6675C111.303 24.5489 111.209 24.43 111.114 24.3112ZM111.54 24.293C111.876 24.2787 112.212 24.2643 112.548 24.2498L111.54 24.293ZM114.723 26.7193L114.644 25.9901C114.67 26.2333 114.696 26.4763 114.723 26.7193ZM120.942 26.0337C121.068 26.2023 121.195 26.3703 121.321 26.5384L120.942 26.0337ZM125.722 26.1099C125.742 26.2337 125.761 26.3573 125.781 26.4809L125.722 26.1099ZM116.482 25.0288C116.326 25.1007 116.17 25.1726 116.014 25.2447L115.644 25.5239C115.768 25.4306 115.891 25.3377 116.014 25.2447L116.482 25.0288ZM126.941 18.6622C125.347 18.7424 123.753 18.8226 122.159 18.9028C122.005 18.8759 121.847 18.8617 121.688 18.8604C121.192 18.7995 120.696 18.7386 120.2 18.6778L118.824 19.1113C116.269 18.4724 113.646 19.1189 111.071 18.8646C110.11 18.8588 109.148 18.853 108.187 18.8472C107.876 18.8585 107.566 18.8699 107.255 18.8813C107.239 18.6829 107.222 18.4846 107.205 18.2863C108.304 18.191 109.402 18.0958 110.501 18.0005C111.949 17.9165 113.397 17.8325 114.846 17.7485C114.996 17.7763 115.15 17.7937 115.304 17.8006C115.273 17.9068 115.292 18.0181 115.358 18.1146C115.99 18.0493 116.574 17.451 117.263 18.0118C118.269 17.8287 119.322 17.8858 120.284 18.1757C120.747 17.7253 121.516 18.0306 122.048 17.7503C123.148 18.2493 124.301 17.827 125.428 17.867C125.737 17.8725 126.047 17.878 126.356 17.8834L126.905 18.2627L126.941 18.6622ZM129 19.6073C129.291 19.5804 129.583 19.5534 129.874 19.5263L129 19.6073ZM130.408 19.4765C130.469 19.3683 130.53 19.2601 130.591 19.1517L130.408 19.4765ZM131.3 18.7497C131.43 18.6206 131.56 18.4908 131.69 18.3611L131.3 18.7497ZM133.622 17.8255C132.659 17.8861 131.696 17.9468 130.733 18.0076C130.397 17.7623 130.06 17.5171 129.723 17.2722L130.733 18.0076C131.696 17.9468 132.659 17.8861 133.622 17.8255C133.245 17.6064 132.867 17.3873 132.489 17.1681C132.376 17.1652 132.268 17.1343 132.179 17.08C132.489 16.9559 132.799 16.8315 133.11 16.707C134.285 16.7749 135.484 16.4827 136.64 16.85C138.975 16.8619 141.31 16.8737 143.644 16.8856C143.674 16.9655 143.703 17.046 143.728 17.127C144.452 17.9256 145.413 17.4078 146.281 17.4032C147.388 17.5016 148.494 17.6003 149.8 17.717C149.284 18.0373 148.953 18.2429 148.622 18.4484C148.289 18.3885 147.956 18.3286 147.624 18.2687L142.843 18.1805C142.35 18.1563 141.856 18.132 141.363 18.1078C140.247 18.1778 139.131 18.2479 138.015 18.3181C137.962 18.2909 137.902 18.2725 137.84 18.2638C137.777 18.2552 137.713 18.2566 137.651 18.268C137.529 18.0772 137.408 17.8865 137.286 17.6957C136.083 18.0567 134.8 17.0529 133.622 17.8255ZM142.485 19.6712L142.008 19.9692C142.167 19.8704 142.326 19.7707 142.485 19.6712ZM151.806 21.2786C151.477 21.3104 151.148 21.3422 150.82 21.374C150.339 21.3621 149.859 21.3504 149.379 21.3383C149.066 21.3965 148.753 21.4547 148.441 21.513C147.468 21.5674 146.495 21.6218 145.522 21.6764C145.224 21.6605 144.926 21.6446 144.628 21.6289C144.153 21.6782 143.678 21.7276 143.202 21.7768C143.035 21.7541 142.867 21.7316 142.699 21.7095C142.368 21.7569 142.037 21.8041 141.706 21.851C141.681 21.8525 141.656 21.855 141.631 21.8585C141.657 21.8568 141.68 21.8508 141.706 21.851C142.037 21.8041 142.368 21.7569 142.699 21.7095C142.867 21.7316 143.035 21.7541 143.202 21.7768C143.678 21.7276 144.153 21.6782 144.628 21.6289L144.494 21.2742L149.351 21.0868L151.746 20.9125C152.675 20.8596 153.603 20.8067 154.531 20.7538L154.58 21.1206L151.806 21.2786ZM155.123 16.6548C155.323 16.6083 155.523 16.5611 155.723 16.514L155.123 16.6548Z" fill="#FAE465"/>
</svg>
