<svg width="209" height="196" viewBox="0 0 209 196" fill="none" xmlns="http://www.w3.org/2000/svg">
<path fill-rule="evenodd" clip-rule="evenodd" d="M20.7352 0.628681C18.3049 1.4297 16.7238 2.23791 14.8991 3.61247C13.5424 4.63458 13.1096 5.23472 13.7295 5.23472C13.8794 5.23472 14.5792 4.7903 15.2847 4.24696C17.0625 2.87767 19.0033 1.91235 21.4106 1.19945C22.5371 0.865854 23.5052 0.452741 23.5618 0.281511C23.7148 -0.181199 22.8826 -0.0789599 20.7352 0.628681ZM33.094 0.139096C26.5738 1.10247 19.167 3.98014 14.5193 7.35626C11.8204 9.31682 7.74728 13.5516 5.95471 16.2611C1.58466 22.8659 -0.435576 31.2667 0.644028 38.3448C1.49568 43.9286 3.422 47.9636 7.00328 51.665C12.2055 57.0416 19.2063 60.1409 27.9766 60.9497C33.3859 61.4484 37.2064 61.1766 51.7694 59.2562C57.3926 58.5148 58.9254 58.4081 62.2056 58.5311C67.9522 58.7462 70.9861 59.7289 78.5466 63.8243C87.4081 68.6246 92.4502 70.1925 98.8699 70.1449C103.824 70.108 108.147 68.6484 111.259 65.9617C111.908 65.4017 112.37 65.1307 112.286 65.3593C112.202 65.5879 111.178 68.6736 110.01 72.2168C108.843 75.76 107.805 78.6565 107.704 78.6538C107.603 78.651 106.347 78.4604 104.912 78.2301C101.186 77.6319 92.5351 77.4053 88.8456 77.8092C79.8504 78.794 73.0986 81.0682 66.9887 85.1719C63.9131 87.2377 59.1989 91.657 57.0773 94.4635C56.2759 95.5238 55.5569 96.3844 55.4798 96.3758C55.4029 96.3672 54.7217 95.6117 53.9665 94.6971C51.6631 91.9069 43.9537 84.4454 41.3331 82.4696C39.9737 81.4447 37.609 79.9632 36.0787 79.1774C33.6512 77.9309 33.0346 77.7317 31.2498 77.6161C28.8453 77.4604 27.017 78.0977 26.1824 79.3827C23.7955 83.0584 29.826 95.5928 43.082 114.508L46.1668 118.91L45.8449 122.72C45.1204 131.292 46.7482 139.459 50.7826 147.493C57.7496 161.369 67.9266 170.038 80.2675 172.609C82.438 173.061 84.0754 173.195 87.4562 173.196L91.8342 173.198L95.4207 176.532C112.826 192.713 124.783 198.809 131.277 194.813C132.086 194.315 132.734 193.623 133.152 192.809C135.257 188.714 131.499 179.222 124.452 170.831L123.094 169.214L124.401 167.089C125.119 165.92 126.039 164.303 126.444 163.496C127.085 162.22 127.261 162.054 127.788 162.226C128.948 162.605 137.373 162.412 140.44 161.935C148.244 160.722 155.54 157.852 162.266 153.348C166.219 150.702 168.955 148.376 172.616 144.553C179.862 136.983 186.978 126.467 195.157 111.244C196.656 108.453 196.939 108.102 198.91 106.588C201.422 104.659 202.094 103.799 201.578 103.172C201.136 102.634 200.659 102.795 198.231 104.305C197.151 104.977 196.214 105.473 196.15 105.408C196.085 105.343 196.971 104.032 198.119 102.496C200.462 99.3566 200.847 98.4375 200.046 97.8848C199.759 97.6869 199.315 97.3173 199.058 97.0632C198.291 96.3032 197.508 96.7568 194.268 99.8403L191.208 102.752L191.239 100.701C191.264 99.0532 191.169 98.5356 190.755 98.0743C189.667 96.8618 189.442 97.2159 188.124 102.21C187.661 103.962 187.218 105.611 187.14 105.874C186.686 107.389 181.487 113.888 177.418 118.029C173.98 121.526 171.367 123.664 168.793 125.087C164.405 127.512 159.33 126.352 154.518 121.823L152.836 120.24L154.525 118.567C155.549 117.554 156.451 116.895 156.814 116.895C157.144 116.895 158.28 117.278 159.34 117.748C161.799 118.837 162.908 119.029 163.385 118.449C163.911 117.809 163.592 117.276 162.114 116.33L160.801 115.489L163.428 115.675C166.273 115.876 167.255 115.622 167.255 114.684C167.255 114.393 166.996 113.972 166.679 113.749C166.288 113.472 166.158 113.169 166.274 112.802C166.689 111.482 164.596 110.499 160.182 109.94L157.641 109.618L159.797 108.13C162.32 106.388 162.988 105.714 162.765 105.129C162.442 104.279 159.764 104.858 156.644 106.453L155.246 107.168L155.378 105.304C155.487 103.778 155.426 103.37 155.043 103.049C154.705 102.766 154.449 102.736 154.118 102.942C153.54 103.301 152.373 105.41 151.44 107.782C150.746 109.546 150.648 109.655 148.721 110.76C147.622 111.391 146.615 111.899 146.484 111.89C146.352 111.88 145.195 110.485 143.911 108.791C141.041 105.002 134.993 98.0025 127.392 89.6718L121.64 83.3676L123.035 77.6192C123.801 74.4572 124.546 71.4341 124.689 70.9007L124.949 69.931L126.864 69.9027C131.774 69.8304 134.694 66.2814 134.203 60.981C134.049 59.3128 134.067 59.2405 134.602 59.4117C135.405 59.6688 136.645 59.0681 137.019 58.2413C137.277 57.6697 137.256 57.4062 136.91 56.8745C136.57 56.3506 136.242 56.2159 135.306 56.2159C134.658 56.2159 133.927 56.0602 133.68 55.8696C133.433 55.6792 132.851 54.546 132.385 53.3516C131.307 50.5875 130.675 49.3337 129.166 46.9709C128.358 45.7052 127.857 44.5457 127.67 43.5075C126.936 39.4223 124.151 37.3088 118.512 36.5577C111.831 35.6677 107.191 33.833 102.85 30.3654C100.073 28.1469 98.5428 26.3556 94.8898 21.0442C91.249 15.7504 90.1924 14.4903 87.6462 12.4065C84.4409 9.78286 80.5065 8.00045 75.6931 6.9908C73.9555 6.62618 71.7147 6.50953 65.5013 6.45993C55.3798 6.37875 54.2411 6.14684 46.1393 2.51859C44.4022 1.74057 42.2394 0.902151 41.3331 0.655558C39.7125 0.214182 34.7083 -0.0994627 33.094 0.139096ZM177.584 3.34592C176.372 7.72948 176.093 13.315 176.934 16.4004L177.372 18.0072L175.815 17.1233C173.787 15.9718 168.796 12.6835 166.035 10.6795C164.058 9.24478 163.826 9.14254 163.563 9.59001C163.202 10.2032 163.224 18.3441 163.59 19.4826C163.892 20.4221 164.197 20.6189 165.882 20.9594L167.118 21.209L165.95 21.7028C164.641 22.2561 164.603 22.358 165.228 23.6046C167.238 27.6163 171.795 30.9301 176.67 31.9253L178.3 32.2584L170.168 37.7264C165.346 40.969 162.037 43.3692 162.037 43.6236C162.037 44.4515 162.891 45.706 164.014 46.5267C165.493 47.6073 167.468 48.1809 169.711 48.1809C171.407 48.1809 171.635 48.1013 173.437 46.8819C175.592 45.4232 179.131 41.9775 180.293 40.207L181.06 39.0375H183.923C185.498 39.0375 186.72 39.1455 186.64 39.2774C186.559 39.4093 186.181 39.4572 185.8 39.3835C185.002 39.2298 184.872 39.6936 185.587 40.1436C185.96 40.3782 185.805 40.407 184.9 40.2716C183.585 40.0748 183.232 40.5777 184.488 40.8573C184.904 40.9498 185.34 41.0468 185.457 41.0728C185.574 41.0989 182.569 43.9245 178.78 47.3521L171.889 53.5838L172.036 54.692C172.117 55.3016 172.267 58.7769 172.369 62.4151L172.555 69.0302L173.956 68.8886C174.726 68.8105 180.733 68.2749 187.304 67.6983C193.874 67.1215 199.334 66.5776 199.437 66.4895C199.54 66.4011 199.519 62.8471 199.391 58.5915L199.158 50.854L195.085 46.959C192.844 44.8166 190.271 42.3535 189.367 41.4849L187.722 39.9061L188.354 39.2273C188.718 38.8369 189.445 38.4745 190.067 38.3742C191.94 38.0722 194.118 36.911 195.503 35.4768C197.581 33.3248 199.232 29.7262 200.869 23.7858C201.351 22.038 202.015 21.296 203.782 20.5283C204.462 20.2329 205.252 19.727 205.539 19.4036C205.992 18.893 206.253 18.8389 207.53 18.9902C208.373 19.0903 209 19.0551 209 18.9079C209 18.7669 208.449 18.1867 207.775 17.6185C207.1 17.0491 206.309 16.0366 206.014 15.3628C205.186 13.474 203.255 12.7187 200.651 13.264C198.762 13.6596 196.042 15.5493 193.657 18.1222C191.63 20.3094 191.881 20.3351 188.852 17.6315C185.378 14.531 181.687 9.26418 179.629 4.47195C179.064 3.15502 178.464 2.03122 178.296 1.97497C178.128 1.91817 177.81 2.53106 177.584 3.34592ZM183.063 12.0651C183.799 13.1088 185.496 15.1065 186.834 16.5049C188.994 18.7619 189.233 19.1113 188.964 19.6189C188.459 20.5695 187.104 21.0904 185.163 21.0791C183.636 21.0702 183.036 20.8968 180.86 19.8359L178.332 18.6026L177.838 16.8368C176.929 13.5848 177 8.4507 178.007 4.55894L178.29 3.46784L180.007 6.81791C180.951 8.66044 182.327 11.0216 183.063 12.0651ZM68.1104 9.3908C68.7335 10.0195 68.7791 10.3101 68.3754 11.0715C68.0533 11.6789 66.7649 11.8016 66.2428 11.2749C65.7806 10.8086 65.8325 9.78868 66.3447 9.27194C66.9234 8.68842 67.4491 8.72361 68.1104 9.3908ZM61.1854 10.2428C63.0889 10.9122 63.5766 13.4532 62.0895 14.9536C61.1741 15.8768 60.0423 16.0103 58.7672 15.3451C57.7815 14.8308 57.3995 14.1506 57.3995 12.9099C57.3995 11.5096 58.715 10.0391 60.0363 9.9624C60.2024 9.95298 60.7196 10.079 61.1854 10.2428ZM170.413 14.5158C177.181 19.0299 182.814 21.9078 187.004 22.9939C190.004 23.7717 190.004 23.7717 191.648 21.5972C193.688 18.8974 197.436 15.3999 199.245 14.5069C200.523 13.8763 201.027 13.7768 202.422 13.8785C203.767 13.9766 204.222 14.1415 204.824 14.7496C205.443 15.3742 205.564 15.733 205.547 16.8911C205.532 17.8819 205.374 18.4314 204.997 18.799C204.707 19.0828 202.738 20.2052 200.624 21.2927C195.544 23.9055 194.78 24.5788 195.305 25.983C195.531 26.5873 195.66 26.6283 196.824 26.4676C199.224 26.1354 199.412 27.1555 197.629 30.8511C194.839 36.6369 192.201 37.9843 182.865 38.3919L178.789 38.5698L175.078 42.9417C170.991 47.7561 171.178 47.6392 168.114 47.287C165.621 47.0005 162.861 45.1962 162.861 43.8527C162.861 43.6466 165.069 41.99 167.767 40.171C172.352 37.08 172.703 36.8943 173.132 37.3274C173.846 38.047 175.65 37.8677 177.554 36.888C180.524 35.3594 186.058 31.0537 185.626 30.6073C185.534 30.5123 184.731 30.6297 183.841 30.868C181.579 31.474 177.677 31.4806 175.646 30.8822C173.913 30.3718 170.974 28.9756 170.704 28.5348C170.538 28.2641 170.858 28.1289 172.404 27.8147C172.895 27.7149 173.297 27.5019 173.297 27.3409C173.297 27.0577 171.708 27.1663 170.177 27.554C169.722 27.6692 169.297 27.5166 168.75 27.0414L167.97 26.3645L171.477 25.5228C173.407 25.0598 175.059 24.607 175.148 24.517C175.687 23.9728 174.495 24.0684 171.297 24.8254C167.223 25.7898 167.308 25.807 166.193 23.8049L165.572 22.69L167.247 21.9571C168.168 21.554 168.877 21.0866 168.822 20.9181C168.767 20.7499 167.783 20.4449 166.635 20.2407C165.197 19.9846 164.489 19.7261 164.359 19.4094C164.078 18.7262 163.858 12.3765 164.075 11.2078L164.264 10.1962L165.416 11.074C166.05 11.5567 168.299 13.1055 170.413 14.5158ZM202.065 15.7856C200.867 16.4897 202.008 18.364 203.233 17.703C203.941 17.3206 203.952 16.1519 203.251 15.7732C202.618 15.4318 202.668 15.4312 202.065 15.7856ZM99.0432 24.0169C98.6332 24.6863 102.052 28.2921 104.094 29.3427C105.904 30.2745 106.074 29.5855 104.285 28.5669C103.467 28.1012 101.99 26.8269 101.002 25.7353C100.015 24.6436 99.133 23.8703 99.0432 24.0169ZM192.666 45.6567C195.465 48.3069 197.679 50.5512 197.587 50.644C197.434 50.7989 173.793 53.169 173.644 53.0443C173.505 52.9293 187.177 40.7057 187.372 40.7703C187.486 40.8077 189.868 43.0068 192.666 45.6567ZM0 45.6537C0 45.9654 0.265576 46.9421 0.590199 47.824C2.21688 52.243 5.91627 56.132 10.9089 58.6716C12.7045 59.5849 13.1827 59.7123 13.1827 59.2767C13.1827 59.1316 12.0981 58.4475 10.7724 57.7567C5.77785 55.1545 2.09 50.9394 0.951347 46.5326C0.61876 45.2453 0 44.6737 0 45.6537ZM130.142 50.3974C130.879 51.8451 131.689 53.6696 131.941 54.4515C132.531 56.2844 133.146 56.8197 134.851 56.9848C136.461 57.1408 136.74 57.4231 136.049 58.1934C135.566 58.7326 135.284 58.7459 133.865 58.2965C133.309 58.1205 133.295 58.1978 133.316 61.3914C133.334 64.2355 133.26 64.8126 132.748 65.7749C130.852 69.3453 125.973 70.2119 121.303 67.8081C120.718 67.5069 120.17 67.3296 120.085 67.4143C120.001 67.4994 120.311 68.4121 120.774 69.4425C122.419 73.1065 122.598 75.8504 121.494 80.4597L120.764 83.5075L122.313 85.6839C123.165 86.8809 123.862 87.9628 123.862 88.0881C123.862 88.4965 119.518 90.0181 117.407 90.3492C111.897 91.2134 105.51 88.2175 100.935 82.6214C98.9117 80.1466 97.9271 78.6862 98.1385 78.4731C98.3105 78.2997 105.882 79.0708 106.998 79.3753C107.444 79.4969 107.544 79.6928 107.44 80.24C107.344 80.7448 107.41 80.9125 107.67 80.8252C107.871 80.7576 109.362 76.6871 110.985 71.7793L113.935 62.856L113.062 62.4883C111.583 61.8643 111.087 60.7735 111.537 59.131C112.275 56.4337 115.129 56.567 115.952 59.3372C116.636 61.6418 118.312 61.0641 122.097 57.2184C124.132 55.1509 124.82 54.221 125.849 52.1474C126.542 50.7507 127.266 48.9018 127.457 48.0387L127.805 46.4694L128.304 47.1172C128.578 47.4738 129.405 48.9497 130.142 50.3974ZM197.191 51.6279C197.191 51.7612 186.424 60.0564 185.475 60.6544C184.821 61.0664 185.434 61.398 177.883 56.5476C175.646 55.1115 173.857 53.896 173.906 53.8467C173.955 53.7974 178.627 53.3172 184.288 52.78C193.815 51.8753 195.935 51.6678 196.847 51.55C197.036 51.5257 197.191 51.5606 197.191 51.6279ZM126.394 54.487C125.313 55.0292 124.959 56.0563 125.622 56.7244C126.245 57.3519 129.169 57.3309 130.365 56.6897C131.546 56.0569 131.81 55.1575 131.007 54.5014C130.221 53.8592 127.661 53.8511 126.394 54.487ZM198.132 54.4346C198.433 54.738 198.564 55.3975 198.564 56.6077C198.564 57.5636 198.646 59.8844 198.746 61.7651L198.928 65.1845L198.128 64.5799C197.688 64.2474 195.857 62.5612 194.059 60.8328L190.789 57.6902L192.577 56.4035C194.46 55.0478 196.467 54.0157 197.24 54.0055C197.493 54.0021 197.895 54.1953 198.132 54.4346ZM128.119 55.6618C128.119 56.3298 128.002 56.493 127.523 56.493C126.065 56.493 125.565 55.71 126.677 55.1686C127.763 54.6405 128.119 54.7624 128.119 55.6618ZM177.406 57.4802C178.314 57.8914 179.174 58.3707 179.318 58.5458C179.497 58.7639 178.716 60.0406 176.84 62.5966C175.333 64.6494 173.933 66.5784 173.731 66.8832C173.405 67.3728 173.339 67.1276 173.162 64.7747C172.885 61.07 173.064 57.5257 173.559 56.9239C174.067 56.3068 175.165 56.4659 177.406 57.4802ZM113.009 57.951C112.415 58.4666 112.238 58.87 112.217 59.7611C112.184 61.142 112.702 61.4545 112.828 60.1293L112.916 59.1942L113.827 60.0841C115.038 61.2689 115.468 60.6701 114.288 59.4416C113.515 58.6373 113.482 58.5317 113.914 58.2474C114.265 58.0161 114.308 57.8523 114.08 57.6115C113.848 57.3661 113.588 57.4483 113.009 57.951ZM194.285 62.0211C196.476 64.0712 198.223 65.7951 198.167 65.8522C198.024 65.9966 174.611 68.1599 174.202 68.0668C173.921 68.0026 178.925 60.6981 180.023 59.5707C180.343 59.2418 180.729 59.3989 182.635 60.6327L184.873 62.081L185.882 61.3689C186.437 60.9774 187.571 60.0994 188.402 59.4175C189.233 58.7359 190 58.2042 190.107 58.2361C190.213 58.2679 192.094 59.9711 194.285 62.0211ZM125.903 61.8981C125.392 63.1314 125.624 64.0659 126.659 64.9445C127.594 65.7375 129.205 65.876 130.058 65.2366C130.566 64.8556 130.502 64.7464 128.676 62.8815C127.622 61.8061 126.658 60.9262 126.533 60.9262C126.408 60.9262 126.124 61.3636 125.903 61.8981ZM128.515 64.7558C127.489 64.8611 126.334 63.9327 126.334 63.002C126.334 61.9286 126.692 62.0001 128.048 63.3439L129.383 64.6666L128.515 64.7558ZM94.0489 80.4847C97.3627 87.7204 104.613 93.1474 112.732 94.4685C116.627 95.1027 121.286 94.3848 124.75 92.6171L126.05 91.9535L127.037 93.9318C129.418 98.7002 131.591 105.423 132.777 111.688C133.37 114.816 134.082 120.013 133.932 120.111C133.907 120.127 132.712 120.994 131.277 122.038C121.912 128.848 115.108 132.104 109.016 132.689C101.987 133.365 96.848 130.413 95.0931 124.693C94.4869 122.718 94.423 116.126 94.9882 113.901C95.365 112.418 95.2625 111.834 94.7218 112.38C94.331 112.774 93.6551 117.403 93.6581 119.665C93.6592 120.656 93.8393 122.214 94.0582 123.129C94.2771 124.043 94.4606 124.866 94.4658 124.957C94.4713 125.048 92.6529 125.197 90.4248 125.288C81.2787 125.661 73.5098 127.999 68.134 131.998C64.8265 134.457 60.8797 138.98 58.2179 143.361C56.9543 145.441 54.9233 149.518 54.4029 151.021L54.0829 151.944L52.9547 150.005C47.8382 141.208 45.6254 131.22 46.699 121.765C47.3183 116.313 49.1092 109.839 51.2272 105.396C52.4686 102.792 55.7574 97.3838 57.386 95.2678C58.6057 93.683 63.7472 88.3563 64.057 88.3563C64.5898 88.3563 65.1305 90.5418 65.489 94.1449C65.8965 98.2422 66.4013 99.9733 67.2038 100.025C69.5352 100.176 69.5931 100.031 69.7956 93.5422C70.0414 85.6551 70.7211 83.6355 73.5554 82.371C78.3247 80.243 86.0484 78.5296 91.3778 78.4177L93.0857 78.3817L94.0489 80.4847ZM98.4783 80.6675C103.419 87.8307 110.605 91.9685 116.859 91.2503C118.74 91.0342 121.599 90.2016 123.096 89.4332C123.656 89.1456 124.172 88.9104 124.241 88.9104C124.447 88.9104 125.51 90.7499 125.51 91.1079C125.51 91.567 122.308 92.987 120.08 93.5159C117.27 94.1834 112.304 93.9237 109.496 92.9626C102.529 90.5773 96.6887 85.3941 94.3938 79.5592L93.9308 78.3817H95.4163H96.9018L98.4783 80.6675ZM36.2248 82.6489C39.2989 84.979 43.1735 88.4726 44.968 90.5321C47.9538 93.9592 48.714 95.0129 48.4166 95.313C48.2257 95.5056 47.8415 95.2138 47.2139 94.4006C44.149 90.4265 40.2409 86.637 35.5001 83.042C34.0978 81.9789 33.0215 80.9939 33.1077 80.8529C33.3123 80.519 33.7388 80.7648 36.2248 82.6489ZM46.3928 81.4081C45.517 82.2917 45.4291 82.7095 45.9004 83.7527C46.3406 84.728 47.563 85.1924 48.5753 84.7693C49.3473 84.4465 49.9842 83.4851 49.9842 82.6419C49.9842 82.0105 48.466 80.5983 47.7871 80.5983C47.4617 80.5983 46.8344 80.9626 46.3928 81.4081ZM17.1331 86.1156C14.1952 87.4616 13.3425 91.3761 15.4578 93.8063C17.0276 95.6103 19.1695 96.0389 21.3331 94.9822C25.055 93.1646 24.8688 87.8697 21.0211 86.1064C19.6119 85.4606 18.5573 85.4631 17.1331 86.1156ZM197.678 98.8102C197.297 99.3846 196.228 100.684 195.303 101.698C193.708 103.446 193.299 104.149 193.877 104.149C194.018 104.149 194.976 103.192 196.006 102.021C199.052 98.5558 199.467 98.156 199.602 98.5625C199.728 98.9448 198.68 100.55 196.339 103.56C194.044 106.511 195.052 107.25 198.455 105.11C199.59 104.397 200.585 103.879 200.666 103.961C200.747 104.042 200.035 104.71 199.085 105.446C196.213 107.667 195.958 107.996 193.333 112.877C180.8 136.186 169.578 149.228 156.269 155.953C151.462 158.382 145.906 160.256 141.059 161.083L139.992 161.265L140.141 155.358C140.392 145.433 142.09 137.669 145.674 130.056C146.79 127.686 147.679 126.317 149.672 123.902L152.235 120.797L153.768 122.21C154.611 122.987 155.783 123.945 156.373 124.339L157.446 125.056L155.69 125.557C150.577 127.017 149.378 128.133 150.963 129.957C151.871 131.002 153.898 130.724 160.053 128.709C162.126 128.03 164.563 127.325 165.47 127.142C168.578 126.515 171.338 124.818 175.674 120.87C178.909 117.924 184.981 110.883 187.107 107.613C187.545 106.94 188.229 104.951 188.847 102.556C189.407 100.385 189.955 98.6079 190.064 98.6079C190.479 98.6079 190.602 100.564 190.307 102.479C190.139 103.574 190.078 104.547 190.172 104.641C190.265 104.736 191.481 103.691 192.874 102.319C196.311 98.9318 198.026 97.4185 198.213 97.6074C198.299 97.6944 198.058 98.2355 197.678 98.8102ZM135.286 101.33C137.978 103.091 140.193 105.234 143.063 108.858C144.564 110.753 145.746 112.38 145.688 112.474C145.631 112.567 144.806 113.123 143.855 113.709C142.904 114.294 140.505 115.812 138.524 117.081C136.543 118.35 134.858 119.388 134.779 119.388C134.701 119.388 134.549 118.547 134.442 117.518C134.158 114.784 133.272 109.953 132.474 106.782C131.486 102.86 131.771 100.27 133.191 100.27C133.451 100.27 134.394 100.747 135.286 101.33ZM154.358 106.712C154.124 107.5 153.788 107.887 152.965 108.31L151.88 108.868L152.432 107.454C153.079 105.798 153.741 104.447 154.175 103.895C154.623 103.326 154.755 105.369 154.358 106.712ZM191.332 105.442C191.231 105.544 191.148 105.894 191.148 106.221C191.148 107.027 190.184 108.015 189.205 108.213C188.764 108.302 188.402 108.546 188.402 108.756C188.402 109.487 190.163 109.022 191.144 108.033C191.683 107.489 191.785 107.48 193.215 107.857C194.16 108.105 194.78 108.153 194.884 107.983C195.122 107.594 194.919 107.468 193.438 107.089C192.303 106.798 192.097 106.64 192.023 106.003C191.938 105.272 191.695 105.075 191.332 105.442ZM161.637 105.791C161.551 105.932 160.244 106.892 158.732 107.923C157.221 108.955 156.028 109.93 156.08 110.091C156.133 110.252 157.217 110.469 158.489 110.574C161.395 110.813 163.866 111.291 164.848 111.803C166.366 112.595 165.515 113.126 163.343 112.743C161.078 112.344 156.754 112.271 156.63 112.631C156.559 112.837 157.505 113.003 159.486 113.135C163.586 113.406 166.431 114.067 166.431 114.749C166.431 114.936 165.262 114.954 162.929 114.801C156.448 114.377 156.093 114.525 159.768 116.122C162.272 117.211 163.414 118.003 162.48 118.003C162.206 118.003 160.984 117.567 159.764 117.033C156.454 115.586 156.38 115.606 153.224 118.734L150.53 121.404L149.143 120.506C148.185 119.886 147.755 119.424 147.754 119.013C147.753 118.174 146.822 116.735 145.915 116.167C145.006 115.599 144.46 114.978 144.46 114.515C144.46 114.207 148.957 111.463 154.166 108.594C157.869 106.554 162.155 104.946 161.637 105.791ZM146.026 117.24C147.971 119.202 146.749 122.492 144.077 122.492C142.056 122.492 140.557 120.551 141.159 118.713C141.455 117.807 142.313 116.833 143.087 116.523C143.847 116.219 145.386 116.595 146.026 117.24ZM143.732 117.654C143.628 118.071 143.379 118.579 143.178 118.782C142.693 119.271 142.716 119.806 143.244 120.338C143.481 120.578 143.843 120.774 144.048 120.774C144.253 120.774 144.615 120.578 144.852 120.338C145.395 119.791 145.401 119.269 144.872 118.735C144.645 118.507 144.46 117.999 144.46 117.607C144.46 116.663 143.971 116.695 143.732 117.654ZM140.167 117.795C140.258 118.138 140.335 118.917 140.338 119.527C140.344 121.09 141.203 122.362 142.701 123.031C143.388 123.337 144.377 123.88 144.9 124.239C145.423 124.597 146.218 124.971 146.665 125.07L147.478 125.25L145.933 127.237C145.083 128.33 142.935 131.157 141.158 133.519C136.589 139.595 133.223 143.485 127.851 148.897C115.613 161.227 103.96 169.362 95.5742 171.43C83.2757 174.462 71.0262 170.837 61.6297 161.383C59.9533 159.697 58.0701 157.621 57.4442 156.772L56.3067 155.226L57.018 153.092C59.376 146.017 66.512 135.95 71.676 132.415C73.7377 131.003 77.1438 129.312 79.7237 128.418C83.427 127.136 89.6511 126.046 93.303 126.04C94.6946 126.038 94.7561 126.071 95.2809 127.109C95.5789 127.699 96.1364 128.557 96.5201 129.017C97.0565 129.66 97.1386 129.917 96.8766 130.128C96.0521 130.795 94.1096 131.59 91.311 132.406C87.1505 133.62 86.1072 134.349 86.3738 135.856C86.6963 137.678 88.1702 138.219 91.0042 137.556C91.9817 137.327 94.9239 136.438 97.5423 135.581C101.754 134.202 102.699 133.992 105.736 133.763C110.406 133.41 113.355 132.83 116.3 131.685C121.045 129.839 122.959 128.677 135.671 119.926C137.862 118.418 139.732 117.181 139.828 117.178C139.923 117.174 140.076 117.452 140.167 117.795ZM192.429 124.306C192.36 124.421 191.845 125.761 191.285 127.285C187.378 137.91 179.679 149.502 173.162 154.575C171.874 155.577 171.223 156.516 171.816 156.516C172.223 156.516 175.558 153.598 177.581 151.473C182.997 145.781 188.121 137.445 191.512 128.809C192.964 125.11 193.25 124.099 192.842 124.099C192.684 124.099 192.498 124.192 192.429 124.306ZM143.337 133.655C141.145 139.523 139.669 146.879 139.33 153.62C139.158 157.052 139.15 157.083 138.444 157.27C137.189 157.601 135.642 157.432 134.891 156.883C133.13 155.594 132.121 151.167 132.643 147.018L132.911 144.885L135.273 142.181C136.572 140.693 139.14 137.466 140.979 135.01C142.818 132.554 144.353 130.569 144.39 130.599C144.428 130.629 143.954 132.005 143.337 133.655ZM32.8177 138.549C32.4593 139.491 37.088 148.905 40.4686 154.109C47.5026 164.938 56.1455 172.953 66.1799 177.954C69.5764 179.646 75.9595 182.007 77.141 182.007C78.5145 182.007 77.4893 181.436 74.2211 180.381C65.1558 177.454 58.0369 172.967 50.6609 165.529C43.9315 158.743 37.9163 149.687 34.46 141.138C33.3483 138.389 33.0547 137.926 32.8177 138.549ZM160.733 144.412C159.209 145.771 158.009 146.568 155.861 147.65C153.837 148.669 153.053 149.64 153.39 150.711C153.674 151.614 154.661 152.36 155.571 152.36C157.252 152.36 163.138 148.788 164.362 147.025C164.989 146.122 164.892 144.802 164.148 144.096C163.197 143.195 161.971 143.309 160.733 144.412ZM131.286 148.724C129.667 155.123 126.038 163.417 122.544 168.707C120.054 172.478 116.769 176.418 114.068 178.874C111.446 181.258 106.842 184.777 106.344 184.777C106.035 184.777 102.166 181.821 102.166 181.585C102.166 181.539 102.712 181.235 103.379 180.909C104.921 180.156 106.576 178.349 107.617 176.281C109.464 172.611 110.562 171.7 113.563 171.345C115.577 171.107 117.644 170.029 118.376 168.834C118.969 167.866 119.076 165.902 118.653 163.72C118.317 161.98 118.708 161.339 120.946 159.967C124.831 157.585 126.738 155.191 127.462 151.785C127.731 150.521 128.075 149.973 129.734 148.16C130.809 146.985 131.726 146.127 131.771 146.253C131.816 146.38 131.598 147.491 131.286 148.724ZM148.274 150.854C146.605 151.572 146.176 153.284 147.364 154.484C148.797 155.929 151.875 154.752 151.875 152.758C151.875 150.934 150.177 150.036 148.274 150.854ZM80.0074 159.427C79.1215 159.803 78.8213 160.304 78.8213 161.406C78.8213 162.878 79.8399 163.604 82.8645 164.288C84.8331 164.733 89.3644 164.653 90.3166 164.156C91.6549 163.458 91.8705 161.898 90.7804 160.798C90.1521 160.164 89.9148 160.118 87.278 160.118C85.3327 160.118 83.8856 159.955 82.6432 159.597C81.1109 159.154 80.7111 159.129 80.0074 159.427ZM122.125 173.764C126.665 178.52 130.701 185.294 130.722 188.194C130.731 189.427 130.078 188.928 129.847 187.526C129.384 184.725 126.239 179.571 122.25 175.077C120.682 173.31 120.256 172.586 120.784 172.586C120.903 172.586 121.507 173.116 122.125 173.764ZM50.6857 173.67C50.3632 174.197 55.3122 177.568 58.8666 179.243C61.3458 180.411 63.9573 181.175 65.4722 181.175C66.5611 181.175 66.8264 180.702 65.8446 180.512C62.7283 179.906 61.7105 179.636 60.2832 179.036C58.1792 178.152 55.2974 176.474 52.9407 174.761C50.9392 173.307 50.9153 173.295 50.6857 173.67Z" fill="#3F3F3F"/>
<path d="M176.074 22.4676C175.742 22.3017 175.382 22.2035 175.013 22.1787C174.6 22.0513 174.6 22.0512 174.571 22.2735C174.549 22.3447 174.555 22.4219 174.588 22.4888C174.622 22.5557 174.679 22.6071 174.749 22.6322C175.278 22.739 175.764 23.0374 176.322 23.0089L176.341 22.9209C176.297 22.9282 176.253 22.9316 176.208 22.9309C176.253 22.9316 176.297 22.9282 176.341 22.9208L176.322 23.0089C176.763 23.2216 177.247 23.2469 177.712 23.3504C177.723 23.3403 177.734 23.3293 177.743 23.3175L177.743 23.3175C178.077 23.3876 178.412 23.4576 178.746 23.5275L178.746 23.5275C178.412 23.4575 178.077 23.3875 177.743 23.3175C177.734 23.3292 177.723 23.3402 177.713 23.3504C177.895 23.4282 178.077 23.5061 178.259 23.5839C178.217 23.614 178.174 23.6441 178.132 23.6741C177.983 23.6447 177.834 23.6152 177.684 23.5857C177.474 23.7116 177.328 23.4499 177.131 23.4877C176.986 23.4146 176.824 23.3833 176.663 23.3971C176.308 23.2638 175.926 23.2876 175.565 23.1957C175.408 23.1599 175.251 23.124 175.095 23.0881C174.933 23.0801 174.769 22.9918 174.612 23.1007L174.572 23.3234C174.637 23.3036 174.705 23.2925 174.773 23.2904C174.705 23.2925 174.637 23.3036 174.572 23.3234C174.585 23.2492 174.598 23.1749 174.612 23.1007C174.527 23.0866 174.442 23.0047 174.355 23.0944C174.348 23.1567 174.341 23.219 174.333 23.2813C174.243 23.3555 174.218 23.4269 174.227 23.4931C174.218 23.4269 174.243 23.3555 174.333 23.2812L174.355 23.0944C174.204 23.0949 174.069 23.1051 174.072 23.3181C174.059 23.443 174.087 23.569 174.152 23.6766C174.217 23.7842 174.315 23.8675 174.431 23.9134C174.719 24.0253 175.015 24.1169 175.307 24.2174C175.378 24.2806 175.449 24.3438 175.519 24.407C175.488 24.4249 175.457 24.4428 175.426 24.4607C175.372 24.4558 175.318 24.4509 175.264 24.446C175.207 24.3677 175.122 24.3149 175.027 24.2988C174.932 24.2828 174.835 24.3047 174.756 24.3599C174.609 24.4432 174.693 24.6075 174.733 24.7391C174.748 24.7975 174.762 24.8558 174.777 24.9142C174.596 24.9165 174.419 24.968 174.264 25.0635C174.118 25.0669 173.898 24.9171 173.844 25.1006C173.781 25.3178 173.935 25.4925 174.182 25.5444C174.567 25.6254 174.948 25.7342 175.336 25.7974C175.768 25.8678 176.164 26.0922 176.611 26.087C176.835 26.154 177.06 26.221 177.284 26.2881C177.242 26.2246 177.201 26.1611 177.16 26.0976C177.088 26.1088 177.014 26.1056 176.943 26.0881C177.014 26.1056 177.088 26.1088 177.16 26.0975L177.16 26.0976L177.16 26.0976C177.201 26.1611 177.242 26.2246 177.284 26.288C177.571 26.3461 177.859 26.391 178.145 26.4735C178.501 26.5765 178.856 26.7314 179.242 26.7102C179.268 26.7156 179.294 26.721 179.32 26.7265L179.32 26.7264C179.455 26.8218 179.612 26.8796 179.775 26.8939C179.918 27.0011 180.096 27.0027 180.255 27.0614C180.711 27.2307 181.207 27.2893 181.624 27.5675C181.689 27.5771 181.753 27.5867 181.817 27.5963L181.818 27.5964C181.753 27.5867 181.689 27.5771 181.624 27.5675C181.517 27.6972 181.389 27.5701 181.273 27.5948C181.091 27.5558 180.908 27.5168 180.726 27.4778C180.716 27.4687 180.704 27.4622 180.691 27.4589C180.678 27.4557 180.665 27.4557 180.652 27.4592C180.601 27.4047 180.534 27.3683 180.46 27.3555C180.387 27.3427 180.312 27.3542 180.246 27.3882C180.205 27.3773 180.163 27.3664 180.122 27.3554C179.801 27.1952 179.458 27.0856 179.104 27.0305L178.949 27.0015C178.532 26.9111 178.139 26.7154 177.706 26.6897C177.699 26.6803 177.69 26.6726 177.68 26.6672C177.67 26.6618 177.659 26.6589 177.647 26.6587C177.346 26.5308 177.026 26.452 176.701 26.4254C176.624 26.4066 176.546 26.3879 176.468 26.3692L175.687 26.2115C175.634 26.0638 175.521 26.0989 175.442 26.1552C175.342 26.2274 175.421 26.3351 175.47 26.3916C175.506 26.4439 175.553 26.4875 175.608 26.5191C175.662 26.5507 175.723 26.5696 175.786 26.5743C175.793 26.5457 175.801 26.5171 175.809 26.4885L175.809 26.4885L175.786 26.5743C176.158 26.7251 176.549 26.8227 176.948 26.8643C177.105 26.8955 177.262 26.9266 177.419 26.9577C177.427 26.9659 177.437 26.9723 177.448 26.9763C177.458 26.9804 177.47 26.982 177.481 26.9812L177.475 26.988C177.564 27.0587 177.666 27.1105 177.776 27.14C177.885 27.1696 177.999 27.1763 178.111 27.1597C178.135 27.1699 178.159 27.18 178.183 27.1902C178.405 27.2872 178.636 27.3577 178.873 27.3999C178.942 27.5588 179.033 27.4498 179.117 27.4219C179.216 27.5791 179.365 27.523 179.502 27.5154C179.686 27.6569 179.917 27.6374 180.123 27.7025C180.555 27.8472 180.997 27.959 181.446 28.0369C181.489 28.0476 181.532 28.0583 181.574 28.069C182.203 28.2862 182.852 28.4337 183.511 28.509C183.68 28.5351 183.87 28.7361 184.04 28.5053C184.198 28.4182 184.12 28.2968 184.085 28.1815C184.146 28.1378 184.208 28.094 184.27 28.0502C184.37 28.0146 184.478 27.9867 184.467 27.8436L184.472 27.8501C184.589 27.8706 184.706 27.8993 184.824 27.9091C184.919 27.917 185.061 27.9814 185.087 27.8331C185.106 27.7215 184.997 27.6379 184.896 27.6025C184.632 27.4789 184.35 27.3998 184.062 27.3684C183.891 27.3049 183.72 27.2414 183.549 27.1779C183.396 27.0967 183.243 27.0155 183.09 26.9343C183.165 26.8548 183.26 26.9089 183.345 26.8948C183.492 26.9568 183.65 26.987 183.809 26.9835C184.092 27.1912 184.436 27.1693 184.755 27.2398C184.78 27.2488 184.807 27.252 184.834 27.2492C184.861 27.2465 184.886 27.2378 184.909 27.2238C184.932 27.2098 184.952 27.1908 184.967 27.1682C184.982 27.1457 184.991 27.12 184.995 27.0932C185.03 26.934 184.933 26.8785 184.8 26.8562L184.726 26.8273C184.601 26.6401 184.393 26.6233 184.204 26.5691L184.333 26.76L184.204 26.5691C183.924 26.3913 183.621 26.2556 183.303 26.1662C183.242 26.1077 183.17 26.0627 183.091 26.0343C183.013 26.006 182.929 25.9949 182.846 26.0017C182.827 25.9868 182.805 25.9776 182.782 25.9752C182.74 25.8599 182.633 25.8816 182.547 25.8588C182.289 25.7038 182.003 25.6013 181.707 25.5572C181.53 25.5271 181.385 25.3637 181.186 25.4283C181.112 25.291 180.972 25.3461 180.862 25.3149C180.649 25.1939 180.413 25.1196 180.17 25.0968C180.167 25.1207 180.164 25.1445 180.159 25.1681C180.21 25.1795 180.261 25.1908 180.313 25.2021C180.261 25.1908 180.21 25.1795 180.159 25.1682L180.143 25.2526L180.159 25.1682C180.164 25.1445 180.167 25.1207 180.17 25.0968C179.736 24.9852 179.301 24.8736 178.867 24.762C178.819 24.7615 178.77 24.7609 178.722 24.7603C178.775 24.8834 178.86 24.9895 178.969 25.0668C178.86 24.9895 178.775 24.8833 178.722 24.7602C178.77 24.7609 178.819 24.7615 178.867 24.762C178.726 24.6653 178.558 24.6166 178.388 24.623C178.384 24.6426 178.383 24.6625 178.383 24.6825L178.603 24.7305L178.383 24.6825C178.26 24.6607 178.137 24.6389 178.014 24.617L177.977 24.605C177.955 24.5996 177.931 24.5988 177.908 24.6028C177.847 24.5389 177.818 24.4216 177.69 24.4711C177.671 24.4584 177.649 24.4513 177.626 24.4507C177.519 24.4391 177.412 24.4274 177.305 24.4158C177.311 24.4472 177.323 24.4771 177.342 24.5034C177.323 24.4771 177.311 24.4472 177.305 24.4157C177.412 24.4274 177.519 24.4391 177.626 24.4507C177.492 24.3166 177.313 24.3337 177.149 24.3025C176.922 24.2543 176.694 24.206 176.467 24.1577C176.246 24.0419 176.002 23.9759 175.754 23.9644C175.75 23.9871 175.747 24.0098 175.744 24.0326L175.815 24.0513L175.744 24.0326C175.747 24.0098 175.75 23.9871 175.754 23.9644C175.437 23.8169 175.096 23.7276 174.749 23.7007C174.726 23.6999 174.703 23.6935 174.682 23.6819C174.661 23.6704 174.644 23.654 174.631 23.6343C174.618 23.6145 174.609 23.5919 174.606 23.5683C174.604 23.5448 174.607 23.5209 174.615 23.4987C174.7 23.4842 174.786 23.4698 174.872 23.4553C175.735 23.615 176.598 23.7746 177.461 23.9343C177.623 24.0777 177.825 24.0074 178.007 24.0438C178.045 24.0882 178.096 24.119 178.153 24.1318C178.209 24.1446 178.269 24.1386 178.321 24.1147C178.342 24.1276 178.366 24.1351 178.39 24.1365C178.681 24.2854 179.001 24.3661 179.326 24.3722C179.379 24.379 179.431 24.3857 179.484 24.3924C179.686 24.5632 179.939 24.5582 180.178 24.598C180.197 24.6117 180.218 24.6207 180.241 24.6244C180.615 24.7808 181.01 24.8813 181.412 24.9226C181.637 25.1012 181.919 25.0891 182.177 25.1574C182.425 25.2765 182.692 25.3481 182.965 25.3684C182.979 25.3807 182.997 25.3877 183.015 25.3882C183.22 25.4762 183.406 25.6303 183.651 25.5693C183.71 25.6271 183.77 25.6874 183.86 25.6248L183.86 25.6248C183.912 25.8094 184.075 25.7212 184.185 25.7621C184.273 25.7933 184.365 25.8323 184.43 25.7302C184.476 25.6589 184.492 25.5822 184.383 25.5436C184.309 25.5036 184.235 25.4636 184.161 25.4235C184.135 25.4173 184.109 25.4111 184.083 25.4049C183.835 25.2041 183.519 25.2496 183.24 25.1596C183.167 24.9987 183.002 25.0599 182.885 25.0075L182.884 25.0075C182.775 24.8731 182.613 24.9121 182.474 24.8775C182.396 24.8641 182.319 24.8508 182.242 24.8375C182.232 24.8855 182.222 24.9335 182.212 24.9814L182.212 24.9815L182.242 24.8375C182.157 24.6882 181.958 24.8017 181.865 24.6689L181.865 24.6689C181.874 24.6205 181.883 24.572 181.892 24.5234C182.083 24.6207 182.291 24.6768 182.504 24.6881C182.578 24.7029 182.652 24.7178 182.726 24.7327C182.826 24.7997 182.912 24.9296 183.054 24.8116C183.191 24.794 183.324 24.9207 183.462 24.8232C183.469 24.8284 183.476 24.8317 183.485 24.8326C183.493 24.8335 183.501 24.832 183.508 24.8284C183.866 25.1291 184.191 24.9624 184.514 24.764L184.513 24.7565L184.513 24.7565C184.979 24.9481 185.481 24.9825 185.964 25.0971C186.111 25.1319 186.246 25.1204 186.29 24.967C186.337 24.7997 186.204 24.742 186.066 24.713C185.775 24.6589 185.485 24.6048 185.194 24.5507L184.022 24.3404L184.022 24.3404C183.971 24.3296 183.92 24.3188 183.869 24.3081L183.869 24.3081C183.92 24.3189 183.971 24.3296 184.022 24.3404C184.413 24.4105 184.803 24.4806 185.194 24.5507C184.676 24.3379 184.136 24.1839 183.584 24.0917C183.3 23.9945 183.027 23.8431 182.71 23.9173C181.932 23.6883 181.134 23.5537 180.341 23.3993C179.97 23.2397 179.584 23.1203 179.189 23.043C178.555 22.8649 177.886 23.0519 177.26 22.8235C177.253 22.8372 177.246 22.8502 177.237 22.8623L177.237 22.8622C177.246 22.8502 177.254 22.8372 177.26 22.8235C176.942 22.6656 176.602 22.5582 176.252 22.5053C176.186 22.451 176.155 22.5491 176.099 22.54C176.101 22.5269 176.099 22.5135 176.095 22.501C176.091 22.4884 176.084 22.477 176.074 22.4676ZM175.394 22.3403C175.369 22.331 175.344 22.3244 175.318 22.3206C175.344 22.3244 175.369 22.331 175.394 22.3403ZM177.905 26.965C177.867 26.9343 177.829 26.9045 177.795 26.8705C177.829 26.9046 177.867 26.9343 177.905 26.965C177.931 26.9666 177.956 26.9697 177.982 26.9741C177.956 26.9697 177.931 26.9666 177.905 26.965L177.905 26.965ZM181.38 27.2888C181.464 27.3249 181.547 27.3651 181.63 27.4018C181.652 27.377 181.682 27.3606 181.715 27.355C181.748 27.3495 181.781 27.3551 181.81 27.3712C181.781 27.3552 181.748 27.3495 181.715 27.355C181.682 27.3606 181.652 27.377 181.63 27.4018C181.547 27.3651 181.464 27.3249 181.38 27.2888ZM181.818 27.5965C181.835 27.6562 181.853 27.7159 181.87 27.7756C181.853 27.7159 181.835 27.6562 181.818 27.5965ZM179.992 27.51C179.997 27.4832 180.006 27.4574 180.019 27.4334C180.006 27.4574 179.997 27.4832 179.992 27.51L179.992 27.51ZM182.639 27.9221C182.625 27.9199 182.611 27.9167 182.597 27.9158C182.59 27.9387 182.588 27.9625 182.59 27.9862C182.588 27.9625 182.59 27.9386 182.597 27.9158C182.611 27.9167 182.625 27.9198 182.64 27.9221L182.639 27.9221ZM180.87 27.7976C180.903 27.8119 180.938 27.819 180.974 27.8184C181.009 27.8179 181.044 27.8096 181.076 27.7943C181.089 27.8216 181.109 27.8452 181.134 27.8629C181.158 27.8807 181.186 27.8921 181.216 27.8961C181.186 27.8921 181.158 27.8807 181.134 27.8629C181.109 27.8452 181.089 27.8216 181.076 27.7944C181.044 27.8097 181.009 27.8179 180.974 27.8184C180.938 27.819 180.903 27.8119 180.87 27.7976L180.87 27.7976ZM183.526 28.1591C183.472 28.2045 183.408 28.237 183.339 28.2543C183.408 28.237 183.472 28.2045 183.526 28.1591C183.546 28.1514 183.564 28.1395 183.579 28.1241C183.594 28.1088 183.606 28.0903 183.613 28.07C183.606 28.0903 183.594 28.1088 183.579 28.1241C183.564 28.1395 183.546 28.1514 183.526 28.1591ZM182.143 27.7303C182.16 27.7355 182.177 27.7395 182.194 27.7431C182.177 27.7395 182.16 27.7355 182.143 27.7304C182.134 27.7192 182.125 27.7089 182.114 27.6997C182.125 27.7089 182.134 27.7192 182.143 27.7303ZM182.726 27.7857C182.694 27.7334 182.59 27.7124 182.559 27.6601C182.539 27.6686 182.518 27.6731 182.497 27.6733C182.475 27.6735 182.454 27.6695 182.434 27.6613C182.454 27.6694 182.475 27.6735 182.497 27.6733C182.518 27.6731 182.539 27.6686 182.559 27.66C182.59 27.7124 182.694 27.7334 182.726 27.7857ZM183.504 27.8395L183.504 27.8395C183.564 27.7933 183.624 27.7471 183.683 27.701C183.624 27.7471 183.564 27.7933 183.504 27.8395ZM180.281 25.4267L180.281 25.4269C180.198 25.4174 180.115 25.4079 180.032 25.3986L180.032 25.3985C179.93 25.379 179.829 25.3594 179.727 25.3399C179.718 25.3892 179.708 25.4385 179.699 25.4878L179.727 25.3398C179.829 25.3594 179.93 25.379 180.032 25.3985C180.115 25.4079 180.198 25.4174 180.281 25.4267ZM180.412 25.4568C180.433 25.457 180.454 25.4524 180.474 25.4434C180.493 25.4343 180.511 25.4211 180.524 25.4046L180.524 25.4046C180.511 25.4211 180.493 25.4343 180.474 25.4434C180.454 25.4524 180.433 25.4569 180.412 25.4568ZM180.534 25.4095C180.559 25.4221 180.583 25.4366 180.606 25.4527C180.583 25.4366 180.559 25.4221 180.534 25.4095ZM179.657 25.3263L179.657 25.3263C179.658 25.2992 179.658 25.2721 179.659 25.2449C179.658 25.272 179.658 25.2992 179.657 25.3263ZM180.694 25.5909C180.652 25.5897 180.611 25.5856 180.569 25.5788C180.611 25.5856 180.652 25.5896 180.694 25.5909ZM180.869 25.7087C180.897 25.7151 180.925 25.7215 180.953 25.7279C180.977 25.7327 181 25.7376 181.024 25.7426L180.991 25.798C180.979 25.7746 180.966 25.7513 180.953 25.7279C180.925 25.7215 180.897 25.7151 180.869 25.7087ZM180.344 25.6207C180.365 25.6211 180.386 25.6236 180.407 25.6258C180.386 25.6236 180.365 25.6211 180.344 25.6207ZM178.059 25.1152C178.039 25.11 178.018 25.1091 177.997 25.1125C177.977 25.116 177.957 25.1238 177.94 25.1354C177.923 25.1469 177.908 25.162 177.897 25.1797C177.886 25.1974 177.879 25.2172 177.876 25.238C177.73 25.1752 177.581 25.1238 177.428 25.0843C177.581 25.1238 177.73 25.1752 177.876 25.2379C177.879 25.2172 177.886 25.1973 177.897 25.1796C177.908 25.162 177.923 25.1469 177.94 25.1353C177.957 25.1238 177.977 25.116 177.997 25.1125C178.018 25.1091 178.039 25.11 178.059 25.1152ZM180.62 25.7413C180.57 25.7284 180.519 25.7253 180.468 25.7321C180.462 25.7463 180.46 25.7617 180.461 25.7771C180.46 25.7617 180.462 25.7463 180.468 25.7321C180.417 25.7172 180.366 25.7023 180.315 25.6875L180.315 25.6875C180.366 25.7024 180.417 25.7172 180.468 25.7321C180.519 25.7253 180.57 25.7284 180.62 25.7413L180.62 25.7413ZM176.529 25.0707C176.506 25.0649 176.483 25.06 176.459 25.0558C176.483 25.06 176.506 25.0649 176.529 25.0706C176.555 25.0535 176.574 25.0277 176.582 24.9978C176.591 24.9679 176.589 24.9358 176.577 24.9071C176.589 24.9358 176.591 24.9679 176.582 24.9978C176.574 25.0278 176.555 25.0536 176.529 25.0707L176.529 25.0707ZM174.885 24.6275C174.914 24.6572 174.946 24.6838 174.98 24.7071L174.98 24.7071C174.946 24.6838 174.914 24.6572 174.885 24.6275ZM175.875 24.8161C175.901 24.8735 175.964 24.9133 175.993 24.9689C176.046 24.9316 176.108 24.9106 176.173 24.9084C176.237 24.9062 176.301 24.923 176.357 24.9566C176.301 24.923 176.237 24.9062 176.173 24.9084C176.108 24.9106 176.046 24.9316 175.993 24.969C175.964 24.9133 175.901 24.8735 175.875 24.8161ZM175.342 24.9391C175.319 24.9103 175.296 24.8814 175.273 24.8526C175.174 24.8257 175.074 24.7988 174.975 24.7719C174.941 24.7768 174.907 24.7817 174.873 24.7866L174.873 24.7866C174.907 24.7817 174.941 24.7768 174.975 24.7719L174.975 24.7719C175.074 24.7989 175.174 24.8257 175.273 24.8526C175.296 24.8814 175.319 24.9103 175.342 24.9391L175.342 24.9391ZM176.034 25.0568C176.117 25.0626 176.21 25.0158 176.29 25.0382C176.287 25.0625 176.284 25.0867 176.281 25.1109C176.284 25.0867 176.287 25.0625 176.29 25.0383C176.21 25.0158 176.117 25.0627 176.034 25.0568ZM176.993 25.2448C176.981 25.212 176.959 25.1839 176.93 25.1649C176.959 25.1839 176.981 25.212 176.993 25.2448L176.993 25.2448ZM178.463 25.6039C178.539 25.5676 178.623 25.5532 178.706 25.5624C178.79 25.5716 178.869 25.6039 178.936 25.6559C178.869 25.604 178.79 25.5716 178.706 25.5624C178.623 25.5533 178.539 25.5677 178.463 25.604L178.463 25.6039ZM175.603 25.3164C175.655 25.3241 175.708 25.3317 175.761 25.3394C175.708 25.3317 175.655 25.324 175.603 25.3164L175.603 25.3164ZM177.695 25.6243C177.738 25.6436 177.774 25.676 177.798 25.7168C177.85 25.7271 177.902 25.7373 177.953 25.7475C177.902 25.7373 177.85 25.7271 177.798 25.7168C177.774 25.676 177.738 25.6436 177.695 25.6243ZM176.282 25.5949C176.26 25.566 176.237 25.5372 176.214 25.5084C176.189 25.4791 176.165 25.4498 176.14 25.4205C176.019 25.4502 175.916 25.3854 175.808 25.3516C175.916 25.3854 176.019 25.4503 176.14 25.4205C176.165 25.4498 176.189 25.4792 176.214 25.5084C176.237 25.5373 176.26 25.5661 176.282 25.5948C176.304 25.6018 176.327 25.6055 176.349 25.6059C176.353 25.5785 176.365 25.5528 176.382 25.5318C176.4 25.5107 176.423 25.495 176.449 25.4865C176.423 25.495 176.4 25.5107 176.382 25.5318C176.365 25.5529 176.353 25.5785 176.349 25.6059C176.327 25.6055 176.304 25.6018 176.282 25.5949L176.282 25.5949ZM177.691 25.8587L177.691 25.8587C177.645 25.8503 177.598 25.8573 177.557 25.8788C177.598 25.8573 177.645 25.8503 177.691 25.8586L177.691 25.8587ZM178.318 25.9077C178.29 25.9359 178.254 25.9556 178.215 25.9646C178.177 25.9736 178.136 25.9715 178.098 25.9586C178.136 25.9715 178.177 25.9736 178.216 25.9646C178.254 25.9556 178.29 25.9358 178.318 25.9075C178.333 25.958 178.365 26.0015 178.409 26.0303C178.453 26.0592 178.505 26.0713 178.557 26.0647C178.505 26.0713 178.453 26.0592 178.409 26.0304C178.365 26.0016 178.333 25.9581 178.318 25.9077ZM176.528 25.7183C176.578 25.7367 176.629 25.7504 176.68 25.7594C176.629 25.7504 176.578 25.7367 176.528 25.7183ZM176.733 25.7681L176.733 25.7681C176.746 25.7852 176.753 25.8059 176.754 25.8273C176.755 25.8487 176.749 25.8698 176.737 25.8876C176.749 25.8698 176.755 25.8487 176.754 25.8273C176.753 25.8059 176.746 25.7852 176.733 25.7681ZM178.527 26.1805C178.566 26.1883 178.605 26.1993 178.643 26.2136C178.605 26.1993 178.566 26.1883 178.527 26.1805ZM176.616 25.9927L176.616 25.9926L176.62 25.9959L176.616 25.9927ZM180.301 26.6696C180.308 26.6951 180.311 26.7216 180.31 26.748C180.311 26.7216 180.308 26.6951 180.301 26.6696ZM179.79 26.8173C179.814 26.7952 179.843 26.7791 179.875 26.7703C179.843 26.7791 179.814 26.7952 179.79 26.8173ZM179.916 26.8753C179.992 26.9237 180.08 26.9499 180.17 26.951C180.261 26.8854 180.364 26.9265 180.464 26.944C180.364 26.9265 180.261 26.8854 180.17 26.9511C180.08 26.95 179.992 26.9237 179.916 26.8753L179.916 26.8753ZM182.204 27.3487L182.204 27.3487C182.16 27.3409 182.12 27.3214 182.086 27.2922C182.052 27.2631 182.026 27.2254 182.012 27.1831C182.026 27.2254 182.052 27.2631 182.086 27.2922C182.12 27.3213 182.16 27.3408 182.204 27.3487L182.204 27.3487ZM182.941 27.3212C182.935 27.3593 182.919 27.3949 182.895 27.4244C182.919 27.3949 182.935 27.3592 182.941 27.3212C182.993 27.33 183.044 27.3388 183.096 27.3475C183.044 27.3387 182.993 27.33 182.941 27.3212L182.941 27.3212ZM180.733 27.0547C180.735 27.0078 180.738 26.9608 180.741 26.9138C180.716 26.9089 180.692 26.9043 180.667 26.8999C180.692 26.9043 180.716 26.9089 180.741 26.9138C180.783 26.8421 180.826 26.7704 180.868 26.6987L180.866 26.6938L180.868 26.6987C180.826 26.7704 180.783 26.8421 180.741 26.9138C180.738 26.9608 180.735 27.0078 180.733 27.0547L180.733 27.0547ZM183.216 27.3109C183.242 27.305 183.267 27.2951 183.29 27.2816C183.267 27.2951 183.242 27.3049 183.216 27.3109L183.216 27.3109ZM181 26.8121L181 26.812C181.143 26.793 181.284 26.8779 181.427 26.8686C181.285 26.8779 181.143 26.7931 181 26.8121ZM182.255 27.0317C182.153 27.0103 182.051 26.9889 181.949 26.9675C181.927 26.9343 181.899 26.9066 181.865 26.8865C181.831 26.8664 181.794 26.8545 181.755 26.8518C181.794 26.8545 181.832 26.8664 181.865 26.8865C181.899 26.9066 181.927 26.9343 181.949 26.9675C182.051 26.9889 182.153 27.0103 182.255 27.0317L182.255 27.0317ZM183.354 27.1666L183.354 27.1665C183.416 27.1702 183.478 27.1738 183.54 27.1774C183.478 27.1738 183.416 27.1702 183.354 27.1666ZM180.88 26.6089L180.863 26.687L180.88 26.6089L180.88 26.6089ZM180.33 26.5158L180.259 26.4973C180.283 26.5035 180.306 26.5096 180.33 26.5158L180.33 26.5158ZM180.096 26.4637C180.065 26.4592 180.033 26.4597 180.002 26.4652C180.033 26.4597 180.065 26.4592 180.096 26.4637L180.096 26.4637ZM181.45 26.6378C181.468 26.6409 181.485 26.6445 181.502 26.6485C181.485 26.6445 181.468 26.6409 181.45 26.6379C181.416 26.6576 181.377 26.6692 181.338 26.6719C181.299 26.6746 181.259 26.6682 181.222 26.6532C181.259 26.6681 181.299 26.6745 181.338 26.6719C181.377 26.6692 181.416 26.6576 181.45 26.6378ZM180.345 26.3687C180.323 26.3566 180.299 26.3485 180.274 26.3448L180.274 26.3447C180.299 26.3485 180.323 26.3566 180.345 26.3685C180.442 26.4941 180.616 26.4413 180.748 26.4866C180.616 26.4413 180.442 26.4941 180.345 26.3687L180.345 26.3687ZM181.754 26.6294C181.719 26.6241 181.684 26.6219 181.648 26.6228C181.684 26.6219 181.719 26.6241 181.754 26.6294L181.754 26.6294ZM182.693 26.7964C182.741 26.8194 182.787 26.8465 182.834 26.8708C182.787 26.8465 182.741 26.8194 182.693 26.7964ZM182.669 26.7996C182.626 26.7977 182.596 26.75 182.56 26.724C182.596 26.75 182.626 26.7976 182.669 26.7996ZM182.806 26.7136C182.785 26.6822 182.758 26.6561 182.726 26.6377C182.758 26.6561 182.785 26.6822 182.806 26.7136L182.806 26.7136ZM180.384 26.199L180.384 26.1991C180.255 26.1722 180.127 26.1453 179.998 26.1184C180.127 26.1452 180.255 26.1721 180.384 26.199ZM179.677 26.0664C179.673 26.0912 179.668 26.116 179.664 26.1406C179.691 26.1477 179.719 26.1548 179.746 26.1619L179.746 26.1619C179.718 26.1548 179.691 26.1477 179.664 26.1406C179.561 26.0988 179.458 26.057 179.354 26.0153C179.381 26.0596 179.398 26.1096 179.402 26.1613C179.407 26.213 179.4 26.265 179.381 26.3132C179.303 26.3318 179.224 26.3506 179.146 26.3694C179.224 26.3506 179.303 26.3318 179.381 26.313C179.4 26.2649 179.407 26.2129 179.402 26.1612C179.398 26.1096 179.381 26.0596 179.354 26.0153C179.248 26.0195 179.142 26.0238 179.036 26.028C179.142 26.0238 179.248 26.0196 179.354 26.0153C179.458 26.057 179.561 26.0988 179.664 26.1406C179.668 26.1159 179.673 26.0912 179.677 26.0664L179.597 26.0029C179.624 26.024 179.65 26.0452 179.677 26.0664L179.677 26.0664ZM178.417 25.8479L178.417 25.848C178.389 25.8414 178.363 25.8287 178.341 25.8108C178.319 25.793 178.301 25.7703 178.288 25.7445C178.301 25.7703 178.319 25.793 178.341 25.8108C178.363 25.8287 178.389 25.8414 178.417 25.848L178.417 25.8479ZM177.414 25.5749C177.391 25.5659 177.368 25.5573 177.344 25.5492C177.333 25.5229 177.315 25.5 177.293 25.4826C177.27 25.4652 177.243 25.4539 177.215 25.4498C177.243 25.4539 177.27 25.4652 177.293 25.4826C177.315 25.5 177.333 25.5229 177.344 25.5492C177.368 25.5573 177.391 25.5659 177.414 25.5749ZM181.118 26.1643C181.107 26.1793 181.093 26.1918 181.077 26.2011C181.06 26.2104 181.043 26.2163 181.024 26.2184C181.043 26.2163 181.06 26.2104 181.077 26.2011C181.093 26.1918 181.107 26.1792 181.118 26.1642L181.118 26.1643ZM180.566 26.0671L180.566 26.0671C180.593 26.0712 180.62 26.0752 180.647 26.0793C180.62 26.0752 180.593 26.0711 180.566 26.0671L180.566 26.0671ZM178.909 25.7686C178.76 25.7116 178.604 25.6755 178.446 25.6614L178.446 25.6613C178.604 25.6755 178.76 25.7116 178.909 25.7686ZM181.118 26.0388C181.106 26.0562 181.099 26.0761 181.096 26.097C181.099 26.0761 181.106 26.0562 181.118 26.0388ZM182.761 26.3582C182.781 26.3467 182.798 26.3097 182.812 26.2297L182.812 26.2297C182.798 26.3097 182.781 26.3467 182.761 26.3583L182.761 26.3582ZM182.739 26.202C182.757 26.2112 182.775 26.2187 182.794 26.2243C182.775 26.2187 182.757 26.2112 182.739 26.2021C182.75 26.157 182.657 26.0912 182.645 26.0417C182.657 26.0912 182.75 26.157 182.739 26.202L182.739 26.202ZM182.346 26.0685L182.345 26.0698C182.262 26.0531 182.179 26.0365 182.096 26.0198C182.179 26.0365 182.262 26.0531 182.345 26.0698L182.346 26.0685ZM182.348 26.0669C182.357 26.0929 182.373 26.1159 182.394 26.1333C182.373 26.1159 182.357 26.0929 182.348 26.0669ZM181.164 25.9228C181.166 25.9374 181.164 25.9522 181.159 25.9658C181.164 25.9522 181.166 25.9374 181.164 25.9228C181.143 25.8666 181.122 25.8104 181.101 25.7541L181.098 25.7543L181.101 25.7541C181.11 25.7484 181.119 25.7434 181.129 25.7393C181.119 25.7434 181.11 25.7484 181.101 25.7541C181.122 25.8104 181.143 25.8666 181.164 25.9228L181.164 25.9228ZM182.108 25.8753C181.991 25.8398 181.867 25.8362 181.748 25.8647C181.742 25.8541 181.733 25.8451 181.723 25.8382C181.713 25.8313 181.702 25.8267 181.69 25.8247C181.702 25.8267 181.713 25.8313 181.723 25.8382C181.733 25.8451 181.742 25.8541 181.748 25.8646C181.867 25.8362 181.991 25.8398 182.108 25.8753ZM181.058 25.7555L181.058 25.7555C181.043 25.6687 181.056 25.5795 181.093 25.5004C181.056 25.5795 181.043 25.6687 181.058 25.7555ZM178.497 24.9464C178.488 24.9965 178.479 25.0466 178.471 25.0966C178.574 25.087 178.678 25.1192 178.759 25.1861C178.678 25.1192 178.574 25.0871 178.471 25.0967C178.445 25.0995 178.418 25.0968 178.393 25.0887C178.373 25.0369 178.347 25.0173 178.318 25.0133C178.347 25.0173 178.373 25.0369 178.393 25.0887C178.418 25.0968 178.445 25.0995 178.471 25.0967L178.497 24.9464ZM177.649 24.7124C177.644 24.7359 177.639 24.7594 177.634 24.7829C177.556 24.7714 177.478 24.7599 177.4 24.7485C177.269 24.7143 177.137 24.6802 177.006 24.6461C176.985 24.6284 176.965 24.6109 176.944 24.5936C176.965 24.6109 176.985 24.6284 177.006 24.6459C177.137 24.6801 177.269 24.7143 177.4 24.7485C177.478 24.7599 177.556 24.7714 177.634 24.7828C177.639 24.7593 177.644 24.7359 177.649 24.7124L177.648 24.7104L177.649 24.7124ZM176.861 24.6485L176.861 24.6486C176.86 24.6031 176.845 24.5591 176.817 24.5232C176.789 24.4873 176.75 24.4616 176.706 24.45C176.75 24.4616 176.789 24.4873 176.817 24.5232C176.845 24.5591 176.86 24.6031 176.861 24.6485L176.861 24.6485ZM174.556 23.8698C174.573 23.8784 174.591 23.8848 174.61 23.8887C174.591 23.8848 174.573 23.8785 174.556 23.8698ZM174.814 23.7809C174.833 23.8257 174.858 23.8679 174.887 23.9064C174.858 23.8679 174.833 23.8257 174.814 23.7809L174.814 23.7809ZM182.762 25.0817L182.762 25.0816C182.76 25.1079 182.756 25.134 182.752 25.16C182.877 25.2112 183.003 25.2625 183.128 25.3137C183.148 25.3073 183.166 25.2967 183.182 25.2824C183.197 25.2682 183.209 25.2507 183.217 25.2312C183.209 25.2507 183.197 25.2682 183.182 25.2824C183.166 25.2967 183.148 25.3074 183.128 25.3137C183.124 25.3359 183.12 25.358 183.116 25.3802C183.12 25.3581 183.124 25.3359 183.128 25.3137C183.003 25.2625 182.877 25.2112 182.752 25.16C182.756 25.134 182.76 25.1079 182.762 25.0816L182.762 25.0817ZM181.464 24.8128C181.464 24.8053 181.462 24.7979 181.459 24.791C181.455 24.7842 181.451 24.7782 181.445 24.7734C181.451 24.7782 181.455 24.7842 181.459 24.791C181.462 24.7979 181.464 24.8053 181.464 24.8128ZM180.124 24.435C180.107 24.3783 180.09 24.3215 180.074 24.2649C180.035 24.2534 179.993 24.248 179.955 24.2353C179.993 24.248 180.035 24.2534 180.074 24.2648L180.124 24.435ZM181.13 24.5619C181.172 24.5518 181.214 24.5467 181.257 24.5466C181.214 24.5467 181.172 24.5519 181.13 24.5619ZM181.555 24.5927C181.524 24.5611 181.493 24.5295 181.463 24.498L181.463 24.498C181.493 24.5296 181.524 24.5612 181.555 24.5927ZM180.782 23.5984C180.688 23.6243 180.637 23.708 180.629 23.8577C180.637 23.708 180.688 23.6243 180.782 23.5984ZM183.248 24.6093L183.248 24.6093L183.294 24.3621C183.279 24.4445 183.263 24.5269 183.248 24.6093ZM183.664 24.6488C183.738 24.6595 183.81 24.6826 183.877 24.7173C183.874 24.7434 183.87 24.7694 183.866 24.7953C183.87 24.7694 183.874 24.7434 183.877 24.7173C183.81 24.6826 183.738 24.6595 183.664 24.6488L183.664 24.6488ZM182.548 24.475L182.547 24.471L182.548 24.475ZM181.153 24.1349C181.125 24.1279 181.096 24.1209 181.067 24.114L181.068 24.1139L181.153 24.1349ZM178.823 23.5416C178.834 23.5751 178.85 23.5877 178.867 23.5902C178.85 23.5877 178.834 23.5751 178.823 23.5416L178.823 23.5416ZM178.55 23.5834L178.568 23.5783L178.55 23.5834L178.55 23.5834ZM180.138 23.8194C180.189 23.8544 180.194 23.9503 180.202 24.0279C180.251 24.0389 180.299 24.0498 180.348 24.0607C180.368 23.9641 180.465 23.9859 180.539 23.9728C180.465 23.9859 180.368 23.9642 180.348 24.0608C180.299 24.0498 180.25 24.0389 180.202 24.028C180.194 23.9504 180.189 23.8544 180.138 23.8194ZM178.913 23.7353C179.057 23.7561 179.189 23.8302 179.282 23.9431L179.282 23.9432C179.189 23.8302 179.057 23.7561 178.913 23.7353L178.913 23.7353ZM180.835 24.2061L180.835 24.2066L180.835 24.2061ZM181.251 24.3902C181.231 24.3854 181.21 24.3829 181.19 24.3827C181.21 24.3829 181.231 24.3854 181.251 24.3903C181.282 24.3892 181.313 24.3915 181.343 24.3971C181.313 24.3914 181.282 24.3891 181.251 24.3902L181.251 24.3902ZM181.444 24.2607L181.444 24.2606L181.814 24.4819C181.69 24.4082 181.567 24.3344 181.444 24.2607L181.444 24.2607ZM184.104 24.8426C184.091 24.8599 184.073 24.8726 184.053 24.8787C184.032 24.8849 184.01 24.8842 183.99 24.8768C184.01 24.8842 184.032 24.8849 184.053 24.8787C184.073 24.8726 184.091 24.8599 184.104 24.8426C184.169 24.8195 184.221 24.7307 184.28 24.68C184.221 24.7307 184.169 24.8195 184.104 24.8426L184.104 24.8426ZM185.709 24.8905C185.687 24.8957 185.665 24.9025 185.643 24.909C185.665 24.9025 185.687 24.8957 185.709 24.8905C185.717 24.8696 185.688 24.8384 185.666 24.8094C185.688 24.8384 185.717 24.8696 185.709 24.8905L185.709 24.8905ZM183.609 24.4196L183.609 24.4196C183.578 24.3901 183.543 24.3669 183.504 24.3515C183.543 24.3669 183.578 24.3901 183.609 24.4196L183.609 24.4196ZM183.635 24.2624C183.665 24.2485 183.697 24.2414 183.73 24.2417C183.697 24.2415 183.665 24.2486 183.635 24.2624L183.635 24.2624ZM182.929 24.1329C182.927 24.1876 182.903 24.2391 182.863 24.2761C182.903 24.2391 182.927 24.1876 182.929 24.1329C182.941 24.1188 182.956 24.1069 182.972 24.098C182.956 24.1069 182.941 24.1188 182.929 24.1329L182.929 24.1329ZM183.182 24.0954L183.492 24.1555C183.388 24.1354 183.285 24.1154 183.182 24.0954C183.161 24.0634 183.133 24.0374 183.099 24.0199C183.065 24.0024 183.028 23.9941 182.99 23.9959C183.028 23.9941 183.065 24.0024 183.099 24.0199C183.133 24.0373 183.161 24.0633 183.182 24.0954L183.182 24.0954ZM179.931 23.3393C179.886 23.3231 179.838 23.3179 179.791 23.3242C179.744 23.3305 179.7 23.348 179.661 23.3754L179.661 23.3753C179.7 23.348 179.744 23.3304 179.791 23.3241C179.839 23.3179 179.886 23.3231 179.931 23.3392L179.931 23.3393Z" fill="#FAE465"/>
</svg>
