<svg width="282" height="196" viewBox="0 0 282 196" fill="none" xmlns="http://www.w3.org/2000/svg">
<path d="M204.462 164.289L203.617 164.103C203.012 163.97 202.385 163.966 201.778 164.09L201.533 164.626C201.615 164.448 201.696 164.269 201.778 164.09C200.35 163.941 199.755 164.85 199.351 166.001L199.927 165.954C199.735 165.969 199.543 165.985 199.351 166.001C199.068 166.696 198.049 166.896 198.119 167.83C198.037 167.977 197.954 168.125 197.872 168.272C197.537 168.397 197.436 168.696 197.301 168.989C195.909 172.023 199.643 175.8 202.339 176.661C202.421 176.669 202.499 176.703 202.56 176.758L203.066 176.931C202.897 176.873 202.729 176.815 202.56 176.758C204.522 178.45 206.88 179.276 209.344 179.875C209.842 179.863 210.333 180.163 210.836 179.906C213.412 179.35 214.364 178.174 214.553 175.316C214.792 174.064 214.582 172.767 213.96 171.654C214.24 171.144 213.802 170.91 213.557 170.601L211.885 168.455C211.795 168.136 211.53 168.004 211.265 167.872C211.154 167.406 210.691 167.365 210.38 167.14C208.9 165.981 207.205 165.128 205.392 164.63C205.082 164.516 204.772 164.403 204.462 164.289ZM201.594 175.658L200.614 175.152C200.941 175.321 201.268 175.489 201.594 175.658ZM200.572 168.423L201.684 168.061C201.882 168.123 202.065 168.287 202.292 168.148C203.347 168.139 204.337 168.502 205.361 168.679C206.362 169.171 207.14 169.966 208.013 170.633C208.179 171.119 208.344 171.606 208.51 172.093C208.49 172.127 208.478 172.166 208.475 172.206C208.473 172.246 208.479 172.285 208.495 172.322C208.08 172.608 207.89 172.246 207.603 172.054C206.84 171.542 206.104 170.941 205.108 170.943C204.956 170.866 204.804 170.789 204.652 170.712C204.113 170.377 203.474 170.242 202.846 170.33C201.419 170.436 200.787 169.706 200.572 168.423ZM211.059 176.946C210.929 177.053 210.779 177.134 210.618 177.182C210.457 177.23 210.287 177.246 210.12 177.228C210.355 176.856 210.568 176.521 210.781 176.185C210.877 176.195 210.974 176.171 211.055 176.117C211.135 176.063 211.194 175.982 211.221 175.889C211.261 175.865 211.3 175.84 211.338 175.814C211.407 175.699 211.49 175.625 211.625 175.727L211.59 175.833L211.53 175.926C211.373 176.266 211.216 176.606 211.059 176.946ZM209.077 175.38C209.388 176.476 208.472 176.173 207.975 176.348C208.215 176.053 208.454 175.757 208.694 175.461L208.707 175.461C208.83 175.434 208.954 175.407 209.077 175.38ZM206.404 172.858C206.722 173.276 207.799 173.236 207.213 174.2C207.188 174.161 207.154 174.129 207.114 174.107C207.074 174.086 207.029 174.074 206.983 174.074C206.533 173.821 206.082 173.568 205.632 173.314C205.762 172.876 206.175 173.032 206.404 172.858ZM198.711 170.278L199.24 169.202C200.407 170.484 200.4 170.745 199.233 171.759C198.885 171.327 198.829 170.791 198.711 170.278ZM201.915 173.898C201.613 173.264 200.593 172.982 200.985 172.007C201.162 172 201.338 171.993 201.515 171.987C202.036 172.532 202.04 173.441 202.799 173.819L203.76 174.316C204.344 174.594 204.927 174.872 205.51 175.151C204.645 175.827 204.325 174.728 203.708 174.597C203.563 174.629 203.418 174.662 203.272 174.694C203.214 174.638 203.141 174.6 203.061 174.585L202.695 174.045C202.435 173.996 202.175 173.947 201.915 173.898ZM211.755 169.928L212.151 170.187C212.374 170.606 212.598 171.025 212.821 171.444C212.98 171.998 213.435 172.485 213.201 173.127L213.435 173.277L213.647 174.239C213.59 174.415 213.534 174.591 213.478 174.766C213.609 175.09 213.369 175.316 213.266 175.578C213.275 175.788 213.284 175.998 213.293 176.208L213.093 176.422C213.095 176.626 213.028 176.824 212.903 176.984C212.777 177.144 212.601 177.257 212.403 177.304C212.359 177.58 212.314 177.855 212.27 178.131C212.052 178.14 211.835 178.149 211.617 178.158C211.812 177.841 212.007 177.524 212.202 177.206L212.818 176.305C212.767 176.162 212.758 176.007 212.792 175.859C212.826 175.71 212.901 175.575 213.009 175.467C212.972 175.336 212.935 175.204 212.898 175.073C212.955 174.916 213.012 174.76 213.07 174.603C212.835 174.288 213.192 173.775 212.716 173.54C212.682 173.42 212.566 173.294 212.744 173.191C212.67 172.645 212.441 172.132 212.085 171.712C212.017 171.652 211.949 171.592 211.882 171.533C211.543 171 211.199 170.468 211.486 169.793L211.755 169.928ZM208.673 168.741L208.931 168.877C209.265 169.436 209.599 169.995 209.933 170.554C210.15 170.886 210.367 171.219 210.584 171.551C210.616 172.251 210.753 172.952 210.576 173.651L211.152 173.723C210.96 173.699 210.768 173.675 210.576 173.651C210.434 173.864 210.293 174.078 210.151 174.291C209.904 174.205 209.656 174.119 209.409 174.032C209.364 173.902 209.318 173.772 209.273 173.642C209.459 173.222 209.839 172.857 209.637 172.33C209.524 171.857 209.422 171.381 209.297 170.911C209.044 169.952 209.662 170.566 209.933 170.554C209.599 169.995 209.265 169.436 208.931 168.877C208.845 168.831 208.759 168.786 208.673 168.741C208.67 168.542 208.666 168.343 208.663 168.144L208.673 168.741ZM203.012 165.292C202.969 165.394 202.926 165.497 202.883 165.599L203.012 165.292ZM209.128 166.564L206.439 165.224C207.335 165.671 208.232 166.118 209.128 166.564Z" fill="#FAE465"/>
<path d="M77.4221 134.296C77.1492 133.691 76.7592 133.146 76.2747 132.692C75.8455 132.048 75.8455 132.048 75.5523 132.319C75.4409 132.392 75.362 132.504 75.3323 132.634C75.3026 132.764 75.3243 132.9 75.3929 133.013C76.0074 133.762 76.3434 134.723 77.152 135.319L77.2779 135.22C77.2085 135.18 77.1428 135.134 77.0816 135.082C77.1428 135.134 77.2085 135.18 77.2779 135.22L77.152 135.319C77.5221 136.111 78.1666 136.697 78.6964 137.369C78.7232 137.367 78.7498 137.364 78.776 137.358L78.7761 137.358C79.1613 137.835 79.5467 138.311 79.9324 138.787L79.9324 138.787C79.5469 138.311 79.1614 137.834 78.7761 137.358C78.7499 137.364 78.7233 137.367 78.6965 137.369C78.8613 137.682 79.0261 137.996 79.1909 138.31C79.0977 138.303 79.0046 138.296 78.9115 138.289C78.7377 138.079 78.5639 137.869 78.3901 137.659C77.9538 137.591 78.0484 137.067 77.7328 136.896C77.6137 136.63 77.4238 136.403 77.1839 136.238C76.8426 135.652 76.2849 135.25 75.8865 134.713C75.7094 134.486 75.5323 134.258 75.3553 134.031C75.14 133.836 75.0124 133.529 74.6695 133.499L74.3613 133.759C74.4746 133.806 74.5814 133.868 74.6787 133.942C74.5813 133.868 74.4746 133.806 74.3613 133.759C74.4641 133.672 74.5668 133.585 74.6695 133.499C74.5671 133.382 74.5433 133.175 74.3204 133.199C74.2393 133.275 74.1582 133.352 74.077 133.429C73.8679 133.429 73.7515 133.498 73.6887 133.598C73.7515 133.498 73.868 133.429 74.0771 133.429L74.3204 133.199C74.1089 133.027 73.9104 132.888 73.6723 133.183C73.512 133.339 73.4078 133.543 73.3757 133.764C73.3436 133.986 73.3854 134.211 73.4947 134.406C73.7683 134.887 74.0754 135.349 74.368 135.82C74.3942 135.987 74.4206 136.154 74.4468 136.32C74.3834 136.31 74.32 136.299 74.2567 136.288C74.1873 136.22 74.1178 136.152 74.0483 136.084C74.0575 135.912 73.9989 135.742 73.8852 135.612C73.7714 135.482 73.6113 135.401 73.4391 135.387C73.1398 135.334 73.0708 135.655 72.9768 135.881C72.9309 135.978 72.885 136.074 72.8391 136.171C72.5843 135.968 72.2794 135.837 71.9566 135.792C71.7496 135.631 71.6134 135.175 71.3307 135.365C70.9958 135.591 71.0113 136.005 71.2957 136.357C71.7395 136.907 72.1452 137.489 72.6126 138.017C73.1328 138.604 73.4293 139.363 74.0559 139.864C74.2915 140.211 74.5272 140.558 74.7629 140.905C74.7774 140.771 74.792 140.637 74.8066 140.503C74.6938 140.436 74.5954 140.348 74.5167 140.244C74.5954 140.348 74.6939 140.436 74.8066 140.503L74.8066 140.503L74.8066 140.503C74.792 140.637 74.7774 140.771 74.7629 140.905C75.0967 141.311 75.4452 141.7 75.7488 142.138C76.1275 142.685 76.4451 143.301 77.0049 143.711C77.035 143.748 77.0652 143.785 77.0953 143.822L77.0954 143.822C77.1742 144.106 77.3267 144.364 77.5377 144.569C77.6148 144.879 77.8609 145.084 78.0142 145.344C78.4562 146.095 79.0794 146.74 79.3434 147.596C79.422 147.682 79.5005 147.769 79.5791 147.855L79.5792 147.855C79.5005 147.769 79.4219 147.682 79.3434 147.596C79.0473 147.652 79.0132 147.332 78.8243 147.234C78.6149 146.973 78.4054 146.712 78.1959 146.45C78.1928 146.427 78.1838 146.405 78.1696 146.386C78.1555 146.367 78.1367 146.351 78.1151 146.342C78.1057 146.209 78.0535 146.082 77.9663 145.981C77.879 145.881 77.7615 145.811 77.6312 145.782C77.5861 145.72 77.5409 145.658 77.4957 145.596C77.2314 145.011 76.8788 144.471 76.4501 143.993L76.2678 143.777C75.7898 143.178 75.4667 142.464 74.8934 141.936C74.8948 141.915 74.8913 141.894 74.8832 141.875C74.8751 141.856 74.8627 141.839 74.8469 141.826C74.5733 141.308 74.2188 140.837 73.7969 140.43C73.7103 140.316 73.6238 140.202 73.5372 140.088L72.6305 138.984C72.7248 138.721 72.527 138.64 72.3537 138.628C72.1318 138.612 72.1192 138.85 72.1238 138.983C72.1143 139.096 72.13 139.209 72.17 139.314C72.21 139.42 72.2732 139.515 72.3549 139.593C72.3983 139.562 72.4416 139.532 72.4849 139.502L72.4849 139.502L72.3549 139.593C72.7015 140.223 73.1346 140.802 73.6415 141.312C73.8243 141.534 74.0071 141.755 74.19 141.976C74.192 141.997 74.1984 142.016 74.2087 142.034C74.219 142.052 74.2331 142.067 74.2499 142.079L74.2331 142.081C74.2767 142.279 74.3603 142.467 74.4789 142.632C74.5975 142.797 74.7485 142.936 74.9228 143.04C74.9447 143.082 74.9666 143.123 74.9885 143.164C75.1857 143.549 75.4277 143.909 75.7094 144.237C75.6245 144.532 75.8745 144.486 76.0231 144.544C75.9823 144.872 76.2526 144.964 76.4522 145.11C76.5471 145.513 76.8898 145.749 77.1023 146.072C77.539 146.762 78.027 147.419 78.5621 148.036C78.6095 148.099 78.6568 148.163 78.7042 148.226C79.3308 149.238 80.066 150.179 80.8965 151.032C81.1019 151.26 81.1373 151.751 81.6367 151.629C81.9551 151.69 81.9848 151.435 82.0659 151.236C82.2014 151.246 82.3369 151.257 82.4724 151.267C82.6519 151.332 82.8336 151.416 82.9821 151.209L82.981 151.223C83.1208 151.384 83.2507 151.557 83.4038 151.704C83.527 151.823 83.6502 152.072 83.8549 151.899C84.009 151.768 83.9524 151.53 83.852 151.366C83.6255 150.897 83.3235 150.468 82.9579 150.096C82.7925 149.815 82.6271 149.533 82.4618 149.252C82.3414 148.967 82.2209 148.682 82.1005 148.396C82.2943 148.372 82.3658 148.555 82.4998 148.632C82.6335 148.884 82.8188 149.105 83.0435 149.281C83.2015 149.888 83.7041 150.249 84.0675 150.708C84.0927 150.75 84.1266 150.785 84.167 150.812C84.2073 150.838 84.253 150.856 84.3008 150.863C84.3487 150.87 84.3975 150.866 84.4438 150.852C84.4901 150.838 84.5326 150.814 84.5685 150.781C84.7979 150.603 84.7254 150.416 84.5658 150.234L84.4966 150.111C84.5347 149.712 84.2654 149.453 84.0636 149.163L84.0262 149.571L84.0636 149.163C83.877 148.601 83.6093 148.07 83.2689 147.586C83.2513 147.437 83.2022 147.293 83.1248 147.165C83.0474 147.036 82.9435 146.926 82.8201 146.84C82.8117 146.799 82.7915 146.762 82.7619 146.732C82.8349 146.527 82.6609 146.434 82.5671 146.305C82.3843 145.799 82.104 145.334 81.7419 144.936C81.5305 144.694 81.5145 144.305 81.1645 144.167C81.2172 143.894 80.9609 143.811 80.8433 143.643C80.6844 143.235 80.4409 142.865 80.1289 142.557C80.0977 142.586 80.0656 142.615 80.0329 142.642C80.091 142.716 80.1491 142.79 80.2072 142.863C80.1491 142.79 80.0909 142.716 80.0328 142.642L79.9145 142.74L80.0328 142.642C80.0656 142.615 80.0977 142.586 80.1289 142.557C79.6517 141.91 79.1744 141.263 78.6972 140.615C78.6309 140.56 78.5648 140.504 78.4986 140.449C78.4319 140.677 78.4301 140.92 78.4934 141.149C78.4301 140.92 78.4317 140.677 78.4983 140.448C78.5647 140.504 78.631 140.56 78.6972 140.615C78.6109 140.322 78.433 140.065 78.1897 139.88C78.1625 139.903 78.1376 139.929 78.1152 139.956L78.3663 140.272L78.1152 139.956C77.9691 139.787 77.8231 139.617 77.6769 139.447L77.6394 139.389C77.6139 139.355 77.5819 139.327 77.5454 139.307C77.5335 139.15 77.6261 138.956 77.3925 138.879C77.3801 138.839 77.357 138.804 77.3257 138.777C77.1904 138.64 77.0551 138.502 76.9198 138.365C76.892 138.414 76.8753 138.469 76.8708 138.526C76.8753 138.469 76.892 138.414 76.9198 138.364C77.0551 138.502 77.1905 138.64 77.3257 138.777C77.2925 138.441 77.0243 138.261 76.8312 138.032C76.5701 137.707 76.3091 137.382 76.048 137.058C75.8717 136.647 75.6081 136.28 75.2756 135.981C75.2447 136.008 75.2144 136.035 75.1847 136.063L75.262 136.17L75.1846 136.063C75.2143 136.035 75.2447 136.008 75.2756 135.981C75.0026 135.418 74.6312 134.909 74.1788 134.477C74.1471 134.449 74.1224 134.414 74.1069 134.375C74.0914 134.336 74.0855 134.293 74.0897 134.251C74.0938 134.209 74.108 134.169 74.1309 134.133C74.1538 134.098 74.1848 134.068 74.2214 134.047C74.3571 134.125 74.4926 134.203 74.6282 134.28C75.6468 135.481 76.6654 136.682 77.684 137.883C77.7457 138.263 78.1067 138.397 78.3184 138.654C78.3208 138.758 78.3567 138.858 78.4209 138.94C78.4851 139.022 78.574 139.081 78.6745 139.108C78.6887 139.149 78.7129 139.187 78.7451 139.216C78.9802 139.751 79.3336 140.226 79.7788 140.604C79.8443 140.673 79.9097 140.742 79.9752 140.811C80.0625 141.275 80.4189 141.556 80.7068 141.883C80.717 141.923 80.7366 141.959 80.7638 141.99C81.1066 142.63 81.541 143.217 82.0534 143.731C82.1636 144.232 82.5689 144.536 82.8497 144.923C83.0589 145.368 83.3493 145.77 83.706 146.109C83.7113 146.142 83.728 146.172 83.7531 146.193C83.9372 146.546 84.0208 146.969 84.4307 147.164C84.4481 147.311 84.4618 147.461 84.6585 147.478L84.6585 147.478C84.5207 147.79 84.8476 147.855 84.9546 148.036C85.0409 148.179 85.1255 148.338 85.3316 148.271C85.4756 148.225 85.5851 148.139 85.4779 147.962C85.4206 147.823 85.3633 147.684 85.306 147.545C85.277 147.507 85.2481 147.469 85.2191 147.431C85.1025 146.874 84.6104 146.576 84.3248 146.135C84.4066 145.832 84.1079 145.729 84.0039 145.523L84.0038 145.523C84.0046 145.215 83.7352 145.084 83.5805 144.877C83.4882 144.771 83.396 144.665 83.3037 144.559C83.2351 144.613 83.1665 144.667 83.098 144.722L83.0979 144.722L83.3037 144.559C83.355 144.258 82.949 144.186 82.9718 143.9L82.9717 143.9C83.0393 143.843 83.1069 143.787 83.1747 143.731C83.3289 144.081 83.5545 144.395 83.8372 144.652C83.9236 144.757 84.01 144.862 84.0964 144.967C84.1591 145.172 84.1303 145.447 84.4624 145.448C84.6721 145.579 84.7136 145.904 85.0165 145.928C85.0195 145.942 85.0265 145.955 85.0367 145.966C85.047 145.976 85.06 145.984 85.0742 145.987C85.2297 146.806 85.8712 146.947 86.5458 147.043L86.5529 147.032L86.553 147.032C86.9835 147.825 87.6414 148.442 88.1833 149.149C88.3481 149.364 88.5492 149.502 88.7837 149.342C89.0395 149.166 88.92 148.936 88.7607 148.739C88.4184 148.334 88.076 147.929 87.7337 147.525L86.3429 145.903L86.3428 145.903C86.2845 145.83 86.2262 145.758 86.1678 145.685L86.1678 145.685C86.2261 145.758 86.2844 145.83 86.3428 145.903C86.8063 146.444 87.27 146.984 87.7337 147.525C87.2547 146.643 86.679 145.818 86.0171 145.064C85.7328 144.608 85.5241 144.089 85 143.831C84.1785 142.632 83.2226 141.54 82.2948 140.426C81.961 139.786 81.5598 139.183 81.0983 138.627C80.4197 137.662 79.2768 137.157 78.6656 136.132C78.6414 136.143 78.6161 136.153 78.59 136.159L78.5899 136.159C78.6161 136.153 78.6414 136.143 78.6656 136.132C78.403 135.554 78.0523 135.02 77.626 134.549C77.596 134.4 77.4414 134.499 77.3745 134.423C77.3916 134.407 77.4048 134.387 77.4131 134.365C77.4213 134.343 77.4244 134.319 77.4221 134.296ZM76.6204 133.347C76.5969 133.306 76.5691 133.268 76.5375 133.233C76.5691 133.268 76.5969 133.306 76.6204 133.347ZM74.857 142.539C74.8399 142.454 74.8203 142.37 74.8113 142.284C74.8203 142.37 74.84 142.454 74.8571 142.539C74.891 142.57 74.9231 142.604 74.9534 142.639C74.9231 142.604 74.891 142.57 74.8571 142.539L74.857 142.539ZM79.3205 146.936C79.3962 147.081 79.4652 147.23 79.54 147.376C79.5989 147.367 79.659 147.378 79.7107 147.408C79.7624 147.437 79.8027 147.483 79.8252 147.539C79.8027 147.483 79.7624 147.437 79.7107 147.408C79.659 147.378 79.5989 147.367 79.54 147.376C79.4653 147.23 79.3961 147.081 79.3205 146.936ZM79.5792 147.855C79.5358 147.957 79.4923 148.059 79.4488 148.161C79.4923 148.059 79.5358 147.957 79.5792 147.855ZM77.1392 145.66C77.1768 145.629 77.2188 145.604 77.2639 145.586C77.2188 145.604 77.1768 145.629 77.1392 145.66L77.1392 145.66ZM80.3518 149.237C80.3345 149.217 80.3185 149.197 80.2995 149.179C80.2647 149.203 80.2346 149.234 80.2108 149.269C80.2346 149.234 80.2647 149.203 80.2996 149.179C80.3185 149.197 80.3346 149.217 80.3518 149.237L80.3518 149.237ZM78.0334 147.053C78.0626 147.11 78.1036 147.16 78.1536 147.199C78.2037 147.239 78.2617 147.267 78.3236 147.283C78.3111 147.335 78.3117 147.39 78.3255 147.442C78.3393 147.494 78.3658 147.542 78.4026 147.582C78.3658 147.542 78.3393 147.494 78.3255 147.442C78.3117 147.39 78.311 147.335 78.3235 147.283C78.2616 147.267 78.2037 147.239 78.1536 147.199C78.1036 147.16 78.0626 147.11 78.0334 147.053L78.0334 147.053ZM81.315 150.57C81.1877 150.57 81.062 150.542 80.947 150.488C81.062 150.542 81.1877 150.57 81.3149 150.57C81.3515 150.582 81.3903 150.586 81.4287 150.583C81.4671 150.579 81.5041 150.567 81.5375 150.547C81.5041 150.567 81.4671 150.579 81.4287 150.583C81.3903 150.587 81.3516 150.582 81.315 150.57ZM79.8797 148.409C79.897 148.435 79.916 148.46 79.9361 148.485C79.916 148.46 79.8969 148.435 79.8796 148.409C79.8802 148.384 79.8783 148.359 79.8738 148.334C79.8783 148.359 79.8803 148.384 79.8797 148.409ZM80.6272 149.148C80.6426 149.041 80.5219 148.894 80.5375 148.786C80.5005 148.775 80.4659 148.757 80.4358 148.733C80.4057 148.709 80.3808 148.679 80.3623 148.645C80.3808 148.679 80.4057 148.709 80.4358 148.733C80.4659 148.757 80.5005 148.775 80.5376 148.786C80.5219 148.894 80.6426 149.041 80.6272 149.148ZM81.6476 150.107L81.6475 150.107C81.7831 150.112 81.9187 150.117 82.0542 150.121C81.9187 150.117 81.7831 150.112 81.6476 150.107ZM79.9076 143.135L79.9074 143.135C79.8031 143.028 79.6986 142.92 79.594 142.813L79.594 142.813C79.475 142.671 79.3559 142.528 79.2368 142.386C79.1677 142.443 79.0986 142.5 79.0295 142.556L79.2369 142.386C79.3559 142.528 79.4749 142.671 79.594 142.813C79.6985 142.92 79.803 143.027 79.9076 143.135ZM80.0557 143.325C80.0854 143.35 80.1201 143.367 80.1574 143.377C80.1947 143.387 80.2337 143.389 80.2716 143.382L80.2716 143.382C80.2336 143.389 80.1947 143.387 80.1574 143.377C80.1201 143.367 80.0854 143.35 80.0557 143.325ZM80.2799 143.4C80.3 143.445 80.3167 143.492 80.3299 143.54C80.3167 143.492 80.3 143.445 80.2799 143.4ZM79.1544 142.287L79.1542 142.287C79.1863 142.251 79.2184 142.215 79.2503 142.179C79.2184 142.215 79.1864 142.251 79.1544 142.287ZM80.2963 143.83C80.2394 143.781 80.1858 143.728 80.136 143.671C80.1858 143.728 80.2394 143.781 80.2963 143.83ZM80.4054 144.19C80.437 144.231 80.4687 144.272 80.5003 144.312C80.5276 144.346 80.5547 144.379 80.5816 144.413L80.4739 144.452C80.4827 144.405 80.4915 144.359 80.5003 144.312C80.4687 144.272 80.437 144.231 80.4054 144.19ZM79.7756 143.473C79.8039 143.497 79.8303 143.524 79.8571 143.551C79.8303 143.524 79.8039 143.497 79.7756 143.473ZM77.1731 140.18C77.151 140.15 77.1228 140.125 77.0904 140.106C77.058 140.088 77.022 140.076 76.9849 140.073C76.9477 140.069 76.9102 140.073 76.8747 140.084C76.8392 140.096 76.8065 140.115 76.7788 140.14C76.6482 139.889 76.4984 139.648 76.3307 139.42C76.4984 139.648 76.6482 139.889 76.7789 140.14C76.8066 140.115 76.8394 140.096 76.8748 140.084C76.9103 140.073 76.9479 140.069 76.985 140.073C77.0221 140.076 77.0581 140.088 77.0905 140.107C77.1229 140.125 77.151 140.15 77.1731 140.18ZM80.0214 143.951C79.9672 143.877 79.8993 143.814 79.8214 143.766C79.797 143.779 79.7762 143.797 79.7603 143.82C79.7762 143.797 79.797 143.779 79.8214 143.766C79.7673 143.688 79.7133 143.609 79.6592 143.531L79.6592 143.531C79.7133 143.609 79.7673 143.688 79.8214 143.766C79.8993 143.814 79.9673 143.877 80.0214 143.951L80.0214 143.951ZM75.0966 138.379C75.0711 138.344 75.0445 138.311 75.0169 138.279C75.0445 138.311 75.0711 138.344 75.0967 138.378C75.1519 138.384 75.2075 138.37 75.2536 138.339C75.2997 138.308 75.3333 138.262 75.3486 138.209C75.3333 138.262 75.2996 138.308 75.2535 138.339C75.2075 138.371 75.1519 138.384 75.0966 138.379L75.0966 138.379ZM73.3153 135.902C73.3218 135.975 73.3356 136.048 73.3566 136.118L73.3565 136.118C73.3355 136.048 73.3218 135.975 73.3153 135.902ZM74.4774 137.286C74.4478 137.394 74.4897 137.52 74.4674 137.63C74.583 137.638 74.6936 137.681 74.7857 137.751C74.8779 137.821 74.9476 137.917 74.9866 138.026C74.9476 137.917 74.8778 137.821 74.7857 137.751C74.6935 137.681 74.5829 137.638 74.4672 137.63C74.4897 137.52 74.4478 137.394 74.4774 137.286ZM73.5958 136.848C73.5966 136.782 73.5974 136.716 73.5983 136.651C73.4907 136.501 73.3832 136.351 73.2758 136.201C73.223 136.169 73.1701 136.137 73.1171 136.105L73.117 136.105C73.1699 136.137 73.2228 136.169 73.2758 136.201L73.2758 136.201C73.3832 136.351 73.4907 136.501 73.5983 136.651C73.5975 136.716 73.5966 136.782 73.5958 136.848L73.5958 136.848ZM74.4237 137.796C74.5327 137.899 74.7151 137.94 74.8011 138.062C74.7695 138.092 74.738 138.122 74.7068 138.152C74.738 138.122 74.7694 138.092 74.8009 138.062C74.7151 137.94 74.5326 137.899 74.4237 137.796ZM75.5435 139.145C75.5649 139.087 75.5663 139.023 75.5476 138.964C75.5663 139.023 75.5649 139.087 75.5435 139.145L75.5435 139.145ZM77.1799 141.31C77.3262 141.346 77.4596 141.422 77.5652 141.53C77.6708 141.637 77.7444 141.772 77.778 141.919C77.7444 141.772 77.6707 141.637 77.5651 141.53C77.4594 141.422 77.3261 141.346 77.1798 141.31L77.1799 141.31ZM73.5297 137.661C73.5944 137.732 73.6591 137.802 73.7238 137.873C73.6592 137.802 73.5945 137.732 73.5298 137.661L73.5297 137.661ZM76.089 140.464C76.1267 140.539 76.14 140.624 76.127 140.708C76.1873 140.781 76.2476 140.853 76.308 140.926C76.2476 140.853 76.1873 140.781 76.1269 140.708C76.1399 140.624 76.1266 140.539 76.089 140.464ZM74.1583 138.816C74.1593 138.751 74.1603 138.685 74.1612 138.62C74.1602 138.551 74.1593 138.483 74.1583 138.415C73.9558 138.318 73.8875 138.113 73.7751 137.943C73.8875 138.113 73.9558 138.318 74.1584 138.415C74.1593 138.483 74.1602 138.552 74.1612 138.62C74.1602 138.685 74.1593 138.751 74.1584 138.816C74.1806 138.85 74.2077 138.881 74.2388 138.907C74.2754 138.874 74.3206 138.852 74.369 138.843C74.4175 138.835 74.4675 138.84 74.5133 138.858C74.4675 138.84 74.4175 138.835 74.369 138.843C74.3205 138.852 74.2754 138.874 74.2388 138.907C74.2078 138.881 74.1806 138.85 74.1583 138.816L74.1583 138.816ZM75.8174 140.781L75.8174 140.781C75.763 140.717 75.6891 140.672 75.6071 140.655C75.6891 140.672 75.763 140.717 75.8175 140.781L75.8174 140.781ZM76.6332 141.561C76.5617 141.567 76.4898 141.554 76.4255 141.522C76.3612 141.49 76.3071 141.441 76.2691 141.38C76.3071 141.441 76.3614 141.49 76.4257 141.522C76.49 141.554 76.5619 141.567 76.6335 141.561C76.5968 141.647 76.5922 141.743 76.6202 141.832C76.6483 141.922 76.7073 141.998 76.7866 142.047C76.7073 141.998 76.6483 141.922 76.6202 141.832C76.5921 141.743 76.5967 141.647 76.6332 141.561ZM74.3602 139.265C74.4078 139.346 74.4629 139.423 74.5246 139.494C74.4629 139.423 74.4078 139.346 74.3602 139.265ZM74.588 139.566L74.588 139.566C74.5866 139.604 74.5733 139.641 74.5501 139.671C74.5268 139.701 74.4948 139.724 74.4583 139.735C74.4948 139.724 74.5268 139.701 74.5501 139.671C74.5733 139.641 74.5866 139.604 74.588 139.566ZM76.6127 142.172C76.6592 142.227 76.7009 142.287 76.7375 142.35C76.7009 142.287 76.6591 142.227 76.6127 142.172ZM74.1705 139.741L74.1705 139.741L74.1722 139.75L74.1705 139.741ZM78.5243 144.861C78.5052 144.904 78.4792 144.943 78.4474 144.978C78.4792 144.943 78.5052 144.904 78.5243 144.861ZM77.645 144.481C77.7043 144.478 77.7633 144.49 77.8174 144.514C77.7633 144.49 77.7043 144.478 77.645 144.481ZM77.7553 144.704C77.8062 144.857 77.8985 144.993 78.022 145.097C78.2233 145.111 78.3193 145.284 78.4385 145.421C78.3193 145.284 78.2233 145.111 78.0219 145.097C77.8984 144.993 77.8061 144.857 77.7553 144.704L77.7553 144.704ZM80.3981 147.956L80.398 147.956C80.3462 147.895 80.3115 147.822 80.2975 147.744C80.2836 147.665 80.2908 147.585 80.3186 147.51C80.2908 147.585 80.2836 147.665 80.2976 147.744C80.3116 147.822 80.3463 147.895 80.3981 147.956L80.3981 147.956ZM81.4539 148.757C81.4022 148.802 81.3393 148.832 81.2718 148.845C81.3393 148.832 81.4022 148.802 81.454 148.757C81.5157 148.827 81.5775 148.898 81.6393 148.969C81.5776 148.898 81.5157 148.827 81.4539 148.757L81.4539 148.757ZM78.6866 145.879C78.7436 145.818 78.8007 145.757 78.8579 145.695C78.8294 145.661 78.8006 145.626 78.7715 145.593C78.8006 145.626 78.8294 145.661 78.858 145.695C78.9984 145.645 79.1387 145.595 79.279 145.545L79.2816 145.536L79.279 145.545C79.1386 145.595 78.9983 145.645 78.858 145.695C78.8008 145.757 78.7437 145.818 78.6866 145.879L78.6866 145.879ZM81.8479 149.055C81.8906 149.077 81.9363 149.091 81.9833 149.099C81.9363 149.091 81.8906 149.077 81.848 149.056L81.8479 149.055ZM79.3336 145.851L79.3336 145.851C79.5536 145.987 79.6544 146.265 79.8633 146.414C79.6545 146.265 79.5536 145.987 79.3336 145.851ZM80.8288 147.579C80.7112 147.434 80.5935 147.288 80.4758 147.143C80.484 147.073 80.4758 147.003 80.4519 146.937C80.4279 146.871 80.389 146.812 80.338 146.764C80.389 146.812 80.428 146.871 80.452 146.937C80.4759 147.003 80.484 147.073 80.4758 147.143C80.5935 147.288 80.7112 147.434 80.8289 147.579L80.8288 147.579ZM82.2029 149.014L82.203 149.014C82.2852 149.09 82.3675 149.166 82.4501 149.241C82.3677 149.166 82.2853 149.09 82.2029 149.014ZM79.3973 145.436L79.2854 145.523L79.3973 145.436L79.3973 145.436ZM78.7392 144.683L78.6609 144.576C78.687 144.612 78.7131 144.647 78.7393 144.683L78.7392 144.683ZM78.4722 144.345C78.4343 144.303 78.39 144.268 78.3411 144.241C78.39 144.268 78.4343 144.303 78.4723 144.345L78.4722 144.345ZM80.1574 146.124C80.1782 146.148 80.1983 146.173 80.2175 146.198C80.1984 146.173 80.1782 146.148 80.1574 146.124C80.0873 146.112 80.0208 146.085 79.9629 146.043C79.905 146.002 79.8572 145.948 79.823 145.886C79.8572 145.948 79.905 146.002 79.9629 146.043C80.0208 146.084 80.0873 146.112 80.1574 146.124ZM78.9266 144.498C78.9099 144.457 78.8859 144.418 78.856 144.385L78.8561 144.385C78.886 144.418 78.9099 144.457 78.927 144.498C78.919 144.78 79.2215 144.906 79.3534 145.118C79.2215 144.906 78.9188 144.78 78.9266 144.498L78.9266 144.498ZM80.5892 146.458C80.5467 146.411 80.5001 146.368 80.4501 146.329C80.5001 146.368 80.5467 146.411 80.5892 146.458L80.5892 146.458ZM81.7054 147.756C81.7456 147.841 81.7791 147.931 81.8173 148.018C81.7791 147.931 81.7456 147.841 81.7054 147.756ZM81.6684 147.733C81.6104 147.681 81.6234 147.582 81.6029 147.505C81.6235 147.582 81.6104 147.681 81.6684 147.733ZM81.9557 147.77C81.9633 147.704 81.9548 147.637 81.9308 147.575C81.9548 147.637 81.9633 147.704 81.9557 147.77L81.9557 147.77ZM79.1736 144.31L79.1735 144.31C79.0255 144.127 78.8775 143.944 78.7295 143.761C78.8775 143.944 79.0256 144.127 79.1736 144.31ZM78.3416 143.324C78.3077 143.353 78.2736 143.382 78.2391 143.411C78.2691 143.452 78.299 143.492 78.3289 143.533L78.3289 143.533C78.299 143.492 78.2691 143.452 78.2391 143.411C78.1433 143.236 78.0473 143.062 77.9512 142.887C77.9384 142.978 77.9045 143.066 77.8522 143.142C77.7999 143.218 77.7307 143.281 77.6499 143.325C77.5198 143.262 77.3896 143.198 77.2593 143.135C77.3896 143.198 77.5198 143.262 77.65 143.325C77.7308 143.281 77.8 143.218 77.8522 143.142C77.9045 143.066 77.9383 142.978 77.951 142.887C77.7989 142.772 77.6467 142.657 77.4946 142.542C77.6467 142.657 77.7989 142.772 77.9512 142.887C78.0473 143.062 78.1433 143.236 78.2392 143.411C78.2736 143.382 78.3077 143.353 78.3415 143.324L78.3029 143.146C78.3158 143.205 78.3287 143.265 78.3416 143.324L78.3416 143.324ZM76.8383 141.591L76.838 141.591C76.807 141.551 76.7854 141.504 76.7747 141.454C76.7641 141.404 76.7646 141.352 76.7763 141.303C76.7646 141.352 76.7641 141.404 76.7748 141.454C76.7855 141.504 76.8072 141.551 76.8382 141.591L76.8383 141.591ZM75.7537 140.076C75.732 140.037 75.7096 139.999 75.6865 139.962C75.7006 139.913 75.7019 139.861 75.6903 139.812C75.6787 139.762 75.6545 139.716 75.6201 139.679C75.6545 139.716 75.6787 139.762 75.6903 139.812C75.7019 139.861 75.7006 139.913 75.6866 139.962C75.7097 139.999 75.7321 140.037 75.7537 140.076ZM80.2333 145.097C80.2009 145.105 80.1672 145.106 80.1343 145.101C80.1014 145.095 80.07 145.083 80.0419 145.065C80.07 145.083 80.1014 145.095 80.1343 145.101C80.1672 145.106 80.201 145.105 80.2334 145.097L80.2333 145.097ZM79.577 144.337L79.577 144.337C79.6097 144.373 79.6424 144.409 79.6752 144.445C79.6425 144.409 79.6097 144.373 79.5769 144.337L79.577 144.337ZM77.6118 142.042C77.47 141.795 77.2947 141.568 77.091 141.369L77.0912 141.369C77.2948 141.568 77.47 141.795 77.6118 142.042ZM80.3762 144.926C80.3401 144.936 80.3069 144.955 80.2791 144.98C80.3069 144.955 80.3401 144.936 80.3762 144.926ZM82.2975 147.233C82.3383 147.239 82.4047 147.209 82.5144 147.115L82.5144 147.115C82.4047 147.209 82.3383 147.239 82.2975 147.233L82.2975 147.233ZM82.4441 146.993C82.4583 147.026 82.4757 147.058 82.4959 147.087C82.4757 147.058 82.4583 147.026 82.444 146.993C82.5102 146.944 82.4565 146.749 82.4966 146.668C82.4565 146.749 82.5103 146.944 82.4442 146.993L82.4441 146.993ZM82.0505 146.364L82.0467 146.364C81.9502 146.247 81.8536 146.129 81.757 146.012C81.8536 146.129 81.9502 146.247 82.0468 146.364L82.0505 146.364ZM82.055 146.364C82.0376 146.41 82.0334 146.459 82.0429 146.507C82.0334 146.459 82.0376 146.41 82.055 146.364ZM80.5728 144.82C80.5587 144.842 80.5394 144.86 80.5165 144.873C80.5394 144.86 80.5587 144.842 80.5728 144.82C80.6071 144.719 80.6415 144.617 80.6759 144.516L80.6712 144.513L80.6758 144.516C80.6946 144.518 80.7132 144.522 80.7314 144.528C80.7132 144.522 80.6947 144.519 80.6759 144.516C80.6415 144.617 80.6071 144.719 80.5728 144.82L80.5728 144.82ZM81.9385 145.828C81.8158 145.646 81.6472 145.5 81.4498 145.404C81.4532 145.382 81.4518 145.36 81.4457 145.34C81.4396 145.319 81.4289 145.299 81.4145 145.283C81.4289 145.299 81.4396 145.319 81.4457 145.34C81.4518 145.36 81.4532 145.382 81.4499 145.404C81.6473 145.5 81.8158 145.646 81.9385 145.828ZM80.6149 144.47L80.6148 144.469C80.693 144.334 80.8114 144.226 80.9537 144.16C80.8114 144.226 80.693 144.334 80.6149 144.47ZM77.9733 140.447C77.9044 140.506 77.8354 140.564 77.7664 140.623C77.9216 140.728 78.0291 140.89 78.0656 141.074C78.0291 140.89 77.9216 140.728 77.7663 140.623C77.7269 140.597 77.6933 140.564 77.6676 140.524C77.6982 140.43 77.6846 140.374 77.6496 140.336C77.6846 140.374 77.6983 140.43 77.6677 140.524C77.6933 140.564 77.7269 140.597 77.7663 140.623L77.9733 140.447ZM77.0612 139.162C77.0274 139.189 76.9936 139.215 76.9598 139.241C76.8644 139.137 76.7691 139.033 76.6738 138.928C76.5299 138.732 76.3859 138.536 76.2418 138.339C76.2335 138.292 76.2249 138.245 76.216 138.197C76.2248 138.245 76.2336 138.292 76.2421 138.339C76.386 138.536 76.5298 138.732 76.6738 138.928C76.7691 139.033 76.8644 139.137 76.9598 139.241C76.9936 139.215 77.0274 139.189 77.0612 139.162L77.0618 139.158L77.0612 139.162ZM76.0375 138.178L76.0373 138.178C76.088 138.115 76.1165 138.037 76.1186 137.956C76.1206 137.875 76.096 137.796 76.0486 137.73C76.096 137.796 76.1207 137.875 76.1187 137.956C76.1167 138.037 76.0882 138.115 76.0376 138.178L76.0375 138.178ZM73.7176 134.488C73.7317 134.52 73.7498 134.549 73.7715 134.576C73.7498 134.549 73.7316 134.52 73.7176 134.488ZM74.1777 134.66C74.1532 134.744 74.1397 134.829 74.1375 134.916C74.1397 134.829 74.1532 134.743 74.1776 134.66L74.1777 134.66ZM83.7498 145.486L83.7499 145.486C83.7163 145.518 83.6816 145.55 83.6462 145.581C83.7624 145.794 83.8786 146.007 83.9948 146.22C84.0296 146.233 84.067 146.24 84.1044 146.237C84.1418 146.235 84.1783 146.225 84.2113 146.207C84.1783 146.225 84.1418 146.235 84.1044 146.237C84.067 146.24 84.0295 146.233 83.9947 146.22C83.9639 146.245 83.933 146.271 83.902 146.297C83.933 146.271 83.964 146.245 83.9948 146.22C83.8786 146.007 83.7624 145.794 83.6462 145.581C83.6816 145.55 83.7162 145.518 83.7498 145.485L83.7498 145.486ZM82.2496 143.64C82.2581 143.629 82.2643 143.617 82.2675 143.604C82.2708 143.591 82.2711 143.578 82.2684 143.564C82.2711 143.578 82.2708 143.591 82.2675 143.604C82.2643 143.617 82.2581 143.629 82.2496 143.64ZM80.8166 141.598C80.8577 141.501 80.8988 141.404 80.9399 141.308C80.8989 141.248 80.8469 141.193 80.8082 141.132C80.8469 141.193 80.899 141.248 80.94 141.307L80.8166 141.598ZM82.0714 142.917C82.1403 142.95 82.205 142.991 82.2643 143.039C82.205 142.991 82.1403 142.95 82.0714 142.917ZM82.6264 143.442C82.6196 143.363 82.6128 143.285 82.6059 143.207L82.6059 143.207C82.6127 143.285 82.6196 143.364 82.6264 143.442ZM82.6816 141.2C82.5224 141.13 82.3557 141.186 82.1746 141.382C82.3557 141.186 82.5224 141.13 82.6816 141.2ZM84.961 145.39L84.961 145.39L85.3067 145.105C85.1914 145.2 85.0762 145.295 84.961 145.39ZM85.4949 145.918C85.586 146.017 85.6599 146.131 85.7135 146.255C85.6796 146.287 85.6448 146.318 85.6093 146.349C85.6449 146.318 85.6796 146.287 85.7134 146.255C85.6599 146.131 85.586 146.017 85.4949 145.918L85.4949 145.918ZM84.1408 144.41L84.144 144.404L84.1408 144.41ZM82.5886 142.358C82.5567 142.316 82.5248 142.274 82.493 142.232L82.4931 142.232L82.5886 142.358ZM80.0228 138.894C80.001 138.953 80.0081 138.988 80.0292 139.011C80.0081 138.988 80.001 138.953 80.0228 138.894L80.0228 138.894ZM79.5958 138.64L79.6263 138.654L79.5958 138.64L79.5958 138.64ZM81.5362 140.771C81.5668 140.877 81.465 141.014 81.3873 141.129C81.4426 141.199 81.498 141.27 81.5533 141.34C81.6914 141.231 81.801 141.371 81.9189 141.437C81.801 141.371 81.6913 141.231 81.5533 141.34C81.498 141.27 81.4426 141.199 81.3871 141.129C81.4649 141.014 81.5668 140.877 81.5362 140.771ZM79.9278 139.261C80.1045 139.454 80.2034 139.705 80.2054 139.967L80.2052 139.967C80.2034 139.705 80.1045 139.454 79.9279 139.261L79.9278 139.261ZM82.0656 142.094L82.0644 142.094L82.0656 142.094ZM82.4346 142.819C82.4119 142.79 82.3861 142.763 82.3575 142.739C82.3861 142.763 82.4119 142.79 82.4345 142.819C82.4787 142.853 82.5191 142.891 82.555 142.934C82.5192 142.891 82.4788 142.853 82.4346 142.819L82.4346 142.819ZM82.8499 142.861L82.85 142.861L83.1123 143.585C83.0249 143.343 82.9374 143.102 82.8499 142.861L82.8499 142.861ZM85.8863 146.684C85.849 146.694 85.8097 146.691 85.7743 146.676C85.7388 146.661 85.7091 146.635 85.6895 146.602C85.7091 146.635 85.7388 146.661 85.7743 146.676C85.8097 146.691 85.849 146.694 85.8863 146.684C86.0027 146.726 86.1759 146.664 86.3162 146.662C86.1759 146.664 86.0027 146.726 85.8863 146.684L85.8863 146.684ZM88.0629 148.576C88.0266 148.558 87.9883 148.542 87.9502 148.526C87.9883 148.542 88.0266 148.558 88.0628 148.576C88.0979 148.556 88.0933 148.481 88.0958 148.416C88.0933 148.481 88.098 148.556 88.0629 148.576L88.0629 148.576ZM85.6783 145.541L85.6783 145.541C85.6699 145.467 85.6467 145.394 85.61 145.329C85.6467 145.394 85.6699 145.467 85.6783 145.541L85.6783 145.541ZM85.8937 145.356C85.9508 145.371 86.0038 145.398 86.0492 145.436C86.0038 145.398 85.9507 145.371 85.8937 145.356L85.8937 145.356ZM85.0591 144.375C84.9939 144.448 84.9027 144.491 84.8054 144.497C84.9027 144.491 84.9939 144.448 85.0591 144.375C85.0922 144.37 85.126 144.37 85.159 144.377C85.1261 144.37 85.0922 144.37 85.0592 144.375L85.0591 144.375ZM85.4541 144.612L85.8159 145.046C85.6953 144.902 85.5747 144.757 85.454 144.612C85.4614 144.545 85.451 144.476 85.4239 144.414C85.3968 144.352 85.354 144.297 85.2995 144.257C85.354 144.297 85.3969 144.352 85.424 144.414C85.4512 144.476 85.4615 144.545 85.4541 144.612L85.4541 144.612ZM81.7936 139.878C81.7497 139.804 81.6889 139.743 81.6164 139.698C81.5439 139.653 81.4617 139.626 81.3767 139.619L81.3767 139.619C81.4618 139.626 81.544 139.653 81.6165 139.698C81.689 139.743 81.7497 139.804 81.7936 139.878L81.7936 139.878Z" fill="#FAE465"/>
<path fill-rule="evenodd" clip-rule="evenodd" d="M186.917 1.63191C186.966 2.52928 187.142 3.26352 187.307 3.26352C187.472 3.26352 187.648 2.52928 187.697 1.63191C187.771 0.296359 187.7 0 187.307 0C186.914 0 186.843 0.296359 186.917 1.63191ZM196.487 2.69537C196.285 3.36359 196.046 4.09635 195.958 4.32373C195.864 4.56532 195.986 4.73703 196.251 4.73703C196.523 4.73703 196.896 4.1831 197.183 3.35204C197.765 1.66744 197.773 1.48032 197.259 1.48032C197.038 1.48032 196.69 2.02715 196.487 2.69537ZM177.081 2.53549C177.198 2.99558 177.49 3.83581 177.73 4.40307C178.063 5.18853 178.25 5.35166 178.517 5.08876C178.784 4.82556 178.728 4.41343 178.285 3.35855C177.615 1.76454 176.731 1.16028 177.081 2.53549ZM204.89 7.37023C203.958 8.5311 203.727 9.178 204.245 9.178C204.537 9.178 206.666 6.74317 206.666 6.40891C206.666 5.84017 205.698 6.3642 204.89 7.37023ZM168.43 7.0561C168.174 7.46319 169.977 9.77013 170.55 9.77013C171.229 9.77013 170.998 9.20583 169.796 7.93541C169.046 7.14137 168.568 6.83435 168.43 7.0561ZM184.606 7.98397C179.756 8.55241 176.031 10.3661 172.442 13.9067C168.191 18.0996 166.394 22.4224 166.406 28.4222C166.413 32.1295 166.896 34.1525 168.594 37.6002C169.599 39.6416 170.321 40.5928 172.417 42.6386C176.61 46.7305 179.857 48.1025 186.478 48.5806C190.501 48.8708 194.242 49.7915 195.188 50.7238C195.551 51.0824 195.456 51.2348 194.51 51.8113C191.647 53.5569 191.026 55.7362 192.397 59.2277C192.523 59.5463 192.272 59.8305 191.58 60.1562C190.274 60.7702 187.249 63.5085 186.683 64.5879C186.351 65.2218 186.319 65.5842 186.558 66.025C186.734 66.3492 186.975 66.6189 187.093 66.6243C187.21 66.6296 192.102 66.8884 197.962 67.1989C208.015 67.7316 208.719 67.8059 210.418 68.5144C213.409 69.7614 216.529 69.3744 219.527 67.3846L221.029 66.3877L222.96 69.0917C231.348 80.8327 236.427 93.6878 238.298 107.915C238.879 112.332 239.381 119.88 239.381 124.207V127.481L231.352 127.846C220.948 128.318 218.294 128.869 217.319 130.764C217.025 131.334 217.257 139.592 217.627 141.72C217.717 142.237 218.223 143.103 218.752 143.644C219.683 144.597 219.732 144.777 220.319 149.439L220.925 154.25H211.46C201.102 154.25 199.797 154.404 197.857 155.864C197.02 156.494 195.071 159.446 190.146 167.546L183.555 178.386V186.286V194.185L184.28 195.016L185.004 195.847L232.575 195.923L280.147 196L281.073 195.231L282 194.462L281.996 186.272L281.993 178.083L277.064 168.017C274.353 162.48 271.713 157.45 271.197 156.838C269.47 154.793 269.124 154.711 261.591 154.546L254.838 154.398L254.93 153.742C254.98 153.382 255.266 151.122 255.565 148.72C256.003 145.2 256.212 144.293 256.645 144.046C257.573 143.515 259.2 142.053 259.522 141.46C259.834 140.883 261.176 134.737 261.495 132.417C261.702 130.921 261.348 130.394 259.64 129.649C257.349 128.649 248.679 127.606 242.651 127.604L240.369 127.604L240.188 120.572C239.981 112.533 239.684 109.366 238.57 103.326C238.134 100.965 237.781 98.6339 237.784 98.1454C237.787 97.6569 238.552 94.0597 239.484 90.1516C241.368 82.2494 243.008 73.1232 243.713 66.6145C244.617 58.269 244.362 51.5348 243.159 51.9901C242.572 52.2125 240.521 56.7488 239.27 60.5905C236.865 67.9806 235.937 74.7249 235.932 84.8518L235.929 92.283L234.857 89.2927C232.2 81.8775 227.811 73.895 222.17 66.213C222.012 65.9981 222.321 65.2757 222.989 64.2957C224.941 61.4352 225.126 58.8102 223.593 55.7205L222.798 54.1164L223.627 47.7111C224.494 41.007 224.469 39.508 223.416 35.3015C222.976 33.5426 221.741 32.5671 219.953 32.5671C218.694 32.5671 218.447 32.6979 216.975 34.1504C215.495 35.6103 215.37 35.841 215.37 37.1111C215.37 37.8687 215.269 38.4839 215.145 38.4786C215.021 38.4733 214.177 38.2113 213.269 37.8963C210.966 37.0972 210.626 37.1478 209.341 38.4798L208.207 39.6552L207.812 38.5538C207.529 37.7669 207.416 35.5482 207.416 30.7907C207.416 24.3134 207.394 24.0671 206.609 21.8803C203.662 13.677 196.961 8.59002 188.208 7.91232C187.217 7.83564 185.596 7.86791 184.606 7.98397ZM191.655 9.3432C198.86 11.0183 204.585 16.8576 206.247 24.2261C206.648 26.0019 206.708 27.2128 206.545 30.1776C206.246 35.6251 206.299 35.4223 204.839 36.6498C204.12 37.2541 202.583 38.5695 201.422 39.5732C200.262 40.5771 199.287 41.3735 199.256 41.343C199.225 41.3128 197.697 37.7604 195.86 33.4488C194.024 29.1372 192.412 25.4994 192.277 25.3647C191.981 25.0675 183.405 32.2926 183.405 32.8398C183.405 33.1329 191.218 38.0689 197.906 42.0018C198.181 42.1637 197.247 43.1206 194.793 45.1883L191.286 48.143L189.747 47.9263C188.9 47.807 187.257 47.6998 186.095 47.688C179.342 47.619 172.495 43.3314 169.499 37.2941C167.845 33.9636 167.348 31.879 167.348 28.2801C167.348 22.7517 169.18 18.322 173.055 14.4793C175.497 12.0572 178.757 10.1985 182.055 9.34705C184.254 8.7795 189.221 8.77742 191.655 9.3432ZM161.946 14.9231C161.946 15.5292 164.625 17.016 165.018 16.6285C165.232 16.4165 164.879 16.0405 163.879 15.4143C162.256 14.3994 161.946 14.3206 161.946 14.9231ZM158.516 24.2426C158.252 24.6639 158.737 24.873 160.438 25.0719C161.428 25.1874 161.946 25.1382 161.946 24.928C161.946 24.4848 161.7 24.3821 160.097 24.1526C159.276 24.0354 158.622 24.0727 158.516 24.2426ZM194.71 33.0109C196.162 36.41 197.318 39.2217 197.28 39.2593C197.204 39.3348 189.653 30.7359 188.997 29.827C188.624 29.3092 188.72 29.1387 190.047 27.9657C190.851 27.2554 191.635 26.7095 191.79 26.7524C191.944 26.7953 193.258 29.6115 194.71 33.0109ZM190.638 33.2332C192.092 34.9022 194.031 37.1256 194.947 38.174C195.862 39.2223 196.476 40.0075 196.311 39.919C195.861 39.6774 185.91 33.7182 185.137 33.2273C184.467 32.8025 184.468 32.8004 185.887 31.5119C186.668 30.8025 187.462 30.2169 187.651 30.2104C187.84 30.2039 189.184 31.5643 190.638 33.2332ZM160.295 33.6007C160.13 33.6551 159.624 33.7804 159.169 33.8792C158.083 34.1155 158.108 34.6395 159.207 34.6395C160.697 34.6395 161.946 34.2854 161.946 33.8624C161.946 33.4902 161.058 33.3496 160.295 33.6007ZM221.665 34.04C222.328 34.6937 222.384 34.8859 223.006 38.6364C223.429 41.1873 223.413 41.5683 222.629 47.5678C221.981 52.5301 221.692 53.9634 221.243 54.4531C220.931 54.7932 220.642 55.0375 220.6 54.9958C220.385 54.7805 216.27 37.5099 216.27 36.8236C216.27 36.2552 216.669 35.6414 217.626 34.7369C219.186 33.2628 220.626 33.0144 221.665 34.04ZM214.486 39.3487L215.844 39.9415L217.712 47.5787C218.738 51.7793 219.577 55.3561 219.575 55.5272C219.572 55.8369 215.585 59.2129 215.223 59.2129C215.118 59.2129 212.339 56.8074 209.048 53.8669C203.942 49.3051 203.064 48.3977 203.064 47.6788C203.064 47.0165 203.898 45.9187 206.962 42.5451L210.861 38.2536L211.994 38.505C212.618 38.6432 213.739 39.0228 214.486 39.3487ZM59.8536 41.7448C56.7406 42.122 53.2164 43.1165 48.6444 44.9082C42.4298 47.3437 39.923 47.7798 33.7877 47.492C25.5486 47.1053 23.4963 47.3996 19.0564 49.6035C14.4694 51.8809 7.91536 57.5857 5.29548 61.5814C-1.08061 71.3056 -1.74931 83.3122 3.5637 92.6679C5.1166 95.4026 8.59097 98.9054 11.2796 100.447C15.7174 102.992 22.2943 104.258 27.86 103.639C34.5155 102.899 39.2444 101.157 51.6827 94.8617C56.3252 92.5122 60.9173 90.318 61.8873 89.9858C66.6607 88.3516 71.0432 88.1322 78.1351 89.172C84.393 90.0898 91.4176 90.0877 95.1534 89.1675C100.314 87.8959 104.492 85.282 106.885 81.8284L108.139 80.0185L108.328 82.4205C108.433 83.7415 108.519 86.5784 108.52 88.7243L108.521 92.6261L106.796 92.9592C103.61 93.5738 98.6197 95.0589 95.2282 96.4016C82.3127 101.514 73.8321 109.812 69.8028 121.278L68.8522 123.983L66.4019 122.643C65.054 121.905 62.4657 120.639 60.6498 119.829C53.614 116.691 49.0973 115.394 45.0428 115.348C42.7239 115.322 42.1294 115.422 40.8412 116.057C38.9629 116.984 37.8875 118.463 38.1613 119.743C39.1223 124.243 47.7491 132.091 63.9759 143.228L67.9023 145.923L68.5854 148.474C70.5948 155.977 74.1511 162.125 79.547 167.424C92.5933 180.237 107.946 184.229 121.994 178.46C124.54 177.414 123.765 177.28 129.951 179.844C140.672 184.29 149.582 186.623 155.943 186.652C160.471 186.672 162.476 186.141 164.498 184.385C167.666 181.635 166.902 178.212 161.983 173.108C159.43 170.459 156.071 167.877 152.545 165.854C150.576 164.724 150.225 164.409 150.364 163.894C150.456 163.556 150.754 161.933 151.028 160.287L151.525 157.295L155.212 156.089C166.172 152.506 174.932 145.622 181.556 135.385C187.199 126.664 191.168 113.833 194.198 94.5144C194.938 89.8011 194.982 89.6572 196.308 87.7082C197.535 85.9034 197.978 84.4924 197.472 83.9941C197.118 83.6441 196.258 84.3461 194.953 86.0514C194.236 86.9876 193.599 87.601 193.536 87.4148C193.473 87.2283 193.844 85.7746 194.36 84.1842C195.461 80.7954 195.347 80.1301 193.611 79.8092C193.004 79.6967 192.357 79.7352 192.162 79.8954C191.968 80.0546 191.071 81.6614 190.169 83.4659C189.267 85.2704 188.438 86.7469 188.327 86.7469C188.215 86.7469 188.041 86.314 187.94 85.7847C187.661 84.3275 186.666 82.898 185.932 82.898C185.305 82.898 185.3 82.9472 185.509 87.5611L185.721 92.2241L184.362 96.229C181.214 105.501 177.332 112.404 174.065 114.539C172.119 115.81 169.857 116.22 167.1 115.801C165.343 115.533 161.324 114.266 160.783 113.808C160.597 113.651 161.643 111.267 162.294 110.365C162.893 109.535 162.938 109.525 165.656 109.593C168.615 109.668 169.149 109.524 169.149 108.656C169.149 107.939 168.83 107.76 167.108 107.508L165.697 107.301L167.943 106.72C170.613 106.03 171.898 105.134 171.278 104.397C171.057 104.134 170.627 103.919 170.322 103.919C169.976 103.919 169.827 103.766 169.926 103.513C170.013 103.289 169.864 102.89 169.595 102.625C168.941 101.979 166.898 102.005 163.972 102.696C162.692 102.998 161.646 103.207 161.646 103.161C161.646 103.115 162.321 102.111 163.146 100.929C164.83 98.5175 165.029 97.7013 163.933 97.7013C163.481 97.7013 162.336 98.453 160.817 99.748L158.416 101.795L158.249 100.565C158.144 99.7941 157.832 99.1363 157.412 98.8009C156.289 97.9038 155.897 98.6611 155.585 102.327C155.319 105.468 155.297 105.537 154.053 107.071C153.359 107.927 152.678 108.634 152.539 108.642C152.4 108.649 150.914 107.809 149.238 106.774C145.245 104.311 138.609 100.711 129.545 96.0913C125.509 94.0339 122.176 92.3206 122.138 92.2842C122.074 92.2208 120.964 82.9661 120.769 80.8721C120.685 79.9623 120.77 79.851 121.818 79.4954C123.598 78.8917 125.295 77.5837 126.137 76.1656C126.818 75.0201 126.89 74.6381 126.752 72.8881C126.667 71.7989 126.334 70.3127 126.014 69.5858L125.431 68.2642L126.355 67.6513C127.371 66.9781 127.688 65.9451 127.095 65.2408C126.722 64.7979 126.041 64.8106 124.503 65.289C123.931 65.4673 123.476 65.13 121.524 63.0822C120.257 61.7528 118.4 60.0588 117.398 59.3177C116.395 58.5767 115.39 57.6171 115.164 57.1854C114.549 56.008 113.006 54.4901 111.823 53.8994C109.916 52.9473 108.441 52.9209 103.905 53.7579C100.321 54.4196 99.1125 54.5176 96.0659 54.3938C94.085 54.3136 91.6539 54.0324 90.6634 53.7689C87.8196 53.0127 83.1729 50.5814 79.2583 47.8011C73.2687 43.5475 69.4798 41.9967 64.2515 41.6583C62.9309 41.5728 60.9518 41.6119 59.8536 41.7448ZM163.074 42.7203C162.013 43.3376 161.564 44.1136 162.267 44.1136C162.765 44.1136 165.247 42.6105 165.247 42.3091C165.247 41.8496 164.245 42.0394 163.074 42.7203ZM53.1143 46.8522C53.5969 47.6119 52.9832 48.4065 51.9132 48.4065C51.1793 48.4065 51.0302 48.2745 50.9464 47.5506C50.7898 46.197 52.3736 45.6869 53.1143 46.8522ZM208.602 54.7719L214.472 59.9531L213.345 60.9466C212.726 61.4929 211.678 62.374 211.018 62.9045L209.817 63.8691L202.543 62.8856C198.542 62.3447 195 61.7605 194.672 61.5873C193.849 61.1527 192.422 56.6253 192.68 55.2672C192.927 53.9696 193.468 53.5071 198.097 50.6415C201.975 48.2413 201.986 48.2369 202.358 48.9128C202.563 49.2859 205.373 51.9223 208.602 54.7719ZM83.9104 49.1532C83.9104 50.0204 88.6135 52.1073 90.568 52.1073C92.0014 52.1073 91.5044 51.615 89.7129 51.26C88.7774 51.0747 87.1521 50.4568 86.1011 49.8869C83.9947 48.7449 83.9104 48.7165 83.9104 49.1532ZM48.7194 50.1992C49.5565 51.1374 49.5844 52.3818 48.7909 53.3769C46.9759 55.6527 43.3704 53.6593 44.3399 50.916C44.9821 49.099 47.3868 48.7053 48.7194 50.1992ZM8.97845 53.5524C6.60407 55.431 3.77409 58.6924 3.77409 59.5504C3.77409 60.1819 4.38847 59.6872 5.25196 58.3596C6.14846 56.9815 8.17738 54.9614 10.4005 53.2336C11.107 52.6844 11.2721 52.4301 10.9293 52.4194C10.6553 52.4105 9.77741 52.9206 8.97845 53.5524ZM242.987 63.6539C242.35 71.0676 240.761 80.3625 238.284 91.1568C237.599 94.1378 237.406 94.6563 237.254 93.9205C236.828 91.8694 236.674 83.9141 236.971 79.3453C237.614 69.4514 239.395 61.8479 242.935 53.8837C243.299 53.0645 243.334 59.6147 242.987 63.6539ZM117.937 60.6888C118.949 61.5003 120.573 63.0449 121.546 64.1208C123.418 66.1908 123.654 66.2705 125.851 65.5756C126.333 65.4228 126.575 65.4986 126.71 65.8444C126.995 66.5781 126.272 67.2066 125.142 67.2066C124.585 67.2066 124.129 67.2581 124.129 67.3215C124.129 67.3846 124.527 68.2837 125.015 69.3199C125.502 70.3559 125.983 71.8697 126.084 72.6838C126.567 76.6049 122.28 79.8042 117.314 79.2283C116.44 79.1271 115.725 79.1265 115.725 79.2271C115.725 79.3278 116.393 80.1319 117.21 81.0139C119.484 83.468 120.519 85.8131 120.985 89.5684C121.2 91.2995 121.421 92.7487 121.477 92.789C121.532 92.8292 122.422 93.4373 123.453 94.1402C124.485 94.8434 125.329 95.5154 125.329 95.6342C125.329 95.972 122.824 98.1634 121.485 98.9974C120.819 99.4122 119.419 100.038 118.375 100.387C115.675 101.289 111.138 101.089 107.921 99.925C105.598 99.0848 102.834 97.6231 101.043 96.2882L100.017 95.5234L101.193 95.1169C102.859 94.5408 107.205 93.5564 108.083 93.5564C108.621 93.5564 108.822 93.7168 108.822 94.1485C108.822 94.4742 108.962 94.7406 109.134 94.7406C109.444 94.7406 109.277 80.4034 108.943 78.235C108.814 77.3995 108.678 77.2728 107.908 77.2728C106.62 77.2728 105.82 76.3467 105.82 74.8537C105.82 72.4005 107.577 71.795 109.453 73.6019C110.865 74.9623 111.433 74.8048 112.882 72.651C115.127 69.3149 116.141 65.7074 115.975 61.6507C115.92 60.3092 115.925 59.2117 115.986 59.2123C116.048 59.2126 116.926 59.877 117.937 60.6888ZM193.578 61.7371L194.51 62.7811L201.669 63.7249L208.828 64.6691L208.047 65.3314C207.618 65.6958 207.266 66.1337 207.266 66.3042C207.266 66.7012 206.696 66.6944 196.611 66.1716C191.989 65.9321 188.039 65.734 187.832 65.7313C187.081 65.7213 187.486 64.7191 188.702 63.5781C189.931 62.4249 192.21 60.6932 192.498 60.6932C192.579 60.6932 193.066 61.1631 193.578 61.7371ZM118.354 65.4412C117.066 66.121 116.23 67.2114 116.489 67.876C117.148 69.5695 121.889 67.6336 121.669 65.7607C121.592 65.1061 121.415 64.9755 120.527 64.9178C119.929 64.8787 118.993 65.1043 118.354 65.4412ZM118.926 67.5702C118.42 67.8876 117.225 67.8485 117.225 67.5142C117.225 67.3576 117.523 66.9559 117.888 66.6213L118.55 66.0126L118.912 66.6817C119.188 67.1889 119.191 67.4038 118.926 67.5702ZM119.026 72.7803C119.026 74.2379 119.992 75.2004 121.455 75.2004C122.491 75.2004 123.828 74.5259 123.828 74.0031C123.828 73.7177 119.878 71.6476 119.334 71.6476C119.165 71.6476 119.026 72.1574 119.026 72.7803ZM122.443 73.784C122.903 74.0241 122.931 74.1286 122.593 74.3394C121.491 75.0284 119.627 74.2476 119.627 73.0971C119.627 72.5989 119.696 72.5944 120.752 73.0273C121.371 73.2807 122.132 73.6215 122.443 73.784ZM106.781 73.1871C106.153 73.8059 106.392 76.3846 107.077 76.3846C107.247 76.3846 107.284 76.0036 107.166 75.4742L106.963 74.5635L107.854 75.0183C108.683 75.4411 109.122 75.397 109.122 74.891C109.122 74.7749 108.713 74.5132 108.214 74.3089C107.529 74.0291 107.349 73.8021 107.484 73.3849C107.685 72.7584 107.319 72.6557 106.781 73.1871ZM191.825 84.082C190.685 86.9959 190.602 87.339 191.04 87.339C191.195 87.339 191.897 85.8735 192.6 84.0823C193.303 82.2911 193.986 80.8256 194.119 80.8256C194.566 80.8256 194.365 82.0122 193.46 84.7221C192.392 87.9184 192.343 88.5233 193.148 88.5233C193.798 88.5233 194.546 87.8296 195.939 85.9333C196.447 85.2414 196.924 84.736 196.999 84.8103C197.134 84.943 196.861 85.4356 195.026 88.3752C194.217 89.6705 194.004 90.5036 193.325 95.0367C190.873 111.403 186.952 124.707 182.109 133.089C178.98 138.506 173.797 144.457 169.068 148.062C166.327 150.152 163.145 152.177 162.604 152.177C161.903 152.177 159.376 144.506 158.352 139.269C156.706 130.857 156.899 123.785 158.928 118.102C159.573 116.296 160.171 114.749 160.256 114.665C160.341 114.581 161.398 114.874 162.604 115.317C163.81 115.76 165.053 116.215 165.367 116.328C165.843 116.5 165.606 116.767 163.936 117.943C162.835 118.718 161.724 119.669 161.467 120.056C160.829 121.016 161.037 122.019 161.981 122.54C162.705 122.94 162.896 122.912 164.382 122.187C165.271 121.754 167.258 120.403 168.8 119.183C170.341 117.964 172.449 116.439 173.484 115.794C174.519 115.149 175.976 113.934 176.72 113.094C179.399 110.074 182.556 103.69 185.127 96.0996C186.762 91.2684 186.712 91.846 186.065 85.4146C185.9 83.7765 185.925 83.674 186.378 84.0989C186.648 84.3523 187.097 85.5179 187.376 86.6895C187.654 87.861 187.977 88.8193 188.093 88.8193C188.209 88.8193 189.067 87.2538 189.998 85.3406C190.93 83.4274 191.917 81.5288 192.191 81.1217C193.127 79.7299 192.942 81.2282 191.825 84.082ZM189.408 90.003C189.572 90.7399 189.449 91.0455 188.681 91.8022C187.77 92.7016 187.514 93.2603 188.014 93.2603C188.356 93.2603 189.687 92.0293 190.065 91.3622C190.263 91.0132 190.849 90.7757 191.764 90.6739C192.595 90.5815 193.16 90.3692 193.16 90.1496C193.16 89.8855 192.764 89.8242 191.77 89.9346C190.682 90.0557 190.321 89.9841 190.105 89.6024C189.639 88.7811 189.193 89.0375 189.408 90.003ZM104.019 98.9868C111.644 103.075 118.995 102.611 124.405 97.698C125.299 96.8856 126.109 96.2257 126.205 96.2316C126.301 96.2375 126.75 96.5413 127.203 96.9069L128.026 97.5719L127.121 98.6543C125.802 100.234 122.504 102.281 119.765 103.221C117.647 103.947 116.949 104.04 113.624 104.04C109.221 104.039 106.862 103.538 103.269 101.839C100.853 100.696 97.6854 98.3944 96.9041 97.2134C96.5047 96.6094 96.5488 96.5555 97.7751 96.1511L99.0672 95.725L100.568 96.8329C101.393 97.4419 102.946 98.4112 104.019 98.9868ZM101.116 101.514C106.018 104.384 112.9 105.515 118.208 104.324C121.921 103.491 124.419 102.158 127.227 99.5102L128.674 98.1454L131.528 101.063C136.055 105.69 139.984 111.2 142.996 117.146L144.222 119.566L141.631 123.215C135.294 132.137 130.157 136.864 124.755 138.745C121.768 139.786 118.281 139.729 115.863 138.6C113.843 137.658 111.897 135.706 110.745 133.468C109.888 131.803 108.521 127.281 108.521 126.108C108.521 125.376 108.067 124.686 107.782 124.984C107.727 125.04 107.807 125.887 107.961 126.864C108.353 129.375 109.586 132.901 110.649 134.554C111.146 135.328 111.481 136.033 111.393 136.12C111.305 136.207 109.97 136.768 108.428 137.367C99.711 140.749 92.8748 146.226 89.6769 152.389C88.85 153.982 87.7473 156.547 87.2263 158.09C86.144 161.292 85.1109 166.805 85.1109 169.378C85.1109 170.339 85.0098 171.125 84.8858 171.125C84.4281 171.124 79.9375 167.062 78.176 165.056C74.3663 160.717 71.9445 156.51 70.1023 151.032C68.5839 146.516 67.89 141.92 67.9068 136.486C67.9179 132.829 68.0635 131.513 68.8874 127.604C69.8751 122.919 71.1759 119.118 72.8542 116.011C73.743 114.366 73.8258 114.296 74.3375 114.753C74.6356 115.019 75.7836 116.966 76.8887 119.078C79.1031 123.312 79.7241 123.905 81.0468 123.05C82.1113 122.362 82.0342 121.367 80.6494 117.914C79.1514 114.178 78.6949 112.245 78.7102 109.7L78.7228 107.635L80.3411 106.184C83.8848 103.007 88.6273 99.9875 93.1659 98.0192L95.6682 96.9339L97.5383 98.7239C98.5669 99.7083 100.177 100.964 101.116 101.514ZM4.6745 97.8837C4.6745 97.984 5.14601 98.6996 5.72227 99.4738C6.93062 101.098 9.23806 102.92 11.5008 104.038C14.2863 105.413 20.5817 106.562 20.5817 105.695C20.5817 105.532 20.1708 105.399 19.6687 105.399C17.9522 105.399 14.1306 104.476 12.1968 103.594C9.70868 102.46 7.73018 100.961 6.32795 99.147C5.3324 97.8594 4.6745 97.3567 4.6745 97.8837ZM163.568 98.9595C163.45 99.1632 162.62 100.374 161.724 101.649C160.829 102.925 160.169 104.042 160.26 104.131C160.35 104.22 161.543 104.017 162.911 103.679C164.278 103.342 166.073 102.986 166.898 102.889C169.348 102.598 170.055 103.653 167.664 104.03C166.552 104.205 161.628 105.638 161.39 105.855C161.332 105.908 161.366 106.08 161.465 106.238C161.573 106.41 162.485 106.244 163.752 105.821C166.326 104.963 169.569 104.379 170.277 104.648C170.763 104.833 170.759 104.869 170.228 105.163C169.914 105.337 168.09 105.905 166.176 106.425C164.262 106.946 162.728 107.494 162.767 107.643C162.807 107.793 163.617 107.948 164.568 107.989C167.019 108.093 168.249 108.335 168.249 108.713C168.249 108.942 167.433 108.983 165.544 108.851C162.242 108.62 162.152 108.686 160.268 112.661L158.967 115.407L157.695 115.125C156.817 114.931 156.085 114.482 155.329 113.674C154.522 112.812 153.998 112.504 153.334 112.504C152.819 112.504 152.205 112.254 151.898 111.92C151.375 111.35 151.452 111.229 154.97 107.109C158.704 102.735 162.821 98.5895 163.432 98.5895C163.626 98.5895 163.686 98.7544 163.568 98.9595ZM157.414 100.114C157.964 101.67 157.822 102.855 156.993 103.623L156.243 104.318V103.123C156.243 101.397 156.587 99.1816 156.855 99.1816C156.981 99.1816 157.233 99.6011 157.414 100.114ZM141.895 103.922C144.696 104.848 145.797 105.401 149.727 107.858C151.83 109.173 152.026 109.374 151.678 109.85C150.357 111.655 144.788 118.722 144.687 118.722C144.619 118.722 143.875 117.398 143.032 115.78C142.189 114.161 140.562 111.436 139.414 109.723C138.268 108.01 137.195 106.261 137.032 105.836C136.692 104.954 136.638 103.52 136.934 103.228C137.369 102.799 139.325 103.073 141.895 103.922ZM196.057 109.026C195.568 120.135 193.055 129.712 188.758 136.838C188.298 137.601 188.021 138.325 188.142 138.444C188.493 138.79 189.149 137.778 191.045 133.969C193.742 128.55 195.381 122.777 196.299 115.468C196.793 111.527 196.927 104.511 196.508 104.511C196.369 104.511 196.166 106.542 196.057 109.026ZM56.7886 113.414C55.3305 114.546 56.0941 116.723 57.9486 116.723C59.8031 116.723 60.5667 114.546 59.1086 113.414C58.6737 113.077 58.1518 112.801 57.9486 112.801C57.7454 112.801 57.2235 113.077 56.7886 113.414ZM154.159 113.402C154.835 113.759 155.643 115.184 155.643 116.02C155.643 116.838 154.3 118.322 153.346 118.558C151.658 118.977 149.94 117.487 149.94 115.605C149.94 114.493 151.442 113.097 152.638 113.097C153.157 113.097 153.841 113.234 154.159 113.402ZM151.829 115.153C151.776 116.389 151.86 116.647 152.368 116.806C153.046 117.018 153.842 116.502 153.842 115.85C153.842 115.489 152.298 113.688 151.989 113.689C151.935 113.689 151.863 114.348 151.829 115.153ZM149.514 117.029C149.983 118.405 151.339 119.184 153.744 119.457C154.871 119.585 156.164 119.691 156.618 119.692C157.072 119.694 157.444 119.755 157.444 119.828C157.444 120.065 154.138 130.311 152.881 133.969C148.715 146.098 140.885 160.38 133.786 168.799C127.626 176.105 119.836 179.9 110.322 180.23C103.125 180.48 97.0254 178.827 90.0172 174.727C88.2653 173.702 88.1609 173.577 87.988 172.29C87.611 169.489 88.5937 163.255 90.248 157.95C92.5477 150.578 95.3401 146.743 101.828 142.048C103.785 140.631 108.864 137.942 110.962 137.212C112.19 136.785 112.209 136.789 113.311 137.744C113.922 138.273 114.664 138.843 114.96 139.011C115.46 139.294 115.438 139.385 114.659 140.299C114.197 140.84 112.577 142.2 111.059 143.321C108.083 145.517 107.307 146.604 107.914 147.723C108.375 148.572 109.474 148.949 110.577 148.637C111.694 148.321 114.168 146.667 117.676 143.892C120.88 141.356 122.108 140.618 125.303 139.309C128.543 137.981 131.353 136.084 134.171 133.322C137.127 130.425 138.836 128.329 142.937 122.571C148.246 115.117 148.219 115.15 148.74 115.647C148.987 115.883 149.336 116.505 149.514 117.029ZM48.2431 118.425C49.8251 118.912 52.4534 119.857 54.0838 120.523C56.9741 121.704 62.128 124.424 62.4497 124.938C62.794 125.487 62.0695 125.469 61.2315 124.906C58.376 122.991 50.9161 119.816 46.3183 118.559C45.3693 118.3 44.5926 117.964 44.5926 117.813C44.5926 117.38 45.167 117.476 48.2431 118.425ZM157.284 137.213C157.817 140.481 158.906 144.913 159.813 147.502L160.404 149.193L159.414 149.797C156.684 151.461 154.38 149.954 152.343 145.171C150.888 141.755 150.901 141.311 152.58 136.93C153.392 134.813 154.582 131.349 155.224 129.232L156.393 125.383L156.598 129.824C156.711 132.267 157.019 135.592 157.284 137.213ZM34.2736 126.124C31.609 126.94 30.2689 130.274 31.6852 132.566C34.1394 136.536 40.4627 134.592 39.99 130.013C39.7024 127.23 36.8968 125.322 34.2736 126.124ZM239.381 128.936C239.381 129.313 238.619 129.381 234.353 129.388C225.818 129.401 222.181 129.963 221.407 131.389C220.528 133.009 224.085 134.25 233.078 135.46C237.749 136.089 249.654 136.369 252.587 135.919C256.427 135.33 258.289 134.023 258.289 131.919C258.289 130.326 255.332 129.694 246.608 129.423C242.113 129.283 240.447 129.134 240.356 128.862C240.261 128.582 240.984 128.493 243.333 128.495C249.463 128.499 257.356 129.473 259.447 130.481C260.382 130.932 260.554 131.172 260.635 132.135C260.716 133.107 260.57 133.417 259.571 134.403C258.3 135.656 256.611 136.269 253.037 136.771C246.691 137.663 232.967 136.535 224.304 134.41C219.389 133.204 217.502 132.206 218.09 131.122C219.017 129.413 223.993 128.671 235.404 128.538C238.759 128.499 239.381 128.561 239.381 128.936ZM239.317 132.563L239.231 135.153L237.58 135.058C234.992 134.909 227.797 133.878 225.608 133.343C222.84 132.666 221.828 132.13 222.287 131.584C222.951 130.794 225.11 130.462 230.827 130.269C233.963 130.163 237.176 130.053 237.967 130.024L239.404 129.972L239.317 132.563ZM252.751 130.578C256.377 130.941 257.389 131.303 257.389 132.236C257.389 132.636 257.04 133.28 256.61 133.673C255.164 134.995 249.196 135.783 243.416 135.414L240.281 135.214V132.791C240.281 131.458 240.379 130.271 240.498 130.153C240.75 129.904 248.803 130.183 252.751 130.578ZM175.699 130.786C175.454 131.071 174.905 131.904 174.479 132.637C174.054 133.37 172.95 134.79 172.028 135.792C170.099 137.887 169.907 138.764 171.162 139.738C171.73 140.178 172.204 140.313 172.738 140.184C173.831 139.92 175.866 137.872 177.577 135.315C179.185 132.912 179.451 131.604 178.504 130.758C177.786 130.116 176.262 130.132 175.699 130.786ZM220.598 134.173C224.469 135.673 233.044 137.12 241.482 137.697C249.556 138.249 255.907 137.65 258.784 136.063C259.905 135.445 260.098 135.408 259.969 135.831C259.885 136.11 259.661 137.238 259.472 138.338C259.112 140.429 258.357 141.826 257.085 142.755C255.485 143.924 241.531 144.96 231.277 144.672C221.918 144.408 219.508 143.952 218.744 142.298C218.554 141.887 218.304 139.657 218.188 137.341C217.984 133.272 217.996 133.138 218.549 133.365C218.864 133.495 219.786 133.858 220.598 134.173ZM166.373 140.961C164.428 142.392 166.178 145.547 168.312 144.458C169.578 143.812 170.049 143.215 170.049 142.259C170.049 140.441 168.042 139.732 166.373 140.961ZM151.05 148.067C151.242 154.25 150.898 158.308 149.749 163.404C148.343 169.641 145.918 175.295 142.503 180.303C140.56 183.151 140.498 183.174 137.568 182.088L135.851 181.451L136.862 180.454C137.989 179.342 138.657 177.611 139.142 174.542C139.607 171.592 140.152 170.646 141.955 169.651C144.177 168.424 144.816 167.918 145.461 166.875C146.319 165.486 146.188 164.09 144.988 161.86C144.41 160.786 143.938 159.711 143.938 159.471C143.938 159.231 144.561 158.325 145.323 157.457C147.883 154.539 149.122 150.937 148.515 148.18C148.288 147.151 148.394 146.679 149.322 144.574C149.91 143.243 150.501 142.259 150.636 142.389C150.77 142.518 150.957 145.073 151.05 148.067ZM223.446 145.708C223.843 146.015 224.89 146.473 225.772 146.726C227.275 147.157 227.375 147.245 227.376 148.127C227.378 149.455 228.226 162.614 228.449 164.784L228.635 166.586L227.03 166.36C226.147 166.237 225.2 166.126 224.926 166.114C224.118 166.079 222.176 157.523 221.227 149.818C220.58 144.565 220.567 144.684 221.748 144.939C222.284 145.054 223.048 145.4 223.446 145.708ZM233.346 147.734L234.365 147.736L234.211 157.221C234.127 162.437 233.98 166.781 233.886 166.874C233.791 166.968 232.772 166.951 231.621 166.837L229.529 166.63L229.346 164.954C229.109 162.779 228.278 150.005 228.277 148.507L228.276 147.355L230.302 147.543C231.416 147.647 232.786 147.733 233.346 147.734ZM238.848 157.21L238.765 166.98H236.775H234.785L234.981 162.761C235.088 160.441 235.177 156.12 235.178 153.159L235.179 147.776L236.004 147.652C236.458 147.584 237.302 147.509 237.88 147.484L238.93 147.44L238.848 157.21ZM247.098 147.678C247.379 147.854 247.255 149.827 246.553 156.333C246.052 160.968 245.581 165.181 245.505 165.695L245.367 166.63L242.51 166.842C240.939 166.958 239.627 167.003 239.593 166.942C239.559 166.882 239.575 162.469 239.628 157.136L239.725 147.44L243.23 147.445C245.157 147.447 246.898 147.552 247.098 147.678ZM251.349 148.337C252.772 148.668 254.103 149.04 254.306 149.165C254.99 149.586 253.028 160.267 251.549 164.166C250.915 165.84 250.807 165.956 249.705 166.149C249.062 166.262 248.077 166.362 247.517 166.371L246.498 166.388L246.688 164.538C247.574 155.867 248.511 147.736 248.623 147.736C248.699 147.736 249.925 148.006 251.349 148.337ZM221.205 155.804C221.284 156.17 221.501 157.269 221.686 158.246C221.872 159.223 222.35 161.313 222.749 162.889C223.147 164.466 223.474 166.349 223.474 167.075C223.474 169.334 223.959 169.644 228.292 170.15C231.035 170.47 233.902 170.545 239.081 170.432C249.192 170.212 251.386 169.768 251.386 167.943C251.386 167.546 251.85 165.867 252.418 164.214C252.986 162.56 253.662 160.141 253.921 158.839C254.18 157.536 254.464 156.159 254.552 155.779L254.712 155.087L261.078 155.19C266.975 155.285 267.536 155.341 268.702 155.953C269.394 156.316 270.291 157.047 270.696 157.578C271.656 158.835 281.1 178.13 281.1 178.834C281.1 180.271 283.465 180.193 232.962 180.418C199.196 180.568 185.498 180.536 185.064 180.307C184.682 180.106 184.456 179.687 184.456 179.183C184.456 178.172 197.174 157.352 198.279 156.551C200.065 155.259 200.936 155.164 211.237 155.151L221.061 155.138L221.205 155.804ZM62.45 166.685C62.3465 166.851 63.7899 168.486 65.6576 170.321C77.4262 181.876 91.0341 188.575 105.153 189.765C109.263 190.111 114.825 189.88 114.824 189.363C114.823 189.137 112.957 189.033 108.746 189.024C102.29 189.011 100.237 188.746 94.9199 187.246C84.7576 184.377 74.5056 178.142 65.853 169.569C64.0852 167.817 62.5539 166.519 62.45 166.685ZM230.076 167.565C235.071 168.079 242.975 167.887 248.935 167.107C250.457 166.908 250.486 166.918 250.486 167.672C250.486 168.102 250.255 168.56 249.96 168.713C248.823 169.304 240.872 169.727 234.351 169.544C225.499 169.295 224.392 169.063 224.378 167.46C224.375 166.968 224.537 166.925 225.8 167.088C226.584 167.189 228.508 167.403 230.076 167.565ZM116.76 167.852C115.309 168.49 112.785 169.053 111.38 169.053C110.642 169.053 110.197 169.265 109.744 169.833C108.96 170.816 108.965 171.144 109.774 172.16C110.416 172.965 110.468 172.975 113.001 172.827C115.811 172.662 119.21 171.542 120.256 170.435C120.995 169.652 120.983 168.615 120.227 167.869C119.496 167.148 118.376 167.143 116.76 167.852ZM156.009 171.636C159.428 173.852 162.846 177.246 162.846 178.423C162.846 179.19 162.297 178.813 161.529 177.52C160.217 175.312 157.145 172.922 151.812 169.962C150.282 169.113 149.112 168.289 149.211 168.131C149.41 167.813 152.842 169.582 156.009 171.636ZM281.354 183.245C281.258 185.677 281.181 185.961 280.4 186.765C279.24 187.958 276.068 189.336 272.996 189.98C270.945 190.411 269.091 190.514 263.542 190.505C253.433 190.489 247.094 189.647 236.529 186.919C231.166 185.534 231.091 185.524 226.175 185.509C220.342 185.492 219.309 185.709 212.762 188.33C205.234 191.343 201.078 192.122 191.284 192.358L184.456 192.522V186.783V181.043L228.051 181.117C263.947 181.177 278.863 181.044 281.204 180.643C281.345 180.619 281.412 181.79 281.354 183.245ZM89.0127 190.895C89.0127 191.233 92.6488 192.244 95.7297 192.761C97.8087 193.111 103.403 193.003 104.395 192.595C105.444 192.163 104.94 191.794 103.644 192.046C101.305 192.501 96.2567 192.267 93.2146 191.563C91.6464 191.2 90.0595 190.834 89.688 190.75C89.3164 190.666 89.0127 190.731 89.0127 190.895Z" fill="#3F3F3F"/>
</svg>
