<svg width="182" height="196" viewBox="0 0 182 196" fill="none" xmlns="http://www.w3.org/2000/svg">
<path d="M155.365 56.7308C155.457 55.9123 155.532 55.0968 154.923 54.4119C154.913 54.2585 154.903 54.1051 154.893 53.9517C154.952 53.1634 154.941 52.4069 154.045 52.0467C153.389 50.5015 152.401 49.7587 150.726 50.6827C150.211 50.6691 149.662 50.5501 149.346 51.1394C149.222 51.0769 149.079 51.0659 148.947 51.1087C148.06 50.1098 147.636 48.2523 145.633 49.3214C145.082 49.2222 144.527 49.1076 144.182 49.7334C144.03 49.8643 143.879 49.9952 143.727 50.1262C143.443 50.9199 141.818 50.6611 142.246 52.0133C142.188 51.9922 142.124 51.9918 142.066 52.0121C142.007 52.0323 141.957 52.0721 141.924 52.1247C140.652 53.485 139.94 55.2751 139.93 57.1375C139.267 58.4945 138.95 59.994 139.006 61.503C139.019 64.2976 139.041 67.2021 142.332 68.4821C142.788 69.1933 143.457 69.3838 144.251 69.2694C146.806 69.9715 149.339 70.2818 151.777 68.8596C153.035 68.1186 154.408 67.4796 154.545 65.7438C155.28 65.4469 155.413 64.8562 155.322 64.1557C155.372 64.1032 155.407 64.0381 155.424 63.9673C155.44 63.8964 155.437 63.8225 155.415 63.7532C156.116 61.4622 156.099 59.0115 155.365 56.7308ZM146.048 52.4078C145.158 52.6188 144.513 52.7714 143.872 52.9234C144.478 51.6579 144.487 51.6606 146.048 52.4078ZM146.071 63.3117C146.015 62.7879 146.024 62.2591 146.099 61.7376C146.217 61.2888 146.243 60.5169 146.881 60.5629C147.539 60.6104 147.41 61.3552 147.516 61.8472C146.963 62.2646 147.431 63.6893 146.071 63.3117ZM152.633 55.7456C152.057 54.5618 151.251 53.6459 149.885 53.3819L149.886 53.3816C150.873 51.5546 151.683 52.5423 152.491 53.5446C152.277 54.2951 153.86 54.9299 152.633 55.7456Z" fill="#FAE465"/>
<path fill-rule="evenodd" clip-rule="evenodd" d="M14.6636 0.163141C13.5887 0.517249 13.0537 0.940367 12.6772 1.73358C12.3127 2.50201 12.2655 6.49899 12.2655 36.7083V70.8154L10.5118 73.4378C8.39272 76.6063 4.88281 83.6672 3.74535 87.0495C0.5232 96.6301 0.684934 105.277 4.29157 116.258C6.54358 123.114 9.04605 127.605 11.2866 128.811C11.8251 129.1 12.2655 129.43 12.2655 129.543C12.2655 129.657 11.1206 129.749 9.72096 129.749C6.12899 129.749 5.01817 130.426 5.01817 132.613C5.01817 133.266 5.22866 133.758 5.71626 134.246L6.41409 134.945L12.3375 135.078L18.2606 135.211L21.0583 136.596C22.597 137.358 24.4254 138.122 25.1216 138.293L26.3872 138.605V146.301V153.996H25.2415C24.6114 153.996 23.9519 154.14 23.7761 154.316C23.5485 154.543 23.455 156.213 23.4521 160.111C23.4478 165.282 23.4145 165.645 22.8526 166.635C22.4209 167.395 19.7309 169.687 13.0649 174.975C8.00904 178.986 3.37206 182.757 2.76056 183.355C2.14906 183.952 1.31268 185.175 0.902089 186.072C0.234638 187.529 0.144847 188.062 0.0553204 191.106C-0.0861632 195.911 -0.122134 195.828 2.09231 195.828C3.14238 195.828 4.03311 195.694 4.21883 195.508C4.43305 195.294 4.53856 194.103 4.53856 191.901C4.53856 189.168 4.62622 188.441 5.0576 187.596C5.45248 186.821 7.82199 184.801 14.9668 179.146C20.1311 175.059 24.8136 171.241 25.3718 170.662L26.3872 169.609V182.399C26.3872 191.991 26.4672 195.269 26.707 195.508C26.8858 195.687 27.7432 195.828 28.6521 195.828C29.5609 195.828 30.4183 195.687 30.5971 195.508C30.8369 195.269 30.9169 192.02 30.9169 182.53V169.872L32.0493 170.957C32.6722 171.555 36.7187 174.835 41.0419 178.246C50.8634 185.996 51.6097 186.628 52.1631 187.661C52.494 188.28 52.6502 189.448 52.7557 192.098L52.8988 195.695H54.8971H56.8955V191.565C56.8955 187.671 56.8558 187.35 56.2011 185.954C55.819 185.14 55.0365 183.98 54.462 183.376L53.4175 182.278L54.2904 181.581C55.6533 180.494 55.4972 179.59 53.5127 177.079C52.5617 175.876 50.364 171.739 50.3699 171.162C50.3715 171.026 50.7248 171.53 51.1554 172.28C51.586 173.031 52.1397 173.723 52.3856 173.817C53.1098 174.095 53.6355 173.453 53.4783 172.483C53.376 171.854 53.4751 171.504 53.8518 171.163C54.6048 170.482 54.5126 169.134 53.6424 168.1C52.834 167.139 51.1341 166.267 50.0523 166.258C49.1845 166.251 48.9527 165.678 48.9489 163.531C48.9471 162.306 49.0984 161.768 49.7235 160.775C50.1512 160.096 50.8157 159.353 51.2004 159.125C51.8543 158.736 51.9547 158.748 52.7322 159.301C53.2374 159.661 53.7631 159.831 54.0695 159.734C54.7655 159.513 58.3777 155.705 60.9191 152.513C64.6696 147.803 69.2765 140.655 71.8309 135.583L72.7558 133.746H105.521H138.285L138.405 134.345C139.017 137.413 139.882 140.557 141.847 146.847C143.114 150.902 144.994 157.077 146.026 160.569C147.058 164.061 147.965 167.125 148.043 167.377C148.171 167.791 147.857 167.842 144.772 167.91L141.359 167.984L141.273 169.04C141.214 169.761 141.317 170.19 141.599 170.396C141.897 170.614 142.089 171.568 142.297 173.87C143.079 182.499 144.416 188.435 146.472 192.401C147.833 195.026 148.225 195.305 150.999 195.62C152.292 195.766 155.248 195.824 157.57 195.748C162.629 195.583 162.455 195.686 164.389 191.714C166.494 187.392 168.401 180.809 169.641 173.58C169.942 171.824 170.263 170.753 170.583 170.439C171.135 169.897 171.226 168.648 170.748 168.171C170.541 167.964 169.464 167.851 167.684 167.851C166.175 167.851 164.94 167.763 164.94 167.656C164.94 167.456 167.112 156.854 168.284 151.331C168.642 149.646 169.71 145.51 170.658 142.139C171.606 138.769 172.508 135.511 172.662 134.9L172.942 133.789L176.291 133.701L179.64 133.613L180.416 132.743L181.193 131.872V66.8994V1.92649L180.648 1.23346C180.348 0.852439 179.659 0.417332 179.116 0.266522C178.116 -0.0111158 15.5029 -0.113432 14.6636 0.163141ZM179.842 1.7573C180.33 2.37785 180.394 2.82575 180.394 5.62078V8.78218H96.8626H13.3313V5.33355C13.3313 2.0717 13.3633 1.86227 13.9236 1.47006C14.4563 1.09677 22.7673 1.05521 96.9026 1.05521H179.289L179.842 1.7573ZM168.045 3.14122C167.756 3.46096 167.604 4.09697 167.604 4.99117C167.604 6.6085 168.184 7.1835 169.813 7.1835C171.584 7.1835 171.868 6.87149 171.868 4.91869C171.868 3.49773 171.78 3.15854 171.352 2.92966C170.488 2.46738 168.543 2.59181 168.045 3.14122ZM174.381 2.94858C174.281 3.11085 174.572 3.6163 175.028 4.07219L175.857 4.90111L175.008 5.77639C174.403 6.40067 174.242 6.73373 174.446 6.9381C174.651 7.14246 174.998 6.99219 175.657 6.41346L176.581 5.6024L177.338 6.39295C177.755 6.82779 178.193 7.1835 178.312 7.1835C178.778 7.1835 178.494 6.17792 177.86 5.58215L177.191 4.95387L177.86 4.25551C178.482 3.60591 178.769 2.65389 178.342 2.65389C178.239 2.65389 177.782 3.01439 177.328 3.45536L176.501 4.25657L175.733 3.45536C174.9 2.58595 174.661 2.49615 174.381 2.94858ZM171.068 4.93335V6.14702L169.803 6.06575C168.634 5.99061 168.53 5.92666 168.45 5.22937C168.306 3.97254 168.543 3.71968 169.861 3.71968H171.068V4.93335ZM161.069 6.39614C160.712 6.97327 161.408 7.20907 163.234 7.12994C164.656 7.06839 165.073 6.95968 165.073 6.6506C165.073 6.33966 164.649 6.23361 163.164 6.17313C161.954 6.12383 161.187 6.20537 161.069 6.39614ZM180.394 17.7087V25.8356L96.796 25.7687L13.1981 25.7016L13.1272 17.9778C13.0883 13.7298 13.1147 10.1027 13.1856 9.91778C13.289 9.64813 29.8385 9.58152 96.8543 9.58152H180.394V17.7087ZM44.106 13.5782C44.2581 14.0576 44.154 14.1111 43.0674 14.1111C42.0975 14.1111 41.6749 14.2734 40.9212 14.9352C38.4656 17.0913 39.4946 20.8408 42.7074 21.4435C44.6975 21.8168 46.9037 20.0649 46.9037 18.111C46.9037 17.017 46.3149 17.1705 46.0785 18.3261C45.6 20.666 42.8585 21.4861 41.2518 19.7699C40.3422 18.7982 40.141 18.0236 40.509 16.9088C40.9094 15.6952 41.9376 14.9105 43.1271 14.9105C43.9872 14.9105 44.0293 14.9435 43.5832 15.2696C42.8071 15.8374 43.2864 16.2664 44.3117 15.9216C45.7886 15.4252 45.884 15.2462 45.2917 14.085C44.7348 12.9934 43.7927 12.5905 44.106 13.5782ZM53.7133 13.9041C53.3906 14.3645 53.2984 15.2486 53.2984 17.8814C53.2984 21.221 53.3078 21.274 54.0005 21.8186L54.7026 22.371L108.023 22.367C150.444 22.3641 161.479 22.2943 162.009 22.0265C162.668 21.6937 162.676 21.6468 162.749 17.8361C162.815 14.4452 162.769 13.9417 162.365 13.647C162.001 13.3803 150.886 13.3118 108.018 13.3118H54.1279L53.7133 13.9041ZM168.999 14.2238C168.104 15.0442 168.004 15.2699 168.004 16.4692C168.004 18.1009 168.693 19.1411 170.136 19.6905C171.024 20.0284 171.282 20.0252 172.288 19.6634L173.431 19.2525L174.704 20.5453C175.404 21.2564 176.072 21.8381 176.187 21.8381C176.704 21.8381 176.299 21.091 175.151 19.925C173.999 18.7553 173.928 18.608 174.218 17.9717C174.917 16.4383 174.303 14.4602 172.883 13.6723C172.544 13.4844 171.756 13.3264 171.131 13.3211C170.201 13.3134 169.813 13.4778 168.999 14.2238ZM19.7261 15.6421C18.627 16.616 17.7277 17.5608 17.7277 17.7417C17.7277 18.1438 21.5923 21.557 22.0575 21.5655C22.7859 21.5788 22.3082 20.8411 20.7684 19.5733C19.8782 18.8406 19.0429 18.1126 18.9121 17.9557C18.7573 17.77 19.3235 17.1294 20.5323 16.1225C22.2664 14.6781 22.8398 13.8266 22.0575 13.858C21.8744 13.8655 20.8252 14.6683 19.7261 15.6421ZM28.6744 14.0442C28.5647 14.154 29.3541 15.044 30.4287 16.0218L32.3823 17.7998L31.1878 18.8198C28.3808 21.2165 28.3483 21.2527 28.8434 21.4446C29.1682 21.5706 29.8772 21.1309 31.284 19.9317C32.3746 19.0018 33.333 18.0934 33.4137 17.9131C33.4979 17.7252 32.6373 16.7857 31.3999 15.7149C29.1903 13.8023 29.0205 13.6981 28.6744 14.0442ZM161.876 17.7082V21.172H108.053H54.231L54.1535 18.2411C54.1108 16.6291 54.1431 15.04 54.2254 14.7101L54.3746 14.1098L108.125 14.1772L161.876 14.2443V17.7082ZM172.954 14.89C174.195 16.1311 173.87 17.9957 172.281 18.7494C170.305 19.6873 168.263 17.8835 168.949 15.8055C169.552 13.979 171.58 13.5156 172.954 14.89ZM180.394 79.0947C180.394 130.33 180.382 131.57 179.885 132.184C179.412 132.769 179.158 132.82 176.288 132.903C174.59 132.952 173.203 132.892 173.208 132.77C173.213 132.647 173.46 131.228 173.757 129.616C174.559 125.271 174.751 115.352 174.143 109.632C173.517 103.745 172.851 99.6138 172.534 99.6559C172.387 99.6754 171.279 103.187 170.072 107.46C165.992 121.904 165.549 123.482 164.663 126.748C164.177 128.541 163.738 129.968 163.688 129.919C163.639 129.869 163.72 126.903 163.868 123.328C164.016 119.752 164.218 111.041 164.316 103.97L164.494 91.1144H163.921C163.218 91.1144 162.839 91.9484 161.606 96.2059C160.073 101.501 159.044 107.549 158.233 116.027C157.924 119.253 157.887 119.399 157.688 118.159C156.782 112.521 154.032 100.031 153.244 97.9754C152.928 97.1513 152.257 97.0016 152.049 97.709C151.64 99.1017 151.289 111.783 151.402 121.09C151.477 127.323 151.436 130.895 151.3 130.016C148.925 114.766 146.573 105.568 143.313 98.7873C141.942 95.9355 141.602 95.5137 140.979 95.8985C140.612 96.1255 140.77 97.993 142.438 113.078C143.284 120.725 143.427 122.836 142.949 120.643C142.843 120.156 141.803 116.88 140.637 113.363C137.641 104.323 137.275 104.15 137.043 111.662C136.861 117.541 137.417 127.592 138.173 132.081L138.319 132.947H105.772C79.8374 132.947 73.2535 132.879 73.3651 132.614C73.4421 132.431 73.9852 131.187 74.5719 129.85C76.9441 124.446 78.0852 120.001 78.0663 116.238C78.0471 112.411 77.0277 110.53 74.2465 109.192C72.8799 108.534 72.767 108.433 73.5484 108.565C74.0613 108.651 75.7735 108.939 77.3536 109.205C79.4665 109.561 80.3868 109.839 80.8344 110.26C81.9479 111.306 83.7363 110.766 84.0611 109.287C84.1586 108.844 87.3827 104.823 92.0236 99.3567C96.3132 94.3046 99.9022 89.9636 99.9995 89.7102C100.366 88.7545 99.3454 87.7273 98.3443 88.0452C98.0715 88.1318 94.3492 92.4418 90.073 97.6229C83.8797 105.127 82.143 107.074 81.536 107.196C81.1169 107.279 79.8571 107.173 78.7364 106.958C77.6158 106.744 76.6424 106.568 76.5734 106.568C76.5044 106.568 76.5129 106.463 76.5923 106.335C76.8316 105.947 75.9385 103.295 75.2705 102.41C74.4338 101.302 70.7393 99.7284 67.7495 99.2064C63.9907 98.5504 60.0228 97.4369 51.4333 94.628C46.9636 93.1666 42.5872 91.8189 41.708 91.6337C40.8287 91.4483 40.0048 91.205 39.8772 91.0934C39.5322 90.7912 41.275 88.103 43.5774 85.3858C46.7494 81.6422 50.2918 76.8608 51.1445 75.1721C51.5713 74.3261 52.1218 72.9424 52.3675 72.097C52.7264 70.8625 52.9014 70.5934 53.2563 70.7304C55.8947 71.7493 59.86 71.8593 62.0699 70.975C62.9857 70.6086 63.3534 70.5918 64.49 70.8647C65.6432 71.1412 65.923 71.1255 66.4921 70.7528C66.8561 70.5143 67.1537 70.1892 67.1537 70.0304C67.1537 69.8716 67.7532 69.1789 68.4859 68.4909C69.8848 67.1776 70.1654 66.3756 69.3045 66.1507C68.8299 66.0265 68.8582 65.9215 69.673 64.7766C71.2426 62.5707 72.4536 59.7112 72.8682 57.2306C73.0896 55.9053 72.3825 52.677 71.5653 51.2824C69.4305 47.6395 65.0698 45.9425 59.5599 46.6102C52.903 47.417 48.9913 49.9947 48.3513 53.9962L48.1864 55.0286L46.5547 54.2202C45.0735 53.4864 44.689 53.4132 42.3829 53.4249C40.6177 53.4337 39.1522 53.6223 37.578 54.0431C29.8956 56.0968 22.531 60.3928 16.3955 66.3996C14.6369 68.1211 13.168 69.5303 13.1315 69.5311C13.095 69.5316 13.0649 59.8801 13.0649 48.0832V26.6342H96.7294H180.394V79.0947ZM45.1899 54.2128C47.957 55.0574 50.2988 57.5932 51.6166 61.1713C52.133 62.5731 52.3248 63.7082 52.4325 65.9977C52.6534 70.7008 51.7477 73.6898 48.8986 77.6588C46.4521 81.0669 42.944 85.3914 42.1484 85.9797C40.9864 86.8387 38.8455 87.8536 36.095 88.8493C32.9461 89.9892 32.0048 90.5335 31.8047 91.331C31.5198 92.4658 32.0258 92.5951 34.7129 92.0733C36.0689 91.8104 37.658 91.6366 38.2442 91.6878L39.3099 91.7805L39.266 93.412C39.2212 95.0781 38.4645 97.0724 37.7851 97.3149C37.598 97.3815 37.5295 97.5273 37.6332 97.6389C38.3574 98.4177 39.7219 95.988 39.9156 93.5745C40.0224 92.246 40.1378 91.9058 40.4607 91.9681C41.4104 92.1512 41.4255 94.6038 40.4884 96.4692C39.355 98.7252 34.4774 102.053 32.3434 102.026L31.3165 102.013L32.9152 101.352C34.6708 100.627 35.9362 99.775 35.6633 99.5022C35.5669 99.406 34.9692 99.6287 34.3351 99.997C33.7007 100.365 32.3623 100.929 31.361 101.25C29.5982 101.814 29.4687 101.82 27.2926 101.42C24.7979 100.962 23.1214 100.159 22.281 99.0194C20.3437 96.393 24.1187 84.3669 29.2875 76.6977C32.3578 72.1426 34.8677 69.5045 39.3784 66.0918C41.3323 64.6136 41.6616 64.207 41.4186 63.5731C41.0824 62.6973 38.4496 62.2763 37.2274 62.903C36.0739 63.4945 34.901 64.8595 34.6301 65.9258C34.423 66.7403 33.9067 67.4206 32.4998 68.7328C30.8814 70.242 30.6134 70.6273 30.4146 71.7298C30.251 72.6371 29.8926 73.3149 29.1466 74.1278C26.391 77.1304 25.0481 79.7925 23.8182 84.6914C23.3175 86.6853 22.6754 89.156 22.3911 90.1818C21.6114 92.9947 20.9944 96.9515 21.1806 97.944C21.3895 99.058 22.442 100.32 23.6897 100.954C25.3961 101.82 28.9827 102.421 35.7984 102.982C37.7744 103.145 37.9087 103.197 38.3952 103.995C39.2988 105.477 39.1538 105.649 36.5789 106.149C26.7102 108.065 14.2684 112.88 7.55821 117.38C6.58514 118.032 5.74291 118.52 5.68642 118.463C5.62993 118.406 5.22919 117.318 4.79622 116.045C2.89272 110.448 2.10244 105.853 2.11283 100.442C2.12668 93.1461 3.61852 87.5123 7.61976 79.6436C12.8229 69.4107 19.5398 62.7098 29.6153 57.7008C36.1792 54.4374 41.801 53.1784 45.1899 54.2128ZM58.0625 57.3702C58.2272 57.5687 58.5285 58.1983 58.7321 58.769C58.9357 59.3398 59.2474 59.7727 59.4251 59.7312C60.1413 59.563 63.6973 62.1372 63.1858 62.4535C62.773 62.7087 62.8178 63.8227 63.2766 64.7097C63.664 65.459 65.3936 67.1341 65.7799 67.1341C66.2971 67.1341 66.9621 66.3817 66.8057 65.9738C66.571 65.3617 67.0751 65.4233 67.409 66.0473C67.6405 66.48 67.4873 66.7321 66.4191 67.6756C64.8431 69.068 62.6878 70.3256 61.8722 70.3291C61.3694 70.331 61.2697 70.2092 61.3393 69.6776C61.3864 69.3179 61.3052 69.0483 61.1586 69.0781C61.0121 69.108 60.8922 69.5122 60.8922 69.9763C60.8922 70.7962 60.8517 70.8252 59.4712 70.9974C57.9578 71.1863 55.6011 70.963 54.8305 70.558C54.5742 70.4232 54.3642 70.0944 54.3642 69.8271C54.3642 69.1653 52.254 61.0109 51.9225 60.3912C51.7762 60.1181 51.7115 59.8396 51.7784 59.7725C51.9113 59.6398 53.3861 60.2265 54.9637 61.0397C55.8137 61.4777 55.9629 61.4937 55.9629 61.1471C55.9629 60.9227 55.8577 60.7394 55.7287 60.7394C55.2611 60.7394 54.8617 59.2684 55.1348 58.5505C55.6275 57.2545 57.3799 56.5479 58.0625 57.3702ZM56.0905 58.6142C55.7399 59.0014 55.6839 59.2348 55.8912 59.4421C56.0985 59.6494 56.2651 59.5718 56.4817 59.1668C56.7108 58.7392 56.9418 58.6427 57.439 58.7674C58.1587 58.9481 58.3567 58.4991 57.673 58.2367C56.9642 57.9646 56.5995 58.0518 56.0905 58.6142ZM66.8585 58.3712C67.4343 58.5721 68.0045 59.1303 68.6269 60.1031C69.3412 61.2201 69.6948 61.5387 70.22 61.5387H70.8949L70.3809 62.5379C70.0982 63.0876 69.4904 64.0538 69.0303 64.685L68.1936 65.8331L66.0085 63.7729C63.9118 61.7967 61.1309 59.5844 60.4275 59.3331C59.848 59.1263 60.3668 58.8671 62.1232 58.4861C64.2462 58.0256 65.7612 57.9889 66.8585 58.3712ZM66.8913 62.5379C66.8971 62.8148 67.203 63.2048 67.7532 63.6362C68.131 63.9325 68.2968 63.9378 68.6258 63.6647C68.9887 63.3637 68.9842 63.2744 68.5845 62.8329C68.151 62.3538 66.883 62.1329 66.8913 62.5379ZM65.1023 63.9544L66.186 65.0377L65.5374 65.3764C64.7837 65.7699 64.3829 65.5523 63.8055 64.4356C63.3483 63.5512 63.3115 62.871 63.7213 62.871C63.8849 62.871 64.5065 63.3586 65.1023 63.9544ZM68.5771 67.3143C68.7724 67.5093 67.7343 68.7328 67.3738 68.7328C67.0045 68.7328 67.1284 67.9969 67.5723 67.5527C68.0271 67.0982 68.297 67.0342 68.5771 67.3143ZM66.6208 68.9993C66.6208 69.1458 66.4937 69.2657 66.3386 69.2657C66.1836 69.2657 66.1305 69.1458 66.2211 68.9993C66.3117 68.8527 66.4386 68.7328 66.5033 68.7328C66.568 68.7328 66.6208 68.8527 66.6208 68.9993ZM66.3536 69.8514C67.1191 70.0901 65.6976 70.59 64.8774 70.3707L64.1191 70.1679L64.7522 69.7243C65.118 69.4682 65.5057 69.3752 65.6701 69.5039C65.8265 69.6268 66.1343 69.7829 66.3536 69.8514ZM99.3448 89.1789C99.4085 89.6244 97.6134 91.905 92.0175 98.487C87.9411 103.282 84.4691 107.387 84.3017 107.609C84.0425 107.954 83.9324 107.96 83.557 107.648C83.3145 107.447 83.1736 107.133 83.2434 106.951C83.3132 106.769 86.7501 102.526 90.8806 97.5214C98.3552 88.4662 99.1335 87.6991 99.3448 89.1789ZM164.01 93.4882C163.856 94.8191 163.733 95.1111 163.331 95.1111C162.516 95.1111 162.461 94.6219 163.087 92.9476C163.834 90.9497 164.275 91.2079 164.01 93.4882ZM49.464 94.583C58.2227 97.4566 63.2564 98.9021 67.0604 99.6362C70.2703 100.256 71.2378 100.724 71.8123 101.934C72.3513 103.07 72.3614 105.503 71.8272 105.503C71.5981 105.503 71.3052 105.037 71.1144 104.37C70.9365 103.747 70.6772 103.088 70.5381 102.905C70.1515 102.394 67.7378 102.52 66.0879 103.137C63.8889 103.958 63.1858 103.992 61.4251 103.363C60.083 102.883 58.9066 102.756 54.0978 102.571C49.1131 102.379 40.0504 101.548 37.7392 101.073L36.9679 100.914L37.8725 100.222C40.5228 98.1963 41.6525 96.3069 41.6856 93.8455C41.6978 92.9297 41.8052 92.1802 41.9241 92.1802C42.0432 92.1802 45.4361 93.2614 49.464 94.583ZM163.874 96.3101C163.874 97.2206 163.849 97.2427 162.808 97.2427C162.222 97.2427 161.743 97.2006 161.743 97.1492C161.743 97.0977 161.874 96.6781 162.035 96.2166C162.273 95.5356 162.473 95.3776 163.101 95.3776C163.807 95.3776 163.874 95.4586 163.874 96.3101ZM142.598 98.1345C143.198 99.2938 143.204 99.269 142.261 99.5056C141.449 99.7095 141.23 99.2259 141.238 97.2427C141.243 96.1084 141.265 96.0724 141.655 96.5766C141.882 96.8697 142.306 97.5707 142.598 98.1345ZM154.152 103.406C156.763 113.948 158.655 126.256 159.206 136.277C159.433 140.405 160.142 162.419 160.143 165.387L160.144 167.851L159.278 167.851L158.412 167.851L158.394 160.057C158.376 152.314 158.204 148.566 157.199 134.012C156.31 121.128 155.014 112.685 153.07 107.101L152.095 104.304L152.286 100.992C152.407 98.8797 152.56 97.8313 152.708 98.0959C152.836 98.3242 153.486 100.713 154.152 103.406ZM163.874 100.604V103.431L162.64 103.246C160.357 102.904 160.432 103.044 161.023 100.24L161.543 97.7756H162.709H163.874V100.604ZM143.74 100.673L144.136 101.438L143.026 101.587C141.703 101.765 141.493 101.666 141.493 100.869C141.493 100.079 141.689 99.9072 142.596 99.9072C143.15 99.9072 143.446 100.105 143.74 100.673ZM173.029 107.295C172.474 107.7 171.745 107.73 171.079 107.373C170.615 107.125 170.629 106.983 171.376 104.376C171.807 102.871 172.233 101.459 172.323 101.239C172.412 101.02 172.712 102.216 172.99 103.897C173.468 106.801 173.47 106.972 173.029 107.295ZM74.3113 102.203C75.4802 103.022 76.469 106.302 75.5468 106.302C75.327 106.302 75.1463 106.152 75.1455 105.969C75.1423 105.205 74.5633 103.637 73.9524 102.736C73.2423 101.69 73.3499 101.53 74.3113 102.203ZM73.8343 103.676C74.1168 104.229 74.3411 105.017 74.3329 105.425L74.3182 106.169L73.7344 105.418C73.0185 104.496 72.3316 101.848 72.9396 102.353C73.1493 102.527 73.5519 103.122 73.8343 103.676ZM145.108 104.29C145.528 105.528 145.802 106.611 145.715 106.698C145.477 106.936 142.564 107.729 142.428 107.593C142.363 107.527 142.182 106.35 142.026 104.977C141.708 102.17 141.764 102.05 143.385 102.043L144.344 102.039L145.108 104.29ZM50.9518 103.371C55.9536 103.371 55.98 103.374 55.6869 103.922C55.4561 104.353 55.4886 104.62 55.8361 105.15L56.2797 105.827L54.7226 105.671C51.5711 105.356 44.3061 105.219 42.0693 105.433L39.7664 105.653L39.2106 104.338L38.655 103.022L42.2886 103.197C44.2872 103.293 48.1856 103.371 50.9518 103.371ZM70.3015 103.704C70.3785 104.109 70.167 104.17 68.7052 104.167C67.7785 104.165 66.7207 104.081 66.3544 103.98C65.7263 103.808 65.749 103.778 66.754 103.465C68.296 102.985 70.1893 103.112 70.3015 103.704ZM162.742 103.792L163.874 103.972V105.5V107.029L162.638 107.198C161.958 107.291 161.015 107.368 160.543 107.368H159.684L159.92 105.969C160.363 103.346 160.381 103.306 161.022 103.466C161.345 103.546 162.119 103.693 162.742 103.792ZM68.3021 105.648C74.4847 106.754 79.7409 107.718 79.9823 107.789C80.5483 107.957 80.3162 108.967 79.7122 108.965C78.9928 108.963 56.7316 105.249 56.4708 105.087C55.9722 104.779 56.2493 103.637 56.8225 103.637C56.9536 103.637 62.1192 104.542 68.3021 105.648ZM70.714 105.103C70.8962 105.578 70.7454 105.578 68.4859 105.112L66.754 104.755L68.6573 104.729C70.1206 104.709 70.5959 104.796 70.714 105.103ZM73.112 105.636C73.1962 105.856 73.149 106.035 73.0073 106.035C72.8653 106.035 72.7491 105.856 72.7491 105.636C72.7491 105.416 72.7963 105.236 72.8538 105.236C72.9114 105.236 73.0275 105.416 73.112 105.636ZM56.0961 106.327C64.0187 106.893 70.8864 108.231 74.0813 109.831C76.7365 111.161 77.5409 112.711 77.5435 116.505C77.5467 120.658 75.8567 126.201 72.4901 133.08C69.7963 138.584 68.309 141.011 65.271 144.863C61.8756 149.167 61.4261 149.629 59.2935 151.01C58.2677 151.674 56.3088 153.292 54.9403 154.606L52.4519 156.996L51.1106 156.837C49.9708 156.702 49.2844 156.331 46.5381 154.365C44.7607 153.094 43.2105 151.968 43.0932 151.865C42.9757 151.762 43.766 150.49 44.8491 149.04C47.905 144.947 51.9593 139.022 54.3181 135.199C56.843 131.108 58.6396 129.191 60.9183 128.158C62.8018 127.304 64.7557 125.653 64.7557 124.916C64.7557 124.06 63.5705 123.822 60.0928 123.977C56.1801 124.152 54.4005 124.535 48.6164 126.446C40.1109 129.255 37.3364 129.616 24.2557 129.616C15.3686 129.616 14.404 129.572 13.0665 129.107C11.2557 128.477 9.31464 126.577 8.04395 124.192C7.1716 122.555 7.16307 122.508 7.64428 121.963C9.98901 119.309 20.2081 113.297 28.5188 109.682C34.1984 107.212 37.7126 106.299 42.907 105.944C44.729 105.819 51.9089 106.027 56.0961 106.327ZM153.612 110.5C155.502 117.977 156.602 128.577 157.737 150.266C158.04 156.052 158.103 165.734 157.846 167.019C157.694 167.779 157.59 167.851 156.647 167.851C156.079 167.851 155.614 167.761 155.614 167.651C155.614 167.08 154.456 160.568 153.754 157.193C153.312 155.068 152.833 151.711 152.688 149.733C152.296 144.375 151.881 126.012 151.906 115.172L151.929 105.636L152.432 106.728C152.708 107.329 153.24 109.026 153.612 110.5ZM138.695 108.967C139.085 110.14 139.361 111.23 139.308 111.391C139.254 111.552 138.824 111.846 138.353 112.044L137.496 112.404L137.499 110.619C137.501 108.961 137.732 106.835 137.909 106.835C137.951 106.835 138.304 107.794 138.695 108.967ZM146.656 109.088C146.893 110.034 147.088 110.873 147.088 110.953C147.088 111.033 146.069 111.098 144.823 111.098H142.558L142.555 110.232C142.553 109.756 142.485 109.122 142.405 108.823C142.279 108.353 142.467 108.223 143.808 107.85C146.219 107.179 146.171 107.158 146.656 109.088ZM83.0873 107.954C83.528 108.395 83.4888 109.632 83.022 110.02C82.4267 110.514 81.4686 110.241 81.0268 109.451C80.6618 108.799 80.6703 108.688 81.1257 108.185C81.6801 107.573 82.5978 107.464 83.0873 107.954ZM163.87 109.566C163.864 112.274 163.834 112.302 161.321 111.928C160.178 111.758 159.221 111.592 159.193 111.558C159.165 111.525 159.26 110.694 159.404 109.712L159.666 107.926L161.037 107.83C161.792 107.776 162.738 107.711 163.141 107.683L163.874 107.634L163.87 109.566ZM172.683 107.935C173.355 107.7 173.421 107.742 173.572 108.496C173.662 108.943 173.812 110.664 173.907 112.32L174.079 115.331L173.373 115.479C172.984 115.561 172.397 115.682 172.067 115.749C171.235 115.916 169.478 115.484 168.984 114.99C168.614 114.62 168.658 114.268 169.435 111.44C169.91 109.713 170.347 108.152 170.407 107.97C170.488 107.724 170.7 107.71 171.237 107.914C171.705 108.092 172.212 108.099 172.683 107.935ZM147.706 113.289C147.936 114.201 148.101 114.966 148.072 114.989C147.825 115.192 143.451 116.057 143.32 115.929C143.227 115.836 143.067 114.832 142.965 113.696L142.779 111.631H145.034H147.289L147.706 113.289ZM140.397 114.051C140.731 115.089 140.964 115.967 140.915 116.003C140.866 116.039 140.347 116.351 139.761 116.698C139.174 117.044 138.425 117.498 138.095 117.707L137.496 118.087V115.533C137.496 113.022 137.508 112.973 138.229 112.583C139.525 111.879 139.745 112.028 140.397 114.051ZM161.292 112.445C163.782 112.811 163.856 112.841 163.702 113.431C163.583 113.884 163.351 113.92 161.258 113.815C159.986 113.751 158.925 113.683 158.902 113.664C158.809 113.589 159.147 112.164 159.258 112.164C159.323 112.164 160.238 112.29 161.292 112.445ZM163.608 118.01C163.608 120.053 163.518 121.769 163.408 121.823C163.298 121.878 162.084 121.873 160.711 121.811L158.214 121.7L158.392 119.263C158.49 117.923 158.64 116.257 158.725 115.561L158.88 114.295H161.244H163.608V118.01ZM169.37 115.793C170.141 116.116 170.891 116.189 172.334 116.08L174.266 115.935L174.234 117.846C174.217 118.897 174.127 120.534 174.035 121.482L173.866 123.207L172.8 123.526C170.741 124.145 166.28 123.778 166.267 122.99C166.262 122.716 168.225 115.369 168.305 115.364C168.323 115.362 168.803 115.556 169.37 115.793ZM148.424 116.094C148.426 116.35 148.495 116.811 148.577 117.116C148.715 117.632 148.562 117.696 146.508 117.983C143.276 118.434 143.31 118.44 143.407 117.426C143.489 116.579 143.535 116.551 145.489 116.119C148.126 115.538 148.419 115.535 148.424 116.094ZM55.8297 116.435C54.8039 116.562 50.8866 117.154 47.1246 117.75C36.1813 119.485 32.8744 119.66 29.6344 118.677C28.1386 118.223 28.2524 118.233 28.2524 118.551C28.2524 118.694 28.9419 119.022 29.7845 119.28C30.9504 119.638 32.1441 119.741 34.7803 119.713C38.172 119.676 40.5071 119.378 51.4333 117.584C55.0972 116.983 56.6954 116.859 61.0254 116.844C65.9909 116.827 66.2909 116.856 67.7956 117.493C69.6436 118.275 70.3599 119.121 70.5424 120.741C71.0684 125.408 64.5095 136.357 53.0376 149.962C52.401 150.717 51.9603 151.414 52.0581 151.512C52.1559 151.61 52.6848 151.168 53.2334 150.53C61.3721 141.065 67.6053 132.025 69.8126 126.485C72.0579 120.85 71.4121 118.104 67.5443 116.84C66.292 116.431 65.0783 116.309 61.8248 116.262C59.5533 116.229 56.8555 116.307 55.8297 116.435ZM142.835 121.712C143.68 124.521 144.127 126.422 143.977 126.572C143.843 126.706 142.467 126.894 140.921 126.989L138.11 127.161L137.946 125.458C137.856 124.521 137.703 122.601 137.605 121.192L137.428 118.629L139.254 117.535C140.562 116.752 141.132 116.535 141.263 116.769C141.364 116.949 142.071 119.173 142.835 121.712ZM149.093 120.242L149.286 121.792L148.315 121.61C147.782 121.51 146.538 121.225 145.552 120.977C143.84 120.547 143.754 120.487 143.674 119.675C143.619 119.115 143.71 118.818 143.94 118.805C144.133 118.794 145.249 118.639 146.422 118.461C147.89 118.237 148.607 118.223 148.727 118.414C148.823 118.567 148.988 119.389 149.093 120.242ZM147.213 121.844C149.558 122.44 149.607 122.469 149.79 123.363C149.892 123.864 149.928 124.352 149.869 124.447C149.81 124.542 148.605 124.765 147.19 124.944C144.481 125.284 144.171 125.201 144.161 124.125C144.159 123.888 144.081 123.139 143.988 122.459C143.783 120.967 143.774 120.969 147.213 121.844ZM162.742 122.457C163.248 122.592 163.341 122.799 163.341 123.785V124.953H161.068C158.617 124.953 158.69 124.999 158.451 123.288L158.312 122.289L160.227 122.292C161.281 122.294 162.412 122.368 162.742 122.457ZM168.576 124.23C170.172 124.512 172.25 124.312 173.57 123.75C174.031 123.554 174.059 123.634 173.916 124.711C173.829 125.357 173.616 126.995 173.441 128.351C173.267 129.707 172.991 130.988 172.829 131.197C172.403 131.743 168.111 132.203 166.272 131.899C164.267 131.568 163.832 131.367 163.995 130.85C164.07 130.611 164.498 129.096 164.946 127.484C165.394 125.872 165.826 124.335 165.907 124.068C166.006 123.741 166.198 123.641 166.496 123.762C166.739 123.86 167.676 124.071 168.576 124.23ZM58.7819 125.153C58.6884 125.556 57.828 127.474 56.8699 129.416L55.1279 132.947H53.7098C52.3134 132.947 52.2894 132.933 52.125 132.057C52.0331 131.567 51.6507 130.878 51.2753 130.525C50.6028 129.892 50.4965 129.88 44.2992 129.749L38.006 129.616L40.7112 129.157C42.1993 128.904 45.6152 127.982 48.3023 127.107C52.4519 125.755 57.26 124.509 58.5896 124.439C58.8499 124.426 58.904 124.626 58.7819 125.153ZM150.163 125.952C150.248 126.356 150.358 126.892 150.408 127.144C150.474 127.482 150.276 127.637 149.659 127.731C148.084 127.97 145.217 128.09 145.122 127.92C145.069 127.827 144.948 127.316 144.852 126.784L144.678 125.816L146.482 125.554C149.688 125.089 149.988 125.121 150.163 125.952ZM163.288 126.885L163.208 128.284L161.27 128.521C160.204 128.652 159.278 128.706 159.213 128.641C159.148 128.576 159.015 127.84 158.917 127.005L158.738 125.486H161.054H163.369L163.288 126.885ZM144.753 128.35C145.739 131.731 146.926 136.661 146.787 136.8C146.388 137.199 142.56 137.78 141.138 137.657C140.284 137.583 139.541 137.479 139.488 137.425C139.397 137.335 138.501 131.249 138.216 128.787L138.089 127.692L140.657 127.431C142.069 127.288 143.485 127.151 143.804 127.128C144.278 127.093 144.45 127.314 144.753 128.35ZM150.688 129.15C150.777 129.699 150.904 130.419 150.972 130.748C151.092 131.336 151.047 131.348 148.574 131.348H146.053L145.683 130.082C145.48 129.386 145.359 128.761 145.414 128.693C145.47 128.624 146.499 128.493 147.7 128.401C148.902 128.309 150.03 128.215 150.207 128.192C150.384 128.169 150.599 128.598 150.688 129.15ZM163.1 130.812C163.066 131.838 162.773 133.607 162.447 134.744L161.854 136.81L160.933 136.717C160.425 136.666 159.921 136.569 159.811 136.502C159.701 136.434 159.603 135.697 159.594 134.863C159.585 134.029 159.484 132.447 159.369 131.348C159.254 130.249 159.19 129.311 159.227 129.263C159.321 129.144 162.916 128.774 163.051 128.869C163.111 128.912 163.133 129.786 163.1 130.812ZM151.218 132.747C151.428 133.91 151.823 138.384 151.725 138.505C151.624 138.63 148.086 139.372 148.032 139.279C147.949 139.134 146.285 132.273 146.286 132.081C146.288 131.971 147.362 131.881 148.675 131.881H151.06L151.218 132.747ZM166.139 132.426C167.046 132.607 168.309 132.6 170.097 132.403C171.541 132.244 172.754 132.152 172.792 132.197C172.892 132.318 171.741 136.882 170.779 140.177L169.951 143.01L168.978 143.171C166.257 143.621 164.3 143.189 162.759 141.797C161.723 140.86 161.688 140.775 161.833 139.55C161.916 138.85 162.367 136.829 162.835 135.058C163.622 132.085 163.73 131.852 164.247 132C164.555 132.088 165.406 132.279 166.139 132.426ZM54.2696 134.141C53.6672 135.711 47.0052 145.392 42.3224 151.504C42.1657 151.708 42.5651 152.147 43.5334 152.836L44.9783 153.863L43.7745 155.542C42.7874 156.92 42.2462 157.385 40.7661 158.131C38.6308 159.206 35.9016 161.641 35.1249 163.163C34.7838 163.832 34.5637 164.792 34.5512 165.666C34.5333 166.887 34.483 167.02 34.1891 166.618C33.9381 166.274 33.8478 164.722 33.8478 160.757C33.8478 157.79 33.7308 155.055 33.588 154.679C33.3618 154.085 33.1715 153.996 32.1225 153.996H30.9169V146.298C30.9169 138.074 30.8846 138.276 32.1993 138.276C32.4409 138.276 34.0798 137.586 35.8411 136.744L39.0435 135.211L45.0034 135.078C50.7696 134.949 50.9774 134.926 51.3981 134.355C51.7408 133.891 52.1071 133.764 53.1271 133.756C54.1639 133.748 54.3911 133.825 54.2696 134.141ZM37.3116 135.223C37.3116 135.303 36.1438 135.932 34.7167 136.622L32.1217 137.876H28.5015H24.8813L22.3037 136.588C20.8859 135.879 19.7261 135.25 19.7261 135.189C19.7261 135.128 23.6828 135.078 28.5188 135.078C33.3548 135.078 37.3116 135.143 37.3116 135.223ZM147.179 137.676C147.248 137.932 147.511 139.018 147.762 140.088C148.202 141.966 148.201 142.047 147.719 142.417C146.85 143.087 144.524 143.636 142.909 143.552L141.359 143.471L140.515 140.94C140.05 139.548 139.66 138.349 139.649 138.276C139.637 138.202 140.677 138.123 141.959 138.098C143.241 138.074 144.83 137.876 145.489 137.658C147.065 137.138 147.033 137.138 147.179 137.676ZM161.528 138.009C161.483 138.376 161.173 140.286 160.839 142.255C160.116 146.519 159.886 146.184 159.881 140.857L159.877 137.176L160.743 137.26C161.494 137.332 161.598 137.432 161.528 138.009ZM151.969 145.126C152.146 151.183 152.343 152.772 153.858 160.421C154.363 162.969 154.857 165.691 154.956 166.47L155.136 167.887L154.11 167.802L153.083 167.718L152.494 163.588C151.495 156.579 150.044 148.189 149.108 144.004C148.617 141.806 148.257 139.962 148.308 139.906C148.451 139.75 151.462 139.149 151.642 139.24C151.728 139.284 151.876 141.933 151.969 145.126ZM30.3219 147.268L30.393 153.996H28.6566H26.9201V147.61V141.224L27.6529 140.819C28.0557 140.597 28.8053 140.443 29.3182 140.478L30.2507 140.54L30.3219 147.268ZM163.809 143.113C164.859 143.63 165.469 143.73 167.418 143.71C169.309 143.69 169.735 143.756 169.621 144.053C169.543 144.255 169.292 145.166 169.062 146.078C168.199 149.498 168.25 149.418 166.585 149.905C164.728 150.449 162.155 150.517 161.053 150.051L160.23 149.704L160.577 147.198C160.768 145.82 161.06 143.907 161.227 142.948L161.531 141.205L162.037 141.848C162.316 142.202 163.113 142.772 163.809 143.113ZM149.277 147.459L149.353 148.517L147.754 149.162C146.826 149.536 145.557 149.819 144.729 149.836L143.302 149.866L142.399 146.935C141.902 145.323 141.495 144.004 141.495 144.004C144.996 144.004 145.437 143.946 146.821 143.306L148.287 142.629L148.744 144.516C148.995 145.553 149.234 146.878 149.277 147.459ZM150.109 151.414C150.352 152.777 150.552 153.961 150.552 154.043C150.552 154.244 147.794 154.974 146.235 155.186L144.982 155.357L144.28 153.056C143.895 151.791 143.619 150.728 143.668 150.695C143.717 150.662 144.506 150.488 145.421 150.308C146.335 150.127 147.594 149.753 148.218 149.475C148.842 149.198 149.423 148.963 149.509 148.952C149.595 148.942 149.865 150.049 150.109 151.414ZM167.469 152.941C167.141 154.558 166.805 155.95 166.721 156.034C166.457 156.298 162.875 156.603 161.652 156.465L160.48 156.332L160.312 154.725C160.103 152.728 160.093 150.266 160.295 150.266C160.378 150.266 160.685 150.394 160.978 150.551C161.721 150.948 164.81 150.876 166.405 150.424C167.138 150.217 167.811 150.036 167.901 150.023C167.991 150.01 167.797 151.323 167.469 152.941ZM33.0484 160.397V166.265L28.5854 166.192L24.1224 166.119L24.0502 160.664C24.0103 157.664 24.0367 155.056 24.1083 154.869C24.2069 154.612 25.3161 154.529 28.6438 154.529H33.0484V160.397ZM150.94 156.327C151.041 157.17 151.183 158.111 151.256 158.418C151.379 158.935 151.212 159.001 148.959 159.324C147.52 159.53 146.438 159.574 146.305 159.432C145.953 159.055 145.185 156.138 145.362 155.852C145.449 155.711 145.903 155.585 146.371 155.573C146.839 155.561 147.761 155.397 148.42 155.208C150.655 154.568 150.734 154.603 150.94 156.327ZM46.2576 156.497C47.2725 156.847 48.7888 157.394 49.6273 157.713L51.1519 158.292L50.2314 159.212C48.7422 160.702 48.3769 161.612 48.4014 163.774L48.4232 165.692L47.6583 165.297C46.5293 164.713 45.4263 163.022 44.6458 160.678C44.2656 159.536 43.7828 158.376 43.5726 158.098C43.3623 157.82 43.1865 157.519 43.182 157.429C43.1734 157.267 44.216 155.861 44.345 155.861C44.382 155.861 45.2427 156.147 46.2576 156.497ZM166.282 158.727L165.888 160.66L164.681 160.532C164.017 160.462 162.785 160.333 161.942 160.245L160.41 160.086L160.411 158.44L160.413 156.794H163.544H166.676L166.282 158.727ZM151.472 160.191C152.009 163.406 152.417 166.367 152.417 167.061V167.875L150.516 167.796L148.615 167.718L147.543 164.052C146.953 162.035 146.524 160.333 146.589 160.268C146.678 160.179 149.593 159.593 151.139 159.354C151.242 159.338 151.392 159.714 151.472 160.191ZM165.561 161.189C165.742 161.356 165.217 164.349 164.498 167.252C164.362 167.801 164.196 167.851 162.513 167.851H160.677V165.491C160.677 164.192 160.599 162.563 160.504 161.87L160.331 160.611L162.835 160.798C164.213 160.901 165.439 161.077 165.561 161.189ZM25.4371 167.052C26.2977 167.052 26.3864 167.121 26.3798 167.785C26.3715 168.606 25.3889 170.02 23.9892 171.224C23.4763 171.665 19.021 175.222 14.0888 179.129C3.82049 187.262 4.07947 186.963 3.81676 191.017L3.66035 193.43H2.1011H0.541852V191.193C0.541852 188.017 1.257 185.851 2.88073 184.106C3.57269 183.363 8.27549 179.484 13.3313 175.487C18.3872 171.489 22.7636 167.85 23.0567 167.4C23.4665 166.771 23.6932 166.636 24.0382 166.817C24.2852 166.946 24.9146 167.052 25.4371 167.052ZM34.2882 167.693C34.7055 168.192 37.9844 170.912 41.5747 173.737C54.2891 183.741 54.4239 183.858 55.4348 185.736C56.2928 187.33 56.3557 187.621 56.4513 190.433L56.5534 193.43H54.9259H53.2984V191.338C53.2984 189.016 52.9955 187.844 52.0738 186.602C51.7339 186.143 47.2021 182.395 42.0032 178.273C36.8045 174.151 32.1833 170.332 31.7338 169.787C31.1974 169.136 30.9169 168.502 30.9169 167.94C30.9169 167.147 30.9904 167.076 31.916 166.979C32.4657 166.922 33.0535 166.855 33.2224 166.83C33.3913 166.806 33.871 167.194 34.2882 167.693ZM52.2665 167.609C53.7274 168.649 54.2723 170.085 53.4615 170.757C53.1644 171.004 52.9539 170.829 52.3896 169.866C52.0032 169.207 51.1506 168.298 50.4946 167.847C49.8383 167.396 49.3017 166.957 49.3017 166.872C49.3017 166.54 51.5513 167.1 52.2665 167.609ZM30.384 180.241V193.43H28.6521H26.9201V180.241V167.052H28.6521H30.384V180.241ZM170.485 169.241C170.551 169.811 170.439 169.996 169.953 170.114C169.614 170.196 163.161 170.23 155.614 170.19L141.892 170.116L141.809 169.248L141.725 168.38L156.063 168.448L170.402 168.517L170.485 169.241ZM51.9017 171.007C52.9148 172.056 53.316 173.18 52.6771 173.18C52.4383 173.18 51.7525 172.27 51.0496 171.02C49.7424 168.696 49.5106 168.036 50.449 169.313C50.7706 169.75 51.4242 170.512 51.9017 171.007ZM52.2313 170.627C52.2329 170.916 52.2302 170.913 51.4583 169.716L50.8564 168.784L51.5431 169.583C51.9209 170.023 52.2305 170.493 52.2313 170.627ZM42.2878 172.714C43.3338 173.461 45.5824 175.943 44.7556 175.438C44.3983 175.219 39.2036 171.142 38.9103 170.85C38.5548 170.495 41.3128 172.018 42.2878 172.714ZM169.344 172.025C168.91 174.915 165.438 182.619 162.761 186.629C160.793 189.577 157.932 192.375 155.839 193.401C152.957 194.813 149.317 195.149 148.168 194.109C147.406 193.42 145.852 190.039 145.085 187.403C144.264 184.58 143.499 180.267 143.106 176.244C142.948 174.632 142.757 172.744 142.68 172.048L142.54 170.782H156.035H169.53L169.344 172.025Z" fill="#3F3F3F"/>
</svg>
