<svg width="26" height="23" viewBox="0 0 26 23" fill="none" xmlns="http://www.w3.org/2000/svg">
<path d="M21.0477 3.13899C21.0016 3.10359 20.9494 3.07692 20.8937 3.06028C20.926 2.89842 21.0206 2.82287 21.3182 2.72083C21.5838 2.78132 22.1935 2.70247 22.0929 2.87318L22.0254 2.88183C22.0306 2.94399 22.1218 3.03575 22.236 3.10647C22.2795 3.1772 22.3198 3.22693 22.3739 3.20507C22.3924 3.13842 22.4012 3.06947 22.4002 3.00032C22.4007 2.95202 22.4118 2.90443 22.4326 2.86083C22.4533 2.81722 22.4833 2.77865 22.5205 2.7478C22.7354 2.69463 22.9782 2.75803 23.0035 2.90474C23.1204 2.80724 23.2498 2.70974 23.3918 2.61224C23.4122 2.61461 23.4317 2.62165 23.449 2.63281C23.4662 2.64398 23.4806 2.65896 23.4911 2.6766C23.4286 2.83421 23.3408 2.96632 23.2792 3.10088C23.2381 3.10304 23.1973 3.10869 23.1572 3.11776C23.0506 3.26475 22.8132 3.43105 22.8165 3.54912C22.9559 3.5506 22.9646 3.56909 23.0553 3.68635C23.0054 3.73406 22.968 3.79337 22.9466 3.85902C22.9428 3.87218 22.9401 3.88559 22.9382 3.89913L22.9361 3.91931L22.9352 3.95259C22.9347 4.04646 22.9371 4.14252 22.9408 4.2394C22.9709 4.60892 22.9755 4.98007 22.9546 5.35023C23.4156 5.98338 22.7316 7.28571 23.2993 7.76972C23.1821 8.81595 23.5442 8.9277 23.8057 9.48227C23.5 10.2915 23.4164 8.42657 23.1248 8.8565C23.0256 10.0377 23.1919 11.3266 23.1591 12.5341C23.356 12.8379 23.5726 12.3134 23.6228 12.944C23.501 12.7356 23.2784 12.9674 23.2758 13.1915C23.3074 12.9468 23.3718 13.1973 23.4382 13.2249L23.4785 13.0474C23.9671 12.9205 23.4303 13.8959 23.6737 14.3144C23.5092 14.5059 23.6763 14.0903 23.5146 14.058C23.2946 14.0668 23.035 14.2523 22.9515 14.8295C23.2255 15.9675 22.7287 16.7662 22.8291 18.0274C23.0114 17.9711 22.9311 18.3247 22.9575 18.5278C22.7979 18.2717 22.6108 18.7749 22.579 19.0196C22.6803 19.318 23.0337 19.362 22.9999 19.8305L23.3377 19.5152C23.378 19.3386 23.2323 18.7017 23.1598 18.3839C23.5442 18.1837 22.9866 16.8039 23.5102 16.9488L23.4415 17.1469C23.2514 17.8733 23.7728 18.2432 23.9563 18.927C23.8066 19.4784 23.5464 19.6633 23.3412 20.0312C23.2411 20.4731 23.3831 20.5938 23.476 20.8239C23.5577 21.2098 23.3928 21.4013 23.2946 21.6194C23.3125 21.7544 23.3816 21.5576 23.399 21.6931C23.3439 21.8576 23.313 22.0292 23.3074 22.2025C23.6316 22.2683 23.6302 21.5282 23.731 21.0865C23.7774 21.2012 23.8436 21.228 23.8325 21.3844C23.8503 21.5194 23.7838 21.4925 23.7544 21.5136L23.79 21.7852C23.8852 21.7915 24.0675 21.7352 24.0825 22.0945L23.889 22.3072C23.8237 23.0192 24.278 23.3623 24.3175 22.4453L24.1176 22.3655L24.414 21.4873C24.6165 21.3441 24.5623 21.901 24.7535 21.9121C24.9909 22.0391 25.1141 21.2847 25.1656 20.9522C25.0264 20.6078 24.9723 21.1646 24.9405 21.4082L24.5929 20.9165C24.5749 20.7813 24.6442 20.5832 24.7397 20.5897C24.8469 20.4382 25.1219 20.6135 25.0869 20.3422C25.1434 19.5615 24.7335 20.2979 24.7124 19.6458C24.3565 19.8256 24.2776 20.9188 24.1017 21.2664L24.1075 21.5577C23.9343 21.6814 24.0466 21.0843 23.9455 21.5259C23.7247 20.7947 24.1566 19.7462 24.4016 19.201C24.6217 19.1922 24.8294 18.6002 25.1106 19.0664C25.1425 18.8218 25.3155 18.6985 25.272 18.3589C24.8996 17.4397 25.3535 17.042 25.2483 16.2285C25.1989 16.3376 25.115 16.1744 25.0484 16.1493C25.1857 15.0139 26.009 16.5006 25.8073 14.9409C25.7722 14.6702 25.6592 14.5282 25.5436 14.6111C25.4743 14.8083 25.3102 14.9999 25.3828 15.3183C25.2871 15.3128 25.2911 15.8274 25.0935 15.5241C25.1594 14.8109 24.7997 14.4744 24.8827 13.897L24.7319 13.7083C24.7349 13.4848 24.5692 12.9363 24.6871 12.6301C24.7928 11.7408 25.0112 12.6953 25.1732 12.7275L25.2676 11.9932C24.9045 11.1416 25.7806 10.5917 25.3393 9.86929L25.4437 9.94307C25.5921 10.3558 25.8372 9.81067 25.8307 9.51856L25.7381 9.28899C25.312 8.9263 25.5826 7.84487 25.4569 7.11992C25.4685 6.96442 25.5548 6.90207 25.5724 7.03763L25.7534 6.24176C25.3453 6.01421 25.7412 5.65864 25.6796 5.18444C25.5114 4.85909 25.3403 4.75964 25.2213 4.3257C25.2566 4.19614 25.2836 4.06445 25.3021 3.93145C25.3195 3.77236 25.3285 3.61772 25.332 3.46868C25.3389 3.17001 25.3238 2.89569 25.3101 2.63159C25.2596 2.02472 25.3014 1.41369 25.434 0.819337C25.4049 0.829079 25.3737 0.830716 25.3437 0.824071C25.0932 0.941078 24.821 1.02361 24.6452 1.1158C24.4664 1.20799 24.393 1.30994 24.4701 1.46587C24.0296 1.37502 23.5828 1.24548 23.0551 1.12656C22.7941 1.06712 22.5077 1.01032 22.2168 0.962261C21.9744 0.914252 21.73 0.875042 21.4806 0.850752C21.4113 0.898519 21.3368 0.941413 21.2693 0.990759C21.0243 1.60541 19.9804 2.85964 21.0477 3.13899Z" fill="#FAE465"/>
<path d="M18.3525 1.42939C17.3416 0.820972 16.2308 0.396566 15.0717 0.175873C14.824 0.299685 14.5675 0.404948 14.3042 0.490794L13.5221 0.22082C12.7429 0.222064 11.8224 0.314924 11.3308 0.708265C11.1884 0.648397 11.1878 0.587861 11.0454 0.527995C10.7636 0.649355 10.1951 0.529907 9.91434 0.741641C9.55901 0.621811 9.55672 0.440346 9.34202 0.25936C8.56509 0.442683 7.56802 -0.039017 6.79248 0.264715C6.43175 -0.248264 5.66194 0.568925 5.23111 0.086645C4.37902 -0.0930977 3.46003 0.120402 3.25159 0.452922C3.25073 0.362261 3.53142 0.120402 3.17528 5.55183e-07C3.10551 0.0306993 2.96373 0.0609678 2.96373 0.0910438C2.89344 0.0916666 2.25428 -0.0584781 2.04326 0.0930041C1.95666 0.14919 1.93041 0.193325 1.95035 0.240854C2.78653 0.638165 0.943569 1.71251 0.296416 2.2712C0.198683 2.3107 0.0980714 2.3425 -4.16139e-07 2.38003C0.398886 2.47693 0.808769 2.52102 1.21914 2.5112C1.07626 2.36029 1.78543 2.38922 1.42924 2.23926C1.35809 2.23926 1.28804 2.26939 1.21718 2.26996L0.718591 2.0895C1.14311 1.96747 2.13646 2.14702 2.41719 1.84428C2.91343 1.93394 3.05836 2.17513 3.34364 2.35592C4.12291 2.38442 5.04679 2.62427 5.6814 2.38136C6.46033 2.31949 6.60494 2.59113 6.81992 2.80172C7.17325 2.6807 7.81212 2.82989 7.95103 2.61868C8.59082 2.79833 8.80776 3.16054 9.09395 3.43161C9.59162 3.58176 9.5899 3.40039 9.94203 3.24867C10.9348 3.30715 9.73651 3.85331 10.8702 3.85087C11.2956 3.91083 11.8596 3.66802 11.8576 3.4867C12.3552 3.66692 12.9904 3.4539 13.3474 3.66462C14.1207 3.08934 15.1209 3.90304 16.0362 3.38762C17.0533 3.43353 17.8443 3.13701 18.8031 2.95115C19.028 2.42197 18.8908 1.88279 18.3525 1.42939Z" fill="#FAE465"/>
</svg>
