<svg width="68" height="109" viewBox="0 0 68 109" fill="none" xmlns="http://www.w3.org/2000/svg">
<path fill-rule="evenodd" clip-rule="evenodd" d="M16.5797 52.2359L2.69191 54.5L15.9644 56.6638C2.21473 82.6296 -3.79953 104.903 2.4993 108.503C7.78423 111.523 20.2377 100.54 33.4688 82.2956L34 85.4878L34.8525 80.365C35.1767 79.9075 35.5012 79.4457 35.8259 78.9799C41.3608 83.1401 46.686 84.6757 50.373 82.5688C55.9661 79.3727 56.1098 68.7538 51.4203 56.7642L65.3081 54.5L52.0355 52.3362C65.7853 26.3704 71.7995 4.09673 65.5007 0.497299C60.2158 -2.52275 47.7623 8.46039 34.5312 26.7044L34 23.5122L33.1475 28.635C32.8233 29.0925 32.4988 29.5542 32.1741 30.0201C26.6392 25.8599 21.314 24.3242 17.627 26.4312C12.0339 29.6273 11.8902 40.2462 16.5797 52.2359ZM19.9257 97.075C24.0821 92.6902 28.6003 87.1434 33.2065 80.7197L32.4431 76.1322C28.4942 72.4517 24.5857 67.5521 21.2292 61.7978C20.3179 60.2356 19.4821 58.6701 18.723 57.1136L17.1479 56.8568C11.0349 68.3599 6.45009 79.1291 3.78502 87.8515C2.1036 93.3546 1.20548 97.982 1.14208 101.439C1.11037 103.167 1.28908 104.544 1.643 105.571C1.99375 106.588 2.49128 107.197 3.06854 107.527C3.6458 107.857 4.427 107.979 5.49268 107.771C6.56799 107.561 7.86196 107.026 9.35873 106.134C12.3516 104.351 15.9514 101.268 19.9257 97.075ZM20.102 57.3384C20.7522 58.6332 21.4567 59.9343 22.2151 61.2344C25.2141 66.3757 28.6483 70.8036 32.1317 74.2612L29.5724 58.8824L20.102 57.3384ZM35.5741 77.3513C35.5095 77.2994 35.4448 77.2471 35.3802 77.1945L38.4276 58.8824L48.0258 57.3176C47.2968 58.6171 46.5497 59.9233 45.7849 61.2344C42.4323 66.9819 38.9919 72.3925 35.5741 77.3513ZM36.4709 78.0497C36.7187 78.2366 36.9659 78.4179 37.2124 78.5936C42.4226 82.3069 46.9065 83.2486 49.8038 81.593C52.7011 79.9373 54.1191 75.6231 53.4751 69.3003C53.0983 65.6009 52.0233 61.3781 50.2722 56.9513L49.4572 57.0842C48.5876 58.6467 47.6919 60.2189 46.7709 61.7978C43.3919 67.5905 39.9214 73.047 36.4709 78.0497ZM49.277 51.8865L50.852 52.1432C56.9651 40.6401 61.5499 29.8709 64.215 21.1485C65.8964 15.6454 66.7945 11.018 66.8579 7.56129C66.8896 5.83253 66.7109 4.45579 66.357 3.42907C66.0062 2.41155 65.5087 1.80304 64.9315 1.47316C64.3542 1.14329 63.573 1.02108 62.5073 1.22919C61.432 1.43918 60.138 1.97437 58.6413 2.86593C55.6484 4.64864 52.0486 7.73216 48.0743 11.925C43.9179 16.3098 39.3997 21.8566 34.7935 28.2803L35.5569 32.8678C39.5058 36.5483 43.4143 41.4479 46.7709 47.2022C47.6821 48.7644 48.5179 50.3299 49.277 51.8865ZM35.8683 34.7388C39.3517 38.1964 42.7859 42.6243 45.7849 47.7656C46.5433 49.0657 47.2478 50.3669 47.898 51.6616L38.4276 50.1177L35.8683 34.7388ZM32.4259 31.6486C32.4905 31.7006 32.5552 31.7528 32.6198 31.8055L29.5724 50.1177L19.9742 51.6825C20.7032 50.3829 21.4503 49.0767 22.2151 47.7656C25.5677 42.0181 29.0081 36.6075 32.4259 31.6486ZM31.5291 30.9503C28.0786 35.953 24.6081 41.4094 21.2292 47.2022C20.3081 48.7811 19.4124 50.3534 18.5428 51.9158L17.7278 52.0487C15.9767 47.6219 14.9017 43.3991 14.5249 39.6997C13.8809 33.3769 15.2989 29.0627 18.1962 27.407C21.0935 25.7514 25.5774 26.6931 30.7876 30.4064C31.0341 30.5821 31.2813 30.7634 31.5291 30.9503Z" fill="#707070"/>
</svg>
