<svg width="68" height="111" viewBox="0 0 68 111" fill="none" xmlns="http://www.w3.org/2000/svg">
<path fill-rule="evenodd" clip-rule="evenodd" d="M23.5275 69.6491L18.5444 82.8084L27.0545 72.396C42.6667 97.2864 58.9491 113.632 65.2157 109.977C70.4736 106.91 67.1887 90.6331 58.0045 70.0527L61.0346 71.1887L57.0244 67.889C56.7903 67.3795 56.5526 66.8676 56.3116 66.3535C62.6818 63.6402 66.6744 59.7962 66.6932 55.5497C66.7218 49.1079 57.5975 43.6741 44.8694 41.7404L49.8524 28.5812L41.3422 38.9936C25.7301 14.1032 9.44764 -2.24221 3.18102 1.41302C-2.07688 4.47989 1.20804 20.7565 10.3923 41.3369L7.36215 40.2009L11.3723 43.5006C11.6065 44.0101 11.8441 44.522 12.0852 45.0361C5.71497 47.7494 1.72241 51.5933 1.70355 55.8398C1.67495 62.2817 10.7993 67.7155 23.5275 69.6491ZM64.0323 89.171C62.3131 83.379 59.7686 76.6928 56.5086 69.4918L52.1539 67.8592C46.9921 69.4388 40.7947 70.3738 34.1331 70.4036C32.3246 70.4116 30.5508 70.3527 28.8233 70.2318L27.8134 71.4675C34.7188 82.5131 41.7528 91.8682 47.9742 98.5375C51.8993 102.745 55.4576 105.837 58.4195 107.62C59.9008 108.512 61.1825 109.045 62.2486 109.252C63.3052 109.457 64.0809 109.331 64.6552 108.996C65.2296 108.661 65.726 108.045 66.0786 107.018C66.4344 105.982 66.6179 104.594 66.5942 102.852C66.5467 99.3685 65.6762 94.7093 64.0323 89.171ZM29.7075 69.15C31.1539 69.2343 32.633 69.2747 34.1381 69.268C40.0901 69.2414 45.6418 68.4813 50.3779 67.1934L35.7798 61.7204L29.7075 69.15ZM54.7753 65.7572C54.698 65.7872 54.6204 65.8171 54.5425 65.8468L40.2074 54.0515L43.6514 44.9569C44.4123 46.238 45.17 47.5381 45.923 48.856C49.2242 54.6332 52.1897 60.3179 54.7753 65.7572ZM55.8285 65.3298C56.1142 65.2086 56.3948 65.0852 56.6702 64.9596C62.4912 62.304 65.5486 58.8917 65.5635 55.5548C65.5783 52.2178 62.551 48.8327 56.7534 46.229C53.3612 44.7056 49.1666 43.5252 44.4574 42.8283L44.165 43.6006C45.0833 45.1349 45.997 46.6967 46.9039 48.2838C50.2311 54.1065 53.2213 59.8402 55.8285 65.3298ZM39.5735 41.1577L40.5834 39.9221C33.6779 28.8765 26.6439 19.5213 20.4226 12.8521C16.4975 8.64438 12.9391 5.55291 9.97723 3.76963C8.49593 2.87779 7.21428 2.34419 6.14816 2.13733C5.09158 1.93233 4.31583 2.05895 3.74153 2.39393C3.16722 2.72892 2.67078 3.34435 2.31817 4.37131C1.96237 5.40756 1.77887 6.79576 1.8026 8.53778C1.85005 12.021 2.72056 16.6803 4.36446 22.2186C6.08365 28.0106 8.6282 34.6968 11.8882 41.8977L16.2428 43.5303C21.4047 41.9507 27.6021 41.0157 34.2637 40.986C36.0722 40.9779 37.846 41.0369 39.5735 41.1577ZM18.0188 44.1962C22.7549 42.9083 28.3066 42.1481 34.2587 42.1215C35.7638 42.1148 37.2429 42.1552 38.6893 42.2395L32.617 49.6692L18.0188 44.1962ZM13.6215 45.6323C13.6987 45.6023 13.7763 45.5725 13.8543 45.5428L28.1894 57.3381L24.7454 66.4327C23.9845 65.1516 23.2268 63.8515 22.4738 62.5336C19.1726 56.7564 16.2071 51.0717 13.6215 45.6323ZM12.5683 46.0598C15.1755 51.5494 18.1657 57.2831 21.4929 63.1057C22.3997 64.6928 23.3135 66.2547 24.2318 67.789L23.9394 68.5613C19.2301 67.8644 15.0356 66.6839 11.6434 65.1605C5.84574 62.5569 2.81848 59.1718 2.8333 55.8348C2.84811 52.4978 5.90556 49.0855 11.7265 46.43C12.0019 46.3044 12.2826 46.1809 12.5683 46.0598Z" fill="#707070"/>
</svg>
