<svg width="131" height="155" viewBox="0 0 131 155" fill="none" xmlns="http://www.w3.org/2000/svg">
<path fill-rule="evenodd" clip-rule="evenodd" d="M45.23 79.3068C41.9544 84.9438 38.3393 88.1089 35.0707 87.5474C29.6204 86.6113 26.761 75.5937 27.5248 61.0347C26.9119 60.3187 26.3136 59.6079 25.7304 58.903L11.8392 63.2561L11.4309 62.1461L24.0238 56.8029C13.2234 43.2639 8.32567 32.1552 12.2164 27.4958C15.1803 23.9463 22.7533 24.728 32.9539 28.9091L30.4888 21.0366L31.6015 20.6273L34.8024 28.1663C38.7214 19.0097 43.572 13.4071 47.8336 14.1391C53.3203 15.0815 56.1813 26.2403 55.3637 40.9436C56.7558 41.8347 58.164 42.759 59.5857 43.7155L72.7558 39.5884L73.1641 40.6985L62.0661 45.4074C68.2465 49.6806 74.65 54.5354 81.0715 59.8754C112.328 85.8673 132.177 113.512 125.405 121.621C118.761 129.577 88.9581 115.771 58.3141 90.6964L76.789 143.471L75.6751 143.881L53.6519 86.7988C50.7314 84.3043 47.9196 81.8008 45.23 79.3068ZM44.9324 77.4069C45.8956 75.6089 46.8257 73.5875 47.7023 71.378L41.0385 54.1059L28.932 57.8998C28.8526 58.8203 28.7873 59.7288 28.7357 60.6236C33.3584 65.9941 38.8117 71.6655 44.9324 77.4069ZM44.3398 78.4776C42.7925 81.1817 41.2006 83.2561 39.6592 84.6113C37.9722 86.0946 36.5001 86.5907 35.2736 86.3801C34.0472 86.1694 32.8279 85.211 31.7396 83.251C30.6579 81.3029 29.8071 78.5332 29.2639 75.0912C28.6875 71.439 28.4691 67.106 28.6531 62.3398C33.1839 67.5296 38.4606 72.9754 44.3398 78.4776ZM52.7476 84.4549C50.3609 82.3839 48.0518 80.3097 45.828 78.2431C46.692 76.6561 47.5288 74.8978 48.3251 72.9923L52.7476 84.4549ZM55.5414 88.3986L63.2123 108.281L56.5459 89.2378C56.2097 88.9582 55.8749 88.6785 55.5414 88.3986ZM55.7795 87.0486C55.4018 86.73 55.0258 86.4112 54.6516 86.0923L48.9755 71.3803C49.2069 70.7861 49.4343 70.1792 49.6575 69.5605L55.7795 87.0486ZM57.5579 88.5362C73.0479 101.388 88.3862 111.372 100.667 117.147C106.848 120.054 112.192 121.864 116.357 122.465C120.6 123.078 123.222 122.387 124.494 120.863C125.766 119.34 125.974 116.642 124.606 112.587C123.262 108.607 120.514 103.688 116.534 98.1452C108.585 87.0742 95.8851 73.7369 80.3112 60.786C73.6981 55.2867 67.1098 50.3087 60.7724 45.9563L54.644 48.5565C54.4513 50.016 54.2253 51.4964 53.9652 52.9925C53.0395 58.3171 51.7732 63.3105 50.284 67.7578L57.5579 88.5362ZM60.9086 44.6121L61.5409 44.3438L60.8382 44.564C60.8616 44.58 60.8851 44.596 60.9086 44.6121ZM59.3938 45.0166C59.4658 45.0654 59.5379 45.1142 59.61 45.1631L54.8145 47.1978C54.8452 46.939 54.875 46.681 54.9036 46.4237L59.3938 45.0166ZM58.1338 44.1705C57.1752 43.5314 56.2232 42.9072 55.2786 42.2985C55.2133 43.2332 55.1333 44.1811 55.0385 45.1405L58.1338 44.1705ZM54.2136 40.2127C54.4602 35.105 54.2515 30.4675 53.6404 26.5953C53.0972 23.1533 52.2464 20.3836 51.1647 18.4355C50.0763 16.4755 48.8571 15.5171 47.6307 15.3065C46.4042 15.0958 44.9321 15.5919 43.2451 17.0752C41.5683 18.5495 39.8317 20.8748 38.1578 23.936C37.2191 25.6528 36.3103 27.5822 35.45 29.6918L35.5993 30.0433C41.215 32.5523 47.5171 35.9879 54.2136 40.2127ZM36.2843 31.6568C36.5068 31.7595 36.7304 31.8638 36.9551 31.9694C42.2003 34.436 48.0035 37.6706 54.138 41.5685C54.0565 42.8617 53.9464 44.1826 53.8069 45.5264L43.5391 48.744L36.2843 31.6568ZM33.4163 30.3861C28.7224 28.3989 24.6127 27.1344 21.2648 26.6513C17.0215 26.0391 14.3995 26.7301 13.1274 28.2534C11.8554 29.7768 11.6472 32.4751 13.016 36.5297C14.3596 40.5096 17.1079 45.4286 21.0877 50.9715C22.3308 52.7028 23.6901 54.4895 25.1583 56.3215L28.018 55.1082C28.2545 53.0143 28.5606 50.8707 28.9391 48.694C30.0682 42.1993 31.704 36.1974 33.6331 31.0783L33.4163 30.3861ZM24.7954 57.7619L23.054 58.5007L24.9205 57.9158C24.8787 57.8645 24.837 57.8132 24.7954 57.7619ZM26.1403 57.5336C26.0708 57.4488 26.0016 57.364 25.9326 57.2794L27.8747 56.4553C27.8564 56.6396 27.8385 56.8234 27.8213 57.0068L26.1403 57.5336ZM26.9542 58.5195C27.1773 58.7875 27.4026 59.0563 27.63 59.326C27.6544 58.9801 27.6808 58.6323 27.7092 58.2829L26.9542 58.5195ZM41.7464 52.6431L48.3359 69.7227C48.5718 69.0842 48.8031 68.4319 49.0295 67.7665L43.5083 51.995L53.5539 47.7327C53.5925 47.4247 53.6297 47.1177 53.6653 46.8118L42.866 50.196L35.2357 32.2241L41.0698 50.8566L29.1219 55.9262C29.0972 56.1587 29.0734 56.3905 29.0505 56.6216L41.7464 52.6431ZM52.796 52.7917C51.9801 57.4845 50.8988 61.9068 49.6373 65.9104L44.9954 52.6504L53.3738 49.0955C53.2049 50.3138 53.0125 51.5469 52.796 52.7917ZM39.6164 50.187L34.2156 32.9387C32.5457 37.6501 31.122 43.0637 30.1082 48.8948C29.7735 50.8201 29.4962 52.7174 29.2743 54.5751L39.6164 50.187Z" fill="#707070"/>
</svg>
