<svg width="124" height="137" viewBox="0 0 124 137" fill="none" xmlns="http://www.w3.org/2000/svg">
<path fill-rule="evenodd" clip-rule="evenodd" d="M83.9415 30.1398L73.3522 46.5542L55.8317 37.5416L72.4126 48.2184L43.4036 100.353L74.0494 49.1635L91.5863 58.1845L75.0208 47.5176L83.9415 30.1398ZM72.9298 45.0046L89.4966 19.3244L90.5303 19.9212L76.574 47.1086L102.49 63.7968L101.899 64.8216L74.5045 50.7298L25.0555 133.328L24.0207 132.731L70.8285 48.6075L44.9275 31.9292L45.5192 30.9044L72.9298 45.0046Z" fill="#707070"/>
<path fill-rule="evenodd" clip-rule="evenodd" d="M31.9117 110.782C45.3595 109.815 61.7838 104.615 77.9548 95.3599C94.1258 86.1043 106.881 74.6033 114.449 63.5411C122.072 52.4011 124.211 42.0798 120.016 34.8769C115.822 27.6741 105.736 24.3496 92.1934 25.3233C78.7456 26.2901 62.3213 31.4898 46.1502 40.7454C29.9792 50.0009 17.2244 61.502 9.65562 72.5641C2.03348 83.7042 -0.105579 94.0254 4.08898 101.228C8.28354 108.431 18.3691 111.756 31.9117 110.782ZM3.05852 101.818C12.1725 117.469 45.9734 115.039 78.5549 96.3904C111.136 77.7422 130.161 49.9377 121.047 34.2872C111.933 18.6367 78.1316 21.0667 45.5502 39.7149C12.9687 58.363 -6.05549 86.1676 3.05852 101.818Z" fill="#707070"/>
<path fill-rule="evenodd" clip-rule="evenodd" d="M40.1182 115.52C34.2316 103.391 30.5226 86.5668 30.4526 67.9345C30.3826 49.3022 33.9654 32.5057 39.7611 20.4198C45.5976 8.24884 53.4666 1.23572 61.8017 1.26688C70.1369 1.29805 78.0587 8.37021 83.9868 20.5852C89.8734 32.7147 93.5825 49.5385 93.6525 68.1708C93.7224 86.8031 90.1396 103.6 84.3439 115.685C78.5074 127.856 70.6384 134.87 62.3033 134.838C53.9682 134.807 46.0463 127.735 40.1182 115.52ZM62.3078 136.026C44.197 135.958 29.4011 105.47 29.2601 67.93C29.1192 30.3895 43.6865 0.011865 61.7973 0.0795789C79.908 0.147293 94.7039 30.6348 94.8449 68.1752C94.9859 105.716 80.4185 136.093 62.3078 136.026Z" fill="#707070"/>
</svg>
