<svg width="173" height="47" viewBox="0 0 173 47" fill="none" xmlns="http://www.w3.org/2000/svg">
<path d="M172.283 4.69789C172.309 4.44233 172.268 4.18443 172.164 3.94937C172.061 3.71431 171.898 3.51009 171.692 3.35662C171.486 3.20314 171.244 3.10566 170.989 3.07366C170.734 3.04166 170.475 3.07625 170.238 3.17404C169.383 3.58014 168.529 3.98919 167.677 4.40123C167.223 4.40884 166.791 4.592 166.47 4.91212C166.425 4.95852 166.38 5.00563 166.335 5.05199C163.385 6.48666 160.453 7.95767 157.56 9.50382C157.327 9.61933 157.139 9.80953 157.027 10.0441C156.914 10.2786 156.884 10.5439 156.94 10.7978C156.996 11.0517 157.136 11.2796 157.336 11.445C157.537 11.6104 157.787 11.7038 158.047 11.7105C158.153 11.8617 158.29 11.989 158.449 12.0842C160.041 13.0399 161.563 14.1071 163.005 15.2776C157.303 22.5986 149.622 28.1309 140.872 31.2187C132.121 34.3065 122.669 34.8202 113.636 32.6988C110.928 32.0425 108.29 31.1287 105.756 29.9699C107.064 28.3964 108.222 26.7044 109.216 24.9159C113.697 16.779 115.067 -0.323466 101.538 0.00465476C88.203 0.327883 86.5519 16.6104 93.4683 25.0946C95.4364 27.4774 97.78 29.5232 100.407 31.1512C89.569 41.5302 71.4302 45.8051 57.738 43.2545C52.6753 42.308 47.9668 39.998 44.1198 36.5734C54.0038 34.4332 64.1408 29.7956 63.9569 18.9196C63.7823 8.6002 50.6852 3.46482 42.6 8.70534C33.6726 14.4923 33.2365 26.461 38.5341 34.7115C37.7991 34.8165 37.0691 34.917 36.3494 35.0166C23.67 36.7721 7.40066 35.403 2.10264 21.5349C1.59107 20.1957 -0.39821 21.0814 0.0710672 22.4164C4.86941 36.0657 20.3101 39.3723 33.1744 38.1716C35.3493 37.9686 37.8505 37.6889 40.4652 37.262C40.5304 37.3355 40.5922 37.4117 40.6586 37.4843C50.4265 48.1384 66.483 48.4311 79.5986 45.1817C88.1832 43.0549 96.837 39.0199 103.221 32.7395C113.504 37.9251 126.893 38.4673 137.267 35.9622C148.504 33.1954 158.486 26.7369 165.616 17.6215C166.161 18.1585 166.696 18.7096 167.213 19.2866C167.351 19.4471 167.519 19.5786 167.709 19.6732C167.898 19.7679 168.104 19.8238 168.316 19.8378C168.555 20.1759 168.795 20.5124 169.02 20.8651C169.21 21.0963 169.462 21.2674 169.748 21.3573C170.033 21.4472 170.338 21.4521 170.626 21.3714C170.914 21.2907 171.172 21.128 171.369 20.903C171.565 20.678 171.693 20.4005 171.734 20.1044C171.9 14.9684 172.097 9.83331 172.283 4.69789ZM41.8728 34.1909C40.4483 32.5071 39.3779 30.5533 38.7257 28.4463C38.0735 26.3394 37.8528 24.1226 38.0769 21.9284C39.1344 11.9752 50.8197 4.7273 58.6596 13.1875C63.6903 18.6163 59.9134 26.2375 54.5638 29.7849C50.8442 32.2515 46.3511 33.4183 41.8728 34.1909ZM102.89 28.5058C96.3352 24.7862 91.0851 18.9931 92.702 11.0287C93.693 6.14721 98.4467 2.39968 103.508 3.44224C110.287 4.83856 110.026 13.6408 108.396 18.7042C107.218 22.2997 105.348 25.6296 102.89 28.5058H102.89Z" fill="#3F3F3F"/>
</svg>
