<svg width="122" height="96" viewBox="0 0 122 96" fill="none" xmlns="http://www.w3.org/2000/svg">
<path fill-rule="evenodd" clip-rule="evenodd" d="M1.34893 0.0999726C1.15021 0.138674 0.765441 0.400587 0.493877 0.68202L0 1.19362V43.8689V86.5442L0.443429 86.9842C0.687119 87.2262 1.18732 87.4934 1.55499 87.5781C1.94131 87.6671 15.6972 87.7336 34.1765 87.736L66.1298 87.7401L68.6116 89.2732C70.2176 90.2651 71.1997 90.7727 71.3948 90.7112C71.5605 90.6589 71.8789 90.2702 72.1023 89.8474C72.4169 89.2518 72.5852 89.0956 72.8503 89.1537C73.0384 89.1947 73.9234 89.4246 74.8169 89.6644C78.1608 90.562 83.0868 90.8998 86.1562 90.4424C87.2958 90.2724 89.6835 89.7311 90.2579 89.5123C90.4226 89.4495 90.7697 89.7853 91.2934 90.5136C93.5127 93.6008 96.4456 95.583 99.3597 95.9658C100.626 96.132 102.516 95.6852 104.316 94.794C110.261 91.8507 115.809 84.3169 117.913 76.3295C119.855 68.9582 119.049 63.6706 115.422 59.9912L114.387 58.9405L116.407 60.1852C117.519 60.8698 118.581 61.43 118.768 61.43C119.34 61.43 119.725 60.8635 120.104 59.461C121.444 54.5075 120.558 49.9435 117.623 46.6838C116.721 45.6816 116.672 45.5854 116.957 45.3783C117.276 45.1464 118.692 44.7952 119.306 44.7952C119.5 44.7952 119.809 44.9862 119.994 45.2196C120.41 45.7439 121.191 45.7834 121.674 45.3044C122.128 44.8538 122.106 44.26 121.62 43.8063C121.098 43.32 120.551 43.3395 120.064 43.8616C119.762 44.185 119.496 44.286 118.947 44.286C118.551 44.286 117.739 44.4793 117.144 44.7156L116.062 45.1454L114.953 44.3758C114.343 43.9524 113.335 43.3701 112.714 43.0813L111.584 42.5565V22.0253C111.584 -0.632806 111.656 0.806609 110.497 0.260717C109.955 0.00559427 105.555 -0.0149434 55.809 0.00627444C26.0546 0.0190051 1.54747 0.0611016 1.34893 0.0999726ZM110.582 0.986197C110.963 1.29207 110.989 1.43534 111.042 3.53233L111.098 5.75443H55.8483H0.598535V3.54778C0.598535 1.5674 0.633592 1.30633 0.940555 1.00164C1.28121 0.663517 1.51053 0.662159 55.7303 0.662159C109.062 0.662159 110.186 0.668778 110.582 0.986197ZM102.863 2.0201C102.62 2.26045 102.521 2.58585 102.521 3.13463C102.521 4.38716 102.699 4.56624 103.946 4.56624C104.551 4.56624 105.107 4.47763 105.222 4.36255C105.335 4.25052 105.428 3.72024 105.428 3.18402C105.428 2.36892 105.365 2.16574 105.048 1.9449C104.494 1.5601 103.284 1.60168 102.863 2.0201ZM107.043 1.86495C106.98 1.96646 107.183 2.31019 107.494 2.6288L108.06 3.2083L107.513 3.76811C107.213 4.07585 106.967 4.38139 106.967 4.44708C106.967 4.71137 107.444 4.54111 107.822 4.14188C108.043 3.90848 108.312 3.71752 108.42 3.71752C108.529 3.71752 108.798 3.90848 109.019 4.14188C109.24 4.37528 109.523 4.56624 109.647 4.56624C110.03 4.56624 109.9 4.14561 109.36 3.63146L108.845 3.14227L109.393 2.58093C109.807 2.15708 109.893 1.97155 109.745 1.82388C109.596 1.6762 109.42 1.76379 109.027 2.18135L108.506 2.73454L107.902 2.20766C107.223 1.61628 107.203 1.6083 107.043 1.86495ZM104.829 3.2083V3.97214L104.017 4.02391L103.205 4.07568V3.2083V2.34091L104.017 2.39268L104.829 2.44446V3.2083ZM98.1929 4.16548C97.9174 4.4391 98.3715 4.56624 99.6234 4.56624C100.717 4.56624 100.981 4.5165 100.981 4.31162C100.981 4.10691 100.719 4.05701 99.6419 4.05701C98.905 4.05701 98.2531 4.1059 98.1929 4.16548ZM110.986 11.6105V16.8726H55.7493H0.51303L0.467713 11.7822C0.442745 8.98243 0.459674 6.59534 0.505163 6.47737C0.571686 6.30542 11.4635 6.27147 55.7867 6.30576L110.986 6.34853V11.6105ZM20.9487 8.78773C20.9487 9.03708 20.787 9.12331 20.1947 9.18951C19.2039 9.30035 18.4896 9.82724 18.1341 10.7092C17.6518 11.9052 18.1578 13.2565 19.287 13.7883C20.3796 14.303 21.4253 14.0879 22.2881 13.171C22.7267 12.705 23.0149 11.3559 22.6759 11.3559C22.5667 11.3559 22.4355 11.4895 22.3845 11.653C21.9379 13.0856 21.1587 13.7031 20.0571 13.4981C19.3807 13.3721 18.6486 12.6703 18.4882 11.9938C18.3595 11.4512 18.6952 10.5587 19.1938 10.118C19.5894 9.7685 20.7777 9.52085 20.7777 9.78785C20.7777 9.88342 20.6495 10.0106 20.4926 10.0703C20.2944 10.1457 20.262 10.2329 20.3861 10.3562C20.65 10.6181 21.975 10.1908 21.9741 9.84387C21.9733 9.48656 21.3431 8.47031 21.1223 8.47031C21.0269 8.47031 20.9487 8.61307 20.9487 8.78773ZM27.4852 8.90435C27.1224 9.15658 27.1051 9.27948 27.1051 11.6105C27.1051 13.9416 27.1224 14.0645 27.4852 14.3168C27.8262 14.5539 31.5031 14.581 63.2737 14.581C95.0443 14.581 98.7212 14.5539 99.0622 14.3168C99.4251 14.0645 99.4423 13.9416 99.4423 11.6105C99.4423 9.27948 99.4251 9.15658 99.0622 8.90435C98.7212 8.66722 95.0443 8.64006 63.2737 8.64006C31.5031 8.64006 27.8262 8.66722 27.4852 8.90435ZM103.938 8.91657C103.221 9.26759 102.616 10.4578 102.779 11.1964C102.948 11.9567 103.807 12.8531 104.489 12.98C104.805 13.0389 105.346 12.9945 105.691 12.8816C106.309 12.6789 106.329 12.6867 107.118 13.4589C107.911 14.2336 108.335 14.4346 108.335 14.0352C108.335 13.9218 107.975 13.4662 107.535 13.0228C106.795 12.2776 106.75 12.1838 106.937 11.7784C107.41 10.7476 106.956 9.41578 105.957 8.90299C105.308 8.56978 104.637 8.57436 103.938 8.91657ZM4.79512 10.2996L3.28527 11.601L4.20787 12.4265C5.96175 13.9961 6.40176 14.2981 6.51343 14.0092C6.57841 13.841 6.38244 13.5497 5.96141 13.1886C5.60246 12.8809 5.04736 12.3954 4.72791 12.1099L4.14717 11.5909L5.35415 10.5823C6.50368 9.62151 6.75592 9.27489 6.44434 9.08376C6.36773 9.03674 5.62555 9.58382 4.79512 10.2996ZM10.7581 9.17406C10.6337 9.37385 10.8107 9.55853 12.4449 10.9358L13.2557 11.6189L11.9719 12.6906C10.703 13.7498 10.5397 13.9608 10.8439 14.1474C11.0262 14.2592 13.9373 11.8759 13.9373 11.6148C13.9373 11.4595 11.6164 9.40797 11.0847 9.09344C10.9737 9.02775 10.8266 9.06407 10.7581 9.17406ZM98.7241 9.35297C99.0078 9.63458 99.0078 13.5865 98.7241 13.8681C98.4255 14.1645 28.1219 14.1645 27.8233 13.8681C27.5396 13.5865 27.5396 9.63458 27.8233 9.35297C28.1219 9.0566 98.4255 9.0566 98.7241 9.35297ZM106.154 9.83691C106.725 10.4507 106.763 11.1363 106.26 11.7701C105.761 12.4004 105.172 12.5986 104.477 12.3708C103.803 12.1502 103.376 11.5567 103.376 10.8414C103.376 10.1105 103.652 9.67158 104.287 9.39286C105 9.07969 105.578 9.21718 106.154 9.83691ZM111.071 29.9273V42.3881L110.173 42.1425C108.821 41.7726 106.324 41.6592 104.824 41.8994C102.293 42.3047 99.2636 43.6291 97.0054 45.3172C95.996 46.0718 95.8511 46.2494 95.8511 46.7311C95.8511 47.0886 95.9862 47.4016 96.2359 47.6221C96.4474 47.8092 99.391 49.669 102.777 51.755C108.83 55.4842 110.383 56.474 109.874 56.2805C109.733 56.2267 108.937 55.905 108.105 55.5655C106.141 54.7644 103.201 54.0333 100.914 53.7778C97.7575 53.4253 94.6041 54.0002 92.2907 55.3496C90.9797 56.1145 88.8994 58.2271 88.0881 59.6175C87.4328 60.7401 87.4159 60.7541 87.0621 60.4635C84.823 58.6255 83.1866 56.2454 81.92 52.9846C81.3782 51.59 80.6357 48.9549 80.6324 48.4155C80.6317 48.306 80.9199 48.1244 81.2725 48.012C82.6695 47.5668 82.7571 48.1205 80.0206 40.0828C78.6663 36.1051 77.4831 32.7759 77.3913 32.6848C77.2825 32.5768 77.401 32.319 77.7306 31.9464C78.4675 31.1135 78.3912 29.8419 77.5679 29.2327C77.156 28.928 77.0263 29.2001 77.2316 29.9382C77.3658 30.4206 77.3636 30.7775 77.2235 31.2414C76.9757 32.0623 76.8611 32.1195 76.1629 31.7721C75.2078 31.2966 73.9728 31.3923 72.9542 32.0207L72.0819 32.559L71.8247 32.0655C71.6833 31.7941 71.5677 31.1418 71.5677 30.6159C71.5677 29.5048 71.3185 29.4347 70.8317 30.4089C70.4306 31.2112 70.6694 32.2365 71.3784 32.7569C71.8422 33.0972 71.8516 33.1334 71.6358 33.7331C71.5126 34.0758 71.4083 34.7174 71.4042 35.1591C71.4001 35.6009 71.0507 38.8091 70.6278 42.2883C69.7571 49.4536 69.7189 49.0388 71.2479 49.0388H72.0597L72.1712 49.845C72.3865 51.4052 73.1427 54.5445 73.6499 55.9848C75.6528 61.6732 78.858 65.8221 83.6667 68.9514L85.2485 69.9808V71.9126C85.2485 74.2017 85.6218 76.9208 86.2773 79.405C86.6135 80.6796 86.6963 81.2396 86.5605 81.3233C85.6913 81.8605 80.7109 82.0007 78.0661 81.5624C75.295 81.1033 75.4059 81.1673 75.4727 80.0657C75.5049 79.5362 75.4525 79.0735 75.3537 79.0129C75.0861 78.8488 61.3511 77.3175 60.3238 77.3374C59.5329 77.3528 59.426 77.3143 59.426 77.0139C59.426 76.8263 59.1643 76.4131 58.8446 76.0957C58.1971 75.4531 57.3575 75.3215 56.7652 75.77C56.4779 75.9876 56.4679 76.0443 56.6898 76.1918C56.8309 76.2855 57.0861 76.3632 57.2569 76.3648C57.7084 76.3685 58.2635 76.6791 58.6689 77.1547L59.0236 77.5708L58.3016 78.2874C57.4183 79.1642 57.09 80.1622 57.3499 81.1792C57.4462 81.5555 57.4864 81.9254 57.4394 82.0011C57.2902 82.2406 56.4598 82.143 55.6879 81.7953C54.5946 81.3029 54.3947 81.3382 54.7217 81.9659C55.2014 82.8864 56.3938 83.2358 57.3616 82.7389C57.8074 82.5101 57.8705 82.5183 58.1655 82.842C58.3414 83.0351 58.7933 83.347 59.1695 83.5349C59.5457 83.7228 60.9909 84.574 62.3809 85.4265L64.9084 86.9762L33.3092 87.0227C15.9298 87.0482 1.53191 87.0263 1.31404 86.9742C0.382721 86.751 0.427525 88.5373 0.427525 51.5903V17.4667H55.7493H111.071V29.9273ZM24.1979 26.9604C22.9058 27.2168 22.3168 27.8361 22.3168 28.9384C22.3168 30.1018 22.1119 31.2158 21.898 31.2158C21.7874 31.2158 21.0402 31.5483 20.2377 31.9547L18.7786 32.6938L17.5422 31.8698C16.2586 31.0145 15.9699 30.9327 15.2264 31.2134C14.535 31.4743 13.1189 32.8829 12.9068 33.5204C12.6667 34.2428 12.7751 34.6008 13.6377 35.9335L14.3291 37.0018L13.4597 38.6493L12.5901 40.297L11.0536 40.3819C9.22958 40.4827 8.77966 40.7774 8.46551 42.0773C7.9058 44.3927 8.23875 45.1248 10.1864 45.8625C10.8793 46.1251 11.4599 46.3551 11.4765 46.3738C11.4931 46.3925 11.6319 47.248 11.785 48.2749L12.0632 50.1421L11.6566 50.4816C11.4327 50.6683 10.8957 51.1086 10.4632 51.46C9.33253 52.3785 9.26413 52.931 10.0783 54.5661C10.9924 56.4019 11.515 56.6132 13.61 55.994L14.773 55.6501L16.117 57.0039L17.461 58.3578L17.0637 59.6818C16.8407 60.4248 16.709 61.2 16.7638 61.4485C16.8907 62.0258 17.568 62.6438 18.6772 63.1941C20.2714 63.9849 20.9746 63.7699 22.2518 62.1005C22.9029 61.2494 22.9282 61.2354 23.5994 61.3554C23.9756 61.4227 24.8221 61.5644 25.4805 61.6703L26.6776 61.863L27.1056 63.0763C27.8107 65.0742 28.3453 65.4225 30.2874 65.1495C32.1841 64.883 32.7385 64.3833 32.7583 62.9237C32.7825 61.1275 32.8427 61.0384 34.6504 60.1206L36.2959 59.2853L37.4609 60.1031C39.0944 61.2495 39.654 61.209 41.0988 59.84C42.5519 58.4634 42.6154 57.8421 41.4734 56.1729C41.0952 55.6204 40.7859 55.096 40.7859 55.0079C40.7859 54.9198 41.0937 54.3249 41.4699 53.6858C41.8462 53.0467 42.154 52.4326 42.154 52.3211C42.154 51.7915 42.6897 51.5849 44.0643 51.5849C45.3862 51.5849 45.4579 51.5644 45.9889 51.0332C46.4455 50.5766 46.5758 50.2663 46.7461 49.2318C46.9296 48.1172 46.919 47.9149 46.6478 47.3646C46.3863 46.8335 46.1525 46.6714 44.9756 46.2046L43.6076 45.6617L43.3209 43.9131C43.1633 42.9511 43.0285 42.082 43.0217 41.9814C43.0147 41.8809 43.4786 41.461 44.0525 41.0483C45.1034 40.2928 45.5742 39.6703 45.5742 39.0372C45.5742 38.5349 44.844 36.9855 44.3138 36.3631C43.6804 35.6189 43.118 35.5398 41.5915 35.9801L40.3086 36.3502L38.9484 34.9836L37.588 33.617L37.9933 32.374C38.2467 31.5964 38.363 30.9281 38.3039 30.5895C38.1918 29.9492 37.4681 29.2926 36.2541 28.7299C34.7629 28.0386 34.2006 28.2178 32.9319 29.7895C32.1436 30.7658 32.0227 30.8522 31.6447 30.7095C31.4152 30.6229 30.5797 30.4622 29.7879 30.3522L28.3482 30.1524L27.9487 28.8881C27.4305 27.2482 26.9325 26.7944 25.6811 26.822C25.1946 26.8327 24.5271 26.895 24.1979 26.9604ZM26.7988 27.6266C26.9594 27.7802 27.3057 28.5169 27.5684 29.2638L28.0456 30.6217L29.2301 30.7516C29.8816 30.8229 30.8261 30.988 31.329 31.1184L32.2438 31.3555L32.8808 30.5727C34.5033 28.5794 34.8961 28.4536 36.5106 29.4096C37.9504 30.2622 38.0427 30.5345 37.4904 32.3027L37.0343 33.7633L38.5879 35.3054L40.1415 36.8475L41.6396 36.4597C43.0694 36.0893 43.158 36.0849 43.5857 36.3631C44.0929 36.6931 45.0639 38.4755 45.0557 39.0615C45.0485 39.5729 44.8383 39.8141 43.5487 40.792C42.5449 41.553 42.4709 41.6541 42.5584 42.144C42.6104 42.4351 42.7499 43.4186 42.8686 44.3294L43.0844 45.9853L44.543 46.5461C46.3697 47.2483 46.5293 47.4936 46.2445 49.1595C46.0024 50.5766 45.6038 51.0757 44.7143 51.0757C44.3684 51.0757 43.6315 51.1229 43.0769 51.1804L42.0685 51.2851L41.6586 52.2079C41.4332 52.7152 40.9985 53.5429 40.6927 54.047L40.1367 54.9635L40.9743 56.2802C41.435 57.0044 41.812 57.7841 41.812 58.0129C41.812 58.2938 41.4875 58.7509 40.8133 59.4202C39.5449 60.6792 39.2675 60.6907 37.5263 59.556L36.2134 58.7005L35.3661 59.2233C34.8999 59.5109 34.0626 59.9298 33.5053 60.1542L32.4919 60.5622L32.4001 62.057C32.3496 62.8791 32.2156 63.7174 32.1022 63.9201C31.8771 64.3222 31.2355 64.5666 29.9514 64.7393C28.7453 64.9015 28.212 64.6277 27.8524 63.6616C27.691 63.2277 27.4276 62.5291 27.267 62.1089L26.9753 61.3451L25.8858 61.232C25.2867 61.1699 24.4502 61.0382 24.0269 60.9392C22.8305 60.6595 22.7755 60.6826 21.8224 61.8632C20.6279 63.3425 20.3343 63.4409 18.9849 62.8141C17.7974 62.2626 17.1855 61.7078 17.1887 61.1857C17.1899 60.9934 17.3782 60.2538 17.607 59.5426L18.0233 58.2493L16.4881 56.6906L14.9531 55.1317L13.6738 55.4802C11.55 56.0585 11.3024 55.9585 10.4514 54.1791C9.79289 52.8021 9.89071 52.5036 11.3903 51.3159C12.5164 50.424 12.5954 50.3186 12.5084 49.8248C12.4569 49.5326 12.3208 48.556 12.2058 47.6547L11.9972 46.016L10.5313 45.448C8.69689 44.7373 8.53186 44.4832 8.82378 42.8192C9.11791 41.143 9.43172 40.8918 11.2362 40.8886C12.0164 40.8871 12.737 40.8298 12.8374 40.7613C12.9378 40.6927 13.2587 40.14 13.5507 39.5332C13.8426 38.9264 14.2771 38.117 14.5164 37.7346L14.9514 37.0392L14.1023 35.7046C13.6353 34.9705 13.2533 34.2676 13.2533 34.1423C13.2533 33.2573 15.0241 31.5553 15.9451 31.5553C16.1211 31.5553 16.8195 31.9428 17.4969 32.4166L18.7285 33.2778L20.6744 32.3171L22.6204 31.3562L22.7401 29.7711C22.8846 27.8578 23.0397 27.6665 24.6788 27.3788C25.9374 27.1579 26.3602 27.2073 26.7988 27.6266ZM76.0022 32.313C76.6272 32.634 77.382 33.5263 77.382 33.9448C77.382 34.2386 77.25 34.2713 76.0567 34.2722C74.8142 34.273 73.4462 34.4312 72.3947 34.6954C71.9475 34.8077 71.9415 34.7986 72.0782 34.1972C72.3846 32.8492 73.3464 32.0662 74.6972 32.0652C75.1485 32.0649 75.7357 32.1764 76.0022 32.313ZM73.8105 37.3328C73.8006 38.5898 73.7428 41.3046 73.6819 43.366L73.5714 47.1141L72.0566 47.4532C71.2233 47.6398 70.5411 47.7482 70.5403 47.6941C70.5372 47.4498 71.927 36.0122 72 35.6814C72.0611 35.4056 72.2702 35.2677 72.8084 35.1489C73.2077 35.0606 73.6005 35.0017 73.6814 35.018C73.7624 35.0342 73.8204 36.0759 73.8105 37.3328ZM25.566 36.5729C22.259 37.2804 19.4209 39.769 18.289 42.9535C17.3755 45.5237 17.8011 48.7894 19.3686 51.2357C23.1337 57.1115 31.9233 57.0958 35.7189 51.2065C37.5285 48.3985 37.7132 44.5788 36.1825 41.6114C34.8368 39.0024 32.4016 37.1807 29.4515 36.5758C27.8917 36.256 27.05 36.2555 25.566 36.5729ZM29.5201 37.0614C32.6679 37.7237 35.4182 40.2432 36.38 43.3453C36.8385 44.8239 36.8761 47.1602 36.4628 48.4905C35.4873 51.6318 32.9598 54.1035 29.9196 54.8896C28.7716 55.1863 26.5296 55.2244 25.395 54.966C23.944 54.6359 22.2221 53.6741 21.0855 52.5592C17.2739 48.82 17.3789 42.9252 21.3224 39.2524C23.4843 37.239 26.5144 36.4291 29.5201 37.0614ZM110.123 42.7564C112.259 43.2986 115.097 44.9405 116.696 46.5585L117.447 47.3188L117.235 48.388C116.931 49.9235 116.301 51.4829 115.413 52.8967C114.988 53.5738 114.681 54.1928 114.73 54.2724C114.78 54.3521 115.434 54.7713 116.185 55.2042C117.582 56.0098 119.793 57.9017 119.793 58.2913C119.793 58.4108 119.636 59.0132 119.444 59.6299C119.169 60.5132 119.023 60.751 118.759 60.751C118.574 60.751 114.057 58.0523 108.719 54.7538C103.382 51.4552 98.4185 48.392 97.6895 47.9465C96.8243 47.4177 96.3642 47.0297 96.3642 46.8289C96.3642 46.533 98.0748 45.1172 98.8722 44.7531C99.191 44.6075 99.7213 44.8972 102.686 46.8372C105.647 48.7741 106.243 49.1 106.933 49.159C108.813 49.3194 110.076 47.4281 109.248 45.6943C109.035 45.2511 108.462 44.7686 106.999 43.8015C105.117 42.5577 105.056 42.4988 105.531 42.3864C106.293 42.2061 108.729 42.4025 110.123 42.7564ZM80.0209 48.0695C80.083 48.5635 80.2781 49.5241 80.4544 50.2042C80.7342 51.2845 80.7414 51.4282 80.51 51.3401C78.4081 50.5396 75.6215 51.0193 74.152 52.4348C73.7722 52.8008 73.4199 53.0338 73.3695 52.9527C73.2381 52.7419 72.5938 48.9279 72.5938 48.3622C72.5938 47.9161 72.655 47.8777 73.6626 47.6905C74.9744 47.4469 77.2555 47.2257 78.7732 47.1947L79.9079 47.1716L80.0209 48.0695ZM81.3922 47.3223C81.303 47.4052 81.0565 47.5248 80.845 47.5883C80.5603 47.6737 80.4602 47.6347 80.4602 47.4376C80.4602 47.2515 80.6246 47.1716 81.0075 47.1716C81.3341 47.1716 81.4892 47.2324 81.3922 47.3223ZM72.0807 48.2749C72.0807 48.4554 71.8964 48.5295 71.448 48.5295C70.6157 48.5295 70.9639 48.1918 71.9525 48.04C72.0231 48.0291 72.0807 48.1349 72.0807 48.2749ZM119.03 49.9292C119.356 50.6118 119.737 51.7027 119.876 52.3537C120.13 53.5431 120.219 56.2632 120.027 56.9734C119.929 57.3353 119.878 57.3127 119.006 56.5219C118.23 55.8178 117.113 55.0213 115.759 54.2067C115.486 54.0428 115.511 53.9433 116.063 53.0101C116.78 51.7952 117.493 50.071 117.769 48.8862C117.954 48.0916 117.987 48.0514 118.202 48.3571C118.331 48.5392 118.703 49.2465 119.03 49.9292ZM80.4052 51.8966C80.9449 52.1698 81.1231 52.3951 81.3873 53.1382C81.7645 54.2 82.7581 56.2269 83.2179 56.8731C83.6484 57.4784 83.6229 57.5816 83.0692 57.4765C82.3665 57.3431 80.8946 57.6288 79.8588 58.0995C78.8119 58.5752 77.5664 59.7312 77.0737 60.6843L76.7392 61.3315L75.6341 59.1108C75.0262 57.8893 74.3169 56.2291 74.0576 55.4211L73.5865 53.952L74.0364 53.3664C74.5385 52.713 75.6566 52.0052 76.7469 51.6506C77.7042 51.3391 79.5494 51.4632 80.4052 51.8966ZM54.1897 52.0756C52.8236 52.309 52.5045 52.7176 52.1483 54.6886C51.9334 55.8787 51.6249 56.0753 49.8664 56.1423C48.0969 56.2099 47.8098 56.3834 47.2663 57.7133C46.7425 58.9948 46.8202 59.2775 48.0538 60.5813C49.3757 61.9782 49.4246 62.2749 48.5663 63.6875C47.6873 65.1346 47.764 65.7682 48.9778 67.0911C49.6673 67.8423 50.0449 67.9163 51.2596 67.5385C52.8375 67.0474 53.3385 67.089 53.8399 67.7529C54.0691 68.0564 54.4238 68.635 54.6283 69.0388C55.1131 69.9967 55.753 70.2759 57.0079 70.077C58.5595 69.831 58.8105 69.5297 59.1842 67.4655C59.2509 67.0973 59.4829 66.62 59.6999 66.4046C60.0447 66.0624 60.2631 66.013 61.4323 66.013C63.0446 66.013 63.4004 65.8137 63.9743 64.5902C64.6119 63.2313 64.5442 62.9424 63.2737 61.5997C61.9542 60.2051 61.913 59.9527 62.7607 58.4483C63.0899 57.8639 63.3589 57.1691 63.3585 56.9043C63.3575 56.0673 62.2169 54.6062 61.4071 54.4045C61.187 54.3497 60.5622 54.4566 60.0187 54.6423C58.7975 55.0594 58.0222 55.0728 57.6769 54.6827C57.5322 54.5194 57.1702 53.9526 56.8723 53.4234C56.5746 52.8943 56.2312 52.3791 56.1093 52.2786C55.7936 52.0186 55.0086 51.9356 54.1897 52.0756ZM55.6655 52.6042C55.8421 52.6981 56.2351 53.2377 56.5388 53.8033C57.4766 55.5496 58.1234 55.7988 60.0291 55.148C60.5784 54.9604 61.1655 54.8502 61.3338 54.9032C61.8566 55.068 62.8462 56.3559 62.8462 56.8717C62.8462 57.1318 62.5769 57.8309 62.2477 58.4254C61.3705 60.0092 61.4239 60.3565 62.7607 61.7695C63.372 62.4155 63.8722 63.0481 63.8722 63.1753C63.8722 63.6292 63.3337 64.9647 63.0497 65.2154C62.8535 65.3885 62.2848 65.4895 61.278 65.5296C59.4816 65.6012 59.0503 65.8956 58.7404 67.2613C58.2794 69.2928 58.178 69.4108 56.665 69.6711C55.7929 69.8214 55.3996 69.5513 54.8142 68.4003C53.9378 66.6769 53.2614 66.4082 51.3169 67.0106C50.7602 67.1831 50.1615 67.2871 49.9867 67.2416C49.4694 67.1073 48.4813 65.839 48.4813 65.3093C48.4813 65.0492 48.7507 64.35 49.0799 63.7556C49.957 62.1717 49.9036 61.8245 48.5669 60.4115C47.9555 59.7655 47.4553 59.1288 47.4553 58.9967C47.4553 58.5834 47.9646 57.3022 48.2558 56.9827C48.4754 56.7418 48.7977 56.6772 49.7793 56.6772C50.464 56.6772 51.2216 56.6027 51.4627 56.5117C52.0478 56.2908 52.5038 55.507 52.7398 54.3164C52.9911 53.0488 53.1939 52.8003 54.1247 52.62C55.1961 52.4124 55.3021 52.4112 55.6655 52.6042ZM116.952 53.3553C116.782 53.7958 117.02 54.1597 117.44 54.1005C117.723 54.0606 117.826 53.933 117.826 53.6218C117.826 53.3107 117.723 53.183 117.44 53.1431C117.209 53.1105 117.014 53.1954 116.952 53.3553ZM103.718 54.799C108.215 55.9079 112.193 57.7963 114.615 59.9721C117.237 62.3269 118.635 66.2493 118.343 70.4263C118.221 72.1623 117.605 75.4858 117.101 77.1245C116.859 77.913 116.672 78.2048 116.255 78.4465C115.23 79.0406 112.271 79.1202 108.72 78.6493C108.226 78.5838 107.815 78.5974 107.807 78.6794C107.799 78.7615 107.511 80.7353 107.166 83.0659L106.539 87.3031L105.941 87.4386C105.612 87.5131 104.78 87.528 104.092 87.4719L102.842 87.3697L102.96 85.6176L103.078 83.8655L101.313 83.9621L99.5482 84.0587L100.081 83.5654C101.772 81.9977 104.333 78.5244 105.516 76.1925C106.008 75.2226 106.216 74.9897 106.871 74.675C108.167 74.052 109.287 72.9136 109.988 71.5059C110.524 70.4301 110.631 70.023 110.693 68.8457C110.844 65.9327 109.307 63.3971 106.625 62.1334C105.79 61.7401 105.473 61.69 103.803 61.6875C102.114 61.6849 101.822 61.7313 100.938 62.1422C97.5243 63.7301 95.8877 67.8583 97.3611 71.1645L97.7049 71.9357L96.7084 73.4301C94.7095 76.4277 91.7093 79.1441 88.9413 80.4625C88.1276 80.85 87.4162 81.1216 87.3603 81.0663C87.1919 80.8989 86.4516 77.9176 86.1514 76.1976C85.7516 73.9066 85.7556 68.8498 86.1588 66.692C86.566 64.5137 87.504 61.7868 88.377 60.2436C89.9034 57.5457 92.6213 55.4185 95.546 54.6326C97.2507 54.1747 101.539 54.2619 103.718 54.799ZM54.6155 57.8598C53.5326 58.1848 52.587 59.3109 52.3528 60.5536C51.9949 62.4535 53.8042 64.4938 55.8348 64.4806C56.4508 64.4767 57.5567 63.9276 58.0897 63.361C58.6889 62.7244 58.913 62.1062 58.913 61.0905C58.913 60.0747 58.6889 59.4566 58.0897 58.82C57.2076 57.8825 55.8185 57.4986 54.6155 57.8598ZM83.2959 58.0338C83.849 58.1606 84.3197 58.5172 85.5618 59.7499C86.424 60.6059 87.1296 61.367 87.1296 61.4415C87.1296 61.5159 86.9738 61.6259 86.7835 61.6859C86.5932 61.7459 85.9804 62.2149 85.4221 62.728C84.1115 63.9323 83.5138 65.1422 83.4038 66.814L83.3231 68.0394L82.5635 67.4979C81.2546 66.565 79.1795 64.5517 78.1449 63.2109L77.151 61.9227L77.5115 61.1861C78.4059 59.3588 80.233 58.1524 82.5123 57.8837C82.5594 57.8783 82.912 57.9457 83.2959 58.0338ZM56.7461 58.4364C57.4727 58.7379 58.1735 59.5767 58.402 60.4192C58.9318 62.3722 57.1018 64.2816 55.064 63.9023C54.2316 63.7471 53.1838 62.7166 52.9387 61.8119C52.331 59.5674 54.6071 57.5493 56.7461 58.4364ZM86.2135 63.996C85.9854 64.7787 85.709 66.03 85.5994 66.7769C85.4898 67.5237 85.3619 68.3857 85.3154 68.6924L85.2307 69.25L84.5361 68.8625L83.8414 68.4748L83.9175 67.17C83.9772 66.1471 84.1109 65.6284 84.5373 64.7691C85.0193 63.7972 86.35 62.297 86.5521 62.4977C86.594 62.5391 86.4416 63.2135 86.2135 63.996ZM104.872 64.8533C106.047 65.1468 107.04 66.1957 107.32 67.4387C107.506 68.266 107.495 68.589 107.236 69.7862C106.914 71.2703 106.002 73.9332 105.765 74.0785C105.363 74.3253 101.507 72.4912 99.8468 71.2638L98.9686 70.6146L99.5446 69.205C99.8615 68.4296 100.122 67.6875 100.123 67.5556C100.129 67.078 100.975 65.8937 101.635 65.44C102.761 64.6653 103.549 64.5225 104.872 64.8533ZM99.9899 72.0187C101.128 72.8047 103.259 73.9076 104.615 74.4132C105.062 74.5797 105.428 74.784 105.428 74.867C105.428 75.4551 102.847 79.6335 101.638 81.0031L101.067 81.6499L99.9966 81.0031C98.5669 80.1392 97.3954 79.1158 96.4839 77.9349C95.1974 76.2678 95.2064 76.3733 96.2332 75.0433C96.7284 74.4019 97.48 73.2936 97.9033 72.5809C98.3265 71.8679 98.7268 71.2825 98.7928 71.28C98.8589 71.2772 99.3975 71.6098 99.9899 72.0187ZM95.6524 77.6847C96.5111 78.9399 98.5026 80.8042 99.7029 81.4767C100.218 81.7651 100.639 82.0651 100.639 82.1433C100.639 82.3679 98.0602 84.6314 96.6405 85.6529L95.3492 86.5817L94.4158 86.1577C93.2287 85.6181 92.002 84.4986 91.4818 83.4799C91.056 82.6457 90.6859 80.8607 90.8286 80.3291C90.8747 80.1573 91.3173 79.7268 91.8122 79.3724C92.3073 79.018 93.2068 78.2769 93.8113 77.7254C94.416 77.1739 94.927 76.7192 94.947 76.7148C94.967 76.7104 95.2844 77.1468 95.6524 77.6847ZM60.8847 78.7013C60.4204 79.6578 59.597 82.1866 59.597 82.6566C59.597 83.1241 59.2227 83.0667 58.7093 82.5205C58.0598 81.8293 57.8869 81.4027 57.8869 80.4917C57.8869 79.0082 59.0241 77.9072 60.5649 77.8989L61.2761 77.895L60.8847 78.7013ZM116.042 80.0709C113.682 86.0162 108.79 91.8811 104.266 94.1918C103.674 94.4941 103.146 94.6981 103.093 94.6453C102.804 94.3583 102.569 89.5796 102.79 88.4827L102.888 87.9947H104.833C105.905 87.9947 106.854 87.9184 106.946 87.8249C107.038 87.7316 107.381 85.7965 107.71 83.5247C108.038 81.253 108.346 79.3553 108.394 79.3078C108.442 79.2602 109.341 79.3156 110.392 79.4308C112.361 79.6466 115.106 79.5739 115.859 79.286C116.094 79.1962 116.309 79.1421 116.336 79.1659C116.363 79.1895 116.231 79.5968 116.042 80.0709ZM74.8673 80.3138C74.7813 80.758 74.4749 80.9812 74.4749 80.5997C74.4749 80.3751 74.8239 79.7123 74.9012 79.79C74.9323 79.8214 74.9171 80.057 74.8673 80.3138ZM108.836 80.3705C108.532 80.7344 108.838 81.205 109.38 81.205C109.68 81.205 109.804 81.0979 109.846 80.7998C109.938 80.1585 109.256 79.8688 108.836 80.3705ZM90.4212 81.5453C90.5842 83.5603 91.7777 85.3124 93.733 86.4077L94.7002 86.9496L93.2554 87.6703C91.5456 88.5231 89.2055 89.3321 87.6026 89.6245C86.5747 89.8121 86.4168 89.8038 86.1314 89.5475C85.5998 89.0698 84.9477 87.7166 84.7209 86.6201C84.3131 84.6482 85.2003 82.2316 86.4497 81.9119C87.2813 81.6993 89.1831 80.9867 89.6948 80.6961C89.9299 80.5625 90.1695 80.4505 90.2271 80.4471C90.2847 80.4438 90.3721 80.938 90.4212 81.5453ZM75.7677 81.6164C76.5145 81.796 77.4171 81.9909 77.7735 82.0496L78.4213 82.1564L77.7401 82.9245C76.4935 84.3304 75.9652 87.0209 76.5978 88.7426C76.749 89.1538 76.8483 89.5145 76.8186 89.5441C76.7334 89.6288 73.0919 88.6451 72.38 88.3452C72.0274 88.1965 71.7387 87.9767 71.7387 87.8563C71.7387 86.9606 73.8632 81.2898 74.1987 81.2898C74.3148 81.2898 75.0207 81.4368 75.7677 81.6164ZM71.3606 86.7988C71.4548 86.8925 70.8101 89.777 70.6949 89.777C70.366 89.777 60.1899 83.3585 60.1441 83.1222C60.1143 82.9686 60.1728 82.5376 60.274 82.1644L60.4582 81.4854L65.883 84.1161C68.8666 85.5628 71.3315 86.7701 71.3606 86.7988ZM85.0775 82.2029C85.0775 82.2384 84.8726 82.7116 84.6221 83.2546C84.238 84.0872 84.1677 84.4717 84.1737 85.7074C84.1811 87.2816 84.4983 88.2802 85.3385 89.3735L85.7603 89.9224L84.782 90.0438C83.6846 90.1798 79.1553 90.0212 78.2433 89.8148C77.2699 89.5943 76.9545 88.8583 76.9545 86.8065C76.9545 85.2447 76.9949 85.0369 77.4583 84.2062C77.7355 83.7097 78.2306 83.0696 78.5586 82.7838L79.1547 82.264L80.7908 82.3607C82.0956 82.438 83.956 82.3492 84.9492 82.1627C85.0199 82.1494 85.0775 82.1676 85.0775 82.2029ZM102.391 85.0666C102.233 85.7831 102.227 93.7734 102.384 94.4676C102.5 94.9821 102.479 95.0064 101.745 95.2104C101.291 95.3365 100.412 95.3914 99.5578 95.3469C98.3612 95.2846 97.9239 95.1741 96.8621 94.6657C96.1649 94.332 95.1329 93.6851 94.5686 93.228C93.5577 92.4095 91.2337 89.716 91.234 89.3636C91.2342 89.2642 91.8305 88.9176 92.5594 88.5932C94.5174 87.7221 95.8128 86.9752 97.4492 85.7741C98.892 84.7151 98.9305 84.6991 100.161 84.6411C100.847 84.6088 101.657 84.5672 101.96 84.5487C102.498 84.5158 102.509 84.529 102.391 85.0666ZM99.9802 86.0978C99.7406 86.3845 99.8757 86.8246 100.247 86.966C100.614 87.1061 101.008 86.7382 100.947 86.3122C100.886 85.8875 100.27 85.751 99.9802 86.0978ZM105.152 86.1156C104.982 86.5561 105.22 86.92 105.641 86.8608C105.923 86.8209 106.026 86.6933 106.026 86.3821C106.026 86.071 105.923 85.9433 105.641 85.9034C105.409 85.8708 105.214 85.9557 105.152 86.1156ZM71.7924 89.3266C71.4921 89.901 71.2915 89.7069 71.4673 89.0118C71.5357 88.7409 71.6565 88.6332 71.8216 88.6962C72.0387 88.7787 72.0347 88.8636 71.7924 89.3266Z" fill="black"/>
<path d="M54.0734 27.1983L53.4993 27.0706C53.0876 26.9795 52.6615 26.9765 52.2486 27.062L52.0822 27.4302C52.1377 27.3075 52.1932 27.1847 52.2486 27.062C51.2776 26.9591 50.8732 27.5837 50.5984 28.3746L50.9899 28.3424C50.8593 28.353 50.7288 28.3638 50.5984 28.3746C50.4059 28.8525 49.7131 28.9898 49.761 29.6312C49.7049 29.7325 49.6487 29.8338 49.5926 29.9351C49.3653 30.0212 49.2964 30.2264 49.2049 30.428C48.2583 32.5123 50.7969 35.1074 52.6301 35.6986C52.686 35.7043 52.7386 35.7276 52.7806 35.7652L53.1243 35.8842C53.0097 35.8444 52.8952 35.8048 52.7806 35.7652C54.114 36.9277 55.7178 37.4957 57.3928 37.9071C57.7313 37.8987 58.0655 38.1048 58.4075 37.9284C60.1588 37.5461 60.8061 36.7384 60.9344 34.775C61.0972 33.9144 60.9546 33.0234 60.5317 32.2584C60.7216 31.9085 60.424 31.7472 60.2575 31.5353L59.1207 30.0609C59.0597 29.8419 58.8794 29.7511 58.699 29.6606C58.6235 29.34 58.3086 29.3118 58.0972 29.1571C57.091 28.3613 55.9383 27.7753 54.7061 27.4331C54.4952 27.3548 54.2843 27.2766 54.0734 27.1983ZM52.1237 35.0095L51.4575 34.6621C51.6795 34.7779 51.9016 34.8937 52.1237 35.0095ZM51.4289 30.0388L52.1846 29.7904C52.3192 29.8325 52.4438 29.9455 52.5978 29.8498C53.3153 29.8434 53.9889 30.0933 54.6845 30.2146C55.3655 30.5525 55.8945 31.0991 56.4881 31.557C56.6006 31.8914 56.7131 32.2258 56.8255 32.5602C56.812 32.584 56.804 32.6105 56.8023 32.6378C56.8005 32.6652 56.8051 32.6925 56.8155 32.7178C56.5336 32.9145 56.4044 32.6652 56.2095 32.5333C55.6905 32.1821 55.1903 31.7688 54.513 31.7702C54.4096 31.7173 54.3062 31.6644 54.2029 31.6114C53.8365 31.3817 53.402 31.2888 52.9749 31.349C52.0044 31.4217 51.5747 30.9202 51.4289 30.0388ZM58.5591 35.8949C58.4708 35.9685 58.3689 36.0235 58.2592 36.0567C58.1495 36.0899 58.0344 36.1007 57.9206 36.0883C58.0805 35.8331 58.2252 35.6025 58.3698 35.3719C58.4354 35.3787 58.5014 35.3621 58.5561 35.3249C58.6108 35.2877 58.6509 35.2322 58.6693 35.1681C58.6962 35.1519 58.7226 35.1349 58.7484 35.117C58.7959 35.0379 58.8518 34.9871 58.9439 35.057L58.9203 35.1296L58.8789 35.1936C58.7723 35.4273 58.6657 35.6611 58.5591 35.8949ZM57.2113 34.819C57.4232 35.5714 56.8 35.3634 56.4624 35.4839C56.6252 35.2808 56.7879 35.0777 56.9507 34.8746L56.9596 34.8744C57.0435 34.856 57.1274 34.8375 57.2113 34.819ZM55.3937 33.0857C55.6099 33.3731 56.3427 33.3456 55.9442 34.0077C55.9273 33.9812 55.9041 33.9595 55.8767 33.9444C55.8493 33.9293 55.8186 33.9215 55.7875 33.9215C55.4814 33.7476 55.1753 33.5736 54.8689 33.3994C54.9576 33.0984 55.2381 33.2055 55.3937 33.0857ZM50.1633 31.3133L50.5233 30.5741C51.3164 31.4547 51.3117 31.6339 50.5182 32.3308C50.2813 32.0339 50.2433 31.6661 50.1633 31.3133ZM52.342 33.8007C52.1366 33.3648 51.4429 33.1715 51.7095 32.501C51.8296 32.4965 51.9497 32.4919 52.0698 32.4874C52.4243 32.8622 52.4267 33.4863 52.9429 33.7465L53.5966 34.088C53.9932 34.279 54.3897 34.47 54.7862 34.6611C54.1977 35.1258 53.9803 34.3705 53.5607 34.2806C53.4621 34.303 53.3634 34.3253 53.2647 34.3475C53.2251 34.3089 53.1753 34.2828 53.1213 34.2722L52.8721 33.9014C52.6954 33.8678 52.5187 33.8343 52.342 33.8007ZM59.0321 31.0728L59.3012 31.2509C59.4531 31.5388 59.6051 31.8267 59.7568 32.1146C59.865 32.495 60.1742 32.8294 60.0156 33.2707L60.1748 33.3741L60.3185 34.0351C60.2802 34.1558 60.2418 34.2765 60.2035 34.3972C60.2931 34.6194 60.1295 34.7747 60.0593 34.9547C60.0654 35.099 60.0715 35.2432 60.0776 35.3874L59.942 35.5349C59.9435 35.6746 59.8978 35.8107 59.8126 35.9208C59.7274 36.0309 59.6076 36.1084 59.473 36.1406C59.4428 36.33 59.4126 36.5193 59.3824 36.7086C59.2345 36.715 59.0865 36.7213 58.9386 36.7277C59.0712 36.5097 59.2038 36.2916 59.3364 36.0736L59.7549 35.4544C59.7205 35.3559 59.7144 35.2495 59.7374 35.1476C59.7603 35.0457 59.8114 34.9525 59.8846 34.8787C59.8595 34.7883 59.8344 34.698 59.8092 34.6077C59.8482 34.5001 59.8871 34.3925 59.926 34.285C59.7662 34.0682 60.0091 33.7163 59.686 33.5543C59.6627 33.4722 59.5838 33.3856 59.7047 33.315C59.6542 32.9399 59.4987 32.5872 59.2564 32.2985C59.2104 32.2575 59.1643 32.2164 59.1183 32.1754C58.8882 31.8093 58.6543 31.4442 58.8495 30.9804L59.0321 31.0728ZM56.9366 30.2572L57.112 30.3505C57.3391 30.7346 57.5663 31.1187 57.7934 31.5028C57.941 31.7313 58.0886 31.9598 58.2361 32.1882C58.2579 32.6692 58.3509 33.1504 58.2306 33.6308L58.6221 33.6802C58.4916 33.6638 58.3611 33.6473 58.2306 33.6308C58.1342 33.7773 58.0379 33.9238 57.9416 34.0704C57.7735 34.0112 57.6054 33.952 57.4373 33.8928C57.4064 33.8033 57.3756 33.7138 57.3447 33.6243C57.4715 33.3364 57.7295 33.0854 57.5922 32.7234C57.5157 32.3982 57.4459 32.0712 57.3613 31.7481C57.189 31.0897 57.6092 31.5115 57.7934 31.5028C57.5663 31.1187 57.3391 30.7346 57.112 30.3505C57.0536 30.3194 56.9951 30.2883 56.9366 30.2572C56.9344 30.1205 56.932 29.9838 56.9297 29.8472L56.9366 30.2572ZM53.0879 27.8878C53.0587 27.9579 53.0294 28.0282 53.0002 28.0987L53.0879 27.8878ZM57.2461 28.7619L55.4179 27.841C56.0273 28.1482 56.6367 28.455 57.2461 28.7619Z" fill="#FAE465"/>
</svg>
