<svg width="130" height="109" viewBox="0 0 130 109" fill="none" xmlns="http://www.w3.org/2000/svg">
<path fill-rule="evenodd" clip-rule="evenodd" d="M55.3129 0.576924C53.5192 2.84047 50.8688 6.41801 50.8681 6.57693C50.8676 6.71478 51.2132 6.76924 52.0894 6.76924H53.3116V9.23078V11.6923H55.8322H58.3528V9.23078V6.76924H59.575C60.3201 6.76924 60.7971 6.70678 60.7971 6.60909C60.7971 6.45462 55.9436 0 55.8273 0C55.796 0 55.5644 0.259693 55.3129 0.576924ZM40.9516 16.2693C39.7321 22.1339 36.888 27.627 33.1987 31.2428C31.4363 32.97 30.7199 33.4848 28.8107 34.3956C26.638 35.4321 25.1165 35.7553 22.4529 35.7459C19.2614 35.7348 18.1262 35.3619 13.6751 32.863C10.3932 31.0207 8.8897 30.5227 7.03436 30.6636C4.10416 30.886 0.858652 33.8279 0.147222 36.9064C-0.445051 39.4687 0.768062 42.7716 3.45521 45.9133L4.5539 47.1979L3.1535 47.6964C2.38326 47.9707 1.63287 48.3004 1.48576 48.429C1.09681 48.7696 1.15227 49.2759 1.76715 51.0001C3.73004 56.5047 3.81773 56.7907 3.51036 56.6925C3.11775 56.567 2.59331 56.8652 2.59331 57.2138C2.59331 57.5967 3.19383 58.2176 3.93001 58.5959C4.2664 58.7687 4.57544 58.9995 4.61684 59.1088C4.65824 59.2182 5.02091 60.2313 5.42284 61.3602C6.34676 63.9556 6.33454 63.9478 8.37595 63.2585C9.18653 62.9849 9.90132 62.7627 9.96426 62.765C10.0272 62.7675 10.0788 63.4196 10.0788 64.2145C10.0788 68.5015 11.1554 74.3752 12.6337 78.154C15.0106 84.2297 18.479 87.6537 23.6568 89.0357C24.9306 89.3757 25.4517 89.4289 27.5705 89.4353C30.2523 89.4434 31.9311 89.2092 34.5916 88.4557C35.4352 88.2169 36.2354 87.9786 36.3698 87.9263C36.5712 87.8478 36.5281 88.1366 36.1242 89.5695C35.8547 90.5255 35.4053 92.4501 35.1255 93.8463C34.8457 95.2424 34.5508 96.4297 34.4703 96.4846C34.39 96.5395 33.8701 96.6326 33.3151 96.6915C32.7603 96.7504 31.3643 96.9641 30.2131 97.1666C21.1518 98.7595 17.0851 101.042 19.1696 103.366C21.4252 105.88 30.4462 107.831 44.2984 108.8C48.1071 109.067 63.5573 109.067 67.366 108.8C76.2351 108.18 83.0004 107.188 87.5311 105.844C89.1327 105.369 91.6083 104.249 92.1952 103.734C93.1654 102.883 93.3063 101.865 92.5707 101.022C91.9998 100.367 90.1883 99.41 88.3571 98.7958C86.6507 98.2234 82.7109 97.3369 80.3511 96.9943C79.3849 96.854 78.4965 96.69 78.3772 96.6298C78.2578 96.5697 77.9707 95.7889 77.7391 94.8947C77.1673 92.6866 76.3535 90.0914 75.636 88.1877C75.1646 86.937 75.092 86.6227 75.2894 86.6853C75.4267 86.7289 76.2264 86.9169 77.0666 87.103C78.3155 87.3798 79.0821 87.4418 81.2677 87.443C83.623 87.4444 84.145 87.3964 85.6559 87.0394C88.737 86.3112 91.4583 85.0192 94.1 83.0301C100.011 78.5792 104.636 70.7889 106.845 61.5615C107.055 60.6856 107.306 59.8722 107.403 59.7538C107.685 59.4124 108.843 59.4984 109.945 59.9424C110.756 60.2693 111.105 60.3299 111.773 60.2605C112.679 60.1664 113.758 59.6148 114.238 59.0002L114.538 58.6155H119.638C125.328 58.6155 125.281 58.6238 125.56 57.5713C125.842 56.5027 130 36.7517 130 36.4759C130 36.325 129.874 36.087 129.721 35.947C129.468 35.717 128.673 35.6924 121.471 35.6924C117.088 35.6924 113.502 35.675 113.503 35.6539C113.504 35.6328 113.647 35.1654 113.82 34.6154C114.511 32.4204 114.336 29.7856 113.392 28.1577C112.1 25.9311 108.887 24 106.474 24C104.484 24 102.769 24.8913 99.5232 27.6128C96.7832 29.9103 95.5716 30.7177 93.9332 31.3374C90.7245 32.5513 87.1894 32.6047 83.9411 31.4887C82.4116 30.9633 81.4464 30.4379 79.7061 29.1837C76.3682 26.7783 73.352 23.528 71.1555 19.9697C70.3636 18.6866 68.5881 15.1011 68.5881 14.7846C68.5881 14.6916 68.3819 14.6154 68.1298 14.6154C67.8778 14.6154 67.6715 14.6833 67.6715 14.7662C67.6715 15.1349 69.1396 18.24 70.013 19.7186C72.3474 23.6705 75.251 26.9477 78.8438 29.6854C82.9837 32.8402 87.8912 33.9116 92.6419 32.698C95.2349 32.0356 96.7754 31.11 100.44 28.0133C103.351 25.5528 104.874 24.8286 106.867 24.9574C109.118 25.1028 111.92 26.9894 112.817 28.9639C113.313 30.0545 113.55 31.3827 113.424 32.3668C113.302 33.3159 112.944 34.7904 112.708 35.3124L112.536 35.6924H105.523C100.792 35.6924 98.4099 35.7465 98.2018 35.8585C98.0321 35.95 97.8055 36.2442 97.6983 36.5124C97.5909 36.7807 96.5867 41.3422 95.4667 46.6495L93.4301 56.2987L86.6011 56.3418C80.1328 56.3824 79.7549 56.4002 79.4504 56.6778C79.0309 57.0602 79.0228 57.8932 79.4345 58.3078C79.7344 58.6098 79.9437 58.6155 90.7392 58.6155C100.339 58.6155 101.738 58.6444 101.738 58.8427C101.738 58.9678 101.563 59.5388 101.349 60.1119C99.3947 65.3418 94.8018 69.5559 89.5438 70.9433C87.8566 71.3886 85.0875 71.4876 83.2688 71.1678C80.2367 70.6346 78.1438 69.6896 74.3859 67.1579C71.5296 65.2335 69.0249 63.8804 66.7178 63.0155C65.1257 62.4185 62.3628 61.6929 61.6808 61.6925C61.417 61.6924 61.204 61.5758 61.0956 61.3715C61.0018 61.195 60.9479 61.0342 60.9757 61.0141C61.0035 60.9939 61.2668 60.8159 61.5609 60.6187C61.855 60.4213 62.3706 60.0029 62.7067 59.6887C63.1113 59.3102 63.5757 59.0555 64.0815 58.9344C66.0811 58.4553 67.4247 56.5607 67.4167 54.2308C67.4131 53.1553 67.1433 52.4348 66.4441 51.6328C65.9228 51.035 64.6845 50.3078 64.1877 50.3078C63.9337 50.3078 63.9027 50.1828 63.9104 49.1924C63.921 47.843 63.5186 46.8784 62.6231 46.1064L62.0316 45.5965L62.4072 44.8491C63.0909 43.4894 62.8151 41.8927 61.7096 40.8096C61.1533 40.2645 60.487 40.0727 59.5771 40.1956C59.0377 40.2685 58.9718 40.237 58.8023 39.8247C58.5401 39.1874 57.393 38.2204 56.5603 37.9347C54.563 37.2493 51.7025 38.0608 50.9499 39.5262C50.761 39.8942 50.6113 39.9708 49.958 40.0341C48.8539 40.141 47.852 40.8076 47.3658 41.7593C47.0537 42.3702 46.9817 42.7251 46.9919 43.6041C46.9991 44.2153 47.1087 44.9391 47.242 45.2553C47.4725 45.8024 47.4684 45.8285 47.0958 46.1784C46.3509 46.8781 45.9556 47.9216 45.962 49.1713C45.9673 50.2079 45.9411 50.3078 45.6617 50.3078C45.2655 50.3078 44.3179 50.797 43.7001 51.3204C41.1622 53.4712 42.6803 58.4468 46.0462 59.0098C46.4785 59.0821 46.8786 59.3125 47.3679 59.771C47.7538 60.1327 48.2791 60.5379 48.5353 60.6713L49.0013 60.9139L48.6954 61.5836C48.405 62.219 48.343 62.2629 47.4773 62.443C43.7224 63.2239 39.3002 65.0489 35.5143 67.3793C29.2445 71.2389 27.127 72.0875 24.0569 71.9701C22.1681 71.8979 21.2706 71.5252 19.8925 70.2404C17.4551 67.9679 15.923 63.897 14.9675 57.1539C14.4444 53.463 14.2509 52.8913 13.0718 51.5545C12.5846 51.0021 12.3547 50.5775 12.2328 50.0045C11.9852 48.8418 11.6694 48.3078 11.2296 48.3078C11.0267 48.3078 10.8115 48.3879 10.7515 48.4858C10.6896 48.5867 10.4501 48.1376 10.1986 47.4493C9.72625 46.1562 9.41736 45.6936 9.02398 45.6905C8.89001 45.6894 8.03574 45.949 7.12587 46.2674L5.47126 46.8462L4.47676 45.7916C3.26349 44.5051 2.00485 42.5927 1.42297 41.1514C1.03754 40.1964 0.989267 39.889 0.989267 38.3847C0.989267 36.812 1.02165 36.6271 1.44756 35.7693C2.08261 34.4902 3.77174 32.8079 5.06445 32.167C7.08905 31.1633 8.76688 31.3456 11.7557 32.8944C12.808 33.4396 14.5752 34.3545 15.683 34.9276C18.6356 36.4551 21.1545 36.9593 24.1333 36.6188C30.613 35.8781 35.568 31.7224 39.2705 23.9231C40.553 21.2219 41.6097 17.9326 42.0755 15.1923C42.1699 14.6366 42.1574 14.6154 41.7345 14.6154C41.2994 14.6154 41.2923 14.6306 40.9516 16.2693ZM129.49 36.395C129.541 36.5274 128.632 41.1319 127.47 46.627L125.358 56.6182L124.814 56.5195C124.516 56.4652 124.241 56.3932 124.203 56.3595C124.165 56.3258 125.031 52.0945 126.127 46.9568C127.223 41.8191 128.091 37.5636 128.058 37.5001C128.024 37.4365 121.537 37.3847 113.642 37.3847H99.2875L99.1453 37.7308C99.0672 37.9213 98.1702 42.0231 97.1521 46.8462C96.1339 51.6693 95.264 55.7713 95.2186 55.9616C95.1508 56.2472 95.0321 56.3078 94.5418 56.3078C94.153 56.3078 93.9473 56.2379 93.9473 56.1059C93.9473 55.5539 98.0635 36.5802 98.2261 36.383C98.3911 36.1828 100.374 36.1539 113.907 36.1539C127.829 36.1539 129.408 36.1784 129.49 36.395ZM50.409 40.9061C50.409 40.9811 50.1754 41.0868 49.8898 41.1408C49.2254 41.2664 48.6209 41.7467 48.3531 42.3622C48.2162 42.6767 48.1381 42.7493 48.13 42.5693C48.1079 42.0801 48.5482 41.4328 49.0656 41.1933C50.0164 40.7534 50.409 40.6694 50.409 40.9061ZM56.4304 44.1398C56.7518 44.4973 57.8702 44.9944 59.0497 45.3038C59.5322 45.4304 59.9526 45.5599 59.9842 45.5918C60.0158 45.6236 60.1872 46.3688 60.3649 47.2479C60.8354 49.5739 60.8412 52.7538 60.3779 54.2308C60.0018 55.4302 59.2103 56.5825 58.2635 57.3099C56.7621 58.4632 54.3458 58.6332 52.4952 57.7156C51.3714 57.1585 50.0346 55.8204 49.5085 54.7258C48.6158 52.8687 48.5063 50.1061 49.204 47.0385L49.37 46.3078H50.0906C51.0767 46.3078 52.4301 46.0542 53.6148 45.6478C54.3417 45.3982 54.789 45.1198 55.2952 44.6013C55.6745 44.2128 56.0259 43.8841 56.0759 43.8705C56.1258 43.8571 56.2854 43.9782 56.4304 44.1398ZM56.4814 45.4839C55.9666 45.6325 56.2205 45.8462 56.9116 45.8462C57.2952 45.8462 57.7459 45.9199 57.913 46.0101C58.3959 46.2704 58.6189 46.0821 58.1749 45.789C57.7467 45.5064 56.92 45.3574 56.4814 45.4839ZM9.47587 46.5599C9.56019 46.7831 9.60618 46.9888 9.57822 47.017C9.55026 47.0453 7.81255 47.6862 5.71661 48.4413C2.31405 49.6673 1.88539 49.7882 1.7149 49.5701C1.60995 49.4358 1.52395 49.2379 1.52395 49.1305C1.52395 49.0231 1.60995 48.855 1.7149 48.7568C1.99584 48.4944 8.40223 46.1865 8.89872 46.1688C9.22319 46.1574 9.35854 46.2491 9.47587 46.5599ZM51.5201 46.9405C50.3917 47.2688 50.7023 48.121 52.0043 48.2687C53.6614 48.4568 54.3808 47.3479 52.875 46.9267C52.2339 46.7473 52.182 46.7479 51.5201 46.9405ZM56.3446 46.8785C55.8456 46.955 55.3818 47.4448 55.5042 47.7659C55.6993 48.2778 57.1518 48.4864 57.8945 48.1093C58.3649 47.8705 58.4775 47.3068 58.0948 47.1076C57.7279 46.9167 56.8473 46.8013 56.3446 46.8785ZM5.95416 47.3379C5.06979 47.6575 4.41779 48.0153 4.49402 48.1395C4.62662 48.3556 6.41245 47.7114 6.41245 47.4474C6.41245 47.2204 6.3324 47.2013 5.95416 47.3379ZM51.7294 47.6122C51.7482 47.9405 51.7112 47.9718 51.462 47.8375C51.1291 47.6581 51.0877 47.445 51.3638 47.3327C51.6852 47.2021 51.7068 47.2185 51.7294 47.6122ZM53.2917 47.4375C53.424 47.5981 53.3731 47.6848 53.0629 47.8271C52.7156 47.9865 52.6762 47.9781 52.7585 47.7618C52.8106 47.6251 52.8533 47.4498 52.8533 47.3721C52.8533 47.1641 53.0962 47.2002 53.2917 47.4375ZM56.4003 47.5944C56.4559 47.8879 56.4148 47.9436 56.1866 47.8836C55.7992 47.7815 55.6732 47.5319 55.9272 47.3699C56.2495 47.1642 56.3255 47.2002 56.4003 47.5944ZM57.8759 47.3699C58.1225 47.527 57.9753 47.8462 57.6564 47.8462C57.5352 47.8462 57.4362 47.7078 57.4362 47.5385C57.4362 47.2045 57.549 47.1613 57.8759 47.3699ZM54.0951 48.8804C53.9929 49.3693 53.8721 49.9464 53.8265 50.1627C53.721 50.665 54.085 50.9847 54.7628 50.9847C55.3849 50.9847 55.7558 50.6961 55.7558 50.2121C55.7558 49.7475 55.4877 49.7316 55.4228 50.1924C55.3814 50.4855 55.2803 50.5385 54.7628 50.5385C54.0737 50.5385 54.0728 50.5347 54.4051 49.1151C54.5343 48.563 54.5445 48.2571 54.4374 48.1493C54.3304 48.0415 54.222 48.273 54.0951 48.8804ZM11.6189 49.0328C11.7055 49.2624 11.8451 49.773 11.9291 50.1676C12.0329 50.6541 12.3029 51.1458 12.7689 51.6953C13.6749 52.7644 13.9765 53.391 14.2674 54.809C14.5984 56.423 14.5815 57.1172 14.2026 57.4625C14.0339 57.6161 13.8715 57.7133 13.8418 57.6787C13.7122 57.5284 10.8416 49.2842 10.8421 49.0642C10.8434 48.4781 11.4009 48.4556 11.6189 49.0328ZM48.423 50.5338C48.423 51.5245 48.3765 51.8185 48.2287 51.7615C47.9301 51.6461 47.6748 51.1524 47.5689 50.4853C47.4909 49.9938 47.5333 49.8191 47.7952 49.5555C48.3328 49.0141 48.423 49.1547 48.423 50.5338ZM61.7137 49.5385C61.8817 49.7078 62.0192 50.009 62.0192 50.2079C62.0192 50.7862 61.706 51.5318 61.3921 51.701C61.1185 51.8485 61.1026 51.7851 61.1026 50.5439C61.1026 49.1642 61.1935 49.0147 61.7137 49.5385ZM45.826 51.6924C45.826 51.777 45.7318 51.8462 45.6166 51.8462C45.1482 51.8462 44.1232 52.9956 43.833 53.8462C43.5648 54.633 43.5442 54.6556 43.5396 54.1675C43.5326 53.4256 44.1826 52.395 44.9498 51.9321C45.6571 51.5051 45.826 51.4588 45.826 51.6924ZM53.3497 52.7948C52.6493 52.9528 52.5674 53.125 52.939 53.659C53.2897 54.1635 53.9672 54.4616 54.7628 54.4616C55.556 54.4616 56.1183 54.2148 56.6628 53.6281C57.1263 53.1284 56.995 52.9768 55.9205 52.7716C54.9567 52.5875 54.2404 52.5939 53.3497 52.7948ZM56.4037 53.2064C56.4697 53.2728 56.3453 53.4959 56.1275 53.7021C55.7935 54.0181 55.5788 54.077 54.7628 54.077C53.9486 54.077 53.7318 54.0178 53.4009 53.7045C53.1843 53.4998 53.0378 53.3013 53.0752 53.2636C53.3887 52.9481 56.1009 52.9015 56.4037 53.2064ZM91.7326 57.0787C91.9324 57.7124 92.5417 57.8462 95.2282 57.8462C96.6133 57.8462 97.9238 57.7784 98.1402 57.6955C98.3568 57.6125 98.6129 57.3702 98.7094 57.157L98.8848 56.7693H104.675C108.375 56.7693 110.573 56.8268 110.762 56.9285C111.092 57.1065 111.154 57.6867 110.874 57.9693C110.734 58.1104 107.085 58.1539 95.3805 58.1539C86.9601 58.1539 79.9619 58.1119 79.8289 58.0605C79.4973 57.9324 79.5156 57.1344 79.8546 56.9355C80.023 56.8367 82.2536 56.777 85.8786 56.7739C91.5135 56.7695 91.6373 56.7758 91.7326 57.0787ZM98.3775 56.9178C98.3775 57.2765 97.6523 57.3847 95.2458 57.3847C92.8176 57.3847 91.9857 57.2567 92.1952 56.9155C92.316 56.7184 98.3775 56.7207 98.3775 56.9178ZM124.816 56.9285C125.146 57.1065 125.209 57.6867 124.928 57.9693C124.791 58.1073 123.063 58.1539 118.092 58.1539H111.439V57.4616V56.7693H117.98C122.196 56.7693 124.626 56.8259 124.816 56.9285ZM3.92726 57.2693C4.00945 57.3752 4.15167 57.6865 4.24348 57.9615L4.41046 58.4612L3.96453 58.229C3.49249 57.9832 2.89884 57.411 2.89884 57.2018C2.89884 57.0015 3.76349 57.0582 3.92726 57.2693ZM52.9296 58.4298C54.7825 59.5302 56.472 59.7679 58.1648 59.1664C58.904 58.9038 58.9113 58.9138 59.0455 60.3482C59.1636 61.6098 58.8709 62.0976 57.6457 62.6818C55.7237 63.5982 54.431 63.5756 52.4446 62.5907C51.0228 61.8858 50.8216 61.5185 50.9417 59.8462C50.9933 59.127 51.0755 58.277 51.1244 57.9573C51.2084 57.4078 51.2309 57.3875 51.5367 57.5853C51.7147 57.7004 52.3415 58.0804 52.9296 58.4298ZM14.7938 58.3539C14.9036 58.9461 14.8813 59.1078 14.6623 59.3073C14.4175 59.5304 14.3845 59.4972 14.2038 58.8476C14.03 58.2218 14.0384 58.115 14.2837 57.8421C14.4346 57.6741 14.5813 57.5601 14.6097 57.5887C14.6381 57.6173 14.7209 57.9616 14.7938 58.3539ZM113.943 58.8659C113.575 59.3133 112.452 59.8582 111.72 59.9456C111.123 60.0169 110.783 59.9524 109.994 59.6182C108.438 58.9589 107.047 59.139 106.816 60.0299C106.746 60.2987 106.65 60.3244 106.032 60.2404C104.137 59.9822 102.62 59.4324 102.337 58.9005C102.186 58.6162 102.336 58.609 108.157 58.6228C113.428 58.6353 114.11 58.6639 113.943 58.8659ZM102.674 59.6032C103.441 60.0307 104.666 60.3958 105.825 60.5427C106.665 60.6493 106.733 60.7404 106.531 61.5001C106.452 61.7967 106.337 61.8458 105.731 61.8425C104.768 61.8373 103.812 61.5987 102.89 61.1338C101.709 60.5376 101.589 60.3892 101.781 59.7609C101.87 59.4693 101.956 59.2309 101.974 59.2309C101.991 59.2309 102.306 59.3984 102.674 59.6032ZM14.2012 60.3462C14.2024 60.579 14.1792 60.7693 14.1494 60.7693C14.1196 60.7693 12.5628 61.3232 10.6899 62.0001C8.81699 62.677 7.12113 63.2309 6.92162 63.2309C6.54016 63.2309 6.03313 62.4673 6.3379 62.3519C10.0354 60.9522 13.9967 59.6265 14.0866 59.7585C14.1484 59.849 14.1998 60.1135 14.2012 60.3462ZM15.2222 63.077C15.2555 66.8792 15.5472 68.4927 16.5821 70.597C17.8108 73.0953 20.1233 75.077 21.81 75.077C23.3572 75.077 24.1984 73.726 23.3109 72.6658L22.9471 72.2309L24.3041 72.2803C26.9523 72.3766 29.2283 71.5032 34.2945 68.4463C38.5742 65.8638 40.1615 65.0667 43.1734 63.9876C44.4061 63.5459 47.8033 62.6155 48.1832 62.6155C48.3091 62.6155 48.4168 62.9221 48.4794 63.4584C48.647 64.8952 49.7234 67.2475 50.3183 67.4773C50.4484 67.5276 50.9194 67.1749 51.5051 66.5881C52.3904 65.7015 54.7897 63.8924 54.9078 64.0226C54.935 64.0526 55.0341 73.3193 55.1282 84.6155C55.2224 95.9117 55.3299 105.968 55.3673 106.962L55.4352 108.769L53.2659 108.768C48.8238 108.765 42.0688 108.376 37.1184 107.84C33.1427 107.409 33.5427 107.609 33.6637 106.107C34.0493 101.322 35.3915 93.3517 36.4412 89.6155C37.0116 87.5852 37.3553 86.7047 38.2067 85.0941C38.7382 84.0886 38.9216 83.6007 38.8104 83.4887C38.7226 83.4003 38.2394 83.2978 37.7366 83.2612C36.5901 83.1777 36.0198 83.4821 34.8078 84.8246C34.3353 85.3481 33.5791 85.9824 33.1274 86.2344L32.3063 86.6924L29.5565 86.701C27.224 86.7084 26.7193 86.7523 26.2308 86.9893C25.636 87.278 25.1703 87.815 24.9048 88.5184C24.7155 89.0195 24.6055 89.0197 23.0337 88.5203C18.8074 87.1777 15.8146 84.3903 13.665 79.7946C11.7848 75.7746 10.6314 70.5223 10.4331 65.077L10.3408 62.5385L12.2339 61.8692C14.2173 61.1678 14.6618 60.8555 14.6618 60.1626C14.6618 59.6202 14.8312 59.4572 15.035 59.8035C15.1303 59.9655 15.2067 61.3002 15.2222 63.077ZM50.9319 61.8835C51.237 62.3524 52.9391 63.2859 53.962 63.5453L54.6887 63.7295L53.5373 64.5264C52.9041 64.9647 51.9525 65.7518 51.4228 66.2756L50.4594 67.2278L50.1459 66.8832C49.4298 66.0959 48.7252 64.0876 48.7319 62.8524C48.7365 62.0032 49.1742 61.1013 49.8885 60.4695L50.4854 59.9413L50.5803 60.7152C50.6325 61.1407 50.7906 61.6664 50.9319 61.8835ZM60.8124 61.6155C60.9683 61.9539 61.0974 62.5524 61.0993 62.9455C61.1037 63.8893 60.5785 65.5875 59.9963 66.5115L59.5285 67.2536L58.4442 66.1827C57.8478 65.5936 56.9307 64.7984 56.4063 64.4153L55.4526 63.719L56.0534 63.6169C56.384 63.5605 57.1386 63.2809 57.7308 62.995C59.0247 62.3705 59.4208 61.8332 59.4216 60.7007L59.4222 59.9398L59.9755 60.4699C60.2798 60.7615 60.6564 61.277 60.8124 61.6155ZM103.431 61.7112C103.88 61.8829 104.718 62.0632 105.295 62.1119C106.332 62.1995 106.342 62.2045 106.243 62.5999C106.189 62.8196 106.132 62.9996 106.118 62.9998C105.878 63.0027 105.079 63.6589 104.737 64.1349C104.339 64.6878 104.269 64.9644 104.094 66.6721C103.807 69.4667 103.646 69.721 101.127 71.3784C100.329 71.9036 99.3416 72.6564 98.9328 73.0513C97.5279 74.4087 96.8144 76.6735 97.1454 78.7252L97.3138 79.7693L96.2798 80.741C93.542 83.3141 90.7318 85.0633 87.5612 86.1684C86.7618 86.4469 86.7404 86.4464 85.9572 86.1263C85.3027 85.859 84.6935 85.7837 82.4898 85.6977C79.4392 85.5786 79.3219 85.541 77.9032 84.2275C76.4594 82.8907 74.5072 82.0595 73.1259 82.193C72.2431 82.2786 71.867 82.6181 71.7075 83.4738C71.5761 84.1793 71.9797 85.3923 72.7018 86.4617C73.1763 87.1643 73.2898 87.4875 73.3711 88.3666C73.4979 89.7392 73.9501 90.6547 74.9742 91.6132C76.0706 92.6391 77.2455 94.332 77.5306 95.2964C78.1739 97.4732 80.0454 106.975 79.8662 107.155C79.6682 107.354 71.8003 108.16 67.1369 108.459C64.4635 108.631 55.7636 108.857 55.743 108.756C55.7156 108.62 55.3146 70.8072 55.3062 67.577C55.3015 65.6944 55.356 64.1539 55.4275 64.1539C55.6846 64.1539 57.6834 65.7759 58.5392 66.6789L59.4129 67.601L59.8084 67.2269C60.6243 66.4549 61.4081 64.2296 61.4081 62.6849C61.4081 62.3082 61.4781 62.0001 61.5635 62.0001C61.6491 62.0001 62.3817 62.1447 63.1918 62.3215C66.7163 63.0904 69.9378 64.5661 73.8586 67.2076C79.1363 70.7632 82.1884 71.8304 86.5381 71.6413C89.1302 71.5286 90.6807 71.1135 93.1156 69.8806C96.4002 68.2175 99.6926 64.7955 101.069 61.6142L101.487 60.6473L102.051 61.0232C102.361 61.2298 102.982 61.5395 103.431 61.7112ZM51.385 72.6681C50.5402 73.3999 51.0253 74.6155 52.1621 74.6155C52.887 74.6155 53.4643 74.1016 53.4643 73.4564C53.4643 72.3956 52.2369 71.9301 51.385 72.6681ZM52.9136 72.8153C53.0934 72.9478 53.1677 73.1669 53.1337 73.4644C53.0167 74.4883 51.453 74.598 51.3552 73.589C51.2792 72.8049 52.2469 72.3244 52.9136 72.8153ZM8.55133 74.577C8.55194 74.9221 9.35106 77.9323 9.70517 78.9232C11.4447 83.7909 14.7938 87.8264 18.7613 89.8354C19.9548 90.4398 22.1852 91.1846 23.2127 91.3218C24.5713 91.5034 24.0309 91.1663 22.2825 90.7417C19.4631 90.0569 17.1925 88.8087 15.0573 86.7697C13.4889 85.2718 12.3088 83.6615 11.2622 81.5913C10.1259 79.3435 9.62909 77.9049 8.94653 74.8847C8.86251 74.513 8.55087 74.2703 8.55133 74.577ZM102.988 76.9855C99.5467 83.193 94.1862 87.5895 88.3331 89.0047C87.1353 89.2943 86.7929 89.6352 87.8748 89.4612C89.0071 89.2789 91.2212 88.4798 92.8202 87.6764C96.7659 85.6938 100.718 81.743 103.247 77.2518C104.026 75.8695 104.291 75.2266 104.078 75.237C104.01 75.2404 103.519 76.0272 102.988 76.9855ZM60.2939 76.8767C60.0595 76.938 60.0264 77.0935 60.0647 77.9503L60.1096 78.9523L63.165 78.9923C66.1367 79.0312 68.1334 79.2826 68.9453 79.7203C69.4186 79.9753 69.5432 79.672 69.4244 78.5544L69.3162 77.5367L68.5321 77.312C67.0927 76.8993 65.7831 76.7715 63.165 76.7884C61.7366 76.7975 60.4446 76.8373 60.2939 76.8767ZM67.9215 77.443C68.9375 77.691 69.0179 77.7412 69.1054 78.1815C69.157 78.4413 69.1992 78.826 69.1992 79.0359C69.1992 79.3764 69.1534 79.4063 68.7791 79.31C66.8292 78.8084 66.049 78.723 63.2797 78.7083L60.3392 78.6924L60.3389 77.8695L60.3388 77.0464L63.5851 77.1116C65.9537 77.1593 67.126 77.2489 67.9215 77.443ZM51.2492 84.947C50.7679 85.2121 50.5618 85.557 50.5618 86.0977C50.5618 86.7157 51.0155 87.077 51.7912 87.077C52.6524 87.077 53.3102 86.1954 52.9851 85.4767C52.7068 84.8615 51.8687 84.6058 51.2492 84.947ZM52.3086 85.227C52.7744 85.4053 52.845 86.0458 52.4477 86.488C52.1443 86.8257 51.2865 86.8618 51.0277 86.5478C50.7327 86.19 50.8959 85.493 51.3256 85.2752C51.7892 85.0401 51.8169 85.0387 52.3086 85.227ZM51.3899 99.5995C51.1171 99.7212 50.8369 100.01 50.7225 100.288C50.5532 100.7 50.5615 100.823 50.7807 101.16C51.4698 102.219 53.1588 101.776 53.1588 100.536C53.1588 99.6837 52.2636 99.21 51.3899 99.5995ZM52.6623 100.043C53.2367 100.49 52.5978 101.439 51.7773 101.357C51.1214 101.292 50.8082 100.832 51.0653 100.313C51.343 99.7521 52.1203 99.6206 52.6623 100.043Z" fill="black"/>
<path d="M71.0684 90.4954C71.0238 90.3899 70.9792 90.2844 70.9347 90.1789C70.9546 90.0663 70.9483 89.9507 70.9161 89.8409C70.8839 89.7312 70.8267 89.6305 70.7492 89.5465C70.5871 89.5512 70.4251 89.556 70.263 89.5608C70.167 89.3938 70.0709 89.2268 69.9746 89.06C69.9202 89.0046 69.8657 88.9492 69.8112 88.8938L69.9746 89.06L70.1283 88.8989C70.0428 88.6839 69.936 88.4779 69.8092 88.2843C69.4369 87.8188 69.2035 87.1414 68.4004 87.2679C68.3906 87.2721 68.3802 87.2748 68.3695 87.2758C68.2755 86.9801 68.1099 86.9082 67.8509 87.1284C67.5393 87.0009 67.2424 86.9373 67.0456 87.3123C66.6919 87.4255 66.3382 87.5387 65.9845 87.6519L65.9623 87.6381C65.6784 87.9546 65.0757 87.8539 64.9666 88.3991C64.4052 88.6638 63.8758 88.9915 63.3884 89.3759C63.2296 89.4814 63.0708 89.5868 62.9119 89.6923C62.7178 89.9295 62.3564 89.9951 62.2575 90.33C62.2052 90.3419 62.151 90.3423 62.0985 90.3311C62.0416 90.4263 61.9847 90.5216 61.9278 90.6168C61.2871 91.0984 60.56 91.4867 60.1724 92.2417C59.9392 92.4923 59.7259 92.7607 59.5343 93.0444C58.8464 94.2414 58.6567 95.9127 59.9812 96.9399C60.1705 97.1437 60.4062 97.2989 60.6681 97.3924L60.6637 97.0798C60.6651 97.184 60.6666 97.2882 60.6681 97.3924C60.7854 97.5565 60.8637 97.7752 61.134 97.7252C62.3476 98.3153 63.5921 98.0757 64.8356 97.8628C65.2801 97.8494 65.7167 97.7418 66.1165 97.5471C66.9908 97.3435 67.8161 96.9687 68.5447 96.4444C68.9355 96.2643 69.3672 96.1339 69.5097 95.6529C69.6702 95.6238 69.8171 95.5441 69.929 95.4255C70.041 95.3069 70.1121 95.1555 70.132 94.9936C70.4402 94.9706 70.4289 94.7289 70.459 94.5156C70.9957 94.0924 70.9327 93.4883 70.9422 92.9061L70.9466 92.5861C71.1196 91.9032 71.1609 91.1937 71.0684 90.4954ZM59.8676 94.9903C59.76 94.9929 59.6523 94.9954 59.5447 94.998L59.8676 94.9903ZM69.3357 90.3381C69.49 90.8782 69.4369 91.4565 69.1869 91.9595C69.114 91.8886 69.0412 91.8177 68.9684 91.7467C68.8301 91.3811 68.6918 91.0155 68.5535 90.6498C68.5703 90.3792 68.2232 90.1824 68.3975 89.8799C68.7102 90.0326 69.023 90.1854 69.3357 90.3381ZM68.2235 91.9039C68.251 91.9824 68.2963 92.0534 68.3558 92.1114C68.2999 92.2615 68.244 92.4117 68.1882 92.5617L68.3558 92.1114C68.2963 92.0534 68.251 91.9824 68.2235 91.9039ZM66.2787 88.2299C66.5173 88.2231 66.7465 88.1353 66.9285 87.9809C66.9322 87.9832 66.9358 87.985 66.9395 87.9874C67.4002 87.9255 67.8674 87.9296 68.327 87.9996L68.3384 87.8085C68.4379 87.5074 67.9845 87.5601 68.015 87.3033C68.0222 87.2935 68.0303 87.2843 68.0391 87.2759C68.0104 87.5313 68.4618 87.4792 68.3625 87.7798L68.3512 87.9711C68.5038 88.0452 68.6392 88.1507 68.7483 88.2806C68.8575 88.4105 68.938 88.562 68.9847 88.7252C68.4511 88.6464 67.9061 88.7138 67.4078 88.9201C66.9028 88.9223 66.4047 88.8044 65.9543 88.5762C65.9618 88.3664 66.1933 88.3666 66.2787 88.2299ZM65.6872 90.0439C65.8893 89.9964 66.0915 89.949 66.2936 89.9015L66.3406 89.9121L66.3825 89.8882C66.5063 89.9865 66.6301 90.0848 66.7539 90.1831C66.8613 90.3963 66.9688 90.6096 67.0762 90.8229C67.0709 91.0383 67.1924 91.3396 66.7712 91.2733C66.6582 90.8613 66.4415 90.5856 65.9607 90.6578C65.7641 90.5478 65.5674 90.4377 65.3708 90.3277C65.4762 90.2331 65.5817 90.1385 65.6872 90.0439ZM65.9606 94.35L65.7993 94.3508C65.8531 94.3505 65.9069 94.3503 65.9606 94.35ZM65.9574 92.9184C65.9509 93.0852 65.9445 93.252 65.9382 93.4188C65.9443 93.4655 65.95 93.5123 65.9551 93.5592C65.9562 93.7183 65.9573 93.8774 65.9584 94.0365L65.9551 93.5592C65.95 93.5123 65.9443 93.4655 65.9382 93.4188C65.9445 93.252 65.9509 93.0852 65.9574 92.9184C65.5373 92.6476 66.2644 92.2051 65.8107 91.9394L65.7655 91.7793C65.7833 91.7302 65.7949 91.6789 65.7999 91.6269C65.9069 91.6238 66.0139 91.6206 66.1208 91.6175C66.2849 91.7797 66.449 91.942 66.6131 92.1042C66.5689 92.5329 66.6141 92.966 66.7458 93.3763L66.7621 93.389L66.2793 93.5596L65.9574 92.9184ZM63.666 92.2606C63.7409 92.1151 63.8157 91.9698 63.8905 91.8243L64.031 91.7461C64.2574 91.6034 64.484 91.4607 64.7104 91.318C64.7264 91.3246 64.7436 91.3278 64.761 91.3274C64.7783 91.327 64.7953 91.3231 64.811 91.3157C64.9235 91.4727 65.0359 91.6296 65.1484 91.7865C65.1862 92.3127 65.2242 92.8389 65.2621 93.3651C64.536 93.2774 63.8472 93.1357 63.666 92.2606ZM63.3872 91.2377C63.4345 91.2511 63.4847 91.2508 63.5318 91.2368L63.8213 90.9683C63.7244 91.0578 63.6282 91.1473 63.5318 91.2368C63.4847 91.2508 63.4345 91.2511 63.3872 91.2377C63.3346 91.0981 63.2819 90.9593 63.2293 90.8202L63.3872 91.2377ZM63.0211 93.6933C63.0903 93.8603 63.1598 94.0274 63.2294 94.1946C63.2303 94.4605 63.2311 94.7265 63.232 94.9925L63.2294 94.1946L63.0211 93.6933ZM69.9762 94.0325L69.9741 94.036C69.668 94.2243 69.6158 94.6017 69.3755 94.839C68.9821 95.1502 68.5888 95.4615 68.1954 95.7728C68.1514 95.8031 68.1022 95.8252 68.0503 95.8379C67.9558 95.7237 67.8614 95.6095 67.767 95.4952C67.6463 95.5437 67.5257 95.5921 67.4051 95.6405C67.0625 96.0398 66.5388 96.1499 66.1279 96.4402C66.0697 96.5451 66.0114 96.6501 65.9531 96.7551L66.2791 96.9162C66.1705 96.8625 66.0618 96.8088 65.9531 96.7551C66.0114 96.6501 66.0697 96.5451 66.1279 96.4402C66.0182 96.3308 65.9085 96.2215 65.799 96.1122C65.6385 96.2195 65.4779 96.3268 65.3174 96.4341C64.6312 96.5103 64.0387 96.8757 63.3872 97.0589C63.2258 97.0052 63.0639 96.9402 62.9114 97.0807C62.3531 97.0981 61.7982 96.9889 61.2881 96.7612C60.9184 96.4063 60.6436 95.9644 60.4889 95.4758C60.1843 94.8523 60.7923 94.3168 60.6592 93.7098C60.7808 93.5547 60.9024 93.3994 61.0239 93.2442C60.8513 93.1851 60.6787 93.126 60.506 93.0669L61.0239 93.2442C61.2592 93.2057 61.118 92.4866 61.6133 92.9182C61.5951 93.1791 61.5989 93.4411 61.6246 93.7014C61.7223 94.2525 61.3312 94.8431 61.7633 95.3627L61.7998 95.1358C61.7877 95.2114 61.7754 95.2871 61.7633 95.3627C61.7512 95.67 61.7981 95.9478 62.1258 96.0847L62.1288 96.1009C62.5507 96.5169 62.6145 96.5176 62.7375 96.1084C62.9165 95.8361 63.1254 95.9884 63.3544 96.0346C63.7517 96.1149 64.1689 96.2683 64.5562 95.9817C65.0883 95.8852 65.6214 95.791 65.9808 95.3217C66.4621 95.2908 66.6999 94.8592 67.0763 94.6557C67.3491 94.6487 67.579 94.3999 67.8734 94.5143C67.8832 94.5594 67.8844 94.606 67.8765 94.6515C67.7523 94.6753 67.6366 94.7319 67.5415 94.8154C67.4464 94.8989 67.3755 95.0063 67.3358 95.1265C67.2438 95.2281 67.1516 95.3297 67.0596 95.4314C66.5552 95.5023 66.274 95.9867 65.799 96.1122C65.9085 96.2215 66.0182 96.3308 66.1279 96.4402C66.5388 96.1499 67.0625 96.0398 67.4051 95.6405C67.5257 95.5921 67.6463 95.5437 67.767 95.4952C67.9157 95.2314 68.3694 95.2671 68.3818 94.8693C68.9282 94.6751 69.0777 94.2047 69.1899 93.7083L69.3164 93.5971C69.6265 93.6558 69.7335 93.0606 70.0492 93.3182C70.282 93.5082 69.9353 93.7813 69.9762 94.0325ZM70.6529 92.3857C70.6949 92.3486 70.7369 92.3115 70.7789 92.2743L70.6529 92.3857Z" fill="#FAE465"/>
</svg>
