<svg width="168" height="93" viewBox="0 0 168 93" fill="none" xmlns="http://www.w3.org/2000/svg">
<path fill-rule="evenodd" clip-rule="evenodd" d="M7.81763 0.164335C7.81959 0.254785 14.8259 3.67125 23.387 7.75663C31.9481 11.842 38.9767 15.222 39.0061 15.2678C39.0602 15.3522 16.3875 61.5044 16.1984 61.6945C16.1419 61.7513 12.5169 60.4622 8.14267 58.8301C2.73056 56.8106 0.146946 55.9053 0.0560748 55.9967C-0.114161 56.1678 -0.342319 56.0747 6.71711 58.7134C9.94518 59.9199 13.4099 61.2169 14.4167 61.5954C15.4235 61.974 16.2993 62.253 16.3632 62.2152C16.427 62.1775 17.5369 59.9921 18.8297 57.3587C20.211 54.5451 21.2414 52.5945 21.3286 52.6284C21.4103 52.6601 22.9939 53.3147 24.8475 54.0829C26.7013 54.851 28.2429 55.4796 28.2735 55.4796C28.3041 55.4796 28.9057 54.3567 29.6102 52.9843C30.3147 51.6119 30.9347 50.4879 30.9879 50.4864C31.1683 50.4816 34.0206 52.4056 35.5981 53.5963C37.8826 55.3206 39.4829 56.8132 41.3924 59C42.3219 60.0645 43.9751 61.8108 45.0662 62.8807L47.0502 64.8261L46.3408 65.6416C44.8954 67.3032 43.4963 69.4777 42.961 70.8944C42.5404 72.0074 42.4324 72.8622 42.5973 73.7759C43.0111 76.0705 44.6844 77.5894 46.7984 77.5894C47.6073 77.5894 47.8535 77.5262 48.7201 77.0956C49.5909 76.6628 50.0329 76.2856 52.2883 74.0499C54.6477 71.7111 54.8859 71.5107 55.1426 71.6487C55.2966 71.7317 55.4017 71.8398 55.3762 71.8892C54.5 73.5864 54.1687 74.9674 54.1719 76.9089C54.1742 78.3081 54.2189 78.6647 54.4732 79.3085C55.1046 80.9071 56.2236 81.8528 57.8641 82.1743C59.0003 82.3971 60.3872 82.1588 62.1076 81.4456C62.3 81.3658 62.3364 81.4242 62.3364 81.8133C62.3364 82.4187 62.6548 84.0487 62.919 84.797C63.7357 87.1085 65.9183 88.3748 68.7324 88.1697C69.3495 88.1246 70.0383 88.034 70.2628 87.9683C70.6604 87.8518 70.6756 87.8631 70.8333 88.3934C71.696 91.2942 74.4773 92.8484 78.8108 92.8513C81.2327 92.8528 82.891 92.3715 84.3937 91.2307L85.0845 90.7064L86.2951 91.2243C89.0757 92.4143 90.1762 92.7848 91.3955 92.9415C93.5837 93.2227 95.6244 92.4845 97.1481 90.8604C98.1011 89.8446 98.783 88.5966 98.9231 87.6112C98.9736 87.2565 99.0435 86.9724 99.0786 86.9799C100.297 87.2401 101.945 87.0483 102.952 86.5291C104.165 85.9042 105.355 84.6098 105.952 83.2678C106.313 82.4553 106.66 80.837 106.66 79.9711L106.66 79.3411H108.328C109.929 79.3411 110.029 79.3246 110.871 78.9238C112.447 78.1727 113.521 76.7176 113.865 74.8663C114.001 74.1361 113.95 72.5869 113.775 72.1292C113.722 71.9887 114.239 72.1374 115.508 72.6274C119.449 74.1493 122.191 74.9031 124.246 75.0294C125.279 75.0929 125.538 75.0614 126.367 74.7711C128.135 74.1512 129.756 72.6651 130.335 71.1314C130.649 70.3012 130.664 69.032 130.37 68.1568C129.995 67.0393 128.702 65.9016 126.011 64.3216C124.753 63.5826 123.639 62.9221 123.535 62.8539C123.386 62.7557 123.591 62.4734 124.516 61.4999C125.159 60.8235 126.196 59.6803 126.822 58.9594C128.028 57.5699 130.152 55.5811 132.174 53.9475C133.417 52.9436 137.098 50.4044 137.174 50.4983C137.197 50.5264 137.787 51.6589 138.485 53.0146C139.184 54.3703 139.778 55.4796 139.805 55.4796C139.841 55.4796 145.453 53.1805 146.751 52.634C146.837 52.5978 147.869 54.5489 149.251 57.3601C150.545 59.9934 151.656 62.1797 151.719 62.2185C151.783 62.2572 153.805 61.5514 156.215 60.6501C158.624 59.7489 162.236 58.3974 164.242 57.647C166.248 56.8966 167.938 56.2336 167.998 56.1736C168.149 56.0214 160.377 0.115035 160.195 0.0446992C160.115 0.0140671 153.936 2.91084 146.463 6.48217C138.99 10.0535 131.964 13.4069 130.849 13.9341C129.734 14.4614 128.751 14.9494 128.663 15.0187C128.54 15.1156 128.565 15.2656 128.77 15.6704C128.917 15.9595 129.018 16.2112 128.995 16.2299C128.972 16.2484 127.218 16.9285 125.096 17.7411C122.975 18.5537 121.213 19.2439 121.182 19.2751C121.15 19.3061 121.249 19.5886 121.4 19.9027L121.676 20.4738L120.281 20.8167C114.752 22.1754 110.285 22.2902 105.941 21.1851C99.8653 19.6391 95.174 19.6185 88.094 21.1064C86.8356 21.3709 85.7687 21.6101 85.723 21.6381C85.6775 21.666 84.9099 21.3376 84.0171 20.9082C83.1244 20.4788 81.8378 19.9333 81.1581 19.696L79.9222 19.2646L76.9803 19.264C73.8506 19.2636 73.8791 19.261 66.455 20.2453C59.8268 21.1242 57.7211 21.3185 54.7529 21.3252C51.9906 21.3314 50.6938 21.1947 48.7507 20.6927C46.7686 20.1806 46.6159 20.119 46.7177 19.8714C46.9763 19.2422 47.0749 19.2989 43.0272 17.7499C40.8829 16.9293 39.1095 16.2441 39.0865 16.227C39.0635 16.21 39.1648 15.9595 39.3115 15.6704C39.5172 15.2648 39.5418 15.1152 39.4186 15.0159C39.3309 14.9452 38.2883 14.4275 37.1017 13.8656C35.9152 13.3035 28.8973 9.95385 21.5066 6.42183C14.1158 2.8898 8.01153 0 7.94132 0C7.87123 0 7.81554 0.0740166 7.81763 0.164335ZM42.5495 17.9613C44.5512 18.7294 46.2414 19.4063 46.3055 19.4657C46.3715 19.5267 42.4566 27.2643 37.2955 37.2735C29.3683 52.6471 28.1356 54.9646 27.9163 54.9069C27.0453 54.6779 21.4134 52.2334 21.4426 52.097C21.4756 51.9427 38.8436 16.5717 38.8885 16.5672C38.9004 16.5659 40.5479 17.1934 42.5495 17.9613ZM137.91 34.2539C142.692 43.9803 146.621 52.0115 146.641 52.1009C146.663 52.2014 145.432 52.7766 143.412 53.6085C141.616 54.3484 140.091 54.9537 140.024 54.9537C139.851 54.9537 121.641 19.601 121.755 19.4864C121.834 19.4071 128.953 16.6079 129.149 16.5791C129.185 16.5738 133.127 24.5275 137.91 34.2539ZM80.6413 19.9106C81.3727 20.1386 84.9885 21.7045 84.9253 21.7657C84.9062 21.7843 83.8316 22.0763 82.5372 22.4147C77.985 23.6047 75.085 24.52 72.4836 25.5878C70.5371 26.3869 69.4846 27.0326 68.207 28.212C66.1134 30.1447 61.3631 33.6627 58.4271 35.4547C57.521 36.0078 56.6124 36.6132 56.4083 36.8001C55.4078 37.7156 54.9806 39.2427 55.3336 40.6417C55.8211 42.5741 57.393 43.9734 59.6875 44.5176C60.9902 44.8266 63.5543 44.7018 65.2643 44.2462C67.9825 43.5218 71.4732 41.8417 74.5608 39.7715C76.2895 38.6125 76.4688 38.5249 77.7648 38.2082C80.1179 37.6333 82.6613 37.3071 86.1328 37.1352L87.7672 37.0542L89.663 38.7898C91.6597 40.6178 91.8175 40.7533 96.7889 44.9103C101.059 48.4805 101.797 49.0263 107.646 52.9365C117.725 59.6733 121.891 62.3677 125.75 64.6434C128.489 66.2587 129.344 66.961 129.873 68.0269C130.292 68.8737 130.28 69.3628 129.821 70.0797C129.065 71.2616 128.102 72.0381 126.731 72.5714C126.049 72.8364 125.65 72.8841 123.684 72.9357C120.021 73.0317 116.215 72.5208 114.181 71.6604C111.91 70.6993 101.871 66.1109 100.058 65.2054C97.4335 63.8946 96.1015 63.6302 95.1798 64.2368C94.9409 64.3941 94.8865 64.5334 94.9183 64.9073C94.9852 65.6945 95.3517 65.8611 97.184 65.9372C98.8214 66.0052 100.639 66.2637 101.769 66.5891C102.135 66.6945 103.26 67.1578 104.269 67.6184C107.62 69.1481 110.437 71.3987 111.346 73.2718C112.263 75.1628 112.166 76.7707 111.067 77.8752C109.702 79.2471 108.257 79.3582 105.222 78.3248C101.461 77.0442 96.8918 75.2052 95.6752 74.4823C92.9381 72.856 90.8804 72.3981 90.052 73.2311C89.6813 73.6038 89.7274 74.0684 90.1721 74.4448C90.5187 74.738 90.697 74.7714 92.2967 74.8429C95.3871 74.9809 97.3353 75.5503 100.104 77.1249C102.331 78.3912 103.354 79.5175 104.015 81.4296C104.596 83.1076 104.231 84.7661 103.089 85.6418C102.233 86.2988 101.165 86.6973 100.303 86.6823C98.3486 86.6483 92.0882 84.0914 88.2868 81.7746C86.0564 80.4153 84.7759 79.8141 83.7243 79.6331C82.9343 79.497 82.8377 79.5066 82.5057 79.7548C81.848 80.2464 82.0275 81.0816 82.8595 81.4014C83.0367 81.4695 84.3017 81.6933 85.6706 81.8988L88.1594 82.2723L90.186 83.2904C92.4518 84.4285 92.9632 84.7535 94.2751 85.8888C95.2905 86.7676 95.7527 87.5735 95.6384 88.2663C95.6013 88.4913 95.3662 89.0157 95.116 89.4316C94.8658 89.8477 94.6208 90.4584 94.5715 90.7888C94.5037 91.2435 94.3589 91.5131 93.9753 91.8988C93.0227 92.8567 91.8401 92.8881 90.3492 91.9954C86.1372 89.4733 81.3628 85.6863 79.4016 83.3118C77.615 81.1486 76.4466 80.3092 74.9507 80.1137C74.3618 80.0368 74.2005 79.9323 73.254 79.0153C72.6787 78.4579 71.8408 77.7315 71.392 77.4013C70.9432 77.0709 70.4217 76.616 70.2329 76.3905C69.742 75.8039 68.8663 75.2319 68.1738 75.0457C67.6863 74.9147 67.5064 74.7757 67.1903 74.2866C66.5809 73.3435 65.4 72.1003 63.84 70.7594C61.8752 69.0705 61.3967 68.8307 59.9829 68.8268C58.5135 68.8226 57.8916 69.1234 56.5664 70.4785L55.5687 71.4989L54.0168 70.2383C51.9476 68.5577 51.0978 67.8367 48.9818 65.966L47.1986 64.3896L46.7091 63.0569C46.1543 61.5468 45.2372 59.6435 44.6418 58.7663C44.421 58.4409 43.8216 57.731 43.3101 57.1887C41.7249 55.5084 41.2704 54.4277 40.9447 51.5651C40.6105 48.6271 40.4326 48.4552 38.1987 48.9152C36.9642 49.1695 36.5466 49.1959 34.948 49.1217C33.2113 49.0408 32.0802 48.8967 31.9201 48.7358C31.8508 48.666 46.1577 20.8194 46.3775 20.5963C46.4371 20.5359 47.1748 20.6713 48.0168 20.8973C50.3423 21.5212 51.7546 21.6908 54.6222 21.6902C57.6272 21.6895 59.1013 21.573 63.84 20.9623C65.7816 20.712 68.5176 20.3592 69.9199 20.178C73.9407 19.6584 74.6628 19.6072 77.3726 19.6481C79.3217 19.6774 80.0915 19.7392 80.6413 19.9106ZM101.823 20.7089C102.578 20.8255 103.666 21.0303 104.242 21.164C104.817 21.2977 105.928 21.5574 106.71 21.7409C108.673 22.2013 110.939 22.4017 113.067 22.3027C115.235 22.2018 116.796 21.9748 119.639 21.3466C120.844 21.0804 121.86 20.8925 121.897 20.9293C121.933 20.966 125.254 27.3787 129.276 35.1794C134.267 44.8585 136.54 49.3908 136.433 49.4509C136.346 49.4992 135.746 49.6978 135.098 49.8918C132.915 50.5466 129.831 50.4697 127.84 49.7109C127.443 49.5598 126.656 49.1424 126.091 48.7835C125.525 48.4246 124.891 48.093 124.682 48.0468C124.244 47.95 123.919 48.1569 123.919 48.5331C123.919 48.8347 124.334 49.6803 124.86 50.4529C126.126 52.3112 126.454 53.9156 125.843 55.2579C125.402 56.227 124.575 57.104 123.695 57.5372C122.327 58.2098 119.915 58.0894 118.206 57.2632C117.081 56.7195 116.306 55.9389 115.721 54.7615C114.91 53.1278 114.555 52.8922 112.638 52.7178C111.903 52.6509 110.861 52.4721 110.321 52.3204C108.184 51.7189 105.876 50.3089 105.876 49.6043C105.876 49.2886 106.275 48.8965 106.613 48.8807C106.747 48.8744 107.474 48.9448 108.229 49.037C109.778 49.2263 111.649 49.1531 113.298 48.8385C116.654 48.1984 119.703 46.5112 122.629 43.6749C124.976 41.4004 125.909 39.804 125.489 38.7835C125.127 37.9066 123.848 37.8163 123.289 38.6283C123.156 38.8219 122.864 39.7459 122.639 40.6817C122.186 42.5723 121.625 43.8577 121.038 44.3545C120.501 44.809 119.763 44.8892 117.386 44.7513C116.269 44.6864 114.738 44.6416 113.982 44.6516C112.76 44.6679 112.471 44.721 111.337 45.138C109.702 45.7398 108.289 45.9413 106.986 45.759C105.051 45.4885 103.639 44.7636 102.887 43.6545C102.159 42.5826 101.331 42.281 98.5263 42.0654C97.0299 41.9503 96.5764 41.8624 95.7843 41.5341C94.5409 41.0185 93.7964 40.5719 93.0925 39.9194C92.2593 39.1473 92.0083 38.5606 91.8794 37.0855C91.6638 34.6176 90.8985 33.3929 89.572 33.3929C89.1989 33.3929 88.7521 33.5729 87.8924 34.0699C85.8896 35.2273 83.8911 36.1438 82.7359 36.4346C81.823 36.6644 81.3727 36.7021 80.1863 36.6482C78.4124 36.5676 77.9118 36.3732 77.0379 35.4252C76.4875 34.8283 76.3019 34.7076 75.9336 34.7076C75.3248 34.7076 74.6353 35.2214 73.9522 36.1837C72.4615 38.2839 71.8047 39.0918 70.8905 39.9503C68.9011 41.8185 66.9343 42.7431 64.4042 42.9997C61.3801 43.3064 59.0563 42.849 57.3964 41.6205C56.4601 40.9274 55.6682 39.7862 55.6682 39.1302C55.6682 38.5308 55.816 38.4513 56.1108 38.8921C56.4196 39.3541 57.1707 39.8851 57.8255 40.1044C59.6441 40.7133 62.7889 39.7526 64.5264 38.0573C65.2279 37.3729 65.3436 37.1935 65.3436 36.791C65.3436 35.9245 64.5654 35.0254 62.9624 34.0399L62.085 33.5003L63.6162 32.3804C65.2717 31.1695 68.0734 28.9305 68.3455 28.6008C68.6872 28.1869 69.9928 28.4091 70.8111 29.0202C71.2687 29.362 71.5086 29.3256 71.2756 28.9496C71.0639 28.6081 70.207 28.1679 69.5654 28.0712L68.9908 27.9845L69.5534 27.5347C70.3602 26.8899 71.2083 26.949 72.4431 27.7364C72.9802 28.0789 73.2583 28.4165 73.9158 29.5241C73.9949 29.6574 74.121 29.7167 74.209 29.662C74.3226 29.5914 74.2962 29.4336 74.1091 29.0649C73.5642 27.9909 72.6541 27.2453 71.4521 26.8885L70.9018 26.7251L71.5549 26.3934C75.3583 24.4618 88.1951 21.0988 93.9778 20.519C95.711 20.3452 100.167 20.4532 101.823 20.7089ZM62.7417 34.3461C63.9386 35.0638 64.9514 36.1493 64.9514 36.7143C64.9514 37.5402 63.0109 38.979 61.1132 39.5604C60.1189 39.8648 58.6699 39.9218 57.8255 39.6896C57.227 39.5249 56.0604 38.4115 56.0604 38.0048C56.0604 37.5574 56.6986 36.9689 58.129 36.0971C58.897 35.6291 59.996 34.9215 60.5713 34.5246C61.1466 34.1278 61.6607 33.7996 61.7136 33.7952C61.7666 33.7909 62.2293 34.0388 62.7417 34.3461ZM92.278 54.3169C92.278 54.6173 92.9545 55.3511 93.773 55.9384C94.6698 56.582 96.5777 57.534 97.2353 57.6663C97.7874 57.7773 97.7708 57.4761 97.2138 57.2765C95.8628 56.7923 94.1688 55.8025 93.3308 55.0076C92.422 54.1456 92.278 54.0512 92.278 54.3169ZM83.6486 64.1594C83.6486 64.4235 84.7482 65.4868 85.6322 66.0778C86.5434 66.6869 88.4829 67.5678 88.9221 67.5723C89.414 67.5772 89.0379 67.2862 88.0012 66.8595C86.5513 66.2627 85.4205 65.5541 84.588 64.7207C83.9106 64.0426 83.6486 63.8861 83.6486 64.1594ZM118.895 64.8384C118.865 64.9333 118.769 65.4208 118.681 65.9217C118.479 67.0675 117.728 68.5809 116.855 69.5986C116.364 70.1722 116.229 70.4115 116.339 70.5189C116.517 70.6932 117.395 69.7356 118.044 68.6598C118.841 67.3367 119.474 64.9918 119.097 64.7574C119.016 64.7069 118.925 64.7434 118.895 64.8384ZM48.8888 66.4795C49.8567 67.4905 51.03 69.5337 51.556 71.1243C51.8566 72.0335 51.8828 73.5483 51.6067 74.0541C51.3112 74.5952 49.2142 76.45 48.5041 76.7985C47.5605 77.2614 46.2138 77.294 45.3155 76.8756C44.9328 76.6974 44.465 76.4046 44.2757 76.225C43.3398 75.3369 42.7536 73.7383 42.9152 72.5139C43.1404 70.8071 44.5563 68.3079 46.6965 65.8398L47.3458 65.0911L47.8134 65.4678C48.0704 65.6749 48.5543 66.1302 48.8888 66.4795ZM116.412 65.3726C116.38 65.5352 116.32 65.8661 116.28 66.1076C116.182 66.6991 115.629 67.7815 115.083 68.4513C114.639 68.9961 114.526 69.2838 114.757 69.2838C114.988 69.2838 115.848 68.161 116.22 67.3746C116.588 66.5962 116.896 65.3753 116.775 65.1775C116.654 64.9817 116.471 65.0805 116.412 65.3726ZM120.975 67.0159C120.803 68.0803 120.001 69.7094 119.404 70.2078C119.192 70.3852 119.145 70.7299 119.333 70.7299C119.544 70.7299 120.399 69.6391 120.777 68.8894C121.086 68.2762 121.435 67.086 121.435 66.6479C121.435 66.5792 121.35 66.5229 121.245 66.5229C121.126 66.5229 121.025 66.7088 120.975 67.0159ZM61.5872 69.5296C62.8764 70.1621 64.0123 71.7864 64.4918 73.6827C64.8185 74.975 64.7745 75.2046 64.0891 75.7807C63.7587 76.0583 63.2935 76.5918 63.0552 76.9661C62.5876 77.7014 61.38 78.8884 60.4337 79.5429C58.7412 80.7139 57.1935 80.9744 56.0242 80.2855C54.9031 79.6249 54.5011 78.7696 54.4946 77.0317C54.4825 73.7581 56.1504 70.5675 58.4483 69.4685C59.3401 69.0419 60.6448 69.0674 61.5872 69.5296ZM56.3947 72.3368C56.2602 72.5298 56.1919 72.9202 56.1933 73.4872C56.1959 74.5295 56.5179 75.183 57.3393 75.8129C58.0354 76.3469 58.6168 76.5128 59.7938 76.5137C60.5907 76.5144 60.7986 76.4619 61.3229 76.1276C62.297 75.5065 62.6127 74.5078 61.9479 74.1502C61.808 74.0748 61.2143 73.9218 60.6287 73.8101C59.3633 73.5687 58.4438 73.179 57.5955 72.5246C56.8731 71.9673 56.6738 71.9361 56.3947 72.3368ZM77.1774 72.1745C77.0406 72.397 77.7103 73.1873 78.5977 73.8506C79.468 74.5011 81.5222 75.5412 82.2094 75.6796C83.0076 75.8401 82.5737 75.4482 81.3808 74.9312C79.7759 74.2359 78.8974 73.6766 78.0223 72.7933C77.5613 72.328 77.2315 72.0865 77.1774 72.1745ZM57.3997 72.8665C58.2047 73.4843 59.4702 74.0175 60.6 74.2147C61.8151 74.4269 62.0493 74.6141 61.7726 75.152C61.2652 76.1386 59.3914 76.4531 58.0436 75.7779C57.1218 75.3159 56.6847 74.7176 56.6103 73.816C56.5554 73.1501 56.6436 72.439 56.7808 72.439C56.8148 72.439 57.0933 72.6313 57.3997 72.8665ZM68.3303 75.478C69.4369 75.895 70.5271 77.1595 71.4343 79.0781C72.1867 80.6693 72.2416 80.9272 71.9046 81.2878C71.7562 81.4468 71.4796 81.9316 71.2899 82.3652C71.1001 82.7988 70.8762 83.3001 70.792 83.479C70.5197 84.0583 68.906 85.6577 68.1938 86.0544C67.6001 86.3851 67.3607 86.4404 66.5204 86.4404C65.6865 86.4404 65.4391 86.3842 64.8667 86.0651C63.2365 85.1567 62.8774 84.3164 62.7799 81.1816C62.7247 79.4077 62.7373 79.2492 62.9044 79.604C63.1584 80.1436 63.8494 80.8182 64.4868 81.1492C64.8521 81.3387 65.3417 81.441 66.0628 81.4784C66.9789 81.5258 67.1818 81.4932 67.6971 81.2158C68.336 80.8719 68.8739 80.1956 68.8739 79.7364C68.8739 79.2527 68.461 79.0288 67.0398 78.7425C65.7598 78.4844 64.1832 77.8622 63.5918 77.3818C63.3782 77.2081 63.3681 77.1474 63.5199 76.9459C64.229 76.004 64.9152 75.5405 65.9116 75.3301C66.5221 75.2013 67.8039 75.2796 68.3303 75.478ZM63.9989 78.0967C64.7128 78.552 66.2514 79.0671 67.2948 79.2C68.5827 79.3642 68.7962 79.7075 68.0567 80.4246C67.5081 80.9568 67.0682 81.1162 66.1523 81.1146C64.9131 81.1125 63.6234 80.3325 63.26 79.3654C63.0398 78.7794 63.0879 77.6977 63.3343 77.6977C63.3557 77.6977 63.6549 77.8773 63.9989 78.0967ZM76.2946 80.9271C78.0687 81.7943 79.4801 83.9234 80.3298 87.0141C80.4961 87.6188 80.7246 88.1818 80.8378 88.265C81.0247 88.4024 81.0231 88.4805 80.8206 89.1111C80.2255 90.9638 78.5357 91.7844 75.9499 91.4766C74.3498 91.2863 72.8273 90.7948 72.3272 90.3075C71.8187 89.812 71.3058 88.7735 71.1118 87.8472C70.9511 87.0799 70.9308 85.3935 71.0777 85.0189C71.1562 84.8184 71.2062 84.8545 71.3916 85.2453C72.0832 86.7038 74.8011 87.384 76.205 86.45C76.7196 86.1075 77.2404 85.4225 77.2413 85.0869C77.2425 84.7104 76.6316 84.3018 75.9228 84.205C75.5336 84.1518 74.8525 83.9962 74.4093 83.8592C73.496 83.5771 71.7504 82.4759 71.7504 82.1821C71.7504 81.8862 72.9416 80.7959 73.4543 80.6228C74.1884 80.3747 75.4388 80.5086 76.2946 80.9271ZM72.5556 83.3912C73.4148 83.9706 74.731 84.4558 75.8347 84.6002C76.1754 84.6448 76.5451 84.7726 76.6561 84.8842C76.838 85.067 76.8347 85.1278 76.6219 85.5008C76.4921 85.7283 76.1226 86.0519 75.8006 86.2199C74.6714 86.809 72.6555 86.3481 71.9067 85.3296C71.4218 84.6701 71.2576 83.47 71.5774 82.9236C71.6599 82.7825 71.6357 82.771 72.5556 83.3912Z" fill="black"/>
<path d="M8.75329 33.3949C8.33599 33.911 8.02499 34.5046 7.8382 35.1414C7.45609 35.8148 7.45608 35.8147 7.83028 35.9545C7.94519 36.0213 8.08154 36.0409 8.2106 36.0091C8.33965 35.9773 8.45133 35.8967 8.52207 35.7842C8.91358 34.8985 9.6206 34.1657 9.78886 33.1752L9.64345 33.1075C9.63906 33.1875 9.62755 33.2669 9.609 33.3448C9.62756 33.2669 9.63907 33.1875 9.6434 33.1076L9.78886 33.1752C10.3295 32.488 10.5621 31.649 10.9233 30.8734C10.91 30.8502 10.8949 30.828 10.8781 30.8071L10.8781 30.8071C11.1301 30.2485 11.382 29.6899 11.6336 29.1311L11.6336 29.1311C11.3818 29.6898 11.13 30.2485 10.8781 30.8071C10.8949 30.828 10.91 30.8501 10.9233 30.8734C11.1294 30.5849 11.3355 30.2964 11.5416 30.0079C11.5772 30.0943 11.6128 30.1806 11.6484 30.2669C11.5391 30.5167 11.4298 30.7665 11.3206 31.0162C11.4567 31.4361 10.9458 31.5879 10.9349 31.9468C10.7515 32.1727 10.6339 32.4447 10.5949 32.733C10.2255 33.3015 10.1179 33.9804 9.81757 34.5781C9.69427 34.8385 9.57099 35.099 9.4477 35.3595C9.37079 35.6393 9.15376 35.8918 9.28113 36.2116L9.65197 36.3697C9.64312 36.2472 9.65026 36.1241 9.67322 36.0034C9.65028 36.1241 9.64315 36.2472 9.65201 36.3697C9.52835 36.3169 9.40472 36.2643 9.28113 36.2116C9.22339 36.3553 9.04865 36.4701 9.17029 36.6584C9.27539 36.6962 9.38054 36.734 9.48574 36.7719C9.57959 36.9587 9.69341 37.0317 9.81182 37.0424C9.69339 37.0317 9.57951 36.9587 9.48566 36.7719L9.17029 36.6584C9.11198 36.9246 9.07726 37.1645 9.44789 37.2443C9.65926 37.3172 9.88876 37.3181 10.1008 37.2472C10.3128 37.1762 10.4955 37.0373 10.6204 36.8518C10.9269 36.3909 11.2012 35.9086 11.4895 35.4356C11.6266 35.337 11.7638 35.2384 11.9009 35.1398C11.92 35.2012 11.939 35.2626 11.958 35.324C11.9285 35.4167 11.8989 35.5093 11.8694 35.602C11.7111 35.6716 11.5863 35.8001 11.5213 35.9603C11.4564 36.1205 11.4565 36.2996 11.5216 36.4597C11.6087 36.7511 11.9267 36.668 12.1706 36.6502C12.2775 36.6476 12.3845 36.6451 12.4915 36.6426C12.4247 36.9617 12.4451 37.2928 12.5505 37.6013C12.4995 37.8587 12.1538 38.1856 12.4511 38.3523C12.8031 38.5498 13.1662 38.3494 13.3525 37.9369C13.6434 37.2932 13.9806 36.6688 14.2416 36.0137C14.532 35.2847 15.0759 34.6784 15.241 33.8934C15.4447 33.5267 15.6484 33.1601 15.8521 32.7934C15.7258 32.8408 15.5996 32.8881 15.4733 32.9355C15.4647 33.0661 15.4304 33.1936 15.3725 33.311C15.4304 33.1937 15.4646 33.0661 15.4731 32.9355L15.4733 32.9355L15.4733 32.9354C15.5995 32.8881 15.7258 32.8408 15.8521 32.7934C16.0648 32.3123 16.2548 31.8262 16.5094 31.3577C16.827 30.7735 17.2343 30.2124 17.3478 29.5283C17.3673 29.4846 17.3869 29.441 17.4065 29.3974L17.4064 29.3973C17.6244 29.1992 17.7859 28.9468 17.8745 28.6659C18.1161 28.4577 18.1884 28.1456 18.3519 27.8915C18.8236 27.1587 19.1188 26.3118 19.7639 25.6908C19.8057 25.5818 19.8475 25.4727 19.8893 25.3637L19.8895 25.3635C19.8475 25.4727 19.8057 25.5819 19.7639 25.6908C19.9472 25.9301 19.6768 26.1045 19.6744 26.3173C19.5356 26.6219 19.3968 26.9265 19.2579 27.2311C19.2383 27.2445 19.2225 27.2626 19.2118 27.2838C19.2012 27.305 19.1961 27.3286 19.197 27.3523C19.0825 27.4206 18.9932 27.5241 18.9425 27.6474C18.8917 27.7706 18.8823 27.907 18.9156 28.0361C18.8805 28.1044 18.8454 28.1727 18.8103 28.241C18.4072 28.7403 18.0832 29.2986 17.8498 29.8964L17.7391 30.1564C17.4195 30.8529 16.9269 31.4632 16.7135 32.2128C16.6945 32.2209 16.6776 32.2333 16.6643 32.2491C16.6509 32.2649 16.6415 32.2835 16.6367 32.3036C16.2973 32.7812 16.0362 33.3099 15.8631 33.8697C15.8004 33.9983 15.7376 34.1269 15.6749 34.2555L15.0968 35.5624C14.82 35.5965 14.8365 35.8096 14.9036 35.9698C14.9895 36.175 15.2071 36.0794 15.3246 36.0151C15.4292 35.973 15.5231 35.908 15.5992 35.8248C15.6753 35.7416 15.7318 35.6423 15.7645 35.5344C15.7179 35.5093 15.6713 35.4842 15.6248 35.4593L15.6248 35.4592L15.7645 35.5344C16.1713 34.941 16.4932 34.2937 16.7208 33.6113C16.8361 33.3484 16.9513 33.0855 17.0665 32.8226C17.0839 32.8116 17.0987 32.797 17.1099 32.7798C17.1211 32.7626 17.1285 32.7431 17.1315 32.7228L17.1406 32.7369C17.2982 32.6087 17.428 32.4496 17.5219 32.2694C17.6158 32.0892 17.6719 31.8918 17.6868 31.6891C17.7138 31.651 17.7407 31.6128 17.7677 31.5747C18.0224 31.2255 18.2348 30.8473 18.4006 30.4481C18.703 30.3907 18.5494 30.1883 18.5338 30.0297C18.8451 29.9184 18.8058 29.6355 18.8461 29.3916C19.1633 29.1255 19.2194 28.7133 19.4126 28.3779C19.8323 27.6772 20.1987 26.9459 20.5087 26.1903C20.544 26.1194 20.5793 26.0486 20.6145 25.9777C21.2362 24.9625 21.7453 23.8824 22.1329 22.7568C22.244 22.4708 22.6666 22.218 22.3328 21.827C22.2433 21.5156 22.0025 21.6038 21.7884 21.6209C21.7366 21.4953 21.6847 21.3697 21.6328 21.2441C21.61 21.0545 21.6037 20.8542 21.3516 20.815L21.3645 20.8098C21.4459 20.6121 21.5412 20.4187 21.6043 20.2154C21.655 20.0518 21.8218 19.8297 21.5748 19.725C21.3889 19.6462 21.2013 19.8042 21.1004 19.9675C20.7832 20.3811 20.5361 20.8439 20.369 21.3377C20.1923 21.612 20.0154 21.8864 19.8386 22.1607C19.6381 22.3967 19.4377 22.6327 19.2372 22.8686C19.1283 22.7065 19.2595 22.5603 19.268 22.406C19.4328 22.173 19.5468 21.908 19.6027 21.6282C20.0734 21.2138 20.1695 20.6026 20.4161 20.0712C20.4416 20.0301 20.4578 19.9839 20.4634 19.9359C20.4691 19.8879 20.4641 19.8393 20.4487 19.7934C20.4334 19.7476 20.4082 19.7056 20.3748 19.6706C20.3414 19.6356 20.3007 19.6085 20.2556 19.591C19.9932 19.4665 19.8587 19.6154 19.7683 19.8398L19.6894 19.9571C19.3157 20.1029 19.2058 20.4599 19.0379 20.7706L19.4195 20.62L19.0379 20.7706C18.6205 21.19 18.2667 21.6683 17.9877 22.1902C17.8625 22.273 17.7565 22.3815 17.6765 22.5084C17.5966 22.6354 17.5446 22.778 17.5241 22.9266C17.4911 22.9526 17.4665 22.9876 17.4533 23.0275C17.2371 23.0547 17.2327 23.2518 17.1595 23.3938C16.79 23.7848 16.501 24.2445 16.3088 24.747C16.1878 25.0447 15.8478 25.2341 15.8823 25.6088C15.6151 25.6844 15.6564 25.9506 15.5593 26.1313C15.2662 26.457 15.0454 26.8411 14.9111 27.2582C14.9514 27.2729 14.9912 27.2887 15.0306 27.3055C15.0702 27.2205 15.1098 27.1354 15.1493 27.0504C15.1098 27.1355 15.0703 27.2205 15.0307 27.3056L15.1709 27.3674L15.0307 27.3056C14.9912 27.2887 14.9514 27.2729 14.9111 27.2582C14.5481 27.9757 14.1851 28.6933 13.8221 29.4109C13.8024 29.495 13.7826 29.5791 13.7628 29.6632C13.9969 29.6198 14.2143 29.5122 14.3907 29.3524C14.2142 29.5123 13.9967 29.6201 13.7626 29.6636C13.7826 29.5792 13.8025 29.4949 13.8221 29.4109C13.5994 29.6198 13.4494 29.8946 13.3942 30.195C13.4269 30.2089 13.4609 30.2198 13.4956 30.2273L13.6646 29.8609L13.4956 30.2273C13.4098 30.4341 13.324 30.641 13.2382 30.8479L13.203 30.9077C13.1847 30.9455 13.1742 30.9866 13.1721 31.0286C13.0376 31.1097 12.8227 31.1143 12.8588 31.3578C12.8292 31.3866 12.8082 31.423 12.7982 31.4631C12.7363 31.6458 12.6745 31.8286 12.6126 32.0113C12.6694 32.0138 12.7261 32.004 12.7788 31.9825C12.7261 32.004 12.6693 32.0139 12.6124 32.0114C12.6745 31.8286 12.7364 31.6458 12.7982 31.4631C12.5134 31.644 12.4734 31.9645 12.3552 32.2403C12.1829 32.6197 12.0105 32.999 11.8381 33.3783C11.5509 33.7206 11.3415 34.1213 11.2247 34.5526C11.2625 34.5682 11.3007 34.5828 11.3392 34.5967L11.3992 34.4799L11.3392 34.5968C11.3007 34.5829 11.2625 34.5682 11.2247 34.5526C10.8451 35.0498 10.5576 35.6108 10.3756 36.2092C10.365 36.25 10.3449 36.2879 10.3168 36.3194C10.2887 36.3509 10.2535 36.3752 10.2141 36.3904C10.1747 36.4056 10.1323 36.4112 10.0903 36.4067C10.0483 36.4022 10.008 36.3878 9.97274 36.3646C9.98101 36.2085 9.98934 36.0525 9.99769 35.8965C10.6112 34.4463 11.2248 32.9961 11.8383 31.5459C12.15 31.3196 12.1071 30.937 12.241 30.6324C12.3328 30.5834 12.4063 30.5061 12.4506 30.4119C12.4948 30.3177 12.5074 30.2117 12.4865 30.1098C12.5169 30.0785 12.5392 30.0402 12.5511 29.9981C12.9229 29.5473 13.1876 29.018 13.3251 28.4501C13.3573 28.3606 13.3894 28.271 13.4216 28.1815C13.7967 27.8946 13.8864 27.4501 14.0489 27.0458C14.0799 27.0187 14.104 26.9847 14.1192 26.9465C14.5364 26.3522 14.8646 25.7002 15.0932 25.011C15.4909 24.6871 15.5797 24.1884 15.7987 23.7635C16.1019 23.3762 16.3303 22.9359 16.472 22.4649C16.4989 22.4454 16.518 22.4171 16.5261 22.3849C16.7582 22.0617 17.0982 21.7966 17.088 21.3427C17.2115 21.2609 17.3392 21.1812 17.2658 20.9979L17.2658 20.9979C17.6061 20.9807 17.5168 20.6596 17.6307 20.4823C17.719 20.3411 17.8228 20.1941 17.671 20.0397C17.565 19.932 17.4382 19.8732 17.3289 20.0485C17.2306 20.1622 17.1323 20.2759 17.034 20.3896C17.0131 20.4326 16.9923 20.4755 16.9715 20.5185C16.5264 20.8735 16.4817 21.4472 16.2169 21.9006C15.9094 21.964 15.9514 22.2774 15.8145 22.4629L15.8146 22.463C15.5389 22.601 15.5433 22.9005 15.4289 23.1316C15.3756 23.2617 15.3223 23.3919 15.2691 23.5221C15.3484 23.5589 15.4277 23.5957 15.507 23.6325L15.507 23.6326L15.2691 23.5221C14.977 23.612 15.0962 24.0065 14.8298 24.1154L14.8298 24.1154C14.7493 24.0804 14.6687 24.0452 14.5881 24.01C14.831 23.7149 15.0094 23.3721 15.112 23.0039C15.1667 22.8795 15.2215 22.7551 15.2763 22.6307C15.4314 22.4823 15.69 22.3841 15.5409 22.0874C15.5637 21.841 15.8355 21.6575 15.7203 21.3763C15.7317 21.3672 15.7404 21.355 15.7451 21.3411C15.7498 21.3273 15.7505 21.3124 15.747 21.2982C16.4081 20.7907 16.2458 20.1541 16.0275 19.5087L16.0141 19.5075L16.0141 19.5074C16.5283 18.7659 16.7835 17.9004 17.1708 17.0982C17.2885 16.8542 17.3212 16.6125 17.0721 16.4755C16.8004 16.3261 16.6482 16.5367 16.5442 16.7675C16.337 17.2554 16.1298 17.7433 15.9227 18.2312L15.1009 20.2032L15.1008 20.2034C15.0623 20.288 15.0238 20.3727 14.9854 20.4575L14.9854 20.4575C15.0239 20.3728 15.0623 20.2881 15.1008 20.2034C15.3748 19.546 15.6487 18.8886 15.9227 18.2312C15.3514 19.0557 14.8738 19.9413 14.4988 20.8717C14.2194 21.331 13.8502 21.7508 13.8554 22.3353C13.1548 23.6085 12.6102 24.9537 12.033 26.2839C11.6116 26.8703 11.2539 27.4999 10.9658 28.162C10.4097 29.2024 10.4732 30.4505 9.83274 31.458C9.85416 31.4742 9.87373 31.4927 9.89113 31.5132L9.89101 31.5133C9.87371 31.4927 9.85417 31.4742 9.83274 31.458C9.43482 31.9527 9.11607 32.5062 8.88787 33.0987C8.76788 33.1928 8.92606 33.2862 8.88857 33.38C8.86636 33.3721 8.84264 33.3692 8.8192 33.3718C8.79576 33.3744 8.77323 33.3823 8.75329 33.3949ZM8.26696 34.538C8.24129 34.5773 8.21992 34.6192 8.20321 34.663C8.21992 34.6192 8.24129 34.5773 8.26696 34.538ZM17.2686 31.9737C17.2006 32.0271 17.1341 32.0827 17.0617 32.1292C17.1341 32.0826 17.2006 32.027 17.2686 31.9736C17.2814 31.9292 17.2967 31.8855 17.3142 31.8427C17.2967 31.8855 17.2814 31.9292 17.2686 31.9736L17.2686 31.9737ZM19.1854 26.0082C19.2806 25.8755 19.3826 25.7467 19.4788 25.6145C19.4445 25.5658 19.4276 25.5069 19.4307 25.4475C19.4338 25.388 19.4568 25.3313 19.496 25.2864C19.4568 25.3313 19.4338 25.388 19.4307 25.4475C19.4276 25.5069 19.4445 25.5657 19.4788 25.6145C19.3826 25.7467 19.2807 25.8755 19.1854 26.0082ZM19.8896 25.3634C20.0001 25.3562 20.1105 25.3492 20.2208 25.3424C20.1105 25.3493 20.0001 25.3563 19.8896 25.3634ZM19.0277 28.5307C18.9832 28.511 18.942 28.4847 18.9054 28.4527C18.942 28.4847 18.9832 28.511 19.0277 28.5307L19.0277 28.5307ZM20.7749 24.0517C20.7655 24.0757 20.7546 24.0992 20.7474 24.1241C20.7845 24.1444 20.8251 24.1576 20.867 24.1631C20.825 24.1576 20.7844 24.1444 20.7473 24.1241C20.7545 24.0992 20.7655 24.0757 20.7749 24.0516L20.7749 24.0517ZM19.869 27.105C19.9065 27.0533 19.9326 26.9943 19.9455 26.9317C19.9584 26.8692 19.9578 26.8046 19.9437 26.7423C19.9962 26.7298 20.0448 26.7047 20.0851 26.6689C20.1254 26.6331 20.1562 26.5878 20.1748 26.5372C20.1563 26.5878 20.1254 26.6331 20.0851 26.6689C20.0448 26.7047 19.9962 26.7299 19.9438 26.7423C19.9578 26.8046 19.9584 26.8692 19.9455 26.9317C19.9326 26.9943 19.9066 27.0533 19.869 27.105L19.869 27.105ZM21.5319 22.5912C21.5893 22.7048 21.6207 22.8298 21.624 22.957C21.6207 22.8298 21.5892 22.7049 21.5318 22.5913C21.5263 22.5532 21.5126 22.5166 21.4919 22.4841C21.4711 22.4516 21.4436 22.4239 21.4113 22.4029C21.4436 22.4239 21.4711 22.4516 21.4919 22.4841C21.5127 22.5166 21.5263 22.5531 21.5319 22.5912ZM20.2488 24.8457C20.2641 24.8186 20.2779 24.7903 20.2907 24.7614C20.2779 24.7903 20.2642 24.8187 20.2488 24.8458C20.226 24.8566 20.2044 24.8697 20.1842 24.8848C20.2044 24.8697 20.226 24.8565 20.2488 24.8457ZM20.5721 23.8455C20.4691 23.8802 20.3921 24.0542 20.289 24.0887C20.2962 24.1266 20.2957 24.1655 20.2877 24.2032C20.2797 24.241 20.2643 24.2767 20.2424 24.3084C20.2643 24.2767 20.2797 24.241 20.2877 24.2032C20.2957 24.1655 20.2961 24.1266 20.2889 24.0887C20.3921 24.0542 20.4691 23.8802 20.5721 23.8455ZM20.9688 22.5027L20.9687 22.5028C20.912 22.3795 20.8552 22.2563 20.7984 22.1332C20.8552 22.2563 20.912 22.3795 20.9688 22.5027ZM15.5265 27.1958L15.5267 27.1958C15.4779 27.3373 15.4292 27.4789 15.3807 27.6206L15.3806 27.6206C15.307 27.791 15.2335 27.9614 15.16 28.1318C15.2419 28.1679 15.3237 28.204 15.4056 28.2402L15.1599 28.1317C15.2335 27.9613 15.3071 27.791 15.3806 27.6206C15.4293 27.479 15.4779 27.3374 15.5265 27.1958ZM15.6297 26.9778C15.6384 26.9402 15.6387 26.9012 15.6307 26.8635C15.6226 26.8258 15.6064 26.7903 15.5832 26.7595L15.5832 26.7595C15.6064 26.7903 15.6226 26.8258 15.6307 26.8635C15.6387 26.9012 15.6384 26.9402 15.6297 26.9778ZM15.5956 26.744C15.6271 26.7055 15.6615 26.6695 15.6983 26.6362C15.6615 26.6695 15.6271 26.7055 15.5956 26.744ZM15.1091 28.2498L15.109 28.2501C15.0623 28.2376 15.0156 28.2253 14.9688 28.2131C15.0155 28.2253 15.0623 28.2375 15.1091 28.2498ZM15.9726 26.5355C15.9541 26.6085 15.9308 26.6803 15.9027 26.7503C15.9307 26.6803 15.9541 26.6085 15.9726 26.5355ZM16.2451 26.2759C16.2671 26.2294 16.2891 26.1828 16.3111 26.1363C16.3286 26.0969 16.3463 26.0577 16.3642 26.0185L16.4476 26.097C16.4022 26.1102 16.3566 26.1232 16.3111 26.1363C16.2891 26.1828 16.2671 26.2294 16.2451 26.2759ZM15.8878 27.1615C15.8965 27.1253 15.9091 27.0894 15.921 27.0534C15.9091 27.0894 15.8965 27.1253 15.8878 27.1615ZM14.1198 30.9676C14.1029 31.0009 14.0931 31.0374 14.0912 31.0747C14.0892 31.112 14.0951 31.1493 14.1084 31.1841C14.1218 31.219 14.1422 31.2507 14.1686 31.2772C14.1949 31.3036 14.2265 31.3243 14.2614 31.3378C14.0958 31.5675 13.9483 31.8097 13.82 32.0622C13.9482 31.8097 14.0957 31.5676 14.2612 31.3378C14.2264 31.3243 14.1948 31.3036 14.1685 31.2771C14.1422 31.2506 14.1217 31.2189 14.1084 31.1841C14.0951 31.1492 14.0892 31.1119 14.0912 31.0746C14.0931 31.0373 14.1029 31.0009 14.1198 30.9676ZM16.2044 26.7265C16.1627 26.8081 16.1373 26.897 16.1294 26.9883C16.1517 27.0043 16.1775 27.0147 16.2046 27.0188C16.1775 27.0147 16.1517 27.0043 16.1294 26.9883C16.0836 27.0719 16.0379 27.1555 15.9923 27.2391L15.9922 27.2391C16.0379 27.1555 16.0837 27.0719 16.1294 26.9883C16.1372 26.897 16.1627 26.8081 16.2044 26.7264L16.2044 26.7265ZM13.446 33.6329C13.427 33.6711 13.4094 33.7097 13.393 33.749C13.4094 33.7097 13.4271 33.6711 13.4459 33.6329C13.4262 33.581 13.3888 33.5376 13.3404 33.5104C13.2919 33.4833 13.2354 33.4741 13.1808 33.4845C13.2354 33.4741 13.2919 33.4833 13.3404 33.5104C13.3889 33.5376 13.4263 33.581 13.446 33.6329L13.446 33.6329ZM12.0364 36.3387C12.0991 36.2999 12.1577 36.2548 12.2114 36.2043L12.2114 36.2044C12.1577 36.2549 12.0991 36.2999 12.0364 36.3387ZM12.7496 34.6776C12.8592 34.6555 12.9526 34.5615 13.0605 34.532C13.0164 34.4248 13.0042 34.3071 13.0256 34.1931C13.047 34.0792 13.1009 33.9738 13.1809 33.8899C13.1009 33.9739 13.047 34.0792 13.0256 34.1932C13.0042 34.3072 13.0164 34.425 13.0606 34.5322C12.9526 34.5615 12.8592 34.6555 12.7496 34.6776ZM12.7548 35.6623C12.6959 35.6912 12.6369 35.72 12.5779 35.7488C12.4926 35.9123 12.4072 36.0757 12.3219 36.2391C12.317 36.3006 12.3122 36.3623 12.3075 36.424L12.3075 36.4241C12.3123 36.3625 12.3171 36.3008 12.3218 36.2391L12.3219 36.2391C12.4073 36.0757 12.4926 35.9122 12.5779 35.7487C12.6369 35.7199 12.6959 35.6912 12.7549 35.6623L12.7548 35.6623ZM13.2287 34.4962C13.2713 34.3526 13.2262 34.1711 13.2964 34.0394C13.3374 34.0541 13.3783 34.0687 13.4193 34.0831C13.3783 34.0687 13.3374 34.0542 13.2965 34.0395C13.2262 34.1711 13.2714 34.3526 13.2287 34.4962ZM13.9289 32.889C13.8675 32.896 13.8102 32.9232 13.766 32.9665C13.8102 32.9232 13.8675 32.8959 13.9289 32.8889L13.9289 32.889ZM15.1253 30.453C15.0917 30.3061 15.0996 30.1527 15.1481 30.01C15.1965 29.8673 15.2837 29.7409 15.3997 29.6448C15.2837 29.7409 15.1965 29.8674 15.1481 30.0101C15.0997 30.1528 15.0918 30.3062 15.1254 30.4531L15.1253 30.453ZM13.511 35.3551C13.5449 35.2655 13.5789 35.1759 13.6127 35.0863C13.5788 35.1759 13.5449 35.2654 13.511 35.355L13.511 35.3551ZM14.861 31.808C14.9114 31.7404 14.9815 31.6901 15.0617 31.6642C15.0997 31.5775 15.1376 31.4908 15.1755 31.4041C15.1376 31.4908 15.0997 31.5776 15.0618 31.6643C14.9816 31.6902 14.9114 31.7404 14.861 31.808ZM14.2592 34.2737C14.2003 34.3023 14.1414 34.3309 14.0825 34.3596C14.0221 34.3912 13.9616 34.4227 13.9011 34.4543C13.9054 34.6789 13.7531 34.8323 13.6523 35.0089C13.7531 34.8323 13.9054 34.679 13.9011 34.4542C13.9616 34.4227 14.0221 34.3912 14.0825 34.3596C14.1414 34.331 14.2003 34.3023 14.2591 34.2737C14.2796 34.2384 14.2948 34.2005 14.3043 34.1609C14.2584 34.143 14.2184 34.1126 14.1887 34.0733C14.159 34.0339 14.1409 33.9872 14.1363 33.9381C14.1409 33.9872 14.159 34.0339 14.1887 34.0733C14.2184 34.1126 14.2585 34.1429 14.3044 34.1608C14.2948 34.2004 14.2796 34.2385 14.2592 34.2737L14.2592 34.2737ZM15.2662 31.9078L15.2663 31.9078C15.2337 31.9852 15.2275 32.0711 15.2485 32.1523C15.2275 32.0711 15.2337 31.9851 15.2662 31.9077L15.2662 31.9078ZM15.5956 30.828C15.6336 30.889 15.6539 30.9593 15.6543 31.031C15.6548 31.1028 15.6353 31.1733 15.5981 31.2347C15.6353 31.1732 15.6547 31.1027 15.6543 31.0309C15.6538 30.9591 15.6334 30.8888 15.5954 30.8279C15.6888 30.8218 15.7769 30.7826 15.8439 30.7174C15.9109 30.6522 15.9524 30.5652 15.961 30.472C15.9525 30.5652 15.9109 30.6522 15.844 30.7174C15.777 30.7827 15.6889 30.8219 15.5956 30.828ZM14.5692 33.8914C14.6203 33.8122 14.664 33.7285 14.6998 33.6413C14.664 33.7285 14.6203 33.8122 14.5692 33.8914ZM14.7355 33.5523L14.7355 33.5523C14.7701 33.5365 14.8089 33.5318 14.8463 33.5389C14.8838 33.5461 14.918 33.5647 14.9444 33.5922C14.918 33.5647 14.8837 33.5461 14.8463 33.5389C14.8089 33.5318 14.7701 33.5365 14.7355 33.5523ZM16.1501 30.5714C16.1791 30.5048 16.2135 30.4407 16.2531 30.3797C16.2135 30.4407 16.1791 30.5048 16.1501 30.5714ZM15.0794 33.8465L15.0793 33.8466L15.0865 33.8409L15.0794 33.8465ZM17.6907 27.6537C17.7376 27.6514 17.7847 27.6568 17.8299 27.6696C17.7847 27.6568 17.7376 27.6514 17.6907 27.6537ZM17.7471 28.6099C17.7184 28.5581 17.702 28.5003 17.6992 28.441C17.702 28.5002 17.7184 28.5581 17.7471 28.6099ZM17.8972 28.4108C18.0109 28.2964 18.0906 28.1528 18.1276 27.9959C18.0492 27.81 18.1605 27.6464 18.2299 27.4779C18.1605 27.6464 18.0493 27.81 18.1277 27.996C18.0907 28.1529 18.0109 28.2965 17.8972 28.4108L17.8972 28.4108ZM19.6105 24.5869L19.6106 24.587C19.5799 24.6605 19.5301 24.7245 19.4664 24.7723C19.4027 24.82 19.3273 24.8499 19.2482 24.8588C19.3273 24.8499 19.4027 24.82 19.4664 24.7722C19.5301 24.7244 19.5799 24.6604 19.6106 24.5869L19.6105 24.5869ZM19.8502 23.2836C19.9139 23.3094 19.9694 23.3519 20.0111 23.4065C19.9694 23.3519 19.9138 23.3094 19.8501 23.2836C19.8856 23.1966 19.9209 23.1096 19.9562 23.0226C19.9209 23.1095 19.8856 23.1966 19.8503 23.2836L19.8502 23.2836ZM18.5269 27.0502C18.4465 27.0269 18.366 27.0035 18.2855 26.9801C18.2675 27.0211 18.2499 27.0622 18.2327 27.1035C18.2499 27.0622 18.2675 27.0211 18.2855 26.98C18.1777 26.8771 18.0699 26.7743 17.962 26.6716L17.9527 26.6733L17.9621 26.6716C18.0699 26.7744 18.1778 26.8772 18.2855 26.98C18.366 27.0035 18.4465 27.0269 18.5269 27.0502L18.5269 27.0502ZM19.9396 22.7973C19.9393 22.7497 19.9319 22.7023 19.9175 22.6568C19.9319 22.7023 19.9393 22.7496 19.9396 22.7972L19.9396 22.7973ZM18.2102 26.4853L18.21 26.4854C18.2327 26.2276 18.4352 26.0125 18.4746 25.7587C18.4352 26.0124 18.2328 26.2275 18.2102 26.4853ZM19.0804 24.3719C19.0035 24.5425 18.9265 24.713 18.8496 24.8836C18.7838 24.9076 18.7246 24.9467 18.6766 24.9977C18.6286 25.0487 18.5932 25.1102 18.5733 25.1773C18.5932 25.1102 18.6286 25.0486 18.6765 24.9976C18.7245 24.9466 18.7838 24.9076 18.8496 24.8837C18.9265 24.7131 19.0035 24.5424 19.0804 24.3718L19.0804 24.3719ZM19.7428 22.499L19.7426 22.499C19.7732 22.3915 19.8039 22.2838 19.8344 22.1759C19.8039 22.2836 19.7733 22.3913 19.7428 22.499ZM17.8108 26.6154L17.9397 26.6757L17.8108 26.6154L17.8108 26.6154ZM17.435 27.5419L17.375 27.6599C17.395 27.6206 17.415 27.5812 17.435 27.5418L17.435 27.5419ZM17.2532 27.9326C17.2333 27.9851 17.2219 28.0404 17.2194 28.0965C17.2219 28.0404 17.2333 27.9851 17.2531 27.9326L17.2532 27.9326ZM18.0833 25.6267C18.0956 25.5972 18.1085 25.5682 18.1222 25.5398C18.1085 25.5681 18.0956 25.5972 18.0834 25.6266C18.1043 25.6946 18.1096 25.7664 18.0988 25.8367C18.088 25.907 18.0614 25.974 18.0211 26.0326C18.0614 25.974 18.0879 25.907 18.0987 25.8367C18.1095 25.7665 18.1042 25.6947 18.0833 25.6267ZM17.1855 27.4578C17.156 27.4914 17.1327 27.53 17.1166 27.5717L17.1165 27.5716C17.1327 27.53 17.156 27.4914 17.1853 27.4575C17.4408 27.3376 17.4174 27.0106 17.5473 26.7974C17.4174 27.0106 17.4409 27.3377 17.1855 27.4578L17.1855 27.4578ZM18.1872 25.0907C18.1643 25.1498 18.1467 25.2109 18.1346 25.273C18.1467 25.2109 18.1643 25.1498 18.1872 25.0907L18.1872 25.0907ZM18.8431 23.5098C18.9016 23.4354 18.9667 23.3649 19.0272 23.2917C18.9667 23.3649 18.9016 23.4353 18.8431 23.5098ZM18.8393 23.5532C18.8191 23.6284 18.7249 23.6613 18.6657 23.7141C18.7248 23.6612 18.8191 23.6283 18.8393 23.5532ZM18.7433 23.2799C18.6809 23.3028 18.6251 23.3405 18.5806 23.3898C18.6251 23.3405 18.681 23.3028 18.7433 23.2799L18.7433 23.2799ZM16.9064 27.322L16.9065 27.3221C16.8097 27.5366 16.713 27.7511 16.6162 27.9657C16.7129 27.7511 16.8097 27.5365 16.9064 27.322ZM16.4006 28.5088C16.4422 28.5258 16.4834 28.5433 16.5244 28.5612C16.5473 28.5161 16.5703 28.471 16.5932 28.4259L16.5932 28.426C16.5702 28.471 16.5473 28.5161 16.5244 28.5612C16.4116 28.7254 16.2989 28.8897 16.1862 29.0541C16.2737 29.0244 16.3668 29.0154 16.4583 29.0278C16.5498 29.0403 16.6371 29.0737 16.7135 29.1257C16.7153 29.2705 16.7172 29.4153 16.7194 29.5601C16.7173 29.4153 16.7152 29.2705 16.7132 29.1257C16.6369 29.0738 16.5496 29.0402 16.4582 29.0278C16.3668 29.0154 16.2737 29.0245 16.1863 29.0543C16.1523 29.2418 16.1183 29.4294 16.0842 29.617C16.1183 29.4294 16.1523 29.2418 16.1863 29.0542C16.2989 28.8898 16.4116 28.7254 16.5243 28.5612C16.4834 28.5432 16.4422 28.5258 16.4007 28.5089L16.2594 28.6234C16.3065 28.5852 16.3535 28.547 16.4007 28.5088L16.4006 28.5088ZM15.5305 30.6313L15.5305 30.6315C15.5084 30.6774 15.4762 30.7178 15.4365 30.7498C15.3968 30.7818 15.3504 30.8046 15.3008 30.8165C15.3504 30.8046 15.3968 30.7817 15.4365 30.7497C15.4762 30.7177 15.5084 30.6772 15.5305 30.6313L15.5305 30.6313ZM14.6657 32.282C14.6411 32.3187 14.6172 32.3558 14.594 32.3934C14.544 32.4028 14.4973 32.4249 14.4583 32.4576C14.4193 32.4902 14.3894 32.5324 14.3714 32.58C14.3894 32.5324 14.4193 32.4902 14.4583 32.4576C14.4973 32.4249 14.544 32.4028 14.594 32.3933C14.6172 32.3558 14.6411 32.3187 14.6657 32.282ZM17.1323 26.0213C17.154 26.0466 17.1702 26.0761 17.1801 26.108C17.19 26.1399 17.1933 26.1734 17.1898 26.2066C17.1933 26.1734 17.19 26.1399 17.1801 26.108C17.1702 26.0761 17.1539 26.0466 17.1322 26.0212L17.1323 26.0213ZM16.7486 26.9498L16.7486 26.9498C16.7662 26.9043 16.7837 26.8588 16.8012 26.8132C16.7837 26.8587 16.7662 26.9042 16.7487 26.9498L16.7486 26.9498ZM15.5845 29.7377C15.4277 29.9756 15.3045 30.234 15.2183 30.5056L15.2182 30.5055C15.3045 30.234 15.4277 29.9756 15.5845 29.7377ZM16.9147 25.971C16.9403 25.9984 16.9719 26.0197 17.0069 26.0332C16.9719 26.0197 16.9403 25.9984 16.9147 25.971ZM18.1095 23.2166C18.0972 23.1772 18.0399 23.1317 17.9064 23.0761L17.9064 23.0761C18.0399 23.1317 18.0972 23.1772 18.1096 23.2166L18.1095 23.2166ZM17.8299 23.1935C17.8528 23.166 17.8729 23.1364 17.8901 23.1051C17.8729 23.1364 17.8528 23.166 17.83 23.1935C17.756 23.1567 17.6059 23.2926 17.5154 23.2933C17.6059 23.2926 17.7559 23.1566 17.8299 23.1934L17.8299 23.1935ZM17.4452 23.8283L17.4469 23.8317C17.3856 23.9707 17.3243 24.1098 17.263 24.2488C17.3243 24.1098 17.3856 23.9706 17.4468 23.8316L17.4452 23.8283ZM17.4433 23.8242C17.4918 23.8192 17.5379 23.8007 17.5763 23.7707C17.5379 23.8007 17.4918 23.8192 17.4433 23.8242ZM16.7316 25.8431C16.7576 25.8457 16.7826 25.8548 16.8042 25.8695C16.7826 25.8548 16.7576 25.8457 16.7316 25.8431C16.6259 25.8579 16.5201 25.8728 16.4142 25.8877L16.4132 25.8935L16.4143 25.8878C16.4078 25.8699 16.4028 25.8516 16.3993 25.833C16.4028 25.8516 16.4078 25.8699 16.4142 25.8877C16.5201 25.8728 16.6259 25.8579 16.7317 25.8431L16.7316 25.8431ZM17.0171 24.1696C16.9099 24.3611 16.8552 24.5775 16.8583 24.7969C16.8376 24.8037 16.8186 24.8148 16.8027 24.8296C16.7868 24.8445 16.7744 24.8627 16.7663 24.8829C16.7744 24.8627 16.7868 24.8445 16.8027 24.8296C16.8186 24.8148 16.8376 24.8036 16.8583 24.7969C16.8551 24.5774 16.9099 24.3611 17.0171 24.1696ZM16.3999 25.9631L16.3999 25.9633C16.2435 25.9546 16.0937 25.8975 15.9712 25.8C16.0937 25.8975 16.2436 25.9545 16.3999 25.9631ZM13.9978 30.1329C14.0812 30.1681 14.1646 30.2033 14.2481 30.2385C14.2719 30.0527 14.3681 29.8837 14.5158 29.7684C14.3682 29.8837 14.272 30.0526 14.2482 30.2385C14.2429 30.2853 14.2279 30.3306 14.2042 30.3713C14.1063 30.3863 14.0623 30.4238 14.0443 30.4721C14.0623 30.4238 14.1063 30.3863 14.2041 30.3712C14.2279 30.3305 14.2429 30.2853 14.2482 30.2385L13.9978 30.1329ZM13.2613 31.5259C13.3001 31.5441 13.3388 31.5625 13.3776 31.5808C13.3273 31.713 13.277 31.8451 13.2268 31.9772C13.1162 32.1941 13.0058 32.411 12.8955 32.628C12.8567 32.6569 12.8184 32.6859 12.7803 32.7149C12.8184 32.6859 12.8566 32.6568 12.8951 32.6278C13.0057 32.411 13.1162 32.1941 13.2267 31.9772C13.277 31.8451 13.3273 31.713 13.3775 31.5808C13.3388 31.5625 13.3 31.5441 13.2613 31.5259L13.2575 31.5271L13.2613 31.5259ZM12.8431 32.8832L12.8432 32.8834C12.764 32.8666 12.6816 32.8762 12.6085 32.9107C12.5354 32.9453 12.4757 33.003 12.4385 33.0748C12.4756 33.003 12.5354 32.9453 12.6085 32.9107C12.6815 32.876 12.764 32.8664 12.8431 32.8831L12.8431 32.8832ZM10.5933 36.6159C10.6151 36.5892 10.6333 36.5597 10.6474 36.5282C10.6333 36.5597 10.6151 36.5892 10.5933 36.6159ZM10.5398 36.1276C10.6251 36.112 10.7079 36.0854 10.7862 36.0483C10.7079 36.0854 10.6251 36.1121 10.5398 36.1277L10.5398 36.1276ZM15.8956 22.7065L15.8956 22.7065C15.94 22.7217 15.9839 22.7383 16.0274 22.7561C16.1652 22.5565 16.303 22.3569 16.4407 22.1573C16.4375 22.1199 16.4261 22.0838 16.4073 22.0514C16.3885 22.0189 16.3629 21.991 16.3322 21.9695C16.3629 21.991 16.3886 22.0189 16.4073 22.0514C16.4261 22.0838 16.4375 22.12 16.4408 22.1574C16.4777 22.1733 16.5145 22.1893 16.5513 22.2055C16.5145 22.1893 16.4777 22.1732 16.4407 22.1573C16.303 22.3569 16.1652 22.5565 16.0274 22.7561C15.984 22.7383 15.9401 22.7218 15.8956 22.7065L15.8956 22.7065ZM14.9228 24.8773C14.9098 24.8743 14.8962 24.8742 14.8831 24.8772C14.87 24.8801 14.8578 24.886 14.8472 24.8943C14.8578 24.886 14.87 24.8801 14.8831 24.8772C14.8962 24.8742 14.9098 24.8743 14.9228 24.8773ZM13.745 27.0761C13.6401 27.083 13.5352 27.0899 13.4303 27.0967C13.3953 27.1602 13.3696 27.2314 13.3328 27.2933C13.3696 27.2314 13.3953 27.1601 13.4302 27.0966L13.745 27.0761ZM14.3575 25.3619C14.3562 25.2854 14.3638 25.2091 14.3802 25.1344C14.3639 25.2091 14.3563 25.2854 14.3575 25.3619ZM14.5765 24.6299C14.5097 24.6712 14.443 24.7125 14.3764 24.7538L14.3763 24.7538C14.4431 24.7125 14.5098 24.6712 14.5765 24.6299ZM12.5504 25.5898C12.5589 25.7638 12.6841 25.8873 12.9405 25.9608C12.6841 25.8874 12.5589 25.7638 12.5504 25.5898ZM15.2653 21.6679L15.2653 21.6679L14.8547 21.4878C14.9916 21.5478 15.1285 21.6079 15.2653 21.6679ZM15.4963 20.9534C15.5438 20.8274 15.612 20.7103 15.6982 20.6069C15.7423 20.6226 15.786 20.6395 15.8292 20.6575C15.786 20.6395 15.7423 20.6226 15.6982 20.607C15.612 20.7104 15.5438 20.8275 15.4963 20.9534L15.4963 20.9534ZM14.7596 22.8416L14.7523 22.8416L14.7596 22.8416ZM13.6258 25.1516C13.6026 25.199 13.5793 25.2465 13.5561 25.2939L13.5561 25.2937L13.6258 25.1516ZM11.688 29.0024C11.7506 28.9953 11.7785 28.9732 11.7896 28.944C11.7785 28.9732 11.7506 28.9953 11.6879 29.0024L11.688 29.0024ZM11.654 29.4977L11.6522 29.4645L11.6541 29.4977L11.654 29.4977ZM12.6828 26.8059C12.7633 26.7309 12.9318 26.76 13.0692 26.7777C13.1073 26.6966 13.1452 26.6154 13.1831 26.5344C13.0235 26.4602 13.0989 26.2994 13.1052 26.1642C13.0989 26.2994 13.0236 26.4602 13.1832 26.5344C13.1452 26.6155 13.1073 26.6966 13.0694 26.7778C12.9318 26.76 12.7633 26.7309 12.6828 26.8059ZM12.059 28.9217C12.1514 28.6772 12.3312 28.4758 12.5636 28.3564L12.5637 28.3565C12.3312 28.4758 12.1513 28.6772 12.059 28.9217L12.059 28.9217ZM13.6254 25.7376L13.626 25.7387L13.6254 25.7376ZM14.107 25.0815C14.0908 25.115 14.0783 25.1502 14.0698 25.1865C14.0783 25.1503 14.0908 25.1151 14.107 25.0816C14.1171 25.027 14.1332 24.9736 14.1549 24.9225C14.1332 24.9736 14.1171 25.0269 14.107 25.0815L14.107 25.0815ZM13.9574 24.6917L13.9574 24.6916L14.4853 24.1316C14.3093 24.3184 14.1333 24.5051 13.9574 24.6917L13.9574 24.6917ZM16.0041 20.2591C16.0291 20.2882 16.0441 20.3247 16.0468 20.363C16.0495 20.4014 16.0397 20.4396 16.019 20.4719C16.0397 20.4395 16.0494 20.4014 16.0467 20.363C16.044 20.3247 16.0291 20.2882 16.004 20.2591C15.9892 20.1362 15.8555 20.0097 15.7906 19.8853C15.8555 20.0097 15.9892 20.1363 16.004 20.2591L16.0041 20.2591ZM16.7129 17.464C16.7133 17.5044 16.7165 17.5457 16.7192 17.587C16.7165 17.5457 16.7133 17.5044 16.7129 17.464C16.6798 17.4414 16.6144 17.4796 16.5556 17.5064C16.6144 17.4796 16.6798 17.4414 16.7129 17.464L16.7129 17.464ZM15.077 20.9595L15.0771 20.9595C15.0141 21.0006 14.96 21.0539 14.918 21.1162C14.96 21.0539 15.0141 21.0006 15.077 20.9595L15.077 20.9595ZM14.8146 20.8506C14.8022 20.7929 14.8026 20.7333 14.8157 20.6759C14.8026 20.7333 14.8023 20.793 14.8146 20.8506L14.8146 20.8506ZM14.3148 22.0373C14.4088 22.0629 14.4889 22.1247 14.5375 22.2092C14.4889 22.1247 14.4088 22.0629 14.3148 22.0373C14.295 22.0102 14.2802 21.9798 14.2711 21.9476C14.2802 21.9798 14.295 22.0103 14.3147 22.0373L14.3148 22.0373ZM14.3484 21.578L14.5733 21.0595C14.4983 21.2323 14.4234 21.4052 14.3485 21.5781C14.2848 21.6019 14.2284 21.642 14.185 21.6942C14.1415 21.7465 14.1125 21.8091 14.1007 21.8761C14.1125 21.8091 14.1415 21.7464 14.1849 21.6941C14.2284 21.6419 14.2847 21.6018 14.3484 21.578L14.3484 21.578ZM11.7692 26.9783C11.7236 27.0504 11.6959 27.1324 11.6885 27.2174C11.681 27.3023 11.694 27.3878 11.7263 27.4667L11.7262 27.4667C11.694 27.3878 11.681 27.3023 11.6884 27.2173C11.6959 27.1323 11.7236 27.0504 11.7691 26.9783L11.7692 26.9783Z" fill="#FAE465"/>
</svg>
