<svg width="122" height="17" viewBox="0 0 122 17" fill="none" xmlns="http://www.w3.org/2000/svg">
<path fill-rule="evenodd" clip-rule="evenodd" d="M56.9902 7.0566C59.1198 7.78209 60.1577 9.59466 60.1577 11.3417C60.1577 13.8031 58.1591 15.8058 55.7001 15.8146L46.9707 15.814V0.000585086L55.0097 0C56.0155 0.00955286 56.977 0.415522 57.6853 1.12975C58.3936 1.84398 58.7916 2.8088 58.7928 3.81469C58.794 4.46399 58.6289 5.10277 58.3133 5.67017C57.9976 6.23758 57.5419 6.71468 56.9896 7.05601L56.9902 7.0566ZM50.5935 12.8641H54.6282C55.8966 12.8641 56.5601 11.918 56.5601 10.983C56.5601 10.23 55.9604 9.1693 54.6282 9.1693H50.5935V12.8641ZM53.547 6.21935C54.4772 6.21935 55.2063 5.50147 55.2063 4.58524C55.2063 3.69943 54.4457 2.95112 53.547 2.95112H50.5935V6.21935H53.547ZM90.771 15.8171L86.9925 9.18823C87.8126 8.79567 88.505 8.17935 88.99 7.41033C89.475 6.6413 89.7328 5.75088 89.7336 4.8417C89.7336 2.17434 87.563 0.00429925 84.8951 0.00429925H76.8146V15.8166H80.4081V9.67911H83.2685L86.7667 15.8171H90.771ZM80.349 6.62677V3.06424H84.2222L84.207 3.0701C85.3859 3.13328 86.1372 3.81665 86.1372 4.84873C86.1372 5.86968 85.3327 6.58464 84.1327 6.62736H80.349V6.62677ZM62.1385 15.8171V0.00429925H73.953V3.02153H65.8292V6.18504H72.9519V9.26956H65.8292V12.6425H74.3549V15.8171H62.1385ZM45.2878 15.8171L41.5094 9.18823C42.3294 8.79564 43.0217 8.1793 43.5066 7.41027C43.9915 6.64124 44.2491 5.75083 44.2499 4.8417C44.2499 2.17434 42.0798 0.00429925 39.4124 0.00429925H31.3308V15.8166H34.9249V9.67911H37.7859L41.2835 15.8171H45.2878ZM34.8652 6.62677V3.06424H38.739L38.7238 3.0701C39.9027 3.13328 40.6546 3.81665 40.6546 4.84873C40.6546 5.86968 39.8495 6.58464 38.6495 6.62736H34.8652V6.62677ZM21.7543 16.2068C26.078 16.2068 28.6599 13.7208 28.6599 9.55741V0.0154157H24.9693V9.31051C24.9693 11.5619 23.7974 12.8526 21.7543 12.8526H21.7525C19.7094 12.8526 18.5381 11.5619 18.5381 9.31051V0.0154157H14.8463V9.558C14.8463 13.7208 17.4282 16.2068 21.7525 16.2068H21.7543ZM10.0194 7.05914C12.1491 7.78522 13.187 9.5972 13.187 11.3442C13.187 13.8056 11.1884 15.8089 8.72933 15.8171H0V0.00312909H8.04011C9.04575 0.0125288 10.0071 0.418307 10.7153 1.13233C11.4235 1.84636 11.8214 2.81097 11.8226 3.81665C11.824 4.46604 11.6589 5.10495 11.3433 5.67246C11.0276 6.23998 10.5718 6.71717 10.0194 7.05856V7.05914ZM3.62279 12.8666H7.65747C8.92591 12.8666 9.58939 11.9205 9.58939 10.9856C9.58939 10.2326 8.99027 9.17185 7.65747 9.17185H3.62279V12.8666ZM6.57742 6.2219C7.50652 6.2219 8.23552 5.50401 8.23552 4.58778C8.23552 3.70198 7.47493 2.95367 6.57683 2.95367H3.62279V6.2219H6.57742ZM102.632 9.18869L106.41 15.8176H102.407L98.909 9.67957H96.048V15.817H92.4538V0.00475945H100.535C103.202 0.00475945 105.372 2.1748 105.372 4.84216C105.372 5.75129 105.114 6.6417 104.629 7.41073C104.144 8.17976 103.452 8.7961 102.632 9.18869ZM95.9877 3.06471V6.62723V6.62782H99.772C100.972 6.5851 101.777 5.87014 101.777 4.84919C101.777 3.81711 101.025 3.13374 99.8463 3.07056L99.8615 3.06471H95.9877ZM111.661 9.37416V15.8176H115.554V9.37416L121.843 0.00475945H117.234L113.608 5.44128L109.997 0.00475945H105.388L111.661 9.37416Z" fill="#3F3F3F"/>
</svg>
