<svg width="19" height="18" viewBox="0 0 19 18" fill="none" xmlns="http://www.w3.org/2000/svg">
<path fill-rule="evenodd" clip-rule="evenodd" d="M5.35779 0.0366744C5.18431 0.0972498 5.03515 0.229094 4.95654 0.391332C4.89447 0.519483 4.88254 0.609396 4.88254 0.949596V1.35512L4.32762 1.37693C3.55652 1.40729 3.15808 1.49973 2.6177 1.77369C1.73085 2.2233 1.09613 3.02907 0.822556 4.05255L0.746094 4.33861V9.68556V15.0325L0.826218 15.347C0.912925 15.6873 1.14626 16.2123 1.32808 16.4764C1.48727 16.7076 1.86952 17.1055 2.11017 17.2905C2.55986 17.6363 3.18758 17.8945 3.76077 17.9694C3.96664 17.9963 5.8241 18.0048 9.93428 17.9975L15.8133 17.9871L16.0859 17.9096C16.7128 17.7314 17.184 17.4774 17.5945 17.0964C18.2074 16.5273 18.5623 15.8864 18.6994 15.1006C18.78 14.6389 18.7797 4.73045 18.6991 4.26854C18.5741 3.55205 18.2519 2.94253 17.7139 2.40456C16.9746 1.66542 16.183 1.37056 14.9279 1.36705L14.6059 1.36613L14.5935 0.911816C14.5816 0.472768 14.5776 0.452435 14.4756 0.308138C14.1679 -0.126935 13.533 -0.089788 13.2886 0.377613C13.1982 0.550685 13.1906 0.595818 13.1906 0.965602V1.36613H9.74066H6.29069V0.965602C6.29069 0.595818 6.28316 0.550685 6.19268 0.377613C6.03332 0.0728016 5.67417 -0.0738527 5.35779 0.0366744ZM4.88254 3.53066C4.88254 4.33918 4.90173 4.45255 5.06905 4.63178C5.42834 5.01666 6.11569 4.86128 6.25394 4.36391C6.27393 4.29197 6.29037 3.9046 6.29048 3.50315L6.29069 2.77322H9.74066H13.1906L13.1908 3.50315C13.191 3.9046 13.2074 4.29197 13.2274 4.36391C13.3656 4.86128 14.053 5.01666 14.4123 4.63178C14.5798 4.45234 14.5988 4.33956 14.5988 3.52549V2.76288L15.1004 2.78342C15.3815 2.79489 15.6937 2.82859 15.8105 2.86004C16.3699 3.01067 16.8736 3.42988 17.1324 3.96032C17.2866 4.27621 17.3433 4.57821 17.3441 5.08613L17.3447 5.51705H9.74066H2.13664L2.13724 5.08613C2.13798 4.57821 2.19473 4.27621 2.34889 3.96032C2.6559 3.33106 3.23704 2.91252 3.94883 2.80798C4.04606 2.7937 4.29597 2.78001 4.5041 2.77762L4.88254 2.77322V3.53066ZM17.3447 10.8408C17.3447 14.6451 17.3427 14.7653 17.2741 15.0331C17.0995 15.7153 16.5744 16.2737 15.8996 16.4945L15.6373 16.5803H9.74066H3.84403L3.58176 16.4945C3.26996 16.3925 2.86568 16.1317 2.66364 15.9024C2.45397 15.6644 2.28767 15.3474 2.20695 15.0321C2.13876 14.7656 2.13664 14.6404 2.13664 10.8408V6.92415H9.74066H17.3447V10.8408ZM4.61819 9.06521C4.37965 9.17352 4.17885 9.46504 4.17885 9.70315C4.17885 9.94127 4.37965 10.2328 4.61819 10.3411C4.74158 10.3971 4.86237 10.4053 5.57894 10.4059C6.48495 10.4068 6.56215 10.3926 6.77619 10.1856C6.84828 10.1158 6.91232 10.0037 6.94587 9.88836C6.99424 9.72208 6.99424 9.68423 6.94587 9.51794C6.91232 9.40263 6.84828 9.29049 6.77619 9.22073C6.56215 9.01375 6.48495 8.99954 5.57894 9.00038C4.86237 9.00105 4.74158 9.00921 4.61819 9.06521ZM8.72616 9.09096C8.31998 9.2932 8.21894 9.80791 8.51853 10.1489C8.72901 10.3884 8.80882 10.4052 9.74066 10.4052C10.6575 10.4052 10.7429 10.3883 10.951 10.1669C11.2627 9.83528 11.1371 9.26446 10.7088 9.0663C10.5845 9.00879 10.4706 9.00105 9.73876 9.00038C8.91591 8.99961 8.9082 9.00031 8.72616 9.09096ZM12.9442 9.05568C12.3585 9.30924 12.3632 10.1068 12.9519 10.3521C13.0576 10.3962 13.2403 10.4066 13.9024 10.4059C14.619 10.4053 14.7397 10.3971 14.8631 10.3411C15.1017 10.2328 15.3025 9.94127 15.3025 9.70315C15.3025 9.46504 15.1017 9.17352 14.8631 9.06521C14.7393 9.009 14.6206 9.00122 13.8947 9.00175C13.2341 9.00224 13.0426 9.01311 12.9442 9.05568ZM4.57211 13.2419C4.16593 13.4441 4.0649 13.9588 4.36448 14.2998C4.57447 14.5388 4.65576 14.556 5.57894 14.5568C6.24098 14.5575 6.42373 14.5471 6.52944 14.5031C7.00765 14.3038 7.12823 13.7039 6.76028 13.3547C6.56169 13.1662 6.47101 13.1505 5.57704 13.1505C4.7632 13.1505 4.75383 13.1514 4.57211 13.2419ZM8.80776 13.1972C8.55683 13.2953 8.39968 13.4858 8.35025 13.7517C8.29847 14.0304 8.48804 14.363 8.77224 14.492C8.89595 14.5482 9.01561 14.5561 9.74066 14.5561C10.678 14.5561 10.7622 14.5379 10.9649 14.2922C11.257 13.9382 11.1318 13.4129 10.7088 13.2172C10.5839 13.1595 10.4743 13.1523 9.74066 13.154C9.19525 13.1552 8.8774 13.1699 8.80776 13.1972ZM12.9442 13.2066C12.3585 13.4602 12.3632 14.2577 12.9519 14.5031C13.0576 14.5471 13.2403 14.5575 13.9024 14.5568C14.8256 14.556 14.9069 14.5388 15.1168 14.2998C15.4177 13.9574 15.3127 13.4428 14.9001 13.2373C14.7293 13.1523 14.7089 13.1506 13.8966 13.1519C13.2356 13.153 13.0424 13.1641 12.9442 13.2066Z" fill="#3F3F3F"/>
</svg>
