<svg width="19" height="18" viewBox="0 0 19 18" fill="none" xmlns="http://www.w3.org/2000/svg">
<path d="M0.580078 2.50008C0.580078 1.48756 1.40151 0.666748 2.41481 0.666748H17.0926C18.1059 0.666748 18.9273 1.48756 18.9273 2.50008V12.5834C18.9273 13.5959 18.1059 14.4167 17.0926 14.4167H12.8858L10.4024 16.8983C10.0441 17.2562 9.46329 17.2562 9.10504 16.8983L6.62164 14.4167H2.41481C1.40151 14.4167 0.580078 13.5959 0.580078 12.5834V2.50008ZM17.0926 2.50008H2.41481V12.5834H7.00162C7.24492 12.5834 7.47826 12.68 7.6503 12.8519L9.75371 14.9537L11.8571 12.8519C12.0292 12.68 12.2625 12.5834 12.5058 12.5834H17.0926V2.50008Z" fill="#3F3F3F"/>
<path d="M11.1298 7.54175C11.1298 8.30114 10.5137 8.91675 9.75371 8.91675C8.99374 8.91675 8.37767 8.30114 8.37767 7.54175C8.37767 6.78236 8.99374 6.16675 9.75371 6.16675C10.5137 6.16675 11.1298 6.78236 11.1298 7.54175Z" fill="#3F3F3F"/>
<path d="M14.7992 7.54175C14.7992 8.30114 14.1831 8.91675 13.4232 8.91675C12.6632 8.91675 12.0471 8.30114 12.0471 7.54175C12.0471 6.78236 12.6632 6.16675 13.4232 6.16675C14.1831 6.16675 14.7992 6.78236 14.7992 7.54175Z" fill="#3F3F3F"/>
<path d="M7.4603 7.54175C7.4603 8.30114 6.84423 8.91675 6.08426 8.91675C5.32429 8.91675 4.70821 8.30114 4.70821 7.54175C4.70821 6.78236 5.32429 6.16675 6.08426 6.16675C6.84423 6.16675 7.4603 6.78236 7.4603 7.54175Z" fill="#3F3F3F"/>
</svg>
