<svg width="19" height="20" viewBox="0 0 19 20" fill="none" xmlns="http://www.w3.org/2000/svg">
<path d="M9.75371 19.1666C4.68711 19.1666 0.580078 15.0627 0.580078 9.99992C0.580078 4.93717 4.68711 0.833252 9.75371 0.833252C14.8203 0.833252 18.9273 4.93717 18.9273 9.99992C18.9273 15.0627 14.8203 19.1666 9.75371 19.1666ZM9.75371 17.3333C11.7001 17.3333 13.5668 16.5606 14.9431 15.1854C16.3194 13.8101 17.0926 11.9448 17.0926 9.99992C17.0926 8.055 16.3194 6.18974 14.9431 4.81447C13.5668 3.4392 11.7001 2.66659 9.75371 2.66659C7.80731 2.66659 5.94063 3.4392 4.56432 4.81447C3.18801 6.18974 2.41481 8.055 2.41481 9.99992C2.41481 11.9448 3.18801 13.8101 4.56432 15.1854C5.94063 16.5606 7.80731 17.3333 9.75371 17.3333ZM10.6711 9.99992H14.3405V11.8333H8.83635V5.41659H10.6711V9.99992Z" fill="#3F3F3F"/>
</svg>
