<svg width="122" height="17" viewBox="0 0 122 17" fill="none" xmlns="http://www.w3.org/2000/svg">
<path d="M121.614 2.93157C121.614 3.6381 121.04 4.21178 120.332 4.21178C119.627 4.21178 119.053 3.63894 119.053 2.93157C119.053 2.2242 119.627 1.65137 120.332 1.65137C121.041 1.65137 121.614 2.2242 121.614 2.93157ZM120.333 1.86459C119.744 1.86459 119.267 2.34181 119.267 2.93157C119.267 3.52048 119.744 3.99855 120.333 3.99855C120.923 3.99855 121.401 3.52048 121.401 2.93157C121.4 2.34181 120.923 1.86459 120.333 1.86459ZM120.888 2.66081C120.888 2.85034 120.69 3.02634 120.49 3.02634C120.602 3.06442 120.689 3.16511 120.979 3.64233H120.707C120.493 3.27933 120.416 3.05765 120.189 3.05765H120.042V3.64233H119.822V2.26312H120.377C120.795 2.26312 120.888 2.47043 120.888 2.66081ZM120.042 2.86727H120.342C120.533 2.86727 120.654 2.81481 120.654 2.65742C120.654 2.50089 120.532 2.44843 120.342 2.44843H120.042V2.86727ZM117.944 14.8384H103.868V1.75967H117.702V4.10263H107.027V6.97018H114.362V9.32075H107.027V12.3635H117.944V14.8384ZM14.0755 12.3635H3.15863V9.32075H10.4929V6.97018H3.15863V4.10263H13.8335V1.75967H0V14.8384H14.0755V12.3635ZM40.6696 4.22532H46.9623V1.75967H31.2428V4.22532H37.4991V14.8384H40.6704V4.22532H40.6696ZM85.404 1.75967H93.7528C98.8609 1.75967 101.61 3.99009 101.61 8.28254C101.61 10.8675 100.447 12.5953 98.5479 13.7596C97.2279 14.593 95.3765 14.8376 92.9439 14.8376H85.404V1.75967ZM92.4946 12.2399C96.5154 12.2399 98.4632 11.651 98.4632 8.22077C98.4632 5.41414 96.8057 4.22447 93.8154 4.22447H88.6108V12.2399H92.4946V12.2399ZM68.9348 14.8384H65.7634L73.4371 1.75967H76.561L84.3666 14.8384H80.7951L79.1629 12.2399H70.5196L68.9348 14.8384ZM71.8751 9.75228H77.8446L74.9161 4.458L71.8751 9.75228ZM52.1626 14.8384H49.0285V1.75967H59.5849C62.5244 1.75967 64.4494 3.50102 64.4494 6.03605C64.4494 8.09639 63.4552 9.43413 61.5082 9.97058L64.798 14.8376H61.2611L58.0941 10.2041H52.1635V14.8384H52.1626ZM52.1626 7.69109H59.2431C60.5766 7.69109 61.3508 7.0311 61.3508 5.95059C61.3508 4.95892 60.5639 4.27101 59.2321 4.27101H52.1635V7.69109H52.1626Z" fill="#3F3F3F"/>
<path d="M22.8751 4.77813L25.6343 0L28.6838 1.75996L25.9245 6.53979H31.4422V10.0606H25.9245L28.6838 14.8387L25.6343 16.6004L22.8751 11.8205L20.8418 8.29976L22.8751 4.77813Z" fill="black"/>
<path d="M22.8746 4.77813L20.1162 0L17.0667 1.75996L19.8251 6.53979H14.3066V10.0606H19.8251L17.0667 14.8387L20.1162 16.6004L22.8746 11.8205L24.9079 8.29976L22.8746 4.77813Z" fill="black"/>
</svg>
