<svg width="42" height="42" viewBox="0 0 42 42" fill="none" xmlns="http://www.w3.org/2000/svg">
<path fill-rule="evenodd" clip-rule="evenodd" d="M19.0846 0.0488488C15.0311 0.440683 11.0133 2.08745 7.86274 4.6483C6.93604 5.40158 5.46877 6.87923 4.72967 7.80375C2.86085 10.1412 1.32942 13.303 0.694276 16.1349C0.295417 17.9137 0.205078 18.7784 0.205078 20.819C0.205078 22.8596 0.295417 23.7243 0.694276 25.5031C1.34328 28.3967 2.91467 31.6037 4.84561 33.9752C5.59955 34.9011 7.07848 36.3671 8.0038 37.1055C10.3433 38.9727 13.5078 40.5029 16.3422 41.1374C18.1225 41.536 18.988 41.6262 21.0303 41.6262C23.0727 41.6262 23.9381 41.536 25.7185 41.1374C27.8495 40.6603 30.6359 39.4706 32.467 38.2561C35.6427 36.1496 38.0817 33.378 39.7471 29.9835C40.7671 27.9042 41.3465 26.042 41.7114 23.6702C41.9134 22.3578 41.9134 19.2802 41.7114 17.9678C41.3465 15.596 40.7671 13.7338 39.7471 11.6545C38.6585 9.4356 37.4451 7.74754 35.6934 6.01508C33.9735 4.31414 32.3981 3.19639 30.2028 2.11962C28.1465 1.11096 26.2427 0.516117 23.9655 0.170635C22.9415 0.0152862 20.1516 -0.0543642 19.0846 0.0488488ZM23.6394 2.05063C27.7803 2.65157 31.5231 4.51478 34.4359 7.42503C37.3577 10.3442 39.1683 13.9792 39.8292 18.2529C39.926 18.8786 39.9678 19.653 39.9678 20.819C39.9678 23.9004 39.3622 26.5061 38.0139 29.226C35.2159 34.8701 30.0198 38.6102 23.5986 39.6016C22.3672 39.7918 19.6934 39.7918 18.462 39.6016C14.1846 38.9412 10.5465 37.1323 7.62475 34.213C4.70293 31.2938 2.89241 27.6588 2.23142 23.3851C2.04112 22.1547 2.04112 19.4833 2.23142 18.2529C2.5675 16.0802 3.1375 14.2463 4.04675 12.412C6.79466 6.86888 11.954 3.09554 18.1741 2.07987C19.7468 1.8231 21.9891 1.81104 23.6394 2.05063ZM22.661 12.3199C21.0789 12.4324 20.0487 12.9933 19.5733 14.0012C19.2302 14.7284 19.1551 15.2073 19.1551 16.6658V17.9627L18.1971 17.9856L17.239 18.0085L17.2167 19.4138L17.1944 20.819H18.1747H19.1551V25.0958V29.3726H21.0303H22.9056V25.0958V20.819H24.1678C25.4109 20.819 25.4306 20.8162 25.4687 20.6357C25.5066 20.4557 25.7592 18.2062 25.7592 18.0484C25.7592 17.9983 25.2154 17.9678 24.3232 17.9678H22.8871L22.9181 16.8422C22.9555 15.4793 23.0174 15.3389 23.6404 15.2055C23.8685 15.1566 24.4385 15.1166 24.9071 15.1166H25.7592V13.691V12.2654L24.3936 12.2797C23.6425 12.2875 22.8628 12.3056 22.661 12.3199Z" fill="#3F3F3F"/>
</svg>
