<svg width="84" height="10" viewBox="0 0 84 10" fill="none" xmlns="http://www.w3.org/2000/svg">
<path d="M83.9975 4.69192C84.0285 4.31064 83.7614 4.54822 83.6323 4.46492C83.5646 4.20145 83.4969 3.93806 83.4292 3.67476C83.5059 1.21591 83.5059 1.21591 82.8883 1.94375C82.8267 1.9143 82.765 1.88483 82.7034 1.85534C82.6562 1.79067 82.6042 1.75031 82.5506 1.73668C82.497 1.72305 82.4429 1.73644 82.3914 1.77604C82.3399 1.81564 82.2922 1.88064 82.2511 1.96711C82.21 2.05359 82.1764 2.15976 82.1523 2.27923C81.688 2.30466 81.4597 0.35371 80.8798 1.34657C80.5985 1.76715 80.3994 1.36642 80.1693 0.996649C79.7957 0.396366 79.722 0.987367 79.7361 1.78814C79.6898 1.78183 79.6434 1.79728 79.5994 1.83368C79.2213 0.897207 78.8502 0.612329 78.4959 1.90594C78.5314 0.219344 78.1892 0.288304 77.7309 0.896114C77.6803 0.897614 77.6313 0.941893 77.5922 1.02162C77.2188 0.908245 76.8656 -0.476881 76.4685 0.912211C76.441 0.896663 76.4125 0.895502 76.3848 0.90879C76.3572 0.922077 76.331 0.949521 76.3079 0.989376C76.2368 0.811677 76.1504 0.676066 76.0553 0.592668C75.9601 0.509271 75.8585 0.480243 75.7581 0.507771C75.3391 -0.329006 74.9773 -0.0640364 74.6499 0.861168C74.4142 0.763476 74.1221 0.850132 73.9534 0.533432C73.4578 -0.396861 73.3998 0.631334 73.2534 1.34411C72.9272 -0.464891 72.6105 0.793366 72.2917 1.36247C72.1483 0.36348 72.1007 0.329818 71.7901 1.00884C71.7583 1.11281 71.7369 1.234 71.7276 1.36247C71.5191 1.72498 71.3364 1.93354 71.3503 0.973248C71.1024 0.0208865 70.6728 0.0153396 70.2774 0.959322L70.2637 0.915533C69.9625 1.01328 69.6033 0.516241 69.3831 1.44289C68.7544 1.69377 68.2034 -0.0116124 67.5448 0.995588C67.3197 0.549089 67.0953 0.0940227 66.7891 0.601052C66.5604 0.0964486 66.3291 -0.307987 66.0682 0.491653C66.0027 0.512853 65.9372 0.534067 65.8718 0.555302C65.7606 0.519757 65.6495 0.484321 65.5383 0.448994C65.0056 -0.111727 64.4908 -0.3425 64.0583 0.942095C63.8671 1.02431 63.6973 -0.077481 63.4902 0.879116C62.9313 -0.100429 62.5298 1.21748 62.0561 1.48224C61.8661 1.32647 61.7584 0.686826 61.5045 0.906509C61.1417 -0.135612 61.0221 0.465602 60.9529 1.40734C60.6967 1.39719 60.7099 0.363481 60.4079 0.527459C60.0795 -0.363894 59.9397 0.481027 59.7599 0.959122C59.6811 0.749143 59.5295 0.452508 59.4858 0.681318C59.4248 1.00023 59.4859 1.46238 59.4948 1.86332C59.2618 1.66728 59.0523 1.15115 58.7764 1.5397C58.3146 0.689877 58.1939 1.68232 58.0218 2.39706C57.8427 2.36988 57.6636 2.34277 57.4846 2.31573C57.4369 1.70636 57.6953 0.856329 57.295 0.530811C56.9435 0.245005 57.2252 1.50794 56.9517 1.4838C56.7646 1.41463 56.6012 0.69215 56.3875 1.3583C55.9747 0.771491 55.9162 1.6098 55.8069 2.24393C55.0396 1.58149 54.2713 0.957313 53.4621 1.85779C53.1643 1.7959 52.8515 0.22953 52.5712 1.91258C52.558 2.02683 52.5484 2.14345 52.5424 2.26138C52.2393 2.14626 51.9274 1.23562 51.6379 2.32367C51.2867 1.82355 51.0313 2.61654 50.7262 2.73812C50.6895 2.1646 50.5015 2.34889 50.3617 2.29162C50.0696 0.46028 49.6106 2.31442 49.2506 1.98307L48.9001 1.92937C48.5707 2.27196 48.2778 1.03956 47.9389 1.79257C47.9148 1.77473 47.8892 1.7745 47.865 1.7919C47.8409 1.80931 47.8193 1.84361 47.8028 1.89069C47.437 1.9674 47.0636 0.570297 46.7044 1.9256C46.3268 1.47872 46.185 2.30311 45.9743 2.75598L45.9742 2.76414C45.5646 1.67632 45.0146 1.44643 43.7775 1.8454C43.1535 0.597271 42.688 2.33254 42.133 2.38157C42.0077 2.13791 41.855 1.99689 41.6959 1.97808C41.5368 1.95927 41.3793 2.0636 41.2453 2.2766C41.214 1.73486 41.2384 1.11008 40.9063 1.07294C40.6235 1.04112 40.6751 1.48047 40.7021 1.89906C40.6329 2.38354 40.4712 2.31789 40.317 2.29648C40.0405 1.53658 39.8524 1.667 39.7484 2.64299C39.6126 2.69452 39.5645 2.09356 39.4003 2.35611C39.271 2.10668 39.1199 1.93577 38.9591 1.85705C38.7983 1.77834 38.6323 1.79401 38.4744 1.90282C38.08 1.67232 37.7376 2.16075 37.3765 2.38956C36.7944 1.51585 35.0202 1.74992 34.4584 2.77429C34.4036 1.87057 34.1919 1.53309 33.9156 2.16762C33.641 2.79844 33.3155 2.66582 33.0126 2.87003C32.7199 2.2618 32.5198 3.00619 32.2805 3.17752L32.2703 3.21374C31.8714 2.49518 31.4294 2.64776 30.9863 2.82499C30.5844 2.31554 30.5136 4.29031 30.0828 3.56366C29.8413 2.35201 29.4958 2.86676 29.1598 3.22214C28.5577 2.31862 27.9247 2.81766 27.2993 2.97085C27.3058 2.90044 27.3079 2.82802 27.3057 2.75602C27.297 2.70297 27.282 2.65761 27.2628 2.62584C27.1471 2.86659 27.0116 3.04176 26.8657 3.13909C26.7198 3.23641 26.5671 3.25353 26.4182 3.18924C25.914 2.47801 25.5293 2.73946 25.2737 4.05185L25.19 4.06029C25.1307 1.85824 24.6461 2.79029 24.2247 3.25663C24.0449 3.22151 23.8651 3.18629 23.6853 3.15099C23.3561 2.27269 23.074 3.22371 22.7693 3.29624C22.7123 3.24752 22.653 3.21647 22.5929 3.20379C22.0799 2.19861 21.582 3.08732 21.0785 3.27807C20.7888 2.33896 20.5018 2.75448 20.2149 3.28843C19.6015 2.77501 18.9875 2.30848 18.3588 3.16094C18.2439 3.17311 18.1291 3.18535 18.0142 3.19765C17.9537 3.21179 17.8931 3.22585 17.8326 3.23984C17.736 3.17977 17.6346 3.18473 17.539 3.2542C17.4433 3.32367 17.3569 3.45513 17.2886 3.635C17.1095 3.48294 16.9728 2.96487 16.7433 3.24778C16.6107 3.25707 16.4782 3.26628 16.3456 3.27543C16.113 3.18808 15.8754 3.30505 15.6739 3.60605C15.6612 3.67035 15.6401 3.72221 15.614 3.75338C15.588 3.78455 15.5585 3.79322 15.5302 3.77803C15.6375 4.79802 15.5816 5.3138 15.3724 5.35636C15.5815 5.31374 15.6372 4.79765 15.5294 3.77715C15.5578 3.79294 15.5878 3.78441 15.614 3.75338C15.6401 3.72221 15.6612 3.67035 15.6739 3.60605C15.1384 2.27354 14.651 3.15917 14.1584 3.80742C13.8693 2.32899 13.5164 4.53723 13.2161 3.70752C12.9132 1.90486 12.4082 3.11915 11.9792 3.19873C11.9194 3.22989 11.8597 3.26113 11.7999 3.29245C11.3264 4.18272 10.9678 2.83319 10.5368 2.89529C10.2382 2.96621 9.93958 3.03729 9.641 3.10852C9.265 2.17607 9.06138 2.85036 8.86772 3.61756C8.81808 3.65896 8.76476 3.66523 8.71375 3.63567C8.80488 2.1953 8.42876 2.67469 8.14294 2.78321C7.90037 2.51799 7.80657 3.26965 7.60265 3.2681C7.34278 3.4768 7.4308 1.68322 7.03665 2.66493C6.4994 2.66209 5.9632 3.15231 5.42498 2.68618C5.38679 2.46181 5.37906 2.13429 5.22087 2.31575C4.98389 2.28547 4.74692 2.25526 4.50991 2.22512C4.0969 1.46948 3.63318 2.01585 3.19483 1.91084C3.16725 1.88287 3.1374 1.87129 3.10769 1.87701C3.07797 1.88274 3.04922 1.90561 3.02371 1.9438C2.72154 2.02091 2.43488 0.852377 2.12092 1.87484L2.11704 1.87989C1.73745 1.84477 1.34491 1.63767 1.02378 2.38278C0.677755 2.45571 0.874462 3.36474 0.694653 3.69382C0.62377 4.07752 0.715156 4.69571 0.498716 4.84999C-0.472701 5.54203 0.234943 6.73109 0.459877 7.23301C0.900044 8.21499 1.29207 9.38972 2.11003 8.98043C2.53916 8.76581 3.07393 8.32862 3.57142 8.68642C4.17766 8.2274 4.82845 8.28357 5.42033 8.84601C6.41865 9.68966 7.50302 9.66932 8.49607 8.78832C8.6313 9.3183 8.87088 9.03937 9.05031 9.2268C9.42074 10.1047 9.46478 9.10967 9.60019 8.6389L9.5978 8.58784C9.9715 9.61226 10.3759 10.168 10.8864 9.10637C11.4938 10.2763 12.1033 9.03451 12.7117 9.11782C13.7297 10.0839 14.7831 9.4452 15.8204 9.53958C16.063 9.86382 16.3048 10.3176 16.5531 9.56367C16.6234 9.38401 16.7093 9.2466 16.8044 9.16199C16.8994 9.07739 17.001 9.04785 17.1013 9.07563C17.1456 9.55016 17.3085 9.52671 17.4513 9.58729C17.7716 10.1237 18.0539 10.2966 18.1942 9.11101L18.741 9.0341C18.8604 9.21354 18.9798 9.39287 19.0992 9.57208C19.4576 10.6124 19.61 9.31703 19.8627 9.15897L19.8449 9.13112C20.0278 9.21973 20.162 9.76499 20.3843 9.48452C20.615 9.73535 20.5431 7.91944 20.928 9.0363C21.2548 9.98423 21.6596 9.51831 22.0358 9.12491C22.4057 9.69533 22.7169 9.42216 22.9978 8.71381L23.4992 8.98368C23.818 9.9524 24.1804 10.091 24.6709 9.70595C24.9259 9.41147 25.2021 9.24544 25.4832 9.21749C26.0394 9.29089 26.5875 9.85605 27.1527 9.49155C27.5849 9.63097 27.8489 8.02509 28.2806 8.64682C29.3198 10.1429 30.3289 9.65732 31.3525 8.65276C31.3622 8.91421 31.3718 9.1756 31.3815 9.43692C31.7505 8.61984 32.3165 9.82506 32.6532 8.67684C32.8708 8.54227 33.0884 8.40775 33.3059 8.27328C33.8316 9.41995 34.3594 9.69641 34.8914 8.29737C35.0542 8.11148 35.217 7.92567 35.3798 7.73995C35.6762 9.48866 36.002 8.87862 36.3335 7.81288C36.3649 7.82988 36.3967 7.84189 36.4287 7.84888C36.808 8.77318 37.2813 8.68701 37.7542 8.60546C38.057 8.44941 38.3598 8.29345 38.6625 8.13758C38.939 8.2852 39.2187 8.4828 39.4429 7.82614C40.1528 7.30901 40.9145 7.45125 41.585 8.22619C42.0793 9.2018 42.0604 7.55693 42.3213 7.34123C42.6953 7.28176 42.9906 8.48522 43.4063 7.7561C44.0785 7.89356 44.7507 8.03102 45.4229 8.1685C45.6053 8.83486 45.7883 8.72195 45.9718 8.17155C46.3714 7.5284 46.8493 8.35037 47.2513 7.75184C47.5537 7.94501 47.8519 8.73583 48.1624 7.7914C48.2843 7.74658 48.4063 7.70172 48.5282 7.65683C48.8719 8.06173 49.2497 9.07506 49.4725 7.3308C49.5735 7.45505 49.6745 7.57927 49.7755 7.70345C49.9797 7.85747 50.1838 8.01137 50.388 8.16515C50.7091 8.34599 50.982 7.04262 51.4196 8.2142C51.5624 8.59615 52.5535 9.09322 52.9183 7.31955C53.0371 7.33389 53.1559 7.34818 53.2748 7.36241C53.6419 7.63073 54.009 7.89921 54.3761 8.16783C55.0389 7.84515 55.7833 8.77652 56.3754 7.36906C56.4907 7.71583 56.6804 7.56331 56.7726 7.64646C57.213 8.04316 57.5405 6.2107 57.7143 6.95934C58.0617 8.45603 58.3852 7.49861 58.7344 7.33257C59.1739 7.88205 59.6045 6.97631 60.0425 7.28419C60.8371 7.95431 61.6061 6.00166 62.4053 7.14296C62.7749 7.33918 63.1564 7.35561 63.5285 7.19135C64.2003 7.83609 64.8156 5.73639 65.499 6.94273L65.5168 6.72172C65.8274 7.10754 66.1731 7.28718 66.5202 7.2431C66.8672 7.19902 67.2036 6.93272 67.4967 6.47021C67.7138 7.2535 67.9381 7.89489 68.2565 6.71001C68.3219 6.71114 68.3873 6.71217 68.4527 6.7131C68.5125 6.75488 68.5724 6.79671 68.6322 6.8386C68.9147 7.58171 69.2384 6.75199 69.5343 6.98337C69.8764 7.77817 69.9603 6.80677 70.1336 6.44612C70.1572 6.4665 70.1824 6.4725 70.2071 6.46361C70.2318 6.45472 70.2553 6.43121 70.2755 6.39506L70.2587 6.44519C70.5041 7.40071 70.907 6.29825 71.181 6.87863C71.7 7.29771 72.2277 7.91127 72.6622 6.46687C73.4876 7.3806 74.3481 6.40786 75.1841 6.75577C75.44 6.92392 75.6959 7.09212 75.9519 7.26038C76.2882 7.03646 76.5888 6.28103 76.9826 7.14871C77.1271 7.46701 77.355 6.97633 77.43 6.42752C77.6606 6.27572 77.9067 6.7405 78.1306 6.31992C78.4866 7.51853 78.9419 7.27955 79.4095 6.86207C79.7397 7.4409 80.079 7.88892 80.4887 7.32133C80.7933 8.37449 81.1152 7.77777 81.435 7.38189C81.483 7.32592 81.5362 7.30354 81.5889 7.31716C81.8238 8.52789 82.2353 7.28291 82.5251 7.73001C82.7854 9.25238 83.1964 7.80672 83.5221 8.04078C83.4847 7.79434 83.4472 7.54796 83.4098 7.30164C83.4116 6.79776 83.4967 6.59 83.7141 6.46157C84.0844 6.24273 83.9485 5.29501 83.9975 4.69192ZM49.0442 3.72954L48.7059 4.11082C48.8186 3.98373 48.9311 3.85705 49.0442 3.72954ZM59.8591 3.21039L58.7777 2.78006C59.1382 2.9235 59.4986 3.06709 59.8591 3.21039Z" fill="#FAE465"/>
</svg>
