<svg width="24" height="25" viewBox="0 0 24 25" fill="none" xmlns="http://www.w3.org/2000/svg">
<path d="M12.5 11.2083H23.5218C23.5786 11.7056 23.6083 12.2158 23.6083 12.7377C23.6083 16.2691 22.3425 19.2425 20.1493 21.2627C18.2311 23.0335 15.6052 24.072 12.4742 24.072C10.9509 24.0727 9.44235 23.7732 8.03485 23.1906C6.62736 22.608 5.34846 21.7538 4.27126 20.6767C3.19406 19.5996 2.33967 18.3208 1.75692 16.9134C1.17418 15.506 0.874492 13.9975 0.875001 12.4742C0.874322 10.9508 1.17388 9.44214 1.75655 8.03456C2.33922 6.62697 3.19359 5.34802 4.2708 4.2708C5.34802 3.19359 6.62697 2.33922 8.03456 1.75655C9.44214 1.17388 10.9508 0.874322 12.4742 0.875001C15.6 0.875001 18.226 2.02458 20.2345 3.89621L18.3461 5.78334C16.8503 4.33796 14.8289 3.45833 12.5 3.45833C11.3126 3.45833 10.1369 3.6922 9.0399 4.14659C7.94292 4.60098 6.94617 5.26698 6.10658 6.10658C5.26698 6.94617 4.60098 7.94292 4.14659 9.03991C3.6922 10.1369 3.45833 11.3126 3.45833 12.5C3.45833 13.6874 3.6922 14.8631 4.14659 15.9601C4.60098 17.0571 5.26698 18.0538 6.10658 18.8934C6.94617 19.733 7.94292 20.399 9.0399 20.8534C10.1369 21.3078 11.3126 21.5417 12.5 21.5417C17.0544 21.5417 20.436 18.173 20.9953 13.7917H12.5V11.2083Z" fill="#3F3F3F"/>
</svg>
