<svg width="102" height="34" viewBox="0 0 102 34" fill="none" xmlns="http://www.w3.org/2000/svg">
<path d="M43.65 17.6696C43.65 22.5003 39.8709 26.0599 35.2332 26.0599C30.5954 26.0599 26.8164 22.5003 26.8164 17.6696C26.8164 12.8049 30.5954 9.2793 35.2332 9.2793C39.8709 9.2793 43.65 12.8049 43.65 17.6696ZM39.9655 17.6696C39.9655 14.6509 37.7752 12.5855 35.2332 12.5855C32.6911 12.5855 30.5009 14.6509 30.5009 17.6696C30.5009 20.658 32.6911 22.7537 35.2332 22.7537C37.7752 22.7537 39.9655 20.6542 39.9655 17.6696Z" fill="#3F3F3F"/>
<path d="M61.8082 17.6696C61.8082 22.5003 58.0291 26.0599 53.3914 26.0599C48.7536 26.0599 44.9746 22.5003 44.9746 17.6696C44.9746 12.8087 48.7536 9.2793 53.3914 9.2793C58.0291 9.2793 61.8082 12.8049 61.8082 17.6696ZM58.1237 17.6696C58.1237 14.6509 55.9334 12.5855 53.3914 12.5855C50.8493 12.5855 48.6591 14.6509 48.6591 17.6696C48.6591 20.658 50.8493 22.7537 53.3914 22.7537C55.9334 22.7537 58.1237 20.6542 58.1237 17.6696Z" fill="#3F3F3F"/>
<path d="M79.2076 9.7862V24.8494C79.2076 31.0457 75.5534 33.5764 71.2334 33.5764C67.1669 33.5764 64.7194 30.8565 63.7964 28.6322L67.0042 27.2969C67.5754 28.6625 68.9751 30.274 71.2296 30.274C73.9949 30.274 75.7085 28.5679 75.7085 25.3563V24.1496H75.5799C74.7552 25.1671 73.1664 26.0561 71.1615 26.0561C66.9664 26.0561 63.123 22.4019 63.123 17.6999C63.123 12.9638 66.9664 9.2793 71.1615 9.2793C73.1627 9.2793 74.7514 10.1683 75.5799 11.1556H75.7085V9.78998H79.2076V9.7862ZM75.9695 17.6999C75.9695 14.7455 73.9987 12.5855 71.4907 12.5855C68.9486 12.5855 66.8189 14.7455 66.8189 17.6999C66.8189 20.624 68.9486 22.7537 71.4907 22.7537C73.9987 22.7537 75.9695 20.624 75.9695 17.6999Z" fill="#3F3F3F"/>
<path d="M84.9784 0.957031V25.5454H81.3848V0.957031H84.9784Z" fill="#3F3F3F"/>
<path d="M98.9822 20.4309L101.842 22.3375C100.919 23.7031 98.6947 26.056 94.8514 26.056C90.085 26.056 86.5254 22.3715 86.5254 17.6657C86.5254 12.6761 90.1153 9.27539 94.4391 9.27539C98.7931 9.27539 100.923 12.7405 101.619 14.613L102.001 15.5662L90.7849 20.2115C91.6436 21.8949 92.9789 22.7536 94.8514 22.7536C96.7277 22.7536 98.0289 21.8306 98.9822 20.4309ZM90.1796 17.4122L97.6771 14.299C97.2648 13.2511 96.0241 12.5211 94.5639 12.5211C92.6914 12.5211 90.085 14.1741 90.1796 17.4122V17.4122Z" fill="#3F3F3F"/>
<path d="M13.2134 15.4869V11.9272H25.2087C25.326 12.5476 25.3865 13.2815 25.3865 14.0759C25.3865 16.7466 24.6564 20.049 22.3035 22.4019C20.0149 24.785 17.0908 26.0561 13.2172 26.0561C6.03738 26.0561 0 20.2078 0 13.028C0 5.84824 6.03738 0 13.2172 0C17.1891 0 20.0187 1.55852 22.1446 3.5899L19.6328 6.10169C18.1084 4.67179 16.0429 3.55964 13.2134 3.55964C7.97041 3.55964 3.86983 7.78505 3.86983 13.028C3.86983 18.271 7.97041 22.4964 13.2134 22.4964C16.6142 22.4964 18.551 21.1308 19.7917 19.8901C20.798 18.8838 21.4599 17.4464 21.721 15.4831L13.2134 15.4869V15.4869Z" fill="#3F3F3F"/>
</svg>
