<svg width="237" height="31" viewBox="0 0 237 31" fill="none" xmlns="http://www.w3.org/2000/svg">
<g style="mix-blend-mode:multiply">
<path d="M223.509 14.3023C227.433 14.1364 231.358 13.9769 235.28 13.8C236.187 13.7593 237.178 13.6292 236.973 12.9635C236.825 12.4858 235.977 12.3374 235.157 12.3884C229.414 12.7463 223.587 12.6507 217.91 13.3725L218.416 13.3744C218.248 13.3738 218.078 13.3731 217.91 13.3725L218.037 13.3987C217.959 13.3776 217.873 13.3684 217.787 13.3722C217.701 13.3759 217.619 13.3924 217.548 13.42C216.316 12.8517 214.49 13.7502 213.377 12.8892C213.5 12.7904 213.567 12.6733 213.569 12.553C214.145 12.497 214.72 12.441 215.296 12.385C216.417 12.5043 216.632 12.1889 216.402 11.6602C216.071 10.9855 215.142 11.4491 214.51 11.3482C213.495 10.938 212.315 11.194 211.224 11.093C211.101 10.2874 210.03 10.2062 208.914 10.0892C207.352 9.99393 205.854 9.68566 204.554 9.19124C206.034 9.13003 207.113 9.08536 208.193 9.04069C208.719 9.31436 209.104 9.05368 209.526 8.92971C213.264 8.79589 217.003 8.66209 220.741 8.52827C222.284 8.46254 223.828 8.3968 225.371 8.33104C226.124 8.60797 226.684 8.19373 227.349 8.15662C228.896 8.12478 230.443 8.09299 231.99 8.06123C232.731 8.11674 233.33 7.97307 233.404 7.54167C233.487 7.05869 232.773 6.94854 232.111 6.96182C231.15 6.98114 230.193 7.06867 229.234 7.12695C229.013 7.12829 228.791 7.12953 228.569 7.13068L223.919 7.31105C223.256 7.28759 222.593 7.26409 221.93 7.2406C222.084 6.86617 222.238 6.49183 222.392 6.11754C220.371 4.75956 217.613 5.00947 214.953 5.04424C214.983 4.90229 215.104 4.77123 215.293 4.67536C215.482 4.57949 215.726 4.52531 215.981 4.52291C216.236 4.5205 216.484 4.57001 216.679 4.66226C216.874 4.75451 217.002 4.88325 217.04 5.02456C217.079 5.16587 217.025 5.31019 216.887 5.43073C216.75 5.55126 216.54 5.63983 216.295 5.68002C216.051 5.7202 215.788 5.70926 215.557 5.64924C215.325 5.58921 215.141 5.48419 215.037 5.35362C215.021 5.24956 214.993 5.14619 214.953 5.04424C213.186 4.98642 211.42 4.92862 209.654 4.87084C207.897 4.66126 206.091 4.61659 204.308 4.73862C204.105 4.70577 203.9 4.67656 203.693 4.65101C204.441 3.91862 204.021 3.37102 202.59 3.36725C200.901 3.36268 199.065 3.16501 197.563 3.86098C190.921 3.75108 184.28 3.64117 177.639 3.53126C177.642 3.64496 177.669 3.75807 177.718 3.86844L179.12 3.89907C178.652 3.88898 178.185 3.87846 177.718 3.86844C176.604 3.94818 175.489 4.0281 174.375 4.10732C174.396 4.29167 174.417 4.47601 174.437 4.66035L174.375 4.10732C175.489 4.0281 176.604 3.94818 177.718 3.86844C177.669 3.75807 177.642 3.64496 177.639 3.53126C172.734 3.3826 167.829 3.23388 162.924 3.08509L158.914 2.82679C158.461 2.62003 158.008 2.41332 157.556 2.20668L157.462 2.13032L171.375 1.5783L172.035 1.57457C172.939 1.73788 173.854 2.04865 174.711 1.51699C176.218 1.74466 177.799 1.77575 179.331 1.60784C179.997 1.57428 180.663 1.54082 181.329 1.50711C181.719 1.52626 182.11 1.54552 182.5 1.56489C183.521 2.03132 184.394 1.656 185.29 1.41053C187.227 1.79394 189.326 1.83748 191.308 1.53536C193.503 2.03978 195.729 1.6347 197.942 1.6055C201.06 2.29705 204.117 1.50523 207.211 1.54767C204.418 1.04997 201.453 0.933463 198.564 1.20782C195.717 0.826206 192.778 0.709691 189.864 0.862936C188.309 0.812954 186.754 0.762938 185.199 0.712868C184.751 0.723471 184.303 0.733968 183.856 0.744792C183.475 0.723299 183.093 0.701888 182.711 0.68059C180.02 0.428976 177.273 0.432224 174.584 0.690189C173.735 0.285347 172.781 0.45343 171.843 0.532072C171.43 0.54284 171.018 0.553569 170.606 0.564249C169.706 0.59965 168.805 0.635006 167.905 0.67033C166.82 0.719218 165.736 0.768081 164.652 0.816892L163.951 0.802746L158.007 1.06179C156.692 1.11881 155.377 1.17586 154.061 1.23294C153.176 1.27776 152.291 1.32256 151.406 1.36733C150.312 1.47801 149.154 0.90125 148.104 1.46501C142.601 1.68614 137.098 1.90728 131.595 2.12846C129.025 2.21129 126.454 2.29413 123.884 2.37699C120.056 2.10327 116.19 2.0407 112.34 2.19017C108.844 1.61302 105.341 2.19391 101.842 2.17075C101.155 2.07296 100.469 1.97522 99.7823 1.87755C96.0119 1.2179 92.1851 1.59719 88.3741 1.68169C87.0665 1.47076 85.6678 1.52546 84.4252 1.83612C80.883 1.7882 77.3586 2.58613 73.803 1.90632C73.577 1.57184 73.1937 1.27793 72.6937 1.0558C72.1936 0.833662 71.5956 0.691607 70.9631 0.64473C69.8667 0.641762 68.7705 0.638903 67.6742 0.636146C65.0607 0.209419 62.319 0.0868326 59.618 0.275924C57.2022 -0.0203649 54.7041 -0.0381144 52.2757 0.22376C51.862 0.226356 51.4483 0.228998 51.0344 0.231684C47.7157 -0.114632 44.3049 -0.0722997 41.0168 0.355999L32.4528 0.656895C29.8061 0.787987 27.1593 0.919104 24.5126 1.05028C23.1987 1.08053 21.8848 1.11062 20.5709 1.14146C19.9041 1.18184 19.2371 1.22212 18.5704 1.26232C17.0398 1.32713 15.5095 1.39181 13.9789 1.45635C13.7605 1.47474 13.542 1.49305 13.3236 1.51128C12.995 1.50213 12.6667 1.48909 12.3379 1.48383C10.651 1.45668 8.75549 1.52609 7.82684 2.29798C6.67286 3.25731 9.76705 3.28747 9.65778 4.15486C9.00184 4.16984 8.34494 4.16536 7.68984 4.14148C6.54931 4.06959 4.73226 3.65323 4.62523 4.47003C4.4958 5.45867 6.48438 5.14678 7.67245 5.16107C10.5059 5.19519 13.3411 5.1746 16.1752 5.19827C17.1268 5.20628 18.3396 5.12559 17.8002 6.05367C16.7393 6.11211 15.6784 6.17059 14.6175 6.22906C11.406 5.99541 8.14464 5.55403 5.32035 6.93142C5.23395 7.30719 5.34415 7.61731 6.1376 7.69854C8.2405 8.44722 10.5551 8.22924 12.8373 8.16007C14.9925 8.40412 17.3458 8.35867 18.9107 9.46578L19.7145 9.32577C21.237 9.15511 22.8152 9.23613 24.2571 9.55885C24.0759 9.71087 23.8946 9.86288 23.7135 10.0149C21.9784 10.0892 20.2435 10.1635 18.5084 10.2378L17.7734 10.1899C16.909 10.2524 16.0448 10.3149 15.1803 10.3775C12.8327 10.3327 10.5055 10.3337 8.61039 11.3009C7.46413 11.0078 6.41865 11.4231 5.31781 11.4484C4.23712 11.5696 3.10771 11.1399 2.05133 11.5387C1.2306 11.5268 -0.22052 10.7295 0.0283063 12.0493C1.1651 12.8128 2.88607 12.1846 4.17075 12.5959C8.10632 13.0547 12.1447 13.1697 16.1429 12.9368C17.0565 13.0299 17.9417 13.3378 18.9056 13.0523C19.0995 13.0595 19.2925 13.0729 19.4837 13.0922C20.0635 13.7805 21.7074 13.0118 22.2649 13.7307C22.098 13.8405 21.9313 13.9504 21.7644 14.0603C20.4286 13.7899 18.9739 13.7646 17.6107 13.9878L16.9112 13.8793C15.2807 13.9579 13.6473 14.0218 12.0211 14.1224C11.4092 14.1604 10.5799 14.1664 10.6399 14.6796C10.6808 14.8345 10.8257 14.9747 11.0448 15.0718C11.2638 15.1689 11.5407 15.2155 11.8189 15.2021C12.469 15.2133 13.122 15.1721 13.7738 15.1539C14.8731 15.1101 15.9724 15.0663 17.0718 15.0225C17.1521 15.0579 17.2481 15.0804 17.3494 15.0877C17.4507 15.095 17.5537 15.0867 17.6473 15.0639C18.2927 15.2324 19.0035 15.3068 19.7138 15.2802C20.4241 15.2536 21.1107 15.1268 21.7104 14.9117L23.7617 15.1835C23.7523 15.2822 23.7405 15.381 23.7265 15.4796C23.3055 15.5121 22.8848 15.5446 22.4639 15.5771C21.2801 15.6591 20.0894 15.7078 18.8969 15.7229C17.5323 15.7064 17.4849 16.2584 17.0921 16.7554C16.4928 17.5137 17.2677 17.7383 18.2732 17.939C18.4606 17.9284 18.6481 17.9177 18.8353 17.907L18.2732 17.939L18.1906 18.641C17.3694 19.5223 15.4261 19.0279 14.3692 19.6204C12.0426 19.2633 9.92251 19.2866 8.51362 20.6196C9.11651 21.6548 10.669 21.2554 11.9102 21.3259C12.4859 21.8921 13.4777 20.9561 14.0557 21.513L14.7621 21.4482C14.527 21.4698 14.2917 21.4914 14.0557 21.513C13.9904 22.1155 13.9586 22.6631 15.5764 22.4321C17.1814 22.203 18.713 22.8352 20.3915 22.5777C20.6106 22.5513 20.8376 22.5528 21.0555 22.5822C21.2733 22.6115 21.4766 22.668 21.6502 22.7474C21.8238 22.8269 21.9633 22.9271 22.0583 23.0409C22.1534 23.1546 22.2016 23.2789 22.1993 23.4045C22.2978 24.1094 21.1088 23.802 20.5006 23.8648C19.3264 23.9862 18.1167 23.9993 16.9217 24.0573C14.2096 24.1639 14.12 24.2194 15.0915 25.1961C15.9031 25.6496 16.8556 25.503 17.7988 25.396C18.3233 25.6679 19.2955 25.2143 19.6537 25.7557C19.5044 25.8787 19.355 26.0016 19.2057 26.1245C18.1861 26.2027 17.5221 26.4679 17.9322 27.0933C18.4658 27.9073 19.6888 27.5915 20.7221 27.5569C21.3734 27.5465 22.0246 27.5361 22.6759 27.5258C24.9003 27.9102 27.1317 27.6102 29.3607 27.5469L31.371 27.6082C31.5893 27.7759 31.8075 27.9435 32.0259 28.1112C31.848 28.1775 31.6636 28.2383 31.4736 28.2932L30.7814 28.2872C30.1197 28.3075 29.458 28.3279 28.7964 28.3483C28.8205 28.6256 28.8445 28.9026 28.8685 29.1794L28.7964 28.3483C26.2964 28.4535 23.7961 28.5546 21.2969 28.6656C20.6984 28.6732 20.1228 28.7966 19.6682 29.0149C19.2135 29.2331 18.9075 29.5328 18.802 29.8631C18.7353 29.9995 18.7347 30.1435 18.8002 30.2801C18.8657 30.4167 18.9948 30.5411 19.1745 30.6404C19.3542 30.7398 19.5779 30.8105 19.8225 30.8452C20.0672 30.88 20.3242 30.8776 20.5666 30.8383C21.4147 30.8105 22.2629 30.7826 23.1111 30.7547C23.8656 30.8288 24.7149 31.1164 25.149 30.4699C25.5263 30.4314 25.9038 30.393 26.2812 30.3546C26.9375 30.9316 27.8735 30.7287 28.7703 30.6348C30.1458 31.1946 31.654 30.6982 33.0856 30.805C34.8383 31.0317 36.6536 31.0611 38.4266 30.8914C42.8391 30.9092 47.2526 30.9079 51.6639 30.9587C52.7096 30.9707 53.6005 30.9551 54.1404 30.3753C55.7223 31.6257 57.8509 30.4683 59.6488 30.7683C64.3084 31.096 68.9376 30.6205 73.5841 30.6019C75.5629 30.4998 77.5417 30.3976 79.5205 30.2955C79.741 30.2802 79.9614 30.265 80.182 30.2498C80.7225 30.34 81.2951 30.3525 81.8466 30.2861C82.398 30.2198 82.9107 30.0767 83.3375 29.87C84.3409 30.7508 85.5991 30.311 86.8164 30.0804C89.5059 30.4112 92.3086 30.2985 94.8864 29.7559C94.9504 29.7676 95.0182 29.7712 95.085 29.7665C95.1518 29.7619 95.216 29.7491 95.2731 29.7291C100.403 29.9444 105.562 29.7176 110.569 29.0564C111.67 29.0093 112.77 28.9623 113.87 28.9153L119.854 28.722C123.391 28.9206 126.956 28.9007 130.486 28.6626C130.569 28.6931 130.667 28.7099 130.767 28.7113C130.866 28.7126 130.965 28.6984 131.051 28.6702C137.913 28.8172 144.784 28.768 151.638 28.5227C155.4 28.645 159.174 28.5847 162.917 28.3424C163.003 28.3558 163.097 28.3892 163.173 28.3788C163.331 28.3511 163.484 28.3169 163.633 28.2764C170.27 28.5959 176.86 28.1253 183.465 27.9079C183.447 27.7831 183.429 27.6582 183.411 27.5333L183.465 27.9079C184.58 27.849 185.696 27.79 186.812 27.731C189.686 27.8749 192.584 27.7446 195.381 27.3457C195.585 27.3858 195.805 27.3906 196.014 27.3593C197.434 27.7525 198.721 27.3813 200.03 27.1395C200.2 27.1662 200.381 27.1612 200.545 27.1253C202.839 25.9295 205.788 26.3633 208.467 26.1249C209.572 26.0655 210.677 26.006 211.783 25.9466C211.997 25.9224 212.211 25.8984 212.426 25.8744C218.114 25.6221 223.803 25.3779 229.489 25.1084C230.297 25.0701 231.534 25.146 231.412 24.4278C231.304 23.7887 230.195 23.8563 229.308 23.8527C226.463 23.841 223.619 23.8196 220.774 23.8019C220.553 23.7948 220.332 23.7876 220.111 23.7806C216.59 23.4292 213.008 23.3067 209.437 23.4155C208.557 23.4664 207.676 23.5173 206.796 23.5682C207.271 23.7937 207.747 24.0191 208.222 24.2446C209.323 24.4612 211 23.664 211.556 24.8396C210.936 24.8999 210.316 24.9602 209.696 25.0205C209.031 25.0486 208.366 25.0767 207.701 25.105C207.013 25.1272 206.325 25.1494 205.637 25.1718C205.422 25.1484 205.21 25.1198 205 25.0862C204.372 25.1532 203.744 25.2201 203.116 25.2871C202.641 25.2784 202.166 25.2698 201.691 25.261C200.791 25.3272 199.891 25.3933 198.992 25.4594C198.592 25.5008 198.192 25.5423 197.792 25.5839C197.021 25.3981 196.036 25.6633 195.387 25.2237C192.832 25.8927 190.253 25.1893 187.688 25.2658C186.154 25.1303 184.621 24.9948 183.088 24.8593C182.92 24.8854 182.749 24.9052 182.577 24.9184C181.846 24.4706 180.538 24.8788 179.867 24.3436C181.127 24.2723 182.387 24.2009 183.647 24.1293C183.842 24.0086 184.036 23.8881 184.231 23.7678L183.509 23.4925C183.941 23.3272 184.372 23.1619 184.804 22.997C184.554 22.7612 184.304 22.5255 184.054 22.2897C182.128 22.3475 180.202 22.4052 178.276 22.4628C178.192 22.3731 178.088 22.2898 177.966 22.2155L172.104 22.343C171.888 22.4034 171.671 22.4638 171.455 22.5241C167.472 22.0857 163.497 22.521 159.519 22.5582C159.454 22.5296 159.377 22.5101 159.295 22.5014C159.214 22.4926 159.13 22.4948 159.05 22.5078C159.011 22.4009 158.924 22.3012 158.798 22.2178C160.229 21.0636 162.241 21.6583 164.058 21.669C164.714 21.6373 165.369 21.6055 166.024 21.5737C167.083 21.1763 168.196 21.4492 169.29 21.4914C169.335 21.5821 169.416 21.6661 169.525 21.7374C170.3 21.1869 171.141 21.2489 172.018 21.6532C173.786 21.6017 175.555 21.5503 177.323 21.4987C178.414 21.4479 179.505 21.3972 180.596 21.3464C181.258 21.2874 181.92 21.2284 182.582 21.1695C183.003 21.0551 183.468 21.0019 183.935 21.0146C184.402 21.0274 184.857 21.1058 185.256 21.2426C185.71 21.2915 186.164 21.3404 186.619 21.3892L186.486 21.4499L186.562 21.5358C187.916 21.3784 189.319 21.4177 190.638 21.6499C189.545 22.4133 188.03 22.0447 186.678 22.1145C186.587 22.1474 186.485 22.1686 186.378 22.1765C186.271 22.1843 186.163 22.1786 186.06 22.1598C185.392 22.2031 184.723 22.2464 184.054 22.2897C184.304 22.5255 184.554 22.7612 184.804 22.997C184.372 23.1619 183.941 23.3272 183.509 23.4925C183.75 23.5845 183.99 23.6761 184.231 23.7678C184.486 23.8237 184.742 23.8795 184.997 23.9355C185.57 23.8642 186.143 23.7931 186.716 23.7219C187.457 23.5263 188.199 23.3303 188.941 23.1342C188.2 23.3297 187.458 23.5257 186.716 23.7219C186.836 23.7944 186.929 23.8798 186.991 23.9726C187.414 23.959 187.837 23.9456 188.26 23.9324C192.234 24.336 196.29 24.4138 200.303 24.1634C200.48 24.1828 200.664 24.1725 200.831 24.1336C201.733 24.1216 202.635 24.1097 203.537 24.0978L204.134 23.726L204.737 23.5031C204.536 23.5774 204.335 23.6515 204.134 23.726C203.935 23.8498 203.736 23.9739 203.537 24.0978C204.022 24.309 204.507 24.5204 204.993 24.7318C205.978 24.4186 207.089 24.251 208.222 24.2446L206.796 23.5682C206.341 23.4611 205.886 23.354 205.431 23.2466C205.415 23.1299 205.399 23.013 205.384 22.8959C205.174 22.8901 204.964 22.8902 204.754 22.8963C204.739 22.8484 204.724 22.8006 204.709 22.7528L204.754 22.8963C204.964 22.8902 205.174 22.8901 205.384 22.8959C206.49 22.8574 207.597 22.819 208.704 22.7806C209.578 22.7315 210.452 22.6824 211.326 22.6335C215.762 22.3695 220.274 22.4825 224.62 21.7801C227.809 22.2239 230.93 21.5571 234.097 21.5895C234.291 21.6038 234.489 21.5949 234.676 21.5636C234.864 21.5323 235.038 21.4792 235.186 21.4078C235.335 21.3363 235.455 21.2482 235.539 21.149C235.623 21.0498 235.669 20.9419 235.673 20.8321C235.677 20.2541 234.826 20.1797 234.034 20.169C229.484 20.1069 224.935 20.0567 220.385 20.0025C218.858 19.5019 217.217 19.9304 215.642 19.8199C215.19 19.8355 214.737 19.8511 214.285 19.8666C214.051 19.6636 213.818 19.4605 213.584 19.2572C214.452 19.2281 215.319 19.1991 216.187 19.1703C216.667 19.0573 217.218 18.9891 217.3 18.6218C217.378 17.8222 217.037 17.2315 215.278 17.3493L214.563 17.3235C215.279 16.3223 217.641 17.3436 218.365 16.3516C218.759 15.9687 219.105 15.6045 218.074 15.3341C216.154 14.8303 218.672 14.8939 218.386 14.5942C220.111 14.6821 221.851 14.583 223.509 14.3023ZM212.441 6.15193L213.168 6.87497C212.926 6.63385 212.684 6.39279 212.441 6.15193ZM212.319 24.8155C213.254 23.9782 214.328 24.1018 215.465 24.6723C214.617 24.7365 213.769 24.8007 212.921 24.8648C212.72 24.8504 212.519 24.8339 212.319 24.8155ZM179.181 25.8394C179.411 25.6969 179.64 25.5546 179.869 25.4125L179.181 25.8394ZM199.248 12.0093C199.461 11.994 199.675 11.9785 199.888 11.963L199.248 12.0093ZM199.92 10.0097L200.383 10.0927C200.229 10.0649 200.075 10.0373 199.92 10.0097ZM203.636 14.7756L202.837 13.7429C203.104 14.0871 203.37 14.4314 203.636 14.7756ZM199.13 5.66414C200.222 5.65882 201.313 5.65351 202.405 5.64822C200.886 5.87174 199.404 6.59057 197.806 5.75671C198.247 5.72585 198.689 5.695 199.13 5.66414ZM185.416 7.74573C184.548 7.77539 183.68 7.80506 182.812 7.83472L181.636 9.00857C182.029 8.61744 182.42 8.22613 182.812 7.83472C183.68 7.80506 184.548 7.77539 185.416 7.74573C187.443 7.9025 189.469 8.05898 191.496 8.21551L192.206 8.53828C191.969 8.43048 191.733 8.32298 191.496 8.21551C189.469 8.05898 187.443 7.9025 185.416 7.74573ZM186.338 14.8024C186.801 14.8969 187.263 14.9906 187.726 15.0844L186.338 14.8024ZM193.949 11.8136L194.719 11.8689C194.462 11.8504 194.205 11.832 193.949 11.8136ZM193.66 9.64568C194.303 9.62147 194.945 9.59699 195.588 9.57247L193.66 9.64568ZM189.838 5.64245C190.496 5.62293 191.154 5.60339 191.812 5.58384C192.507 5.70815 193.203 5.83248 193.898 5.95681C194.615 6.45583 195.959 5.95497 196.648 6.49869C196.429 6.62606 196.211 6.75351 195.992 6.88104C194.713 7.29723 193.367 7.03624 192.043 7.00403C190.781 6.49964 189.38 6.89996 188.055 6.81076C186.318 6.30747 184.104 6.77152 182.522 5.95508C184.905 5.44234 187.432 5.98684 189.838 5.64245ZM164.147 11.986C164.335 11.9308 164.532 11.8853 164.735 11.8501C165.202 11.8743 165.669 11.8986 166.137 11.9222C166.596 12.1199 167.054 12.3175 167.512 12.515L166.137 11.9222C165.669 11.8986 165.202 11.8743 164.735 11.8501C164.532 11.8853 164.335 11.9308 164.147 11.986ZM168.955 7.03166C168.857 6.752 168.756 6.47193 168.655 6.19099C168.755 6.47118 168.855 6.75143 168.955 7.03166ZM161.984 10.4794L162.521 10.0847C162.342 10.2157 162.163 10.3472 161.984 10.4794ZM152.594 20.6741C152.962 20.646 153.33 20.6179 153.698 20.5899L152.594 20.6741ZM140.8 26.6915C140.337 26.4708 139.874 26.2502 139.41 26.0297L140.8 26.6915ZM143.126 19.1374C143.293 19.0456 143.46 18.9538 143.627 18.862L143.126 19.1374ZM148.093 6.27335C147.431 6.3057 146.77 6.33813 146.108 6.37067L148.093 6.27335ZM146.717 21.2514C147.094 21.5077 147.472 21.7634 147.85 22.0192L146.717 21.2514ZM155.101 4.13427C155.827 4.1261 156.583 4.04059 157.172 4.38602L157.242 5.17029C155.696 5.23514 154.15 5.29992 152.604 5.36467C152.318 5.12285 152.033 4.88094 151.747 4.63894C152.807 4.34801 154.241 4.84097 155.101 4.13427ZM121.948 4.42305C123.447 3.9862 125.12 5.02783 126.58 4.25305C126.337 4.08743 126.095 3.92164 125.852 3.75566C127.193 3.60634 128.696 3.97258 129.89 3.35587C130.673 3.32428 131.457 3.29267 132.241 3.26101C132.261 3.32067 132.303 3.37741 132.364 3.42782C132.424 3.47822 132.502 3.52125 132.593 3.55429C132.662 3.79369 132.731 4.03304 132.8 4.27235C133.112 4.12852 133.425 3.98447 133.738 3.84023C135.494 3.82757 137.25 3.81493 139.005 3.80234L139.776 3.93907C140.378 3.70352 141.1 3.58428 141.833 3.59942C142.566 3.61455 143.27 3.76322 143.839 4.02293C144.367 3.90856 144.932 3.85658 145.498 3.87019C146.064 3.88381 146.619 3.96276 147.128 4.10209C147.583 4.22501 148.038 4.3479 148.493 4.47079C149.314 4.32009 150.105 4.25965 150.717 4.71297C150.101 5.31908 149.303 5.18446 148.465 4.8862C148.533 4.9669 148.575 5.05368 148.59 5.1426C147.711 5.02146 146.785 5.06958 145.961 5.27921C145.27 5.01891 144.578 4.75864 143.887 4.49843C143.161 4.85725 142.248 5.07484 141.283 5.11873C141.065 5.12137 140.846 5.12396 140.628 5.12645C140.248 5.11137 139.867 5.09636 139.486 5.08153C137.401 4.4225 134.621 5.63087 132.78 4.31336C132.034 4.35509 131.289 4.39692 130.544 4.43885C130.339 4.39337 130.11 4.39293 129.905 4.43763C129.816 5.39269 129.894 6.42799 127.361 5.36642C127.194 5.3162 127.012 5.28491 126.824 5.27439C126.636 5.26386 126.446 5.27428 126.266 5.30506C126.085 5.33585 125.917 5.3864 125.771 5.45376C125.626 5.52112 125.505 5.60398 125.417 5.69757C124.254 4.95864 122.39 6.1164 121.286 5.2176C121.512 5.12987 121.693 5.01011 121.809 4.87051C121.925 4.73091 121.973 4.57648 121.948 4.42305ZM136.714 15.5879C136.694 15.4022 136.673 15.2165 136.653 15.0307L136.714 15.5879ZM139.59 12.2612C139.565 12.1268 139.54 11.9921 139.515 11.8571L139.59 12.2612ZM139.095 8.90434C140.215 8.8381 141.334 8.77174 142.454 8.70538L139.095 8.90434ZM129.494 11.1239C129.227 11.1297 128.96 11.1358 128.692 11.1418L129.494 11.1239ZM125.888 14.2682C126.142 14.5053 126.395 14.7424 126.649 14.9795L125.888 14.2682ZM131.918 9.54367L132.498 9.53859C132.305 9.54025 132.112 9.54196 131.918 9.54367ZM117.336 14.2346C117.068 14.1245 116.8 14.0146 116.532 13.9047L117.336 14.2346ZM113.332 14.7751L114.074 15.1531C113.827 15.0271 113.58 14.901 113.332 14.7751ZM120.981 12.2427C120.945 11.9941 120.909 11.7455 120.874 11.4969L120.981 12.2427ZM89.9198 23.5238C89.6895 23.5706 89.4595 23.6177 89.2294 23.665L89.9198 23.5238ZM77.0057 25.9421C77.3115 25.9429 77.6176 25.9437 77.9234 25.9444L77.0057 25.9421ZM53.9475 12.8754C52.4181 12.8987 50.8886 12.922 49.3593 12.9453C46.91 12.8043 44.4609 12.6634 42.0116 12.5224C42.1934 12.1904 42.7135 12.1213 43.2131 12.0361C43.22 11.9377 43.2204 11.8392 43.2138 11.7407L44.571 11.6671C44.8723 11.7203 45.192 11.7323 45.5032 11.7021C45.8144 11.6719 46.1082 11.6003 46.3599 11.4933C46.6117 11.3864 46.8139 11.2471 46.95 11.0873C47.086 10.9275 47.1517 10.7518 47.1417 10.5748C47.2817 10.5397 47.4406 10.5358 47.5856 10.5639C48.6721 11.2767 49.724 12.2451 51.1142 10.7137C51.5028 10.703 51.8915 10.6923 52.2801 10.6816C52.583 11.4816 53.6848 11.2717 54.6144 11.2511C56.5627 11.2081 58.5102 11.15 60.4577 11.098C61.3231 11.191 62.2185 11.1307 63.02 10.9255C67.2213 10.885 71.4228 10.8445 75.6242 10.8041C76.0493 10.9401 76.4739 11.0761 76.8985 11.2121C77.1848 12.4289 76.1202 12.7381 74.1067 12.7019C72.0558 12.5353 69.9651 12.6152 67.9735 12.9363C63.3043 12.4674 58.6221 12.9482 53.9475 12.8754ZM56.823 19.3947C56.615 19.3787 56.4032 19.3961 56.2123 19.4451C54.4274 19.3601 52.6426 19.2752 50.8579 19.1901C49.9713 19.2615 49.0845 19.333 48.1978 19.4047C47.2989 19.3065 46.4 19.2085 45.501 19.1102C47.1588 18.124 48.9792 18.4344 50.8191 18.9003C51.5213 18.5653 52.4036 18.3718 53.3249 18.3507L54.5785 17.5755C54.1606 17.8339 53.7426 18.0922 53.3249 18.3507C54.4427 18.3198 55.5604 18.289 56.6777 18.2578C57.4715 18.6069 57.3835 18.9912 56.823 19.3947ZM46.5328 22.0644C46.5301 21.9374 46.5273 21.8105 46.5245 21.6837L46.5328 22.0644ZM37.0983 25.7011C37.0685 25.8665 37.0391 26.0321 37.0103 26.1978L37.0983 25.7011ZM37.2578 6.70283L37.9373 6.67936C37.711 6.68682 37.4844 6.6949 37.2578 6.70283ZM39.9549 7.36479C39.612 7.39364 39.269 7.42257 38.926 7.45157L39.9549 7.36479ZM44.9161 4.31163C45.1819 4.29304 45.4477 4.27438 45.7134 4.25566L44.9161 4.31163ZM43.0916 14.7101L44.1655 14.6482C43.807 14.6688 43.4494 14.6894 43.0916 14.7101ZM40.8508 14.0651C41.1738 14.0541 41.4969 14.0432 41.8199 14.0324L40.8508 14.0651ZM44.6403 7.96787L43.9937 8.02121C44.2087 8.00372 44.4247 7.98575 44.6403 7.96787ZM40.2024 4.26854L40.6261 4.36215C40.4848 4.33096 40.3437 4.29972 40.2024 4.26854ZM38.677 12.7497C38.7116 12.9711 38.7461 13.1921 38.7807 13.4127L38.677 12.7497ZM38.3106 14.4737C38.2984 14.6399 38.2864 14.806 38.2744 14.9721L38.3106 14.4737ZM35.7469 15.3403C35.7284 15.2493 35.6984 15.159 35.6573 15.0703L35.6352 14.6432C35.6426 14.7857 35.6499 14.9281 35.6573 15.0703C35.6984 15.159 35.7284 15.2493 35.7469 15.3403ZM37.0139 20.1942C36.1353 20.2318 35.2563 20.2695 34.3776 20.3072L37.0139 20.1942ZM33.1005 20.3673L31.6033 20.2512C32.1025 20.29 32.6016 20.3286 33.1005 20.3673ZM33.6166 24.3888C33.2917 24.4929 32.9682 24.5969 32.6456 24.7004L33.6166 24.3888ZM37.323 27.6538L36.6257 27.5573C36.8582 27.5895 37.0906 27.6217 37.323 27.6538ZM39.0275 16.3786L37.8445 16.4286C38.2385 16.412 38.6335 16.3953 39.0275 16.3786ZM55.8894 17.1572C55.4386 17.061 54.9875 16.9649 54.5368 16.8685C54.5352 17.0911 54.5337 17.3137 54.5321 17.5363L54.5368 16.8685C54.9875 16.9649 55.4386 17.061 55.8894 17.1572ZM52.0119 7.9901C52.0486 8.1087 52.0713 8.22855 52.0796 8.34884C53.8715 8.46378 55.686 8.38117 57.4213 8.10565C58.3828 8.1501 59.3905 7.86788 60.4247 8.271C59.3756 9.31171 57.483 8.76736 56.0648 9.02342C55.5839 9.19466 55.0343 9.29544 54.4658 9.31655C53.8973 9.33765 53.3283 9.2784 52.8114 9.14421C51.4987 9.16926 50.1863 9.1943 48.8737 9.21933C48.8788 8.6798 47.9074 8.58737 47.465 8.25287C48.9805 8.16535 50.4963 8.07769 52.0119 7.9901ZM58.8351 4.01719C61.0132 3.93131 63.191 3.84541 65.3685 3.75952L58.8351 4.01719L59.5103 4.35755C59.7542 4.58568 59.9983 4.81374 60.2424 5.04178L59.5103 4.35755C59.2855 4.24405 59.0603 4.13063 58.8351 4.01719ZM71.8837 2.78618L72.0065 3.47061C71.9656 3.24244 71.9247 3.01425 71.8837 2.78618ZM71.9786 8.36449L71.3549 8.7272C71.5628 8.60641 71.7707 8.4855 71.9786 8.36449ZM80.2262 20.3098C80.4514 20.5639 80.6763 20.8176 80.9014 21.071L80.2262 20.3098ZM78.6243 18.4713L78.0549 17.9024C78.2538 18.1013 78.439 18.2863 78.6243 18.4713ZM77.1228 7.84175C76.8491 8.05473 76.4356 8.19815 75.9736 8.24055C76.2023 8.21987 76.4219 8.17324 76.619 8.10496C76.8162 8.03669 76.9874 7.94718 77.1228 7.84175ZM76.4567 7.013C76.6564 6.88865 76.8563 6.76432 77.0561 6.63997L76.4567 7.013ZM66.4361 16.7274L67.1095 16.7107C66.885 16.7163 66.6606 16.7217 66.4361 16.7274ZM69.0963 18.6972C69.8424 18.5998 70.5883 18.5023 71.3346 18.4049L69.0963 18.6972ZM89.2374 8.1684C89.2607 8.09628 89.2838 8.02417 89.307 7.95205L89.2374 8.1684ZM94.0546 14.4918C93.4122 14.4705 92.7699 14.4496 92.1277 14.4292C91.6467 14.357 91.1656 14.2854 90.6845 14.2144L92.1277 14.4292C92.7699 14.4496 93.4122 14.4705 94.0546 14.4918ZM95.7236 6.95517C95.458 6.74162 95.1924 6.52813 94.9266 6.3147L95.7236 6.95517ZM87.2256 8.49817L86.7146 9.19995C86.8849 8.96626 87.0552 8.73224 87.2256 8.49817ZM82.3521 16.4491C82.5805 16.5583 82.8086 16.6673 83.0367 16.7763L82.3521 16.4491ZM95.9606 19.1672C96.1556 19.0654 96.3964 18.9954 96.6572 18.9647C96.9179 18.9339 97.1884 18.9436 97.44 18.9928C99.0127 18.6969 100.324 18.0752 101.106 17.255C101.888 16.4348 102.081 15.4781 101.646 14.5807C101.21 13.6834 100.18 12.9132 98.7646 12.4279C97.3495 11.9426 95.657 11.7788 94.0336 11.9702C92.4102 12.1615 90.9788 12.6935 90.0322 13.4572C89.0855 14.2208 88.6954 15.1585 88.9416 16.0782C89.1878 16.9978 90.0516 17.8299 91.3564 18.4042C92.6612 18.9785 94.3085 19.2514 95.9606 19.1672ZM97.1983 23.2767C97.1632 23.0308 97.1279 22.7848 97.0928 22.5388L97.1983 23.2767ZM100.468 18.3474C100.543 18.5328 100.619 18.7181 100.695 18.9033L100.468 18.3474ZM105.809 24.1323L105.091 24.06C105.33 24.0842 105.57 24.1082 105.809 24.1323ZM104.427 7.70919L105.117 7.70208C104.887 7.70452 104.657 7.70678 104.427 7.70919ZM88.4585 2.71062C89.1313 2.72801 89.8041 2.74535 90.4768 2.76291C92.6989 2.6591 94.9211 2.55511 97.1432 2.45094L90.4768 2.76291C89.8041 2.74535 89.1313 2.72801 88.4585 2.71062ZM78.3963 6.52693C78.1504 6.31008 77.9041 6.09335 77.6581 5.87661L78.3963 6.52693ZM16.1074 2.84139C15.9097 2.96444 15.7121 3.0875 15.5145 3.2106L16.1074 2.84139ZM23.2409 6.5711L22.5211 5.9371C22.761 6.14888 23.0008 6.3597 23.2409 6.5711ZM22.0858 1.86266C22.9292 1.80853 23.7726 1.75436 24.6159 1.70015C25.4972 1.68289 26.3787 1.66563 27.2601 1.64839C28.5856 1.57248 29.911 1.49656 31.2366 1.42061C32.5843 1.56353 34.0231 1.0485 35.3149 1.59699C37.1183 0.995786 39.2459 1.39484 41.1179 1.00546C45.9804 1.59238 50.8852 0.583029 55.7488 1.12642C59.5402 1.0101 63.3436 1.09306 67.1073 1.37488C68.1711 1.33034 69.2469 1.71513 70.3006 1.34656C70.9797 1.7129 72.1752 1.71652 72.4994 2.33189C70.2806 2.43989 68.062 2.54795 65.8432 2.65599C63.0351 2.78106 60.2269 2.90602 57.4188 3.03102C53.0059 3.17733 48.5929 3.32363 44.18 3.4699C41.9907 3.14397 39.6941 3.11669 37.4821 3.39031C36.9367 2.99594 36.1661 3.11902 35.4515 3.11338C34.8961 2.71152 34.1302 2.81891 33.3973 2.84614C33.4523 3.19966 33.507 3.55322 33.5618 3.90682C34.2129 3.8855 34.8638 3.86406 35.5146 3.84251C35.9622 3.84516 36.4101 3.84776 36.8577 3.85084C37.0196 3.73182 37.1812 3.61255 37.343 3.49301L36.8577 3.85084C36.4101 3.84776 35.9622 3.84516 35.5146 3.84251C34.8638 3.86406 34.2129 3.8855 33.5618 3.90682C33.507 3.55322 33.4523 3.19966 33.3973 2.84614C32.9675 2.85381 32.5376 2.8615 32.1078 2.86925C30.3065 2.70263 28.5054 2.53589 26.7045 2.36899C26.2551 2.39375 25.8059 2.41845 25.3567 2.4431C24.4788 1.87347 22.6553 2.97785 22.0858 1.86266ZM29.2222 7.0167L29.2657 6.40838C29.2512 6.61112 29.2366 6.81372 29.2222 7.0167ZM28.8573 8.60758C28.4172 8.62568 27.9773 8.64387 27.5374 8.66206L28.8573 8.60758ZM32.9903 4.71C32.7859 4.9592 32.5816 5.20846 32.3775 5.4578L32.9903 4.71ZM21.6183 18.8824C21.8614 19.0785 22.1047 19.2747 22.3479 19.471L21.6183 18.8824ZM33.2835 6.90049C33.2852 7.04063 33.287 7.18083 33.2889 7.32075L33.2835 6.90049ZM52.3884 25.8734L53.6177 25.4514C53.2075 25.592 52.7981 25.7327 52.3884 25.8734ZM62.7054 23.5888C62.6833 23.6989 62.6507 23.8084 62.6079 23.9166C61.136 23.9842 59.6646 24.0518 58.194 24.1194C58.1495 24.021 58.1039 23.9225 58.0567 23.8246C57.8625 23.8 57.6663 23.7817 57.4684 23.7698C56.5131 23.841 55.5215 24.0216 54.7644 23.4902C54.3108 23.5255 53.8575 23.5608 53.4039 23.5961C52.0042 23.6469 52.0764 23.0646 51.98 22.5552C51.7316 22.458 51.4828 22.3608 51.2341 22.2636C50.9037 22.2613 50.5733 22.259 50.2429 22.2568L51.2341 22.2636C52.0942 22.1885 52.9545 22.1134 53.8145 22.0391C53.8254 21.9326 53.8198 21.8259 53.7982 21.72L52.4156 21.0559C52.8766 21.2773 53.3371 21.4986 53.7982 21.72C53.8198 21.8259 53.8254 21.9326 53.8145 22.0391C52.9545 22.1134 52.0942 22.1885 51.2341 22.2636C51.4828 22.3608 51.7316 22.458 51.98 22.5552C52.635 23.1226 53.8986 22.9469 54.7543 23.2689C55.8527 23.2138 56.951 23.1587 58.0494 23.1036C59.138 23.1644 60.2266 23.2252 61.3152 23.2861L61.2728 23.3106C61.944 23.0895 62.5118 23.0365 62.7054 23.5888ZM82.0299 29.1836C79.9973 29.0303 77.9021 29.6929 75.9083 29.0354C75.7175 29.0423 75.5306 29.0697 75.3582 29.1161L74.0672 29.3805C73.5497 29.4486 73.0089 29.496 72.7883 29.8296C71.9712 29.5938 71.0373 29.5169 70.1339 29.6113C70.0592 29.5091 69.9763 29.409 69.8849 29.3109C69.1494 29.4852 68.1305 29.1946 67.6245 29.7445C66.4712 29.6428 65.3178 29.541 64.1645 29.4393C64.1288 29.2186 64.0931 28.9978 64.0576 28.7769C66.8825 28.5716 69.7055 28.2473 72.5418 28.7331C73.4645 28.1406 74.7654 28.5335 75.8395 28.3356C75.9133 28.4246 76.0126 28.5061 76.1338 28.5769C76.211 28.5496 76.3017 28.5367 76.3929 28.5401C76.484 28.5436 76.571 28.5631 76.6411 28.5959C79.0574 28.257 81.5886 28.2727 83.991 28.6413C83.6992 29.2339 82.7604 29.09 82.0299 29.1836ZM81.7581 26.9067C81.9852 26.919 82.2121 26.9313 82.4391 26.9437L81.7581 26.9067ZM90.7356 24.6539L91.1683 23.9621C91.023 24.1933 90.8795 24.4235 90.7356 24.6539ZM100.85 25.7417L100.124 25.413C100.366 25.5227 100.608 25.6322 100.85 25.7417ZM109.451 15.3469C109.425 15.214 109.4 15.0811 109.375 14.9482L109.451 15.3469ZM116.035 25.1312L116.784 25.8188C116.534 25.5897 116.284 25.3603 116.035 25.1312ZM123.541 26.6787L122.327 26.7017C122.732 26.694 123.136 26.6864 123.541 26.6787ZM123.24 18.8918C122.822 18.8834 122.405 18.8752 121.988 18.8668L121.987 18.8666C121.671 18.4042 121.357 17.9414 121.043 17.4784C121.913 17.4403 122.783 17.4021 123.653 17.3638C124.301 17.3532 124.948 17.3425 125.596 17.3319C125.819 17.2769 126.042 17.2219 126.265 17.167L126.245 16.8977L137.524 16.7636C138.45 16.6113 139.656 17.0293 140.283 16.3502C140.331 16.2985 139.727 16.0574 139.425 15.9048C139.4 15.811 139.37 15.718 139.336 15.6257L140.66 15.5208L140.67 15.6566C141.362 15.8331 142.054 16.009 142.746 16.1845C143.004 16.4151 143.262 16.6457 143.52 16.8763C142.598 16.9461 141.676 17.0158 140.754 17.0856C140.529 17.2809 140.303 17.4762 140.078 17.6714C139.542 17.8773 139.007 18.0832 138.471 18.2892C138.235 18.2642 137.998 18.2392 137.761 18.2142C136.719 17.6658 135.488 18.066 134.349 18.0011C133.911 18.142 133.474 18.283 133.036 18.424C132.377 18.3369 131.718 18.2497 131.059 18.1626C128.674 19.1511 125.806 18.5142 123.24 18.8918ZM140.903 27.4628L140.171 27.1107C140.415 27.2281 140.659 27.3455 140.903 27.4628ZM152.687 25.7959L152.734 26.5727C152.718 26.314 152.703 26.0549 152.687 25.7959ZM153.105 24.3112L153.495 24.6675C153.365 24.5489 153.235 24.43 153.105 24.3112ZM153.692 24.293C154.155 24.2787 154.618 24.2643 155.081 24.2498L153.692 24.293ZM158.077 26.7193L157.969 25.9901C158.005 26.2333 158.041 26.4763 158.077 26.7193ZM166.646 26.0337C166.821 26.2023 166.995 26.3703 167.169 26.5384L166.646 26.0337ZM173.233 26.1099C173.26 26.2337 173.287 26.3573 173.314 26.4809L173.233 26.1099ZM160.501 25.0288C160.286 25.1007 160.071 25.1726 159.856 25.2447L159.347 25.5239C159.518 25.4306 159.687 25.3377 159.856 25.2447L160.501 25.0288ZM174.913 18.6622C172.717 18.7424 170.521 18.8226 168.324 18.9028C168.111 18.8759 167.893 18.8617 167.675 18.8604C166.992 18.7995 166.308 18.7386 165.625 18.6778L163.728 19.1113C160.208 18.4724 156.594 19.1189 153.046 18.8646C151.721 18.8588 150.396 18.853 149.072 18.8472C148.644 18.8585 148.216 18.8699 147.788 18.8813C147.765 18.6829 147.742 18.4846 147.719 18.2863C149.232 18.191 150.746 18.0958 152.26 18.0005C154.256 17.9165 156.251 17.8325 158.247 17.7485C158.454 17.7763 158.665 17.7937 158.878 17.8006C158.836 17.9068 158.862 18.0181 158.952 18.1146C159.824 18.0493 160.629 17.451 161.578 18.0118C162.963 17.8287 164.415 17.8858 165.741 18.1757C166.379 17.7253 167.438 18.0306 168.17 17.7503C169.686 18.2493 171.276 17.827 172.828 17.867C173.254 17.8725 173.68 17.878 174.106 17.8834L174.863 18.2627L174.913 18.6622ZM177.751 19.6073C178.152 19.5804 178.553 19.5534 178.954 19.5263L177.751 19.6073ZM179.69 19.4765C179.774 19.3683 179.858 19.2601 179.942 19.1517L179.69 19.4765ZM180.919 18.7497C181.098 18.6206 181.277 18.4908 181.456 18.3611L180.919 18.7497ZM184.119 17.8255C182.792 17.8861 181.465 17.9468 180.139 18.0076C179.674 17.7623 179.21 17.5171 178.746 17.2722L180.139 18.0076C181.465 17.9468 182.792 17.8861 184.119 17.8255C183.599 17.6064 183.078 17.3873 182.558 17.1681C182.402 17.1651 182.252 17.1343 182.13 17.08C182.558 16.9559 182.985 16.8315 183.413 16.707C185.032 16.7749 186.685 16.4827 188.277 16.85C191.495 16.8619 194.712 16.8737 197.928 16.8856C197.97 16.9655 198.009 17.046 198.044 17.127C199.041 17.9256 200.366 17.4078 201.562 17.4032C203.087 17.5016 204.61 17.6003 206.411 17.717C205.7 18.0373 205.243 18.2429 204.787 18.4484C204.328 18.3885 203.87 18.3286 203.412 18.2687L196.825 18.1805C196.145 18.1563 195.465 18.132 194.785 18.1078C193.247 18.1778 191.709 18.2479 190.171 18.3181C190.098 18.2909 190.016 18.2725 189.93 18.2638C189.844 18.2552 189.755 18.2566 189.67 18.268C189.502 18.0772 189.335 17.8865 189.167 17.6957C187.51 18.0567 185.742 17.0529 184.119 17.8255ZM196.331 19.6712L195.674 19.9692C195.893 19.8704 196.112 19.7707 196.331 19.6712ZM209.174 21.2786C208.721 21.3104 208.268 21.3422 207.815 21.374C207.154 21.3621 206.492 21.3504 205.83 21.3383C205.399 21.3965 204.968 21.4547 204.537 21.513C203.197 21.5674 201.857 21.6218 200.516 21.6764C200.105 21.6605 199.695 21.6446 199.284 21.6289C198.629 21.6782 197.974 21.7276 197.319 21.7768C197.088 21.7541 196.857 21.7316 196.626 21.7095C196.17 21.7569 195.714 21.8041 195.258 21.851C195.224 21.8525 195.189 21.855 195.155 21.8585C195.19 21.8569 195.222 21.8508 195.258 21.851C195.714 21.8041 196.17 21.7569 196.626 21.7095C196.857 21.7316 197.088 21.7541 197.319 21.7768C197.974 21.7276 198.629 21.6782 199.284 21.6289L199.1 21.2742L205.792 21.0868L209.092 20.9125C210.371 20.8596 211.65 20.8067 212.93 20.7538L212.996 21.1206L209.174 21.2786ZM213.745 16.6548C214.02 16.6083 214.296 16.5611 214.572 16.514L213.745 16.6548Z" fill="#FAE465"/>
</g>
</svg>
