<svg width="98" height="96" viewBox="0 0 98 96" fill="none" xmlns="http://www.w3.org/2000/svg">
<path d="M14.5338 10.4453C13.6673 11.6869 12.3578 12.5549 11.3412 13.6602C8.79742 16.2017 6.63204 19.0942 4.91119 22.2493C1.84814 28.5122 0.605507 35.5066 1.32432 42.4388C1.44158 44.9416 1.83435 47.424 2.49553 49.8412C2.88669 51.0813 3.43772 52.2696 3.90937 53.4692C4.92532 56.0527 5.83592 58.9441 7.67388 60.8689C9.77698 63.0714 10.714 65.9864 13.097 67.9157C11.6791 65.2903 11.2092 62.2374 8.89808 59.9834C7.97336 58.8881 7.39002 57.5467 7.21999 56.1245C7.97512 57.3233 8.80087 58.4764 9.69286 59.5776C9.82007 57.3814 9.07945 55.5163 8.65069 53.6241C7.5743 48.9849 7.20332 44.2104 7.55023 39.461C8.00788 33.6107 9.83937 27.95 12.8964 22.9374C15.6904 18.591 19.2758 14.8057 23.467 11.7775C27.4016 8.66541 31.8064 6.19665 36.5168 4.46342C38.3232 3.77711 40.173 3.21029 42.0541 2.76667C42.7716 2.617 43.8975 2.45443 43.7943 1.17333C46.2634 1.98527 48.5377 1.05256 50.8478 0.959875C53.8631 0.838834 56.887 0.93025 59.9521 0.680262C59.2279 0.524145 58.5037 0.367999 57.7796 0.211821C59.2361 -0.142637 60.7659 -0.0506403 62.1692 0.475803C64.7663 1.31773 67.4551 1.8754 70.0968 2.58447C73.9372 3.60373 77.6041 5.18816 80.9769 7.28561C82.9446 8.45681 84.6816 9.97654 86.1027 11.7701C87.9045 14.1481 90.0792 16.2596 91.5002 18.9113C94.0854 23.7345 96.1408 28.7421 96.5328 34.2954C96.682 36.41 97.1942 38.5212 97.1386 40.6234C97.0335 44.5942 97.7994 48.4868 97.959 52.4363C98.1132 55.8955 97.8317 59.3603 97.1212 62.7495C96.2494 66.8542 95.0822 71.0084 92.7252 74.4666C91.0625 77.1574 88.9832 79.5683 86.5647 81.6097C84.618 83.1128 82.4152 84.325 81.0523 86.5672C80.3122 87.6511 79.331 88.5495 78.1852 89.192C74.7003 91.3036 71.4146 93.6624 67.2514 94.6606C63.7098 95.4978 60.0871 95.9456 56.4478 95.996C52.4264 96.0733 48.6219 95.0128 44.7874 93.9376C38.3167 92.1233 32.7031 88.6305 27.3126 84.8849C24.5446 82.8535 22.0393 80.488 19.8537 77.8423C17.7642 75.2851 15.5375 72.8428 13.1832 70.526C11.2872 68.7625 9.93413 66.3713 8.55097 64.1294C8.08563 63.2893 7.5735 62.4759 7.01695 61.693C3.97683 57.8739 2.43497 53.3856 1.20423 48.8191C0.431802 45.7882 0.0296283 42.6752 0.00645547 39.5479C-0.10317 34.5689 1.20205 30.0063 2.50489 25.3754C3.3624 22.5176 4.77777 19.8573 6.6695 17.5475C8.74557 14.9671 10.6126 11.9057 13.7985 10.302C14.0158 10.1926 14.1853 10.121 14.5338 10.4453ZM74.6021 6.39126C83.4236 11.1317 90.1225 19.0262 93.3548 28.4906C93.8534 21.3953 81.6223 6.93458 74.6021 6.39126ZM73.9344 80.8084C76.0547 81.2394 80.4019 77.3536 81.2841 73.2375C78.7394 75.7367 76.8739 78.5662 73.9344 80.8084ZM64.2371 3.39005C66.9205 4.00652 69.2323 5.7627 72.109 5.5815C69.5712 4.51922 67.12 3.17868 64.2371 3.39005Z" fill="#FAE465"/>
</svg>
