<svg width="170" height="8" viewBox="0 0 170 8" fill="none" xmlns="http://www.w3.org/2000/svg">
<path d="M169.995 3.75354C170.058 3.44851 169.517 3.63857 169.256 3.57193C169.119 3.36116 168.982 3.15045 168.845 2.93981C169 0.972727 169 0.972729 167.75 1.555C167.625 1.53144 167.501 1.50786 167.376 1.48427C167.28 1.43254 167.175 1.40025 167.067 1.38934C166.958 1.37844 166.849 1.38915 166.744 1.42083C166.64 1.45251 166.544 1.50451 166.461 1.57369C166.377 1.64287 166.309 1.72781 166.261 1.82339C165.321 1.84373 164.859 0.282968 163.685 1.07725C163.116 1.41372 162.713 1.09314 162.247 0.797319C161.491 0.317093 161.342 0.789894 161.371 1.43051C161.277 1.42546 161.183 1.43782 161.094 1.46695C160.329 0.717766 159.578 0.489863 158.861 1.52476C158.933 0.175475 158.24 0.230643 157.313 0.716891C157.21 0.718091 157.111 0.753514 157.032 0.817296C156.276 0.726596 155.561 -0.381505 154.758 0.729769C154.702 0.71733 154.644 0.716402 154.588 0.727032C154.532 0.737662 154.479 0.759617 154.433 0.7915C154.289 0.649342 154.114 0.540853 153.921 0.474135C153.729 0.407417 153.523 0.384194 153.32 0.406216C152.472 -0.263205 151.74 -0.0512291 151.077 0.688935C150.6 0.610781 150.009 0.680106 149.668 0.426746C148.665 -0.317488 148.547 0.505067 148.251 1.07529C147.591 -0.371913 146.95 0.634692 146.305 1.08998C146.014 0.290784 145.918 0.263854 145.29 0.807076C145.225 0.89025 145.182 0.987201 145.163 1.08998C144.741 1.37998 144.371 1.54684 144.399 0.778599C143.898 0.0167092 143.028 0.0122717 142.228 0.767458L142.2 0.732426C141.591 0.810622 140.864 0.412993 140.418 1.15431C139.146 1.35501 138.031 -0.00928992 136.698 0.796471C136.242 0.439271 135.788 0.0752182 135.168 0.480842C134.706 0.0771589 134.238 -0.24639 133.709 0.393323C133.577 0.410282 133.444 0.427254 133.312 0.444241C133.087 0.415805 132.862 0.387457 132.637 0.359195C131.559 -0.0893812 130.517 -0.274 129.642 0.753676C129.255 0.819451 128.911 -0.0619848 128.492 0.703293C127.361 -0.080343 126.548 0.973981 125.59 1.18579C125.205 1.06117 124.987 0.54946 124.473 0.725207C123.739 -0.10849 123.497 0.372482 123.357 1.12587C122.839 1.11775 122.865 0.290784 122.254 0.421967C121.589 -0.291115 121.306 0.384821 120.943 0.767298C120.783 0.599314 120.476 0.362007 120.388 0.545054C120.264 0.800187 120.388 1.16991 120.406 1.49065C119.935 1.33382 119.511 0.920919 118.952 1.23176C118.018 0.551902 117.773 1.34586 117.425 1.91765C117.063 1.8959 116.7 1.87422 116.338 1.85258C116.241 1.36509 116.764 0.685063 115.954 0.424649C115.243 0.196004 115.813 1.20635 115.259 1.18704C114.881 1.13171 114.55 0.55372 114.118 1.08664C113.282 0.617193 113.164 1.28784 112.943 1.79514C111.39 1.26519 109.835 0.765851 108.197 1.48623C107.594 1.43672 106.961 0.183624 106.394 1.53006C106.367 1.62147 106.348 1.71476 106.336 1.80911C105.722 1.71701 105.091 0.988498 104.505 1.85894C103.795 1.45884 103.278 2.09323 102.66 2.19049C102.586 1.73168 102.205 1.87912 101.923 1.83329C101.331 0.368224 100.402 1.85153 99.6738 1.58646L98.9644 1.54349C98.2978 1.81757 97.7051 0.831651 97.0193 1.43406C96.9705 1.41978 96.9185 1.4196 96.8697 1.43352C96.8208 1.44744 96.7771 1.47489 96.7437 1.51255C96.0034 1.57392 95.2477 0.456238 94.5208 1.54048C93.7567 1.18297 93.4697 1.84249 93.0432 2.20479L93.0431 2.21131C92.214 1.34105 91.101 1.15714 88.5972 1.47632C87.3344 0.477817 86.3925 1.86604 85.2691 1.90525C85.0157 1.71033 84.7065 1.59751 84.3846 1.58246C84.0626 1.56741 83.7439 1.65088 83.4726 1.82128C83.4094 1.38789 83.4587 0.888063 82.7865 0.858354C82.2143 0.832894 82.3187 1.18438 82.3734 1.51925C82.2332 1.90683 81.9061 1.85431 81.594 1.83718C81.0343 1.22926 80.6537 1.3336 80.4432 2.1144C80.1684 2.15562 80.071 1.67484 79.7388 1.88488C79.477 1.68535 79.1712 1.54861 78.8458 1.48564C78.5204 1.42267 78.1844 1.43521 77.8649 1.52226C77.0667 1.33785 76.3737 1.7286 75.6428 1.91165C74.465 1.21268 70.8742 1.39994 69.7372 2.21943C69.6263 1.49645 69.1979 1.22647 68.6386 1.7341C68.0829 2.23875 67.4243 2.13266 66.8112 2.29602C66.2188 1.80944 65.8139 2.40496 65.3295 2.54202L65.309 2.57099C64.5016 1.99615 63.6072 2.1182 62.7103 2.25999C61.8971 1.85243 61.7537 3.43225 60.8819 2.85092C60.3932 1.88161 59.6939 2.29341 59.014 2.57771C57.7954 1.8549 56.5143 2.25413 55.2486 2.37668C55.2617 2.32035 55.266 2.26242 55.2615 2.20482C55.2439 2.16237 55.2136 2.12609 55.1747 2.10067C54.9406 2.29327 54.6663 2.43341 54.371 2.51127C54.0758 2.58913 53.7667 2.60282 53.4654 2.55139C52.445 1.9824 51.6664 2.19157 51.1491 3.24148L50.9797 3.24823C50.8598 1.4866 49.879 2.23224 49.0262 2.6053C48.6624 2.57721 48.2985 2.54903 47.9346 2.52079C47.2682 1.81815 46.6974 2.57897 46.0807 2.63699C45.9653 2.59802 45.8454 2.57318 45.7238 2.56304C44.6855 1.75889 43.6778 2.46986 42.659 2.62245C42.0726 1.87117 41.4917 2.20359 40.9111 2.63075C39.6697 2.22001 38.4271 1.84678 37.1547 2.52875C36.9223 2.53849 36.6898 2.54828 36.4573 2.55812C36.3348 2.56943 36.2123 2.58068 36.0899 2.59187C35.8942 2.54382 35.6891 2.54778 35.4955 2.60336C35.302 2.65893 35.1271 2.7641 34.9889 2.908C34.6264 2.78635 34.3496 2.3719 33.8852 2.59823C33.617 2.60565 33.3487 2.61303 33.0804 2.62034C32.6096 2.55047 32.1288 2.64404 31.7211 2.88484C31.6952 2.93628 31.6525 2.97777 31.5998 3.0027C31.5471 3.02764 31.4873 3.03458 31.4301 3.02242C31.6473 3.83841 31.5341 4.25104 31.1108 4.28508C31.5339 4.25099 31.6468 3.83812 31.4286 3.02172C31.4859 3.03435 31.5468 3.02753 31.5998 3.0027C31.6525 2.97777 31.6952 2.93628 31.7211 2.88484C30.6373 1.81884 29.6509 2.52733 28.654 3.04594C28.0688 1.86319 27.3546 3.62978 26.7468 2.96602C26.1339 1.52389 25.1118 2.49532 24.2437 2.55899C24.1227 2.58391 24.0017 2.6089 23.8808 2.63396C22.9226 3.34618 22.1968 2.26655 21.3245 2.31623C20.7202 2.37297 20.1158 2.42983 19.5115 2.48682C18.7506 1.74085 18.3385 2.28029 17.9466 2.89405C17.8461 2.92717 17.7382 2.93219 17.635 2.90853C17.8194 1.75624 17.0582 2.13975 16.4798 2.22657C15.9888 2.01439 15.799 2.61572 15.3863 2.61448C14.8604 2.78144 15.0385 1.34657 14.2408 2.13195C13.1536 2.12968 12.0684 2.52185 10.9791 2.14895C10.9018 1.96945 10.8862 1.70743 10.566 1.8526C10.0865 1.82838 9.60687 1.80421 9.12721 1.78009C8.29135 1.17558 7.35287 1.61268 6.46573 1.52867C6.4099 1.5063 6.3495 1.49703 6.28936 1.50161C6.22923 1.50619 6.17103 1.52449 6.11941 1.55504C5.50787 1.61673 4.92773 0.681901 4.29234 1.49987L4.28449 1.50391C3.51627 1.47582 2.72185 1.31014 2.07193 1.90622C1.37165 1.96457 1.76974 2.6918 1.40585 2.95506C1.26239 3.26202 1.44734 3.75657 1.00931 3.87999C-0.956656 4.43362 0.47548 5.38487 0.930704 5.78641C1.82152 6.57199 2.61489 7.51178 4.2703 7.18435C5.13878 7.01265 6.22105 6.6629 7.22788 6.94914C8.4548 6.58192 9.77187 6.62686 10.9697 7.07681C12.9901 7.75173 15.1847 7.73546 17.1944 7.03065C17.4681 7.45464 17.953 7.23149 18.3161 7.38144C19.0658 8.08378 19.1549 7.28773 19.429 6.91112L19.4241 6.87027C20.1804 7.68981 20.9989 8.13437 22.032 7.2851C23.2613 8.221 24.4948 7.22761 25.7261 7.29425C27.7863 8.06713 29.9183 7.55616 32.0175 7.63167C32.5084 7.89105 32.9978 8.25405 33.5003 7.65094C33.6425 7.50721 33.8165 7.39728 34.0088 7.3296C34.2011 7.26192 34.4067 7.23828 34.6098 7.2605C34.6994 7.64013 35.029 7.62137 35.3182 7.66984C35.9664 8.09898 36.5376 8.23726 36.8216 7.28881L37.9282 7.22728C38.1699 7.37083 38.4115 7.5143 38.6531 7.65766C39.3784 8.48991 39.6869 7.45362 40.1984 7.32718L40.1622 7.3049C40.5325 7.37579 40.804 7.81199 41.2539 7.58762C41.7208 7.78828 41.5753 6.33555 42.3544 7.22904C43.0157 7.98738 43.8349 7.61465 44.5962 7.29993C45.3449 7.75626 45.9747 7.53773 46.5432 6.97105L47.558 7.18694C48.203 7.96192 48.9365 8.07279 49.9292 7.76476C50.4453 7.52918 51.0042 7.39635 51.5731 7.37399C52.6989 7.43271 53.808 7.88484 54.952 7.59324C55.8265 7.70478 56.3608 6.42007 57.2346 6.91746C59.3378 8.11432 61.3798 7.72586 63.4514 6.92221C63.471 7.13137 63.4906 7.34048 63.5102 7.54953C64.2569 6.89587 65.4024 7.86005 66.0839 6.94147C66.5242 6.83381 66.9645 6.7262 67.4049 6.61862C68.4687 7.53596 69.5369 7.75713 70.6135 6.6379C70.943 6.48918 71.2725 6.34054 71.602 6.19196C72.2019 7.59092 72.8612 7.1029 73.5321 6.25031C73.5957 6.2639 73.66 6.27352 73.7248 6.2791C74.4925 7.01855 75.4503 6.9496 76.4073 6.88437C77.0201 6.75953 77.6329 6.63476 78.2456 6.51006C78.8051 6.62816 79.3712 6.78624 79.825 6.26091C81.2616 5.84721 82.8031 5.961 84.1602 6.58095C85.1605 7.36144 85.1222 6.04555 85.6503 5.87299C86.4071 5.82541 87.0048 6.78818 87.8461 6.20488C89.2065 6.31485 90.5669 6.42482 91.9274 6.5348C92.2964 7.06789 92.6669 6.97756 93.0381 6.53724C93.8469 6.02272 94.8142 6.6803 95.6277 6.20148C96.2397 6.35601 96.8431 6.98867 97.4715 6.23312C97.7182 6.19727 97.9651 6.16138 98.2119 6.12547C98.9074 6.44939 99.6721 7.26005 100.123 5.86464C100.327 5.96404 100.532 6.06342 100.736 6.16276C101.149 6.28598 101.563 6.4091 101.976 6.53212C102.626 6.67679 103.178 5.63409 104.064 6.57136C104.352 6.87692 106.358 7.27458 107.096 5.85564C107.337 5.86711 107.577 5.87854 107.818 5.88993C108.561 6.10458 109.304 6.31936 110.047 6.53426C111.388 6.27612 112.895 7.02122 114.093 5.89525C114.326 6.17267 114.71 6.05065 114.897 6.11717C115.788 6.43453 116.451 4.96856 116.803 5.56747C117.506 6.76483 118.161 5.99888 118.867 5.86605C119.757 6.30564 120.628 5.58105 121.515 5.82735C123.123 6.36345 124.679 4.80132 126.296 5.71437C127.044 5.87134 127.816 5.88449 128.57 5.75308C129.929 6.26887 131.174 4.58911 132.557 5.55419L132.594 5.37737C133.222 5.68603 133.922 5.82974 134.624 5.79448C135.326 5.75921 136.007 5.54617 136.6 5.17617C137.04 5.8028 137.494 6.31591 138.138 5.36801C138.27 5.36891 138.403 5.36974 138.535 5.37048C138.656 5.4039 138.777 5.43737 138.899 5.47088C139.47 6.06537 140.125 5.40159 140.724 5.5867C141.416 6.22253 141.586 5.44542 141.937 5.1569C141.985 5.1732 142.036 5.178 142.086 5.17089C142.136 5.16378 142.183 5.14497 142.224 5.11605L142.19 5.15615C142.687 5.92057 143.502 5.0386 144.057 5.5029C145.107 5.83816 146.175 6.32902 147.054 5.1735C148.725 5.90448 150.466 5.12629 152.158 5.40462C152.676 5.53914 153.194 5.6737 153.712 5.8083C154.393 5.62917 155.001 5.02482 155.798 5.71896C156.09 5.9736 156.552 5.58107 156.704 5.14202C157.17 5.02058 157.668 5.3924 158.122 5.05593C158.842 6.01482 159.763 5.82364 160.71 5.48965C161.378 5.95272 162.065 6.31113 162.894 5.85707C163.51 6.69959 164.162 6.22221 164.809 5.90551C164.906 5.86074 165.014 5.84283 165.12 5.85373C165.596 6.82231 166.429 5.82633 167.015 6.184C167.542 7.4019 168.374 6.24537 169.033 6.43263C168.957 6.23547 168.881 6.03836 168.805 5.84132C168.809 5.43821 168.981 5.272 169.421 5.16926C170.171 4.99418 169.896 4.23601 169.995 3.75354ZM99.256 2.98363L98.5714 3.28866C98.7996 3.18698 99.0273 3.08564 99.256 2.98363ZM121.143 2.56831L118.955 2.22404C119.684 2.3388 120.414 2.45367 121.143 2.56831Z" fill="#FAE465"/>
</svg>
