<svg width="286" height="111" viewBox="0 0 286 111" fill="none" xmlns="http://www.w3.org/2000/svg">
<path d="M277.558 30.1192C271.803 23.817 263.965 19.657 256.159 16.4491C248.447 13.4149 240.518 10.9627 232.439 9.11303C220.19 6.08622 207.774 3.78496 195.253 2.22128C169.175 -0.976408 142.787 -0.720598 116.776 2.98207C110.299 3.90404 103.889 5.12581 97.4987 6.52415C94.929 7.0865 93.8763 13.7045 96.9787 13.1939C121.787 9.111 146.942 7.0083 172.084 8.28018C194.716 9.42914 217.149 13.0978 238.966 19.218C246.887 21.2649 254.552 24.1952 261.816 27.9537C268.562 31.6311 274.923 36.4916 278.526 43.4258C279.335 45.0132 279.958 46.6886 280.382 48.4187C280.558 49.0955 280.689 49.7832 280.773 50.4774C280.833 50.948 280.881 51.4205 280.912 51.894C280.945 52.414 280.947 52.6098 280.945 52.691C280.982 54.0962 280.775 55.497 280.335 56.8322C280.302 56.9553 280.262 57.0768 280.224 57.1984L280.21 57.2342C280.059 57.6317 279.902 58.026 279.73 58.4147C279.507 58.9669 279.235 59.4984 278.919 60.0028C278.717 60.3231 278.485 60.6204 278.269 60.9303C279.734 54.9431 279.168 48.6394 276.661 43.0078C274.181 38.1183 270.443 33.9754 265.832 31.004C253.461 22.5351 237.796 19.03 223.243 16.575C204.397 13.3959 185.219 12.3329 166.13 12.0691C147.5 11.8117 128.841 12.4075 110.268 13.8865C103.526 14.4234 96.7824 15.0532 90.0674 15.894C90.8176 15.2246 91.3365 14.3353 91.5499 13.3534C91.8066 12.3256 91.9316 9.37427 90.257 9.22796C78.6565 8.21406 67.7706 13.3563 57.2528 17.5102C57.0899 17.5745 56.9261 17.636 56.7633 17.6999C56.6394 17.6982 56.5161 17.7159 56.3976 17.7521C53.9809 18.6543 51.4351 19.2055 49.0141 20.1202C46.4106 21.1038 43.8158 22.1101 41.2409 23.1658C35.8726 25.3191 30.6418 27.7998 25.5782 30.5939C15.8906 36.0366 6.067 43.4958 1.97823 54.2197C-2.39331 65.6855 0.759267 78.6375 8.69014 87.7895C16.7207 97.0563 28.5232 101.868 40.1949 104.717C52.0797 107.618 64.3435 108.618 76.5171 109.464C94.2573 110.698 111.988 111.319 129.772 110.836C149.186 110.303 168.553 108.629 187.77 105.821C200.412 103.979 213.137 101.966 225.605 99.1577C242.517 95.3485 262.083 88.8616 272.285 74.4673C279.452 69.3703 284.98 62.5236 285.881 53.1228C286.698 44.5929 283.243 36.3442 277.558 30.1192ZM147.879 20.2387C166.626 19.9079 185.377 20.6887 204.032 22.5769C220.027 24.2871 236.452 26.8431 251.426 32.9598C252.949 33.5818 254.451 34.2504 255.933 34.9654C256.444 35.2122 255.893 34.9366 256.49 35.2439C256.846 35.4267 257.2 35.6107 257.553 35.7993C258.241 36.1681 258.923 36.5505 259.596 36.9463C262.041 38.3614 264.337 40.0174 266.452 41.8894C266.95 42.3382 267.435 42.8021 267.905 43.2811C268.089 43.4692 268.269 43.661 268.45 43.8524C268.595 44.0064 268.667 44.0797 268.709 44.1209C268.728 44.1482 268.763 44.1942 268.845 44.2961C269.626 45.2423 270.347 46.2375 271.002 47.2756C271.307 47.7739 271.585 48.2852 271.857 48.802C271.888 48.8595 271.975 49.0396 272.049 49.1916C272.128 49.379 272.283 49.7356 272.326 49.8448C272.537 50.3816 272.726 50.9267 272.891 51.4801C272.969 51.7427 273.042 52.0068 273.11 52.2724C273.134 52.368 273.217 52.7516 273.265 52.9633C273.29 53.1032 273.314 53.2456 273.322 53.3067C273.364 53.6153 273.408 53.923 273.441 54.2328C273.507 54.8648 273.518 55.4956 273.555 56.129C273.467 54.6281 273.523 56.6232 273.488 57.1132C273.447 57.6679 273.368 58.2155 273.296 58.7649C273.338 58.3294 273.124 59.7155 273.015 60.1739C272.843 60.8969 272.63 61.6055 272.423 62.3185C272.404 62.3836 272.398 62.4059 272.386 62.4517C272.373 62.485 272.368 62.4949 272.352 62.5372C272.211 62.9081 272.078 63.2821 271.933 63.6517C271.534 64.6737 271.081 65.6741 270.577 66.6487C270.528 66.7379 270.471 66.8447 270.451 66.8794C270.248 67.229 270.039 67.5749 269.824 67.917C269.537 68.3726 269.238 68.8206 268.927 69.261C268.701 69.5822 268.51 69.8475 268.334 70.0846C266.896 71.0041 265.407 71.8587 263.892 72.6566C248.911 80.5512 231.451 83.9136 214.956 86.8832C190.567 91.2741 165.829 93.5137 141.13 95.3006C129.842 96.1171 118.545 96.8171 107.258 97.6562C97.228 98.4019 87.1828 99.1513 77.1204 99.231C57.656 99.3851 36.0455 97.1665 20.4368 84.3634C13.3993 78.5908 6.95976 69.8761 7.88148 60.3093C8.46765 54.2239 12.0128 49.0618 16.4261 44.9239C24.0479 38.7567 33.3944 34.4975 42.3962 30.7718C44.7816 29.7847 47.184 28.84 49.5932 27.9131C51.6995 27.1025 53.7397 25.9547 55.8183 25.1787C56.0673 25.0828 56.3049 24.9595 56.5267 24.8112C56.7993 24.706 57.076 24.6116 57.3478 24.5046C59.7996 23.5402 62.2377 22.5383 64.6898 21.574C64.2182 22.3545 63.9381 23.2352 63.8719 24.1444C63.7917 25.212 64.2532 27.8479 65.956 27.3432C69.9266 26.2561 73.9716 25.4622 78.0588 24.9678C84.3045 24.0808 90.5877 23.4309 96.8679 22.845C113.817 21.2637 130.859 20.4439 147.879 20.2387ZM86.8808 16.3112C82.2492 16.9414 77.6352 17.6903 73.0471 18.5884C77.5043 17.0854 82.1767 16.3163 86.8811 16.3112H86.8808ZM210.901 93.9961C195.639 96.6303 180.342 98.9921 164.922 100.511C150.439 101.937 135.916 102.764 121.356 102.992C146.113 101.299 170.879 99.4304 195.46 95.9617C208.165 94.169 220.826 91.9876 233.356 89.216C225.972 91.2414 218.413 92.6996 210.901 93.9962V93.9961Z" fill="#FAE465"/>
</svg>
