<svg width="295" height="114" viewBox="0 0 295 114" fill="none" xmlns="http://www.w3.org/2000/svg">
<path d="M236.355 108.341C237.007 109.082 237.807 109.679 238.704 110.096C239.6 110.513 240.574 110.741 241.563 110.764C242.838 111.04 243.983 111.732 244.817 112.73C242.075 114.777 238.97 113.804 236.393 113.517C228.536 112.644 220.777 110.978 212.872 110.269C208.184 109.85 203.565 108.623 198.877 108.277C194.424 107.949 190.012 107.413 185.585 106.91C177.959 106.042 170.312 105.369 162.672 104.624C162.1 104.568 161.519 104.584 160.943 104.582C151.502 104.549 142.137 103.261 132.72 102.902C127.119 102.688 121.504 102.859 115.895 102.858C107.467 102.857 99.0278 102.587 90.6141 102.931C81.401 103.308 72.174 103.05 62.9856 103.542C54.7288 103.984 46.4814 103.717 38.241 104.051C32.4402 104.404 26.6186 104.188 20.8604 103.406C20.161 103.408 19.4698 103.256 18.837 102.959C18.2042 102.663 17.6455 102.23 17.2016 101.692C19.5464 98.6058 23.3173 100.701 25.941 99.0416C22.7543 98.2012 20.4431 95.5638 17.2314 94.1353C20.035 92.1608 23.3762 92.2949 26.7355 90.219C24.5157 90.219 23.0513 90.1286 21.6037 90.2457C20.2878 90.3521 19.8713 89.4471 19.7539 88.581C19.631 87.6747 20.4642 87.3558 21.3255 87.3577C22.8785 87.361 24.4316 87.3586 26.2796 87.3586C23.8328 85.5637 19.0597 86.9932 20.2297 81.6891C20.6039 81.4592 21.5822 81.5275 22.2478 80.4012C20.5338 80.8083 19.0763 81.2679 17.5833 81.4764C16.1407 81.6779 14.5325 81.8007 14.5905 79.3984C13.9997 78.9437 12.8241 79.816 12.0425 78.5771C13.3485 77.919 14.7788 77.5411 16.2408 77.4677C15.38 75.6922 13.886 75.9233 12.2149 75.7674C13.7096 73.5059 11.6896 71.4052 11.9707 69.2179C9.07418 67.7653 8.51596 65.1135 8.98228 61.9928C4.95541 59.9079 10.3849 56.5497 8.04868 54.2548C6.57125 53.7424 5.58545 55.9363 3.95236 54.7296L7.00166 52.0273C5.64334 51.6169 4.34182 51.7857 3.50171 50.5994C3.37231 50.0292 4.27031 49.7677 4.41647 49.1118C3.60911 48.6032 3.00912 49.4179 2.3177 49.5496C1.41653 49.7212 0.551583 49.8102 0.151854 49.0627C-0.33456 48.1532 0.437377 47.6774 1.19919 47.0961C5.54654 43.7781 10.7666 42.3334 15.7002 40.3119C23.5105 37.1118 31.3893 34.0725 39.2857 31.0875C45.6073 28.6978 51.9935 26.4764 58.3598 24.2048C66.9141 21.1529 75.4275 17.9775 84.0469 15.1191C98.1121 10.455 112.146 5.66624 126.529 2.02647C129.985 1.15183 133.544 0.66524 137.07 0.0865544C137.97 -0.0609505 139.03 -0.165334 139.591 1.05579C139.553 2.35516 137.844 2.64718 137.614 4.00117C144.202 2.71078 150.322 -1.52373 157.515 1.30201C154.486 2.1938 150.621 0.927953 148.499 4.52002C149.66 4.63163 150.669 4.72863 152.015 4.85818C150.642 6.62903 148.544 6.71307 146.951 8.2662C148.743 8.14373 150.323 7.74373 151.555 8.94801C150.749 11.3328 148.62 12.5363 146.421 14.3235C150.028 14.5379 152.858 11.4632 156.129 13.1967C156.087 14.5021 154.648 14.7519 154.424 16.0048C157.399 16.5188 160.237 15.5448 163.106 15.3506C168.563 14.8561 174.064 15.3307 179.353 16.7523C182.071 17.4171 184.608 18.6701 186.784 20.4219C188.541 21.9237 191.486 20.476 193.694 19.9956C198.258 19.1458 202.884 18.6784 207.526 18.5985C214.206 18.2786 220.912 17.8551 227.605 17.9253C232.963 17.9817 238.354 17.5472 243.686 18.4477C244.775 18.6316 245.842 18.9403 246.987 19.2071C246.255 22.1613 243.227 20.3862 241.625 21.7775C244.816 23.2672 247.681 25.0928 251.048 23.5807C254.386 22.0819 257.831 23.6192 261.164 23.009C264.783 22.2836 268.479 22.0057 272.167 22.1814C277.612 22.561 283.145 21.3178 288.53 22.9784C289.374 23.1881 290.124 23.6725 290.661 24.3548C290.07 26.0413 288.64 25.8594 287.239 25.9364C286.316 25.9871 285.1 25.3098 284.832 27.2912C284.585 29.1228 285.613 29.5713 286.718 29.8478C287.159 29.9193 287.58 30.0822 287.953 30.3258C288.327 30.5695 288.645 30.8885 288.887 31.2622C287.194 33.1747 284.449 31.3452 282.743 33.0726C284.275 34.0796 282.842 34.3897 282.102 34.8588C284.275 35.9117 286.987 35.1479 289.002 36.9108C287.363 38.1981 285.531 37.8665 283.77 38.071C284.924 39.9023 287.475 38.3629 288.564 40.3033C288.599 42.1629 286.398 43.2556 286.615 45.2558C288.279 46.0613 288.561 43.6063 289.988 43.808C289.291 46.3733 288.993 46.5893 280.375 50.7917C282.357 52.0915 282.357 52.0915 290.933 50.9584C290.048 52.5133 288.731 53.7811 287.14 54.6099C287.885 58.4138 287.846 58.3271 291.63 56.613C292.531 56.2045 293.992 54.8398 295 57.1047C290.145 61.9364 283.75 63.4571 276.888 65.2201C280.228 66.2155 283.594 64.9355 286.022 67.4562C285.479 68.1887 284.531 68.2828 283.734 68.6529C285.177 70.0968 287.383 67.8478 288.675 69.9082C287.579 71.1126 285.481 70.6957 284.092 72.1047C286.182 73.0254 288.623 71.486 290.494 73.5454C288.353 74.9716 285.849 75.7632 283.273 75.8279C274.2 76.4209 265.24 77.7678 256.263 79.154C252.112 79.7951 247.997 80.5797 243.637 81.1006C244.828 82.4226 245.811 83.5136 246.786 84.5963C245.042 86.6162 242.955 86.0141 240.927 85.4776C237.152 84.2792 233.237 83.5711 229.28 83.3708C227.543 83.4376 225.824 83.7432 224.172 84.2788C230.945 87.0379 238.603 86.7141 245.411 90.0061C244.133 92.0871 242.376 91.4031 240.805 91.1399C235.433 90.2401 230.177 88.6148 224.637 88.6791C231.28 90.3778 238.22 90.8542 244.689 93.4189C242.033 97.4165 241.339 97.8107 237.534 96.4197C235.743 95.9968 233.885 95.9332 232.069 96.2327C235.258 96.9609 238.454 97.6591 241.629 98.4434C242.236 98.6885 242.806 99.0167 243.322 99.4186C242.161 101.035 240.882 100.966 239.044 100.653C230.378 99.1814 221.766 97.3255 212.849 97.5925C208.54 97.7214 204.199 96.8249 199.842 97.1292C199.521 97.1925 199.207 97.2852 198.903 97.4059C213.724 99.8192 228.626 100.511 243.204 105.178C240.678 106.142 239.966 110.093 236.324 108.372C230.571 106.796 224.682 105.762 218.735 105.283C221.384 106.477 224.234 107.17 227.139 107.325C230.215 107.624 233.153 109.314 236.355 108.341ZM238.587 24.6733C219.581 25.8346 200.978 29.9175 181.464 32.7511C184.384 34.2199 231.276 27.5445 238.587 24.6733ZM152.21 22.0618C155.86 21.2378 158.981 22.4565 162.087 22.3759C165.343 22.2913 168.588 20.9845 171.917 21.5769C175.33 22.153 178.829 21.9552 182.154 20.9984C177.921 17.8888 156.217 18.4533 152.21 22.0618ZM228.122 21.2105C223.351 20.219 195.202 22.2057 191.218 23.8506C197.807 24.0124 203.76 22.3302 209.817 22.4808C215.958 22.6335 222.005 21.5412 228.122 21.2105ZM255.046 73.0374C261.335 72.0944 267.623 71.1516 273.912 70.2089L273.784 69.4521C267.331 69.0077 260.873 70.2433 255.046 73.0374ZM14.0054 59.3742C19.2552 56.5712 25.3147 55.8105 30.4763 52.9133C29.8612 51.3277 28.855 51.063 27.8205 51.9836C25.5794 53.978 22.7277 54.6378 20.0778 55.7324C17.7817 56.4269 15.6951 57.6784 14.0054 59.3742ZM134.685 12.9484C138.689 13.5529 144.363 11.1848 146.278 8.05007C142.379 9.79635 138.028 10.0382 134.685 12.9484ZM128.664 18.7945L128.393 17.991C125.146 19.114 121.898 20.2369 118.65 21.3598C118.718 21.562 118.786 21.7642 118.854 21.9664C122.124 20.9092 125.394 19.8519 128.664 18.7945ZM53.5772 42.4104C56.3684 42.0151 59.0112 40.9139 61.2528 39.2122C58.4679 39.6304 55.8307 40.7292 53.5772 42.4104Z" fill="#FAE465"/>
</svg>
