<svg width="43" height="42" viewBox="0 0 43 42" fill="none" xmlns="http://www.w3.org/2000/svg">
<path fill-rule="evenodd" clip-rule="evenodd" d="M19.3971 0.0488488C15.3436 0.440683 11.3258 2.08745 8.17524 4.6483C7.24854 5.40158 5.78127 6.87923 5.04217 7.80375C3.17335 10.1412 1.64192 13.303 1.00678 16.1349C0.607917 17.9137 0.517578 18.7784 0.517578 20.819C0.517578 22.8596 0.607917 23.7243 1.00678 25.5031C1.65578 28.3967 3.22716 31.6037 5.15811 33.9752C5.91205 34.9011 7.39097 36.3671 8.31629 37.1055C10.6558 38.9727 13.8203 40.5029 16.6547 41.1374C18.435 41.536 19.3005 41.6262 21.3428 41.6262C23.3851 41.6262 24.2506 41.536 26.031 41.1374C28.162 40.6603 30.9484 39.4706 32.7795 38.2561C35.9552 36.1496 38.3942 33.378 40.0595 29.9835C41.0796 27.9042 41.659 26.042 42.0239 23.6702C42.2259 22.3578 42.2259 19.2802 42.0239 17.9678C41.659 15.596 41.0796 13.7338 40.0595 11.6545C38.971 9.4356 37.7576 7.74754 36.0059 6.01508C34.286 4.31414 32.7106 3.19639 30.5153 2.11962C28.4589 1.11096 26.5552 0.516117 24.278 0.170635C23.254 0.0152862 20.4641 -0.0543642 19.3971 0.0488488ZM23.9519 2.05063C28.0928 2.65157 31.8356 4.51478 34.7484 7.42503C37.6702 10.3442 39.4807 13.9792 40.1417 18.2529C40.2385 18.8786 40.2803 19.653 40.2803 20.819C40.2803 23.9004 39.6747 26.5061 38.3264 29.226C35.5284 34.8701 30.3322 38.6102 23.9111 39.6016C22.6797 39.7918 20.0059 39.7918 18.7745 39.6016C14.4971 38.9412 10.859 37.1323 7.93725 34.213C5.01543 31.2938 3.20491 27.6588 2.54392 23.3851C2.35362 22.1547 2.35362 19.4833 2.54392 18.2529C2.88 16.0802 3.44999 14.2463 4.35925 12.412C7.10716 6.86888 12.2665 3.09554 18.4866 2.07987C20.0592 1.8231 22.3016 1.81104 23.9519 2.05063ZM14.5756 11.523C13.8683 11.7514 13.4688 11.9899 12.9869 12.4715C12.5046 12.9534 12.2243 13.4333 12.0164 14.1335C11.9006 14.5236 11.885 15.315 11.885 20.819C11.885 27.6037 11.8728 27.4045 12.3435 28.3331C12.5946 28.8285 13.3264 29.5597 13.8222 29.8106C14.7516 30.2808 14.5523 30.2686 21.3428 30.2686C28.1334 30.2686 27.934 30.2808 28.8634 29.8106C29.3592 29.5597 30.0911 28.8285 30.3422 28.3331C30.8128 27.4045 30.8007 27.6037 30.8007 20.819C30.8007 14.0343 30.8128 14.2335 30.3422 13.3049C30.0911 12.8095 29.3592 12.0783 28.8634 11.8274C27.9327 11.3566 28.1393 11.369 21.3076 11.3738C15.515 11.3777 14.989 11.3894 14.5756 11.523ZM27.947 15.6054V16.9903H26.5609H25.1749V15.6054V14.2205H26.5609H27.947V15.6054ZM22.5261 17.235C24.1169 17.7818 25.0933 19.145 25.0933 20.819C25.0933 22.4956 24.1172 23.856 22.5206 24.4049C21.8796 24.6252 20.806 24.6252 20.1651 24.4049C18.5684 23.856 17.5923 22.4956 17.5923 20.819C17.5923 19.1735 18.5246 17.8396 20.0782 17.2624C20.7435 17.0151 21.8504 17.0027 22.5261 17.235ZM15.6847 20.7986C15.6826 21.9425 15.8153 22.5214 16.3056 23.5073C16.9828 24.8693 18.4144 26.0103 19.9568 26.4173C20.6543 26.6013 22.013 26.6001 22.7289 26.4147C24.2618 26.0178 25.7021 24.8709 26.3801 23.5073C26.8815 22.4989 27.0087 21.9394 26.9956 20.7986L26.9847 19.8415H27.955H28.9254L28.9236 23.3647C28.9219 26.7349 28.9145 26.9039 28.7555 27.2545C28.5319 27.7472 28.3105 27.9725 27.8247 28.2014L27.417 28.3934H21.3428H15.2686L14.8609 28.2014C14.3752 27.9725 14.1537 27.7472 13.9302 27.2545C13.7711 26.9039 13.7638 26.7349 13.762 23.3647L13.7603 19.8415H14.7233H15.6865L15.6847 20.7986Z" fill="#3F3F3F"/>
</svg>
