<svg width="201" height="10" viewBox="0 0 201 10" fill="none" xmlns="http://www.w3.org/2000/svg">
<path d="M200.994 4.69192C201.068 4.31064 200.429 4.54822 200.12 4.46492C199.958 4.20145 199.796 3.93806 199.634 3.67476C199.818 1.21591 199.818 1.21591 198.34 1.94375C198.192 1.9143 198.045 1.88483 197.897 1.85534C197.785 1.79067 197.66 1.75031 197.532 1.73668C197.403 1.72305 197.274 1.73644 197.151 1.77604C197.028 1.81564 196.913 1.88064 196.815 1.96711C196.717 2.05359 196.636 2.15976 196.579 2.27923C195.468 2.30466 194.921 0.35371 193.534 1.34657C192.861 1.76715 192.384 1.36642 191.834 0.996649C190.94 0.396366 190.763 0.987367 190.797 1.78814C190.686 1.78183 190.575 1.79728 190.47 1.83368C189.565 0.897207 188.677 0.612329 187.83 1.90594C187.915 0.219344 187.096 0.288304 185.999 0.896114C185.878 0.897614 185.761 0.941893 185.667 1.02162C184.774 0.908245 183.928 -0.476881 182.978 0.912211C182.912 0.896663 182.844 0.895502 182.778 0.90879C182.712 0.922077 182.649 0.949521 182.594 0.989376C182.424 0.811677 182.217 0.676066 181.989 0.592668C181.762 0.509271 181.518 0.480243 181.278 0.507771C180.276 -0.329006 179.41 -0.0640364 178.627 0.861168C178.063 0.763476 177.364 0.850132 176.96 0.533432C175.774 -0.396861 175.635 0.631334 175.285 1.34411C174.504 -0.464891 173.747 0.793366 172.984 1.36247C172.64 0.36348 172.527 0.329818 171.784 1.00884C171.707 1.11281 171.656 1.234 171.634 1.36247C171.135 1.72498 170.698 1.93354 170.731 0.973248C170.138 0.0208865 169.11 0.0153396 168.164 0.959322L168.131 0.915533C167.41 1.01328 166.551 0.516241 166.024 1.44289C164.52 1.69377 163.201 -0.0116124 161.625 0.995588C161.086 0.549089 160.55 0.0940227 159.817 0.601052C159.27 0.0964486 158.716 -0.307987 158.092 0.491653C157.935 0.512853 157.778 0.534067 157.622 0.555302C157.356 0.519757 157.09 0.484321 156.824 0.448994C155.549 -0.111727 154.317 -0.3425 153.282 0.942095C152.825 1.02431 152.418 -0.077481 151.923 0.879116C150.586 -0.100429 149.625 1.21748 148.491 1.48224C148.037 1.32647 147.779 0.686826 147.171 0.906509C146.303 -0.135612 146.017 0.465602 145.852 1.40734C145.239 1.39719 145.27 0.363481 144.547 0.527459C143.762 -0.363894 143.427 0.481027 142.997 0.959122C142.808 0.749143 142.446 0.452508 142.341 0.681318C142.195 1.00023 142.341 1.46238 142.363 1.86332C141.805 1.66728 141.304 1.15115 140.644 1.5397C139.538 0.689877 139.25 1.68232 138.838 2.39706C138.409 2.36988 137.981 2.34277 137.552 2.31573C137.438 1.70636 138.057 0.856329 137.099 0.530811C136.258 0.245005 136.932 1.50794 136.277 1.4838C135.83 1.41463 135.439 0.69215 134.927 1.3583C133.939 0.771491 133.799 1.6098 133.538 2.24393C131.702 1.58149 129.864 0.957313 127.927 1.85779C127.215 1.7959 126.466 0.22953 125.795 1.91258C125.764 2.02683 125.741 2.14345 125.726 2.26138C125.001 2.14626 124.255 1.23562 123.562 2.32367C122.722 1.82355 122.111 2.61654 121.381 2.73812C121.293 2.1646 120.843 2.34889 120.508 2.29162C119.809 0.46028 118.711 2.31442 117.85 1.98307L117.011 1.92937C116.223 2.27196 115.522 1.03956 114.711 1.79257C114.653 1.77473 114.592 1.7745 114.534 1.7919C114.476 1.80931 114.425 1.84361 114.385 1.89069C113.51 1.9674 112.616 0.570297 111.757 1.9256C110.854 1.47872 110.514 2.30311 110.01 2.75598L110.01 2.76414C109.03 1.67632 107.714 1.44643 104.753 1.8454C103.26 0.597271 102.146 2.33254 100.818 2.38157C100.519 2.13791 100.153 1.99689 99.7724 1.97808C99.3917 1.95927 99.0149 2.0636 98.6941 2.2766C98.6193 1.73486 98.6776 1.11008 97.8829 1.07294C97.2063 1.04112 97.3297 1.48047 97.3944 1.89906C97.2287 2.38354 96.8419 2.31789 96.4728 2.29648C95.8112 1.53658 95.3611 1.667 95.1122 2.64299C94.7873 2.69452 94.6721 2.09356 94.2794 2.35611C93.9699 2.10668 93.6083 1.93577 93.2235 1.85705C92.8388 1.77834 92.4416 1.79401 92.0638 1.90282C91.12 1.67232 90.3007 2.16075 89.4365 2.38956C88.0439 1.51585 83.7983 1.74992 82.4539 2.77429C82.3228 1.87057 81.8163 1.53309 81.1551 2.16762C80.498 2.79844 79.7193 2.66582 78.9945 2.87003C78.294 2.2618 77.8153 3.00619 77.2425 3.17752L77.2183 3.21374C76.2636 2.49518 75.2062 2.64776 74.1458 2.82499C73.1842 2.31554 73.0147 4.29031 71.9839 3.56366C71.406 2.35201 70.5792 2.86676 69.7753 3.22214C68.3345 2.31862 66.8199 2.81766 65.3233 2.97085C65.3388 2.90044 65.344 2.82802 65.3386 2.75602C65.3178 2.70297 65.282 2.65761 65.236 2.62584C64.9592 2.86659 64.6348 3.04176 64.2857 3.13909C63.9366 3.23641 63.5712 3.25353 63.215 3.18924C62.0085 2.47801 61.0879 2.73946 60.4763 4.05185L60.276 4.06029C60.1342 1.85824 58.9746 2.79029 57.9663 3.25663C57.5361 3.22151 57.1059 3.18629 56.6756 3.15099C55.8877 2.27269 55.2128 3.22371 54.4837 3.29624C54.3472 3.24752 54.2055 3.21647 54.0616 3.20379C52.834 2.19861 51.6426 3.08732 50.4379 3.27807C49.7447 2.33896 49.0579 2.75448 48.3714 3.28843C46.9036 2.77501 45.4344 2.30848 43.93 3.16094C43.6552 3.17311 43.3803 3.18535 43.1054 3.19765C42.9606 3.21179 42.8157 3.22585 42.671 3.23984C42.4397 3.17977 42.1971 3.18473 41.9682 3.2542C41.7394 3.32367 41.5326 3.45513 41.3693 3.635C40.9406 3.48294 40.6134 2.96487 40.0643 3.24778C39.7471 3.25707 39.4299 3.26628 39.1127 3.27543C38.5561 3.18808 37.9875 3.30505 37.5055 3.60605C37.4749 3.67035 37.4245 3.72221 37.3621 3.75338C37.2998 3.78455 37.2292 3.79322 37.1615 3.77803C37.4183 4.79802 37.2845 5.3138 36.7839 5.35636C37.2842 5.31374 37.4177 4.79765 37.1597 3.77715C37.2275 3.79294 37.2994 3.78441 37.3621 3.75338C37.4245 3.72221 37.4749 3.67035 37.5055 3.60605C36.2241 2.27354 35.0578 3.15917 33.8791 3.80742C33.1872 2.32899 32.3428 4.53723 31.6241 3.70752C30.8995 1.90486 29.691 3.11915 28.6646 3.19873C28.5215 3.22989 28.3785 3.26113 28.2355 3.29245C27.1026 4.18272 26.2444 2.83319 25.2131 2.89529C24.4986 2.96621 23.784 3.03729 23.0695 3.10852C22.1698 2.17607 21.6826 2.85036 21.2192 3.61756C21.1004 3.65896 20.9728 3.66523 20.8508 3.63567C21.0688 2.1953 20.1688 2.67469 19.4849 2.78321C18.9044 2.51799 18.68 3.26965 18.1921 3.2681C17.5702 3.4768 17.7808 1.68322 16.8377 2.66493C15.5521 2.66209 14.2691 3.15231 12.9812 2.68618C12.8898 2.46181 12.8713 2.13429 12.4928 2.31575C11.9257 2.28547 11.3587 2.25526 10.7916 2.22512C9.8033 1.46948 8.69369 2.01585 7.64477 1.91084C7.57877 1.88287 7.50735 1.87129 7.43625 1.87701C7.36514 1.88274 7.29634 1.90561 7.2353 1.9438C6.51225 2.02091 5.82631 0.852377 5.07506 1.87484L5.06578 1.87989C4.15748 1.84477 3.21818 1.63767 2.44976 2.38278C1.62177 2.45571 2.09246 3.36474 1.66221 3.69382C1.49259 4.07752 1.71127 4.69571 1.19336 4.84999C-1.1311 5.54203 0.562185 6.73109 1.10042 7.23301C2.15368 8.21499 3.09173 9.38972 5.04901 8.98043C6.07585 8.76581 7.35547 8.32862 8.5459 8.68642C9.99655 8.2274 11.5538 8.28357 12.9701 8.84601C15.3589 9.68966 17.9536 9.66932 20.3299 8.78832C20.6535 9.3183 21.2268 9.03937 21.6561 9.2268C22.5425 10.1047 22.6479 9.10967 22.9719 8.6389L22.9662 8.58784C23.8604 9.61226 24.8281 10.168 26.0496 9.10637C27.503 10.2763 28.9615 9.03451 30.4174 9.11782C32.8532 10.0839 35.374 9.4452 37.856 9.53958C38.4364 9.86382 39.015 10.3176 39.6092 9.56367C39.7773 9.38401 39.983 9.2466 40.2104 9.16199C40.4378 9.07739 40.6809 9.04785 40.9211 9.07563C41.0269 9.55016 41.4167 9.52671 41.7586 9.58729C42.5249 10.1237 43.2003 10.2966 43.5361 9.11101L44.8445 9.0341C45.1303 9.21354 45.416 9.39287 45.7016 9.57208C46.5592 10.6124 46.9239 9.31703 47.5286 9.15897L47.4859 9.13112C47.9237 9.21973 48.2447 9.76499 48.7767 9.48452C49.3287 9.73535 49.1567 7.91944 50.0778 9.0363C50.8597 9.98423 51.8283 9.51831 52.7285 9.12491C53.6137 9.69533 54.3583 9.42216 55.0305 8.71381L56.2303 8.98368C56.993 9.9524 57.8602 10.091 59.034 9.70595C59.6442 9.41147 60.3049 9.24544 60.9777 9.21749C62.3086 9.29089 63.62 9.85605 64.9726 9.49155C66.0067 9.63097 66.6384 8.02509 67.6715 8.64682C70.1582 10.1429 72.5726 9.65732 75.022 8.65276C75.0452 8.91421 75.0683 9.1756 75.0914 9.43692C75.9744 8.61984 77.3288 9.82506 78.1345 8.67684C78.6551 8.54227 79.1757 8.40775 79.6964 8.27328C80.9542 9.41995 82.2171 9.69641 83.4901 8.29737C83.8797 8.11148 84.2693 7.92567 84.6589 7.73995C85.3681 9.48866 86.1477 8.87862 86.9409 7.81288C87.016 7.82988 87.0921 7.84189 87.1687 7.84888C88.0764 8.77318 89.2089 8.68701 90.3404 8.60546C91.0649 8.44941 91.7894 8.29345 92.5139 8.13758C93.1755 8.2852 93.8448 8.4828 94.3813 7.82614C96.0799 7.30901 97.9025 7.45125 99.507 8.22619C100.69 9.2018 100.644 7.55693 101.269 7.34123C102.164 7.28176 102.87 8.48522 103.865 7.7561C105.474 7.89356 107.082 8.03102 108.691 8.1685C109.127 8.83486 109.565 8.72195 110.004 8.17155C110.96 7.5284 112.104 8.35037 113.066 7.75184C113.789 7.94501 114.503 8.73583 115.246 7.7914C115.537 7.74658 115.829 7.70172 116.121 7.65683C116.943 8.06173 117.848 9.07506 118.381 7.3308C118.622 7.45505 118.864 7.57927 119.106 7.70345C119.594 7.85747 120.083 8.01137 120.571 8.16515C121.34 8.34599 121.993 7.04262 123.04 8.2142C123.381 8.59615 125.753 9.09322 126.626 7.31955C126.91 7.33389 127.195 7.34818 127.479 7.36241C128.357 7.63073 129.236 7.89921 130.114 8.16783C131.7 7.84515 133.481 8.77652 134.898 7.36906C135.174 7.71583 135.628 7.56331 135.849 7.64646C136.903 8.04316 137.686 6.2107 138.102 6.95934C138.933 8.45603 139.708 7.49861 140.543 7.33257C141.595 7.88205 142.625 6.97631 143.673 7.28419C145.574 7.95431 147.415 6.00166 149.327 7.14296C150.211 7.33918 151.124 7.35561 152.015 7.19135C153.622 7.83609 155.095 5.73639 156.73 6.94273L156.772 6.72172C157.516 7.10754 158.343 7.28718 159.173 7.2431C160.004 7.19902 160.809 6.93272 161.51 6.47021C162.029 7.2535 162.566 7.89489 163.328 6.71001C163.485 6.71114 163.641 6.71217 163.797 6.7131C163.941 6.75488 164.084 6.79671 164.227 6.8386C164.903 7.58171 165.678 6.75199 166.386 6.98337C167.204 7.77817 167.405 6.80677 167.82 6.44612C167.876 6.4665 167.936 6.4725 167.996 6.46361C168.055 6.45472 168.111 6.43121 168.159 6.39506L168.119 6.44519C168.706 7.40071 169.67 6.29825 170.326 6.87863C171.568 7.29771 172.831 7.91127 173.87 6.46687C175.845 7.3806 177.904 6.40786 179.905 6.75577C180.517 6.92392 181.13 7.09212 181.742 7.26038C182.547 7.03646 183.266 6.28103 184.208 7.14871C184.554 7.46701 185.1 6.97633 185.279 6.42752C185.831 6.27572 186.42 6.7405 186.955 6.31992C187.807 7.51853 188.897 7.27955 190.016 6.86207C190.806 7.4409 191.618 7.88892 192.598 7.32133C193.327 8.37449 194.097 7.77777 194.862 7.38189C194.977 7.32592 195.104 7.30354 195.231 7.31716C195.793 8.52789 196.777 7.28291 197.471 7.73001C198.094 9.25238 199.077 7.80672 199.857 8.04078C199.767 7.79434 199.677 7.54796 199.588 7.30164C199.592 6.79776 199.796 6.59 200.316 6.46157C201.202 6.24273 200.877 5.29501 200.994 4.69192ZM117.356 3.72954L116.546 4.11082C116.816 3.98373 117.085 3.85705 117.356 3.72954ZM143.234 3.21039L140.647 2.78006C141.509 2.9235 142.372 3.06709 143.234 3.21039Z" fill="#FAE465"/>
</svg>
