<svg width="43" height="42" viewBox="0 0 43 42" fill="none" xmlns="http://www.w3.org/2000/svg">
<path fill-rule="evenodd" clip-rule="evenodd" d="M19.3078 0.0488488C15.1716 0.440683 11.0717 2.08745 7.85691 4.6483C6.91129 5.40158 5.41408 6.87923 4.6599 7.80375C2.75294 10.1412 1.19025 13.303 0.542151 16.1349C0.135151 17.9137 0.0429688 18.7784 0.0429688 20.819C0.0429688 22.8596 0.135151 23.7243 0.542151 25.5031C1.2044 28.3967 2.80785 31.6037 4.77821 33.9752C5.54753 34.9011 7.05664 36.3671 8.00084 37.1055C10.3881 38.9727 13.6172 40.5029 16.5094 41.1374C18.3261 41.536 19.2092 41.6262 21.2932 41.6262C23.3772 41.6262 24.2604 41.536 26.077 41.1374C28.2516 40.6603 31.0948 39.4706 32.9633 38.2561C36.2038 36.1496 38.6926 33.378 40.3919 29.9835C41.4328 27.9042 42.024 26.042 42.3964 23.6702C42.6025 22.3578 42.6025 19.2802 42.3964 17.9678C42.024 15.596 41.4328 13.7338 40.3919 11.6545C39.2812 9.4356 38.043 7.74754 36.2555 6.01508C34.5006 4.31414 32.893 3.19639 30.6529 2.11962C28.5546 1.11096 26.612 0.516117 24.2883 0.170635C23.2434 0.0152862 20.3966 -0.0543642 19.3078 0.0488488ZM23.9555 2.05063C28.1809 2.65157 32.0002 4.51478 34.9724 7.42503C37.9538 10.3442 39.8013 13.9792 40.4758 18.2529C40.5745 18.8786 40.6172 19.653 40.6172 20.819C40.6172 23.9004 39.9992 26.5061 38.6234 29.226C35.7683 34.8701 30.4661 38.6102 23.9139 39.6016C22.6574 39.7918 19.929 39.7918 18.6725 39.6016C14.3078 38.9412 10.5954 37.1323 7.61406 34.213C4.63261 31.2938 2.78514 27.6588 2.11066 23.3851C1.91648 22.1547 1.91648 19.4833 2.11066 18.2529C2.4536 16.0802 3.03523 14.2463 3.96304 12.412C6.76703 6.86888 12.0317 3.09554 18.3787 2.07987C19.9835 1.8231 22.2715 1.81104 23.9555 2.05063ZM14.6791 13.4366C14.1834 13.6655 13.9574 13.8908 13.7293 14.3835C13.4166 15.0588 13.5418 15.789 14.0712 16.3779C14.9332 17.3367 16.5488 17.1503 17.1505 16.0225C17.5835 15.211 17.416 14.2955 16.7293 13.72C16.1235 13.2123 15.3858 13.1103 14.6791 13.4366ZM13.5559 23.1814V28.395H15.4694H17.383V23.1814V17.9678H15.4694H13.5559V23.1814ZM19.3797 23.1814V28.395H21.2879H23.1961L23.2222 25.2791C23.247 22.3227 23.2573 22.1444 23.4216 21.7966C23.8653 20.8583 25.0439 20.5032 25.6392 21.1285C26.0836 21.5953 26.0753 21.5242 26.1022 25.0754L26.1273 28.395H28.0781H30.0289V25.5525C30.0289 22.4859 29.9525 21.3685 29.6845 20.5117C29.3344 19.3928 28.614 18.5482 27.7116 18.1985C27.3316 18.0513 27.0828 18.0173 26.4098 18.021C24.8733 18.0295 23.9205 18.4544 23.3157 19.4012C23.2348 19.5278 23.2157 19.4104 23.2117 18.7621L23.2068 17.9678H21.2932H19.3797V23.1814Z" fill="#3F3F3F"/>
</svg>
