<svg width="132" height="36" viewBox="0 0 132 36" fill="none" xmlns="http://www.w3.org/2000/svg">
<g clip-path="url(#clip0_130_890)">
<path d="M41.9473 19.7453L42.6756 18.1022C43.7369 18.925 45.0348 19.3629 46.3652 19.347C48.1132 19.347 48.8407 18.6997 48.8407 17.8533C48.8407 15.4144 42.2386 17.0068 42.2386 12.7754C42.2386 10.9331 43.6468 9.39049 46.7051 9.39049C48.0006 9.37031 49.2767 9.71474 50.3946 10.3863L49.7633 12.0294C48.8362 11.4655 47.7828 11.1568 46.7051 11.1332C45.0055 11.1332 44.278 11.832 44.278 12.6767C44.278 15.1156 50.8802 13.5232 50.8802 17.7048C50.8802 19.547 49.4234 21.0897 46.3652 21.0897C44.7843 21.1867 43.2206 20.7108 41.9473 19.7453Z" fill="black"/>
<path d="M52.7734 16.0122V9.59082H54.8606V15.9624C54.8606 18.3017 55.8828 19.2975 57.676 19.2975C59.4693 19.2975 60.4915 18.3017 60.4915 15.9624V9.59082H62.5301V16.0122C62.5301 19.3473 60.6849 21.1398 57.6743 21.1398C54.6186 21.1398 52.7734 19.2975 52.7734 16.0122Z" fill="black"/>
<path d="M75.2492 9.59082V20.9904H73.5497L67.4331 13.2745V20.9904H65.3945V9.59082H67.094L73.2106 17.3067V9.59082H75.2492Z" fill="black"/>
<path d="M77.3359 19.7453L78.0643 18.1022C79.1256 18.925 80.4234 19.3629 81.7538 19.347C83.5019 19.347 84.2294 18.6997 84.2294 17.8533C84.2294 15.4144 77.6273 17.0068 77.6273 12.7754C77.6273 10.9331 79.0355 9.39049 82.0938 9.39049C83.3893 9.37031 84.6654 9.71473 85.7833 10.3863L85.152 12.0294C84.2249 11.4655 83.1715 11.1568 82.0938 11.1332C80.3942 11.1332 79.6667 11.832 79.6667 12.6767C79.6667 15.1156 86.2689 13.5232 86.2689 17.7048C86.2689 19.547 84.8121 21.0897 81.7538 21.0897C80.1713 21.2027 78.6022 20.7252 77.3359 19.7453Z" fill="black"/>
<path d="M90.3477 11.3833H86.6582V9.59082H96.0758V11.3833H92.3863V20.9922H90.2992V11.3833H90.3477Z" fill="black"/>
<path d="M96.6594 15.2648C96.61 14.0431 96.9181 12.8341 97.5442 11.7934C98.1703 10.7527 99.0857 9.92785 100.173 9.42498C101.26 8.92211 102.469 8.76421 103.644 8.97158C104.819 9.17895 105.907 9.74212 106.767 10.5886C107.628 11.4352 108.222 12.5263 108.473 13.7218C108.723 14.9172 108.62 16.1623 108.175 17.2968C107.73 18.4313 106.964 19.4034 105.976 20.088C104.988 20.7726 103.823 21.1385 102.63 21.1385C101.856 21.1793 101.082 21.0572 100.356 20.7797C99.6295 20.5022 98.9662 20.0752 98.4069 19.5249C97.8475 18.9747 97.4039 18.3129 97.1034 17.5802C96.8029 16.8476 96.6518 16.0596 96.6594 15.2648ZM106.563 15.2648C106.563 14.4772 106.335 13.7072 105.908 13.0523C105.481 12.3974 104.875 11.887 104.165 11.5856C103.455 11.2841 102.675 11.2053 101.921 11.3589C101.168 11.5126 100.476 11.8919 99.9327 12.4488C99.3895 13.0058 99.0196 13.7154 98.8698 14.4879C98.7199 15.2604 98.7968 16.0612 99.0908 16.7888C99.3847 17.5165 99.8825 18.1385 100.521 18.5761C101.16 19.0137 101.911 19.2473 102.679 19.2473C103.194 19.2667 103.708 19.177 104.187 18.9838C104.667 18.7905 105.103 18.4979 105.467 18.1241C105.832 17.7504 106.117 17.3035 106.306 16.8116C106.494 16.3196 106.582 15.793 106.563 15.2648Z" fill="black"/>
<path d="M120.691 9.59082V20.9904H118.991L112.874 13.2745V20.9904H110.836V9.59082H112.535L118.652 17.3067V9.59082H120.691Z" fill="black"/>
<path d="M131.999 19.1997V20.9904H123.65V9.59082H131.758V11.3833H125.69V14.3699H131.079V16.1126H125.69V19.2486H131.999V19.1997Z" fill="black"/>
<path d="M76.7051 25.6961H79.472C79.9395 25.6605 80.4091 25.7242 80.8515 25.8831C81.2939 26.0421 81.6995 26.293 82.0431 26.62C82.3866 26.9471 82.6606 27.3433 82.848 27.7839C83.0354 28.2245 83.1321 28.7 83.1321 29.1806C83.1321 29.6613 83.0354 30.1368 82.848 30.5774C82.6606 31.018 82.3866 31.4142 82.0431 31.7413C81.6995 32.0683 81.2939 32.3192 80.8515 32.4782C80.4091 32.6371 79.9395 32.7008 79.472 32.6652H76.7051V25.6961ZM79.4235 32.0179C79.8012 32.0414 80.1796 31.9855 80.5355 31.8534C80.8913 31.7214 81.2171 31.5161 81.4927 31.2502C81.7683 30.9843 81.9879 30.6633 82.138 30.3071C82.2881 29.9509 82.3655 29.5669 82.3655 29.1789C82.3655 28.7909 82.2881 28.4069 82.138 28.0507C81.9879 27.6945 81.7683 27.3736 81.4927 27.1076C81.2171 26.8417 80.8913 26.6364 80.5355 26.5044C80.1796 26.3723 79.8012 26.3164 79.4235 26.3399H77.4335V32.0179H79.4235Z" fill="black"/>
<path d="M84.375 25.7958C84.3836 25.6666 84.4375 25.545 84.5267 25.4535C84.616 25.3619 84.7346 25.3066 84.8606 25.2979C84.9894 25.2979 85.1129 25.3503 85.2039 25.4437C85.295 25.5371 85.3461 25.6637 85.3461 25.7958C85.3461 25.9278 85.295 26.0545 85.2039 26.1478C85.1129 26.2412 84.9894 26.2937 84.8606 26.2937C84.7319 26.2934 84.6085 26.2409 84.5175 26.1476C84.4265 26.0543 84.3752 25.9277 84.375 25.7958ZM84.5207 27.4389H85.2022V32.6661H84.5207V27.4389Z" fill="black"/>
<path d="M91.8533 27.4378V32.0178C91.8533 33.8103 90.9793 34.606 89.3292 34.606C88.4699 34.6334 87.6285 34.3516 86.9507 33.8094L87.2914 33.2617C87.8505 33.7338 88.5575 33.9821 89.2814 33.9605C90.5439 33.9605 91.1752 33.363 91.1752 32.0684V31.4211C90.9486 31.7418 90.6486 32.0003 90.3015 32.174C89.9545 32.3477 89.5711 32.4311 89.1852 32.417C88.8578 32.4258 88.532 32.3673 88.227 32.245C87.922 32.1226 87.6439 31.9389 87.4093 31.7045C87.1747 31.4702 86.9882 31.1901 86.8609 30.8806C86.7336 30.5712 86.668 30.2388 86.668 29.9029C86.668 29.5671 86.7336 29.2347 86.8609 28.9253C86.9882 28.6158 87.1747 28.3357 87.4093 28.1014C87.6439 27.867 87.922 27.6833 88.227 27.5609C88.532 27.4386 88.8578 27.3801 89.1852 27.3889C89.5776 27.3676 89.9686 27.4534 90.3182 27.6376C90.6678 27.8217 90.9635 28.0976 91.1752 28.4372V27.4413L91.8533 27.4378ZM91.1718 29.9265C91.1484 29.4146 90.9336 28.9315 90.572 28.5777C90.2104 28.2238 89.7297 28.0264 89.2299 28.0264C88.7301 28.0264 88.2494 28.2238 87.8878 28.5777C87.5262 28.9315 87.3114 29.4146 87.288 29.9265C87.2791 30.186 87.3241 30.4444 87.4198 30.6847C87.5156 30.925 87.6599 31.1418 87.8435 31.3206C88.027 31.4995 88.2454 31.6363 88.4843 31.7222C88.7233 31.808 88.9772 31.8409 89.2295 31.8186C89.4801 31.8332 89.7309 31.7949 89.9666 31.7063C90.2022 31.6177 90.4176 31.4805 90.5996 31.3032C90.7816 31.126 90.9262 30.9124 91.0246 30.6756C91.123 30.4388 91.1731 30.1839 91.1718 29.9265Z" fill="black"/>
<path d="M93.5996 25.7958C93.6082 25.6666 93.6621 25.545 93.7514 25.4535C93.8406 25.3619 93.9592 25.3066 94.0852 25.2979C94.1812 25.2979 94.2751 25.3271 94.355 25.3818C94.4348 25.4365 94.4971 25.5142 94.5338 25.6052C94.5706 25.6962 94.5802 25.7963 94.5614 25.8929C94.5427 25.9895 94.4965 26.0782 94.4286 26.1478C94.3606 26.2175 94.2741 26.2649 94.1799 26.2841C94.0857 26.3033 93.9881 26.2935 93.8994 26.2558C93.8106 26.2181 93.7348 26.1543 93.6815 26.0724C93.6281 25.9905 93.5996 25.8942 93.5996 25.7958ZM93.7453 27.4389H94.4268V32.6661H93.7453V27.4389Z" fill="black"/>
<path d="M99.0338 32.3213C98.7282 32.5617 98.3504 32.6853 97.9655 32.6707C97.766 32.6964 97.5635 32.6759 97.3728 32.6107C97.1821 32.5455 97.0081 32.4372 96.8637 32.2938C96.7192 32.1505 96.608 31.9757 96.5381 31.7824C96.4683 31.5891 96.4417 31.3822 96.4602 31.177V28.041H95.541V27.4435H96.4636V26.2939H97.1451V27.4391H98.693V28.0366H97.1392V31.1228C97.1212 31.247 97.131 31.3737 97.1678 31.4935C97.2047 31.6132 97.2675 31.7227 97.3517 31.8139C97.4359 31.905 97.5392 31.9753 97.6538 32.0195C97.7684 32.0637 97.8913 32.0805 98.0132 32.0689C98.2774 32.0789 98.5361 31.9905 98.7416 31.8199L99.0338 32.3213Z" fill="black"/>
<path d="M104.085 29.4286V32.6606H103.404V31.864C103.215 32.1546 102.952 32.387 102.644 32.5362C102.336 32.6853 101.995 32.7455 101.656 32.7104C100.49 32.7104 99.8105 32.1129 99.8105 31.2167C99.8105 30.42 100.296 29.723 101.752 29.723H103.354V29.4242C103.354 28.528 102.869 28.0266 101.898 28.0266C101.282 28.0255 100.684 28.2358 100.198 28.6241L99.9068 28.0763C100.503 27.6034 101.24 27.3565 101.994 27.3775C102.27 27.3336 102.553 27.3555 102.82 27.4416C103.087 27.5276 103.331 27.6756 103.533 27.8739C103.735 28.0722 103.89 28.3156 103.986 28.5852C104.082 28.8548 104.116 29.1434 104.085 29.4286ZM103.404 31.0717V30.2252H101.801C100.83 30.2252 100.49 30.6236 100.49 31.1713C100.49 31.7688 100.976 32.1671 101.753 32.1671C102.104 32.1794 102.451 32.0811 102.747 31.8852C103.042 31.6894 103.272 31.4055 103.406 31.0717H103.404Z" fill="black"/>
<path d="M105.93 25.2979H106.611V32.6652H105.93V25.2979Z" fill="black"/>
<path d="M112.533 26.3436H110.154V25.6963H115.592V26.3436H113.213V32.6653H112.484V26.3436H112.533Z" fill="black"/>
<path d="M120.495 30.2751H116.273C116.287 30.5273 116.35 30.7741 116.458 31.0011C116.566 31.2281 116.717 31.4309 116.902 31.5977C117.088 31.7644 117.303 31.8918 117.537 31.9725C117.77 32.0531 118.017 32.0854 118.263 32.0676C118.556 32.0737 118.846 32.0143 119.115 31.8936C119.383 31.773 119.622 31.5938 119.816 31.3687L120.205 31.8168C119.841 32.2064 119.374 32.4776 118.861 32.5967C118.348 32.7158 117.812 32.6775 117.32 32.4866C116.828 32.2957 116.402 31.9606 116.095 31.5231C115.787 31.0856 115.612 30.565 115.591 30.0261C115.58 29.6858 115.637 29.3468 115.756 29.0292C115.876 28.7117 116.057 28.422 116.288 28.1774C116.518 27.9328 116.795 27.7383 117.101 27.6055C117.406 27.4727 117.735 27.4043 118.067 27.4043C118.399 27.4043 118.728 27.4727 119.033 27.6055C119.339 27.7383 119.616 27.9328 119.847 28.1774C120.078 28.422 120.258 28.7117 120.378 29.0292C120.498 29.3468 120.554 29.6858 120.543 30.0261C120.499 30.1007 120.482 30.1888 120.495 30.2751ZM116.271 29.7274H119.863C119.836 29.257 119.636 28.8148 119.302 28.491C118.968 28.1672 118.526 27.9861 118.067 27.9847C117.837 27.9776 117.608 28.0171 117.394 28.101C117.179 28.1848 116.983 28.3114 116.816 28.4734C116.649 28.6353 116.516 28.8295 116.422 29.0447C116.329 29.2599 116.278 29.4919 116.273 29.7274H116.271Z" fill="black"/>
<path d="M121.368 30.0259C121.359 29.6728 121.422 29.3217 121.551 28.9943C121.68 28.6669 121.874 28.3703 122.12 28.1229C122.366 27.8755 122.658 27.6826 122.98 27.5561C123.302 27.4297 123.645 27.3724 123.989 27.3878C124.383 27.3607 124.776 27.444 125.126 27.6287C125.477 27.8133 125.772 28.0925 125.979 28.4361L125.445 28.7855C125.288 28.5401 125.071 28.3417 124.815 28.2105C124.559 28.0793 124.274 28.02 123.988 28.0386C123.468 28.0496 122.972 28.2695 122.607 28.6511C122.243 29.0327 122.039 29.5455 122.039 30.0796C122.039 30.6137 122.243 31.1266 122.607 31.5081C122.972 31.8897 123.468 32.1096 123.988 32.1206C124.272 32.1283 124.554 32.0642 124.808 31.9339C125.062 31.8037 125.281 31.6113 125.445 31.3737L125.979 31.7231C125.772 32.0667 125.477 32.3459 125.126 32.5305C124.776 32.7152 124.383 32.7985 123.989 32.7714C123.64 32.7715 123.295 32.7001 122.973 32.5614C122.651 32.4227 122.36 32.2196 122.116 31.9639C121.871 31.7081 121.68 31.405 121.551 31.0722C121.423 30.7394 121.36 30.3837 121.368 30.0259Z" fill="black"/>
<path d="M131.903 29.6288V32.6652H131.221V29.6786C131.251 29.4643 131.233 29.246 131.17 29.0397C131.106 28.8334 130.998 28.6444 130.853 28.4867C130.709 28.3289 130.532 28.2065 130.335 28.1284C130.138 28.0503 129.926 28.0186 129.716 28.0355C129.472 28.0201 129.228 28.059 129 28.1494C128.772 28.2398 128.566 28.3796 128.396 28.5593C128.226 28.739 128.095 28.9543 128.014 29.1905C127.932 29.4266 127.902 29.6781 127.924 29.9276V32.6652H127.242V25.2979H127.924V28.3342C128.133 28.0224 128.417 27.7714 128.749 27.6056C129.081 27.4399 129.449 27.3649 129.817 27.3882C130.106 27.3642 130.396 27.4066 130.667 27.5122C130.937 27.6178 131.181 27.7841 131.381 27.9988C131.581 28.2135 131.731 28.4713 131.822 28.7533C131.912 29.0353 131.94 29.3344 131.903 29.6288Z" fill="black"/>
<path d="M26.0209 0L28.4479 4.20082L0 36L26.0209 0Z" fill="black"/>
<path d="M30.7301 7.62598L32.8658 11.5088L0 36.0009L30.7301 7.62598Z" fill="black"/>
<path d="M36.0698 17.1333L37.1423 19.0245L0 35.9998L35.0024 15.291L36.0698 17.1333Z" fill="black"/>
<path d="M40.4391 24.899L39.3223 22.9082L38.6408 23.1074L38.4465 23.207L0 36.0007L39.5651 27.3885L39.7593 27.3388L40.4408 27.1894L41.6062 26.9404L40.4391 24.899Z" fill="black"/>
<path d="M45.294 33.56L44.0315 31.2705L42.2835 31.4199L41.1181 31.5693L40.4366 31.619L40.1938 31.6688L0 35.9998H46.7013L45.294 33.56Z" fill="black"/>
<path d="M27.5745 4.18098L19.1766 13.7392C18.7395 13.3408 18.3025 12.9923 17.9141 12.6438L25.9218 1.34375L27.5745 4.18098Z" fill="black"/>
<path d="M31.9453 11.8607L23.498 18.1327C23.1095 17.6846 22.7696 17.2365 22.4297 16.8381L30.5865 9.32227L31.9453 11.8607Z" fill="black"/>
<path d="M36.118 19.0756L27.186 23.1577C26.8452 22.6597 26.5547 22.1618 26.2148 21.7137L34.7593 16.6865L36.118 19.0756Z" fill="black"/>
<path d="M40.4882 26.6498L39.6627 26.849L39.4685 26.8987L30.4385 28.8397C30.1471 28.2422 29.8558 27.6945 29.5645 27.1468L38.9829 24.0117L40.4882 26.6498Z" fill="black"/>
<path d="M45.4377 35.2492H33.3997C33.1083 34.5504 32.8656 33.8516 32.5742 33.2087L41.1672 32.2626H41.8487V32.2128L43.6453 32.0137L45.4377 35.2492Z" fill="black"/>
</g>
<defs>
<clipPath id="clip0_130_890">
<rect width="132" height="36" fill="white"/>
</clipPath>
</defs>
</svg>
