<svg width="125" height="26" viewBox="0 0 125 26" fill="none" xmlns="http://www.w3.org/2000/svg">
<g clip-path="url(#clip0_130_1019)">
<path d="M125.001 11.7626V9.62192H122.271V6.29397L122.179 6.32153L119.615 7.08548L119.564 7.10044V9.62204H115.517V8.21729C115.517 7.56319 115.667 7.06264 115.963 6.72882C116.257 6.39901 116.678 6.23133 117.214 6.23133C117.6 6.23133 117.999 6.31976 118.4 6.49415L118.501 6.53795V4.28352L118.454 4.26657C118.079 4.13539 117.569 4.06934 116.938 4.06934C116.141 4.06934 115.418 4.23807 114.787 4.57248C114.156 4.90736 113.659 5.38542 113.311 5.99324C112.964 6.60036 112.788 7.30155 112.788 8.07752V9.62192H110.888V11.7626H112.788V20.7809H115.517V11.7626H119.564V17.4936C119.564 19.8539 120.708 21.05 122.962 21.05C123.333 21.05 123.723 21.0077 124.121 20.9249C124.526 20.8399 124.802 20.755 124.965 20.6643L125.001 20.6436V18.4831L124.89 18.5546C124.742 18.6507 124.557 18.7292 124.341 18.7876C124.124 18.8471 123.943 18.8769 123.802 18.8769C123.274 18.8769 122.883 18.7383 122.641 18.4648C122.395 18.1888 122.271 17.7061 122.271 17.0309V11.7626H125.001ZM104.794 18.8773C103.803 18.8773 103.022 18.5574 102.472 17.9275C101.918 17.2943 101.638 16.3917 101.638 15.2448C101.638 14.0615 101.918 13.1354 102.472 12.4911C103.023 11.851 103.796 11.5262 104.771 11.5262C105.718 11.5262 106.471 11.8364 107.01 12.4488C107.553 13.0644 107.828 13.9831 107.828 15.1802C107.828 16.3919 107.569 17.3227 107.059 17.9454C106.552 18.5633 105.79 18.8773 104.794 18.8773V18.8773ZM104.915 9.3531C103.025 9.3531 101.525 9.89227 100.454 10.9557C99.385 12.0192 98.8428 13.4909 98.8428 15.3304C98.8428 17.0776 99.3721 18.4829 100.416 19.5067C101.46 20.5309 102.881 21.0497 104.639 21.0497C106.47 21.0497 107.941 20.503 109.011 19.4249C110.081 18.348 110.622 16.8901 110.622 15.0936C110.622 13.3191 110.114 11.9033 109.111 10.8863C108.107 9.86884 106.695 9.3531 104.915 9.3531V9.3531ZM94.4432 9.3531C93.1578 9.3531 92.0945 9.67326 91.2823 10.3045C90.4651 10.9395 90.0506 11.7724 90.0506 12.7802C90.0506 13.3041 90.1401 13.7694 90.3162 14.1641C90.4933 14.5601 90.7674 14.9087 91.1317 15.2014C91.4931 15.4916 92.051 15.7956 92.7903 16.105C93.4118 16.354 93.8753 16.5647 94.1698 16.7307C94.4575 16.8934 94.6618 17.057 94.7771 17.2163C94.8892 17.3722 94.9461 17.5855 94.9461 17.8488C94.9461 18.5985 94.3695 18.9633 93.1832 18.9633C92.7431 18.9633 92.2412 18.8738 91.6914 18.6974C91.1455 18.5237 90.6302 18.2693 90.1637 17.9431L90.0504 17.864V20.4224L90.092 20.4412C90.4781 20.6148 90.9649 20.7611 91.5387 20.8763C92.1113 20.9916 92.6317 21.0502 93.0837 21.0502C94.4785 21.0502 95.6017 20.7285 96.4213 20.0935C97.2461 19.4541 97.6641 18.6016 97.6641 17.5589C97.6641 16.8067 97.439 16.1617 96.9955 15.6415C96.555 15.1255 95.7904 14.6518 94.724 14.2331C93.8745 13.901 93.3302 13.6254 93.1057 13.4138C92.8892 13.2094 92.7793 12.9203 92.7793 12.5542C92.7793 12.2297 92.915 11.9697 93.1934 11.7592C93.4741 11.5476 93.8648 11.44 94.3548 11.44C94.8094 11.44 95.2746 11.5099 95.7372 11.647C96.1995 11.784 96.6056 11.9676 96.9445 12.1922L97.056 12.2663V9.83952L97.0132 9.82162C96.7005 9.69104 96.2881 9.5793 95.7873 9.48863C95.2887 9.39855 94.8365 9.3531 94.4432 9.3531V9.3531ZM82.9368 18.8773C81.9466 18.8773 81.1655 18.5574 80.6153 17.9275C80.0615 17.2943 79.7814 16.3919 79.7814 15.2448C79.7814 14.0615 80.0618 13.1354 80.6159 12.4911C81.1661 11.851 81.9394 11.5262 82.9149 11.5262C83.8608 11.5262 84.614 11.8364 85.1536 12.4488C85.696 13.0644 85.9711 13.9831 85.9711 15.1802C85.9711 16.3919 85.7122 17.3227 85.2019 17.9454C84.6951 18.5633 83.9334 18.8773 82.9368 18.8773V18.8773ZM83.0585 9.3531C81.1684 9.3531 79.6674 9.89227 78.5979 10.9557C77.5285 12.0192 76.9859 13.4909 76.9859 15.3304C76.9859 17.0783 77.5155 18.4829 78.5595 19.5067C79.6036 20.5309 81.0242 21.0497 82.782 21.0497C84.6135 21.0497 86.0848 20.503 87.1545 19.4249C88.2238 18.348 88.7659 16.8901 88.7659 15.0936C88.7659 13.3191 88.2573 11.9033 87.2538 10.8863C86.2498 9.86884 84.8382 9.3531 83.0585 9.3531V9.3531ZM72.8437 11.5544V9.62192H70.1481V20.7807H72.8437V15.0725C72.8437 14.1019 73.0697 13.3045 73.5156 12.7022C73.9559 12.1071 74.5426 11.8056 75.2589 11.8056C75.5017 11.8056 75.7743 11.8446 76.0694 11.9217C76.3616 11.9983 76.5732 12.0816 76.698 12.1692L76.8113 12.2491V9.60285L76.7676 9.5846C76.5166 9.48074 76.1615 9.42834 75.7121 9.42834C75.0347 9.42834 74.4286 9.64029 73.9093 10.0576C73.4536 10.4244 73.1242 10.9273 72.8723 11.5544H72.8437ZM65.3209 9.3531C64.0843 9.3531 62.9813 9.61132 62.043 10.1204C61.1029 10.6306 60.3758 11.359 59.8811 12.2852C59.3886 13.2092 59.1386 14.2884 59.1386 15.4921C59.1386 16.5464 59.381 17.514 59.8602 18.3667C60.3397 19.2208 61.0183 19.8891 61.8773 20.3525C62.7351 20.8154 63.7265 21.0501 64.8242 21.0501C66.1052 21.0501 67.1989 20.8007 68.0758 20.3088L68.1113 20.2891V17.8843L67.998 17.9648C67.6007 18.2466 67.1568 18.4715 66.6792 18.6335C66.2028 18.7954 65.7684 18.8773 65.3876 18.8773C64.3299 18.8773 63.4808 18.555 62.8644 17.9196C62.2468 17.2834 61.9336 16.39 61.9336 15.2659C61.9336 14.1347 62.2602 13.2183 62.9039 12.5422C63.5456 11.8681 64.3963 11.5262 65.432 11.5262C66.318 11.5262 67.1814 11.8183 67.9982 12.3953L68.1113 12.4752V9.94138L68.0747 9.92136C67.7674 9.7538 67.3481 9.61545 66.8277 9.51053C66.3094 9.40585 65.8025 9.3531 65.3209 9.3531V9.3531ZM57.2821 9.62204H54.5865V20.7807H57.2821V9.62204V9.62204ZM55.9619 4.86838C55.5182 4.86838 55.1313 5.01545 54.8134 5.30688C54.4942 5.59914 54.3323 5.9671 54.3323 6.40136C54.3323 6.82879 54.4922 7.19005 54.8084 7.47453C55.1226 7.75819 55.5107 7.90196 55.962 7.90196C56.4132 7.90196 56.8028 7.75819 57.1207 7.475C57.4406 7.19005 57.6029 6.82891 57.6029 6.40136C57.6029 5.98229 57.445 5.61809 57.1338 5.31866C56.823 5.01981 56.4285 4.86838 55.9619 4.86838ZM49.2363 8.79874V20.7807H51.9873V5.20997H48.1799L43.3404 16.7754L38.644 5.20997H34.6816V20.7806H37.2668V8.79756H37.3555L42.3148 20.7807H44.2657L49.1476 8.79874H49.2363V8.79874Z" fill="#3F3F3F"/>
<path d="M12.6806 12.3559H0V0.0078125H12.6806V12.3559Z" fill="#3F3F3F"/>
<path d="M26.6823 12.355H14.002V0.00683594H26.6823V12.355Z" fill="#3F3F3F"/>
<path d="M12.6802 25.9935H0V13.6455H12.6802V25.9935Z" fill="#3F3F3F"/>
<path d="M26.6823 25.9935H14.002V13.6455H26.6823V25.9935Z" fill="#3F3F3F"/>
</g>
<defs>
<clipPath id="clip0_130_1019">
<rect width="125" height="26" fill="white"/>
</clipPath>
</defs>
</svg>
