<svg width="19" height="20" viewBox="0 0 19 20" fill="none" xmlns="http://www.w3.org/2000/svg">
<path d="M2.26176 2.66659H6.38067L7.70829 5.98311L5.57553 7.40387C5.32032 7.57388 5.16703 7.86009 5.16703 8.16658C5.16935 8.25241 5.16703 8.1675 5.16703 8.1675L5.16703 8.16846L5.16703 8.17051L5.16706 8.17514L5.1672 8.18645C5.16733 8.1949 5.16756 8.20516 5.16795 8.21718C5.16873 8.24121 5.17013 8.27227 5.17264 8.30992C5.17766 8.38517 5.18712 8.4869 5.20491 8.61133C5.24047 8.86001 5.30947 9.20069 5.44344 9.60229C5.71245 10.4087 6.24101 11.4528 7.27044 12.4814C8.29987 13.5101 9.34476 14.0382 10.1518 14.307C10.5537 14.4409 10.8946 14.5099 11.1435 14.5454C11.268 14.5632 11.3698 14.5726 11.4451 14.5776C11.4828 14.5801 11.5139 14.5816 11.5379 14.5823C11.55 14.5827 11.5602 14.5829 11.5687 14.5831L11.58 14.5832L11.5846 14.5832L11.5867 14.5833H11.5876C11.5876 14.5833 11.6901 14.5776 11.5886 14.5833C11.936 14.5833 12.2537 14.3871 12.4091 14.0765L13.0234 12.8487L17.0927 13.5265V17.4863C15.1561 17.7662 9.92576 18.042 5.8157 13.9351C1.70564 9.82813 1.98168 4.60176 2.26176 2.66659ZM7.06931 8.61216L8.72601 7.50854C9.44791 7.02764 9.73401 6.10718 9.41179 5.30223L8.08417 1.9857C7.80554 1.28966 7.13089 0.833252 6.38067 0.833252H2.21383C1.38039 0.833252 0.595883 1.41182 0.459063 2.31541C0.147793 4.37113 -0.275889 10.4408 4.51835 15.2314C9.31259 20.022 15.3869 19.5987 17.4442 19.2876C18.3485 19.1509 18.9275 18.367 18.9275 17.5342V13.5265C18.9275 12.6302 18.2791 11.8654 17.3944 11.7181L13.3251 11.0404C12.5306 10.908 11.7426 11.309 11.3824 12.0289L11.0645 12.6641C10.9646 12.6396 10.8531 12.6081 10.732 12.5678C10.1629 12.3783 9.37308 11.9898 8.56779 11.1851C7.76249 10.3804 7.37369 9.59115 7.18402 9.02254C7.13276 8.8689 7.09586 8.73075 7.06931 8.61216Z" fill="#3F3F3F"/>
</svg>
