<svg width="17" height="17" viewBox="0 0 17 17" fill="none" xmlns="http://www.w3.org/2000/svg">
<path fill-rule="evenodd" clip-rule="evenodd" d="M13.9324 0.0325378C11.8293 0.18765 9.85567 0.821089 8.29016 1.84346C7.38925 2.43178 6.33029 3.36926 5.51165 4.30323L5.33051 4.5099L4.03525 4.61076C2.72195 4.71302 2.57489 4.73385 2.34645 4.85016C2.07518 4.98826 1.92091 5.18513 1.0386 6.51932C0.556167 7.24887 0.129194 7.90666 0.089805 7.98107C0.035105 8.08439 0.0179676 8.17539 0.0173698 8.36558C0.0167388 8.58016 0.0302228 8.6393 0.114548 8.79162C0.227933 8.99633 0.401266 9.14563 0.60439 9.2135C0.68297 9.23975 1.19563 9.32958 1.74363 9.4131C2.29162 9.49665 2.76386 9.57197 2.79302 9.5805C2.83663 9.59326 2.8457 9.64778 2.84384 9.88611C2.84108 10.2428 2.90661 10.4519 3.10399 10.716C3.1825 10.8211 3.93232 11.5888 4.77023 12.4221C6.40299 14.0458 6.42929 14.0678 6.84165 14.1472C6.94212 14.1666 7.10961 14.1729 7.21389 14.1612C7.39334 14.1411 7.4044 14.1441 7.42153 14.2178C7.43146 14.2607 7.50722 14.7367 7.58985 15.2757C7.67245 15.8147 7.76146 16.3201 7.78759 16.3987C7.85515 16.6017 8.00444 16.7752 8.20919 16.8887C8.36146 16.973 8.42058 16.9865 8.6351 16.9859C8.82603 16.9853 8.91613 16.9682 9.02099 16.9126C9.09624 16.8728 9.75384 16.4459 10.4823 15.9639C11.8157 15.0818 12.0108 14.9287 12.1495 14.6561C12.2665 14.4261 12.2875 14.2778 12.389 12.9668L12.4892 11.6711L12.696 11.49C12.8098 11.3904 13.117 11.0988 13.3788 10.8422C15.0868 9.16766 16.068 7.48421 16.6055 5.30606C16.8514 4.30964 16.9631 3.44398 16.993 2.30261C17.0239 1.12434 16.9614 0.806605 16.6255 0.43492C16.4307 0.219344 16.1427 0.072869 15.8255 0.0279532C15.5486 -0.0112817 14.4916 -0.00872362 13.9324 0.0325378ZM15.8318 1.05524C15.9827 1.1554 15.9917 1.2163 15.9888 2.117C15.9849 3.32096 15.865 4.24625 15.5732 5.32579C15.0766 7.16312 14.2313 8.58342 12.7546 10.0614C11.8478 10.969 10.9077 11.6709 9.8382 12.2388L9.59658 12.3671L7.11758 9.88734L4.63857 7.4076L4.76495 7.16402C5.29624 6.13993 6.03191 5.15244 6.93979 4.24486C7.47152 3.71328 7.83409 3.39843 8.38395 2.99077C9.79273 1.94638 11.5389 1.29709 13.5339 1.07577C14.1826 1.00381 14.2749 0.999457 15.0616 1.00344C15.6114 1.00623 15.7744 1.0172 15.8318 1.05524ZM11.3253 2.88333C10.0989 3.04339 9.16483 4.10639 9.16705 5.33941C9.16841 6.07587 9.43643 6.69117 9.97204 7.18721C10.2595 7.45341 10.7399 7.69999 11.1392 7.78623C11.4855 7.86104 12.0405 7.83786 12.3714 7.73474C13.189 7.47999 13.8173 6.82745 14.053 5.98833C14.1454 5.6595 14.1536 5.10885 14.0711 4.76999C13.8285 3.77324 13.0003 3.02904 11.9748 2.88635C11.6964 2.84762 11.6021 2.84718 11.3253 2.88333ZM11.9087 3.8833C12.6888 4.02539 13.2573 4.81743 13.1237 5.57612C12.9856 6.36042 12.3316 6.87848 11.5419 6.82918C10.7982 6.78277 10.2077 6.18999 10.1689 5.45094C10.1288 4.68644 10.6026 4.05695 11.3386 3.89679C11.5955 3.84088 11.6665 3.83922 11.9087 3.8833ZM4.35289 5.88226C3.83986 6.69998 3.42372 7.5876 3.16911 8.40711C3.12179 8.55953 3.09591 8.59797 3.04112 8.59737C2.9531 8.59637 1.09337 8.30758 1.07836 8.29256C1.05617 8.27037 2.69093 5.82289 2.76781 5.76322C2.83178 5.71356 2.98027 5.69136 3.5736 5.64286C3.97364 5.61017 4.35601 5.5815 4.42333 5.57917L4.54568 5.57496L4.35289 5.88226ZM6.42239 10.5873L8.61009 12.7759L8.29879 12.8789C7.88095 13.0173 7.2936 13.1556 7.09948 13.1614L6.94152 13.1661L5.38876 11.6128L3.83598 10.0596L3.84245 9.88531C3.84966 9.69266 4.04348 8.88876 4.15484 8.58983C4.194 8.48478 4.22798 8.3988 4.23037 8.3988C4.23276 8.3988 5.21915 9.38363 6.42239 10.5873ZM1.9595 11.4254C1.91384 11.4433 1.4689 11.8647 0.970751 12.3619C-0.0132184 13.3439 -0.0390904 13.3792 0.0323816 13.6448C0.0748929 13.8026 0.252875 13.9684 0.411828 13.9982C0.665866 14.0459 0.694893 14.0244 1.63944 13.0876C2.13104 12.6 2.5523 12.1547 2.57768 12.0958C2.75493 11.6844 2.36861 11.2654 1.9595 11.4254ZM11.3618 13.3236C11.3263 13.7732 11.2805 14.1721 11.2602 14.2102C11.225 14.2759 8.73261 15.9491 8.7074 15.9239C8.69196 15.9084 8.40371 14.0512 8.40314 13.9634C8.40278 13.908 8.4706 13.874 8.81338 13.758C9.55347 13.5074 10.4007 13.1005 11.0999 12.6597C11.2695 12.5528 11.4124 12.4745 11.4174 12.4858C11.4223 12.4971 11.3974 12.8741 11.3618 13.3236ZM3.40422 12.9353C3.26031 13.0091 0.140652 16.1325 0.0641986 16.2793C0.0288944 16.3471 0 16.4486 0 16.5049C0 16.6698 0.117471 16.8611 0.264832 16.9364C0.429297 17.0203 0.565931 17.0211 0.723688 16.9393C0.79144 16.9041 1.57434 16.1454 2.46346 15.2533C4.20709 13.5038 4.15933 13.5615 4.10449 13.2691C4.0474 12.9648 3.6842 12.7917 3.40422 12.9353ZM4.86554 14.4414C4.81075 14.4758 4.37491 14.898 3.89702 15.3798C3.16078 16.122 3.02464 16.2744 3.00538 16.3777C2.93633 16.7484 3.26111 17.0668 3.6118 16.9722C3.79018 16.9241 5.56127 15.148 5.59601 14.9824C5.64403 14.7537 5.5431 14.5299 5.34582 14.4279C5.21387 14.3596 4.98577 14.3661 4.86554 14.4414Z" fill="black"/>
</svg>
