<svg width="63" height="23" viewBox="0 0 63 23" fill="none" xmlns="http://www.w3.org/2000/svg">
<path d="M50.7264 3.13899C50.6152 3.10359 50.4894 3.07692 50.3552 3.06028C50.4328 2.89842 50.6609 2.82287 51.3782 2.72083C52.0183 2.78132 53.4877 2.70247 53.2452 2.87318L53.0826 2.88183C53.0951 2.94399 53.3148 3.03575 53.5901 3.10647C53.6949 3.17719 53.792 3.22693 53.9226 3.20507C53.9671 3.13842 53.9884 3.06947 53.9859 3.00032C53.9872 2.95202 54.0138 2.90443 54.0639 2.86083C54.114 2.81722 54.1863 2.77865 54.2758 2.7478C54.7937 2.69463 55.3789 2.75803 55.4398 2.90474C55.7215 2.80723 56.0335 2.70974 56.3756 2.61224C56.4248 2.61461 56.4719 2.62165 56.5135 2.63281C56.555 2.64397 56.5898 2.65896 56.6151 2.6766C56.4644 2.83421 56.2528 2.96632 56.1044 3.10088C56.0054 3.10304 55.9071 3.10869 55.8104 3.11776C55.5533 3.26475 54.9813 3.43105 54.9893 3.54911C55.3251 3.5506 55.3462 3.56909 55.5648 3.68635C55.4444 3.73406 55.3544 3.79337 55.3026 3.85902C55.2937 3.87218 55.287 3.88559 55.2825 3.89913L55.2775 3.91931L55.2753 3.95259C55.2742 4.04646 55.2798 4.14252 55.2887 4.2394C55.3613 4.60892 55.3725 4.98007 55.3221 5.35023C56.433 5.98337 54.7846 7.28571 56.1528 7.76971C55.8703 8.81595 56.7429 8.9277 57.3733 9.48227C56.6366 10.2915 56.4349 8.42657 55.7323 8.8565C55.4931 10.0377 55.8941 11.3266 55.815 12.5341C56.2894 12.8379 56.8114 12.3134 56.9324 12.944C56.639 12.7356 56.1023 12.9674 56.0962 13.1915C56.1722 12.9468 56.3276 13.1973 56.4874 13.2249L56.5846 13.0474C57.7622 12.9205 56.4685 13.8959 57.0552 14.3144C56.6586 14.5059 57.0613 14.0903 56.6716 14.058C56.1414 14.0668 55.5157 14.2523 55.3145 14.8295C55.9748 15.9675 54.7776 16.7662 55.0196 18.0274C55.459 17.9711 55.2654 18.3247 55.3289 18.5278C54.9443 18.2717 54.4935 18.7749 54.4169 19.0196C54.661 19.318 55.5127 19.362 55.4311 19.8305L56.2453 19.5152C56.3426 19.3386 55.9913 18.7017 55.8165 18.3839C56.7429 18.1837 55.3991 16.8039 56.661 16.9488L56.4956 17.1469C56.0374 17.8733 57.294 18.2432 57.7363 18.927C57.3754 19.4784 56.7482 19.6633 56.2538 20.0312C56.0124 20.4731 56.3547 20.5938 56.5787 20.8239C56.7755 21.2098 56.3781 21.4013 56.1414 21.6194C56.1846 21.7544 56.3511 21.5576 56.393 21.6931C56.2602 21.8576 56.1858 22.0292 56.1722 22.2025C56.9536 22.2683 56.9504 21.5282 57.1933 21.0865C57.3051 21.2012 57.4647 21.228 57.4379 21.3844C57.4808 21.5194 57.3204 21.4925 57.2496 21.5136L57.3354 21.7852C57.5648 21.7915 58.0042 21.7352 58.0403 22.0945L57.5739 22.3072C57.4167 23.0192 58.5115 23.3623 58.6067 22.4453L58.1249 22.3655L58.8393 21.4873C59.3272 21.3441 59.1968 21.901 59.6574 21.9121C60.2296 22.0391 60.5265 21.2847 60.6508 20.9522C60.3153 20.6078 60.1849 21.1646 60.1082 21.4082L59.2705 20.9165C59.2271 20.7813 59.3942 20.5832 59.6242 20.5897C59.8827 20.4382 60.5453 20.6135 60.461 20.3422C60.5973 19.5615 59.6092 20.2979 59.5584 19.6458C58.7007 19.8256 58.5106 20.9188 58.0865 21.2664L58.1006 21.5576C57.6832 21.6814 57.9538 21.0843 57.7103 21.5259C57.178 20.7947 58.2189 19.7462 58.8093 19.201C59.3399 19.1922 59.8404 18.6002 60.5183 19.0664C60.595 18.8218 61.0121 18.6985 60.9072 18.3589C60.0096 17.4397 61.1034 17.042 60.8499 16.2285C60.731 16.3376 60.5289 16.1744 60.3682 16.1493C60.6992 15.0139 62.6834 16.5006 62.1973 14.9409C62.1126 14.6702 61.8404 14.5282 61.5617 14.6111C61.3948 14.8083 60.9992 14.9999 61.1742 15.3183C60.9436 15.3128 60.9531 15.8274 60.4769 15.5241C60.6358 14.8109 59.7689 14.4744 59.9688 13.897L59.6054 13.7083C59.6128 13.4848 59.2133 12.9363 59.4976 12.6301C59.7522 11.7408 60.2787 12.6953 60.669 12.7275L60.8966 11.9932C60.0213 11.1416 62.1329 10.5917 61.0693 9.86929L61.321 9.94307C61.6786 10.3558 62.2692 9.81067 62.2537 9.51856L62.0305 9.28899C61.0035 8.9263 61.6557 7.84487 61.3528 7.11992C61.3807 6.96442 61.5886 6.90207 61.631 7.03763L62.0674 6.24176C61.0837 6.0142 62.0378 5.65864 61.8894 5.18444C61.4841 4.85909 61.0718 4.75963 60.785 4.3257C60.8701 4.19614 60.9351 4.06445 60.9796 3.93145C61.0216 3.77236 61.0433 3.61772 61.0517 3.46867C61.0684 3.17001 61.0319 2.89569 60.9989 2.63159C60.8772 2.02472 60.9779 1.41368 61.2976 0.819336C61.2274 0.829078 61.1521 0.830715 61.0798 0.82407C60.4763 0.941077 59.8202 1.02361 59.3966 1.1158C58.9655 1.20799 58.7886 1.30994 58.9745 1.46587C57.9127 1.37501 56.836 1.24548 55.5642 1.12656C54.9351 1.06712 54.2449 1.01032 53.5438 0.96226C52.9598 0.914252 52.3708 0.875042 51.7695 0.850752C51.6027 0.898519 51.423 0.941413 51.2604 0.990759C50.6699 1.60541 48.1539 2.85964 50.7264 3.13899Z" fill="#FAE465"/>
<path d="M44.2308 1.42939C41.7944 0.820969 39.1174 0.396563 36.3239 0.17587C35.727 0.299682 35.1087 0.404945 34.4742 0.490792L32.5893 0.220818C30.7112 0.222062 28.4928 0.314922 27.308 0.708263C26.9648 0.648395 26.9635 0.587859 26.6203 0.527993C25.941 0.649353 24.5709 0.529905 23.8943 0.741639C23.0379 0.621809 23.0324 0.440345 22.5149 0.259358C20.6425 0.442681 18.2395 -0.0390183 16.3704 0.264714C15.501 -0.248265 13.6457 0.568924 12.6074 0.0866441C10.5537 -0.0930985 8.33891 0.120402 7.83657 0.452921C7.83449 0.36226 8.51097 0.120402 7.65264 0C7.48451 0.0306987 7.14281 0.0609673 7.14281 0.0910432C6.97341 0.0916661 5.43297 -0.0584785 4.92441 0.0930037C4.7157 0.149189 4.65243 0.193325 4.70049 0.240853C6.71573 0.638164 2.27407 1.71251 0.714385 2.2712C0.478842 2.3107 0.23636 2.3425 0 2.38003C0.961346 2.47693 1.94919 2.52102 2.93821 2.5112C2.59387 2.36029 4.30302 2.38922 3.44458 2.23926C3.2731 2.23926 3.10428 2.26939 2.93349 2.26996L1.73186 2.0895C2.75497 1.96747 5.14901 2.14702 5.8256 1.84428C7.02158 1.93394 7.37087 2.17513 8.05841 2.35592C9.93651 2.38442 12.1631 2.62427 13.6926 2.38136C15.5699 2.31949 15.9184 2.59113 16.4365 2.80172C17.288 2.6807 18.8278 2.82988 19.1626 2.61868C20.7045 2.79833 21.2273 3.16054 21.9171 3.43161C23.1165 3.58176 23.1124 3.40039 23.961 3.24866C26.3537 3.30714 23.4657 3.85331 26.1981 3.85087C27.2232 3.91083 28.5824 3.66802 28.5776 3.4867C29.777 3.66692 31.3079 3.45389 32.1683 3.66462C34.0319 3.08934 36.4425 3.90304 38.6485 3.38762C41.0997 3.43352 43.006 3.13701 45.3167 2.95115C45.8587 2.42197 45.5282 1.88279 44.2308 1.42939Z" fill="#FAE465"/>
</svg>
