<svg width="211" height="45" viewBox="0 0 211 45" fill="none" xmlns="http://www.w3.org/2000/svg">
<path d="M185.917 18.3333C185.911 19.3801 187.596 18.9264 187.692 19.4943C188.1 20.3121 187.051 20.4717 187.354 21.2461C195.048 21.8923 202.885 22.5055 210.553 24.1574C209.166 24.6827 207.705 25.3154 206.322 24.9354C204.029 24.4103 201.665 24.1158 199.284 24.0585C194.377 23.7243 189.56 22.6851 184.597 22.8325C184.23 22.8434 183.861 22.8339 182.809 22.8339C184.335 23.2929 185.578 23.1583 186.105 24.4221C181.943 24.7362 177.997 23.8519 173.851 23.62C173.726 24.0293 173.592 24.4684 173.444 24.9509C185.736 25.4531 197.965 26.1131 210.577 28.3213C208.15 29.4669 206.16 29.0707 204.303 28.9089C200.408 28.5693 196.544 27.9918 192.662 27.5477C192.113 27.4851 191.286 27.4455 191.005 27.6999C189.732 28.8516 188.522 28.1536 186.979 27.9763C187.81 27.2806 188.413 28.3297 189.2 27.4256C186.03 26.6794 183.008 27.8303 180.021 27.4208C177.012 27.0085 173.918 27.0106 170.463 26.8078C170.912 27.1976 171.473 27.491 172.095 27.6619C172.717 27.8327 173.382 27.8757 174.029 27.787C176.91 27.8136 179.732 28.3372 182.611 28.2689C185.608 28.2986 188.597 28.5218 191.551 28.9362C193.458 29.0588 195.378 28.9621 197.252 28.649C197.882 28.5704 197.529 28.8911 197.624 29.1036C197.925 29.7773 198.876 29.7192 199.682 29.7045C202.595 29.7216 205.491 30.0759 208.282 30.7567C208.694 30.8459 209.196 30.7715 209.224 31.2997C209.251 31.8223 208.742 31.7519 208.361 31.9045C206.166 32.7824 204.05 31.7688 201.898 31.7425C200.695 31.7278 199.443 30.6866 198.413 32.0947C198.226 32.3513 197.644 32.1451 197.199 32.0466C194.62 31.4755 191.912 31.6515 189.285 30.9536C187.976 30.6058 186.078 31.0503 184.436 31.3103C182.16 31.671 179.84 30.8072 177.488 30.6509C175.5 30.5188 173.398 30.2849 171.419 30.1757C167.323 29.9498 163.213 29.3044 158.609 29.8584C161.16 30.5279 163.838 30.8219 166.516 30.7265C172.141 30.7299 177.573 32.378 183.229 31.8797C187.407 34.1936 192.403 32.993 196.921 33.9591C199.81 34.4082 202.735 34.6934 205.672 34.8126C205.911 34.8353 206.125 35.0267 206.298 35.4411C194.769 33.89 183.103 34.4092 171.24 33.2959C174.055 34.8122 177.47 33.0918 180.075 35.2879C175.432 36.6916 170.964 34.6185 166.511 35.2295C168.147 36.2452 170.638 36.016 171.837 37.5958C172.085 37.9228 171.909 38.3868 171.168 38.5207C172.523 39.2239 173.162 37.0149 174.468 38.2573C174.535 37.8536 174.595 37.5007 174.652 37.1602C175.126 36.9142 175.79 37.7472 175.554 38.2372C175.531 38.3521 175.537 38.4695 175.571 38.5825C186.423 38.9258 197.24 39.7868 207.968 41.1608C207.689 41.4549 207.321 41.6858 206.901 41.8312C206.481 41.9767 206.021 42.032 205.567 41.9917C201.503 41.6478 197.439 41.3131 193.376 40.9612C191.558 40.8037 189.702 40.6854 187.911 40.637C183.577 40.5202 179.285 40.135 174.974 39.8911C169.821 39.5996 164.625 39.8135 159.448 39.83C158.692 39.8323 157.777 39.5727 157.254 40.555C165.841 40.7712 174.352 40.9776 182.836 41.3801C191.391 41.7859 200.035 42.2879 208.336 44.4145C205.905 45.0423 203.32 45.1676 200.814 44.779C197.807 44.3459 194.773 44.0466 191.726 43.8825C185.112 43.6689 178.518 43.2012 171.901 42.9972C161.689 42.6823 151.485 42.7904 141.277 42.7218C135.043 42.6798 128.801 42.5665 122.574 42.7471C112.293 43.0452 102.005 42.8793 91.7321 43.1439C84.1617 43.3388 76.5888 43.2183 69.0311 43.4814C62.568 43.7063 56.0942 43.8909 49.6456 44.2345C42.0806 44.6376 34.5305 44.3506 26.9782 44.528C24.7314 44.6498 22.4756 44.6005 20.24 44.3808C20.4379 44.0456 20.7653 43.7723 21.1721 43.6025C21.5789 43.4328 22.0429 43.3759 22.4932 43.4406C27.29 43.4843 32.0852 43.2739 36.8483 42.8106C39.1319 42.5412 41.4553 42.5904 43.7186 42.956C45.1223 43.239 46.7772 42.7388 48.3308 42.6388C52.5649 42.366 56.7985 42.1573 61.0386 41.9524C67.8539 41.4588 74.6962 41.2556 81.5375 41.3437C85.9535 41.5071 90.3304 40.8812 94.7231 41.273C96.0353 41.2621 97.328 41.0136 98.5072 40.5455H88.3778C82.883 40.5455 77.3855 40.4598 71.8942 40.5719C67.2748 40.6662 62.6541 40.7889 58.037 41.1313C56.5443 41.2421 54.9239 41.1752 53.3465 41.2321C47.5407 41.4409 41.725 41.6413 35.9175 41.5752C32.8518 41.4513 29.7785 41.5882 26.7477 41.9838C25.4419 42.1919 24.386 41.0365 23.0106 41.5461C23.1244 41.8597 23.2405 42.1799 23.403 42.6286C22.3381 42.6286 21.0922 42.9439 20.5364 42.5741C18.1025 40.9545 15.1127 41.4754 12.4173 40.9414C11.4306 40.7458 10.2343 40.8915 9.95395 39.8777C9.68683 38.9116 11.0411 38.8197 11.5127 37.9635C9.08486 36.9548 8.81726 34.3259 6.63598 32.7372C5.76773 32.8462 6.10516 34.7561 4.24229 33.6808C4.45092 35.4483 6.80499 36.5005 5.84364 38.3066C4.53413 38.5555 3.93545 37.7088 3.46568 37.0504C1.32158 34.2939 0.124876 31.1208 0 27.861C0.101144 22.925 0.0509272 17.8814 2.0292 13.0765C2.12639 12.7338 2.28044 12.4034 2.48714 12.0944C3.02101 11.4651 3.16176 10.3821 4.52671 10.5762C5.78248 10.7549 5.98099 11.6657 6.02791 12.4961C6.08372 13.4856 6.91503 13.8061 7.91817 14.3016C8.41183 13.3144 8.20649 12.169 9.39474 11.5897C9.49211 11.5422 9.59106 11.3233 9.55146 11.2888C7.74245 9.71535 10.2662 9.70008 10.856 8.90836C10.0373 8.25444 9.41612 7.45521 9.04112 6.57335C8.66611 5.6915 8.5475 4.751 8.69456 3.82562C7.8506 3.57658 6.92379 3.58679 6.08845 3.85435C5.06824 4.26205 4.86437 3.4835 4.35122 3.14634C4.72338 2.7865 4.76994 2.3149 5.63661 2.19234C9.98722 1.49348 14.3858 1.00903 18.8083 0.741655C30.3065 0.254296 41.8055 0.108059 53.3154 0.00680287C60.1996 -0.0538322 67.0267 0.297789 73.8605 0.785346C75.9408 0.933763 77.9321 0.125498 79.9931 0.437392C84.5418 1.12578 89.125 0.672588 93.69 0.77434C97.8581 0.867274 101.998 0.338404 106.207 0.736198C113.232 1.40021 120.329 0.952187 127.38 1.20364C132.805 1.39704 138.251 1.52733 143.653 1.93008C150.498 2.44062 157.346 2.89777 164.196 3.35639C170.6 3.7851 177.089 3.72842 183.385 4.8256C187.47 5.53747 191.648 5.65804 195.72 6.55448C198.059 7.15715 200.447 7.62545 202.866 7.95593C204.07 8.077 203.371 8.68474 203.718 9.06252C201.427 8.45349 199.059 8.51749 196.797 8.02865C194.368 7.35554 191.713 7.46811 189.384 8.34303C187.692 9.03894 185.764 8.52126 184.059 8.29745C178.171 7.52465 172.241 7.11368 166.33 6.54171C159.35 5.8665 152.338 5.56194 145.351 5.03723C139.603 4.60556 133.851 4.6864 128.13 4.32962C121.551 3.91935 114.977 4.34617 108.43 3.97612C104.885 3.77569 101.351 3.76953 97.8119 3.68383C95.3706 3.62478 92.9545 4.60416 90.4372 3.88189C90.7801 4.04963 91.1234 4.36381 91.4661 4.36341C97.5577 4.35608 103.496 5.7056 109.633 5.56006C113.442 5.48454 117.252 5.68917 121.016 6.17146C122.85 6.40013 124.661 5.89275 126.622 6.10438C131.009 6.57787 135.501 6.43105 139.921 6.65813C147.05 7.02452 154.206 6.97715 161.297 7.42299C169.044 7.92783 176.73 8.92023 184.288 10.3912C187.932 11.0705 191.641 11.4878 195.375 11.6386C195.719 11.6489 196.045 11.7657 196.286 11.9651C193.615 12.0617 190.938 11.9312 188.3 11.5759C187.963 12.396 189.095 12.2063 189.231 12.9634C183.573 14.1521 177.899 11.9345 172.325 12.8685C173.538 13.8644 175.25 13.5629 176.637 13.582C180.797 13.6392 184.788 14.4962 188.843 14.9925C190.475 15.1922 192.212 14.9674 193.774 15.5981C194.686 15.9669 196.405 14.7979 196.589 16.5738C198.879 16.0665 200.739 17.6624 202.992 17.4232C205.292 17.1791 207.462 17.8688 209.678 18.1856C210.165 18.2552 210.894 18.3698 210.988 18.9607C211.1 19.6632 210.408 19.8347 209.793 20.0578C207.804 20.7803 205.944 19.755 204 19.7529C203.47 19.7523 202.86 19.5721 202.279 19.5875C196.755 19.7338 191.37 18.6836 185.897 18.3504C182.413 18.0206 178.933 17.6889 175.455 17.3556L175.401 17.823C178.889 18.1406 182.335 18.8315 185.917 18.3333ZM170.767 19.5696C173.754 21.0108 176.841 20.4879 179.82 20.6053C176.849 20.0318 173.818 19.6851 170.767 19.5696Z" fill="#FAE465"/>
</svg>
