<svg width="264" height="13" viewBox="0 0 264 13" fill="none" xmlns="http://www.w3.org/2000/svg">
<path d="M263.992 6.22761C264.09 5.74383 263.25 6.04528 262.844 5.93958C262.632 5.60529 262.419 5.2711 262.206 4.93702C262.447 1.81718 262.447 1.81719 260.506 2.74068C260.312 2.70331 260.119 2.66592 259.925 2.62851C259.777 2.54645 259.613 2.49524 259.445 2.47795C259.276 2.46065 259.106 2.47764 258.944 2.52788C258.783 2.57813 258.632 2.6606 258.503 2.77032C258.374 2.88005 258.269 3.01476 258.193 3.16635C256.734 3.19861 256.016 0.723208 254.194 1.98296C253.31 2.5166 252.684 2.00816 251.961 1.53898C250.787 0.777331 250.555 1.5272 250.599 2.54324C250.454 2.53523 250.308 2.55484 250.17 2.60102C248.981 1.41281 247.815 1.05135 246.702 2.69271C246.813 0.552721 245.737 0.64022 244.297 1.41142C244.138 1.41332 243.984 1.46951 243.861 1.57066C242.688 1.42681 241.578 -0.330661 240.329 1.43184C240.243 1.41212 240.154 1.41064 240.067 1.4275C239.98 1.44436 239.897 1.47918 239.825 1.52975C239.601 1.30428 239.33 1.13222 239.031 1.0264C238.732 0.920587 238.412 0.883755 238.097 0.918683C236.78 -0.143035 235.643 0.193163 234.614 1.36708C233.873 1.24313 232.955 1.35308 232.425 0.951243C230.867 -0.22913 230.685 1.07546 230.225 1.97985C229.2 -0.315448 228.205 1.28105 227.203 2.00314C226.752 0.735605 226.602 0.692893 225.626 1.55445C225.526 1.68637 225.459 1.84014 225.429 2.00314C224.774 2.4631 224.2 2.72773 224.244 1.50929C223.465 0.300915 222.114 0.293877 220.872 1.49162L220.829 1.43606C219.882 1.56008 218.753 0.92943 218.061 2.10518C216.085 2.4235 214.354 0.25968 212.284 1.53764C211.576 0.971108 210.871 0.393712 209.909 1.03704C209.19 0.39679 208.463 -0.116366 207.643 0.898233C207.437 0.925131 207.231 0.952049 207.026 0.978991C206.676 0.933891 206.327 0.888929 205.978 0.844106C204.303 0.132653 202.685 -0.160156 201.326 1.46976C200.725 1.57408 200.191 0.176105 199.541 1.38985C197.784 0.146988 196.522 1.81917 195.034 2.1551C194.436 1.95746 194.098 1.14587 193.3 1.42461C192.16 0.102347 191.784 0.865178 191.566 2.06008C190.761 2.04719 190.802 0.735605 189.853 0.943664C188.821 -0.187302 188.382 0.88475 187.817 1.49137C187.569 1.22494 187.093 0.848565 186.955 1.13888C186.764 1.54353 186.956 2.12991 186.984 2.63862C186.251 2.38988 185.593 1.73501 184.726 2.22802C183.274 1.14974 182.895 2.40898 182.354 3.31585C181.791 3.28136 181.229 3.24697 180.666 3.21265C180.516 2.43948 181.328 1.36094 180.07 0.947917C178.965 0.585281 179.851 2.18771 178.991 2.15708C178.403 2.06932 177.889 1.15263 177.218 1.99785C175.92 1.2533 175.737 2.31696 175.393 3.12155C172.982 2.28103 170.567 1.48907 168.024 2.63162C167.088 2.55309 166.105 0.565646 165.224 2.70113C165.182 2.8461 165.152 2.99406 165.133 3.1437C164.181 2.99763 163.2 1.84219 162.291 3.22273C161.187 2.58817 160.384 3.59433 159.425 3.74859C159.31 3.0209 158.719 3.25474 158.28 3.18206C157.362 0.858427 155.919 3.21099 154.788 2.79057L153.686 2.72243C152.651 3.15712 151.73 1.59343 150.665 2.54887C150.589 2.52623 150.509 2.52593 150.433 2.54802C150.357 2.5701 150.289 2.61362 150.237 2.67335C149.088 2.77069 147.914 0.998018 146.785 2.71766C145.599 2.15064 145.153 3.19665 144.491 3.77126L144.49 3.7816C143.203 2.40136 141.475 2.10967 137.586 2.61589C135.625 1.03224 134.162 3.23399 132.418 3.29619C132.024 2.98703 131.544 2.8081 131.044 2.78424C130.544 2.76037 130.049 2.89275 129.628 3.16301C129.53 2.47564 129.606 1.6829 128.563 1.63578C127.674 1.5954 127.836 2.15287 127.921 2.68398C127.703 3.2987 127.195 3.21539 126.711 3.18823C125.842 2.22405 125.25 2.38954 124.924 3.62789C124.497 3.69327 124.345 2.93076 123.83 3.26389C123.423 2.94741 122.948 2.73055 122.443 2.63068C121.937 2.5308 121.416 2.55069 120.92 2.68875C119.68 2.39628 118.604 3.01602 117.469 3.30633C115.64 2.19775 110.063 2.49475 108.298 3.79449C108.126 2.64782 107.46 2.21962 106.592 3.02473C105.729 3.82512 104.706 3.65686 103.754 3.91596C102.834 3.14423 102.205 4.08873 101.453 4.30611L101.421 4.35207C100.167 3.44035 98.7783 3.63394 97.3855 3.85881C96.1225 3.21242 95.8999 5.71804 94.546 4.79605C93.787 3.25869 92.701 3.91181 91.6452 4.36273C89.7528 3.21632 87.7634 3.84952 85.7978 4.04388C85.8181 3.95455 85.8249 3.86266 85.8179 3.77131C85.7905 3.70399 85.7435 3.64644 85.6831 3.60612C85.3195 3.9116 84.8935 4.13386 84.435 4.25734C83.9765 4.38083 83.4964 4.40255 83.0286 4.32098C81.444 3.41855 80.2349 3.75029 79.4316 5.41548L79.1685 5.42618C78.9823 2.63219 77.4592 3.81479 76.1348 4.40648C75.5698 4.36192 75.0047 4.31724 74.4396 4.27245C73.4048 3.15805 72.5184 4.36472 71.5607 4.45674C71.3814 4.39493 71.1953 4.35554 71.0063 4.33945C69.394 3.06406 67.8291 4.19167 66.2468 4.43369C65.3363 3.24213 64.4342 3.76935 63.5326 4.44684C61.6047 3.7954 59.6751 3.20345 57.6991 4.28507C57.3381 4.30051 56.9771 4.31604 56.6161 4.33165C56.4258 4.34959 56.2356 4.36743 56.0455 4.38518C55.7416 4.30897 55.423 4.31526 55.1225 4.4034C54.8219 4.49154 54.5503 4.65834 54.3357 4.88657C53.7728 4.69363 53.343 4.0363 52.6218 4.39526C52.2052 4.40704 51.7886 4.41873 51.3719 4.43034C50.6408 4.31951 49.8941 4.46792 49.2609 4.84984C49.2208 4.93142 49.1545 4.99723 49.0727 5.03677C48.9908 5.07632 48.898 5.08733 48.8091 5.06805C49.1465 6.36223 48.9706 7.01667 48.3132 7.07066C48.9703 7.01658 49.1456 6.36177 48.8067 5.06693C48.8958 5.08697 48.9903 5.07615 49.0727 5.03677C49.1545 4.99723 49.2208 4.93142 49.2609 4.84984C47.578 3.15913 46.0461 4.28282 44.4979 5.10534C43.5892 3.22948 42.4801 6.03133 41.5362 4.97858C40.5845 2.69134 38.9972 4.23205 37.649 4.33302C37.4611 4.37256 37.2733 4.41219 37.0854 4.45194C35.5974 5.58153 34.4703 3.86922 33.1157 3.94801C32.1772 4.03799 31.2387 4.12818 30.3003 4.21856C29.1186 3.03545 28.4786 3.891 27.87 4.86444C27.714 4.91697 27.5464 4.92493 27.3861 4.88742C27.6725 3.05986 26.4904 3.66811 25.5921 3.8058C24.8297 3.46928 24.5349 4.42301 23.8941 4.42104C23.0773 4.68584 23.3539 2.41011 22.1152 3.65573C20.4267 3.65213 18.7415 4.27412 17.0499 3.68269C16.9299 3.39801 16.9056 2.98244 16.4084 3.21268C15.6637 3.17426 14.9189 3.13593 14.174 3.09768C12.876 2.13891 11.4186 2.83217 10.0409 2.69892C9.9542 2.66344 9.8604 2.64874 9.76701 2.656C9.67362 2.66326 9.58325 2.69229 9.50308 2.74075C8.5534 2.83859 7.65247 1.35593 6.66575 2.65325L6.65357 2.65966C5.46056 2.61509 4.22687 2.35233 3.21759 3.29773C2.13009 3.39027 2.74831 4.54366 2.1832 4.96121C1.96042 5.44805 2.24763 6.23242 1.56739 6.42817C-1.48563 7.30625 0.738392 8.81495 1.44533 9.4518C2.82871 10.6977 4.06078 12.1883 6.63153 11.669C7.98022 11.3966 9.66092 10.8419 11.2245 11.2959C13.1298 10.7135 15.1751 10.7848 17.0353 11.4984C20.1729 12.5688 23.5809 12.543 26.7019 11.4252C27.1269 12.0976 27.8799 11.7437 28.4438 11.9816C29.608 13.0955 29.7464 11.8329 30.172 11.2356L30.1645 11.1708C31.339 12.4706 32.6101 13.1757 34.2145 11.8287C36.1234 13.3131 38.0389 11.7376 39.9512 11.8433C43.1505 13.0691 46.4613 12.2587 49.7213 12.3784C50.4836 12.7898 51.2436 13.3655 52.024 12.409C52.2449 12.181 52.515 12.0067 52.8137 11.8993C53.1124 11.792 53.4316 11.7545 53.7471 11.7897C53.8861 12.3918 54.398 12.3621 54.8471 12.439C55.8537 13.1196 56.7407 13.3389 57.1817 11.8346L58.9003 11.737C59.2756 11.9647 59.6508 12.1923 60.026 12.4196C61.1524 13.7396 61.6314 12.096 62.4257 11.8955L62.3695 11.8602C62.9446 11.9726 63.3662 12.6644 64.0649 12.3085C64.79 12.6268 64.5641 10.3227 65.7738 11.7398C66.8008 12.9426 68.073 12.3514 69.2553 11.8523C70.418 12.576 71.396 12.2294 72.2789 11.3307L73.8547 11.6731C74.8564 12.9022 75.9955 13.078 77.5372 12.5895C78.3387 12.2159 79.2065 12.0052 80.09 11.9697C81.8382 12.0629 83.5606 12.78 85.3372 12.3175C86.6953 12.4944 87.5251 10.4568 88.8819 11.2457C92.1481 13.1439 95.3193 12.5278 98.5364 11.2532C98.5668 11.5849 98.5972 11.9166 98.6275 12.2481C99.7872 11.2114 101.566 12.7406 102.624 11.2837C103.308 11.113 103.992 10.9423 104.676 10.7717C106.328 12.2266 107.987 12.5774 109.659 10.8023C110.17 10.5664 110.682 10.3307 111.194 10.095C112.125 12.3138 113.149 11.5398 114.191 10.1875C114.29 10.2091 114.39 10.2244 114.49 10.2332C115.682 11.406 117.17 11.2966 118.656 11.1932C119.608 10.9952 120.559 10.7973 121.511 10.5995C122.38 10.7868 123.259 11.0375 123.963 10.2044C126.194 9.54822 128.588 9.7287 130.696 10.712C132.249 11.9498 132.19 9.86279 133.01 9.58911C134.185 9.51364 135.113 11.0406 136.42 10.1155C138.532 10.2899 140.645 10.4643 142.758 10.6388C143.331 11.4843 143.906 11.341 144.483 10.6426C145.739 9.82659 147.241 10.8695 148.504 10.1101C149.455 10.3552 150.392 11.3586 151.367 10.1603C151.751 10.1034 152.134 10.0465 152.517 9.98955C153.597 10.5033 154.785 11.789 155.485 9.57587C155.802 9.73352 156.12 9.89113 156.437 10.0487C157.079 10.2441 157.721 10.4394 158.362 10.6345C159.372 10.864 160.229 9.21022 161.605 10.6967C162.053 11.1814 165.168 11.8121 166.315 9.5616C166.688 9.57979 167.061 9.59791 167.435 9.61598C168.589 9.95643 169.743 10.2971 170.896 10.6379C172.979 10.2285 175.319 11.4102 177.18 9.62442C177.542 10.0644 178.138 9.87089 178.428 9.97638C179.812 10.4797 180.842 8.15466 181.388 9.10456C182.48 11.0036 183.496 9.78878 184.594 9.57811C185.975 10.2753 187.329 9.12609 188.705 9.51672C191.202 10.367 193.619 7.88943 196.131 9.33754C197.292 9.5865 198.491 9.60735 199.661 9.39893C201.772 10.217 203.706 7.55285 205.854 9.08348L205.91 8.80305C206.886 9.29259 207.973 9.52052 209.063 9.46459C210.154 9.40866 211.211 9.07078 212.132 8.48394C212.815 9.47779 213.52 10.2916 214.521 8.7882C214.726 8.78964 214.931 8.79094 215.137 8.79212C215.325 8.84513 215.513 8.89821 215.701 8.95135C216.589 9.89423 217.606 8.84146 218.536 9.13505C219.611 10.1435 219.875 8.91097 220.42 8.45337C220.494 8.47923 220.573 8.48684 220.651 8.47556C220.729 8.46428 220.802 8.43445 220.866 8.38858L220.813 8.45219C221.584 9.66457 222.851 8.26575 223.712 9.00214C225.343 9.53388 227.001 10.3124 228.367 8.4797C230.961 9.63906 233.666 8.40483 236.293 8.84626C237.097 9.05961 237.901 9.27303 238.706 9.48651C239.763 9.20241 240.708 8.2439 241.945 9.34482C242.399 9.74869 243.116 9.12611 243.351 8.42978C244.076 8.23717 244.85 8.82688 245.553 8.29324C246.672 9.81406 248.103 9.51085 249.573 8.98113C250.611 9.71556 251.677 10.284 252.964 9.56386C253.922 10.9001 254.934 10.143 255.939 9.64069C256.089 9.56968 256.257 9.54128 256.422 9.55856C257.16 11.0948 258.454 9.51511 259.365 10.0824C260.183 12.014 261.474 10.1797 262.498 10.4767C262.381 10.164 262.263 9.8514 262.145 9.53888C262.151 8.89954 262.418 8.63593 263.102 8.47297C264.265 8.1953 263.838 6.99282 263.992 6.22761ZM154.139 5.00652L153.076 5.4903C153.43 5.32904 153.784 5.16831 154.139 5.00652ZM188.129 4.34781L184.73 3.8018C185.863 3.9838 186.996 4.166 188.129 4.34781Z" fill="#FAE465"/>
</svg>
