<svg width="118" height="116" viewBox="0 0 118 116" fill="none" xmlns="http://www.w3.org/2000/svg">
<path d="M17.4999 12.6214C16.4566 14.1216 14.8797 15.1705 13.6557 16.5061C10.5928 19.5771 7.98552 23.0722 5.91348 26.8846C2.22531 34.4523 0.72908 42.9039 1.59459 51.2802C1.73578 54.3045 2.20871 57.304 3.00482 60.2247C3.47581 61.7232 4.1393 63.1591 4.7072 64.6086C5.93049 67.7303 7.02692 71.2241 9.23998 73.5499C11.7723 76.2113 12.9005 79.7335 15.7699 82.0648C14.0626 78.8924 13.4968 75.2035 10.714 72.4799C9.60058 71.1564 8.89818 69.5355 8.69345 67.8171C9.6027 69.2656 10.597 70.6589 11.671 71.9896C11.8242 69.3358 10.9324 67.0821 10.4161 64.7958C9.12008 59.1901 8.67339 53.4209 9.09109 47.682C9.64214 40.6129 11.8474 33.773 15.5283 27.716C18.8925 22.4641 23.2096 17.8902 28.2562 14.2311C32.9937 10.4707 38.2974 7.48762 43.9692 5.3933C46.1443 4.564 48.3716 3.8791 50.6365 3.34306C51.5006 3.16221 52.8562 2.96578 52.7319 1.41777C55.7049 2.39886 58.4434 1.27185 61.2249 1.15985C64.8556 1.01359 68.4967 1.12405 72.1872 0.821984C71.3152 0.633342 70.4433 0.444665 69.5714 0.25595C71.3252 -0.172353 73.1671 -0.0611904 74.8568 0.574929C77.984 1.59225 81.2215 2.26611 84.4022 3.1229C89.0264 4.35451 93.4417 6.26903 97.5028 8.80345C99.8721 10.2186 101.964 12.055 103.675 14.2222C105.844 17.0957 108.463 19.647 110.174 22.8511C113.286 28.6792 115.761 34.73 116.233 41.4403C116.413 43.9954 117.03 46.5465 116.963 49.0866C116.836 53.8847 117.759 58.5882 117.951 63.3605C118.136 67.5404 117.797 71.727 116.942 75.8223C115.892 80.7821 114.487 85.8018 111.649 89.9804C109.647 93.2318 107.143 96.145 104.231 98.6117C101.887 100.428 99.2346 101.893 97.5936 104.602C96.7025 105.912 95.521 106.997 94.1414 107.774C89.9453 110.325 85.9891 113.175 80.9762 114.382C76.7118 115.393 72.3497 115.934 67.9678 115.995C63.1257 116.089 58.5447 114.807 53.9277 113.508C46.1364 111.316 39.3772 107.095 32.8865 102.569C29.5537 100.115 26.5371 97.2563 23.9055 94.0594C21.3896 90.9695 18.7084 88.0183 15.8737 85.219C13.5907 83.088 11.9615 80.1987 10.2961 77.4897C9.73576 76.4746 9.11911 75.4917 8.44898 74.5457C4.78843 69.931 2.9319 64.5076 1.44999 58.9898C0.519925 55.3274 0.0356749 51.5659 0.00777291 47.787C-0.124226 41.7708 1.44737 36.2576 3.0161 30.6619C4.04861 27.2088 5.75282 23.9942 8.03063 21.2033C10.5304 18.0852 12.7784 14.3861 16.6145 12.4483C16.8762 12.3161 17.0803 12.2295 17.4999 12.6214ZM89.827 7.72277C100.449 13.4508 108.515 22.9899 112.407 34.4262C113.007 25.8527 98.2799 8.37928 89.827 7.72277ZM89.0231 97.6435C91.5761 98.1643 96.8104 93.4689 97.8728 88.4953C94.8087 91.5152 92.5625 94.9342 89.0231 97.6435ZM77.3467 4.09631C80.5777 4.84121 83.3613 6.96326 86.8251 6.74432C83.7695 5.46072 80.8179 3.84091 77.3467 4.09631Z" fill="#FAE465"/>
</svg>
