<svg width="57" height="50" viewBox="0 0 57 50" fill="none" xmlns="http://www.w3.org/2000/svg">
<path d="M49.5944 33.1398C49.8271 32.5691 49.3328 32.7617 49.102 32.6778C48.7795 32.418 48.4571 32.1583 48.1346 31.8986C47.8493 31.6852 47.6194 30.9987 47.2161 31.7925C46.4572 31.0758 45.5289 30.56 44.5167 30.2925C44.5277 30.2253 44.5691 30.1128 44.5454 30.0972C43.4105 29.1644 42.1046 28.4582 40.6996 28.0175C40.6541 27.9677 40.6058 27.9203 40.5552 27.8755C40.714 27.4023 40.5392 27.2678 40.0839 27.418C39.2827 27.4073 38.9632 26.5724 38.2715 26.3742C37.4323 25.9909 36.6733 25.4539 36.0345 24.7915C35.9485 24.7196 35.768 24.7596 35.6311 24.7477C35.4537 24.5531 35.2638 24.3699 35.063 24.1992C34.6611 23.8954 34.9143 24.3885 34.7916 24.4326C34.4372 24.225 34.0828 24.0175 33.7283 23.81C33.6898 23.162 33.2359 23.0598 32.713 23.0481C32.2817 22.7559 31.784 22.5308 31.612 21.9763C31.5509 21.9458 31.4921 21.9109 31.4359 21.8721L31.1485 21.9666C31.1668 22.1266 31.2181 22.2812 31.2991 22.4208C31.3801 22.5604 31.4889 22.6821 31.6191 22.7782C31.4889 22.6821 31.3801 22.5605 31.2991 22.4209C31.2181 22.2813 31.1667 22.1267 31.1483 21.9667L30.8737 22.0518C30.8139 22.0811 30.7483 22.0965 30.6816 22.0968C30.6149 22.097 30.549 22.0822 30.489 22.0534C30.549 22.0822 30.6149 22.097 30.6816 22.0967C30.7483 22.0964 30.8139 22.081 30.8737 22.0517C30.9652 22.0235 31.0569 21.9951 31.1485 21.9666L31.4359 21.8721C31.4921 21.9109 31.5509 21.9458 31.612 21.9763C31.8559 21.7241 32.2136 21.9029 32.4836 21.7497L33.142 21.361C33.28 21.081 33.4869 21.0851 33.7258 21.2217C34.1266 20.9003 34.8752 21.3367 35.0882 20.6058L35.4378 20.7533C35.7217 21.0531 35.9278 20.5956 36.1892 20.677C36.485 21.1482 36.7413 21.2276 36.9275 20.6042L36.5581 20.4561L36.3318 20.5448L36.5583 20.456C36.6813 20.5055 36.8045 20.5549 36.9277 20.6042C37.3008 20.3667 37.3275 20.7507 37.4807 20.9079C37.7212 21.1224 37.9174 21.0974 38.064 20.802C38.246 20.6885 38.4829 20.7793 38.6283 20.7266C39.1668 20.5317 38.6084 20.4681 38.5479 20.3369C38.7607 20.0376 39.2629 20.6858 39.3838 20.0855C39.5055 20.1101 39.6365 20.1714 39.7081 20.0027C39.9439 20.2171 40.115 20.0937 40.2719 19.8963C40.6934 20.1812 41.1083 20.3964 41.4487 19.7906L41.7813 19.7258C41.6242 19.941 41.5488 20.1526 41.8088 20.3506C42.1696 20.2315 42.1372 19.5153 42.7317 19.7507L42.888 19.8901C43.1869 20.4374 43.3931 19.8659 43.6435 19.8284L43.2812 19.6267C43.4105 19.5413 43.54 19.4558 43.6692 19.3703L43.2815 19.6268L43.6435 19.8284C43.8486 19.5186 44.4616 19.7671 44.4915 19.2178C44.7651 19.2876 44.9832 19.8452 45.3255 19.3112L45.654 19.2231C45.8561 19.3976 46.0305 19.2949 46.2026 19.169C46.8111 19.3684 47.2848 18.9284 47.8309 18.8313L47.8123 18.8076L47.8309 18.8312C48.1698 18.7719 48.5087 18.7125 48.8476 18.6531L48.8582 18.6619C49.563 19.2118 49.9937 19.0946 50.5714 18.1958L50.9414 18.3574C51.3198 18.6846 51.4894 18.1465 51.7913 18.1556C52.0618 18.3847 52.3081 18.2817 52.5488 18.1012L52.1347 17.6131C51.9824 17.6865 51.8302 17.7599 51.6781 17.8334C51.3499 17.6322 51.1955 17.6719 51.109 17.8054C51.079 17.8551 51.0563 17.9087 51.0413 17.9648C51.0563 17.9087 51.079 17.8551 51.109 17.8054C51.1955 17.6718 51.35 17.6322 51.6781 17.8332L52.1347 17.613C52.1399 17.604 52.147 17.5964 52.1526 17.5877C52.1471 17.5964 52.1399 17.6041 52.1347 17.613L52.5488 18.1012C52.9164 18.207 53.3232 18.5425 53.5678 17.9295C53.6224 17.8921 53.6621 17.837 53.6803 17.7738C54.0027 17.632 54.4088 18.0521 54.6888 17.6258L55.1231 17.3964C55.6942 17.3945 56.1677 16.6609 57 17.5164C56.7429 16.9472 56.6461 16.733 56.5494 16.5188L56.0944 16.5032C55.9057 16.5617 55.717 16.6204 55.5283 16.679C55.7169 16.6203 55.9056 16.5616 56.0944 16.5031L56.5494 16.5188C56.6113 16.2285 57.0251 16.0429 56.806 15.669C57.147 15.1235 56.6553 15.22 56.3924 15.14C55.9605 14.7269 55.5896 14.805 55.268 15.2779C54.6666 14.8392 54.188 15.4484 53.6367 15.4979C52.2665 15.6207 50.9138 15.9363 49.554 16.1744C48.9379 16.1721 48.2985 15.9915 47.7368 16.407C46.963 16.073 46.2483 16.8519 45.4749 16.5249C44.9865 16.2441 44.6328 16.4445 44.3335 16.8396C44.1236 16.7484 43.9171 16.6741 43.7837 16.952C43.434 17.0169 42.9851 16.6528 42.7443 17.1887C42.377 16.9583 42.1351 17.3913 41.7918 17.359C40.7056 17.3554 39.6232 17.4897 38.5713 17.7588C38.4881 17.6989 38.3911 17.6607 38.2892 17.6474C38.1873 17.6342 38.0836 17.6463 37.9876 17.6828C37.8916 17.7193 37.8063 17.779 37.7394 17.8564C37.6725 17.9339 37.6259 18.0267 37.6042 18.1264C37.2822 18.0111 36.9414 17.9565 36.5992 17.9655C35.0055 18.3452 33.3724 18.4664 31.7663 18.756L31.5066 18.0011C31.7532 17.7824 32.3259 17.8255 32.1223 17.2454C32.4199 17.0424 32.6677 16.7757 32.8477 16.465C33.0277 16.1542 33.1352 15.8074 33.1622 15.4499C33.4929 15.5314 33.767 15.507 33.8316 15.0917C34.3739 14.296 34.9161 13.5003 35.4583 12.7047C35.7855 12.6122 35.945 12.4418 35.7418 12.1031C35.9767 11.3417 36.8641 11.003 37.0055 10.181C37.4712 10.0765 37.2015 9.53727 37.315 9.46996C38.4327 8.80728 38.3338 7.42751 39.1099 6.58253C39.2806 6.43931 39.6309 6.40145 39.4315 6.04136L39.3844 5.54615C39.7454 5.17996 39.9733 4.88233 39.5015 4.34867C39.457 4.2932 39.4019 4.24711 39.3392 4.21309C39.2765 4.17906 39.2076 4.15778 39.1365 4.15051C39.0654 4.14323 38.9935 4.1501 38.9251 4.1707C38.8567 4.19131 38.7932 4.22525 38.7382 4.27052C38.2796 4.82896 37.4455 5.00916 37.1995 5.76873C37.2103 6.08463 37.1716 6.37353 36.8035 6.48223C36.6536 6.80255 36.2289 6.96544 36.2718 7.39631C36.0122 7.81371 35.7526 8.23111 35.4929 8.6485C34.9609 8.9813 34.3959 9.29623 34.7039 10.084C33.6858 10.5484 33.4435 11.6013 32.9007 12.4262C32.6419 12.3678 32.6489 12.6017 32.5605 12.7309L32.2754 13.0008C31.693 13.0341 32.0322 13.5387 31.868 13.7858C31.1669 14.1372 31.0271 14.8732 30.6921 15.4756C30.1198 15.9182 29.7137 16.5388 29.5391 17.2378C28.9497 17.6251 28.5869 17.6437 28.7198 16.7673C28.7352 16.6651 28.598 16.5401 28.5283 16.4251C28.8725 16.0511 28.6133 15.8021 28.3453 15.5548C28.4035 15.3472 28.5952 15.1645 28.4647 14.9218C28.2604 15.0513 28.0174 15.1478 27.9122 15.362C28.0173 15.1478 28.2602 15.051 28.4643 14.9204C28.3295 14.8488 28.1749 14.8225 28.0237 14.8454C27.8726 14.8684 27.7331 14.9395 27.6261 15.0479C27.733 14.9395 27.8723 14.8684 28.0233 14.8452C28.1743 14.822 28.3289 14.848 28.4638 14.9192L28.3596 14.1632C28.8155 12.871 27.8826 11.6755 28.094 10.4005C27.7493 9.89464 28.1916 9.33472 27.9836 8.81954C27.9751 8.55305 27.9667 8.28659 27.9583 8.02014C27.9765 8.00025 27.9901 7.97661 27.998 7.95091C28.0059 7.92521 28.0079 7.8981 28.004 7.87153C28 7.84495 27.9901 7.81958 27.9751 7.79723C27.9601 7.77488 27.9402 7.75611 27.917 7.74227C27.9308 7.59779 28.0353 7.44379 27.8718 7.31798C27.8749 7.28642 27.8664 7.25481 27.8474 7.22929C27.8285 7.20376 27.8005 7.18615 27.7691 7.17985C27.7881 6.8628 28.2383 6.55383 27.7873 6.22796C28.2449 5.73247 27.8426 5.17435 27.8219 4.67902C27.7723 3.48558 28.09 2.25124 27.558 1.09274C27.5916 0.958735 27.575 0.817129 27.5109 0.694554C27.4468 0.571979 27.3397 0.476883 27.2099 0.427138C27.1627 -0.0342035 26.7728 -0.130632 26.6282 0.180871C26.4808 0.498702 26.0129 0.625097 26.108 1.0571C25.4222 1.45216 25.5086 2.05969 25.6537 2.68347C24.9149 3.12868 25.4808 3.90384 25.1969 4.46412L25.5583 4.57641C25.5496 4.63088 25.539 4.68493 25.5263 4.73858C25.3477 5.10331 24.9848 5.4466 25.3918 5.87936C25.3323 6.04204 25.3072 6.21512 25.3179 6.38788C25.3286 6.56063 25.3749 6.72936 25.454 6.88357C25.3913 6.94638 25.3531 7.02929 25.3464 7.11746C25.3396 7.20563 25.3647 7.29331 25.4171 7.36481L25.3673 7.43481L25.3494 7.51859L25.0978 7.59222C25.0678 7.65545 25.0519 7.72429 25.0509 7.79414C25.0499 7.86399 25.0639 7.93325 25.092 7.99728C25.1201 8.06132 25.1617 8.11865 25.2139 8.16546C25.2662 8.21227 25.328 8.24748 25.395 8.26873C24.6261 8.84302 25.1924 9.40825 25.4065 9.97585C25.6037 10.4876 25.1474 11.1235 25.713 11.5653L25.6919 11.9791C25.2015 12.166 25.0968 12.4323 25.519 12.807C25.3887 13.3442 26.0793 13.6705 25.8881 14.2234C25.6673 14.1928 25.504 14.3919 25.5488 14.5023C25.8493 15.2415 25.5723 16.1329 26.1664 16.7878C25.9955 17.0307 25.6434 17.2172 25.9111 17.5965C25.6338 17.8931 26.0757 18.0877 26.0605 18.3562C25.6871 18.4393 25.4367 18.2176 25.1519 18.1236C25.1093 17.7421 25.05 17.3793 24.508 17.5629C24.249 17.454 24.1362 17.106 23.7943 17.1326C23.6906 16.6454 23.3061 16.8404 23.0122 16.8153C22.6278 16.6058 22.5328 15.9738 21.9291 16.0847L21.5088 16.0861C21.5283 16.0397 21.5458 15.9926 21.5616 15.9449C21.4592 15.1122 20.682 15.1914 20.1615 14.9235L17.211 13.0439C16.9468 12.5087 16.3371 12.5373 15.9144 12.2606L15.6706 11.9532C14.998 11.3461 14.2524 10.8235 13.451 10.3973C13.3767 9.89586 12.807 10.0596 12.5826 9.75946C12.3343 9.67095 12.2777 9.42912 12.159 9.23713C12.1578 9.06966 11.7625 8.86689 11.6496 8.79208C11.2834 8.55389 10.9051 8.33439 10.5163 8.13442C9.95519 7.83964 8.68487 7.06734 8.2129 7.92039C8.18952 7.95784 8.17648 8.00068 8.17479 8.04471C8.1772 8.07892 8.18559 8.11243 8.19981 8.14369C8.2305 8.22142 8.59606 8.70948 8.59442 8.71988C8.57979 8.76288 8.57639 8.80885 8.58432 8.85355C8.59225 8.89825 8.61133 8.94028 8.63988 8.97574C8.66843 9.0112 8.70559 9.03896 8.74777 9.05649C8.78995 9.07403 8.83589 9.08077 8.88138 9.07609C9.18872 9.24191 9.0278 9.72624 9.40959 9.84138C9.59147 10.12 9.99917 9.82719 10.1688 10.1369C10.1177 10.4155 10.3452 10.3872 10.503 10.4357C10.7026 10.6433 10.7807 10.9669 11.1042 11.0562C11.1363 11.1452 11.1409 11.2713 11.2045 11.3176C13.3063 12.8455 15.4114 14.3687 17.5202 15.8873C17.6907 16.1241 17.9158 16.3171 18.1767 16.4501C18.4377 16.5831 18.7268 16.6522 19.0201 16.6518C20.0023 17.5478 21.1401 18.2597 22.3782 18.7528C22.4479 19.2438 22.9717 19.1578 23.228 19.4118L23.4038 19.5451C23.5838 19.9419 24.1574 19.6009 24.3214 20.0276L24.6379 20.2509C24.5839 20.3565 24.5051 20.4477 24.4082 20.5168C24.3112 20.5858 24.1987 20.6307 24.0806 20.6476C22.7421 20.8782 21.4389 21.2773 20.2021 21.8352C19.3871 21.6252 18.8162 22.3302 18.0273 22.4183C17.2978 22.5495 16.5873 22.7685 15.9112 23.0705C14.2088 23.7352 12.4188 24.1149 10.6733 24.6396C10.333 24.6928 9.99297 24.746 9.6527 24.7992L9.63135 24.808C9.06624 25.1679 8.27943 24.8275 7.77742 25.3866C7.84237 25.4372 7.91024 25.4838 7.98081 25.5264C7.91023 25.4839 7.84235 25.4372 7.77742 25.3866C7.01536 25.4464 6.26067 25.5774 5.52336 25.7778C4.63224 26.1464 3.68777 26.372 2.72525 26.4461C1.86667 26.4965 1.03853 26.7808 0.332085 27.2678C-0.284043 28.1543 -0.0918371 28.5428 1.32356 29.2732C1.1522 29.5651 1.15951 29.6918 1.57493 29.6688C2.17612 29.6355 2.59827 29.1728 3.16807 29.0908C3.45516 29.2879 3.63005 29.195 3.71925 28.8806L4.28879 28.745C4.96886 28.9511 5.50539 28.2955 6.1744 28.435C6.61598 28.514 7.13973 28.7723 7.18217 27.98C7.20815 27.9975 7.23926 28.0057 7.27055 28.0032C7.30184 28.0007 7.3313 27.9876 7.35411 27.9662C8.04475 28.0579 8.74125 28.1666 9.13619 27.377C9.27726 27.4516 9.43996 27.4753 9.59669 27.4441C9.75341 27.413 9.89445 27.3288 9.99566 27.206C10.404 27.3091 10.8358 27.266 11.2153 27.0845C11.3574 27.1463 11.5027 27.4798 11.6395 27.0797L12.0142 26.9826C12.0286 26.9516 12.0412 26.9199 12.0523 26.8875C12.0413 26.9199 12.0286 26.9516 12.0142 26.9826C12.2519 27.0357 12.4984 27.0373 12.7368 26.9874C12.9753 26.9375 13.2 26.8371 13.3959 26.6932L13.8367 26.6734C14.2713 27.0464 14.4919 26.704 14.7271 26.4108L14.7724 26.2035C15.0574 26.0612 15.5134 26.6784 15.6782 26.0025C15.9088 25.9957 15.9173 26.4337 16.1823 26.2761C16.2648 26.2271 16.2295 25.9833 16.2482 25.8287L16.8547 25.8123C16.5716 24.8963 17.293 25.7621 17.3877 25.5161C17.6581 25.5617 17.8918 25.8671 18.2022 25.6298L17.9754 25.3523C18.1609 24.9144 18.7288 25.3543 18.9263 24.9441C19.2756 24.9981 19.2385 24.6275 19.4221 24.4994C19.8669 24.4531 20.3161 24.9677 20.7572 24.4887L21.0967 24.4837L21.377 24.4005C21.4162 24.1812 21.4552 23.9618 21.4943 23.7425L21.5171 23.6875L21.4943 23.7425C21.4552 23.9618 21.4162 24.1812 21.377 24.4005C21.9945 24.7467 21.6513 24.0413 21.8729 23.9542C22.1818 24.0425 22.484 24.3 22.8083 23.9901L24.1533 23.3126C24.3891 23.7065 25.2901 22.9861 25.199 23.9276L25.081 24.2789C25.0631 24.6893 24.0172 24.4669 24.5108 25.192L24.0257 26.0963C23.7189 26.5438 23.378 26.9728 23.1173 27.4455C22.9416 27.7641 22.6524 28.1547 23.1534 28.4795L22.7659 28.7507C22.3365 28.7616 22.1763 29.0913 22.0086 29.3974C21.6293 30.0893 21.262 30.7876 20.8899 31.4833C20.9789 31.5312 21.0678 31.579 21.1569 31.6267C21.2474 31.4466 21.3632 31.2801 21.5005 31.1322C21.3632 31.2801 21.2476 31.4465 21.1571 31.6265C21.228 31.8304 21.2358 32.0507 21.1796 32.2591C21.2358 32.0508 21.2279 31.8305 21.1569 31.6267C21.0677 31.579 20.9788 31.5312 20.8899 31.4833C20.686 31.4887 20.6912 31.6755 20.617 31.7934C20.4623 32.0727 19.8008 31.8252 19.9528 32.4233C19.8697 32.9096 19.6988 33.377 19.4483 33.8031C19.2372 33.8731 19.0338 33.9643 18.8413 34.0753C19.0566 34.9582 18.0592 35.1452 17.8742 35.7812C17.3968 35.8372 17.6782 36.3169 17.4578 36.5162C16.8692 37.1959 16.3456 37.9283 15.8933 38.704C14.8872 38.6889 15.0122 39.6414 14.6296 40.1595C14.4399 40.5374 14.2504 40.9153 14.0607 41.2931C13.8727 41.5908 13.4644 41.8596 13.7602 42.2582C14.0804 42.6896 14.4928 42.375 14.8665 42.2819L14.8736 42.26L15.7459 42.5905C16.138 42.6335 16.1379 42.6335 16.2817 42.041C16.4729 41.5911 16.7552 41.1851 17.1111 40.8481C17.282 40.7159 17.7747 40.9586 17.6051 40.4301L17.6049 40.4189C17.656 40.1106 17.5887 39.7223 18.1432 39.8236C18.2598 39.8449 18.2514 39.6231 18.1269 39.52C18.5855 38.6402 19.545 38.1252 19.8769 37.1531C20.3484 36.9537 20.3546 36.4604 20.5573 36.0913C20.4286 35.5808 21.6838 35.8907 21.1349 35.1312L21.6169 34.3213C21.6286 34.3469 21.6487 34.3679 21.6739 34.3809C21.699 34.3939 21.7277 34.3982 21.7556 34.3931C22.3867 34.234 22.289 33.546 22.6442 33.1868L22.7794 33.0345C23.0306 32.9385 23.2083 32.7983 23.1098 32.4922C23.1544 32.3613 23.199 32.2303 23.2436 32.0994C23.4592 31.8459 23.5602 31.522 23.9233 31.3609C24.4797 31.1139 24.083 30.9185 23.8246 30.7451C24.0766 30.6672 24.3035 30.5249 24.4825 30.3324C24.6616 30.1399 24.7866 29.9041 24.8448 29.6486C25.2582 29.1712 25.5726 28.6175 25.7699 28.0192C26.2584 27.7608 26.256 27.4453 25.8799 27.0864C25.9988 26.8214 26.5819 27.4012 26.4914 26.7552C26.6405 26.5153 26.8092 26.3586 27.0763 26.6191C27.0769 26.8422 26.7571 26.996 26.9358 27.2577C27.0829 27.5061 26.1242 27.5902 26.8358 27.9225L27.0798 28.283C27.0063 28.7462 26.5641 29.1952 27.0256 29.6788C26.2841 30.2616 27.1181 30.6776 27.1861 31.1746C27.156 31.443 26.7631 31.6192 26.9859 31.9518C27.2455 32.0922 27.4413 32.3256 27.5336 32.6043C27.4721 32.7508 27.4411 32.9081 27.4423 33.0668C27.4434 33.2255 27.4768 33.3824 27.5405 33.528C27.451 34.0238 27.3613 34.5197 27.2717 35.0155C27.2121 35.2548 27.2052 35.5041 27.2515 35.7464C27.2978 35.9886 27.3961 36.2181 27.5398 36.4192C27.7011 36.7184 27.2653 37.25 27.99 37.3592C28.3484 37.4132 28.1466 37.8082 28.0625 38.0614C27.6975 38.1273 27.5231 38.3812 27.886 38.5573C28.3514 38.7833 28.1335 39.0202 28.055 39.2916C27.7949 39.7017 27.7317 40.0747 28.2554 40.3368C28.3608 40.6969 27.6006 40.7704 27.9604 41.2147C27.9648 41.342 28 41.4663 28.0632 41.577C28.1264 41.6878 28.2157 41.7818 28.3233 41.851C28.3081 42.1245 27.7675 42.2478 28.0951 42.613C28.197 42.7265 28.3244 42.7363 28.3949 42.5586C28.423 42.5386 28.4537 42.5225 28.4863 42.5109C28.515 42.5109 28.5435 42.5165 28.5701 42.5273C28.2682 43.1978 29.1352 44.0131 28.3049 44.623C28.2111 44.692 28.3371 44.7477 28.3589 44.8067C28.6808 45.6772 28.5603 46.6508 28.9877 47.5008C28.6852 47.7631 28.4982 48.1327 28.4672 48.5302C28.4363 48.9278 28.5637 49.3215 28.8219 49.6269C29.2254 50.2188 29.4929 50.0382 29.7794 49.5602C29.8399 49.5854 29.9026 49.6051 29.9667 49.619C30.9228 49.9939 31.1176 49.3448 31.2823 48.6554C31.8958 47.7822 31.2094 46.936 31.2277 46.0752C31.3853 45.1651 30.8777 44.2844 31.1063 43.3711C31.1777 43.2553 31.2096 43.1197 31.1972 42.9845C31.1848 42.8493 31.1287 42.7216 31.0374 42.6205C30.8702 42.7652 30.7031 42.9099 30.536 43.0547C30.4473 42.9995 30.3451 42.9697 30.2404 42.9683C30.1356 42.967 30.0326 42.9943 29.9424 43.0471C30.0325 42.9943 30.1354 42.967 30.2401 42.9683C30.3448 42.9696 30.4473 42.9995 30.536 43.0546L31.0374 42.6205C31.0752 41.7467 30.7868 40.9096 30.7833 40.0172C30.8772 39.2834 30.8243 38.5385 30.6276 37.8251C30.1725 36.5002 29.9529 35.1067 29.9791 33.7071C29.8658 31.4699 29.3968 29.258 29.5014 27.0105C29.3339 26.3249 29.7129 25.576 29.2562 24.9238C29.2499 24.6106 29.2436 24.2973 29.2372 23.984C29.7496 23.2068 29.8256 24.167 30.1332 24.2058L30.494 24.4108L33.4108 26.0617C33.5427 26.5799 34.1096 26.5438 34.4163 26.8393C35.9325 27.6043 37.4085 28.4458 38.8381 29.3605C40.3686 30.4384 42.0435 31.2366 43.638 32.1857C43.7697 32.3113 43.9261 32.4085 44.0976 32.471C44.269 32.5336 44.4517 32.5601 44.634 32.549C45.5161 33.6812 46.854 34.0741 48.0949 34.5974C48.9486 34.9573 49.7945 34.0939 49.5944 33.1398ZM56.2225 15.8593C56.3798 15.8723 56.5374 15.8388 56.6756 15.7632C56.5374 15.8388 56.3798 15.8723 56.2225 15.8595C56.1148 15.9924 56.0505 16.1548 56.0384 16.3249C56.0505 16.1547 56.1148 15.9923 56.2225 15.8593V15.8593ZM55.9291 15.4325C56.0055 15.4803 56.0746 15.5387 56.1346 15.6058C56.0746 15.5387 56.0053 15.4803 55.9289 15.4326L55.9291 15.4325ZM54.5387 17.0348C54.6837 17.0555 54.8225 17.1064 54.9464 17.1842C54.8225 17.1064 54.6835 17.0556 54.5384 17.0351L54.5387 17.0348ZM49.2285 18.4079C49.2459 18.4975 49.2329 18.5434 49.2032 18.5653C49.2328 18.5434 49.2457 18.4975 49.2282 18.4079C49.091 18.3103 48.9967 18.1643 48.9645 17.9998C48.9967 18.1643 49.0911 18.3104 49.2285 18.4079V18.4079ZM47.4776 18.386C47.2192 18.4794 46.9602 18.5725 46.701 18.6654C46.9601 18.5724 47.219 18.4793 47.4776 18.386V18.386ZM45.6508 17.8888C45.4215 18.0428 45.2377 18.2549 45.1186 18.503V18.503C45.2377 18.2549 45.4214 18.0428 45.6508 17.8888V17.8888ZM43.7213 18.8883C43.7587 19.0142 43.9134 19.1526 43.8363 19.2662C43.9134 19.1526 43.7586 19.0142 43.7211 18.8884C43.7412 18.8264 43.7508 18.7616 43.7495 18.6965C43.7508 18.7616 43.7413 18.8264 43.7213 18.8883V18.8883ZM42.7328 19.3119C42.7647 19.2361 42.8175 19.1708 42.885 19.1234C42.9525 19.0759 43.0322 19.0483 43.1148 19.0436C43.1673 18.8663 43.2618 18.8515 43.3657 18.8727C43.2617 18.8516 43.1672 18.8664 43.1148 19.0438C43.0322 19.0484 42.9526 19.076 42.885 19.1234C42.8175 19.1708 42.7647 19.2361 42.7328 19.3119C42.3634 19.2484 41.9941 19.185 41.6247 19.1216L42.7328 19.3119ZM39.4967 19.7244C39.394 19.8087 39.2963 19.9025 39.1893 19.9787C39.2964 19.9025 39.3942 19.8087 39.4969 19.7244L39.4967 19.7244ZM38.4198 19.7147L38.3976 19.7557C38.2336 19.7622 38.0716 19.7188 37.9332 19.6314C38.0716 19.7188 38.2336 19.7621 38.3976 19.7556L38.4198 19.7147ZM37.0815 19.8276C37.076 19.7701 37.0771 19.7123 37.0847 19.6551C37.0771 19.7123 37.076 19.7701 37.0815 19.8275V19.8276ZM37.0675 19.9692C37.0741 19.9497 37.0782 19.9296 37.0801 19.9092C37.0783 19.9297 37.0741 19.9499 37.0675 19.9694C37.0096 19.9447 36.9504 19.9228 36.8903 19.904C36.9504 19.9229 37.0095 19.9446 37.0675 19.9691V19.9692ZM36.7824 20.0545C36.8006 20.0854 36.8121 20.1197 36.8164 20.1553C36.8121 20.1197 36.8006 20.0854 36.7824 20.0545V20.0545ZM35.5581 20.0996L36.0299 20.1284C35.8726 20.1188 35.7154 20.1092 35.5581 20.0997C35.3215 20.1485 35.0848 20.1973 34.8481 20.246C35.0848 20.1972 35.3215 20.1484 35.5581 20.0996V20.0996ZM33.2979 20.755C33.2317 20.7229 33.1653 20.6909 33.0991 20.6589C33.1654 20.6908 33.2317 20.7228 33.2979 20.755V20.755ZM32.3213 20.4727C32.2213 20.4147 32.1033 20.3949 31.9896 20.417C31.8759 20.4391 31.7742 20.5016 31.7036 20.5928C31.7631 20.7929 31.8228 20.9929 31.8824 21.193C31.8228 20.993 31.7632 20.7929 31.7036 20.5927C31.7742 20.5015 31.8759 20.4389 31.9896 20.4168C32.1034 20.3947 32.2213 20.4146 32.3213 20.4726V20.4727ZM27.1489 1.37249C27.1677 1.37197 27.1866 1.37001 27.2051 1.36662C27.1866 1.36998 27.1679 1.37193 27.1491 1.37246L27.1489 1.37249ZM26.5337 8.41961L26.7224 8.52311L26.5337 8.41961ZM26.6528 9.91729C26.823 10.105 26.9525 10.4124 27.1177 10.615C26.9526 10.4123 26.823 10.105 26.6528 9.91726V9.91729ZM26.1358 14.6414H26.1356C26.1844 14.6314 26.2337 14.6153 26.2827 14.6027C26.2338 14.6152 26.1845 14.6313 26.1358 14.6414V14.6414ZM26.9262 14.1179C27.0019 14.1101 27.0785 14.1202 27.1496 14.1473C27.0786 14.1201 27.0021 14.11 26.9264 14.1178L26.9262 14.1179ZM26.3312 16.8865L26.6831 16.614C26.6498 16.2727 26.6165 15.9314 26.5832 15.5901C26.6165 15.9314 26.6499 16.2728 26.6833 16.6141C26.5658 16.7048 26.4484 16.7956 26.3312 16.8865V16.8865ZM9.33269 9.13157L9.33246 9.1314C9.27846 9.09016 9.2231 9.0511 9.16603 9.01422C9.14242 8.76352 9.11861 8.51282 9.09487 8.26214C9.11854 8.51283 9.14227 8.76352 9.16603 9.0142C9.22301 9.05113 9.27846 9.09021 9.33246 9.1314C9.51607 9.1279 9.69565 9.18501 9.843 9.29379C9.99036 9.40256 10.0972 9.55683 10.1467 9.73237C10.0973 9.55686 9.99058 9.40262 9.84323 9.29387C9.69589 9.18513 9.51627 9.12802 9.33269 9.13155V9.13157ZM12.089 10.4102C12.1972 10.36 12.2655 10.1992 12.1854 9.97058C12.1616 9.9331 12.1402 9.89404 12.1216 9.85368C12.1402 9.89413 12.1617 9.93328 12.1857 9.97084C12.2656 10.1993 12.1972 10.36 12.089 10.4102V10.4102ZM4.50481 28.3393L4.50503 28.3392C4.52951 28.283 4.56762 28.2336 4.61614 28.1957C4.66466 28.1578 4.72195 28.1325 4.7828 28.1221C4.72195 28.1326 4.66466 28.1579 4.61614 28.1958C4.56762 28.2337 4.52952 28.283 4.50503 28.3393L4.50481 28.3393ZM5.36589 28.1351C5.29678 28.2318 5.19963 28.3052 5.08743 28.3457C4.97523 28.3862 4.85331 28.3919 4.73781 28.3619C4.85331 28.3919 4.97524 28.3862 5.08743 28.3457C5.19962 28.3052 5.29684 28.2316 5.36589 28.1349C5.43063 28.1274 5.49284 28.1056 5.54793 28.0709C5.60301 28.0363 5.64949 27.9899 5.68406 27.935C5.6495 27.9899 5.60297 28.0363 5.54793 28.0709C5.49288 28.1056 5.43083 28.1275 5.36612 28.1351L5.36589 28.1351ZM6.27701 28.1028C6.1342 27.9653 5.99138 27.828 5.84865 27.6908L6.27701 28.1026L6.47306 27.7877C6.41194 27.6462 6.41472 27.5454 6.48821 27.4895C6.41469 27.5454 6.41185 27.6462 6.47306 27.7878C6.40763 27.8926 6.34235 27.9976 6.27701 28.1028V28.1028ZM8.97159 26.7894C8.90131 26.6945 8.80865 26.6181 8.70186 26.5668C8.59507 26.5155 8.47723 26.4909 8.35867 26.4951L8.33548 26.5099L8.35683 26.4951H8.35867C8.37442 26.4848 8.3903 26.4736 8.40573 26.4612C8.42265 26.4476 8.52411 26.4 8.52648 26.351L8.55724 26.3378L8.97159 26.7895L8.9204 26.8957L8.97159 26.7894ZM9.85196 26.5782C9.80771 26.6254 9.77685 26.6834 9.76243 26.7462C9.7769 26.6834 9.80784 26.6254 9.85196 26.5781C10.0019 26.5771 10.1517 26.5761 10.3014 26.5749C10.1517 26.576 10.002 26.5771 9.85219 26.5782L9.85196 26.5782ZM12.5874 25.9461L11.9104 26.2819C12.1361 26.17 12.3618 26.058 12.5874 25.946L12.7013 25.9176L12.5874 25.9461ZM17.256 23.9618C17.302 24.0584 17.3391 24.1588 17.3671 24.262C17.3391 24.1589 17.3019 24.0583 17.256 23.9617V23.9618ZM17.7938 24.7926C17.6478 24.645 17.5017 24.4975 17.3556 24.3502C17.5017 24.4974 17.6479 24.6448 17.7941 24.7925L17.778 25.2787L17.7938 24.7926ZM18.4972 24.3958C18.4274 24.3766 18.3574 24.3574 18.2874 24.3383L18.4972 24.3957C18.7715 24.3286 19.0459 24.2616 19.3202 24.1946C19.046 24.2616 18.7716 24.3286 18.4972 24.3957V24.3958ZM20.2825 23.7735C20.2192 23.7533 20.1523 23.7474 20.0864 23.7564C20.1523 23.7474 20.2192 23.7532 20.2825 23.7734C20.3848 23.5975 20.4871 23.4217 20.5894 23.2459C20.4872 23.4216 20.385 23.5975 20.2827 23.7734L20.2825 23.7735ZM21.1649 23.1842C21.284 23.1167 21.3542 23.1279 21.3998 23.179C21.3543 23.1279 21.284 23.1166 21.1649 23.1842V23.1842ZM21.5765 23.5994L21.5763 23.5993C21.6218 23.4919 21.6833 23.3919 21.7586 23.3025C21.6834 23.3919 21.622 23.492 21.5765 23.5993V23.5994ZM26.5869 19.4012V19.4013C26.6256 19.3486 26.6658 19.2969 26.7072 19.2462C26.8848 19.2214 27.0775 19.2667 27.2694 19.2445C27.0775 19.2667 26.8847 19.2214 26.7072 19.2463C26.6657 19.2969 26.6256 19.3486 26.5869 19.4013C26.4798 19.4586 26.3633 19.4965 26.2428 19.5133C26.3633 19.4965 26.48 19.4585 26.5871 19.4012L26.5869 19.4012ZM27.2437 17.3947C27.2443 17.504 27.2361 17.6132 27.2191 17.7213C27.2361 17.6133 27.2444 17.504 27.2437 17.3947C27.2035 17.3771 27.1657 17.3543 27.1314 17.327C27.1658 17.3543 27.2035 17.377 27.2437 17.3947V17.3947ZM22.3577 23.5061L22.1546 23.5658L22.3577 23.5061C22.3595 23.5969 22.3965 23.6835 22.4608 23.7481C22.3965 23.6835 22.3597 23.5969 22.358 23.5061L22.3577 23.5061ZM23.4036 22.8344C23.1584 22.8755 22.9133 22.9168 22.6683 22.9583L23.4034 22.8341C23.4343 22.5327 23.5741 22.4997 23.7351 22.5188C23.5742 22.4998 23.4343 22.5327 23.4036 22.8344V22.8344ZM24.8574 20.3644C24.7054 20.5242 24.5688 20.6977 24.4492 20.8826C24.5688 20.6976 24.7054 20.5241 24.8574 20.3643C25.0998 20.2581 25.3542 20.1811 25.6152 20.1352C25.3543 20.1811 25.0998 20.2581 24.8574 20.3643V20.3644ZM24.2599 23.1339L24.1729 23.081L24.2599 23.1339ZM25.0112 22.5829C25.03 22.6268 25.0567 22.6669 25.0899 22.7014C25.0568 22.6669 25.03 22.6267 25.0112 22.5828V22.5829ZM25.6163 21.9707C25.316 21.8111 25.0776 21.6842 24.8937 21.5762C25.0776 21.6842 25.316 21.8111 25.6163 21.9707C25.7075 21.8942 25.8223 21.8509 25.9416 21.8478C25.8224 21.8509 25.7077 21.8943 25.6166 21.9707L25.6163 21.9707ZM18.0346 35.8678H18.0349L18.1758 36.5176C18.1257 36.286 18.0803 36.0769 18.0349 35.8677L18.0346 35.8678ZM29.051 18.8767C28.9453 18.7921 28.8708 18.6752 28.8391 18.5442C28.8708 18.6752 28.9455 18.7921 29.0512 18.8766L29.051 18.8767ZM24.6338 25.7761C24.6869 25.5994 24.8017 25.4472 24.9577 25.3471C25.1138 25.2469 25.3008 25.2054 25.485 25.2299V25.2299C25.3009 25.2054 25.114 25.247 24.958 25.3471C24.8019 25.4473 24.6869 25.5994 24.6338 25.7761V25.7761ZM25.6987 24.3928C25.533 24.1699 25.513 24 25.5847 23.8654C25.513 24 25.533 24.1699 25.6987 24.3927C26.0778 24.1999 26.2307 24.2526 26.3082 24.3922C26.2308 24.2527 26.0778 24.2 25.6987 24.3927V24.3928ZM20.5678 34.6879C20.695 34.6341 20.8128 34.5606 20.9168 34.4702C20.8128 34.5606 20.6952 34.6341 20.5681 34.6879L20.5678 34.6879ZM29.6692 45.9005C29.6792 45.9483 29.7082 46.0152 29.7115 46.056C29.7082 46.0153 29.6793 45.9483 29.6692 45.9007C29.7329 45.7869 29.7965 45.6733 29.86 45.5597L29.6692 45.9005ZM29.1382 47.2628C29.2497 47.316 29.3419 47.4021 29.4022 47.5093C29.4626 47.6165 29.4882 47.7396 29.4755 47.8617C29.4882 47.7396 29.4626 47.6165 29.4022 47.5094C29.3419 47.4022 29.2497 47.3162 29.1382 47.263C29.117 47.0267 29.1617 46.789 29.2679 46.5764C29.1618 46.789 29.1171 47.0265 29.1385 47.2628L29.1382 47.2628ZM29.2654 42.3596C29.2681 42.3822 29.2727 42.4047 29.279 42.4266C29.2727 42.4047 29.2681 42.3823 29.2654 42.3596C29.2119 42.3234 29.1621 42.2822 29.1164 42.2367C29.1621 42.2822 29.2121 42.3234 29.2657 42.3595L29.2654 42.3596ZM28.5556 39.7956L28.8407 40.1962C28.9701 40.346 28.9077 40.4981 28.8462 40.6502C28.957 40.7986 29.1968 40.7136 29.329 40.7824C29.1968 40.7136 28.9571 40.7986 28.846 40.6502C28.9079 40.4981 28.97 40.346 28.8403 40.1961C28.7456 40.0627 28.6507 39.9292 28.5554 39.7956L28.7388 39.4388L28.5556 39.7956ZM28.5556 37.8389C28.4667 37.9649 28.3381 38.0697 28.2583 38.2008C28.5258 38.3416 28.46 38.6434 28.5793 38.8557C28.6226 38.8329 28.6707 38.8204 28.7198 38.8192C28.7688 38.818 28.8174 38.8281 28.8619 38.8487C28.8174 38.8281 28.7688 38.818 28.7198 38.8193C28.6707 38.8206 28.6226 38.8331 28.5793 38.8559C28.46 38.6434 28.5258 38.3417 28.2581 38.2008C28.3382 38.0698 28.4669 37.9649 28.5559 37.8388L28.5556 37.8389ZM28.397 37.0909C28.4822 37.0956 28.567 37.0772 28.6426 37.0378C28.567 37.0773 28.4821 37.0956 28.3968 37.091C28.4025 36.9449 28.3846 36.7989 28.3435 36.6584C28.3846 36.7988 28.4028 36.9448 28.3972 37.0909L28.397 37.0909ZM28.2358 34.3894C28.3439 34.411 28.4542 34.4192 28.5643 34.4138C28.4542 34.4192 28.3437 34.411 28.2356 34.3894C28.2444 34.3701 28.2544 34.3514 28.2636 34.3322C28.2547 34.3513 28.2446 34.3701 28.2358 34.3893V34.3894ZM27.5091 31.0324C27.4724 30.8899 27.4358 30.7474 27.3991 30.6049L27.5093 31.0322C27.4918 31.1865 27.7749 31.3428 27.8571 31.4977C27.7751 31.3428 27.4919 31.1865 27.5093 31.0324L27.5091 31.0324ZM27.5054 31.8464C27.5296 31.9344 27.5843 32.0111 27.6599 32.0631C27.5844 32.0111 27.5296 31.9344 27.5054 31.8464V31.8464ZM28.3414 31.9921C28.38 31.5994 28.2971 31.2043 28.1038 30.8596C27.9106 30.5148 27.6161 30.2366 27.2595 30.0622L27.2593 30.062C27.6159 30.2364 27.9105 30.5146 28.1038 30.8594C28.2972 31.2042 28.38 31.5993 28.3414 31.9921V31.9921ZM30.2179 21.9177H30.2176C30.0325 21.8005 30.0135 21.7059 30.056 21.6196C30.0137 21.7059 30.0327 21.8004 30.2179 21.9177V21.9177ZM30.3035 21.2984C30.2896 21.3357 30.2688 21.3699 30.242 21.3994C30.2687 21.3699 30.2896 21.3357 30.3035 21.2986C30.2774 21.25 30.2626 21.1962 30.2606 21.1412C30.2585 21.0862 30.2693 21.0315 30.2918 20.9812C30.2693 21.0315 30.2587 21.0862 30.2608 21.1412C30.2629 21.1961 30.2776 21.2499 30.3037 21.2984L30.3035 21.2984ZM31.3923 18.9813C31.4164 19.0285 31.4372 19.0724 31.4545 19.113C31.4372 19.0723 31.4164 19.0284 31.3923 18.9813L31.3921 18.9788L31.3923 18.9813ZM30.3735 20.8033C30.3585 20.7163 30.3482 20.6285 30.3425 20.5403C30.3482 20.6284 30.3587 20.7162 30.3737 20.8033L30.3735 20.8033ZM29.1412 22.9818C29.132 22.8343 29.1693 22.6876 29.248 22.5622C29.1693 22.6876 29.1319 22.8343 29.1412 22.9817V22.9818ZM22.6825 32.9828C22.6885 33.0024 22.7016 33.0192 22.7193 33.0298C22.7016 33.0192 22.6886 33.0025 22.6825 32.9828C22.5298 32.9064 22.4042 32.7854 22.3226 32.6361C22.4042 32.7854 22.53 32.9064 22.6828 32.9828H22.6825ZM35.3203 9.96027C35.4737 9.62164 35.6182 9.2786 35.7824 8.94524C35.6182 9.2786 35.4739 9.62165 35.3208 9.96044L36.0191 10.3492L35.3203 9.96027ZM27.2051 26.4428L26.642 26.1215C26.5349 26.2521 26.4699 26.4119 26.4561 26.5798C26.4699 26.4119 26.5347 26.2521 26.6418 26.1215L27.0352 25.8643L26.642 26.1215C26.8298 26.2286 27.0174 26.3357 27.2051 26.4428V26.4428ZM27.7074 25.5109V25.5109C27.801 25.5862 27.8904 25.6664 27.9755 25.7511C27.8904 25.6664 27.8009 25.5863 27.7074 25.5109V25.5109ZM30.48 21.7995L30.5301 21.3714C30.5134 21.514 30.4968 21.6568 30.4803 21.7996L30.48 21.7995ZM31.0291 20.9231L30.8719 20.8943L31.0291 20.9231C31.0797 20.95 31.1288 20.9792 31.1763 21.0108C31.1288 20.9791 31.0798 20.9499 31.0294 20.9231L31.0291 20.9231ZM32.8011 23.4846C32.9286 23.5614 33.0481 23.6505 33.1579 23.7507C33.0481 23.6505 32.9286 23.5613 32.8011 23.4846V23.4846ZM33.2146 23.7957C33.3262 23.8959 33.456 23.9742 33.597 24.0265C33.8076 24.1737 34.0077 24.3353 34.1957 24.51C34.0077 24.3353 33.8076 24.1738 33.597 24.0266C33.456 23.9742 33.3264 23.8959 33.2148 23.7957L33.2146 23.7957ZM33.8743 26.0819C33.6958 25.9815 33.5183 25.8786 33.341 25.7753C33.5182 25.8786 33.6957 25.9815 33.8743 26.0819C33.8864 26.093 33.899 26.1035 33.9122 26.1132C33.899 26.1034 33.8863 26.093 33.8743 26.0818V26.0819Z" fill="#FAE465"/>
</svg>
