<svg width="317" height="45" viewBox="0 0 317 45" fill="none" xmlns="http://www.w3.org/2000/svg">
<path d="M279.317 18.3333C279.307 19.3801 281.838 18.9264 281.983 19.4943C282.596 20.3121 281.02 20.4717 281.475 21.2461C293.034 21.8923 304.809 22.5055 316.329 24.1574C314.244 24.6827 312.05 25.3154 309.972 24.9354C306.527 24.4103 302.976 24.1158 299.398 24.0585C292.026 23.7243 284.788 22.6851 277.333 22.8325C276.781 22.8434 276.227 22.8339 274.647 22.8339C276.939 23.2929 278.807 23.1583 279.599 24.4221C273.345 24.7362 267.418 23.8519 261.188 23.62C261 24.0293 260.799 24.4684 260.577 24.9509C279.044 25.4531 297.416 26.1131 316.365 28.3213C312.719 29.4669 309.728 29.0707 306.939 28.9089C301.087 28.5693 295.282 27.9918 289.449 27.5477C288.625 27.4851 287.382 27.4455 286.959 27.6999C285.047 28.8516 283.23 28.1536 280.912 27.9763C282.16 27.2806 283.066 28.3297 284.248 27.4256C279.486 26.6794 274.946 27.8303 270.457 27.4208C265.938 27.0085 261.289 27.0106 256.099 26.8078C256.773 27.1976 257.615 27.491 258.55 27.6619C259.485 27.8327 260.483 27.8757 261.456 27.787C265.785 27.8136 270.024 28.3372 274.349 28.2689C278.852 28.2986 283.343 28.5218 287.78 28.9362C290.646 29.0588 293.53 28.9621 296.345 28.649C297.292 28.5704 296.762 28.8911 296.905 29.1036C297.357 29.7773 298.785 29.7192 299.996 29.7045C304.373 29.7216 308.724 30.0759 312.917 30.7567C313.535 30.8459 314.29 30.7715 314.332 31.2997C314.372 31.8223 313.608 31.7519 313.035 31.9045C309.737 32.7824 306.559 31.7688 303.325 31.7425C301.518 31.7278 299.637 30.6866 298.09 32.0947C297.808 32.3513 296.934 32.1451 296.266 32.0466C292.391 31.4755 288.323 31.6515 284.376 30.9536C282.41 30.6058 279.558 31.0503 277.092 31.3103C273.672 31.671 270.186 30.8072 266.652 30.6509C263.666 30.5188 260.508 30.2849 257.534 30.1757C251.381 29.9498 245.207 29.3044 238.289 29.8584C242.122 30.5279 246.145 30.8219 250.168 30.7265C258.62 30.7299 266.78 32.378 275.278 31.8797C281.554 34.1936 289.061 32.993 295.848 33.9591C300.189 34.4082 304.582 34.6934 308.996 34.8126C309.354 34.8353 309.675 35.0267 309.935 35.4411C292.615 33.89 275.088 34.4092 257.266 33.2959C261.495 34.8122 266.625 33.0918 270.54 35.2879C263.563 36.6916 256.851 34.6185 250.161 35.2295C252.619 36.2452 256.361 36.016 258.163 37.5958C258.536 37.9228 258.271 38.3868 257.158 38.5207C259.193 39.2239 260.153 37.0149 262.115 38.2573C262.217 37.8536 262.306 37.5007 262.391 37.1602C263.104 36.9142 264.102 37.7472 263.746 38.2372C263.713 38.3521 263.722 38.4695 263.773 38.5825C280.076 38.9258 296.328 39.7868 312.445 41.1608C312.025 41.4549 311.473 41.6858 310.842 41.8312C310.21 41.9767 309.52 42.032 308.838 41.9917C302.733 41.6478 296.626 41.3131 290.522 40.9612C287.79 40.8037 285.003 40.6854 282.312 40.637C275.8 40.5202 269.353 40.135 262.875 39.8911C255.135 39.5996 247.328 39.8135 239.55 39.83C238.415 39.8323 237.04 39.5727 236.254 40.555C249.154 40.7712 261.942 40.9776 274.687 41.3801C287.54 41.7859 300.527 42.2879 312.998 44.4145C309.346 45.0423 305.462 45.1676 301.697 44.779C297.18 44.3459 292.622 44.0466 288.044 43.8825C278.107 43.6689 268.199 43.2012 258.259 42.9972C242.917 42.6823 227.586 42.7904 212.251 42.7218C202.884 42.6798 193.507 42.5665 184.152 42.7471C168.706 43.0452 153.249 42.8793 137.815 43.1439C126.442 43.3388 115.065 43.2183 103.71 43.4814C94.0003 43.7063 84.2743 43.8909 74.5861 44.2345C63.2206 44.6376 51.8776 44.3506 40.5313 44.528C37.1557 44.6498 33.7666 44.6005 30.408 44.3808C30.7053 44.0456 31.1971 43.7723 31.8083 43.6025C32.4195 43.4328 33.1166 43.3759 33.7931 43.4406C40.9997 43.4843 48.2038 43.2739 55.3598 42.8106C58.7906 42.5412 62.2812 42.5904 65.6815 42.956C67.7904 43.239 70.2766 42.7388 72.6107 42.6388C78.9719 42.366 85.3324 42.1573 91.7026 41.9524C101.942 41.4588 112.221 41.2556 122.5 41.3437C129.134 41.5071 135.71 40.8812 142.309 41.273C144.281 41.2621 146.223 41.0136 147.994 40.5455H132.776C124.521 40.5455 116.262 40.4598 108.012 40.5719C101.072 40.6662 94.1297 40.7889 87.193 41.1313C84.9505 41.2421 82.5159 41.1752 80.1462 41.2321C71.4238 41.4409 62.6864 41.6413 53.9614 41.5752C49.3555 41.4513 44.7383 41.5882 40.1849 41.9838C38.2231 42.1919 36.6368 41.0365 34.5705 41.5461C34.7414 41.8597 34.9158 42.1799 35.16 42.6286C33.5601 42.6286 31.6883 42.9439 30.8532 42.5741C27.1966 40.9545 22.7048 41.4754 18.6553 40.9414C17.1729 40.7458 15.3758 40.8915 14.9545 39.8777C14.5532 38.9116 16.5878 38.8197 17.2963 37.9635C13.6488 36.9548 13.2468 34.3259 9.96969 32.7372C8.66526 32.8462 9.17221 34.7561 6.37349 33.6808C6.68692 35.4483 10.2236 36.5005 8.7793 38.3066C6.81194 38.5555 5.91251 37.7088 5.20674 37.0504C1.9855 34.2939 0.187611 31.1208 0 27.861C0.151955 22.925 0.0765115 17.8814 3.04861 13.0765C3.19462 12.7338 3.42606 12.4034 3.7366 12.0944C4.53867 11.4651 4.75014 10.3821 6.8008 10.5762C8.68742 10.7549 8.98566 11.6657 9.05614 12.4961C9.13999 13.4856 10.3889 13.8061 11.896 14.3016C12.6377 13.3144 12.3292 12.169 14.1144 11.5897C14.2607 11.5422 14.4093 11.3233 14.3498 11.2888C11.632 9.71535 15.4236 9.70008 16.3097 8.90836C15.0798 8.25444 14.1465 7.45521 13.5831 6.57335C13.0197 5.6915 12.8415 4.751 13.0624 3.82562C11.7945 3.57658 10.4021 3.58679 9.1471 3.85435C7.61437 4.26205 7.30808 3.4835 6.53714 3.14634C7.09626 2.7865 7.16622 2.3149 8.46827 2.19234C15.0045 1.49348 21.6128 1.00903 28.257 0.741655C45.5316 0.254296 62.8074 0.108059 80.0995 0.00680287C90.4421 -0.0538322 100.699 0.297789 110.966 0.785346C114.091 0.933763 117.083 0.125498 120.179 0.437392C127.013 1.12578 133.899 0.672588 140.757 0.77434C147.019 0.867274 153.238 0.338404 159.562 0.736198C170.117 1.40021 180.778 0.952187 191.372 1.20364C199.522 1.39704 207.704 1.52733 215.82 1.93008C226.104 2.44062 236.391 2.89777 246.683 3.35639C256.305 3.7851 266.053 3.72842 275.512 4.8256C281.65 5.53747 287.926 5.65804 294.044 6.55448C297.558 7.15715 301.145 7.62545 304.78 7.95593C306.589 8.077 305.538 8.68474 306.059 9.06252C302.618 8.45349 299.061 8.51749 295.661 8.02865C292.012 7.35554 288.024 7.46811 284.524 8.34303C281.983 9.03894 279.086 8.52126 276.525 8.29745C267.679 7.52465 258.77 7.11368 249.889 6.54171C239.403 5.8665 228.868 5.56194 218.371 5.03723C209.735 4.60556 201.094 4.6864 192.498 4.32962C182.615 3.91935 172.738 4.34617 162.903 3.97612C157.576 3.77569 152.267 3.76953 146.95 3.68383C143.282 3.62478 139.652 4.60416 135.87 3.88189C136.385 4.04963 136.901 4.36381 137.416 4.36341C146.568 4.35608 155.489 5.7056 164.709 5.56006C170.432 5.48454 176.156 5.68917 181.81 6.17146C184.566 6.40013 187.287 5.89275 190.234 6.10438C196.824 6.57787 203.573 6.43105 210.213 6.65813C220.923 7.02452 231.674 6.97715 242.328 7.42299C253.966 7.92783 265.514 8.92023 276.869 10.3912C282.343 11.0705 287.916 11.4878 293.525 11.6386C294.042 11.6489 294.532 11.7657 294.894 11.9651C290.881 12.0617 286.86 11.9312 282.896 11.5759C282.39 12.396 284.091 12.2063 284.295 12.9634C275.794 14.1521 267.27 11.9345 258.897 12.8685C260.718 13.8644 263.291 13.5629 265.373 13.582C271.624 13.6392 277.62 14.4962 283.712 14.9925C286.163 15.1922 288.774 14.9674 291.12 15.5981C292.491 15.9669 295.073 14.7979 295.349 16.5738C298.79 16.0665 301.584 17.6624 304.97 17.4232C308.424 17.1791 311.684 17.8688 315.014 18.1856C315.746 18.2552 316.841 18.3698 316.982 18.9607C317.15 19.6632 316.111 19.8347 315.187 20.0578C312.198 20.7803 309.404 19.755 306.484 19.7529C305.688 19.7523 304.771 19.5721 303.897 19.5875C295.599 19.7338 287.508 18.6836 279.287 18.3504C274.052 18.0206 268.823 17.6889 263.599 17.3556L263.517 17.823C268.758 18.1406 273.934 18.8315 279.317 18.3333ZM256.555 19.5696C261.042 21.0108 265.681 20.4879 270.156 20.6053C265.692 20.0318 261.138 19.6851 256.555 19.5696Z" fill="#FAE465"/>
</svg>
