<svg width="14" height="15" viewBox="0 0 14 15" fill="none" xmlns="http://www.w3.org/2000/svg">
<path d="M0.850517 1.07219C1.2085 0.697941 1.7889 0.697941 2.14688 1.07219L6.9987 6.14455L11.8505 1.07219C12.2085 0.697941 12.7889 0.697941 13.1469 1.07219C13.5049 1.44645 13.5049 2.05323 13.1469 2.42748L8.29506 7.49984L13.1469 12.5722C13.5049 12.9464 13.5049 13.5532 13.1469 13.9275C12.7889 14.3017 12.2085 14.3017 11.8505 13.9275L6.9987 8.85513L2.14688 13.9275C1.7889 14.3017 1.2085 14.3017 0.850517 13.9275C0.492536 13.5532 0.492536 12.9464 0.850517 12.5722L5.70234 7.49984L0.850517 2.42748C0.492536 2.05323 0.492536 1.44645 0.850517 1.07219Z" fill="#3F3F3F"/>
</svg>
